<svg xmlns="http://www.w3.org/2000/svg" viewBox="0 107 1000 785" enable-background="new 0 107 1000 785"><desc xmlns:shape="http://adobe.com/products/shape"><shape:version>1.1.0</shape:version><shape:captureDetail>0.750000</shape:captureDetail><shape:source>1</shape:source></desc><path fill="#2BC22B" d="M473.2 461.2c-13.1 2.2-27.9 4.2-40.3 9.3-14.3 5.8-8.7 20.5-7.7 33.4 1.2 15 2.4 30.1 3.6 45.1.3 3.5 4.1 36.1-5.2 29.1-7.3-5.5-5.8-31.4-6.6-39.2-1.6-16.1-3-32.3-4-48.5-2.1-31.4-3.3-62.9-3-94.4.2-26.1 5.7-50.4 22.5-71 6.6-8.1 16.3-18.8 26.7-21.8 12.6-3.7 20.2 6.8 24 17.4 9.5 26.3 8.6 57.3 10.7 84.8 2.4 32.2 4.8 64.3 7.2 96.5 1.3 16.8 5.2 35.6 4 52.4-.4 4.9-.6 13-7.3 8.6-5-3.4-5-14-5.6-19.1-2.1-18.2-3.4-36.6-4.2-54.9-.7-12.6 3.4-30.7-14.8-27.7m3.3-125.9c-1.5-11.8-7.9-25.7-21.2-17.2-11.1 7.1-19.7 21.9-24.7 33.6-12.2 28.3-10.4 60.4-7.9 90.5.4 4.3-.3 12 3.7 15 4.8 3.6 17.6-1.4 22.8-2.5 11.2-2.4 33.7-1.6 34.9-14.7 1.5-16.5-1.2-34.6-2.4-51-1.3-18.1-3.1-35.9-5.2-53.7-.7-5.5 4.3 35.6 0 0zM554 437.5c3.2-11.5-8-26.1-11.9-36.4-4.6-12.3-7.9-25.4-7.4-38.7.7-19.9 11.3-41.9 31.2-48.8 20.3-7 43.3 3.9 50.9 23.8 8.1 21.2-1.1 44.5-14.2 61.5-7.7 9.9-19.6 17.4-26.6 27.5-6.5 9.5 1.6 18.7 7.7 26.2 7.9 9.6 15.6 19.9 24.1 29 9.6 10.3 16.3-.7 22.9-9.8 2.6-3.6 10-21.1 15.6-11.4 5.7 9.9-13.3 24.9-17.4 31.6-7 11.6 8.5 11.1 7 21.3-1.8 12.6-17.9-3.8-23.2-4.3-6.8-.6-14 3.9-20.4 5.6-7.2 1.9-14.6 2.8-22.1 2.6-11.6-.3-26.2-2.7-34.6-11.8-9-9.8-5.9-23.1-1.4-34.2 5-11.7 16.1-21.9 19.8-33.7m49.3-102.1c-16.3-19.4-40.8-16.1-51.6 6.7-9.2 19.3-6 43.9 2.8 62.8 3.6 7.7 6.8 17.9 15.3 13.1 7.7-4.4 16.2-17.9 22-24.9 12.6-15 26.6-39.2 11.5-57.7m-42.2 170.3c8.8 1.3 42.7 3.2 39.9-12-1.1-5.9-11.9-14.6-15.7-19.5-5-6.4-9.7-16.3-15.9-21.4-11.5-9.5-19.2 10.9-23.1 19.5-7.4 16.3-4.9 30.4 14.8 33.4 10.3 1.5-6.8-1 0 0zM992.4 692.1c-67-3.2-134.1-6.4-201.1-9.6-29.9-1.4-61.6-5.8-91.4-1.1-14 2.2-24.9 9.8-38.1 13.3-12.8 3.4-26.5-1.1-39.1-3.3-29.9-5.3-60.4 1.3-90.1 5.8-27.5 4.2-55 8.6-82.4 13.5-54.8 9.8-109.4 21.6-162.9 37.1-52.8 15.3-104.6 34.3-153.8 58.8-24.4 12.1-48.2 25.6-71 40.6-11.5 7.5-22.7 15.4-33.6 23.6-5.3 4-20.9 21.9-22.9 8.3-1.5-10.2 13-18.4 19.4-22.9 11.4-8.1 23-15.9 34.9-23.3 23.6-14.7 48.1-28.1 73.2-40.1 50.4-24.2 103.3-43.1 157.1-58.3 60.6-17.1 122.3-29.7 184.4-39.8 31.8-5.2 63.7-9.8 95.6-14.1 13.3-1.8 25.8-1.1 25.1-17.9-.4-10.1-11.1-27.4.5-35-51.6.6-103.1 5.7-153.8 15.2-12.2 2.3-24.4 4.8-36.6 7.6-11.6 2.7-25 8.1-37.2 6.4-9.5-1.3-15.6-6.4-25.4-2-8.6 3.8-14.3 11.6-18.2 19.9-7.9 17.1-9.9 36.6-27.6 47-13.8 8.1-32.1 8.9-46.7 2.2-14.4-6.7-19-23.8-37-19.1-15.6 4.1-34.9 29.6-51.9 17.2 12.8-17.5 36.7-20 54-31.2 21.5-13.9 18.7-44.1 32.6-64.2 12.8-18.5 40.5-31.2 60.7-15.8 9.9 7.5 9.4 19.1 15.4 28.9 6.6 10.6 19 11 28.5 3.7 12.5-9.6 11.7-26.3 9.3-40.3-3-17.4-7.3-34.7-10.2-52.2-5.9-35.3-9.8-71-12.5-106.7-2.6-34.9-4.1-69.9-5.2-104.9-.3-8.1-.5-16.2-.7-24.2-.1-3.4-2.9-24.7-.7-26.9 3.4-3.5 22.8-3.6 27.3-4.3 9.1-1.4 18.2-2.9 27.3-4.3 36.4-5.8 72.7-11.6 109.1-17.3 12.7-2 31.5-.6 37.6-14.1 5.8-13.1 4.3-26.4 14-38.4 14.7-18.3 50.6-19.9 54.6 8.7 1.9 13.7 1.7 23.9 16.9 30.1 15 6.1 33.2 2.2 48.8 1 18.3-1.4 36.6-2.9 54.9-4.3 10.3-.8 36.2-7.9 44.1 1.6 11.9 14.2-20 10.7-26.7 10.9-20.1.4-40.2 1.1-60.3 2-71.3 3.2-142.4 9.5-213.2 18.9-20 2.6-39.9 5.5-59.8 8.7-10.8 1.7-21.7 3.5-32.5 5.3-7.1 1.2-16 1.4-22.3 5.3-13.4 8.6-8.3 34.9-8.1 48.2.3 19.8 1 39.5 2 59.2 4.5 80.7 15.8 161 33.9 239.7 30.5-9.2 61.8-16 93.4-20.2 27.6-3.7 55.4-3.4 83-6.7 20.3-2.4 42.6-7.6 56-24.3 7.3-9 11.3-18.6 20.9-25.8 10.4-7.8 23.4-12.2 36.4-11.8 24.7.8 41.4 16.4 52 37.2 10.2 19.7 32.8 19.7 52.4 16 10.4-1.9 19.5-3.2 20.3-15.2 1.2-16.9-1.7-35-2.4-51.9-1.4-32.4-2.5-64.8-3.2-97.3-.9-37.1-1.3-74.1-1.3-111.2 0-18.5.1-37.1.3-55.6.1-7.1-2.4-32.8 11.1-31.8 1.1 126.1 2.3 252.2 3.3 378.2-21-4.1-44.7-8.5-64.4 2.5-15.8 8.8-26.6 26.1-27.1 44.2 94.1-3.2 188.5 3.8 281.1 20.6m-315.1-19.8c15-3.4 25.4-16.1 32.1-29.2 6.4-12.5 7.3-24.9 5.5-38.7-4.7-35.1-46.9-43.1-73.3-26.7-6.6 4.1-12.5 9.5-17.4 15.6-5.7 7-7 9.7-5.7 17.7 1.2 6.7 3.8 7.1-2.8 12.2-6.1 4.7-9 5.2-10.8 13.3-3.1 14.4-1.8 35.2 15.8 38.6 9 1.7 19.8-.3 28.9-.7 9.2-.5 18.8-.1 27.7-2.1m-363.8-29.6c-5.2-15.6-18.6-38.7-37.3-26.3-14 9.3-24.7 24.8-30.2 40.5-1.6 4.5-6.9 17.2-1.5 21 3.8 2.7 20.9-6.4 24.6-7.8 11.4-4.3 49.9-10.9 44.4-27.4m-55.1 73.1c29.4 18.1 61.5-43.8 50.4-47.6-5.1-1.7-20.7 6.9-25.8 8.8-8.9 3.3-17.8 6.8-26.6 10.4-5.9 2.4-15.3 4.5-13.7 12.5 1.4 6.1 10.8 12.9 15.7 15.9m338-469.5c-.9-11.4-3.1-33.3-14.5-39.4-13.4-7.3-27.6 11.6-32.4 21.6-4.5 9.4-12 27.5 3.3 27.7 7.9.1 44.4.5 43.6-9.9"/><path fill="#2BC22B" d="M225.2 508.3c-.8 5-.9 9.6.9 14.4 2.2 6 5.5 5.7 1.5 12.1-6.5 10.5-25.6 17.6-35.8 23.8-10.1 6.1-25.1 10.9-26.4 24.2-1.2 13 4 28 6.3 40.7 2.8 15.2 5.6 30.5 8.4 45.7 1 5.4 11.1 38.5-3.7 30.8-8.6-4.5-8.5-29.7-10.1-38.2l-9-49.5c-1.9-10.6-9.3-29.2-6.3-39.6 3.1-11 23.6-18.3 32.5-23.6 9.7-5.8 23.4-11.1 27.8-22.3 5.5-14.1 5.4-32.5 7.6-47.5 2.3-15.2 4.5-30.5 6.8-45.7.8-5.4.2-14.7 3.7-19.1 4-5.1 14.1-6 19.6-7.4 10.2-2.6 78.3-25.5 81.8-16.4 5.4 14.2-74.1 24.6-83.8 29.5-12.7 6.5-12.2 23-14 35.6-2.6 17.4-5.2 35-7.8 52.5-.9 5.9 3.4-22.8 0 0zM684.1 512.3c7.3 7.3 29.9.2 39-.4 7.3-.5 34.3-5.4 37.5 4.6 3.4 10.5-23.9 8.4-29.2 8.7-16.4 1-33 2.7-49.4 3-15.9.4-14.8-6.2-14.3-20.1.7-17.9.4-35.8.2-53.7-.4-31.2-1.2-62.4.1-93.6.4-9.8-2.3-32.2 6.2-39.3 4.3-3.5 10.8-1.9 15.9-1.8 8.8.1 17.6-.3 26.3-1.3 6.3-.7 33.7-9.9 37.5-2.4 6.2 12.3-26.2 12.8-30.8 13.3-10.8 1.2-29.4-.6-37.5 7.5-8.2 8.2-6.2 24.7-6.4 35.1-.3 14.7-2 30.3-.8 45 1.5 17.8 15.5 11.6 29.2 9.9 5.6-.7 37-8.6 36.8 4.4-.2 11.3-27.7 7.9-33.9 8.3-15.2 1-32.5-.5-32.5 18.5 0 10.1 1.4 20.5 2.1 30.6.4 6.2-.9 18.7 4 23.7 3.4 3.3-2.5-2.5 0 0zM885.4 556.3c6.3-11.2 7.8-25.1 4.5-37.5-1.2-4.5-7.7-12.8-3.8-17 3.9-4.2 8.8-.2 11.3 3 14.2 18.4 2.7 50.9-13 64.2-4.4-2.9-.8-9.5 1-12.7 8.4-15.1-2.3 4.1 0 0zM917.2 584.8c-6.6-4.8 8.9-26.7 10.8-32.4 2.5-7.6 3.2-14.9 3.1-22.9-.1-4.4-1.5-10.4 5.7-8.7 10.2 2.5 4.7 25.9 2.7 32.4-3.9 12.4-11.7 23.8-22.3 31.6-3.3-2.4 16.8-12.3 0 0zM545.6 176.1c3.9 4.9 9.2 23-3.2 15.9-4.3-2.5-8.6-12.6-11.3-16.8-4-6.5-7.8-13.1-11.3-19.8-1.6-3.1-6.4-9.3-3.8-12.8 3.1-4.2 7.6-1.4 10.4 1.4 8.3 8.3 11.7 22.6 19.2 32.1 1.8 2.3-6.8-8.5 0 0zM604.9 117.4c1.6 5-3.3 14.4-4.7 19.3-1.9 6.6-3.9 13.1-5.8 19.7-1.5 5.2-7.2 27.3-13.9 12.6-3.7-8 6.1-26.7 8.5-34.6.4-1.4 11-31.6 15.9-17 .4 1.5-1.1-3.1 0 0zM475.5 187c11.2 7.9 24.4 15 34.6 24.1 7.1 6.4 6 14.2-5 10.9-8.8-2.6-21.6-13.3-29-19.2-2.8-2.2-8-5-8.2-9.3-.1-3.3 3.5-9.4 7.6-6.5 11.5 8-3.4-2.4 0 0zM660.8 164.8c5.6-3.6 18.4-5.4 14.4 4.9-1.4 3.5-13.2 8.9-16.4 11.1-4.7 3.2-9.4 6.9-14.4 9.7-7 4-16.5 3.8-11.1-6.8 4.1-8.1 19.9-14.2 27.5-18.9 3.2-2-7 4.4 0 0z"/></svg>