<svg xmlns="http://www.w3.org/2000/svg" viewBox="-463 451 71.8 88.5" enable-background="new -463 451 71.8 88.5"><path fill="#FEDB48" d="M-463 480.1c1.6-.7 1.3-2.1 1.2-3.4 0-1.8 1.2-3 1.5-4.6.4-.5.8-1 1.2-1.6.1-.9-.2-2 .7-2.7 3-3.6 5.5-7.8 10.6-9 .8-.2 1.6-.8 1.4-1.9-.2-.3-.2-.7 0-1 .5-.8 1.2-1.3 2.2-1.3 1.6.3 3.3-.8 4.9-.1 4.3-1 8.5-2 12.8-3 .7 0 1.4 0 2 .1 1.1 1.1 2.2 1.7 3.8.8 1.7-1 3.4-.3 5.1.4.2.1.4.1.7.2.3.1.3.3.3.5-.1.1-.2.2-.3.2-1.2.2-.8.8-.3 1.3 1.3 1 2.8 1.6 4.3 1.8 4 .5 6.4 3.1 8 6.5.7 1.5 1.7 2.2 3.2 2.7 4.3 1.4 5.5 3.1 5.9 7.8.1 1.1.9 2.1 1.4 3.1.5.9.6 1.8-.2 2.6 0 1.7.9 3.8-2 4.2-2.4 1.9-1.7 5-2.7 7.4.9 1.4 1.8 2.7 2.7 4.1l1.4 1.4c.8.5 1.6 1.1 1.8 2.1.4 2.1-1.2 2.3-2.5 2.8-1.2.5-2.8 1.3-1.7 3 2.6 3.8-.1 4.3-2.7 5-.4.1-.9.1-1.6.2 1.4.7 2.5 1.1 3.5 1.8.7.5 1.9 1.4.9 2.1-2.4 1.7-1.5 4-1.7 6.1.2 2-.8 3.1-2.7 3.5-1 .9-2.8.5-3.4.6-.7-.3-.8-.2-1.4-.3-2.7-1.1-4.7-.2-7.4-.2-1.8 0-3.2.5-3.5 2.5-.5 1.8-.2 8.1-.3 9.9-8.6-.2-18.5 3.2-27.2 4 .5-4.1.4-17.9-1.2-22.3-2.4 1.3-6.2.6-8.2-2-.7-.9-1.2-1.6-2.3-2.1-.9-.4-2-1.6-1.2-3 .4-.7.6-1.6-.1-1.7-2.7-.5-2-2.6-2.2-4.4-.8-1.5-.7-2.9 0-4.4-.6-2.5-2.9-4.1-3.4-6.7 1.5-3 .7-5.9-.1-8.8.6-1.8-1.2-2.7-1.2-4.2z"/></svg>