<svg xmlns="http://www.w3.org/2000/svg" viewBox="0 0 1000 1000" enable-background="new 0 0 1000 1000"><path fill="#2BC12B" d="M619.7 704.2c1.8 1.4 1.5 5.1-.7 5.2l.2-.1c-3.2 1.7-7.5-2.4-6-5.7 2.1-.4 4.6-.7 6.5.6zM584.3 715.5c.2 3.2.1 6.7-2.1 9.1-2.2 2.3-7 1.9-7.7-1.2-.2-1.1.1-2.2.5-3.3.7-2.2 1.5-4.5 3.4-5.8s5.1-.9 5.7 1.3l.2-.1zM583.1 653.9c.4 2.9-.7 6.2-3.2 7.8-2.5 1.5-6.4.7-7.6-2-.6-1.3-1.3-2.6-2.2-3.7-2.7-3.3.2-8.9 4.4-9.4 4.1-.6 8 3.2 8.6 7.3zM734.4 78c10.2 19.5 15.1 42.4 10.2 63.9-5.1 22.5-20.3 41.4-37.1 57.1-39.6 36.9-91.1 60.8-144.8 67.3-6.7.8-14.4 1-19-4-5-5.5-3.4-14.1-1-21.2 27.1-80.4 107.8-134.4 132.4-215.5 2.1-6.8 12.5-3.3 17.7 1.6 16.3 14.7 31.4 31.3 41.6 50.8zM823.4 499.8c7.9 59.6-2.6 120.5-22.7 177.2-15.8 44.6-37.7 87.3-67.8 123.8-51.5 62.5-127.4 104.9-207.9 113.4-80.5 8.4-164.6-18-224.1-72.9s-92.6-138-84.6-218.5c3.8-38.7 16.6-76.2 34.2-110.8 39.3-76.9 109-143.4 194.3-156.7 25.8-4 54.2-2.5 75.1 13 10-56.9-5-117.7-40.1-163.6-4-5.2 3.4-12.9 9.9-11.6s10.6 7.4 14 13.1c27.4 46.6 45.5 98.5 53.3 151.9 25.6-22.2 61.9-29.4 95.4-24.5 33.5 4.8 64.6 20.6 92.6 39.6 18.2 12.4 35.5 26.5 48.4 44.2 17.5 23.9 26.1 53.2 30 82.4zm-89.3 140.8c.9-19.5-5.1-39.8-18.8-53.7-11.8-12-28.2-18.5-44.9-21-54.5-8.4-108.8 22.9-144.4 65-15.1 17.9-28 38.4-33.1 61.3s-1.5 48.5 13.3 66.7c23.2 28.4 66.5 31.2 101.8 21 44.9-13.1 84.4-43.8 108-84.1 9.9-17 17.2-35.8 18.1-55.2z"/><path d="M968.9 893.2c9.6 1.8 22.1 7.8 19.4 17.2-87.5-16.8-176.2-27.3-265.1-31.2-29.3-1.3-60.2-1.5-85.9 12.5-80.3 43.7-181.1 47.5-264.5 9.9-15.9-7.2-34.4-3.5-51.4.5-104.3 24.5-207 55.6-307.3 93-7-4.2 1.6-14.2 9.2-17.1 102.6-38.9 207.9-70.7 314.9-95.1-69.9-37.1-117.5-110.5-129.7-188.7s9.4-159.9 52.9-226c27.5-41.8 64.1-78.3 108.6-101.1 44.5-22.9 97.1-31.4 145.5-18.9-.7-55.5-20.7-110.6-55.8-153.6 6.2-15.1 28.3-17.4 42-8.6 13.7 8.8 21 24.6 27.6 39.5C583.6 154.9 633.8 80.9 679.6 4.2c44.5 25 79.4 72.5 76.5 123.5-2.6 46.2-35.4 86.5-75.1 110.4-39.7 23.9-85.8 34.3-131 44.3 6.2 19.2 12.3 38.5 18.4 57.7 57-32.6 133-21.9 184.9 18.5s80.3 106 84.5 171.6c4.1 65.5-14.1 131-42.5 190.2C768.7 776 732.6 827.9 684 865.7c95.5 1.1 190.9 10.3 284.9 27.5zM800.7 677c20.1-56.6 30.6-117.6 22.7-177.2-3.9-29.2-12.5-58.5-29.9-82.3-13-17.8-30.3-31.9-48.4-44.2-28-19.1-59.1-34.8-92.6-39.6-33.5-4.8-69.8 2.4-95.4 24.5-7.7-53.4-25.9-105.3-53.3-151.9-3.3-5.7-7.5-11.8-14-13.1s-13.9 6.4-9.9 11.6c35.1 45.8 50 106.7 40.1 163.6-21-15.5-49.4-17-75.1-13-85.4 13.3-155 79.7-194.3 156.7-17.7 34.6-30.4 72.1-34.2 110.8-7.9 80.6 25.2 163.6 84.6 218.5 59.5 54.9 143.5 81.3 224.1 72.9 80.5-8.5 156.4-50.9 207.9-113.4 30-36.6 51.9-79.4 67.7-123.9zm-56-535.2c4.9-21.5-.1-44.3-10.2-63.9-10.2-19.5-25.3-36-41.5-51-5.2-4.8-15.6-8.4-17.7-1.6-24.7 81.3-105.4 135.3-132.5 215.7-2.4 7-4 15.7 1 21.2 4.5 5 12.3 4.8 19 4 53.7-6.4 105.2-30.3 144.8-67.3 16.8-15.7 32-34.6 37.1-57.1z"/><path fill="#fff" d="M715.3 586.9c13.7 13.9 19.7 34.2 18.8 53.7s-8.2 38.2-18.1 55.1c-23.7 40.3-63.1 71-108 84.1-35.3 10.3-78.5 7.5-101.8-21-14.8-18.2-18.4-43.8-13.3-66.7s18-43.4 33.1-61.3c35.6-42.2 89.9-73.5 144.4-65 16.7 2.6 33.2 9.1 44.9 21.1zm-2.7 90.6c8-15.8 13.6-33.9 10-51.3-4.4-21-22.1-37.6-42.3-44.5s-42.7-5.3-63.3.4c-51 14.1-94 53.9-112 103.6-4 11-6.9 22.8-5.6 34.5 2.7 24.2 23.7 43.7 47.3 50 23.5 6.3 48.8 1.5 71.4-7.7 40.1-16.2 74.9-46.4 94.5-85z"/><path d="M621.4 691.9c-6.3-3.3-15.5-1-18 5.7-1.2 3-.9 6.5 0 9.6 1.4 5.3 4.3 10.3 8.3 14 1.9 1.8 4.1 3.3 6.6 3.8 7.5 1.3 12.9-7.6 12.8-15.2-.1-7.1-3.4-14.6-9.7-17.9zM646.5 668.5c.3.1.5.1.9.2-.3-.1-.6-.2-.9-.2-.6-.2-1.3-.1-1.9.1.7-.2 1.3-.2 1.9-.1zM558.8 739.2c-2.2 3.5 1.7 9.3 5.5 7.6.8 3.9-2.2 8.2-6.1 8.7-3.7-1.9-7.4-3.8-10-7-2.6-3.1-3.9-7.8-1.9-11.4 1.3-2.5 3.9-4 5.6-6.2 1.8-2.1 2.7-5.7.5-7.5-8.6-.1-15.7 8.4-16 17-.2 8.6 5 16.7 11.9 21.8 4 3 9 5.3 13.9 4.4 7.3-1.4 11.5-9.5 11.7-16.8.1-4.2-1-8.7-4.1-11.4-3.2-2.8-8.8-2.8-11 .8zM544.2 692.5c2.5-4.9 8.9-8.2 13.8-5.5 1.9 1.1 3.3 2.9 5.2 4 1.8 1.1 4.8 1.1 5.7-1 .8-1.7-.3-3.5-1.4-5-4.8-6.9-9.7-13.8-14.5-20.8-3.1-4.5-8.1-9.5-13.1-7.3-2.8 2.4 1.2 6.3 3.5 9.2 2.7 3.5 2.6 8.8-.1 12.2-2.8 3.4-7.9 4.6-11.9 2.7-4.2-2-8.8-6.9-12.4-3.9 4.2 12.8 12.8 24.1 24.1 31.6-.9-5.4-1.4-11.3 1.1-16.2zM657.1 666.3c.5 2.3.2 5-1 7v.1c1.3-2 1.5-4.7 1-7.1zM604.5 727.1c-2.9-1.3-6.2-1.5-9-2.9s-5-5-3.3-7.7c3.3-5.2 3.4-13.5-2.1-16.2-1.9-.9-4.1-1-6.2-.6-7.5 1.2-14 7.4-15.4 14.9s2.2 15.7 8.8 19.6c3.6 2.1 4.4 6.8 5.8 10.7 1.4 3.9 5.2 8 9 6.4 2.5-2.8-1.5-7.3-.2-10.8 2.1-5.9 13.9-.3 16.6-6 1.3-2.8-1.2-6.2-4-7.4zM663.2 662c-1.8-4-3.5-8-5.2-12-.4-.2-.9-.4-1.3-.4.5 0 .9.2 1.3.4 1.7 4.1 3.4 8.1 5.2 12zM624.5 678.4c0-2 2.1-3.8 3.9-3.8-1.8-.2-4.1 1.7-4.1 3.8 0 2.8 2.2 5.1 4.2 7 7.2 6.8 14.3 13.4 21.4 20.1h.1l-21.3-20.1c-2-1.9-4.2-4.2-4.2-7zM635.8 602.8c5.6 9.8 11.9 19 19.1 27.7 4-3.1 9.3-3.9 13.7-6.3 4.4-2.4 8-8.1 5.2-12.3-3.2-1.5-6.9.5-10.2 2s-8 2-9.6-1.2c4.8-3.3 7.3-9.6 6.2-15.3-3.7.6-7.3 2.1-10.2 4.4-3.2-.6-3.2-5.2-2-8.2s2.6-7 .1-9c-4.2 2.2-8 5.2-11.1 8.8-1.4 1.7-2.8 3.7-2.6 5.8.1 1.3.8 2.5 1.4 3.6zM670.5 682c.2-2.8-.9-5.4-2.1-8 1.1 2.5 2.3 5.2 2.1 8zM689.9 625.1c-2 2.1-1.4 5.5-.2 8.2 1.2 2.6 2.8 5.3 2.6 8.1-.2 2.9-3.6 5.6-5.9 3.8-5.1-3.9-12.3-4.6-18.1-1.8 2.3 8.2 5.8 16 10.4 23.1 2 3 6 6.2 8.6 3.7 1.9-3-3-6.4-2.6-9.9.4-3.3 4.8-4.3 8-3.5 3.2.7 6.6 2.4 9.7 1.2 3-1.1 4.5-4.5 4.5-7.7-.1-3.2-1.4-6.1-2.8-9-3.1-6.7-7.1-14.2-14.2-16.2zM603.1 655.4c1.4-.2 2.7-.5 4.1-.7-.1-6.2-2.1-12.4-5.8-17.4-1.3-1.9 1-4.5 3.3-4.4 2.3.2 4 2 5.6 3.7 3.2 3.9 6.4 7.5 9.7 11.1 4.2-2.9 4.5-9.3 2-13.8-2.4-4.5-6.8-7.4-11-10.3-3.1-2.1-6.4-4.2-10.1-4.7-3.7-.4-8 1.5-8.9 5.1-.6 2.4.3 4.9 1.3 7.2 3.3 8.1 6.5 16.1 9.8 24.2zM585.7 675.2c7.2-8.1 8.9-20.7 4-30.4-2.7-5.4-7.7-10-13.7-10.4-8-.5-14.9 7.1-15.7 15.2s3.3 15.8 8.7 21.8c4.3 4.7 12.4 8.6 16.7 3.8zM655.1 679.1c2.3 4 6 7.2 10.4 8.6-4.4-1.4-8.2-4.6-10.4-8.6zM613.9 614.7c8.9 4.7 15.3 13 21.4 21 1.5 2 5.1.5 5.8-1.9.7-2.4-.5-5-1.8-7.1-4.4-7.4-10-13.9-16.7-19.3-1.5-1.2-3.1-2.4-4.9-2.7-3.7-.6-7.4 3.3-6.4 6.9.4 1.3 1.3 2.5 2.6 3.1z" fill="none"/><path fill="#2BC12B" d="M722.5 626.1c-4.4-20.9-22-37.5-42.3-44.5s-42.7-5.3-63.3.4c-50.9 14.2-94 54-112 103.7-4.1 11-6.9 22.8-5.6 34.5 2.8 24.2 23.8 43.7 47.3 50s48.8 1.4 71.4-7.7c40.2-16.2 74.9-46.5 94.5-85.1 8.1-15.8 13.6-33.9 10-51.3zM637 593.4c3.1-3.6 6.9-6.6 11.1-8.8 2.5 2 1.1 6-.1 9s-1.2 7.6 2 8.2c2.9-2.3 6.5-3.8 10.2-4.4 1.1 5.7-1.4 12-6.2 15.3 1.6 3.2 6.3 2.7 9.6 1.2s7-3.5 10.2-2c2.8 4.2-.8 9.9-5.2 12.3-4.4 2.4-9.7 3.2-13.7 6.3-7.2-8.7-13.5-17.9-19.1-27.7-.6-1.1-1.3-2.3-1.4-3.6-.2-2.1 1.2-4.1 2.6-5.8zm-76.7 56.2c.8-8.1 7.7-15.7 15.7-15.2 6 .4 11 5 13.7 10.4 4.9 9.7 3.2 22.3-4 30.4-4.3 4.8-12.4.9-16.7-3.8-5.4-6-9.5-13.7-8.7-21.8zM519 677.1c3.6-3 8.2 1.9 12.4 3.9 4 1.9 9.1.7 11.9-2.7 2.7-3.4 2.8-8.7.1-12.2-2.3-2.9-6.3-6.8-3.5-9.2 5-2.2 10 2.8 13.1 7.3 4.8 7 9.7 13.9 14.5 20.8 1.1 1.5 2.2 3.3 1.4 5-.9 2.1-3.9 2.1-5.7 1-1.9-1.1-3.3-2.9-5.2-4-4.9-2.7-11.3.6-13.8 5.5s-2 10.8-1.1 16.2c-11.3-7.5-19.9-18.8-24.1-31.6zm43.2 89.5c-4.9.9-9.9-1.4-13.9-4.4-6.9-5.1-12.1-13.2-11.9-21.8.3-8.6 7.4-17.1 16-17 2.2 1.8 1.3 5.4-.5 7.5-1.7 2.2-4.3 3.7-5.6 6.2-2 3.6-.7 8.3 1.9 11.4 2.6 3.2 6.3 5.1 10 7 3.9-.5 6.9-4.8 6.1-8.7-3.8 1.7-7.7-4.1-5.5-7.6 2.2-3.6 7.8-3.6 11-.8 3.1 2.7 4.2 7.2 4.1 11.4-.2 7.3-4.4 15.4-11.7 16.8zm46.3-32.1c-2.7 5.7-14.5.1-16.6 6-1.3 3.5 2.7 8 .2 10.8-3.8 1.6-7.6-2.5-9-6.4-1.4-3.9-2.2-8.6-5.8-10.7-6.6-3.9-10.2-12.1-8.8-19.6s7.9-13.7 15.4-14.9c2.1-.4 4.3-.3 6.2.6 5.5 2.7 5.4 11 2.1 16.2-1.7 2.7.5 6.3 3.3 7.7s6.1 1.6 9 2.9c2.8 1.2 5.3 4.6 4 7.4zm9.8-9.5c-2.5-.5-4.7-2-6.6-3.8-4-3.7-6.9-8.7-8.3-14-.9-3.1-1.2-6.6 0-9.6 2.5-6.7 11.7-9 18-5.7 6.3 3.3 9.6 10.8 9.7 17.9.1 7.6-5.3 16.5-12.8 15.2zm52.2-43c-.2 2.8-2.2 5.6-5 5.7-4.4-1.3-8.2-4.5-10.4-8.6 0-.1-.1-.2-.1-.2-.3-.5-.5-1-.7-1.5 0-.1-.1-.1-.1-.2-2.2 1.8-4.9 5.2-7 7.6 2.2 2.7 4.3 5.5 5.4 8.8 1.3 4.1.8 9.2-2.5 11.9h-.1c-7.1-6.7-14.2-13.3-21.4-20.1-2-1.9-4.2-4.2-4.2-7 0-2.1 2.3-3.9 4.1-3.8.7 0 1.3.3 1.8.9 3.1 4.2 8.2 6.9 13.4 7.3-.2-3.5-.2-7.7-1.1-8.5l-.3-.7c-1.9-1.3.1-4.1 2.4-4.9.6-.3 1.2-.4 1.9-.2l.9.3c2.1.6 5.5 1.9 7.8 3.4.5.3.8.7.9 1.2 1.1-2 1.4-4.7 1-7-.8-3.5-2.9-6.6-4.3-10-.4-1-.8-2.1-.7-3.2.1-.7.4-1.4.8-1.9l.5-.5c.4-.3.8-.6 1.2-.7.5-.2.9-.3 1.4-.3h.5c.5 0 .9.2 1.3.4 1.8 4 3.5 8 5.2 12 1.8 4 3.5 8 5.2 12 1.3 2.4 2.4 5 2.2 7.8zm31.9-24c-3.1 1.2-6.5-.5-9.7-1.2-3.2-.8-7.6.2-8 3.5-.4 3.5 4.5 6.9 2.6 9.9-2.6 2.5-6.6-.7-8.6-3.7-4.6-7.1-8.1-14.9-10.4-23.1 5.8-2.8 13-2.1 18.1 1.8 2.3 1.8 5.7-.9 5.9-3.8.2-2.8-1.4-5.5-2.6-8.1-1.2-2.7-1.8-6.1.2-8.2 7.1 2 11.1 9.5 14.2 16.2 1.4 2.9 2.7 5.8 2.8 9 0 3.2-1.5 6.6-4.5 7.7z"/><path fill="#fff" d="M665.5 687.7c2.8-.1 4.8-2.9 5-5.7-.2 2.7-2.2 5.6-5 5.7zM652.8 656.3c-.4-1-.8-2.1-.7-3.2.1-.7.4-1.4.8-1.9-.5.5-.8 1.2-.8 1.9-.1 1.1.3 2.2.7 3.2 1.4 3.4 3.5 6.5 4.3 10-.8-3.6-2.9-6.7-4.3-10zM653.4 650.7c.4-.3.8-.6 1.2-.7-.4.1-.8.4-1.2.7zM639.3 626.7c-4.4-7.4-10.1-14-16.7-19.3-1.4-1.2-3-2.4-4.9-2.7-3.7-.6-7.4 3.3-6.4 6.9 0 .1.1.3.2.4-.1 1 0 1.9.3 2.8.2 3.3.5 6.6.7 10l-1.5-.9c-3.1-2.1-6.4-4.3-10.1-4.7s-8 1.5-8.9 5.1c-.6 2.4.4 4.9 1.3 7.2 3.3 8 6.5 16.1 9.8 24.2 1.4-.2 2.7-.5 4.1-.7-.1-6.2-2.2-12.4-5.8-17.4-1.4-1.9 1-4.6 3.3-4.4s4.1 2 5.6 3.7c3.2 3.7 6.5 7.3 9.7 10.9 3.6-2.6 4.3-7.9 2.7-12.1-.1-6.3-1.5-12.4-4.2-18.1 6.6 4.8 11.8 11.6 16.8 18.1 1.5 2 5.1.5 5.8-1.9.7-2.4-.5-4.9-1.8-7.1z"/></svg>