<svg xmlns="http://www.w3.org/2000/svg" viewBox="0 0 663 1000" enable-background="new 0 0 663 1000"><desc xmlns:shape="http://adobe.com/products/shape"><shape:version>1.0.2</shape:version><shape:captureDetail>0.750000</shape:captureDetail><shape:source>1</shape:source></desc><path fill="#C12C7F" d="M331.7 231c32.7 46.6 78.1 90.7 137.3 97.5 27.4 3.1 56.5-1.8 79.4-17.8 21.9-15.3 37.9-47.4 6.1-61.3-40.9-17.8-155.3-31-105.5-99.4 20.7-28.3 47-52.7 70.7-78.3 20.4-22 12.5-62.9-23.5-60.9 26-16.3 45.8 17.8 41.9 39.7-5.2 29.3-33.4 48.9-52.6 69.3-16.1 17.2-44.7 42.2-40.5 68.6 2.4 15 12.7 19.5 25.6 24.4l50.7 19.2c20.9 7.9 71.2 16.4 63.1 48.1-7.2 28.5-43.3 31.5-58.7 53.3-17.2 24.2 6.5 68.7 14 94.3l29.1 99.3c20.2 68.7 40.3 137.5 60.5 206.2 4.9 16.5 9.7 33.1 14.6 49.6 4.5 15.2 15.2 35.9 13.9 51.7-2 22.9-55.2 28-72.3 33.1-63.7 19.1-126.4 41.5-187.8 66.9-31.3 13-62.2 26.8-92.8 41.3-10.5 5-28.9 19.3-40.8 17.3-13.8-2.4-18.4-22.2-22.1-33.2-50.9-153-101.7-306-152.6-459-28.2 22.9-50.6 53-64.6 86.5-5.8 14-16.5 35.9-6.7 50 9.6 13.8 28.4 13.1 43.1 15.3 88.5 13 8.6 127.2 26.4 175.3-25.4-30.2.3-72.1 5.9-104.6 2.4-14.2 3.3-30.6-3.1-43.9-9.2-19.1-27.4-21.5-46.5-23.9C27 653.4 6.7 648.3 5.1 628c-1.6-20.3 11.5-46 20.9-63.4 20.6-38 54.5-66 79.1-101.2 24.5-35 43.6-75.3 52.5-117.1 9.9-46.4-1.8-89.2-16.6-133.1-19.6-58.1-48.2-170.6 35.6-195.7 48.5-14.5 75.3 34.9 87.9 72.9 16.7 50 36.8 97.2 67.2 140.6m159.1 503c-22.8-72.8-43.3-146.3-61.5-220.4-48.2 17.2-95.7 36.3-142.4 57.1-18.2 8.1-44.3 13.5-37.1 38.4 7.5 25.6 19.4 50.6 28.9 75.5 9.3 24.1 18.6 48.2 27.8 72.3 3.8 9.8 6.7 25.5 13.4 33.5 8.4 10.1 13.9 4.6 24.7-.5 47.4-22.2 96.2-41 146.2-55.9m111.5 113.4C590 851.6 580 767 577.7 756c-7.4-36.4-15.8-72.7-25.1-108.7-18.3-70.9-39.6-141-61.9-210.7-5.5-17.1-11-34.3-16.6-51.4-4.2-12.8-7.9-41.2-17.9-50.5-4-3.7-9.4-6-13.6-1.2-4.4 5.1 2.1 13.7 4.2 19.1 6.9 17.5 13.5 35 20 52.7 24.5 67 45.7 135.3 63.5 204.3 20.7 80 36.9 161.1 48.5 243-14 .5-16.8-55.7-18.7-66.4-5.2-29.1-10.8-58.1-16.9-86.9-12-56.5-26.1-112.5-42.9-167.8-16.2-53.3-35.4-105.6-53.9-158.1-6-16.8-10.6-40-25.7-51.4-11.5-8.7-16.3-5.1-12 8.2 4.6 14.2 11.3 28.1 16.7 42 39.8 103.1 72.3 209 97.9 316.5 12.8 53.9 22.8 108.1 33.3 162.4 3.8 19.4 9.5 16.1 27 11.1 12.8-3.7 25.5-7.3 38.3-11 6.2-1.8 25.9-3.9 29.4-10.9 4.1-8.1-9-34.6-11.6-43.6-33.7-115-67.4-230-101-345-7.5-25.6-15-51.1-22.5-76.7-1.9-6.6-5.7-35-12.7-37.7-9.7-3.7-9.1 6.4-7.9 13.4 4.2 24.4 16.4 49.5 24 73.1 9.4 29.3 18.7 58.7 27.6 88.1 16.3 54 31.6 108.3 45 163.1 6.7 27.4 13 54.8 18.7 82.4 2.6 12.5 5.1 25.1 7.5 37.7 1.5 7.7 10.6 34.2 7.1 41.9-6.2 13.6-8.8-7-9.9-12.8-2.8-15.1-5.8-30.2-8.9-45.3-5.6-27.6-11.7-55.2-18.1-82.7-12.8-54.9-27.2-109.5-43.1-163.7-18-61.4-37.1-122.9-60.1-182.7-2.7-7.1-8-22-15-10-4.5 7.8 8.8 33.5 11.4 41.5 9.8 30.6 19.5 61.3 29.1 92C549 596 583.7 720.2 602.3 847.4m-88.2 10.8c-4.9-39.8-15.4-78.9-31-115.9-17.2 4.4 2.7 45.7 5.2 54.4 7.1 24.5 12.7 49.4 16.9 74.5-14.9.7-25.4-73.2-28.4-85.3-2.5-10-4.2-32-17.7-33.4-18.5-1.9-8.1 25.5-6.1 34.1 4.1 16.8 8.1 33.7 12.2 50.5 2.2 9.1 4.4 18.1 6.5 27.2 1.5 6.1 2.4 22.6 6.8 27 7.7 7.5 25.5-3.7 34.2-6.6 11.2-3.8 32.2-5.9 36.8-18.1 4.4-11.7-5.1-37.9-7.4-49.9-3.3-17.4-6.7-34.8-10.4-52.2-7.3-34.7-15.2-69.3-23.9-103.6-17.4-68.8-37.6-136.8-60.5-203.9-12.7-37.1-26.3-74-40.7-110.5-13.9-35.3-31.9-56.6-62.1-79.3 45.5 99.4 80.9 202.5 110.3 307.6 14.6 52.1 32 105.3 41.7 158.5 4.4 24.2 8.5 47.5 14.7 71.4 3.1 11.9 6.3 23.7 9.3 35.6.8 3.1 4.9 13.7 1.9 17.3-1.7 2-6.5 4.6-8.3.6M240.5 58.5c-9.3-17.3-24.2-36.7-45.4-38.2-21.1-1.5-39.6 15.4-50.4 31.9-26.3 40.6-17.7 91.1-4.2 134.5 2.1 6.9 4.7 24.9 11.8 28.9 8.6 5 18.7-5 26.6-9.2 22.8-12 46.5-22.5 70.8-31.2 9.9-3.6 21.8-4.3 24.4-15.8 2-8.8-3.2-19.9-5.6-28.1-7.5-24.8-15.7-49.8-28-72.8M126.7 467.2c58.6 136.4 104 278.5 135.6 423.5 4 18.2 7.4 36.6 11.7 54.7 1.8 7.8 3.1 17.9 6.8 25 2.8 5.4.2 5 5.2 6.2 3.3.8 10.5-3.2 13.7-5 16.5-9.3 14.1-22 10.3-38.1-4.6-19.8-9.4-39.6-14.3-59.3-18.3-72.7-39-144.9-62.1-216.2-26.2-81-55.5-161.1-87.8-239.9-11.6 12.3-26.9 31.1-19.1 49.1m118.1 115c7.6-8.9-10.2-44.3-13.6-54-6.1-17.7-12.7-35.3-19.6-52.8-14.3-36-30.2-71.4-47.7-106-26 20-5.8 58.3 3.4 81.1 13.4 33.1 26.1 66.4 38.3 99.9 24.8 68.2 47.3 137.3 67.3 207 9.8 34.3 19.1 68.7 27.7 103.3 4.3 17.3 8.5 34.6 12.5 52 2.7 11.9 2.7 36.3 15.7 41.3 11.4 4.4 28.4-8.4 31.2-19 3.4-13-6.3-36-9.2-48.9-3.9-17.6-8-35.1-12.4-52.6-1.2-5-8.5-37.9-20.7-24.2-15.4-41.2-31.1-82.4-47.1-123.4-7.5-19.3-15.1-38.6-22.8-57.8-3.8-9.6-12.3-22.3-13-32.4-.8-10.9 3.4-5.8 10-13.5M117.2 469.6c-37.7 13.3 1.1 87.1 8.4 109.6 15.1 46.3 29.5 92.8 44.1 139.2 14.3 45.2 28.7 90.3 44.2 135 7.5 21.8 15.3 43.4 23.4 65 8.1 21.5 14.5 50 29 68.1 14-5.3.5-39.4-1.6-48.6-5.2-23.4-10.6-46.8-16.2-70.1-10.9-45.4-22.6-90.6-35.6-135.5-25.9-89.7-56.8-178-95.7-262.7m61.4-253.7c-38.8-4.7-4.1 62.3 1 73.8 13.3 30.3 25.9 60.8 37.9 91.6 12 30.8 23.3 61.9 33.9 93.2 5.7 16.9 11.3 33.8 16.6 50.8 3.6 11.6 5 33.3 18.6 36 9.9 2 23.7-6.7 24.5-16.5 1-13.4-11.4-35.8-15.7-48.2-10.7-31.2-22.1-62.1-34.1-92.8-24.9-63.8-52.5-126.5-82.7-187.9m238.6 296.6c18.1-10.3-10.6-67.4-15.2-80.7-10.6-30.6-22-60.8-34-90.8-12.5-31.2-25.9-62-40-92.5-5.6-12.1-30.3-81.7-45.5-78.9-23.7 4.4 12.4 65.1 16.9 75.4 14.1 32.5 27.8 65.2 40.8 98.2 12.1 30.6 23.6 61.4 34.5 92.5 4.4 12.9 20.3 89.4 42.5 76.8M233.5 190.8c-16.9-6.2-10.9 20-8.6 26 6.4 16.8 14.4 33.1 21.4 49.7 12.9 30.9 25.3 62.1 37 93.5 12.2 32.6 23.8 65.4 34.8 98.4 5.3 15.9 10.4 31.9 15.4 47.9 3.2 10.3 6.4 27.8 19.6 30.2 30.3 5.3 3-53.8-.2-62.9-11.7-33.5-24-66.7-37-99.7-12-30.6-24.5-61.1-37.6-91.3-7-16.3-14.2-32.5-21.5-48.6-4.9-10.8-12-39.1-23.3-43.2m169.1 581.5c-14.8 4.1 2 46.2 3.9 55.2 5.2 24.4 9.2 49.1 12.1 73.8-7.5 6.2-18.6-57.9-19.8-64.1-2-10.2-4.3-61.9-22.4-54.3-17.8 7.5 1.3 45.6 4.4 56.6 7.3 25.6 13.1 51.6 17.3 77.9-14.1 6.2-27.3-112.4-41.4-120.8-23.5-14-11.5 33-9.4 40.3 6.7 23.7 12.3 47.6 16.6 71.8 1.2 6.9.5 21.6 6.5 25.6 6.4 4.2 18.1-2.7 23.6-5 14.7-6.1 48.7-11.8 48.5-31.5-.3-23.4-11.9-50.8-17.3-73.6-2.1-8.5-7-56.3-22.6-51.9M188.7 215.9c29.9 62.5 57.4 126.1 82.4 190.6 12.1 31.1 23.6 62.4 34.5 93.9 3.9 11.2 6.2 31.8 14 40.5 10.7 12 13.7-2.3 12.1-11.9-5.1-31.6-20.3-64.6-30.9-94.8-11-31.4-22.6-62.5-34.6-93.6-11.9-31-24.2-62-36.6-92.8-4.5-11.3-8.5-30.6-18.8-38.7-6.4-5.2-23.8-5.9-22.1 6.8m-21.5 115.9c-3.6 24.4 8 41.1 18.2 62.4 10.6 22.2 20.6 44.8 29.8 67.7 9.2 22.8 17.8 46 25.6 69.4 2.2 6.7 11.7 54.6 27.4 41.9 10.7-8.6-11.2-54.7-14.8-65.5-7.5-22.8-15.3-45.4-23.5-68-17.6-48.7-36.7-96.8-57.3-144.2-1.8 12-3.6 24.2-5.4 36.3m90.3-150.7c-23.9-2.7 13.6 64.5 16.8 71.5 13.5 29.8 26.3 59.9 38.5 90.2 12.2 30.3 23.8 60.9 34.7 91.7 5.9 16.6 11.6 33.2 17.1 50 3.1 9.4 5.4 29.3 14.5 34.7 18 10.6 10.7-13.7 8.4-20.6-5.4-15.7-10.9-31.5-16.5-47.1-11.2-31.3-22.8-62.5-34.8-93.6s-24.4-61.9-37.3-92.6c-6.4-15.4-12.9-30.7-19.5-45.9-3.7-8.5-11.1-37.1-21.9-38.3m211.4 716c3.2-10.7-5.1-29-7.6-39.6-3.5-14.8-7-29.6-10.6-44.4-1.4-5.7-15.3-73.5-28.5-44.5-4.5 9.9 5.1 28.1 7.6 37.7 4 14.9 7.6 29.8 10.9 44.8 2.8 12.6 3.1 34.3 9.5 45.2 4 6.5 15.1 12.7 18.7.8 1-3.2-1.3 4 0 0z"/></svg>