<svg xmlns="http://www.w3.org/2000/svg" viewBox="0 0 947.8 1000" enable-background="new 0 0 947.8 1000"><desc xmlns:shape="http://adobe.com/products/shape"><shape:version>1.0.2</shape:version><shape:captureDetail>0.750000</shape:captureDetail><shape:source>1</shape:source></desc><path fill="#C12C80" d="M496.7 555.6c16.9-4.8 40.9 22.3 52.7 31.4 20.6 15.7 41.3 31.4 61.9 47.2 19.4 14.8 39.7 28.9 58.5 44.5 4.6 3.9 13 7.7 8.7 14-2.3 3.4-31.7 2.9-36.4 3.4-15.9 1.5-44.6-2.1-49.8 17.3-2.5 9.4.6 23.5 1.1 33.3.7 14.8 1.5 29.6 2.5 44.3 3.2 50.2 7.6 100.3 13.4 150.3 2.3 20.1 11.1 37.2-13 39.9-25.6 2.8-51.4 4.2-77 6.4-20.1 1.7-47.5 8.9-67.3 4.7-19.6-4.2-13.6-40.9-14.6-57.1-3.2-51.5-6.4-103-9.7-154.5-.8-12.5 3.7-50.8-8.5-58.7-7.3-4.8-21.1.1-28.9.9-14 1.5-28 2.6-42.1 3.3-10.5.5-32.4 5-42.2.5-9.1-4.2-5.5-4.1-.1-11.1 15.4-20.1 43.2-36.7 62.6-53.2 22-18.7 44-37.3 65.9-56 11-9.3 22-18.7 33-28 8.3-7 18.7-19.8 29.3-22.8m144.8 116.6l-80.1-60.3c-12.8-9.6-25.5-19.2-38.3-28.8-2.6-1.9-17.8-15.8-20.9-15.7-3.1.1-17.9 15.1-20.4 17.2l-156.3 132c21.6-1.2 43.3-2.5 64.9-3.7 7.6-.4 17.2.7 24.3-1.4 4-1.2 10.8-7.9 13-8.3 17.6-2.6 14.2 82.3 15.1 98.2 2.4 43.1 4.7 86.2 7.1 129.3.7 12.1-2.7 36.5 7.4 45.8 11.3 10.3 38.7 2 51.9.9 20.8-1.8 41.6-3.3 62.3-5.3 17.8-1.8 27.2-2.8 25.5-21.8-3.9-43.7-9.7-87.3-13.1-131.1-1.6-20.4-2.9-40.9-4.1-61.3-.9-15.5-6.4-40.6-1.5-55.6 4.8-14.7 20.8-14.1 33.7-15 5.8-.6 48.3-1 29.5-15.1"/><path fill="#C12C80" d="M267.9 248.7c34 42.5 70.3 83.2 108.6 122 17.2 17.4 34.9 34.4 52.9 51 10 9.2 20.1 18.3 30.4 27.3 5.9 5.2 17.2 19.4 25.4 19.6 8.4.2 19.6-14.3 25.5-19.7 9.5-8.6 19-17.3 28.4-26.1 18.6-17.6 36.8-35.7 53.6-55.1 15.1-17.4 29-35.7 41.3-55.1 12.9-20.2 31.7-39 41.7-58.7 1.3-2.6-.4-12.8 8.1-8.3 9.9 5.4-2.1 20.9-5.3 26.1-13.5 22-27.7 43.6-43.2 64.3-29.5 39.6-63.1 76.1-100.1 108.7-12.1 10.7-37.8 40.5-55.6 36-8.5-2.1-17.3-13.6-23.4-19-11.1-9.9-22.2-19.9-33.1-30-39.6-36.8-77.6-75.5-113.8-115.7-16.3-18.1-32.2-36.5-47.7-55.3-4.3-5.2-23.1-23.1-19.3-28.6 3.8-5.4 15.9 4.1 20.6 5 11.4 2.2 30.2-2.9 41.9-3.5 12.6-.6 25.2-.9 37.9-.7 10.7.1 23.5 2.9 34 .8 15.7-3.1 11.3-12.2 9.6-26.1-6.7-54.3-11.2-109.2-12.3-164-.4-21.3.5-38.4 25.1-39 28.3-.7 56.8.6 85.2.9 12.7.2 25.5.4 38.2.5 10.2.1 28.5-3.1 38.3.4 17.1 6.1 10 58.4 10.6 76.1.9 29.8 1.9 59.5 2.8 89.3.4 13.4.8 26.8 1.3 40.2.3 8.7-1.6 24.7 5.3 32.1 11.6 12.3 51.6 2.8 66.5 2 4.6-.2 25.8-4.8 19.3 7.2-4.4 8.1-32.5 4.9-39.5 5.3-12.6.6-55.6 8.2-62.6-3.6-4.3-7.3-1.3-25.4-1.7-33.9-.7-16-1.4-32-2.1-48.1-1.4-32-2.7-64.1-4.1-96.1-.6-14.2.7-29.8-1.9-43.7-3-15.9-9-15.6-24.7-16-31.1-.8-62.2-.7-93.3-1.1-11.6-.1-27.5-3.6-38.6-.3-15 4.5-10.9 18.7-10.5 32.3 1.8 62.9 7.4 125.3 13.6 187.9.8 8.1 4.3 18.6-6.5 18-2.5-.1-7.5-7.3-10.3-8.6-6.8-3.4-15.1-2.6-22.6-2.9-31.2-1.1-62.8 1-93.9 6.2 63 78.6 35.1-5.9 0 0zM21.8 418.3c36.2-.6 72.3-1.1 108.5-1.7 32.5-.5 70.1-6.2 102 1.5 3.2-20.1 5.4-40.4 6.6-60.7.7-11.3-.4-23.7 1.2-34.9 1.3-9.6 5.4-14.3 11.5-2.4 3.5 6.9-1.2 16.9 3 24.8 3.8 7.1 11.3 12.5 17.3 17.8 16.6 14.7 33.5 29.1 50.6 43.3 31.9 26.7 64.5 52.6 97.6 77.8 9.8 7.4 35.6 19.4 34.9 32.4-.7 12-33.1 33.1-41.4 40.7-32.6 29.8-65.2 59.7-97.8 89.5-11.2 10.2-30.3 35.5-44.5 40.1-15.8 5.1-13.9-34.9-15.5-46.9-1.8-12.9-1.5-31.6-10.6-42.1-11.1-12.7-33.4-3.6-48.1-1.7-43.7 5.5-87.5 9.9-131.4 13.1-14.8 1.1-44.3 10.1-50.1-7.5-6.8-20.6-3.6-50.1-5.1-71.9-1.6-23.2-3.2-46.4-4.8-69.5-1.4-17.9-9.1-41.3 16.1-41.7m222 6.6c-41.6 1-83.3 2.1-124.9 3.1l-58 1.5c-14.6.4-40.9-5.7-44.5 12-3.5 17 2.7 42.1 3.8 59.4 1.4 20.4 2.8 40.7 4.1 61.1.9 13.5-2.5 34.2 13.8 38.6 16.7 4.5 43.1-3.1 60.1-4.8 39.7-4 79.4-7.9 119-11.9 14.7-1.5 33.9-7.3 42.9 8.2 7.7 13.1 6.4 35.1 8.1 49.6 1.9 16.3 3.5 24.1 18.7 12.4 17.1-13.1 32.5-29.6 48.5-44.2 29-26.4 59.7-51.7 87.3-79.5 18-18.2 3.7-24.5-12.9-38-16.9-13.7-33.8-27.4-50.6-41l-108-87.6c-.3 20.5-2.8 41.1-7.4 61.1-71.4 1.8 4.6-20 0 0zM730.9 417.3c1.9 18.9 10.5 22.3 28.1 22l71.2-1.2c22.2-.4 44.5-1 66.8-1.1 6.3 0 18.9-1.6 24.4 3.4 6.7 6 4 16.1 4 24.3-.2 22.2 1.2 44.5 4 66.5s10.1 43.5 12.9 65.3c2.4 19.1-9.3 16.4-25.5 16.3l-73.2-.6c-21.5-.2-43.1-.4-64.6-.5-21.2-.2-32.8 2.5-28.4 26.6 2 10.9 8.8 36.4-11.9 33.6-8.1-1.1-17.4-10.8-24.2-15.3l-32.7-21.9c-37.6-25.2-75.1-50.4-112.7-75.5-11.5-7.7-39-19.1-42.3-34-3.5-16.2 28.1-28.2 39.2-36 37.1-25.8 71.9-54.9 103.9-86.8 10-9.9 30.5-41.9 46.4-39.7 16.7 2.2 13.3 42 14.6 54.6m2.9 239c10.7 7.2 5.3-23 4.9-26.1-1.6-12.6-6-27.5 3.8-38.2 14.4 13.6 42 9.1 60 9.3 27.4.3 54.8.6 82.2 1 7.2.1 33.7 4.9 38.9.5 5.7-4.9-.7-28.1-1.5-34.9-3.3-26.7-6.6-53.4-9.9-80-1.2-9.4-.3-24.3-5-32.6-5.8-10-14.9-7-25.7-6.9l-79.8 1.2c-14.8.2-29.6.4-44.4.7-7.2.1-26.4 3.7-31.6-1.4-5-4.9-4.3-24.9-5.8-31.8-2.6-12.6-6-25-10.3-37.2-24.9 26.8-51.5 52-79.8 75.3-14.1 11.6-28.6 22.8-43.5 33.4-8.8 6.3-40.6 21-41.6 31.6-1.2 13.5 25.9 25.4 34.6 31.3 16.8 11.4 33.5 22.8 50.3 34.1 34.8 23.5 69.5 47.1 104.2 70.7 1 .6-59.9-40.7 0 0z"/></svg>