<svg xmlns="http://www.w3.org/2000/svg" viewBox="0 0 1000 712.2" enable-background="new 0 0 1000 712.2"><desc xmlns:shape="http://adobe.com/products/shape"><shape:version>1.0.2</shape:version><shape:captureDetail>1.000000</shape:captureDetail><shape:source>1</shape:source></desc><path fill="#C12C7F" d="M691.3 585.4c-1.9-7.5-3.7-16.8-10.7-21.4-8.2-5.5-15.8-5.4-21.6-14.9-12.2-20.3 3-37.4 22-43 19-5.6 21.5-25.1 32.7-40.2 13.2-17.7 30.7-31.7 47.9-45.3-7.6 2.3-15.3 4.6-22.9 6.8-4.7 1.4-16.1 7.3-20.9 5.9-15.7-4.4 8.4-16 13.2-18 11.8-5 24-9.7 36.9-10.9 16.1-1.5 31.9 3.4 48 1 21.1-3.2 51.3-26.6 73.1-18.8 16.4 5.8-2.8 9.6-10 10-10.9.6-23.9 2.1-30.2 12.4 12-2.4 24.2-3.7 36.5-4 7.9-.2 23.2-2.2 30.2 1.8 6 3.5 7.2 8.2.3 10.5-3 1-12.8-3.2-16.4-3.3-5.6-.1-11.3.8-16.6 2.7 9.6 3.2 19.5 5.3 29.5 6.3 8.2.9 21.6-2.1 28.9 2 6.6 3.7 6.8 9.8-.1 10.8-4 .5-10.4-2.9-14.8-3.5-6-.9-12.1-1.1-18.2-.7 9.1 6.7 16.9 15.3 22.6 25.1 5 8.5 7.5 24 18.4 27.2 9.5 2.9 17-4.7 27.3.3 8.8 4.3 15.5 13.3 15.9 23.2.5 10.8-6 21-14.4 27.2-8.3 6.1-19.4 5.5-26.8 12.5-6.5 6.1-8.5 16.3-11.1 24.4-3.6 11.4-7.6 22.2-14.1 32.3-50.5 78.9-208.2 85.2-234.6-18.4m64.1-147.3c-39.6 29-66.5 77.4-58.4 127.2 8.7 53.4 53.6 86.9 106.7 86.9 96.7 0 175-109.7 112.1-194.7-36-48.6-113.1-54-160.4-19.4m193 67c1 6.8-2.1 28.4 4.8 30.9 6.3 2.3 20.9-11.2 23.6-15.4 19.3-29.1-31.2-35.5-28.4-15.5m-259 16.2c4.6-11-13.9-1.9-16.1.2-6.5 6.3-11.1 14.9-5.2 23.1 3.8 5.2 11.7 9.8 16.8 4.4 5.3-5.6 1.3-20.2 4.5-27.7"/><path fill="#C12C7F" d="M445.8 197.5c-13.8 3.1-27.3 7.9-40.1 14.1-6.4 3.1-25.9 19.2-32.7 11.3 20.9-19 47.9-31 76-33.9 15.1-1.6 30.6 1.1 45-4.5 13.7-5.4 25.5-14.9 39.1-20.8 13.9-6 28.5-10.1 43.5-12.4 2.1-.3 32.3-2.9 21.8 7.9-3 3.1-14.9 1.8-19.1 2.3-7.5 1-14.9 2.4-22.2 4.3-14.6 3.8-28.8 9.4-42 16.8 8.5 5.2 27.5-3.7 36.3-5.4 13-2.5 26.2-4 39.4-4.2 16.3-.3 57.1-2.9 65.3 16-15.3-1.3-30.6-2.5-45.9-3.8-12.4-1-28.1-4.7-39.3 2.4 35 7.3 66.1 29.6 85.6 59.4 4.8 7.3 8.9 15 12.2 23 2 5 3.5 17.8 7.4 20.8 5.2 4.1 11.8 1 17.4-.1 9.7-1.8 18.4-2.3 27.6 2.1 15.7 7.5 21.3 24.4 15 40.3-8.2 20.6-27 23.2-42.9 34.9-12.3 9.1-9.8 28.2-13.7 42-5.6 19.8-15 38.4-27.3 54.8-45.4 60.7-130.1 88.7-203.2 70.9-34.7-8.4-67-27.8-86.5-58.4-10.6-16.5-17.1-35.6-19-55.1-.9-9.6-.6-12.8-9.5-17-8.4-4-16-4.5-23.2-11.5-15.3-14.7-16.7-38.8-7.7-57.3 4.6-9.6 12.3-18.2 23-20.9 8.2-2 17.5 4.6 24.3 1.2 7.3-3.7 10.4-17 13.8-23.5 4.8-9.1 10.3-17.9 16.4-26.2 13.3-18 29.4-33.9 47.7-46.8-7.8 2.2-15.6 4.3-23.4 6.5 9-7.7 19-14 29.8-18.9 4-1.8 12.3-2.9 15.3-5.7 2.7-2.8 2.1-6-4.2-4.6m-75 272.6c39.5 61.9 121.8 70.1 186.1 47.9 65-22.5 111.8-76.3 118.1-145.8 6.4-70.4-28.5-151.7-100.6-172.5-66.4-19.3-137.9 14-179.6 66.1-43.9 54.7-63.9 141.8-24 204.3m-23.1-131c4.1-8.1-7.4-13.9-13.6-14-6.7-.1-12.6 3.9-17 8.6-10.6 11.3-12.6 29.4-5.6 43.1 3.9 7.6 21.2 27.1 28.7 14.3 3.3-5.6 1.1-19.1 1.5-25.4.7-9.1 1.8-18.3 6-26.6m369.4-36.2c-10.5-4.8-36.2-3.8-36.8 11.9-.3 7.7 5 18.3 5.8 26.4.4 4.5-1.3 15.2 2.3 18.6 7.5 7 63.7-40.8 28.7-56.9M469.7 199.4c-1.6-2.3-6.2-1.4-6.9 1.3 1.9 3.4 5.7.9 6.9-1.3zM979.3 123.1c-17.5 13.2-19 45.5-29.9 64.1-12 20.4-28.9 37.9-48.7 50.8-42.2 27.7-98.4 34.3-143.6 9.7-22.3-12.2-40.2-32.1-48.1-56.4-3.7-11.4-2.2-21.2-10.7-29.7-8.6-8.5-15.6-15.3-19-27.5-6.3-22.9 4.9-46.6 26.2-57 10.5-5.1 22.4-4.8 33.1-9.6 11.4-5.1 21.3-13.6 27.9-24.3-20.5 5.6-40.6 12.4-60.2 20.4-3.4 1.4-28.3 14.9-30.5 13.5-6.9-4.5 11.5-13 13.6-14.1 18.2-9.3 37.5-16.4 57.4-21.3 14.9-3.6 36.4-2.9 46.7-16.1 5.9-7.6 8.6-10.7 18.4-14.3 8.7-3.2 17.9-5.3 27.1-6.4 20.1-2.4 40.3-.1 60 4.4 10.8 2.5 21.4 5.6 31.9 9 7.8 2.5 19.7 4.4 26.3 9.4 1.5 1.1 7.2 5.2 5.9 8.2-1.8 4.3-3.2 1.1-6.6.4-10.5-2-21.3-8.1-31.5-11.3 7.8 11.1 19.8 19.1 33 22.3 8.6 2.1 29.4.9 28.7 14.9-3.7-.8-26-8-28.5-5.8-6.1 5.2 2.6 16.4 6.3 21.1 7.8 10.2 32.6 32.2 14.8 45.6M824.2 34.8c-47.6-5.3-94.3 52.4-106.5 93.2-14.6 48.6 14.1 99.3 60.5 117.2 49.9 19.2 105.3-.2 140.6-38 34.1-36.6 57.8-97.5 25.9-142.9-7.1-10.2-17.5-20.2-25.8-29.3-8.6-9.3-23.4-14.5-35.2-17.7-28.5-7.9-60.4-4.6-86.2 10.1 8.4-1.6 22.7-2.7 26.7 7.4M716.8 102c-6.8-7.9-18.8-3.7-24.1 3.5-6.4 8.6-6.4 22.8-3.1 32.5 4.1 12 13 16.2 16.1 2 2.8-13.1 5.3-25.6 11.1-38m-10.4-15.7c6.1 5.7 23.6 6.1 24.9-5.1 1.2-9.5-19.9 2.2-24.9 5.1m261.8 15.5c-3.7 4 1.6 11.6 5.2 13.4 5.6-4.6-.9-17.9-5.2-13.4-.4.5 1-1 0 0zM40.5 167.3c16.8-2.9 17-8.5 25.4-22.5 9.1-15.2 22.3-27.6 36.3-38.2 28.1-21.4 61.3-38.4 96.4-44.3 31.9-5.4 64.7-.7 92.3 16.6 11.8 7.4 22.4 16.9 30.6 28.2 4.5 6.2 8.3 12.9 11.1 20 2.6 6.5 2.7 15.1 8.6 19.6 9.9 7.4 28.1-1.8 34.3 11.6 7.8 16.7-15.3 25.3-26 30.5-16.3 7.9-18.4 20.1-27.2 34.7-9.2 15.2-21.6 28.2-35.3 39.5-50.9 41.7-126.1 66-186.1 28.6-15.1-9.4-27.8-22.2-36.4-37.7-3.1-5.5-5.5-13.8-10.9-17.7-6.4-4.5-11-1.7-18.3-2.5-40.9-4.5-29.4-60.5 5.2-66.4m39.6-21.2c-30 41.9-23.4 97.2 18.3 129.2 41.7 32 99.9 27.5 144.1 3.5 41.6-22.6 88.9-65.2 86.1-116.6-2.9-54-51.8-91.8-103.9-92.4 2.5 2.4 3.4 5.3 2.7 8.6-56.3-5-114.3 21.7-147.3 67.7m-43.4 31.2c-10.9 4.9-18.7 17.2-16.1 29.3 1.9 8.9 12 20.8 22.3 18 11.4-3.1 5-16 5-24 .1-9.3 8.2-32-11.2-23.3m325.7-8.6c6.9-5.9-15.6-14.2-22.1-1.1-1.6 3.2-3 11.2.7 13.7 5.1 3.4 18-9.7 21.4-12.6 1.1-1-4.7 4 0 0zM74.5 537c10.9 2.2 19.4-21.4 24.1-28.1 8.8-12.4 19.2-23.5 30.8-33.3 24.6-20.8 55.5-37.4 87.4-43.4 31.5-5.9 62.1 2.3 84.4 25.7 9.3 9.8 16.7 21.4 21.6 34 2.3 5.9 3.2 12.8 6.3 18.3 4.9 8.8 10.5 7.4 18.4 11.9 11.7 6.6 16.9 21.1 8.8 32.8-4.3 6.2-9 6.4-14.9 9.9-6.8 4.1-9 9.5-11.2 17-9 30.2-19.9 57.5-41.9 80.9-42.1 44.8-114.4 60.8-166.8 24.1-28.5-20-39.3-46.2-46.7-78.7-3.9-17.2-22.5-22.4-26.2-39.9-3.3-15.3 7.9-34.8 25.9-31.2m106.9 159.3c105.9 5.6 179.8-132.3 120.7-218.8-31.4-45.9-95.6-39.1-137.9-13.1-40.8 25.1-77.3 65.7-80.9 115.5-4.2 58 38.5 113.3 98.1 116.4m-104.5-148c-3.4-7.3-14.2 1.9-16.2 5.4-3.8 6.8-2 14.9 1.7 21.3 4.3 7.4 6.9 7.8 10.2.1 1.9-4.3 6.2-22.7 4.3-26.8m256.5-13.6c-4.6 10 .8 33.9 12.7 16.2 8.2-12-6.9-28.8-12.7-16.2-.9 2 2-4.3 0 0zM510.1 389.7c-19.6 11.1-29.5-20.9-15.6-23 .5 3.7 1.7 9.1 4.9 11.6 6.2 4.9 6-.4 11.4 0 8.9.8 6.4 7.4-.7 11.4-1.7 1 3-1.7 0 0zM563.1 415.4c11.3 15-37.6 28.5-45.8 29.8-18.7 3-45 2-61.4-9.1-8.7-5.9-6.8-11.7 3.6-8.8 11.1 3.1 21.5 7.1 33.1 8.3 26.1 2.8 47.6-9.6 70.5-20.2 1.7 2.3-7.5 3.5 0 0zM562.6 313.4c.6 5.7 10.1 5.6 9.4-1-.7-6.2-10.1-5-9.4 1 .3 3.5-.4-3.5 0 0zM444.1 315.9c4.2 3.5 10.7-2.9 5.8-7-4.5-3.8-10.3 3.3-5.8 7 2.5 2.1-2.6-2.1 0 0zM819.1 602.5c-4.5-3.5-11.1 3.4-5.9 7.5 4.9 3.8 10.7-3.8 5.9-7.5-2.7-2.2 2.8 2.1 0 0zM779.2 498c4.6 2.2 9-5.2 3.6-7.8-5-2.2-8.5 5.5-3.6 7.8 2.9 1.4-2.8-1.3 0 0zM832 554.2c-10.2 8.7-29.5-6.5-17.5-10 2.1-.6 14.1.9 15.1 1.3 3.8 1.6 8.5 3.8 2.4 8.7zM877.5 488.6c-3.6-3.5-10.1 1.9-5.9 6 3.9 3.9 9.7-2.3 5.9-6-2.3-2.2 2.2 2.1 0 0zM852.2 159.5c5.8 8.8-16.8 13.6-19-1 4.6-.7 15.6-4.2 19 1 1.3 2.1-2-3 0 0zM889.6 103.1c-6.3-4.6 4.3-10.1 7.5-5.2 2.8 4.3-3.8 9-7.5 5.2zM806.9 104.3c3.2 2.7-5.5 9.5-7.4 1.4-1.3-5.8 6.4-5.5 7.4-1.4zM813.7 197.9c4.4-2.9 19.9 1.7 25.9.8 9.3-1.5 21.5-8.8 30.8-6.9 1.7 13.4-22.8 16.7-31.7 17.7-3 .4-36.8-3.7-25-11.6 1.7-1.1-1.7 1.2 0 0zM264.1 149.9c-7 1.4-9.8-10.7-1.6-9.7 5.4.7 4.2 7.2 1.6 9.7zM129.9 153.7c-5.3 1.2-4.2 10.2 2 8.9 5.7-1.4 3.6-10.2-2-8.9-3.3.7 3.2-.8 0 0zM182.7 252.1c-2.4-1.9-5.1-7.5-1.5-9.8 3-2 7.7 1.4 10.7 1.6 9.8.8 17.3-3.2 25.3-8.7 11.1 8-22.5 26.4-34.5 16.9-3.1-2.4 8.8 7 0 0zM260.5 517.2c-.2 18.8-13-5.9 0 0 0 1.9 0 0 0 0zM163.2 531.1c-4.8 1.9-7.5-6.4-1.7-6 4.2.4 4.3 2.4 1.7 6zM194.5 581.7c6.1 3 5.5 8.8 14 7.7 6.2-.8 9.9-9.4 16.9-7.9-.2 13.7-14.5 23-27.1 18-6.9-2.6-16.9-20.7-3.8-17.8z"/></svg>