<svg xmlns="http://www.w3.org/2000/svg" viewBox="0 0 1000 652.1" enable-background="new 0 0 1000 652.1"><path fill="#2BC22B" d="M663.1 545.5c.7 2.6-2.6 4.9-5.2 4.3s-4.5-2.9-6.2-5c-37.2-47.7-74.4-95.3-111.7-143-24.3 36.2-43.1 75.9-55.7 117.6-2.2 7.2-6.3 16.1-13.8 15.8 12.3-43.2 30.4-84.7 53.6-123.1 6.2-10.2 3.8-23.9-2.6-33.9-6.5-10.1-16.4-17.3-26.1-24.3-23.5 33.4-32.4 76.8-23.8 116.8 2.8 12.9 6.9 27.7-.8 38.4-18.7-49.6-13.7-107.6 13.3-153.3 7.1-12-5-26-16-34.7-1.7-1.4-3.8-2.8-5.9-2.4-1.9.3-3.2 1.9-4.4 3.4-19.6 25.3-38 51.5-55.1 78.5 15.6 11.1 31.7 21.7 48 31.7-16.6 1.5-33.8-5.3-44.9-17.8-5.2-5.9-14.3 1.5-18.4 8.3-8.1 13.2-16.1 26.5-24.2 39.7-2.1 3.4-4.2 7.4-2.9 11.2 1.1 3.3 4.5 5.2 7.7 6.7 30.2 15.2 60.4 30.4 90.5 45.6-3 4.4-9.7 3.1-14.6 1.2-32.4-12.3-63.5-28.1-92.6-46.9-29.5 53.5-58.9 106.9-88.4 160.4-4.3-3.3-2.4-10.1-.1-15.1 21.9-46.9 47.2-92.2 75.4-135.6 6.6-10.1-2.3-23.6-12.6-29.9-10.3-6.3-23-10.1-29.8-20.1-5-7.4-5.7-16.7-6.3-25.6l-2.7-39.9c-1.5-22.8-2.4-47.8 11.2-66.1 21.1-28.4 42.1-56.7 63.2-85.1 1.4-1.9 3-4.1 2.8-6.5-.2-2.5-2-4.5-3.8-6.3-41-41.1-82-82.1-122.9-123.2.3-5.2 8.5-3 12.2.6l124.2 121.5c20.5-21.1 41-42.3 61.4-63.4-2.4-4.1-4.8-8.1-7.2-12.2 5.6-2.2 12.6-.2 16.2 4.7 35.6-25.3 18.5-87.9 50.6-117.5 17.8-16.4 46.8-16.5 67.6-4.2 20.9 12.3 34.2 34.6 40.8 57.9 6.5 23.3 7 47.8 7.5 72 26.9-19.9 53.8-39.9 80.8-59.8 21.9-16.2 44.7-32.9 71.4-38.6-41.4 28.8-82.8 57.7-124.2 86.5-9.5 6.6-19.5 13.9-23.9 24.6-4.3 10.8.1 25.8 11.4 28.4-7.3 13-6.2 29-4.9 43.9 1.9 21.9 3.8 43.9 5.7 65.8.5 5.5-1.6 13.5-7 12.4-1.7-2.8-4.2-5-7.1-6.4-22.6 24.8-43.5 51.2-62.4 78.9-1.8 2.7-3.7 5.5-3.7 8.7 0 3.7 2.3 6.9 4.6 9.8 37.1 48.1 74.5 96.4 111.8 144.6M299.6 325.8c-1.2 2.1-2.4 4.4-2.3 6.9.2 4.1 3.9 7 7.3 9.3 27.7 18.7 56.3 36.3 85.5 52.6 1 .5 2.1 1.1 3.2.9 1.3-.2 2.2-1.4 2.9-2.4 18.8-26.3 37.7-52.7 56.5-79 1.1-1.5 2.2-3.1 2.2-4.9.1-2.5-1.8-4.5-3.5-6.3l-73.1-75.2c-1.2-1.3-2.7-2.7-4.5-2.5-1.6.1-2.8 1.4-3.9 2.6-26.7 30-50.3 63-70.3 98M478.1 94.4c-.5 4.3-1 8.8.7 12.8 2.3 5.4 7.9 8.5 13.2 11.2 30.9 15.8 61.8 31.5 92.8 47.3 5.4 2.8 12.3-1.2 14.9-6.7 2.6-5.5 2.1-11.9 1.5-17.9-1.9-20.7-3.9-41.6-9.6-61.6S576.2 40 560.8 26c-5.3-4.8-11.3-9.1-18.2-11.1-18.8-5.7-39.2 6.5-49.5 23.2-10.2 16.6-12.7 36.8-15 56.3m-15.3 206.3c25.7-29.8 51.4-59.5 77.2-89.3-30-19.8-60.1-39.7-90.1-59.5-1.5-1-3.2-2-5-1.9-1.9.1-3.4 1.6-4.8 2.9-18.7 18.6-37 37.6-54.7 57.2-1.5 1.7-3.2 3.6-3.1 5.9.1 2.2 1.7 4 3.2 5.6 25.2 26.8 51 53.2 77.3 79.1m42.2 29.1c-2 3.7-4.1 7.8-3.3 11.9.6 3.3 2.9 6 5.2 8.5 9.2 10.4 18.4 20.7 27.7 31.1.7.8 1.5 1.6 2.5 1.7 1.4.1 2.5-1.1 3.3-2.2 14-18.7 28.1-37.4 42.1-56 2-2.6 4-5.4 4.6-8.6.5-2.5.1-5.2-.4-7.7-3.8-22.4-7.6-44.9-11.3-67.3-.7-4-2.4-9-6.4-9.2-23.7 30.9-45.1 63.6-64 97.8M344.6 463.9c1.2.8 2.5 1.5 3.9 1.4 2.1-.1 3.6-2.1 4.7-3.9 10.6-16.5 21.2-32.9 31.8-49.4.8-1.3 1.7-2.7 1.7-4.2.1-2.9-2.7-5-5.2-6.5-28.7-18.1-57.4-36.2-86.1-54.2-.7 23 .7 46.1 4.2 68.8.9 5.8 2 11.7 5 16.7 3.1 5.2 8 9.1 12.8 12.7 8.9 6.5 18 12.8 27.2 18.6m113.6-328.1c-2.5 1.3-3.1 4.9-1.9 7.5s3.6 4.3 5.9 6c26.9 19 54.7 36.8 83.2 53.3 1.3.8 2.7 1.5 4.2 1.3 1.3-.2 2.4-1.2 3.4-2.1 7-6.5 14-12.9 21-19.4 2.1-1.9 4.4-4.3 4.1-7.1-.3-3.1-3.4-4.9-6.2-6.3-30.2-15.2-60.5-30.4-90.7-45.6-2.1-1.1-4.3-2.1-6.7-2.1-7.3.2-9.5 11.1-16.3 14.5m16.6 178.3c4.3 4.9 8.6 9.8 12.8 14.7 2.2 2.5 6.7 4.8 8.2 1.9 16.9-33.3 37-65 59.9-94.5 2.6-3.4 5.4-7.5 4.3-11.6-1.3-4.7-7.4-6.6-12.1-5.1-4.6 1.5-8.1 5.3-11.3 9-20.8 23.8-41.7 47.6-62.5 71.4-1.5 1.7-3 3.5-3.3 5.7-.4 3.2 1.9 6.1 4 8.5m129.1-128.4c0 5.6-3.6 10.6-7.6 14.6-4 4-8.6 7.5-11.5 12.3-2.9 4.9-3.4 11.7.6 15.7 2.1 2.1 1.3 5.7.8 8.7-1.2 6.8-.1 13.8 1.1 20.6 2.7 15.5 5.4 31 8 46.5.2 1.1.5 2.4 1.6 2.7 1 .3 2-.3 2.8-1 8-6.2 16.9-14.2 16-24.4-2-25.1-4.1-50.3-6.1-75.4-.4-5.2-.8-10.7 1.5-15.4 1-2 2.5-4.2 1.8-6.4-3 1.1-6 1.5-9 1.5M561.6 206c-1.7 5 2.3 11 7.5 11.4 9.1-8.7 17.7-17.9 25.6-27.7 1.2-1.4 2.4-3 2.3-4.9 0-3.1-3.7-5.2-6.8-4.7-3.1.5-5.6 2.7-7.9 4.9-5.2 4.8-10.3 9.5-15.5 14.3-2 1.9-4.2 3.9-5.2 6.7m33.4-34.2c-.6 2 0 4.3 1.1 6.1 1 1.6 2.6 3.1 4.5 3.1 4.4-.8 7.3-6.4 5-10.2s-9.3-3.3-10.6 1z"/></svg>