<svg xmlns="http://www.w3.org/2000/svg" viewBox="0 0 715.1 743.3" enable-background="new 0 0 715.1 743.3"><desc xmlns:shape="http://adobe.com/products/shape"><shape:version>1.0.2</shape:version><shape:captureDetail>0.949640</shape:captureDetail><shape:source>1</shape:source></desc><path fill="#C12C7F" d="M401.5 638.4c3.9-9-47.5-2.3-52.6-1.8-23.3 2.1-46.5 4.2-69.8 6.3 64.3-13.5 130.3-17.8 195.9-16.6 33 .6 65.9 2.6 98.7 5.6 11.7 1 75-.2 76.5 15.6-52.2-4.5-105-12-157.4-13.6-5.4-.2-15.7-1.7-19.2 4.1-5.5 9.1 17.6 6.3 24 6.6 9.7.5 62.3-2.7 62.5 9.9-93.2-5.8-187.1 0-278.8 17.4-10.6 2-21.5 3.8-31.9 6.8-8.8 2.5-17.2 8.9-25.8 10.9-9.4 2.1-7.6-1.8-16.1-2.4-9.4-.7-16.7 2.3-25.5 5.3-44.8 15.2-89.3 31-134 46.6-3.3-15.4 60.1-34.6 72.2-39.1 13.3-5 26.7-9.6 40.3-13.8 12.1-3.8 39.3-5.7 46.9-16 7.1-9.6 1.2-27.3-.5-37.7-2.4-15.2-4.7-30.3-7.1-45.5-2.4-15.2-4.7-30.3-7.1-45.5-1.7-11.1-.9-36.7-12.5-43.4-8.1-4.7-24.5 1.2-34.5-.4-11.7-1.8-23-6.4-33-12.6-24.3-15-42.1-39.6-56.7-63.5-28.2-46.1-44.7-99.1-49-152.9-4-53.7 3.7-108.8 24.7-158.2 18.1-42.7 53.9-93.4 105-96.6 52.9-3.3 94.4 60.1 111.6 102.5 23.6 57.8 26.7 123.5 26.3 185.2-.4 63-4.7 139.2-58.9 181.3-11.9 9.3-16.9 10.8-16.4 27.1.5 17 5.4 35.3 8.1 52.1 2.7 17.4 5.4 34.8 8.1 52.1 1.7 11.1 1.5 35.6 15.7 39.6-4.9 1-8.4 7.3-6.7 12 59-9.1 118-18.3 177-27.4M161 352.9c-3.3-14.5-43.1 1.1-39.1-17.1 52.9 17.2 28.3-52.4 1.8-68 5.1 0 10.2-.1 15.3-.1.3-6.5-.4-13-1.9-19.3-1-4.3-7.6-14-7.1-18 1.3-9.4 9.3-11.4 15.3-2.9 5.6 7.8-.9 19.9 4.4 27.9 7 10.6 19.2 7.6 29.6 3.2.8 1.4-19.5 17.6-21 24.6-2.6 12 4.5 35.5 14.9 42 3.2-4.7 8.1-8.6 13.4-10.6 7.8 10.2-12.2 18.6-14.6 26.5-3.2 10.5 3.2 25.7 5.3 35.9 1.2 6.1 2 30.5 9.2 33.4 7.6 3.1 24-14 14.7 3.9-4.8 9.3-12.1 12.2-13.2 24.5-.8 8.9.8 22.8 4.7 31 12.1 25.4 38.2-16.8 44.9-29.5C263 392.2 262.8 330.9 262 278c-.8-53.7-5.9-109-26.3-159.2-15.6-38.5-56.5-105.9-106.6-95.3-51.7 10.8-83.3 73.3-96.9 118.8C1.9 244 18.1 386.4 101.3 460.9c15.3 13.7 48.8 37.5 70.8 29.5 16.4-6 8.7-19 6.7-32.4-2.2-14.9-.7-24.4-16.3-30.3-3.5-1.3-34.6-8.5-24.7-16.2 5.3-4.2 15 4.3 19.5 5.8 12.7 4.3 12.2 3.8 13.5-8.2 1.7-17-6.1-39.7-9.8-56.2-1.8-8 4.7 21.2 0 0zM243.7 646.7c3 .3 6.1.5 9.1.8-2.6 4.5-11.9 3.3-9.1-.8zM421.1 58c5-5.1 4.8 16-4.6 3.6 1.7-4.5 3.2-5.7 4.6-3.6zM647.2 177c17.8-8.3 54.8-34 62.1 1.2 4.7 22.6-18.7 46-31.8 61.7-32.6 39.2-73.8 75.1-124.1 88.6-23.6 6.3-44.1 2.8-60.1 24.2-15.1 20.1-24.8 43.7-40.4 63.7-11.7 15.1-33.6 45-56.6 32.6-23.3-12.5-5.4-56.7-1.5-75.1-12.9 14.3-26.3 35.4-43.8 44.4-18.8 9.7-30.6-3.4-27.3-22.4 6.7-39.6 35.8-81.2 62-110.4-22.2-5.2-34.4 25.2-55.7 22.2-18.9-2.6-15.4-17.3-7.1-27.9 12.6-16.2 35.1-32.5 43.6-51.1 6.6-14.4-1.9-35.3-4.5-50.2-2.8-15.7-2.2-39.6-11.4-53.1-7.6-11.1-22.3-14.3-33.3-20.7-11.3-6.6-23.5-13.5-8.4-22.2 12.3-7.1 28.8-5.5 42.1-9.8 16.4-5.2 22.5-17.2 34-29 11.4-11.8 25.1-22 40.5-28 29.1-11.4 66.3-5.4 85.1 21.6 8.3 12 8.6 28.3 25.9 17.5 17.5-10.9 29.7-28 49-37.7 10.8-5.4 29.2-15.5 32.2 3 2.7 16.4-21 25.4-16.9 42.1 15-11.3 38.7-26.8 56.4-11.2 10.9 9.6 3.3 15.3-4.2 24.5-9.4 11.5-18.8 22.9-28.2 34.4-8.5 10.3-16.9 20.6-25.4 31-4.4 5.4-10.7 11.2-14.1 17.2-4.6 8.1-5.9 4.2-.8 11.4 11.9 17 46.8 14.9 62.7 7.5m-298-69.7c44.3 18.4 2.2 91 44.7 111.3-17.4 17.4 28.1 65.4 40 76.5 25.3 23.6 58.3 33 92.4 29.4 68.2-7.2 122.7-61.6 161.1-114.5 7.2-9.9 16.7-27.8 2.5-36.7-11.9-7.4-28.2 8.9-39.8 13.1-32.1 11.6-64.5 2.9-87.6-21.7-22.4-23.8-32.4-54.6-43.5-84.5-10.7-28.7-28.9-61.1-63.7-61.5-18.6-.2-35.8 9-49.5 20.9C393 50.7 383.4 71.3 368.3 79c-11.1 5.6-32.4-.6-41.3 8.5-11.5 11.7 13.5 16.1 22.2 19.8m-17.8 180.1c-14 19.5 17.4.8 21.2-1.3 8.9-5.1 26.8-17.7 37.3-11.8 18.5 10.4-29.6 66.3-36.9 79.3-8.4 15-31.1 81 3.9 44.6 11.4-11.9 23-23.6 34.8-35.2 8.8-8.7 29.1-28.4 22.2-2.8-3.5 12.9-34.7 82.8-2.6 80.1 14.7-1.2 26.9-23.5 34.1-33.4 9.8-13.4 19-27.2 27.6-41.3 2.9-4.8 13.6-17.7 13.2-23.3-.6-9.2.9-4.4-8-10.2-11.7-7.6-25.7-11.7-37.4-19.8-27.1-18.8-49.1-45.2-62.2-75.5-17.8 14.8-33.7 31.9-47.2 50.6m227.9-193c13-18.7 34.8-40.5 42.5-61.8 9.3-25.5-24.3.8-32.6 7-12.6 9.5-37.2 26.5-37 43.6.1 13.7 19.3 58.6 31.8 65.7 13.9 7.8 33.5-22.7 42.5-33.1 10.7-12.3 36.4-35.5 38.8-51.9 3.1-21.4-33 .1-42.7 6.2-12.9 8.1-31 35.7-47.6 32.6 1-3.1 2.4-5.8 4.3-8.3 13.9-19.9-1.7 2.6 0 0z"/></svg>