<svg xmlns="http://www.w3.org/2000/svg" viewBox="0 0 967.2 901.7" enable-background="new 0 0 967.2 901.7"><desc xmlns:shape="http://adobe.com/products/shape"><shape:version>1.0.2</shape:version><shape:captureDetail>0.750000</shape:captureDetail><shape:source>1</shape:source></desc><path fill="#29A3C5" d="M102.4 232.4c-7.2 11-15.7 21.3-25.2 30.4-1.9 1.9-.2 5.4 2.4 6.2 2.5.8 5.3-.2 7.8-.9 17.5-5.4 39.8-.3 47.9 16.1 4.3 8.7 3.9 19 1.5 28.3-7.4 28.9-31.7 49.7-54.7 68.6-4 3.3-9.1 6.7-13.8 4.7-4-1.7-5.4-6.5-6.4-10.8-13.3-56.9-26.7-113.8-40-170.8-2.8-12 9.3-22 20.3-27.8 10.9-5.7 22.5-10.9 34.7-11.6s25.5 3.6 32.6 13.7c11 15.9 3.4 37.8-7.1 53.9M59 284.6c-1.2.6-2.5 1.3-3.2 2.5-.8 1.4-.4 3.1-.1 4.7 4.7 20.6 9.4 41.2 14.1 61.7 1.2 5.2 4.2 11.8 9.5 10.9 2-.3 3.6-1.7 5.1-3 14.8-13.2 30.1-26.9 38-45.1 3.9-9.1 5.4-20.7-.9-28.3-3.6-4.3-9.1-6.5-14.5-7.9-15.8-4.1-33.1-2.5-48 4.5m6.1-25.7c12.8-14.7 25.8-29.7 33.2-47.7 2.6-6.4 4.5-13.6 2.2-20.1-3.3-9.6-14.8-14.3-24.9-13.1-10.1 1.1-19.1 6.6-27.7 12-2.8 1.7-5.5 3.4-8.3 5.2-1.1.7-2.2 1.4-2.9 2.5-1.1 1.8-.7 4.1-.3 6.2 4.1 19.2 8.1 38.3 12.2 57.5.7 3.4 5.1 4.9 8.4 3.9 3.4-1.1 5.8-3.8 8.1-6.4zM528 282.7c15.8 5.7 31.6-8 42.2-21.1 7.1-8.8 13.8-18 20-27.4 1.5-2.2 2.9-5 1.7-7.3-1-1.8-3.2-2.5-5.2-2.9-7.2-1.1-14.6.8-21.9.1-7.3-.7-15.3-5.3-15.6-12.7 24.2-5.8 49.5-3.9 74.4-2 4.1.3 8.7.9 11.3 4.1 2.6 3.2.5 9.6-3.5 8.9-9.8-1.7-19.6 4.4-25.2 12.6-5.6 8.2-7.9 18.1-10.1 27.8-3.4 15.2-6.9 30.4-10.3 45.6-1.4 6-5.4 13.7-11.3 11.8-6.1-1.9-4.5-10.9-1.8-16.6 4-8.2 7.9-16.5 11.9-24.7 1.7-3.5 3.4-7.1 3.1-10.9-.3-3.8-3.3-7.7-7.2-7.5-5.8 13.8-12.7 28.6-26.1 35.2-20 9.8-45.3-5.1-53.5-25.8-8.2-20.7-3.5-44.2 3.9-65.2 11.6-32.8 30.9-64.4 60.6-82.5 8.6-5.2 18.4-9.3 28.4-8.2 10 1 19.8 8.4 20.8 18.4-4.6 2.5-9.9-1.1-14.9-2.6-10-3.1-20.6 1.9-29.2 7.8-34.1 23.3-56.9 62.6-60.2 103.8-1.5 16.1 2.5 35.8 17.7 41.3zM380.8 188.6c-2.9 28-8.9 57.5-28.1 78-15.9 17-38.7 25.4-59.4 36.2-6.3-3.1-7.6-11.4-8.1-18.4-3.2-47.4-6.5-94.8-9.7-142.2-.3-4.8-.4-10.2 3.2-13.4 1.6-1.5 3.7-2.2 5.8-2.9 12.8-4.2 25.7-8.5 38.5-12.7 5.1-1.7 10.2-3.4 15.6-3.7 17.1-1 32.4 12.5 38.6 28.4s5.4 33.7 3.6 50.7m-21.3-54.9c-7.3-8.1-19.3-10.4-30-8.6-10.7 1.8-20.4 7.2-29.9 12.6-4.5 2.6-9.7 6.2-9.5 11.4 1.2 39.9 3.9 79.7 7.9 119.5.4 4.3 1.7 9.5 5.9 10.5 1.6.4 3.2 0 4.7-.5 22.5-6.3 40-25.1 49.2-46.5 9.2-21.4 11.1-45.4 10.3-68.7-.4-10.6-1.6-21.9-8.6-29.7zM354.5 683.1c-3.7 16.9-12.3 32.3-20.7 47.4-15.4 27.5-30.8 55.1-46.2 82.6-6.9 12.3-13.9 24.9-24.3 34.5-10.3 9.6-24.7 16-38.5 13.4-18.8-3.6-31.1-22.1-36.6-40.4-13-43.2.1-90.2 20.6-130.3 8.5-16.7 18.8-33.3 34.7-43.4 15.8-10 38.4-11.6 52.3.9 7 6.3 17.1-3.1 21.7-11.3 12.8-22.9 25.7-45.8 38.5-68.8 2.1-3.7 4.3-7.7 4-12-3.5-58.3-6-116.7-7.5-175.2-.2-6.3 9.4-8.6 14.3-4.7 4.9 4 6 10.9 6.8 17.1l13.5 108.3c.8 6.2-.4 15-6.6 15.4-2.8-25.2-5.6-50.3-8.5-75.5-.7-6.4-4-14.8-10.3-13.6-1.7 6.1-1.1 12.5-.6 18.8 10.4 128.8 15.9 258 16.7 387.3.2 28.1 31 49.4 58.9 45.7s50.3-26.6 60.8-52.7 11.1-55 10.2-83.1c-.4-13.4-1.2-27.1-5.9-39.6-4.7-12.6-14-24.1-26.7-28.3-22.1-7.4-44.6 8.4-62.5 23.2-3.5 2.9-9.1 1.2-11.9-2.3-2.8-3.5-3.6-8.2-4.3-12.6-6.9-46.4-11.6-93.1-13.9-139.9-.3-5-.4-10.4 2.2-14.7 28.2-46.6 58.5-91.9 90.7-135.8 3.8-5.1 11.9-10.3 15.3-5 1.7 2.6.6 6.1-.6 8.9-24.2 61.4-51.7 121.5-82.3 180-14.2 27.2-8 60.1-1.5 90.1 1.3 5.8 6.2 13.2 11.1 9.9 23-15.6 55.9-24.5 77.5-7 11.3 9.1 17 23.4 20.6 37.5 10.5 40.1 8.2 83.4-6.3 122.2-5.6 15-13.2 29.5-24.5 40.8-23.4 23.2-62.6 28.5-91.3 12.3-12.4-7-23.4-18.8-24.5-33-4.5-57.4-5.4-115-2.7-172.5 1.5-3.3-3.9-6.2-7-4.2s-3.9 6-4.7 9.6m-135.2 161c9.1 5.8 21.6 3.2 30.1-3.3 8.6-6.5 14.1-16.1 19.4-25.5 25.9-45.7 51.9-91.5 77.8-137.2 8.9-15.7 18.1-32.6 16.6-50.5-1-12.4-6.8-26.3.4-36.4 1.6-2.3-1.8-5.4-4.5-4.6-2.7.8-4.3 3.5-5.6 6-13.8 26.9-27.5 53.7-41.3 80.6-11.9-4.1-19.4-16.5-31.3-20.7-18.2-6.6-36.9 8.6-48.4 24.1-21.8 29.5-35 65.4-37.4 102-1.4 24.4 3.6 52.4 24.2 65.5m171.1-289c0 6.7 3.6 14.1 10 15.9 20.4-50.3 45-98.9 73.4-145.2 1.9-3.2-2.5-7.1-6.1-6.2s-5.8 4.4-7.7 7.6c-20.2 34.5-40.3 68.9-60.5 103.4-4.6 7.7-9.1 15.7-9.1 24.5zM219.8 148.5c-3.9-4.2 3-11 8.4-9.2 5.4 1.9 7.9 7.9 9.5 13.3 13.3 44.1 9.7 91.9-3 136.1-3.6 12.7-8.4 25.7-17.9 34.8-9.6 9.1-25.3 13-36.2 5.6-7.8-5.3-11.4-14.8-14.3-23.8-13.8-43.2-20.8-88.6-20.6-134 0-6.1 3.2-14.7 9.1-12.8 4 1.3 4.6 6.6 4.6 10.8-.4 42.4 5.3 84.9 16.7 125.8 1.9 6.9 4.3 14.1 9.5 19s14.3 6.5 19.4 1.5c14.9-14.5 20.6-35.9 23.7-56.4 4-26.2 4.7-52.8 2-79.1-1.1-11.3-3.2-23.3-10.9-31.6zM685.7 247.7c-4.8-.8-10.1-1.6-14.4.9-4.4 2.6-6.3 7.9-7.9 12.8-3.9 12-7.7 23.9-11.6 35.9 22.2 2.8 44.5 5.6 66.7 8.3 4.4.6 9.1 1.2 12.6 4s5 8.6 1.9 11.8c-3.2 3.3-8.8 2-13.2.6-21.3-6.7-44-8.8-66.2-6.3-5 .6-10.5 1.3-14.7-1.6-4.1-2.9-4.2-10.9.8-11.8 3.8-.7 3.6-6.1 3.1-10-1.1-9.6 2.8-18.9 6.1-28 3.1-8.6 5.7-17.3 8.3-26.1 9.5-32.2 18.8-64.5 28.7-96.6 1.7-5.6 7.1-12.5 11.8-9 2.5 1.9 2.5 5.6 3.6 8.6 2.9 8 13.5 9.3 22 9.4 11.7.1 23.4.1 35 .2 7.2 0 17.2 3.3 15.6 10.3-1.2 5.5-8.6 6.4-14.3 6.1l-43.5-2.4c-8.4-.5-18-.4-23.6 5.8-2.7 3.1-4 7.1-5.2 11-3 9.9-5.9 19.8-8.9 29.7-1.7 5.7-3.3 12.4.2 17.3 3.1 4.4 9 5.5 14.3 6.3 10.5 1.5 21.1 3.1 31.6 4.6 4.9.7 10.4 1.7 13.4 5.8 3 4 .3 11.6-4.6 10.7-15.8-2.8-31.7-5.5-47.6-8.3zM803.3 332.2c20.6-49.9 41.1-99.8 61.7-149.7-11.4-2.6-22.8-5.3-34.2-7.9-3.8-.9-7.9-1.9-10.7-4.7-2.8-2.8-3.4-8.1-.3-10.5 2.2-1.7 5.3-1.3 8.1-.9 36.9 5.9 73.5 13.3 109.7 22.3 6.7 1.7 15.3 7.1 12.2 13.2-2.4 4.7-9.2 4.1-14.3 2.7-9.9-2.6-19.9-5.2-29.8-7.9-6.6-1.7-13.7-3.4-20-1-8.4 3.2-12.6 12.3-16.1 20.6-18.5 44.9-37 89.7-55.6 134.6-1 2.4-2.2 5-4.6 6-3.6 1.5-7.6-1.9-8.4-5.7-.7-3.7.8-7.5 2.3-11.1"/><path fill="#29A3C5" d="M452.4 847.8c-12.3 8.8-30.5 6-41.8-4.1-11.3-10-16.4-25.7-16.6-40.8-.2-15.1 3.9-29.9 8.4-44.4 4.2-13.4 9-27.1 18.6-37.2 5.2-5.5 12.4-10 20-9.7 3.6.1 7 1.3 10.3 2.7 6.5 2.8 12.6 6.7 17.5 11.8 11.5 12.2 14.4 30.3 13.6 47-1 20.6-6.9 40.9-17 58.9-3.6 6.1-7.5 11.9-13 15.8m-24.5-9.1c9.4 2.1 18.4-5 24.2-12.7 10.3-13.8 15.3-31 16.9-48.2 1.5-16.1-.7-34-12.5-45-4.3-4-10-6.9-15.8-6.3-8.6.9-14.5 8.7-18.7 16.3-6.9 12.6-11.8 26.3-14.4 40.5-3.2 17.4-2.1 37.6 10.8 49.8 2.6 2.6 5.8 4.7 9.5 5.6zM485.3 54.7c-.4 2.7-1 5.7-3 7.5-2 1.8-5.3 1.9-7.4.2-2.1-1.6-2.9-4.8-1.7-7.2 1.4-3 1.6-6.4 1.8-9.7.3-6.9.6-13.8.9-20.8.2-4.5.5-9.3 3.4-12.7 2.8-3.4 9.2-4.2 11.4-.3 1.1 2 .8 4.5.4 6.8-2 12.1-3.9 24.2-5.8 36.2zM450.1 275.8c-.8 10.9-3 21.7-6.5 32-1.1 3.4-6.3 3.9-8.9 1.4-2.6-2.4-3.1-6.4-2.5-10 .6-3.5 2.1-6.8 2.7-10.4.9-5.2-.2-10.8 1.9-15.7 2.1-4.9 9.8-7.6 12.5-3 1 1.8.9 3.8.8 5.7zM469.1 107.2c4.8.8 5.1 7.5 4.2 12.3-1.4 7.5-2.8 15-4.2 22.6-.9 4.7-2.1 9.9-6.1 12.5-7.3-3.7-6.8-14.1-5.2-22.1 1-5.2 2-10.3 3.1-15.5.8-4.7 3.5-10.7 8.2-9.8zM461.4 206c-1.3 8.9-2.8 17.9-5.9 26.5-1.2 3.2-6.4 2.9-8.4.1-2.1-2.8-1.9-6.5-1.6-10 .5-5.7.9-11.5 1.4-17.2.2-3.1.5-6.3 2-9s4.6-4.8 7.7-4.1c5.1 1.2 5.6 8.4 4.8 13.7zM420.4 367.4c.4-8 1.9-16 4.4-23.6 1.4-4.2 8.4-3.4 10.6.5 2.2 3.9 1.1 8.7 0 13l-2.7 10.2c-1.2 4.5-4.4 10.1-8.7 8.5-3.2-1.1-3.7-5.3-3.6-8.6zM419.1 430.3c-.6 2.9-1.7 6.2-4.5 7.1-2.7.9-5.7-1.4-6.6-4.1-1-2.7-.5-5.7-.1-8.5.3-1.6.5-3.3.8-4.9.7-4.3 1.7-9.1 5.2-11.5 3.6-2.5 10.1.1 9.1 4.3-1.3 5.9-2.6 11.8-3.9 17.6zM289.3 686.3c6.7 2.6 10.5 9.9 12 16.9 3.7 17.8-3.1 36.1-12.1 51.9-7 12.2-15.7 23.9-27.3 31.9-6.4 4.4-14.1 7.8-21.7 6.3-10-2-16.9-12.1-18.2-22.2-1.3-10.1 1.8-20.3 5.2-29.9 4.6-12.8 10.1-25.5 18.7-36s20.9-18.6 34.5-19.8c2.9-.3 6-.2 8.9.9m-9.6 11.7c-2.4 0-4.6 1-6.6 2.1-19.9 10.9-31.6 32.7-37.6 54.6-1.4 5-2.5 10.3-1.1 15.2 1.3 5 5.8 9.5 11 9.1 3.1-.2 5.9-2.2 8.3-4.1 17.6-14.2 30.1-34.7 34.7-56.8.8-4.1 1.4-8.4.2-12.4-1.2-4.1-4.7-7.7-8.9-7.7z"/></svg>