<svg xmlns="http://www.w3.org/2000/svg" viewBox="0 0 1000 1000" enable-background="new 0 0 1000 1000"><desc xmlns:shape="http://adobe.com/products/shape"><shape:version>1.0.1</shape:version><shape:captureDetail>0.796763</shape:captureDetail><shape:source>1</shape:source></desc><g><path fill="#FEDB47" d="M633.5 353.9c4.3 1.8 5.1 8.6 1.3 11.5-3.7 2.7-10.1 0-10.6-4.6s5-8.7 9.3-6.9zM359.7 409.3c3.5 3.4 5 9 2.8 13.3-2.2 4.4-8.4 6.4-12.3 3.6-5.8-4.1-9.4-13.4-4.1-18.1 3.7-3.4 10-2.2 13.6 1.2zM605 355.6c4.6.1 6.2 6.9 3.7 10.7-2.5 3.8-7.1 5.6-11.1 7.9-6.8 3.9-12.2 9.8-17.5 15.7-30.2 33.6-59.5 68-87.9 103.2-7.4 9.1-21.9 2.6-31.4-4.3-24-17.7-48.1-35.3-72.1-52.9-3.4-2.5-7-5.3-8.3-9.4-1.3-4 1.3-9.5 5.6-9.3 6.4.3 11.5-5.2 14.6-10.8 3-5.6 5.3-11.9 10.2-16 4.9-4 13.9-4.1 16.4 1.8 3.3 7.7 12.2 12.4 20.6 11.7 8.4-.7 16-6 20.5-13.2 3.2-5.1 5.1-11.3 9.5-15.5 4.4-4.2 13-5 15.7.5 5.7 11.6 22.2 13.8 33.8 8 11.5-5.8 19.1-17 26.2-27.7 12.2 15.7 39.6 15.5 51.5-.4zM699.5 322.5c2.3 47.3-13.5 93.6-32.9 136.8-19.5 43.1-42.9 84.7-57.3 129.8-13.5 42-18.9 86.6-15.9 130.7.5 7.3-6.4 12.8-12.8 16.4-13.6 8.3-27.8 15.7-42.4 22-2.3.9-4.8 1.4-7.2 1.1-6.1-.7-7.2-5.4-8-9.7-12.4-65.8-20-132.6-22.7-199.5-.5-13.9-.8-28 3.5-41.2 4.7-14 14.2-25.8 23.6-37.1 22.3-26.9 45.1-53.4 68.4-79.5 6.2-6.8 18.7-11.6 27.8-9.9 12 2.3 25.6-3.9 30.3-15.2 5.3-12.5-2.7-29.2-16.1-31.8-20.5-4-39.3 22-59.2 15.4-9.2-3.1-16.2-12.9-25.9-12.5-7.1.3-12.7 6-16.7 11.9s-7.4 12.5-13.4 16.3-15.6 3-18.3-3.5c-3.1-7.5-11.4-11.6-19.4-10-15 2.9-22.4 15.9-29.1 28-3.6 6.7-14.1 3.8-19.4-1.6-5.3-5.3-9.9-12.8-17.4-13.7-10.6-1.2-17 10.8-22 20.2s-17.1 18.9-24.9 11.7c-13.7-12.5-39.6-5.7-45.3 12-5.1 15.9 8.1 34.2 24.2 36.2 13.3 1.6 32.3 9.8 42.2 18.8 20.8 18.9 44.2 35.1 69.4 47.8 7.2 3.7 15.1 7.6 18.6 14.9 2 4.2 2.3 8.9 2.5 13.5C487.5 613 496 685 509.3 756.1c.4 2.5.9 5.1 0 7.4-1.1 2.9-4 4.6-6.8 6-16.3 8.1-34.8 11.7-52.9 10.2v.2c-1 8-11.9 9.9-15.8 2.8-.9-1.6-1.8-3.3-2.5-5.1 2.9-8.7 20.2 5 23.7-8.6.5-1.6.5-3.4.3-5.1-2.2-18.7-4.5-37.5-6.7-56.2-3.2-26.4-6.5-53.6-18.8-77.2-18.7-36-55.2-58.7-83.2-88.1-51-53.5-73.7-132.7-58.5-205.1 15.2-72.4 67.7-135.9 135.9-164.4 22-9.1 45.3-14.8 68.7-19 17.8-3.2 35.9-5.5 53.9-3.7 16.9 1.7 33.3 7.1 48.6 14.5 59.5 28.9 101 91.7 104.3 157.8z"/><path fill="#FEDB48" d="M867.3 307.4c3.6.8 7 3.9 6.9 7.6-.2 5.2-6.4 7.7-11.4 9-16.8 4.1-33.7 8.2-50.5 12.3-3.9 1-8.1 1.9-12 .9-4-1-7.5-4.8-6.8-8.8.8-4.6 6.3-6.6 10.9-7.7 17.3-4.1 34.7-8.2 52-12.4 3.6-.9 7.3-1.7 10.9-.9zM835.2 485.3c3 5.9.2 14.9-6.4 15.4-2.7.1-5.4-1.2-7.9-2.6-13-7-25.9-14-38.9-21-4.8-2.6-10.3-6.7-9-12 .7-2.7 3.1-4.6 5.6-5.5 6.2-2.2 12.9.6 18.8 3.4 7.5 3.5 15 7 22.4 10.5 6 2.8 12.4 5.9 15.4 11.8zM825.5 172.7c1 8.7-8.9 14.1-17.2 17-9.5 3.3-19.1 6.7-28.6 10-3.9 1.3-7.9 2.7-11.9 2.1-4-.7-7.9-4.1-7.6-8.2.4-4.6 5.5-7.1 9.9-8.7 11.2-4.2 22.6-8.3 34-12.5 7.1-2.6 15.9-4.9 21.4.3z"/><path fill="#010101" d="M685.8 219.8c25.4 39.1 36.4 87.1 32.1 133.6-10.4 111.6-103.6 204-107.5 316-.3 8.4 1.9 19.3 10.3 20.5 10 1.5 11.7 16.1 6.6 24.8s-14.1 14.9-18.1 24.2c-4 9.3 2 23.7 11.9 21.4 7.2-1.6 11.6 8.9 8.5 15.6-3.1 6.7-9.9 10.8-14.5 16.6-6.3 8-7.8 19.6-3.8 28.9 7.1-.9 14.4 3.9 16.4 10.7 2 6.8-1.5 14.9-7.9 17.9-12.7 6.1-7.5 24.8-8.9 38.8-3.2 30.9-45.8 45.4-50.4 76.2-.6 4.2-7.2 4.1-10.2 1.1s-4.4-7.5-7.7-10.1c-3.1-2.5-7.3-2.9-11.2-3.5-27.2-4.1-51.3-19-74.6-33.6-4-2.5-8.3-5.4-9.9-9.9-2.8-7.9 4.2-15.6 10-21.7 5.5-5.9 10.5-15.9 4.7-22-4.8-5-13.2-2.9-20.1-4.1-8.9-1.6-16.1-10.2-16-19.3.1-9.1 7.4-17.6 16.4-19 7.6-1.2 7.2-13.2 1.4-18.2-5.8-5-14-6.2-20.2-10.7-6.2-4.5-8.8-15.7-1.8-18.8 14.9-6.6 15.2-27.3 13.2-43.5-5.3-41.9-11.8-86.4-39.2-118.5-12.8-14.9-29.3-26.1-44.2-38.9-54.6-47-87-118.7-86-190.8.9-72 35.2-142.9 91-188.4 15.9-13 33.4-23.9 51.7-33.2 51.5-26 112-38.4 167.8-23.3 45 12.2 84.8 42.1 110.2 81.2zm-19.2 239.5c19.4-43.2 35.2-89.5 32.9-136.8-3.3-66.1-44.8-128.9-104.3-157.8-15.3-7.4-31.7-12.8-48.6-14.5-18-1.8-36.1.5-53.9 3.7-23.4 4.2-46.7 9.9-68.7 19-68.2 28.5-120.7 92-135.9 164.4-15.2 72.4 7.5 151.6 58.5 205.1 28 29.4 64.5 52.1 83.2 88.1 12.3 23.6 15.6 50.8 18.8 77.2 2.2 18.7 4.5 37.5 6.7 56.2.2 1.7.2 3.5-.3 5.1-3.5 13.6-20.8-.1-23.7 8.6.7 1.8 1.6 3.5 2.5 5.1 3.9 7.1 14.8 5.2 15.8-2.8v-.2c18.1 1.5 36.6-2.1 52.9-10.2 2.8-1.4 5.7-3.1 6.8-6 .9-2.3.4-4.9 0-7.4C496 685 487.5 613 483.7 540.8c-.2-4.6-.5-9.3-2.5-13.5-3.5-7.3-11.4-11.2-18.6-14.9-25.2-12.7-48.6-28.9-69.4-47.8-9.9-9-28.9-17.2-42.2-18.8-16.1-2-29.3-20.3-24.2-36.2 5.7-17.7 31.6-24.5 45.3-12 7.8 7.2 19.9-2.3 24.9-11.7s11.4-21.4 22-20.2c7.5.9 12.1 8.4 17.4 13.7 5.3 5.4 15.8 8.3 19.4 1.6 6.7-12.1 14.1-25.1 29.1-28 8-1.6 16.3 2.5 19.4 10 2.7 6.5 12.3 7.3 18.3 3.5s9.4-10.4 13.4-16.3 9.6-11.6 16.7-11.9c9.7-.4 16.7 9.4 25.9 12.5 19.9 6.6 38.7-19.4 59.2-15.4 13.4 2.6 21.4 19.3 16.1 31.8-4.7 11.3-18.3 17.5-30.3 15.2-9.1-1.7-21.6 3.1-27.8 9.9-23.3 26.1-46.1 52.6-68.4 79.5-9.4 11.3-18.9 23.1-23.6 37.1-4.3 13.2-4 27.3-3.5 41.2C503 617 510.6 683.8 523 749.6c.8 4.3 1.9 9 8 9.7 2.4.3 4.9-.2 7.2-1.1 14.6-6.3 28.8-13.7 42.4-22 6.4-3.6 13.3-9.1 12.8-16.4-3-44.1 2.4-88.7 15.9-130.7 14.4-45.1 37.8-86.7 57.3-129.8zm-31.8-93.9c3.8-2.9 3-9.7-1.3-11.5-4.3-1.8-9.8 2.3-9.3 6.9.5 4.6 6.9 7.3 10.6 4.6zm-26.1.9c2.5-3.8.9-10.6-3.7-10.7-11.9 15.9-39.3 16.1-51.5.4-7.1 10.7-14.7 21.9-26.2 27.7-11.6 5.8-28.1 3.6-33.8-8-2.7-5.5-11.3-4.7-15.7-.5-4.4 4.2-6.3 10.4-9.5 15.5-4.5 7.2-12.1 12.5-20.5 13.2-8.4.7-17.3-4-20.6-11.7-2.5-5.9-11.5-5.8-16.4-1.8-4.9 4.1-7.2 10.4-10.2 16-3.1 5.6-8.2 11.1-14.6 10.8-4.3-.2-6.9 5.3-5.6 9.3 1.3 4.1 4.9 6.9 8.3 9.4 24 17.6 48.1 35.2 72.1 52.9 9.5 6.9 24 13.4 31.4 4.3 28.4-35.2 57.7-69.6 87.9-103.2 5.3-5.9 10.7-11.8 17.5-15.7 4-2.3 8.6-4.1 11.1-7.9zM604 837.5c2.7-2.1 5.4-6.1 2.9-8.6-6.5 3.6-15.8-3.4-14.2-10.6.8-3.4-2.8-6.5-6.3-6.7-3.5-.2-6.7 1.7-9.8 3.4-26.5 15.2-54.7 27.5-83.9 36.6-5.5 1.7-11.6 3.8-14.5 8.8-2.5 4.5-1.6 10.1-.3 15.1s2.9 10.3 1.6 15.3-7 9.2-11.6 6.9c-4.1-2-9.7 1.2-10 5.8-.3 4.5 4.7 8.6 9 7.3 50.3-14 97.5-39.3 137.1-73.3zm.7 14.5c-4.5-.6-8.3 3.8-9.8 8.1s-1.9 9.1-4.6 12.9c-1.9 2.7-4.7 4.5-7.5 6.3-25.3 15.9-52.3 29.2-80.3 39.7-2.4.9-.8 4.6 1.2 6.2 16.6 13.1 41.8 10.8 59.5-.9s29-30.9 37.1-50.5c.5-1.2 1-2.4.9-3.7-.2-3.6-4.5-7.2-2.3-10.1 3.2-1.4 5.5-4.6 5.8-8zm-12.4-73.3l1.3-9.3c-.1-1.2-1.8-4.5-2.2-7.3-.4-2.9-3.7-4.7-6.6-4.6-2.9.1-5.6 1.6-8.2 3.1-28.8 16.2-59.9 28.3-92.1 35.7-7.3 1.7-15.7 3.9-19 10.6-2.2 4.5-1.5 9.7-.7 14.6.7 4.3 1.6 9 5 11.7 4.4 3.5 10.8 2 16.1.2 32.6-10.9 63.2-26.9 93.4-43.2 5.2-2.8 10.7-6 13-11.5zM362.5 422.6c2.2-4.3.7-9.9-2.8-13.3-3.6-3.4-9.9-4.6-13.6-1.2-5.3 4.7-1.7 14 4.1 18.1 3.9 2.8 10.1.8 12.3-3.6z"/><path fill="#FEDB48" d="M697.9 43.7c2.6 3.9-.4 9-3.3 12.7-12.6 16.2-25.3 32.5-40.2 46.7-5 .7-9-5.1-8.5-10.1.5-5.1 3.8-9.3 7-13.3 5.6-6.9 11.3-13.7 16.9-20.6 4-4.9 8.1-9.9 13-14 4.4-3.7 12-6.2 15.1-1.4zM475.9 68.7c.8 4 1.7 8.1.9 12.2-.8 4.1-3.6 7.9-7.6 8.6-7.4-2.6-10-11.6-11.6-19.3-1.9-9.3-3.8-18.7-5.7-28-.7-3.4-1.4-6.9-.7-10.3.7-3.4 3.1-6.7 6.5-7.4 3.4-.7 6.8 1.5 8.7 4.3s2.6 6.3 3.3 9.6c2.1 10.1 4.2 20.2 6.2 30.3zM308.2 154c1.3 5.7-1.7 12.8-7.4 13.7-12.6-12.2-25.2-24.5-37.8-36.7-3.4-3.3-7.2-7.7-6-12.3 1.2-4.7 7.1-6.7 11.7-5.5 4.6 1.3 8.2 4.8 11.6 8.2 6.1 6.1 12.1 12.2 18.2 18.3 4.1 4.1 8.4 8.6 9.7 14.3zM234.8 597.9c4.5 4.6-.2 12.1-4.9 16.4-6.3 5.9-13 11.3-20.1 16.3-3.5 2.5-7.2 4.9-11.5 5.2-4.2.3-9-2.1-9.8-6.3-.8-4.5 3-8.4 6.5-11.3 4.6-3.9 9.3-7.9 13.9-11.8 5-4.2 10.2-8.6 16.5-10.2 3.2-.8 7.1-.7 9.4 1.7zM212.8 296.4c.5 4.6-3.9 8.6-8.4 9.4-4.6.8-9.2-.7-13.6-2.1-13.5-4.5-27.1-9-40.6-13.4-3.6-1.2-7.3-2.5-10.2-5-2.9-2.4-4.6-6.5-3.3-10.1 1.3-3.3 5-5.2 8.6-5.5 3.6-.3 7.1.9 10.5 2 15.1 5 30.3 10 45.4 15 5.1 1.7 11 4.4 11.6 9.7zM188.2 446.2c.1 1.5-.3 3-1.1 4.3-3.7 6.7-13 7.2-20.6 6.9-16-.7-32-1.3-48-2-6.9-.3-14.4-.9-19.2-5.8-3.5-3.6-1.3-10.1 2.9-12.8 4.2-2.7 9.6-2.5 14.6-2.3 18.4.8 36.9 1.5 55.3 2.3 6.9.3 15.8 2.5 16.1 9.4z"/></g></svg>