<svg xmlns="http://www.w3.org/2000/svg" viewBox="0 0 616 1000" enable-background="new 0 0 616 1000"><desc xmlns:shape="http://adobe.com/products/shape"><shape:version>1.0.2</shape:version><shape:captureDetail>0.750000</shape:captureDetail><shape:source>1</shape:source></desc><path fill="#29A3C5" d="M465.7 149.1c40.5 8.3 37.4 48.8 19.3 77.1-8.3 13-56.8 74.7-74.6 50.8-8.5-11.4-8.4-31.4-11.8-44.9-4.2-17-17.1-45.3-8.1-62.3 11.7-22 53.8-25.1 75.2-20.7m19.9 26.1c-12.4-24-50-18.1-70.4-9.9-17.5 7.1-17.1 18.4-12.6 34.9 4.2 15.2 6.3 30.7 9.6 46.1 7.5 35.3 31.9 7 46.8-7.8 18.2-18.1 38-41.3 24.4-67.6.5.9 4.2 8.1 2.2 4.3-11.5-22.3 3.7 7.1 0 0zM214.6 269c65.3 1.9 67.7 94 17.9 121-38.3 20.8-51.7-22.3-50.1-52.4 1-18.9 4.4-69.5 32.2-68.6m13.3 109.8c23.2-17.2 39.2-42.6 24.7-70.6-9.3-18-34.4-40.9-50.4-16.4-15.3 23.4-17 118.7 29.5 84.2-.8.6-4.8 3.6-3.8 2.8 18.2-13.4-3.4 2.6 0 0zM126.8 382.1c-12.4-.2-28.8 10.1-40.8 4.7-16-7.2-5.8-33.5 0-44.5 6.3-12.1 23.5-35.7 40.2-26.2 9.5 5.4 4.8 7.9-1.5 10.3-12.7 4.9-18.9 4.3-27.1 16.7-10.9 16.5-15.4 40.1 11.9 32.4 21.5-6.1 45.7-1.2 54.8 22.2 7.9 20.1-1.9 40.6-20.5 50-5 2.5-42.4 11.7-30-3.4 4.6-5.6 18.7-4.9 25.3-7.4 8.4-3.2 14.3-8.8 16.3-18.1 4.1-19.1-11.7-36.4-30.4-36.7 1.5 0 3 .1 4.5.1-.9 0-1.8-.1-2.7-.1-18.1-.3 9 .2 0 0zM269.9 562.6c-5.5 74-9.2 148.2-11.3 222.4-1.8 64.7.2 129.4-1.2 194-.1 2.7.8 13.7-3.3 14.5-7.3 1.3-7.5-23-7.5-26.2.5-31.8 1.3-63.7 1.5-95.6.5-74.8 2.9-149.6 7.2-224.3.9-15.9 1.8-31.8 3-47.6.9-12.4 5.2-25.8 4-38.2-2.5-26-43.5-14.4-60.8-13.2-36.4 2.5-72.7 5.1-109.1 7.6-18.7 1.3-66.3 16-77.1-4.9-5.6-10.7-3.8-28.3-4-39.8-.4-18.6.2-37.3.4-55.9.4-36.4 0-72.8.3-109.3.6-73.1 2.2-146.3 4.8-219.4.6-16.8 1.2-33.5 2-50.3.4-9.7-3.1-32.1 5.4-38.8 6.6-5.2 26.5-2.2 34.7-2.8 18.9-1.5 37.8-2.9 56.7-4.2 73.1-5.2 146.3-9.2 219.5-12.1 73.4-2.9 146.8-4.6 220.2-5.2 11.6-.1 27.5-2.9 39 0 14.9 3.9 13.4 19.5 12.8 32.4-1.5 35.5-3.2 70.9-4.4 106.4-2.4 74.5-4.4 148.9-6.8 223.4-1.2 36.6-2.4 73.2-3.8 109.8-.6 16.6.4 34.3-2.1 50.7-2.1 14.1-11 14.8-24.3 14.6-35.3-.5-70.7-4.5-106.1-5.2-30.4-.6-61 .6-91.4-1.1-8.9-.5-23.2-2.9-31.3 2.3-8.2 5.3-8.1 17.4-8.5 26.2-1.4 29-3 58-4.7 87.1-4.3 72.8-6.5 145.7-6.6 218.7 0 31.6 3.1 63.5 2.6 94.9-.1 3.6-.9 20.8-8.2 18.9-4.9-1.3-3.1-17.6-3-20.9.4-69.1-.4-138.2 1.8-207.3 1.2-36.3 2.8-72.6 4.9-108.9 1-18.1 2.2-36.3 3.5-54.4.8-11.6 7.7-36 3.5-46.9-7.3-18.7-50.7-13.1-52.3 8.6m-238-227.7c-19.6 12.6-11 51.6-10.8 71.1.2 30.6.5 61.3.5 91.9 0 17.1-7.8 45.4 14.9 49.9 21.8 4.3 52.8-.5 73.2-8.5 26.5-10.5 50.8-31.3 74.6-46.9 25-16.4 50.1-32.5 75.5-48.3 51.9-32.2 104.9-62.7 159.7-89.7 31-15.3 62.4-29.8 94.1-43.5 14.4-6.2 29-12.3 43.5-18.2 12.7-5.2 20.8-11.6 31.4-.9C427.7 355 274.8 438.5 134.7 539.6c129.9-7 260-8.5 390-4.5 16.3.5 49.6 10.3 54.5-10.7 6.7-28.5 4.6-60.8 5.8-89.9 2.6-64 4-128 5.2-192 1.3-72.7 2.8-145.4 7.4-217.9-155.8.5-311.1 7.1-466.6 15.7-17.2.9-34.3 1.9-51.5 3.2-12.3 1-33.8-1.1-44.3 7-10.3 7.9-8 27.1-8.1 38.6 0 19.9-.2 39.8-.8 59.8-.9 29.9-.8 59.9-3.2 89.7-1.6 20-3.8 40.5-2.4 60.6 1.5 21.8 9.7 24.9 28.3 12 26.8-18.6 54.7-35.5 82.4-52.9 64.4-40.4 129.1-80.6 195.5-117.7 64-35.8 129.6-68.8 197.6-96.1 9.6-3.9 24.8-13.6 35.4-14.5 17.6-1.4-1 12.5-7.4 15.7C524 59.7 492.9 69.4 464 83 313 154.5 172.2 244.8 31.9 334.9l74.7-48-74.7 48c-10.9 7 170-109.1 0 0zM448.6 481.3c1.3-15.7 1.7-50 17-59.7 11.7-7.4 12 9.5 13.3 17.7 1.3 8.5 2.6 22 11.6 11 5.2-6.3 9.5-38.7 23.1-31.7 10.7 5.5 3.9 40.6 4.6 51.1.4 5.6 3.7 28-4.6 30.4-10.3 3.1-7.4-22.2-7.1-27.2.7-11.9-1.8-38.2-9.1-13.9-1.9 6.1-2.7 29-12.2 27.6-12-1.7-8.2-36.5-21.1-34.8-5.2.6-4.1 18.1-4.8 21.9-1.1 5.3-11.7 20.6-10.7 7.6"/><path fill="#29A3C5" d="M215.9 98.3c-8.4 5-29.7 11.3-11 20.6 4.6 2.3 35.1 5.2 22.7 16.3-7.9 7.1-20.9-7.6-29-6.9-8.8.7-9.9 14.5-16.5 13.6-8.6-1.2-6.6-64.5-2.8-71.3 13.8-24.8 75.3 4.5 36.6 27.7m-12.6-24.9c-10.2 1.4-22.3 20.1-6.9 21.9 15.7 1.9 28.9-25.3 5.2-21.7.2 0 3.4-.4 1.7-.2-15.5 2.2 3.1-.4 0 0zM349.5 445.9c3.1 9.3 16.9 8 23.8 4.7 7.8-3.8 9.9-8.8 10.8-17.2.5-5.2-3.5-21.7 4.9-22.8 10.2-1.4 7.4 18.9 6.8 23.7-1.1 9.6.2 54.7-8.2 59.3-7.4 4.1-5.6-16.2-7.4-21.9-4.9-15.6-22.4-12.4-29.8 1.6-2.2 4.1.8 16.8-1.1 18.8-5.8 6.3-10.9-4.7-11.7-8.9-3.3-18.1-2.1-34.5 1.7-52.4 1.3-6.1 6.3-14.3 11.9-5.8 3.8 5.6-3.4 15.8-1.3 22.2 0-.1-1.1-3.4-.4-1.3 3.1 9.6-1.1-3.2 0 0zM328.2 315.9c4.5-3.8 50.2-38.1 53.5-30.3 4.2 9.9-37.8 33.9-44.5 38.5-17.4 12-24.5 11.4-31.4-9.2-7.1-21.3-12.5-43.2-19.1-64.7-1.9-6.1-8.8-27.1 4.9-19.2 10.2 5.8 11.4 29.7 13.5 39.7 2.4 10.8 4.6 22.1 8.6 32.5 5.3 13.6 9.3 17 20.8 7.3-1.8 1.6-5.1 4.3-6.3 5.4 12.4-10.4-2.5 2.1 0 0zM245.4 96.7c3.7-17.4-2.3-30.9 15.9-40.7 5.5-2.9 30.1-16.3 29.2-2.8-1.1 14.6-31.4 9-32.9 27-1.1 13.9 8.1 10 16 9.9 8.9 0 16.5 6.6 4.9 12-5.9 2.8-19.5-1.3-21.7 8.5-1.3 5.5 1.4 5.3 6.1 7 4.3 1.6 25.9-1.6 23 8.8-1.9 6.5-23.2 7.5-28.5 5.9-16.5-4.8-14-26-11.2-39.1-.3 1.2-.6 2.3-.8 3.5 4.1-19.1-.4 1.8 0 0zM551.7 441.8c2.1 1 13.8 3.6 14.2 6.6.6 4.9-8.8 6.5-12.3 8.9-14 9.6-9.4 18.3 4.7 22.1 12.6 3.5 14.9 10.9.3 12.5-12.3 1.4-23.9 4.2-26.2-10.8-2.4-15.6-.4-41.4 4.4-56.5 3.1-9.9 19.5-24.4 31.3-17.4 18 10.6-43.1 22.5-15.8 34.9-.6-.3-4.8-2.2-.6-.3 11.3 5.1-5.2-2.4 0 0zM151.1 117.4c-8.2-13.2-23.6-.8-28.7 8.2-5.4 9.6-7.9 17.7-11.4 3.4-4-15.9.4-14.8 8.1-30 4.7-9.3 6.1-27.2 14.4-34.2 14.9-12.4 22.2 30.4 26.4 40.6 2.4 5.8 11.9 22.6 5.7 28.2-7.7 7-11.7-11.6-14.5-16.2m-20.2-26.5c-4 10.3 8.9 17.4 14.2 7.4 5-9.5-10.2-17.8-14.2-7.4-1.1 2.8.3-.8 0 0-4.6 11.8.8-2.1 0 0zM431 485.7c-8.9 10.3-23.5 10.5-29-3-5.1-12.7 1.1-31.5 7.6-42.6 7.6-13.1 21.2-17.5 29.3-2.1 8 14.9 2.6 35.5-7.9 47.7m-4.4-44.7c-11.6 0-22.7 37.3-8.7 38.5 12.7 1 25.5-38.5 8.7-38.5-3.1 0 1.8 0 0 0-10.6-.1 2.8 0 0 0zM75.6 82.6c-7.7 9.6-20.7 37.7-9.2 48.4 7.1 6.6 22.3-5.2 24.7 2 4.9 14.9-26.1 12.7-32.4 6.8-16.2-15.4-2.4-49.9 8.9-64.6 3.6-4.7 24-17.6 21.9-1.9-.7 5.4-13.1 8.1-16.7 12.7 1-1.1 1.9-2.2 2.8-3.4-9.2 11.6 1.3-1.6 0 0z"/></svg>