<svg xmlns="http://www.w3.org/2000/svg" viewBox="0 0 764 1000" enable-background="new 0 0 764 1000"><desc xmlns:shape="http://adobe.com/products/shape"><shape:version>1.0.2</shape:version><shape:captureDetail>0.870504</shape:captureDetail><shape:source>1</shape:source></desc><path fill="#C12C7F" d="M628.9 536.4c15.2 27.4 30.5 54.8 45.7 82.1-46.2 24.9-91.1 52.4-134.3 82.3-10.5 7.3-52 28.1-52.1 43.9-.1 16.6 37.8 41.1 49.3 51.1 19.6 17.1 39.9 33.4 60.8 48.9 13 9.6 45.1 23.4 45.2 39.6 0 14-34.3 40.9-43.7 51-4.6 5-40.1 51.7-48.6 36.2 13.3-16 26.7-31.9 40-47.9 6.6-7.9 32.4-29.7 30.4-41.3-2-11.8-25-23-33.6-29.6-12.9-9.9-31-30.2-46.3-35.1-17.7-5.7-59.1 36.3-59.6 55.1-1 34.7 60.4 34.9 54.3 70.9-46.5-35.6-88-77.4-134-113.1-12.1-9.4-13.4-11.7-26.9-3.1-11.7 7.4-22.2 19.2-32.6 28.4-18.8 16.8-37.4 33.8-55.8 51.1-20.9 19.8-41.5 40-61.8 60.5-19 19.2-33 39.4-57 14.9-15-15.3-37.2-40.6-45.7-59.8-11.4-25.8 25.4-45 42.5-60.5 22.8-20.7 45.7-41.3 68.5-62 10.6-9.6 50.4-35.8 50.1-51.9-.3-15.1-46.1-44.6-57-54.4l-33.9-30.3c-7.6-6.8-30.7-21-33.9-30.3-6.4-18.7 20.5-38.4 32.8-51.4 14.8-15.6 33.7-45.9 56.9-34.6 22.4 10.9 44.5 40.7 62.8 57.7 22 20.3 44.1 40.7 66.1 61-19.9 15-68.9-45.6-81.6-57.6-14.4-13.5-28.2-28.6-43.6-40.9-16.5-13.2-21.2-7.4-35.3 6.9-9.4 9.5-34.3 28.3-38.4 40.8-5.5 16.8 8.9 26.1 20.6 36.8 28 25.5 55.1 55.8 85.7 78 26.7 19.3 53.3-17.1 75-33.7 30.3-23.1 61.1-45.6 92.5-67.4 20.1-13.8 159.9-122 176.5-92.3M254.8 800.3c9.8 14.3 29.2 55.8 44.9 63.5 16.4 8 31.8-15.4 44-26.1 34.1-30.1 69.2-59 105.3-86.6 36.1-27.6 73.2-54 111.2-79 17.5-11.5 35.2-22.8 53.1-33.8 13.4-8.2 39.5-16.6 38.9-33.7-.4-11.1-23.3-46.9-30.8-53.6-13.3-12-21.5-2.6-36 6.1-39.2 23.5-77.6 48.2-115.3 74.1C395 683 323 739.5 254.8 800.3m31.3 67.1c-10.8-14.5-22.9-38.5-37.1-49.6-15.3-11.9-25.5 6.8-38 18.4-18.6 17.2-81.7 59-70.8 85.7 6.1 14.9 25.1 38.1 36.6 49 18.4 17.4 28.6-2.1 42.9-16.4 15.4-15.5 82.9-65.1 66.4-87.1m184.2-115.2c-16.5 11.2-56.9 32.8-64.1 51.4-5.4 13.9 35.6 52.3 50.4 57 17 5.4 38.8-27.9 50.4-40.7 12.7-14.1 14.8-20.1.4-34.1-12-11.6-24.8-22.4-37.1-33.6-22 14.9 13.7 12.4 0 0zM202.1 196.8c-11.5 10.2-27.6 16.1-36.9 28.7-11.1 15-4 21.9-3.6 37.7.9 29.8-32.8 63.4-49.2 86-11.9 16.4-57.8 59.4-53.5 79.8 5.8 27.6 47.7 16.3 60.4 37.2-13.9-.2-27.7-3-40.7-8-11-4.3-21.2-16-28.4-2.1-10.5 20.4 21 37.9 27.6 53.2-24.5-2.9-40.8-25.5-42.3-48.8-.9-13.2.3-21-5.8-33.6-6.1-12.7-13-22.8-14.8-37.2-7.1-59 48.1-97.8 87.7-130.5 17.7-14.6 36.9-30.2 6.5-42.2-26.9-10.7-60.6-11.4-85.6-26.7-48.9-30 18.9-108.3 47.9-128.7C65 97.9 19.8 119.5 22 158.2c2.4 41.8 66.1 39.1 95.8 52.1 19.3 8.4 28 14.2 46.7.7 16.1-11.6 34.1-28.1 40.9-47.2 5.3-14.8 4.8-32.1-5.5-44.7-10.3-12.5-29.6-16.3-36-32.2 54.6 3.3 79 73.6 38.2 109.9M41.8 339.4c-9.4 15.7-17.3 35.1-14.3 53.7 1.1 6.7 3.6 18.1 10.1 21.6 9.7 5.4 10.1-1.4 16.1-9.6 24.3-32.4 50.4-64.2 72.8-97.9 8.2-12.4 19.7-29.7 18.8-45.5-1.2-21.7-12-10.8-24.5-1.7-30.2 22-59.4 47-79 79.4-11.3 18.8 22.7-37.6 0 0zM641.2 277.7c-21.7 32.3-51.1 69.3-44.7 110.8 6.2 40.1 45.5 71.8 76 94.7-46.2 1.2-88-60.3-89.8-101.8-2.4-52.6 35.8-94.4 62.8-135.5 13.1-19.9 28.9-44.1 28.4-68.9-.5-25.5-19-37.3-35.4-53.5-31.5-31.2-37.5-84-7.1-118.7 12 14.3-9 48.8-6.4 67.2 4 28.3 24.6 41.7 43.4 60.2 44.6 44.1.9 103.6-27.2 145.5-23.7 35.3 13.6-20.2 0 0zM700.4 33.3c-3-3.2-9.6-11.2-5-16 66.6 33.2 42.6 121 18.3 172.9-14.8 31.6-33.5 63.1-39.4 98-6.3 37.1 9.4 59.7 37.4 81.9-31.1 2.2-51.7-28.8-53.9-56.5-2.8-35.7 15.5-70 30.7-101.1 25.8-52.5 60.3-128.1 11.9-179.2-4.3-4.5 27.8 29.3 0 0zM92.8 558.9c-7.7 8.7-12.8 9.3-13.7-.9-.7-7 14.1-19.9 18-24.5 10.2-12 39.9-55.5 58.1-52.1 6.2 13.4-53.1 67-62.4 77.5-3.9 4.4 19.4-21.8 0 0zM176.3 500.3c6.2 13.9-60.9 74.6-72.9 83.4-13.5-5.3 23.6-41.8 27.5-46.2 9.6-10.4 29.6-40.1 45.4-37.2 1.6 3.5-6.4-1.2 0 0zM148.2 607.1c-2.9 3.2-12.8 10.8-17.1 4.4 12.5-16.8 26-32.9 40.4-48.1 6.7-7.1 28.6-36.7 40.4-33.8 6.1 12.7-54.6 67.4-63.7 77.5-4.6 5.1 19.9-22.1 0 0zM124.8 585.7c7.1-9.4 70.3-82.3 74.3-69.4 1.9 6-34.5 39.6-39.2 44.8-2.2 2.4-38.4 38.2-35.1 24.6 18.8-24.8-.7 2.9 0 0zM743.2 503.9c4.5 15.6 17.8 40.6 16.3 56.5-1.2 12.2-5.9 11-13.1 1.2-8.3-11.3-12.3-39.3-15.2-53.2-3.3-15.4 6.7-22.9 12-4.5 5.4 18.8-1.2-4.1 0 0zM661 511.8c11.4-4.8 42.5 82.3 36.6 83.2-11.7 1.7-44.6-79.8-36.6-83.2 3.9-1.6-4.1 1.7 0 0zM651.1 530.9c9.3 18.1 20.2 35.9 28.1 54.7 6.3 14.8 4.4 20.8-8.3 5.6-11.4-13.6-19.3-33.4-26.9-49.3-2.7-5.6-13.6-18.8-3.9-20.6 5.1-1.1 9.2 6.1 11 9.6 10.9 21.2-1.6-3.1 0 0zM703.9 570.9c-3.7-9.3-30.1-65.6-16.6-64.6s28.4 62.8 32.7 74.4c-7 7.6-14.2-4.9-16.1-9.8-7.4-18.7 1.4 3.5 0 0zM723.4 560.8c-5.1-14.1-13.7-30-16.2-44.8-3-18.1 4.4-18.7 11.9-.7 4 9.6 19.9 37.8 16.8 46.9-2.9 8.5-8.5 9.8-12.5-1.4-6-16.6 1 2.9 0 0zM544.8 897.2c3.6-12.8 15.7 3.2 17 7.8-7 2.1-13.7-2.3-17-7.8zM575.9 883.1c30.1-2.5-18.3 17.7 0 0 2.5-.2 0 0 0 0zM538.1 845.5c1.8-.3 3.6-.5 5.4-.8 3.4 7.5.5 11-8.6 10.7-2.5-4 1.5-7.6 3.2-9.9zM523.3 883.5c-3.9 3.3-11.5-1.2-10.4-6.2 5.8-3.2 10 2.9 10.4 6.2zM219.8 872.4c3.6 2 5.5 5.1 5.5 9.2-8.4 3.5-19.2-3.5-19.4-12.5 5.1-3 10.9-.4 13.9 3.3zM193.3 932.2c3.6 8.5-11.8 19.4-13.8 9-2.1-10.1 11-12.4 13.8-9zM204.3 927c1.5-9.9 9.9-10.6 16.9-9.8-.9 8.1-12.2 25-16.9 9.8zM156.5 910c-1.2-8.4 7.1-7.7 14.5-5.5-.5 8-9.4 8.1-14.5 5.5zM261 879.6h-8.5c-.7-6 7.4-11.5 12.7-8.7.6 3.7-2.1 6.7-4.2 8.7zM233.2 844.7c-.6 4.1-16.8-1.5-3.7-11.8 10.7-8.3 10.1 8.9 3.7 11.8zM283.9 602.2c6.9 2.5-33.8 69.8-43.1 61.8-8.3-7.1 5.1-33.3 1.4-42.6-5.7-14.3-10.6 7.8-15.1 15.3-3.2 5.4-14.7 21.4-14.7 5.8-.1-11 19.3-31.2 25.1-40.2 24-37.5 6.2 35.1 14.4 42.2 3.5-6.6 22.7-45.6 32-42.3 3.9 1.4-2.6-.9 0 0zM289.2 649.9c29-1.6 9.2 39.8-12.5 41-34 1.8-11.7-39.6 12.5-41m-3.2 10.4c-8.1 2-27 18.1-11.3 20.8 12.7 2.1 26.5-24.6 11.3-20.8-7.4 1.9 1.7-.4 0 0z"/><g fill="#C12C7F"><path d="M441.7 731.4l-19.8-18.9c-6.1 4.4-6.9 13-4.5 19.6 1.3 3.7 3.6 6.6 6.4 9.2 2.4 2.3 11.6 6.1 12.7 8.1 8.7 15.8-18.7-2-20.7-1.9-1.8 7.6 3.5 15.4 1.1 22.8-2.9 8.9-7.1 6.2-14.7 8.6-10.9 3.5-20.3 15.7-28-2-4.2-9.5-3-39 13.4-26.6 4.4 3.3 20.7 31.8 21.2 10.2.2-8.7-5.6-7.8-8.1-13.5-2.5-5.8 1.9-10.4.5-16.9-1.2-5.7-9.3-11.4-5.2-17.9 5.3-8.2 4.5 3.3 6.8 4.4 13 5.7 10.4-17.9 24.5-12.6 8 3 4.7 5.3 11.9 1.9 6.7-3.1 6.2-8.4 15.4-.4 3.7-6.3-5.8-21.7 3.3-25.5 8.4-3.5 13 17.5 20.4 3.4 4.8-9.1-8.7-20.4 1.2-28.2 10.2-8 19.1 5.2 19.6 14.1.3 5.5-11 24.8-.1 23.6 6.6-.7 6.4-21.8 13.1-13.2 6.5 8.4-4.2 20.3-12.2 21.3-8.6 1.1-18.3-11.9-25.6-7 3.9 4 7.8 8 11.8 12-4.3 10.2-18.3-10.1-24.3-8.4 1.9 4.2 9.4 15.6 7.6 20.4-3.7 9.9-10.2.4-15.2-1.3-8.1-2.7-8-3-6.2 5.7.7 4.1 5 19.7-6.3 9m-55.1 47.3c9.7-1.3-1.7-19-4.6-21.1-2 3.2-2.9 22.1 4.6 21.1m99.3-117.1c-1.8 5.3-1.9 11.2-.1 16.4 6.3-2.7 6.4-13.5.1-16.4zM541.1 627.5c-2.4-3.3-5.3-8.5-9.4-9.7-4.6-1.4-5.8 1.8-10.9 3.9-2.9-7.6 4.1-13.9.4-22.1-.6-1.4-14.9-19.8-2.3-17.1 8.2 1.7 3.5 16.8 16.1 7.5 3.2-2.3 8.9-22.4 16.9-13.1-5.9 6.4-14.4 16.8-14.3 25.9.2 10.2 11.6 21.8 17.9 29.3 3 3.6 16.6 15.6 4.1 16.6-6.7.5-15.6-17.3-18.5-21.2-3.1-4.4 3.5 4.9 0 0zM378.8 793.2c3.2 6.9.6 15.6-5.7 19.7-9 5.9-16.4 0-24.1-4.6-1.8-1.1-9-3.5-9.7-5.3-2.1-5.3 1.2-2.2 1.4-6.2.1-2.3.9-5.5.8-8.8-.1-5.4-2.8-9.7-.7-15.3 2.3-6 9.5-11.9 16-8.1 7.7 4.4 4.1 14.7 2.4 21.1-1.8 6.9-5.6 19.3 4.8 21.5 10.9 2.4 6.6-13 14.8-14m-31-11.8c-.5 2.5.3 4.6 2.3 6.3 4.2-3.4 4.6-10.4.8-14.2-3.3 1.2-3.7 5.5-3.1 7.9zM513.7 670.7c-3.2-3.7-10-10.2-10.5-15.3-.6-5.7 2.8-4.9 4-9.1 1-3.6-.8-13.7 4.3-15.2 6.4-1.8 10.5 7.9 13.6 11.9 4 5.1 7 8.4 12.3 12.1 2.8 1.9 11.2.8 7.8 7.4-6.6 12.9-20.6-10.1-27.6-11.1-3.5 7 7.7 11.4 7 17.9-.7 7-6.8 6-10.9 1.4-3.2-3.7 2.3 2.5 0 0zM309.3 819.5c4.5 5.2 13.6 12.4 16.1 18.7 5.7 3.5 5.3 6.6-1.1 9.4-3.6-2.6-7-5.6-10.2-8.7-3.3-3.3-10.3-16.5-14.7-17.1-5.7-.8-6.6 7.6-10.6 9.7-7-3.8 1.3-13.9.7-19-.7-5.4-7.2-8.2-8.2-13.4-3.1-17 15.3 8.2 20.1-2.9 4.8 7.8.7 14.9 7.9 23.3 6.7 7.8-3-3.5 0 0zM322.9 780.9c6.6 5.3 3.9 14.8 5.4 21.9.7 3.3 1.2 6 2.9 9 1.4 2.3 7.5 6.4 8.1 8 2 5.9-1.1 7.4-7.1 6.2-7.1-1.4-17.6-15.7-22.2-21.1 11.4 3.1 8.8-19.9 12.9-24 6.8 5.4-3.6 3.5 0 0z"/></g></svg>