<svg xmlns="http://www.w3.org/2000/svg" viewBox="0 0 1000 764.3" enable-background="new 0 0 1000 764.3"><path fill="#29A3C5" d="M82.3 752c-8.6 2.9-18.6 5.7-26.2.8 10.5-9.1 23.9-13.7 37.1-18.1 285-95.2 577.8-167.4 874.5-215.6 13.6-2.2 15.1-21.1 13.1-34.7-14.9-103.9-25.7-208.4-32.4-313.2-.4-6.7 7.3-16.1 10-9.9 11.6 117.6 23.2 235.3 34.7 352.9.5 5.6-.3 13.1-5.8 14-307.2 49.3-610.2 124.2-905 223.8zM52.1 419.1c-3 2.8-7.4 5.5-10.8 3.3-4.6-3-1.3-10.1 2.3-14.2 9.1-10.5 18.2-21.1 27.2-31.6-12.9 1.5-26.3 3.4-37.5 10s-20 19.2-18.1 32.1C30.4 525.3 45.7 632 60.9 738.6c-36.7-107.3-45.2-222-53.4-335.1-.8-11.6 1.7-27.4 13.3-28.3 63-4.8 112-54.1 157.2-98.3 64.4-62.9 133-121.5 205.4-175 11.2-8.3 23.8-20.5 19.2-33.6-6.6-18.8-3.6-42.6 12.5-54.4 16.1-11.8 44.7-2.5 45.7 17.4 1 21.3 25.4 32.2 45.8 38.3 101.9 30.5 203.8 61 305.7 91.6 18.9 5.7 38.7 11.4 58.1 7.8 6-1.1 13.2-2.7 17.3 1.8 4.1 4.5-5.6 12.7-7 6.7 1.5 8.5 12.9 9.6 21.5 10.9 8.5 1.3 18.3 11.1 11.8 16.8-18-.6-34-11.3-51.4-15.7-19.8-5.1-40.7-2-60.9 1.2-223.3 36.3-441.5 98.7-659 161-17 4.9-34.5 10-48.5 20.8-16.8 12.7-26.9 32.3-42.1 46.6m617.6-286.2c-66.5-18.1-132-39.8-196.2-65-6.9-2.7-14.3-5.5-21.4-3.7-4.7 1.2-8.6 4.3-12.4 7.2-108.9 85.6-214 176.2-314.8 271.2 9.9-2.4 19.7-5.1 29.6-7.8 219.6-59.6 438.3-126.8 663.8-158-48.1-18.9-98.7-30.4-148.6-43.9M436.5 56.4c5-4.2 9.6-9.2 11.6-15.5 2-6.2.5-13.9-4.8-17.7-5.1-3.6-12.4-2.8-17.6.5s-8.9 8.7-11.9 14.2c-4 7.3-6.6 17.5-.4 22.9 6.6 5.7 16.6 1.1 23.1-4.4zM712.1 420.6c-9.7 0-17.3 9.3-18.8 18.9-1.5 9.6 1.5 19.2 4.5 28.4 1.1 3.4 2.4 7 5.5 8.8 3.3 1.9 7.4 1.1 11 .2 19.9-4.9 39.9-9.9 59.8-14.8 10-2.5 21.4-4.7 30 .9 12.4 8.2 10.3 28.4-.3 38.8-10.6 10.4-26.1 13.6-40.6 16.3-29.9 5.6-59.9 11.1-89.8 16.7-2.5.5-5.4.9-7.5-.6-2.3-1.5-2.9-4.5-3.3-7.2-12.8-79.4-25.7-158.8-38.5-238.3-.5-3-.9-6.3.8-8.8 1.6-2.4 4.6-3.3 7.4-4.1 36.2-10.1 72.5-20.2 108.7-30.3 2.8-.8 5.7-1.5 8.4-.6 4.7 1.6 6.4 7.4 7.3 12.3l5.4 28.8c2.6 13.9-12.5 24.8-26.4 27.4-13.9 2.6-29.1 1.1-41.2 8.3-16.7 9.9-20.2 36.2-6.8 50.1 1.8 1.9 4 3.7 6.6 4.2 7.1 1.6 14-5.8 21.1-4.2 6.5 1.5 8.8 9.3 10.1 15.8 1.3 6.7 2.6 13.7.9 20.3-1.9 6.6-7.5 12.7-14.3 12.7M500.8 317.7c8.6-10.9 19.5-20.6 32.8-24.9 13.2-4.3 29-2.5 39.2 7 10.1 9.5 12.4 27.3 3 37.6-8.5 9.3-22.6 10.2-34 15.5-11.4 5.3-19.9 22.3-9.8 29.7 17.2 12.5 40.8 11.2 60.3 19.8 36.6 16.2 48.9 66.6 32 102.9-16.9 36.3-55.3 58.6-94.4 67-5.7 1.2-12.3 2-17-1.5-3.7-2.9-5.2-7.7-6.4-12.3-3.6-13.4-4-32.6 9.5-35.9 12-2.9 24.3-6 34.8-12.7 10.4-6.7 18.8-17.9 18.7-30.3-.1-18.5-17.8-31.7-34.9-38.9-17-7.2-36.3-12.2-47.9-26.6-13-16.1-12.3-39.6-5.8-59.3 4.4-13.4 11.2-26 19.9-37.1M65.6 542.9c13.6-66 47.8-133.7 109.6-160.5 1.8-.8 3.8-1.6 5.8-1.1 3.7.8 5.1 5.3 5.8 9 2.1 11 4.2 21.9 6.3 32.9.6 3 .8 6.7-1.8 8.3-19.7 12-39.2 25.8-51.2 45.5s-15 46.5-1.7 65.3c13.3 18.8 45.1 23.3 59.4 5.3 3.2-4 10-3.1 13.7.5 3.7 3.6 5 8.9 6.1 13.9 3.2 13.6 6.3 27.1 9.5 40.7.8 3.6 1.7 7.3.9 10.9-1.5 6.9-8.2 11.2-14.4 14.6-20.4 11.5-41.2 22.9-64.2 27.4-22.9 4.5-48.6.9-65.9-14.8-25.7-23.3-24.9-63.8-17.9-97.9M350.2 591c-1.1 5-7 7-12 8.2-22.2 5.1-44.3 10.3-66.5 15.4-5.6 1.3-12.5 2.2-16.2-2.1-1.9-2.2-2.5-5.1-3-8-12.6-70.9-25.3-141.8-37.9-212.8-.9-4.8-1.6-10.3 1.4-14.2 2-2.6 5.2-3.9 8.2-5.1 6.7-2.7 13.4-5.3 20.1-8 4.5-1.8 9.9-3.4 13.7-.5 2.8 2.2 3.5 6 4 9.4 8.1 53.8 16.2 107.7 24.3 161.5 1 6.4 9.4 8.9 15.6 7.1 6.3-1.8 11.5-6.2 17.6-8.2 6.2-2.1 14.6-.5 16.5 5.7 4.5 14.8 8.9 29.7 13.4 44.5.7 2.5 1.3 4.9.8 7.1"/><path fill="#29A3C5" d="M473.8 440.7c-2.2-27.3-7.2-55.8-24.4-77-17.3-21.2-50.6-31.5-72.8-15.7-9.5 6.8-15.7 17.2-20.8 27.7-23.3 48.5-26.3 106.5-8.2 157.1 5 13.9 11.7 27.6 22.1 38 10.4 10.5 25 17.5 39.8 16.2 15.7-1.4 29.4-12 39.1-24.4 26-33.5 28.6-79.5 25.2-121.9zm-41.3 51.6c-2.4 7.6-6.3 14.7-11.4 20.7-3.4 4-7.5 7.7-12.5 9.2-5 1.5-11.1.4-14.3-3.7-10.1-13-14-29.9-13.8-46.3.2-16.4 4.3-32.5 8.8-48.3 1-3.5 2.1-7.1 4.6-9.6 4.6-4.6 12.5-4.3 18-.8s9 9.4 11.9 15.2c10 19.6 15.3 42.7 8.7 63.6zM946.9 336c-3-16.2-7.4-32.3-15.5-46.7-22.6-40.5-74.7-61.9-119.2-48.9-4.4 1.3-9.1 3.1-11.5 7.1-2.5 4.1-1.9 9.3-1.3 14 10.1 70.7 20.1 141.4 30.2 212.1.7 5.2 1.9 11.1 6.4 13.8 3.2 1.9 7.3 1.6 11 1.1 54.1-7.9 99.4-56.9 102.9-111.6 1-13.7-.5-27.4-3-40.9zm-60.8 50.3c-2.7 4-8.7 6.2-12.6 3.3-2.7-2-3.5-5.7-4.1-9.1-1.3-7.4-2.6-14.7-3.9-22.1-2.6-14.6-5.2-29.1-7.8-43.7-.9-5.2-1.2-11.7 3.4-14.2 20.2 17.1 27.7 45.2 27.9 71.7 0 4.9-.2 10-2.9 14.1z"/></svg>