<svg xmlns="http://www.w3.org/2000/svg" viewBox="0 194 1000 613" enable-background="new 0 194 1000 613"><path fill="#29A3C5" d="M902.6 276c9.8 6.3-20.3 26.2-23.9 29.5-5 4.7-23.9 32.8-31.4 29.6-10.8-4.6 41.1-68.3 55.3-59.1 2.3 1.4-2.6-1.7 0 0zm15.3 221.8c15.7 4 31.6 5.8 47.6 5.8 10.8 0 32.9 5 12.1 12.7-11.6 4.3-42.4-.7-53.5-4.5-5.2-1.9-19.9-11.6-6.2-14zm53.9-133.2c5.2 10.1-26 14.1-32.1 16.7-4.3 1.9-33.5 21.4-37.7 12.9-7-13.8 64.2-40.7 69.8-29.6zM766 288.5c-11.1-4.5 14.5-75.8 24.9-77.1 15.7-1.9-3 28.9-5.5 34.8-3.9 9.5-9.6 38-19.4 42.3-4.7-2 2.6-1.1 0 0zm-69-87.9c9.1 1.3 1.4 33.8.7 40.7-.6 4.9-1.3 43.9-9.3 41.7-12.3-3.3 2.1-83.2 8.6-82.4 3.7.6-4.1-.5 0 0zm-70.2 105c-6.9 5.2-14.5-31.1-16-36.2-1.9-6.5-15.2-36.5-6.5-41.9 8.2-4.9 13.8 31.1 14.8 35.1 2.5 9.4 15 34.5 7.7 43-3 2.3 2.7-3.3 0 0zM993 766.3c0-.2 0-.2 0 0-1-46-6.6-111.3-41.1-143.8-14-13.2-32.1-23-51.5-24.4-22-1.6-32.6-5.6-36.8-29.6-3.7-21.9-7.3-34.2-21.9-51.1-9.6-11.2-17.4-20.3-16.8-35.8 1.6-35.5-.3-65.7-21.9-96.1-20.1-28.5-51.2-46.7-86-49.9-39.4-3.7-68.3 11.4-99.1 33.5-18.1 12.9-28.3-2.4-39.3-16.5-9.9-12.8-22.1-22.9-36.8-30.1-31.9-15.5-69.2-15.2-101.8-2.4-78 30.5-114.1 113-139.5 186.8-35.2-33.4-90.3-48.6-135.9-28.2-20.6 9.2-38.4 25.2-49.5 44.9-10.5 18.6-7.2 40.7-17 58.2-8.9 16.4-28 25.2-42.3 35.8-16.3 12.1-27.9 27-35.8 45.7-9.9 23.4-12.5 49-12.4 74.2.1 16-5 56.7 14.8 62.6 11.9 3.6 29.3.1 41.9 0 13.4 0 26.8-.1 40.1-.1 28-.1 56.1-.3 84.1-.4l168.3-.9c112.2-.6 224.4-1.2 336.5-1.7l168.3-.9c28-.1 56.1-.3 84.1-.4 8.5 0 37.7 4.6 44-.3 4.4-3.7 5.4-23.1 3.3-29.1zM650.8 358.1c44.3-21.3 99.2-13.1 133.3 23 16.5 17.5 27.8 40.3 31.4 64 1.6 10.8 3 25-1 35.4-5.6 14.1-13.4 10.5-26.5 8.8-27-3.6-54.9-1.7-81.3 5.2-14.4 3.7-28.2 9.1-41.4 15.7-9.8 4.9-21.1 15.8-25.5-.9v.1-.1c-8.6-32.5-18-65-26-97.7-6.7-26.6 14.6-42.8 37-53.5zm-325.9 118c6.8-17.5 14.1-34.9 22.9-51.5 18-33.9 42.3-64.9 76.1-84 61.3-34.7 128.3-16.1 165 43.3 19.1 30.9 27.5 66.7 33.8 102 1.9 10.2 2 47.5 13.5 52.8 9.9 4.6 31.6-14 40.8-18.6 56.5-28.3 139.7-36.1 172.2 31.8 7.6 16 2.9 28.8 5.9 44.7 3.3 17.5 21.7 14.5 35.2 14.7 31.5.3 61.8 18.3 74.9 47.5 11.6 25.9 8.8 69 20.6 98.1 1 2.6.1 5.5-1.9 7.3-14.8 13.4-44.2 21-61.8 21-30.8.1-61.4.1-92.2.3-64.1.1-128.3.3-192.4.4l-346.3.9c-56.4.1-112.8.3-169.1.4-27.9 0-57.8 3.5-85.4.1-23.6-2.9-19-28.8-18.6-46.9.9-37.8 7.3-80.8 37-107.6 13.8-12.5 33.4-18.4 45.7-32.4 11.9-13.4 8.6-31.2 13.7-47.5 26.2-82.8 142.1-99 186.7-22.3l23.7-54.5z"/></svg>