<svg xmlns="http://www.w3.org/2000/svg" viewBox="0 0 663 455.5" enable-background="new 0 0 663 455.5"><desc xmlns:shape="http://adobe.com/products/shape"><shape:version>1.0.2</shape:version><shape:captureDetail>0.750000</shape:captureDetail><shape:source>1</shape:source></desc><path fill="#2BC22B" d="M116.7 406.9c-3.8-13.7-6.6-28.2-3.6-42.1.3-1.4.8-2.9 2-3.6 1.2-.7 3.2.1 3 1.5-4.8 26 6 52.2 17.4 76 1.6 3.4 4.8 7.4 8.2 5.8-1.2 2.3-.1 6.2-2.6 7.1-1.6.6-3.2-.8-4.3-2.1-10.2-12-15.9-27.3-20.1-42.6zM518.9 312.9c-3.7-2.7 1-8.1 5-10.1 32.8-16.4 62.4-39.4 86.5-67.1 26.6-30.6 47-70.1 41.8-110.3-6.4-49.1-50.4-86.6-97.8-100.7-47.5-14.1-98.2-9.6-147.5-4.9 29.7 13 59.8 30.5 74.4 59.4 11.8 23.4 11.5 51.7 3.4 76.7s-23.4 47-40.7 66.8c-33.8 38.8-75.9 70.3-122.6 91.9 46.3 10.7 94.8 11.8 141.5 3-2.5 22.3-9.5 44.2-20.3 63.8 22.4-17.8 43.1-37.9 61.4-59.8-15.5 30.4-40.3 56-70.2 72.5 8.1-23.2 16.1-46.5 24.2-69.7-41.5 8.4-84.7 8.4-126.1-.2-6.7-1.4-13.5-3-20.3-2.5-7.7.5-15 3.7-22.1 6.6-41.8 17.5-85.3 30.9-129.6 40.2-11.6 2.4-14.3 17.6-14.5 29.5l-.6 47.1c-6.7-21.8-7.4-45.4-2-67.5 1.5-6.1 4.4-13 10.5-14.3 48.4-10.3 95.8-25.2 141.4-44.5-37.6-10.4-76-21.1-108.2-43.1S128.7 218 129.4 179c.8-46.1 36.9-84.2 76.1-108.3 44.8-27.5 96-43.1 147.6-53.6C286 5.8 215.7 14.8 153.6 42.4c-36.2 16.1-70 38.6-95.8 68.7-25.8 30.1-43.3 68-45.6 107.5-1.7 29.5 5.6 60.3 24.6 83 10.3 12.3 23.6 21.7 36.7 31 13.2 9.3 26.4 18.7 39.6 28-11.6-.9-22.1-6.9-31.9-13.2-14.4-9.2-28.5-19.4-40-32.1-37.7-41.4-42.3-106.4-20-157.8S88.8 67.3 139.1 42.4C200.9 11.8 271.8 0 340.1 8.8 395 15.9 450.8 6.5 506 10.5s114.6 26 139.6 75.3c21.7 42.9 11.2 96.9-16 136.6-27.1 39.7-68.5 67.4-110.7 90.5M195.5 85.2c-17 11.9-32.8 25.8-44.3 43s-18.6 37.9-17.1 58.5c2.1 29.5 21.3 55.5 44.4 74 33.8 27.1 76 41.5 118.4 50.5 5.2 1.1 10.9 2.1 15.8-.1 50-22.3 94.9-55.9 130.3-97.6 14.9-17.5 28.3-36.7 35.9-58.4 7.6-21.7 8.9-46.2.1-67.4-11.9-28.5-40-47-68.6-58.7-10.1-4.1-20.6-7.7-31.5-8.3-10-.6-20 1.3-29.9 3.3-54.3 11.5-108.1 29.3-153.5 61.2zM239.4 198.1c-2.8 13-5.7 26-8.5 38.9-.3 1.3-.5 2.8.3 3.8 1.4 1.7 4.2.4 6-.8 6.8-4.9 14.1-9 21.8-12.3 1.3-.5 2.8-1.1 4-.3 1.3.8 1.4 2.7.6 4-.8 1.3-2.1 2.1-3.4 2.8-10.3 5.9-20.7 11.8-31 17.7-1.8 1-4.5 1.9-5.6.2-.6-.9-.4-2.1-.2-3.2 3.6-17 7.1-34 10.7-51-7.1-2.5-13.8 4.1-20.7 7.3-.9.4-1.8.7-2.8.5-1.6-.5-2.1-2.7-1.4-4.2.7-1.5 2.2-2.5 3.6-3.3 5.8-3.4 12-6.3 18.4-8.5 2.2-.8 4.8-1.4 6.8-.1 2.5 1.6 2.1 5.4 1.4 8.5zM285.1 149.6c-2.8-3.1-5.5-6.2-8.3-9.3-2.4 5.8-5.8 11.1-10 15.8-7-4.8-9.6-13.7-11.5-22-1.8-8-3.5-15.9-5.1-23.9-.6-3.1-.7-7.2 2.2-8.5 3.4 3.2 3.4 8.4 4.2 13 .8 4.6 4.1 9.8 8.7 9.1 2.1-.3 4 1.2 5.4 2.7 1.4 1.6 2.9 3.3 4.9 3.8s4.6-1.5 3.8-3.4c-1.6-3.8 1.3-8.6 5.4-9.6s8.4 1.1 10.9 4.5c2.4 3.4 3.2 7.7 3 11.9-.3 6.1-2.6 12.3-7.3 16.3-1.2 1-2.7 1.9-4.2 1.5-.8-.4-1.5-1.2-2.1-1.9m8.1-18.8c-.5-2.1-1.4-4.4-3.3-5.3-2.9-1.3-6.2 1.4-6.9 4.5-.6 3.1.6 6.2 1.8 9.1 1.1 2.7 5.5 2.6 7.3.3s1.7-5.7 1.1-8.6m-31.9 2.1c-.9 1.7-.5 3.7.3 5.5 1.2 2.7 3.2 5.1 5.7 6.7 2.4-3 4.2-6.9 2.9-10.5-1.3-3.6-7.1-5-8.9-1.7zM320.3 174.6c2.7 9.6 4.8 19.4 6.2 29.2.2 1.5.4 3.1-.3 4.5s-2.5 2.3-3.8 1.4c-2-9.2-4-18.4-5.9-27.6-.8-3.7-3.3-8.4-6.8-7.1-1.3.5-2.2 1.7-2.8 2.9-5.4 9.6-4.6 21.5-1.5 32.1.6 2.1.8 5.2-1.3 5.6-1.9.4-3.2-1.9-3.7-3.8-3.4-11.4-6.8-22.7-10.3-34.1-.6-2.1-.4-5.4 1.8-5.3 1 2.1 2.1 4.4 4.2 5.5 2 1.2 5.2.6 5.9-1.7.8-2.8 1.7-5.7 3.5-8s4.7-4 7.6-3.4c4.1 1.1 6.1 5.8 7.2 9.8zM353.8 156c4.6.3 8.2 4.6 8.9 9.1.7 4.5-.9 9.1-3.4 13-2.8 4.3-6.6 7.9-11 10.4-2.4 1.4-2.5 5.3-.5 7.3s5.2 2.3 7.8 1.5c2.7-.8 4.9-2.6 7.1-4.3.9-.7 2.3 0 2.7 1 .4 1 .1 2.2-.4 3.2-3.1 6.8-12.7 9.8-19.1 5.8-3.4-2.1-5.7-5.6-7.9-9-1.3-2.1-2.7-4.3-4-6.4-.5-.8-1-1.6-1-2.5 0-.8.3-1.5.6-2.3 2-4.6 4.1-9.2 6.1-13.8 2.9-6.2 7.3-13.5 14.1-13m1.5 8.6c-2-1.4-4.8 0-6.6 1.7-2.7 2.6-4.6 5.9-5.5 9.5-.5 2-.3 4.7 1.6 5.5 1.6.6 3.3-.5 4.6-1.6 2.3-2.1 4.2-4.5 5.8-7.1 1.6-2.6 2.5-6.4.1-8zM285.8 219.3c-3 4.7-10.4 5-14.8 1.6-4.5-3.4-6.4-9.2-6.9-14.8-.5-5.2.1-10.5 1.7-15.5.9-2.8 2.2-5.5 4.3-7.5 2.2-2 5.4-3 8.1-1.8 1.1.5 2.1 1.2 2.9 2 9.6 9 11.7 25 4.7 36M272.5 192c-5 6.7-3.9 17.2 2.4 22.6.7.6 1.5 1.2 2.4 1.2.9 0 1.7-.5 2.3-1 6.9-5.4 7.3-17.3.7-23.1-1.5-1.3-3.6-2.4-5.5-1.7-1 .4-1.7 1.2-2.3 2zM382.2 160.7c-.7 3.3 2.7 6 5.9 7.3 6.4 2.6 14.5 3.9 17.3 10.2 1.6 3.8.7 8.3-1.6 11.7s-5.5 6-8.9 8.5c-2.1 1.6-5.6 2.9-7 .7-1-2.8 1.5-5.6 4.1-7.1 2.6-1.5 5.6-2.8 6.8-5.5 2-4.8-3.3-9.5-8.3-10.9s-10.9-1.8-14-6c-2.8-3.7-2-9.2.6-13.1 2.6-3.9 6.7-6.5 10.6-9 .7-.4 1.4-.9 2.1-.9 2.3-.2 3.5 3.1 2.4 5.1-1.1 2-3.4 3.1-5.4 4.1-2 1.1-4.1 2.6-4.6 4.9zM451.9 120.4c.7 4.5 1.5 8.9 2.1 13.4-4.6-1-6.8-6.2-7.6-10.8-.8-4.6-1.1-9.7-4.4-13-3.7 4.5-5.8 10.3-5.9 16.2 0 1.9-2.8 2.7-4.4 1.6-1.6-1.1-2.1-3.1-2.5-4.9-1.3-6.4-1.9-13-1.7-19.6.1-1.3.4-3 1.7-3.4 1.7-.4 2.8 1.9 3.1 3.6s1.8 4 3.4 3.2c3-5.2 7-9.8 11.7-13.5 1.5 9.1 3 18.1 4.5 27.2zM167.6 148.7c-3.7-1.2-7.9.8-10.2 4-2.3 3.2-3 7.2-3.2 11.1-.4 7.4 1.3 15.4 6.7 20.3 1.8 1.6 4.1 2.9 6.5 2.5 2.2-.4 4.2-2.2 6.4-1.6 1.5 5.4-5.2 10.2-10.7 8.9s-9-6.6-11-11.8c-3.9-10.1-3.9-21.6-.1-31.7 1.6-4.1 4.2-8.3 8.5-9.3s9.3 3.8 7.1 7.6zM232.3 162.3c-2.7-2.9-3-7.5-1.4-11.1 1.6-3.6 4.7-6.4 8.2-8.2 2.4-1.2.9-5.4-1.8-5.9s-5.2 1.3-7.1 3.1c-1.6 1.5-3.7-1.6-3.2-3.8 1.3-5.6 8.7-8.8 13.7-5.8 1.9 1.2 3.3 2.9 4.6 4.8 2.9 4.1 5.3 8.8 5.8 13.8s-1 10.5-5 13.6c-4 3.1-10.4 3.2-13.8-.5m12-11.6l-3-1.8c-2.6.6-4.8 2.7-5.5 5.2.9 2.5 4 3.8 6.4 2.8s3.7-4.2 2.6-6.5l-.5.3zM395.2 118.2c.3-2.4.6-4.9 1.3-7.3 1.7-5.7 6.9-11.3 12.7-9.9 5.8 1.4 8 8.5 7.8 14.4-.2 5.4-1.6 11.1-5.6 14.6-4 3.6-11.1 4-14.4-.2-2.5-3.1-2.3-7.6-1.8-11.6m11.1 6.1c3.6-2 6.7-5.7 6.1-9.7-.6-4-6.6-6.5-9-3.2-1.8 2.5-3.6 5.3-3.4 8.4.1 3 3.5 6 6.3 4.5zM341.4 135.4c-2.3 5.8-9.6 9.4-15.2 6.7s-6.7-12-1.3-15.2c2.3-1.3 5.2-1.5 7.2-3.2 2-1.7 1.4-6.2-1.2-5.7-3 .5-4.8-4.1-2.8-6.3s5.9-1.8 8.2.1 3.5 4.9 4.4 7.8c1.6 5.1 2.8 10.8.7 15.8m-11.5-4c-.7.9-1.4 1.9-2.1 2.8 1.4 1.7 4.5 2.1 5.7.3s-2-4.6-3.3-2.8l-.3-.3zM192.2 160.3c3.8 5.5 3.4 13.5-.8 18.7-2.7 3.3-8.5 1.7-10.7-1.9-2.2-3.6-2-8.2-1.6-12.4.2-2.9.7-6.2 3.1-7.8 3.2-2.3 7.8.1 10 3.4m-3.9 4.3c-1.6.1-3.1.7-4.2 1.8-1.4 2.3 1.3 5.8 3.9 4.9 2.6-.8 2.7-5.3.1-6.2l.2-.5zM352.4 109.5c2.3-3.9 1-8.7.3-13.2-.7-4.4-.1-10 4-11.9 1.2 2.7 1 5.7 1.1 8.6 0 2.9.3 6 2 8.4 1.8 2.3 5.5 3.4 7.7 1.4 1.5-1.4 4.2.6 4.1 2.7s-2.1 3.6-4 4.4-4 1.4-5.6 2.8c-3.3 3-2.7 8.3-1.9 12.7.8 4.4 1.1 9.8-2.5 12.4-3.1-1.9-2.9-6.3-2.6-9.9.2-3.6-.6-8.2-4.1-9-1.8-.4-2.3-3-1.6-4.7.7-1.8 2.2-3.1 3.1-4.7zM221.4 173.7c-2.3.3-3.7-2.5-4.3-4.8-4-14.3-7.5-28.7-10.4-43.2-.5-2.7-.5-6.3 2-7.1 2.4 3.5 3.4 7.8 4.4 11.9l7.5 31.2c.9 3.9 1.8 8.1.8 12zM305.6 126.6c-.6-2.9-1.2-5.9-.6-8.9.9-4.1 4-7.3 7-10.3 1.7-1.7 3.8-3.6 6.2-3.4 2.4.2 4.1 3.9 2 5.1-5.9 3.2-9.7 10-9.1 16.7.6 7 5.2 14.8.9 20.3-3.5-5.7-5-12.7-6.4-19.5zM204.8 173.9c-5.3-14.9-9.8-30-13.5-45.3-.5-2-.3-5 1.7-5.2 1.6-.1 2.6 1.8 3 3.4l13.8 48.6c.4 1.3-1.5 2.3-2.8 1.7s-1.8-1.9-2.2-3.2zM379.8 128.9c-.5-7.7-1.1-15.4-1.6-23.1-.1-1.4-.2-2.9.5-4.2.6-1.2 1.9-2.1 3.2-2.2 2.8 11.6 3.3 23.7 1.6 35.4-2.6 0-3.5-3.3-3.7-5.9z"/></svg>