<svg xmlns="http://www.w3.org/2000/svg" viewBox="0 0 1000 843.7" enable-background="new 0 0 1000 843.7"><g fill="#2BC22B"><path d="M264.2 188.1c8.6 6.2-8.2 6.6-10.7 5.8-4.2-1.4-8.8-6.5-10.7-10.1-5.7-10.6-1.3-25.4 9.8-30.5 4.4 4.1-1.9 12-1.5 16.8.8 8.2 6.6 13.3 13.1 18 2.5 1.8-7.2-5.1 0 0zM283 647.4c-4.5-18.7-8-37.6-10.4-56.7-1.1-8.6-.6-45.3-9.3-41.3-9.3 4.2-10.1 32.5-11.1 41.1-1.7 13.5 1.3 36.6-8.2 47.6-21.4-9.6-8.4-59.1-20.4-75.1-9-11.9-10.5 7.7-11.1 15.8-.9 13.9 3.1 39.8-3.1 51.9-7.6 14.7-11.4-1.5-11.3-10.9.2-15 2.3-30.3 3.5-45.3.9-11.4-.7-76.5 12.4-76.5 18.4-.1 14.1 58.4 22.9 69.2 9.5 11.6 12.5-16.4 14-23.9 1.5-7.9 3.1-42.9 10.8-47 17.3-9.3 20.1 56.5 21.3 65.1 1.2 9.6 18.1 90.6 0 86M324.4 560.9c-.2 18.9 4.1 44.6-.8 62.8-3.6 13.5-11 13-14.1-1.1-4.3-19.2 1.5-45.9 2.2-65.6.6-16.3-3.7-42.4 2.4-57.4 17.7-43.4 37.1 68.8 37.7 68.9 16.6 3.1 6.3-83.7 24.3-88.6 15.2-4.1 21.4 87.1 22 103.1 1 27.1-12.2 12.6-13.9-5.3-1-10.3 2.4-42.4-5.6-49.1-10.5-8.7-8.9 31.7-9.3 38.1-.5 8.6 1.9 57.5-8.6 57.5-12.3 0-16.4-34.6-18.7-42.6-1-3.5-6.2-30.5-9-31.2-7-2.2-8.5 5.1-8.6 10.5"/><path d="M150.6 486.5c46.7-4.9 46.8 124.7 5.2 137.1-47.3 14.2-52.3-132.1-5.2-137.1m1.7 119.9c24.9-7.8 24.8-99.4.7-101.2-31.4-2.4-25.2 108.9-.7 101.2 2.7-.8-7.3 2.3 0 0zM757.6 579.3c5.9 1.3 50 1.9 26.4 16.7-6.8 4.3-15.3-.5-22.5 2.1-10.6 3.8-9.4 11.2-9.5 21.4-.2 23.5-.4 47-.7 70.5-.1 5.6 1.3 52.8-13.2 34.4-4.9-6.2-2-22.3-2.1-29.7-.1-11.5-.1-23.1 0-34.6.2-17 8.2-52.1-2.6-65.6-5.4-6.8-35.9-12.3-30.2-25.6 3.1-6.9 45.9 8.5 54.4 10.4 4.8 1-5.1-1.1 0 0zM835.3 613.5c4.9-7.8 22.8-47.2 33.4-39.5 11.5 8.3-14.5 38.7-18.8 47.1-8.8 17.2-6.6 35.9-6.6 54.8 0 19.5 6.3 52.5-3.3 70.5-16.6-4.1-11.9-41.9-12-53.8-.2-21.2 6.7-44.1-5-62.7-5.1-8.1-30.6-41.6-17.2-50.1 12.6-8.2 20.1 29 29.5 33.7 7.5-12.1-9.9-5 0 0zM673.4 688.3c-16.8-6.5-7.6-50.1-7.6-63.4 0-12.1-9-68.9 4-73.4 16.4-5.7 10.1 49.9 10 58.5.1 11.7 7.6 74.5-6.4 78.3-8.1-3.1 5.3-1.5 0 0zM536.1 587.3c-18.9-9.5-9.6-61.6-9.6-78.4 0-8.4-4-29 1.7-36.2 8.2-10.3 13.4-.3 17.4 8 6.2 12.9 10.8 26.5 16.6 39.6 3.8 8.6 7.2 16.7 11.5 4.1 2.6-7.5-8.5-69.3 7.9-67.9 13.3 1.1 6.4 63.8 6.3 72.6-.1 11.8 3.6 32.6-1.7 43.4-7.2 14.6-14.8-4.8-19.5-13-6.2-10.8-15.5-22.7-18.6-34.8-1.3-5.1-.3-25.3-10.1-15.1-3.5 3.6 1.8 32.8 2.1 38.4.5 11.8 4.3 29.4-4 39.3-8.5-4.3 5.3-6.3 0 0zM496.9 479.9c8.9 6.8 3.9 45.7 3.9 56.9.1 16 .2 41-15.4 51.1-42 27.2-41.5-80.6-39.7-99.1.6-6.3 1.7-19.5 10.8-11.7 6.4 5.5 2.5 20.9 2.6 28.1.3 17.3-1 44 6.8 59.7 12.3 25 21.2-15 21-26.7-.2-6.2-5-69.7 10-58.3 2.4 1.8-3.1-2.3 0 0zM793.8 467.8c6.2-5 13.5 6.9 5.3 9.4-7.3 2.4-6.7-7.4-5.3-9.4zM834.9 192c-16.4-3.7-35-8-45.8-22.1-11.2-14.6-5.2-32.3-8.5-49.2-4.2-21.3-19.8-75.2 18.3-78.2-17 18.4-19.9 48.4-6.7 69.7 7.1-6.5 15.6-11.5 24.8-14.4-1.9 6.5-7.3 12.8-8.6 19.1-5.9 4.4-5.4 7.8 1.7 10.3 1.9 1.6 3.7 3.2 5.6 4.8 11 9.8 20.9 20.7 29.5 32.6 7.6 10.6 18 24.4 20.6 37.4 3.4 16.9-7.9 29.9-18.4 41.8-7.6 8.5-21.1 25.7-32.3 29.5-2.8.9-9.5 3.6-11.9 0-3.5-5.5 3.7-5.8 7.4-9 21.2-18.1 38.5-34.9 46.8-62.7-31.6 25-64.1 51.6-85.6 86.2-7.3 11.9-20.8 33.8-19.2 48.3 1.1 9.9-2.3 5.1 6 8.8 3.7 1.7 10.1 1.6 14.3 1.8 12.4.5 24.8-2.2 37.1-3.6 41-4.4 85.4 6.8 109.2 43.1 9.5 14.5 14.4 31.3 13.7 48.7-.8 19.2-6.4 46.7 21.1 46.2 49.6-1 45.7 48.9 23.3 80.7-10.8 15.3-24.5 28.8-32.4 46.1-9.5 20.7-10 43.8-8.9 66.1 1.3 25.4 3.9 50.7 6.4 76 2.2 22.1 2.8 40.2-13.5 57.5-27.2 29-77.7 30.8-114.7 29.6-49.3-1.5-98.1-14.9-141.2-38.8-17.3-9.6-44.2-22.1-47.3-43.7-4-27.9.5-58.2-2.8-86.7-40.6 21.6-89.5 26-133.6 13.9-11-3-21.8-7.1-32.1-12.2-7-3.5-17.7-13.7-25.4-10-15.4 7.4-5 57.8-4.4 70.8 1.1 22.8.1 39-18.4 54.5-17.3 14.5-40.1 21.1-61.8 25.6-44.3 9.2-90.9 6.7-134.2-6.2-35.7-10.7-89.3-32.6-110.2-65.8-11.7-18.5-7.6-50.5-8.9-71.9-1.3-21.3 4.3-49.5-21-53-50.1-7-69.8-56.7-65.2-102.5 2-20.6 8.5-43.3 25.5-56.7 6.9-5.4 15.2-9.1 23.9-10.1 7.6-.9 23 7.6 28.4 5.3 15.8-6.5 6.2-58.9 6.5-72.9.6-25.5 5.8-50.3 22.4-70.3 29.7-35.7 79.1-47.5 119.6-66.2-37.3-21.6-48.1-77.5-23.3-112.3 14.7-20.6 40.3-29.8 54.9-50.5 11.9-16.8 12.4-58.8-18.8-53.6 15.3-12.4 37.2 3.5 41.5 19.5 6.4 23.5-14.3 44.8-30.4 58.5-32.3 27.2-65.1 57-40.5 102.2 26.4 48.6 80.4 26.8 124.1 27.4 43.7.7 84.4 32.2 93.6 75.5 32.6-11.9 69.1-26.4 86.6-58.6 9.2-16.9 16.3-32.9 29.8-47.1 10.1-10.6 31.9-21.7 14.5-37.1-13-11.5-32.8-7.1-45.9-20.7-10.5-11-15.2-27-15.3-41.9-.2-40.8 34.3-69.8 63.2-93.4-9.5 33.3-44.6 51.9-51.9 86.4-3.4 16-.1 31.9 13.9 41.6 13 8.9 30.2 8.6 43 18 38.6 28.6-29.8 65.4-41.7 89.8-19.6 40.2 50.5 24.9 66.8 26.3 34.1 2.8 62.3 28.7 68 62.3 2.3 13.4-7.6 35 5.8 41 12.6 5.7 42-8.2 52.3-15 13.8-9.2 20.2-21.1 21.9-37 2.1-19 6.4-33.2 18.2-48.7 21.8-28.5 56.4-46.8 70.6-80.8M105.4 401c.1 100.5-6.7 204 3.3 304.1 4.3 43.5 62 66 98.2 80.1 40.7 15.9 85.4 22.4 128.5 13.7 19.2-3.9 37.9-10.8 54.7-20.9 7.8-4.7 19.8-11.2 23.6-19.8 4.7-10.5.4-30.1 0-41.2-1.8-50.8-2.5-101.6-1.9-152.4.5-51-1.5-104.9 5.4-155.5 1.3-9.2 8.3-17.4 4.7-24.5-4.8-9.4-12.1-5.2-18 .2-7.2 6.7-9.4 14.3-14 22.5-3.2 5.7-.1 6.1-5.6 8.7-5.4 2.6-15.9 1.4-22.1 2.9-23.9 5.8-45.9 17.2-70.2 21.9-22.7 4.4-46.1 4.9-69 1.7s-45.3-10-66-20.4c-10.4-5.2-20.1-11.3-29.5-18-4.4-3.3-22.1-19.4-22.1-3.1m533.9 226c7.3 16.7-1.2 38.4-1.8 56.5-.7 19.6-3.2 45.3 2.8 64.3 9.8 31.1 59.9 47.8 87.5 57.1 36.8 12.3 76 17.4 114.7 14.6 33.1-2.5 83.3-8.8 86.2-50.7 3.1-44.6-3.1-91.9-4.6-136.7-1.5-45.6-3.1-91.1-4.6-136.7-.2-5.3 2.2-26-1.8-30.4-5.1-5.7-8.2-.7-14.2 2.1-18.3 8.5-35.7 17.1-55.2 22.7-35 10.1-71.9 13.3-108.1 9.7-19.8-2-39.5-6.1-58.5-12.3-10-3.3-19.5-8.5-29.5-11.6-10.1-3.2-11.1-4.7-14.9 4.2-3.8 8.9-.1 29.1-.1 38.9 0 13-.1 25.9-.1 38.9-.1 20.3-6.2 50.5 2.2 69.4m2.6-224.4c6.4-8 17.5-17.7 14.6-29.4-2.8-11.3-6.9-6.7-14.8-3.1-7.4 3.4-14.3 8.3-21.7 11.9-26.6 12.8-55.4 20.7-84.7 23.7-15.2 1.5-30.6 1.7-45.9.4-14.5-1.2-31-8.3-45.1-8.1-14.9.2-13.1 11.9-13.6 25.4l-2.1 60c-1.3 35.7-2.5 71.4-3.8 107.1-.5 13.1-4.8 32.4 3 44.1 7.8 11.7 27.9 18.2 40.3 23.4 29.3 12.3 61.4 19.4 93.2 14.9 28.6-4.1 62.7-15.6 62.7-48.5 0-40.7-1.2-81.4-1.8-122.1-.5-33.4-2.4-71.9 19.7-99.7m-377-124.2c4.9-44.1-72.4-6.8-87.7.6-25.7 12.6-68.3 36.7-67.7 70.1.4 24.3 38.9 70.1 65 58.8 7.9-3.4 15.6-12.8 23.5-17.2 8.5-4.8 17.5-8.6 26.9-11.5 19.3-6 39.7-7.7 59.8-6.3 36.7 2.7 80.3 34.4 109.6 1.5 21.3-24 29.4-65.8 12.4-94.1-10.4-17.4-26.9-24.2-46.2-26.9-22-3-46-6.3-68.2-6.3-28.4 0-18.9 12.8-17.5 33.4 1.3 18-4.3 36.5-15.7 50.5 1.9-17.5 3.9-35.1 5.8-52.6m484.8 107.2c-9.4-21.2-23.1-13.2-41.3-5.5-17 7.1-35.9 15.3-50.1 27.4-28.1 23.9-12.1 58.8 23 63.4 16.1 2.1 24.6-8.8 37.3-16.4 15-8.9 31.8-14.6 49.1-17.1 15.1-2.2 30.6-1.9 45.6.9 17.8 3.4 31.1 12.8 47.6 18.7 33 11.7 58.8-22.2 50.4-52.9-10.5-38.5-52.1-43.4-85.5-43-16 .2-44.7-4.9-59.4 1.3-14.1 5.9-6.2 19.3 2.1 27.9 5.2 5.3 32 12.9 19.8 22.7-12.8 10.1-34.7-18.4-38.6-27.4m-274.2-4.4c26.5-24.9 65.7-33.2 100.8-25.9 19 3.9 33.9 18.1 51.6 4.9 16.5-12.4 25.2-33.2 13.7-51.8-11.2-18.1-34.2-23.3-54-24-10.1-.3-56.4-2.5-52.1 16 1.4 6.2 35.4 14.9 17.3 22.6-7.2 3.1-16.4-7.8-20.8-11.7-10.4-9.1-20.1-13.2-18.4-27.2-28.1 8.9-67.1 26-78.5 55.8-8.8 22.9 14 66.2 40.4 41.3M89.4 480.9c12-12.7-27.5-23.6-34.8-21.2-16.5 5.5-25.5 24.1-30.2 39.6-10.9 35.7 1.4 78.4 36.9 95.1 7 3.3 18.6 8.1 25.5 2.6 7.2-5.7 4.8-11.2-1.5-15.9-6-4.5-15.8-4.8-22.5-9.1-7.8-5-14.4-12-18.8-20.2-8.8-16.4-7.9-36.1 1.6-52.1 4.9-8.2 12.5-16.4 22.2-18.5 5.3-1.2 17.6 3.9 21.6-.3m210.2-65.2c-9-7.9 10.6-19.7.7-28.9-4.4-4.1-13.3.2-17.6.6-7.8.7-14.6-.6-22.5-.9-27.2-.9-55 7.5-72.1 29.8 10.7 15.3 27.9-17.3 39.5-16.3 3.6 7.6-21.4 21.2-10 26.4 5.8 2.6 17.4-11.5 24.2-12.6 3 3.9-5.8 9.2-4.6 14.2 2.4 9.6 13.7 5.3 18.9 1.7 11.4-7.9 14.9-25.9 30.3-28.5 6.6 10.5-28.5 28.2-.6 25 21-2.4 39.8-13.4 59-23.1-7.8-6.1-18.8-13.4-28.2-6-7.2 5.9-5.1 16.3-17 18.6m457.5 77.4c8.3 1.8 11.1-7.8 17.8-8.8 2.4-1.6 4.7-1.9 7.1-.8 3.4.3 5.3 2.5 5.7 6.6 3.8.8 14.9-2.8 18-3.7 1.5.7 3 1.3 4.5 2 2.8-.6 4.7-2.4 5.6-5.5 4.7-2.2 8.4-5.7 13.8-7.5 5.1-1.8 25.4-3.5 27.3-9 4.1-11.4-21-6.9-26.4-7.8-16.6-3-32.8-13.8-50-12.2-16.3 1.5-35.1 12.2-48.6 21-10.4 6.7-23.6 23.2 0 21.4 6.2-.5 2.9-6.7 10.8-5.9 6.2.5 8.3 8.9 14.4 10.2M576.2 380.4c6 5.5 17.7 2.4 20.2-5.4-1.8-2.9-17.6-3.4-21.3-4.7-9.9-3.6-16.9-7.1-27.8-6.9-18.1.4-45.2 7.6-59.6 18.9-7.2 5.7-9 5.2-.8 9.7 8 4.5 24 2.2 32.5.9 9.9-1.5 17.3.9 26.9.5 11.2-.4 21.1-6.6 29.9-13M90 503.7c-4.7-15.6-24.3-7.7-31.1 1-9.5 12.1-8.4 28.8-.4 41.2 6.2 9.6 22.5 24.6 32 12.1 5.8-7.7 2.3-45.2-.5-54.3m868.8-9.3c-12.5 1.5-24.2 9.4-30.2 20.5 13.2 1.7 39.5-23.4 37.9 8.4-.5 10.1-6.8 21-11.7 29.6-3 5.3-21.3 25.3-20 29.2 5.8 17.5 34.9-31.8 37.1-36.5 7.1-15.3 16.5-54.7-13.1-51.2M795.7 141.6c-20.9 8.6 23.7 39.1 35.5 36.9 18.3-3.3-24.2-41.6-35.5-36.9m141.2 407.7c7.4-.8 18.4-16.7 14.7-23.9-5.8-11-20.8 12.4-14.7 23.9 7.9-.9-2.9-5.5 0 0z"/></g></svg>