<svg xmlns="http://www.w3.org/2000/svg" viewBox="0 0 1000 1000" enable-background="new 0 0 1000 1000"><path fill="#29A3C5" d="M59.7 661.9l-19.5-42.3c-4.6-10-18.6-29.7-18.1-40.7.5-9.9 3.4-14.6 12.8-9.9 6.6 3.3 17.8 36.2 22.6 44 15.5-6.4 2.2-55.5 26.7-48.3 12.1 3.5 33.4 60.1 46.3 52.4 10.2-6.2-2.9-65.9-3.2-76.6-.2-7.4-2.7-26.5 11-18.8 9.2 5.2 5.9 27.8 6.3 36 1.4 28.5 11.4 60.3 9.7 88.3-2 32.3-34.7-3.9-44.5-15.5-10-11.7-31.4-46.2-32.3-11.2-.5 12.8 7.4 32.9 2.5 44.7-5.2 12.4-14.5 10.5-20.3-2.1-11.5-25 2.9 6.3 0 0zM364.2 51.2c4.2-17.3 61.4 22 71.6 26.8 13.2 6.2 24 13.9 36.3 21.4 9.5 5.8 15.2 11.1 16-4.7.7-13.8-33.1-77.5-12.5-86.9 18.7-8.6 23.8 70.3 25.9 82.6 2.1 12.2 12 35.8-3.1 41-11.4 3.9-32.2-13.4-41.6-18.5-12.9-7.1-61.3-44-69.7-25.1-4.8 10.7 9.8 41.9 11.4 53.9 1.4 10.7-.2 24.5-13 12.1-7.9-7.7-8-32.5-10-42.6-3.3-15.9-15.1-44.4-11.3-60 1.2-5.2-.6 2.1 0 0zM974 434c-2.1-21.1-65.2 20.9-78.4 2.2-19.4-27.5 59.6-20.7 58.3-43.4-1-16.4-36.4 1.7-44.1 3.7-15.7 4.1-21.4 2.9-26.6-13.6-1.6-4.9-5.3-17.2-3.8-21.5 2.8-8.3 14-9.7 23.9-13.4 8-2.9 33.8-8.9 22.3-21.6-6.9-7.6-37.2 6.7-44.1 9.4-35.7 13.8-14.9 31.8-12.4 60.6.6 7.3-3 14.2-1.1 21.6 1.1 4.4 6.7 5.2 7.9 7.6 3.9 8 3.6 27.1 10.3 35 9.6 11.2 89.4-11 87.8-26.6-.3-3.8.6 5.7 0 0zM587.5 940.6c-4.9-20.2-38.5-19.9-52.9-30.5-20.1-14.8-11.6-30 8.7-41.4 6.2-3.5 19.5-9.2 26.1-3.2 12.2 11.2-7.2 12.9-13.3 16.2-30.4 16.3 11.8 21.6 26.2 27.4 51.3 20.6 13.5 79.9-28.8 82.1-26.3 1.4-39.6-33.3-12.9-25.6 13.5 3.9 15.3 10.5 30.4 1.8 9-5.2 19.3-15.3 16.5-26.8-1.7-7 3 12.3 0 0zM699.3 624.8c-15.2 11-69.8-15.5-87.3-20.1-34.2-8.9-34.3 7.3-38.4 38.6-8.5 64-16.9 128.1-25.4 192.1-14-8.2-17.3-30.7-22-44.6-6.7-19.8-13.7-39.5-21-59.1-7.3-19.6-14.8-39.1-22.6-58.6-3.5-8.8-14.8-50-23.5-53.1-18.7-6.5-56.8 81.2-71.9 66.8-9.3-8.8.9-30.3 3.5-39.4 5.7-19.9 9-40.4 9.8-61-40.3 0-80.6-2.6-120.6-7.6-13.9-1.8-84.2-3.8-68.7-28.8 7.3-11.7 40.3-23.4 52.4-30.5 17.5-10.2 35-20.3 52.4-30.5 14.9-8.6 34.8-16.4 47.7-27.7 14.3-12.6 11.5-16.1-1.1-30.5-8.6-9.7-29-25.2-31.2-38.3-3.5-20.2 16-12.7 29-10.1 17.8 3.6 70.8 24.8 83.8 7 7.3-10 4.4-41.9 5.8-54.5 1.9-17.4 4.2-34.8 6.7-52.2 5.5-38.2 12.5-76.2 20.8-113.8 18.6-3.7 66.6 174.6 73.9 196.7 10.9-9.5 50.9-55 64.2-44.5 14.1 11.1-6.1 58.5-9.5 71.3-3.3 12.5-5 13.2 7.1 17.8 13.6 5.2 35.2 2.1 49.7 2.6 31.3 1.1 62.7 1.2 94 .4 13.4-.4 69.9-11 74.5 3.9 5.3 17.2-40 37.6-50.8 44.3-50.6 31.1-104.2 57.4-159.8 78.4 11.2 9 100.7 68.9 78.5 85m-279.2-119c-2 44.6 48.2 78.6 89.2 71.1 46.7-8.6 65.6-51.7 63.1-94.9-2.5-42.6-24.4-79-72.4-69-36.7 7.7-78.2 54.7-79.9 92.8m383.6-80.3c-52.8 9.5-107 11.3-160.3 5-12.7-1.5-54.2-13.6-62.4.3-1.7 2.9 6.6 23 7.5 28.5 2.2 12.9 2.9 26.1 2.1 39.2-1.4 21.8-12.9 40.4 16.1 29 20.8-8.2 41.2-18.4 61.6-27.7 46.8-21.3 93.5-44.1 135.4-74.3M419.4 555.9c-20.2-31-16.2-75.7 9.2-102.6-10.4-14.1-72.3 32.6-83.8 39.4-15.4 9.1-30.8 18.3-46.2 27.4-10.3 6.1-43.6 18.8-48.2 29.6-4.8 11.3 25.4 10.3 32.5 11 17.9 1.8 35.8 3.2 53.7 4.2 7.8.5 92.2 5.5 82.8-9m151.7 10c-7.1-6.3-16.7 9.9-20.7 13.5-8.6 7.7-18.7 12.1-29.9 14.5-10.5 2.2-20.8 1.8-31.4 1.6-12.5-.3-15.8-3.3-15.3 10.6.4 11.8 10.9 28.5 15.1 39.6 5 13.2 10.1 26.4 15.1 39.6 10.4 27.2 19 56.5 33 82.1 18.6-24.5 15.5-74.6 19.3-104.1 2.2-16.7 4-33.5 6.6-50.2 1.2-8.2 14.1-42 8.2-47.2M479.8 222c-8.7 7.6-7.2 48.1-8.6 59.8-2.6 21.8-5.3 43.6-7.9 65.4-1.5 12.1-11.5 43.9-4 54.7 9 12.8 33.6-5.2 46-6.8 15.1-2 30.2 1.4 30.7-19 .4-18.4-10.8-41.9-16-59.5-3.1-10.6-31.9-101.8-40.2-94.6m104.8 347.6c12 13.7 33.3 18.3 49.6 24.3 10 3.7 43.1 16 23.5-3.9-12.2-12.3-35.6-24.7-50.7-33.4-6-3.4-14-11-21.3-7-8.1 4.5-7 13.3-1.1 20M415.1 436.7c8.8-3.4 18.6-7.4 23.7-15.9-10.1-9.7-24.6-9.6-37.5-11.8-9.4-1.6-26.5-13-34.5-12.4-19 1.4 4.1 17.8 10.8 24.2 11.8 11 20.2 22.6 37.5 15.9m33.1 150.7c-6.3-18.8-25.1 3.8-28.7 10.2-7.8 13.6-18.3 37.4-21.1 52.8 9.6 5.6 53.6-51.7 49.8-63M557 396.9c1.5 11.4 16.8 11.6 24.3 6.9 9.5-6 16.7-28.6 16.3-39.2-.5-14.1-3.7-13.1-15.6-2.6-7.1 6.3-26.5 23.6-25 34.9"/></svg>