<svg xmlns="http://www.w3.org/2000/svg" viewBox="0 0 1000 756.7" enable-background="new 0 0 1000 756.7"><desc xmlns:shape="http://adobe.com/products/shape"><shape:version>1.0.2</shape:version><shape:captureDetail>0.965827</shape:captureDetail><shape:source>1</shape:source></desc><path fill="#C12C7F" d="M262.3 654.1c-31.1-159.6-54.5-320.7-70.3-482.5-1.9-19.5-3.7-39-5.3-58.5-1-12.1-7-34.7 2.7-44.8 9.3-9.6 32.2-6 44-6.5 21.3-.8 42.7-1.6 64-2.4 80.8-3 161.5-6 242.3-9 82.3-3.1 164.6-6.6 246.8-9.2 14.9-.5 32.5-1.6 41.9 12.5 9.2 13.9 6.9 36.4 8.3 52.3 3.5 39.9 8 79.8 13.4 119.5 10.9 79.5 25.8 158.3 44 236.5 8.1 35 2.2 57-34.3 67.1-36.5 10.1-73.9 17.7-110.7 26.8-88.6 22.1-176.8 45.8-264.5 71.1-43.2 12.4-86.2 25.2-129.1 38.4-20.2 6.2-43.3 17.9-64.3 20.1-19.4 2-25.7-15.4-28.9-31.4M865 512.7c37.5-8.6 13.5-54.4 8.1-80.6-7.6-36.5-14.6-73.2-21-110-13.4-76.5-24.3-153.4-32.7-230.5-1.5-13.4 1.2-27.3-14-31.1-15.8-4-36.6.2-52.8.6-39.4 1.1-78.8 2.3-118.2 3.5-77.3 2.5-154.6 5.3-231.8 8.4-39.4 1.6-78.8 3.3-118.2 5.1-18.2.8-36.4 1.7-54.5 2.5-15 .7-30.2-3.8-32.4 13.3-2.4 17.9 3.7 40.4 5.6 58.5 1.9 19.5 4 39 6.1 58.4 4.3 38.9 9 77.8 14.1 116.6 10 76.2 21.5 152.1 34.5 227.8 3.1 17.8 6.2 35.6 9.4 53.4 2.8 15.3 2.7 38.7 11.2 52 13.1 20.6 70.4-8.9 89.4-14.7 164.1-50.4 330-94.8 497.2-133.2 10.5-2.4-190.3 43.7 0 0zM918 234.7c7.2 16.6 11.5 38.3-1.7 53.1-13.5 15.2-36.3 10.2-45.6-6.9-16.4-30.3 28.5-89.6 47.3-46.2m-4 26.9c.9-7.3-4.8-28.2-14.7-28.3-8.4-.1-20.7 19.8-21.8 26.3-4.6 27.6 33.4 27.8 36.5 2 1-7.8-.9 7.4 0 0zM135.7 619.2c17.4 7.5-23.8 23.6-25.2 24.1-19 7.2-37.9 14.4-56.9 21.6 26.4 13.3 52.7 26.6 79.1 39.9 5 2.5 31 11.6 31.6 16 1.5 10.1-11.2 8-17.6 6.4-24.5-6.4-50.4-24.3-73.4-35.4-14.4-7-66.3-22.9-65.3-40.5.5-9.2 15.4-27.4 19.9-35.2 7.4-12.8 14.7-25.5 22.1-38.3 12.9-22.3 24.2-52.2 42.5-70.5 16.5-16.4 38.6-10.8 59-16.5 26.2-7.3 28.1-23.5 24.3-47.6-18.1-115.5-36.1-231-54.2-346.5-3.6-22.8-11.4-50.5.3-72.1 14-25.8 41.2-19.2 66-18.2 57.4 2.2 114.8 3.7 172.3 4.7 117.9 2 235.8 1.4 353.7-1.7 28.7-.8 57.4-1.7 86.1-2.7 24.8-.9 62.5-9.5 86.2 0 20.7 8.3 23.2 32.4 26.6 51.6 5.4 30.1 10.6 60.2 16 90.4 20.7 117.5 42.1 234.9 62.2 352.5 5.3 30.8-2.1 38.5-31.7 47.2-30.7 9-61.5 18.1-92.2 27.1-55.6 16.4-111.3 32.7-166.9 49.1-128.8 37.9-257.7 75.8-386.5 113.8-13.6 4-27.3 9.1-41.4 11-16 2.2-29.9-4.6-45.3-3.3-25.1 2.1-46.6 8-72.3 4.6-48.2-6.4-94.2-31.1-124.3-69.6 45.8 27.1 94.7 48.9 145.5 64.8-16.5-69.2-32.3-138.6-49.6-207.6-2.4-9.7-5.5-29.8-20.1-23-10.5 4.8-20.2 30.6-25.8 40l-56.1 94.5c11.4 10.2 38.9-5.6 50.2-9.5 20.5-7 40.8-14 61.2-21.1M899.3 58.9c-2.2-12.2-6.5-28.5-17.8-35.5-15.3-9.4-44.7-2.2-62-1.6-47.3 1.7-94.6 3.1-142 4.3-93.1 2.3-186.3 3.3-279.4 2-47.3-.7-94.6-1.9-141.9-3.9-21.4-.9-42.7-1.9-64-3.1-15.7-.9-40.6-6-53.7 6.2-13.5 12.7-5.2 37.7-3 53.4 3.3 23.9 6.7 47.7 10.1 71.5 6.6 46.2 13.3 92.4 20.2 138.5 13.6 90.8 27.7 181.5 42.5 272.1 7.3 45 12.8 91.1 22.7 135.6 11.4 51.5 52.6 34.3 90.6 22.6C499 666.5 677 613.6 855.5 562.7c24.7-7 49.4-14 74-21 14.3-4 46.5-6.8 51.5-24.3 2.2-7.6-2.4-19.4-3.8-26.9-2.4-13.5-4.9-27-7.3-40.5-4.6-25.5-9.2-51-13.8-76.4-18.9-104.9-37.9-209.8-56.8-314.7M145.6 506.8c-17.1 6.6-1.5 40.5 1.4 53.5 5.6 24.9 11.2 49.8 16.8 74.8s11.2 49.8 16.8 74.8c1.7 7.6 1.9 25.5 10.9 28 5.3 1.5 17.9-5.9 21.3-8.8 14.8-12.8 2.7-42.1-.1-58.6-4.1-24.9-8.2-49.8-12.4-74.6-4.1-24.9-8.1-49.8-12.4-74.6-1.1-6.6-1.1-17.1-7.7-21.1-7.8-5-27.3 3.8-34.6 6.6-3 1.2 8.2-3.1 0 0zM701.7 298.6c-7.1-4-28-24.4-36.8-21.8-13.9 4 8 24.9.7 32.9-11 12-16.1-9.8-17.5-16.5-3.7-18.5-6-37.4-8.9-56.1-2.5-15.5-5-24.9 9.5-34.4 13-8.6 32.2-14.3 46.8-6.4 35.1 18.8-2.7 49.4-20.1 62.7 10.9 10.7 25.7 16.1 36.6 25.9 11.3 10 4 21.7-10.3 13.7m-9.5-79.2c-.1-18.1-44.4-9.5-36.2 13.8 7.2 20.9 36.2 1.6 36.2-13.8-.1-5.8 0 3.7 0 0zM587.7 281.4c-6.1 3.3-13.9 6.2-18.8 11.4s-5.1 11.1-8.8 16.7c-6.9 10.6-14 14.3-14.5-1.8-.5-14.9 12.8-36.6 17.2-51.1 3.5-11.5 5.1-40.1 15.4-46.3 14.7-8.9 21.6 20.6 25.8 30.4 7.4 17 14.8 34.1 22.2 51.1 4.7 10.8 8.9 30.6-8.8 17.4-9.1-6.8-13-36.8-29.7-27.8m-11.2-17.2c6.9 10.4 20-4.7 13.6-13.9-8-11.2-18.7 6.2-13.6 13.9 2 3.1-1.8-2.7 0 0zM748.9 204.9c-16.2 3.5-9.1 36.9 5.5 38.9 8.2 1.1 21.4-10.2 27.9-.4 7.7 11.5-10.2 14.4-17.1 15.3-8.5 1.1-19.5.6-20 12.1-.5 10.3 9.2 13.4 17.5 13 6.8-.3 30.5-11.1 31.1 4.2.4 10.5-16.7 10.3-23.8 11.4-24 3.8-35.6 1.6-39.3-24.1-1.1-7.9-8.1-16.3-8.4-23.3-.4-6.9 5.1-14.4 4.5-23.1-.7-10.1-7.7-25.1-.1-33.6 6.2-6.9 25-9.8 33.6-11.9 7.2-1.7 27.1-5.6 20.8 8.6-3.4 7.6-25.5 11.4-32.2 12.9zM540.3 446c-1.1 11.4 11.9 32.3-8.2 24.3-11.6-4.6-22.3-18.3-31.1-26.6-5.9-5.6-13.4-13.7-16.8-2.6-1.1 3.6 4.4 14.9 4.4 19.5 0 6.7-1.5 13.5-4.4 19.5-12.9-1.4-11.2-25.9-11.9-34.3-1.1-12.4-8.3-35.9-3.8-47.3 7.3-18.2 18.3 4.5 24.9 12.8 6.4 8.1 19.3 30 29.4 32.5 15.1 3.8 1.2-19.1-.5-26.2-1.4-5.6-8.9-44.5-1.8-48.2 13.7-7.1 12.6 21.9 12.9 26.5 1.1 16.8 8.5 33.1 6.9 50.1-.6 5.3 1.7-18.1 0 0zM412.2 301.8c-1.7-10.4-8.4-57.7 5.9-63.5 14.7-5.9 7 42.5 7.9 51.5 1.7 16.4 13.9 39.9 27.9 15.5 11.3-19.6.7-40.3-1-60.5-.5-5.7-1.9-13.9 4.7-16.8 9.9-4.4 10.2 10.2 11.3 15.9 4.7 24.5 12.3 50 14.3 74.9 1.3 15.7 0 12.3-10.3 10.6-11.7-1.9-10.6-1-21.7 3.9-22.9 10.1-35.6-11.1-39-31.5zM392.2 312.5c-6.1 17.7-27.9 43.3-45.7 21.6-12-14.6-8.8-45.8-5.7-62.7 3.7-20.2 16.3-42.2 38.9-26.9 22.2 15 20.1 45.9 12.5 68m-23 6.9c9.4-10.5 13.7-24.9 12.5-38.8-.9-9.7-6.5-31.4-20.2-21.9-9 6.2-7 26.2-7.3 35.6-.3 5.1 2.6 38.9 15 25.1zM572.5 407.8c5.7 7.8 47-6.9 35.6 12.7-6.5 11-44.2 5.8-31 27.2 10.1 16.3 36.8-4.7 42 7.5 6.4 15.1-37.3 19.2-45.6 16.4-17.5-5.8-14.3-39.9-16.3-55.8-2.5-20.2-10.7-40.6 11.8-48.8 7.4-2.7 48.5-14.8 30.9 5.9-8.1 9.7-44.8 10.9-27.4 34.9 1.3 1.8-6-8.3 0 0zM282.7 258.5c3.9 5.5 14.1-8.6 15.5-10.9 5.9-9.5 3.3-18.5 5.7-28.3 5.3-21.5 17.9-2.9 16 12.3-2.4 19.8-15.3 34.9-13 55.7 1.3 11.2 4.8 22.5 7.2 33.4 1.5 6.5 10 29.3 7 34.6-10.8 19-19-16.3-20.2-22.7-3.9-19.5-3.8-43.7-19.6-56.7-12-9.8-21.8-17.5-21.2-35.5.2-7.1 3.7-18.1 11.6-11.2 4.9 4.4 6.3 22.7 11 29.3zM419.2 479c2.3 12.8-8.6 7.3-12.5 1.9-4.6-6.4-4.3-22.5-5.4-30.2-1.2-8.5-11.5-48.6-1-53.4 17.3-7.9 22.2 41.8 31.9 46 15.8 6.8 1.3-28.7 1.9-36 .5-6.1 1-19.2 9.6-13.5 4.8 3.1 4.7 23.9 5.5 29.2 1.6 10.6 3.2 21.2 4.7 31.8 1.2 8 6.9 24.1 4.2 31.8-4.7 13.3-9.5.2-14.4-6.7-5.5-7.8-11.8-21.2-19.3-27-20-15.4-7.2 14.9-5.2 26.1.4 2.1-1.7-9.2 0 0zM308.5 500.7c7.2 3.2 33.9-16.3 28.7 4-4.3 16.7-34.5 16.1-43.4 5.3-18.3-22.2-19.6-86.3 3.7-106.1 15.1-12.9 24.4 1.9 28.3 16.1 1.3 4.6 6.4 19.3-2.6 19.6-8.5.3-5.5-11.2-8.3-15.2-14.4-20.9-18.9 12.7-19.5 23.8-.9 13.8-2.8 45.4 13.1 52.5zM794.6 355.9c4.2-18.8 33.1-12.4 41.9-2 12.9 15.3 8.1 36.8 0 53.1-6.9 13.9-20.5 27.2-33.1 9.5-8.1-11.4-11.8-47.3-8.8-60.6m17.3 4.4c-6 6.5-3.4 49.7 12 36.9 14.3-11.8.1-49.9-12-36.9-1.9 2.1 2.1-2.2 0 0zM354.4 493.2c-15-8.6-15.9-36-13.9-50.7 2.3-16.8 9.8-42.9 29-26.2 13.2 11.5 19.6 31.6 17.9 48.7-1.5 14.8-14.4 38.8-33 28.2m-1.3-48c-.3 7.1-1.2 19.4 3.7 25.5 7.2 9 13.8 4.1 16.4-6.1 1.8-6.9.1-20.7-4.7-26.1-7.4-8.2-14.9-4.2-15.4 6.7zM775.6 430.9c-19.1 3.6-25.8.1-30.6-16.5-1-3.4-4.5-11.1-4.8-14.5-.7-7.9 1.9-12.2 2.2-20.1.5-13.8-1.6-20.9 11.7-29.8 10-6.6 31.8-12.7 20.9 4.7-5.6 8.9-34.8 19.7-10.3 25.8 5.1 1.3 10.4-3.7 13.9 1.9 3.1 4.8-3.7 9.2-6.1 11.8-4.9 5.5-15.5 7.3-13.3 14.1 3 9 13.7 4.6 19.5 5.3 16.5 2 13.5 14.2-3.1 17.3zM620 406.2c1.3-13 4.5-27.3 13.2-37.6 5.4-6.4 21.9-19 27-5 3.2 8.6-16.1 16.1-20.9 23.1-6.3 9.1-9.5 22.5-5.5 33.2 2.2 5.8 6.5 12.2 13.6 12.2 7.4 0 9.6-8.2 15.8-10 15.1-4.5 13.3 7.6 5.1 16.3-27.1 28.5-51.4-2.2-48.3-32.2 1.6-16.5-.8 7.9 0 0zM682.1 358.1c11-5.8 23.7-11.5 36.1-13.5 13.5-2.2 16.9 3.8 6.5 13.3-10.2 9.4-13.9 8.3-13.5 23.4.3 14.8 3.9 29.3 5.4 43.9.7 7 1.4 18.7-9.9 12.8-7.6-4-6.8-22.5-7.6-29.3-1.2-10 .2-27.7-7.8-34.9-4.5-4-27.7-5.9-9.2-15.7zM372.7 603c-9.1-9.3 13.5-75.5 23.7-70.3 14.5 7.4-13.8 63.1-23.7 70.3-3.4-3.4 10.2-7.4 0 0zM464.8 148.3c-1.4-10.6-6.2-29.7-2.3-39.9 7-18.5 11.4 4.3 13.6 13.2 1.8 7.3 8 27.8 3.8 34.8-6.1 10-14.9.8-15.1-8.1zM368.1 177.9c-12.8-.8-32.3-53.5-19-53.2 11.3.2 32 53.9 19 53.2-2.5-.2 3.3.1 0 0zM570.6 141.3c-.1-12.3-3.1-28.3-.2-40.2 3.5-14.8 9.5-9.5 12.1 4.2 2.2 11.3 5.4 30.4.4 41.3-4.8 10.5-12.2 7.4-12.3-5.3 0-13.4.1 3.7 0 0zM690.6 140.2c2.4-7 9.5-44.6 21.5-43.1 3.1 13.9-.3 36.6-8 48.7-6.9 11-18.6 9.5-13.5-5.6zM461.1 565c.5-3.5 8.6-46.1 19.9-34 8.3 8.9-10.1 42.8-15 49.5-5.6-2.4-5.6-10.7-4.9-15.5 1.4-9.2-.8 5.8 0 0zM715.8 505.2c-8.5-6.6-13.3-23.2 2.5-17.4 12.5 4.6 13.1 29.5-2.5 17.4-3.9-3 3.7 2.9 0 0zM584.8 528.1c1.8 11.8-1 34-11 12.9-2.2-4.6-6.5-19-2.6-23.5 7.4-8.4 12.8 5.5 13.6 10.6.5 3.6-.6-3.7 0 0zM894.8 254.7c12.2-.1 2.6 11.9-.7 9.3-4.1-3.2-3.1-6.8.7-9.3z"/></svg>