<svg xmlns="http://www.w3.org/2000/svg" viewBox="0 353.9 1000 292.3" enable-background="new 0 353.9 1000 292.3"><path fill="#FCD953" d="M0 353.9h1000.1v292.3H0z"/><desc xmlns:shape="http://adobe.com/products/shape"><shape:version>1.0.1</shape:version><shape:captureDetail>0.857914</shape:captureDetail><shape:source>1</shape:source></desc><g><path fill="#070707" d="M619.6 499.9c1.1 2.3 1 5.6-1.2 7-3.2 1.9-7.1-1.8-11.2-1.7-2.3.1-4.3 1.3-5.9 2.7-3.2 2.5-6.5 5.6-7.5 9.5-1.1 4 .4 8.6 3.7 11.3 3.2 2.5 8 3.2 11.6 1.4 2.1-1.1 4.9 1.2 5.2 3.4.2 2.5-1.3 4.8-3.2 6.2-7.5 5.8-19.5 1.5-24.3-6.5-3.7-6.3-4-14.3-1.7-21 2.6-6.8 7.8-12.4 14.4-15.7 6.7-3.3 16.7-3.3 20.1 3.4z"/><path fill="#FCDA49" d="M100.5 459.6c9 5.7 20.5 3.4 30.6.2 3.1-1.1 6.4-2.1 9-4.3 3.7-2.9 5.9-7.4 7-12 2-9.1-.8-19.8-8.6-25.1-2.6-1.7-5.7-2.9-8.8-3.6-8.2-1.9-17.2-1.2-24.7 2.9s-13.2 11.5-14.4 19.8c-.9 8.5 2.6 17.5 9.9 22.1zm38.9-50.3c5.3 1.4 10.7 3.8 14.6 8 6.8 7 8.2 18.3 5.1 27.6-3.2 9.3-10.3 16.9-18.4 22.3-2.3 1.5-4.8 4.6-2.7 6.4.2.2.7.5 1.1.6 35 15.6 70.1 31.1 105.1 46.8 25.8 11.5 51.6 22.9 78 32.3.1 1.8-2.6 1.9-4.3 1.3-68.5-24.1-136.6-49.1-204.3-74.8-8.3-3.1-16.6-6.4-23.5-12-6.9-5.6-12-13.9-11.6-22.8.4-5.2 2.5-10.1 5.3-14.5 11.7-17.6 35.2-26.8 55.6-21.2zM338.4 440.2c1.5-.5 3.8-.7 4.3.8-43.5 16.3-86.2 34.8-128 55.2-7.7 3.8-16.7-1.2-24-6.1 49.2-16.5 98.4-33.3 147.7-49.9z"/><path d="M746.8 436.9c1.5 4.2 1.4 8.7 1.2 13.1-.2 5.3-.6 10.6-.8 15.9-.1 2.7-.4 5.7-2.5 7.5-2 1.8-6.1.8-6.2-1.9.6-7.6 1-15.3 1.3-23 0-1.4.1-3-.7-4.4-1.8-3.2-6.9-2.1-9.6.5-1.9 1.8-3.4 4.2-4.2 6.5-1.2 3.7-.7 7.6-1.2 11.4-.4 3.8-1.9 7.8-5.3 9.5-3.7-4.4-3.9-10.7-3.9-16.5v-17.9c-.1-2.1.1-4.9 2-6.1 2.7-1.8 6.2 1.1 9.5 1.2 3.6.2 6.7-2.6 10.2-3 4.6-.4 8.6 3 10.2 7.2zM796.9 438.9c2.9 2.6 1.9 7.5 1.1 11.4-2.3 9.7-2.5 19.8-1 29.7 1.2 7.1-2.5 14.8-8.7 18.5-6.2 3.7-14.7 3.3-20.4-1.1-2.4-1.8-4.4-5.1-2.9-7.6 2.1-3.6 7.6-1.1 11.9-.7 4.5.4 9.5-3 9.5-7.6.2-4.6-5.6-8.4-9.4-5.9-6.9 4.8-17.1.4-20.7-7.4-3.6-7.5-1.7-16.6 2.5-23.9 2.5-4.6 6.1-8.8 10.9-10.8 7.6-3.2 16.5.2 24.1 3.6 1.1.6 2.3 1 3.1 1.8zm-10 18.5c2.3-4.9.6-11.6-4.3-13.8-5.8-2.7-12.7 1.9-16.4 7.2-2.3 3.2-4 7.5-2.1 10.9 1.8 3.2 6.1 4.2 9.7 3.9 5.4-.5 10.7-3.4 13.1-8.2z"/><path fill="#020202" d="M398 415.8l-125.3 59.6c-19.1 8.3-38 17.1-56.4 26.8L393.2 584c-1.4.4-3.3.1-4.9-.4-67.9-23.5-136-47-204.1-70.6-2-.7-4.3.4-6.2 1.3-7.2 3.7-14.4 7.4-21.6 10.9-3.9 2-8.6 5.5-7.5 9.7 4.5 16.7 1.2 35.6-9.7 49.1-10.8 13.6-29.2 21.1-46.2 18-17.1-3.2-31.8-17.1-34.9-34.1-3.4-18.3 6.4-37.1 20.9-48.6 14.6-11.5 33.1-16.5 51.6-18.8 3.2-.4 7.2-1.3 8.2-4.5-15.7-5.5-30.9-12.4-45.5-20.3-7.1-3.9-14.4-8.6-18.1-15.8-3.2-6.4-3.2-14-1.2-21 5.8-20.7 27-34.7 48.3-36.8 15.9-1.5 34.2 4 41 18.5 3.9 8.3 3.2 18.3-.2 27-3.4 8.6-9.5 15.8-16 22.3 7.2 3.9 14.6 7.8 22 11.8 4.5 2.4 9.3 4.8 14.4 4.9 3.9.1 7.7-1.2 11.5-2.4 67.6-23 135.2-46 202.8-68.8 0 .1.1.3.2.4zm-207.4 74.4c7.1 4.8 16.3 9.7 24 6.1 41.8-20.4 84.6-38.8 128.2-55.2-.5-1.7-2.9-1.4-4.3-.8-49.4 16.5-98.6 33.3-147.9 49.9zM90.2 467.8c6.8 5.6 15.2 8.8 23.5 12 67.7 25.8 135.8 50.7 204.2 74.7 1.7.6 4.4.5 4.3-1.3-26.5-9.3-52.3-20.8-78-32.3-35-15.6-70.1-31.1-105.1-46.8-.4-.1-.7-.4-1.1-.6-2.1-1.8.5-4.9 2.7-6.4 8.1-5.6 15.2-13.1 18.4-22.3 3.1-9.3 1.8-20.4-5.1-27.6-3.9-4-9.1-6.5-14.6-8-20.4-5.5-43.9 3.6-55.5 21.3-2.9 4.4-5 9.3-5.3 14.5-.4 8.9 4.7 17.2 11.6 22.8zm3 127.5c15.8 3.4 33.3-3.8 42.9-16.9 9.6-13.1 11.5-31.1 5.9-46.4-1.2-3.4 2.6-6.5 5.9-8.3 8.9-4.6 17.9-9.3 27-13.9-9.7-7.4-22.8-10.1-34.8-7.1-16.9 4.5-34.4 7.7-49.5 16.5-15.1 8.7-27.6 24.5-27 41.9.7 16.2 13.8 30.9 29.6 34.2z"/><path fill="#FCDA49" d="M272.7 475.5l-56.4 26.8c18.4-9.7 37.3-18.4 56.4-26.8z"/><path d="M577.5 422.4c1.1 2.3.8 5.1.7 7.6-1 10.1-1.9 20.1-3 30.2-.2 2.4-1.5 5.6-3.8 4.9-5-2.1-5.3-8.8-4.9-14.1.7-8.6 1.4-17 2.3-25.5.1-1.9.4-4.2 2.1-5.3 2.2-1.7 5.5-.2 6.6 2.2z"/><path fill="#FCDA49" d="M82 576.1c11.2 8.1 27.6 7.4 38.4-1.2 10.8-8.4 15.4-23.8 11.9-37.1-1-3.8-2.6-7.4-5.2-10.5-6.2-7.4-17-9.7-26.1-7.2-9.1 2.5-16.7 9.4-21.9 17.5-3.7 5.9-6.3 12.9-6.1 20.1.2 7 3.3 14.2 9 18.4zm54.1 2.4c-9.7 13.2-27.1 20.4-42.9 16.9-15.8-3.4-29-18.1-29.6-34.2-.7-17.5 11.9-33.3 27-41.9 15.1-8.7 32.5-12 49.5-16.5 11.9-3 24.9-.4 34.8 7.1-8.9 4.6-17.9 9.3-27 13.9-3.3 1.8-7.1 4.8-5.9 8.3 5.6 15.1 3.7 33.3-5.9 46.4z"/><path d="M700 428.1c3.9 0 5.1 5.5 4.8 9.4-.5 6.9-1.1 13.7-2 20.3-.4 3-1.9 6.7-4.6 6.1-2.4-.4-2.9-3.6-3-6.1 0-6.9 0-13.9-.2-20.8-.1-3.7 1-8.9 5-8.9zM578.2 408.6c.2 2.7-3.1 4.9-5.5 3.8-2.4-1.2-2.6-5.2-.5-6.7s5.8.3 6 2.9zM557.3 419.5c.2 2.3-1.7 4.2-3.6 5.1-1.9 1-4.3 1.4-6.2 2.4-4 2.1-6.3 6.8-7.1 11.3-.7 4.5-.4 9.3-.6 13.9-.1 3.2-1.3 7.1-4.5 7.8-3.9-2.4-4.3-7.6-4-12.2.2-6.8.6-13.4.7-20.2 0-3.2.5-7 3.3-8.8 2-1.5 4.8-1.2 7.1-1.5 2.9-.4 5.5-1.8 8.3-2 3 0 6.4 1.4 6.6 4.2zM664.6 433.4c4.4 10-1 22.7-10.5 27.6-5 2.6-11.5 4.2-12.9 9.5-.5 2.1 0 4.4-.4 6.5-.2 2.1-1.9 4.4-4.2 4.2-4-3.4-4.2-9.4-4-14.4.1-10.3.5-20.5.6-31 0-2.1.1-4.6 1.1-6.5.7-1.4 1.9-2.6 3.1-3.6 8.5-6.6 22.8-2.3 27.2 7.7zm-12.3 16.1c2.7-2.9 4.5-7 3.7-10.8-1-3.8-5.7-6.8-9.1-4.9l-1.7 18.1c2.3 1.1 5.1-.4 7.1-2.4z"/><path fill="#FCD953" d="M137.2 426.9c5.2 5.9 5.8 15.8.4 21.5-1.7 1.8-3.8 3-5.9 4-5.9 3-12.7 4.3-19.4 3.8-1.9-.1-3.9-.4-5.7-1.1-7.7-2.9-11.5-12.6-9-20.4s10.2-13.2 18.2-14.6c7.6-1.3 16.2.9 21.4 6.8z"/><path fill="#070707" d="M700.3 543.2c3.9.8 3.7 7 1 10.1-3.1 3.6-8.1 5.2-12.7 4.4-4.6-.8-8.7-4.2-10.5-8.4-4-10.1 4.2-22.3-1-31.7-.8-1.4-1.9-2.7-2.4-4.5-.4-1.7.1-3.8 1.9-4.3 2.9-1 4.2-3.9 5.7-6.5s4.2-5.2 7-4.4c1.5.5 2.5 1.7 3.6 3 2.1 2.7 4.5 5.7 5.1 9 .7 3.2-.5 7.4-3.6 9-6.4 3.3-6.9 12.2-6.3 19.6.2 2.3.6 4.9 2.6 5.8 3.2 1.6 6.5-1.8 9.6-1.1z"/><path d="M612.9 419.5c8.8 1.9 13.9 12.6 11.4 21.4-2.4 8.7-10.6 15-19.4 17.2-3 .7-3.9 4.6-3.6 7.7s1.2 6.3-.1 9.1c-1.4 2.9-6.4 3.4-7 .4-2.7-15.7-3.4-31.7-1.8-47.6-.1-.8.1-1.9.6-2.9 1.1-2 3.4-2.9 5.6-3.6 4.6-1.4 9.4-2.7 14.3-1.7zm-4.4 26.3c4.3-2.7 8.6-8.1 6.2-12.6-1.8-3.8-7.8-4.4-10.9-1.5-3.2 2.6-4 7.7-2.5 11.8.6 1.8 1.9 3.6 3.7 3.7 1.1-.2 2.3-.8 3.5-1.4z"/><path fill="#FCD953" d="M123.5 534.4c3.7 5.8 4.3 13.3 2.5 20.1-1.2 4.8-3.7 9.3-7.1 12.7-7.2 7.4-18.9 9.7-28.4 5.9-2.4-1-4.5-2.3-6.4-4-4.3-4.3-5.7-10.9-4.6-16.9 1.1-5.9 4.4-11.3 8.2-15.9 4.8-5.7 11-10.8 18.4-11.3 7-.6 13.7 3.4 17.4 9.4z"/><path d="M685.6 411.6c1.1 2 .8 4.5.6 6.7-1.3 15.9-2.6 31.7-3.9 47.6-.1 2.3-3.7 2.9-5.3 1.2-1.7-1.7-1.8-4-1.9-6.3-.7-15.6.4-31.4 2.6-46.7.2-1.9.7-3.8 2.3-4.8 1.9-1.1 4.5.2 5.6 2.3zM138.5 418.6c7.7 5.2 10.6 15.9 8.6 25.1-1.1 4.6-3.3 9-7 12-2.6 2-5.8 3.2-9 4.3-10 3.2-21.6 5.5-30.6-.2-7.2-4.5-10.9-13.5-9.7-22 1.2-8.4 6.8-15.8 14.4-19.8 7.5-4 16.5-4.8 24.7-2.9 2.9.5 6 1.7 8.6 3.5zm-1 29.8c5.5-5.7 4.9-15.6-.4-21.5-5.1-5.9-13.8-8.1-21.5-6.8-8 1.4-15.7 6.9-18.2 14.6-2.5 7.8 1.3 17.6 9 20.4 1.9.7 3.8 1 5.7 1.1 6.7.5 13.4-.8 19.4-3.8 2.2-1 4.4-2.3 6-4zM132.2 537.8c3.7 13.3-1.1 28.6-11.9 37.1-10.8 8.6-27.3 9.3-38.4 1.2-5.7-4.2-8.8-11.4-9-18.4-.2-7.1 2.4-14 6.1-20.1 5-8.1 12.7-15 21.9-17.5 9.1-2.6 20-.1 26.1 7.2 2.6 3 4.3 6.7 5.2 10.5zm-6.2 16.5c1.8-6.7 1.1-14.3-2.5-20.1-3.7-5.9-10.5-10-17.3-9.4-7.4.5-13.7 5.6-18.4 11.3-3.9 4.6-7.1 10-8.2 15.9-1.1 5.9.2 12.6 4.6 16.9 1.9 1.8 4 3.1 6.4 4 9.5 3.8 21.1 1.4 28.4-5.9 3.3-3.3 5.8-7.8 7-12.7zM705.8 409.9c1.4 2.4-.5 5.9-3.3 6.1-2.9.1-5-3.6-3.6-5.9 1.3-2.6 5.6-2.6 6.9-.2z"/><path fill="#070707" d="M898.6 540c3.1.1 4.6 4.3 3.6 7.1-1.2 2.9-4.2 4.6-6.9 5.7-2.7 1.2-5.8 2.1-8.3 4.2-2.4 2-3.4 5.9-1.7 8.2 2.9 3.7 5.5 7.4 8.2 10.9 2 2.7 4.2 6.8 1.8 9.4-2.7 3.1-7.8.4-10.6-2.9-4-4.8-7.5-10.2-10-15.8-1.4-.2-2.9-.6-4.2-.8-.5 3.7 1.2 7.2 1.3 10.9-.4 3.6-4 7.6-7.2 5.8-2.7-5.5-2-12.1-1.2-18.2 1.3-9.6 2.7-19.2 4-28.9.4-2 .6-4 1.2-6.1.7-2.6 2.6-5.3 5.2-5.3 3-.1 5 3.1 5.1 5.9 0 3-1.1 5.7-1.5 8.7-.5 2.9 0 6.3 2.3 8 5.1-2.1 10.2-4.2 15.4-6.3 1.3-.2 2.3-.6 3.5-.5zM773.5 531.4c.6 5.6-.8 11.3-2.4 16.9-1.5 5-3.4 10.2-7.8 13.2-2.3 1.5-5 2.3-7.6 2.9-3.8 1.1-8.1 1.9-11.6.4-6.4-3-6.8-11.9-6.2-18.8.8-11.2 1.8-22.2 2.6-33.5.2-3.6.8-7.5 3.7-9.6 3.1-2 8.4.4 7.2 3.7-1.1 3.1 1.4 6.4 4.5 7.8 3 1.4 6.5 1.8 9.4 3.3 4.6 2.4 7.6 8 8.2 13.7zm-12.1 15.9c2.1-3.8 3.4-8.2 2.4-12.5-1.1-4.2-4.8-7.8-9.1-7.7-4.4 0-8.2 4.8-6.7 8.8 1.8 4.9-3 10.9 0 15.2 1.7 2.4 5 2.9 7.6 1.9 2.3-.9 4.3-3.3 5.8-5.7zM851.4 567.2c1.7 1.1 1.7 3.8.6 5.3-1.1 1.7-3.1 2.5-5 3.2-6.2 2.1-13.2 2.9-18.9-.4-6.3-3.6-9.4-11.3-8.9-18.5.5-7.1 4.2-13.9 8.7-19.5 2.4-3 5.1-5.7 8.7-7.4s8-1.8 11 .4c3.2 2.3 4.6 7 2.5 10.1-9.6-1.4-19.5 5.9-20.9 15.4-.6 4.2 3.1 8 7.1 9.3s8.3 1 12.7 1.3c.7.1 1.6.2 2.4.8zM665 505.9c.7 2.1.5 4.2.1 6.2-1.4 8.9-3 18.1-4.5 26.8-.6 3.7-1.7 8.1-5.3 9.4-4.2 1.4-9-2.5-13.1-.4-3.8 2-8.6 1-11.8-1.9-3.2-2.7-4.8-7-5.3-11-1.4-9.1 1.4-18.5 4.2-27.4 1.1-3.7 4.2-8.3 7.7-6.9 3 1.2 2.7 5.6 2 8.9l-3.6 15c-.6 2.9-1.3 6.1.1 8.6 2.4 4.4 9.4 3.9 12.9.2 3.6-3.7 4.3-9 4.8-14 .6-5 .8-10.2 3.8-14.4.8-1.3 2-2.4 3.6-2.5 1.9-.2 3.7 1.6 4.4 3.4zM812.4 537.1c1.2 6.2.4 12.6-.5 19.1-.6 4.3-1.4 9.1-5 11.6-1.3.8-2.7 1.3-4.3 1.7-5.7 1.3-12 1.2-17.2-1.5-5.2-2.7-8.9-8.7-8-14.5.7-4.4 4.3-8.2 8.6-9.4 4.3-1.1 9.3.6 12.1 4 1.1 1.4 3.6-.1 4.3-1.9 1.7-3.6.7-8.3-2-11.2-3-2.7-7.5-3.7-11.2-1.9-1.8.8-4-.5-4.8-2.3-.7-1.8-.1-4 1-5.7 3.4-5.5 11.4-6.5 17-3.7 5.5 3.4 8.9 9.5 10 15.7zM795 560.9c3.3.6 7.2-1.5 7.5-4.9-5-1-10.1-1.8-15-2.6-.4.8-.6 1.7-.8 2.4 2.3 2.2 5.1 4.6 8.3 5.1zM943.8 551c.8 2.4.7 5.3-1 7.1-1.8 1.9-5.3 2-6.4-.1-2.9-5.3-12.1-5.5-14.5-.1 2.7 4.8 7 8.8 12 11.3s7.6 8.6 6.8 14.1c-.1.7-.2 1.4-.5 2.1-1.9 6.1-7.7 10.3-13.9 11.3-.4.1-.8.1-1.2.1-5.8.5-11.9-1.9-16.2-5.8-1.9-1.7-3.4-3.7-3.7-6.3-.2-2.5 1.5-5.2 4-5.2 1.3 0 2.5.7 3.7 1.5 2.1 1.5 4.3 3.2 6.8 4 2.5.8 5.6.7 7.5-1.2 1.9-1.9 1.5-5.7-1-6.7-7.4-2.9-13.2-9.9-13.7-17.9-.5-7.8 4.5-16 12.2-18.3 7.8-2 16.9 2.4 19.1 10.1z"/><path d="M522 418.5c1.2 3.2-1.2 7.8-4.8 7.2-2.4-.2-3.8-2.6-5.9-3.9-3.2-2-7.7-1.1-10.8 1.1-5.6 3.6-8.8 10.7-7.1 17 1.7 6.3 8.9 11 15.2 9.3 3.3-1.1 7-3.2 9.6-1.2 3.2 2.5.4 7.6-3.2 9.6-10.7 5.9-25.5-1-29.8-12.4-3-8.3-1.3-18.2 4.5-24.8 5.7-6.7 15.3-9.7 23.9-7.8 3.6.8 7.1 2.7 8.4 5.9z"/></g></svg>