<svg xmlns="http://www.w3.org/2000/svg" viewBox="0 0 1000 1000" enable-background="new 0 0 1000 1000"><path fill="#FEDB48" d="M0 0h1000v1000H0z"/><path fill="#fff" d="M361.3 603.8L590.4-39H1073l-9 385z"/><desc xmlns:shape="http://adobe.com/products/shape"><shape:version>1.0.1</shape:version><shape:captureDetail>0.857914</shape:captureDetail><shape:source>1</shape:source></desc><desc xmlns:shape="http://adobe.com/products/shape"><shape:version>1.0.1</shape:version><shape:captureDetail>0.857914</shape:captureDetail><shape:source>1</shape:source></desc><path fill="#13110C" d="M784.9 172.7c7.1 5.1 10.5 14.7 8.4 23.1-2.1 8.4-9.7 15.3-18.3 16.5-3.5.5-8-.6-8.9-4-1.2-4.9 5.5-7.4 9.5-10.7 4.2-3.5 5.5-10.6 1.6-14.6-3.7-4.1-11.9-2.4-13 3-1.8 9.9-14.3 14.8-23.8 11.3-9.4-3.4-15.5-12.8-18.2-22.4-1.8-6-2.3-12.6.1-18.4 3.8-9.2 14.2-13.8 23.5-17.5 1.4-.5 2.7-1.1 4.1-1.1 4.7-.2 8 4.7 10.6 8.7 6.4 10.2 14.7 19 24.4 26.1m-31.9 7.5c4.2-5 6.2-12.1 4.1-18.1-2.2-6.1-9.4-10.4-15.4-8.1-7.3 2.7-9.2 12.4-7.8 20.1.8 4.7 3 9.8 7.5 11.1 4.2 1.2 8.7-1.6 11.6-5zM648.7 331.6c2 3.4 7 3.7 10.7 2.1s6.7-4.5 10.4-5.9c6.3-2.5 13.7-.7 19.3 3.2 5.6 3.9 9.7 9.6 13.4 15.4 3.3 5.3 6.6 11.2 5.8 17.5-.4 3.2-1.9 6.3-3.4 9.2-2.1 4.3-4.6 8.9-8.9 10.9-7.7 3.5-16.1-3.1-22-9.1-9.5-9.5-18.8-19.1-28.4-28.7-3-3-6.2-6.6-5.9-10.9.5-4.4 6.9-7.4 9-3.7m45.5 22.9c-1.7-4.9-4.8-9.6-9.5-11.9s-10.9-1.8-14.2 2.3c-3.4 4-2.1 11.3 2.8 13 5.8 2.2 7.6 11.2 13.8 11.9 3.4.4 6.6-2.3 7.7-5.4 1-3.1.4-6.7-.6-9.9zM807.6 288.2c-7.2-1.8-12.6-7.7-17.5-13.2L767 248.6c-1.6-1.9-3.2-3.7-4.5-5.8-1.8-2.7-2.8-6.5-.7-9 2.2-2.8 6.7-2.1 9.5 0 2.7 2.3 4.3 5.5 6.6 8.2 2.2 2.7 5.7 5 9 4.2 2.1-6.3 4.3-12.6 6.4-18.9.5-1.2.8-2.5 1.8-3.5 2.6-2.7 7.5-.9 9.3 2.3 1.7 3.3 1 7.4-.2 10.8-1.1 3.5-2.7 7-2.7 10.8 0 3.7 2.6 7.8 6.2 8 5.5.3 10.9.8 16.4 1.1 4.1.3 9.4 1.5 10 5.7.7 4.9-5.9 7.4-10.9 7.4-7.5 0-15.2-1.2-22.2-3.4-1.3 1.1-2.7 2.1-4 3.2 2.9 3.3 7.6 4.6 11 7.4 3 3.1 3.8 9.7-.4 11.1zM67.7 716C46.3 678.3 56.5 628.1 84 594.6c20.5-25 54.6-43 84.9-32 17.5 6.3 30.8 21.6 38.1 38.8s9 36.2 8.8 54.8c16-4.8 32.1-9.6 48.1-14.6 9.8-3 20.1-6.4 27.6-13.5 5.7-5.4 9.4-12.8 13-19.9C368.4 479 432.4 349.8 496.4 220.8c6.7.9 6.4 10.5 4.2 16.9C458.4 361.2 400 479.1 361.3 603.8c119.3-47.2 238.6-94.6 357.8-141.8 3.8-1.5 8.8-2.7 11.3.6 3.2 4.5-2.5 9.8-7.5 12.2C592.2 538.2 461.4 601.6 330.8 665c-3.9 2-5.6 6.5-7 10.6-5.1 15.5-10.1 31-15.2 46.5-2.8 8.5-4.5 20.1 3.3 24.6 30.4 17.4 52.5 49.3 56.2 84s-11.9 71.5-40.7 91.3c-28.9 19.8-69.9 20.9-98.7 1.1-30.9-21.2-43.8-62.1-39.4-99.3s23.9-70.9 46.9-100.5c4.1-5.2 8.5-12.2 5.3-18-30.2 14.6-61.8 26.5-94 35.8-15.7 4.6-32.7 8.3-48.2 3.2-13.7-4.6-24.6-15.6-31.6-28.3m83.1-145c-11.3-.3-22.4 3.8-32.1 9.5C81.6 601.8 61 648.2 69.6 690c2.1 10.3 6 20.4 13 28.3 12 13.3 31.3 17.8 49 16s34.4-9.1 50.7-16.4C316 658.2 448.7 596.8 580.7 533.4c3.2-1.6 6.9-5.6 4.2-8-51.2 24.5-104.4 44.9-157.5 65.2l-216.9 83.1c-.7.3-1.5.6-2.3.6-5.5.5-6.3-7.6-5.3-13 3.7-19.5 3.1-40.4-5.6-58.2-8.7-17.6-26.7-31.7-46.5-32.1m76.1 334.6c24.1 22.2 63.7 24.4 91.2 6.7 27.6-17.6 42.1-52.8 37.2-85.4-4.9-32.4-28-61-57.8-74.8-6.7-3.2-5.7-13-3.4-20.2 6.2-19.4 12.4-38.9 18.6-58.3-24.5 3.3-47.1 18.1-59.8 39.4-17.8 30.5-38.1 60.2-47.3 94.3-9.2 33.9-4.6 74.3 21.3 98.3m227.6-569.7c-3-1.6-6 2-7.4 4.9C400.4 434.9 354 529 307.3 623.1c17.1-3.4 37.2-9.2 42.8-25.6 30.6-88.8 65.5-176.2 104.4-261.6zM829.9 216.6c6.5 1.2 13.5.6 19.7-2 7-2.9 15.7.5 19.7 7s3.4 15.1-.7 21.5-11.4 10.4-18.9 11.3c-3 .4-6.1.3-8.6-1.5s-3.6-5.5-1.6-7.8c1.1-1.2 2.6-1.7 4.3-2.1 3.1-.8 6.3-1.4 9-3s5-4.5 4.8-7.7c-.3-3.2-4-5.9-6.8-4.4-8.4 4.4-19.3 4.2-27-1.7-7.6-5.7-11-16.7-7-25.5 4-8.7 15.2-13.4 23.9-9.4 2.8 1.2 5.4 3.5 5.8 6.5.4 3.1-2.3 6.4-5.2 5.7-7.1-1.6-14.5 6.7-11.4 13.1zM644.3 297.1c1.4 2.3 3.7 3.8 5.2 5.8 1.6 2.1 2.1 5.4 0 7-6.3.5-11.5-4.4-15.7-8.8-8.6-8.9-17.1-17.9-25.8-26.8-1.8-1.9-3.8-4-4.7-6.5-.6-1.8-.6-3.8-.4-5.7 1.7-12.9 17.6-21.3 29.8-16.5s18.5 20.1 14.5 32.4c-2 6.4-6.3 13.3-2.9 19.1m-22.2-24.4c2.5 3.1 6.1 6.5 9.7 5.2 3-1.1 4.1-4.9 4.1-8.2-.1-4.8-2.1-9.8-6.1-12.3-4.1-2.4-10.6-.9-11.9 3.7-1.2 4.1 1.6 8.2 4.2 11.6zM586.5 414.5c7 8.3 14.1 16.8 20.9 25.2 2.9 3.4 6 7.9 4.3 12.2-1.9 4.9-9.4 6.3-10.6 11.5-1.1 5-5.9 8.5-10.9 9.2s-10.1-1.2-14.3-3.8c-9.5-5.9-15.8-15.8-21.7-25.3-2.5-3.9-4.4-10.3-.2-12.4 3.5-1.8 7.3 1.9 9.7 5.1 3.6 5 7.2 9.9 10.8 15 2.1 2.8 4.5 5.9 7.8 6.6 5.8 1.3 10.9-5.4 10.4-11.5s-4.8-11-9-15.3c-4.1-4.4-8.7-8.8-10.1-14.7-.5-1.7-.5-3.7.5-5.2 1.4-2 4.5-2.3 6.7-1.4 2.5 1 4.2 2.8 5.7 4.8zM725.4 316.4c-2-4.3-7-7.2-11.8-6.9-4.8.5-9.2 4-10.5 8.7-.6 2.3-3.6 3.3-5.8 2.6-2.2-.7-3.8-3-4.4-5.3-2.3-7.4 3-15.5 10-18.4 7.2-2.7 15.4-.9 22 2.9s11.8 9.6 17 15.4c3.5 3.9 7.2 8.4 6.6 13.7-.2 1.8-1 3.5-1.9 5.2-3.3 6.2-8.3 11.9-14.9 14.5-6.6 2.6-14.9 1.3-19.4-4.1-3.5-4.1-4.1-10.4-1.8-15.1 2.4-4.8 7.8-8 13.2-7.8 2.1.1 2.7-3.3 1.7-5.4m-3.8 21.7c4-.4 8.3-1.1 11.3-3.6 3.1-2.6 4.3-7.9 1.4-10.6-4.8 3.8-9.5 7.8-14.2 11.6.4 1 1 1.8 1.5 2.6zM564.5 299c-.8-2.6.5-5.3 1.7-7.7 2.7-5.2 5.7-10.5 10.7-13.7 9.1-5.9 22.5-1 27.8 8.5 5.3 9.4 3.7 21.7-1.8 31.1-1.9 3.2.6 7.3 3.5 9.6s6.4 4.4 7.7 7.9c1.2 3.6-2.6 8.4-5.7 6.2-15.6-11-29.8-24.1-42-39-.8-.7-1.5-1.8-1.9-2.9m22.7 8.7c2 1 4.6 1.4 6.2 0 1.1-1 1.6-2.5 2-4 1.3-6 .4-14.1-5.4-16-4.8-1.7-10.3 2.9-10.6 7.9-.5 5 3.1 10 7.8 12.1zM616 392.9c-2 8.5 5.8 15.9 12.9 21.2 2.2 1.6 4.9 3.3 7.4 2.2 3.6-1.5 3.1-7.2 6.2-9.5 3.9-2.9 9.3 2.1 10 7.1.8 5.6-1.6 11.5-6 15s-10.6 4.7-15.9 2.9c-12.3-4.2-17-21.3-29.6-24.1-2-.4-4-.5-5.9-1.4-1.8-1-3.3-3.1-2.4-5 1.4-3.3-.3-6.9-1.5-10.3s-1.5-7.9 1.5-9.9c1.6-1 3.5-1 5.5-.9 4.2.2 8.7.4 12.3 2.4 3.5 1.9 6.4 6.2 5.5 10.3zM709.5 194.4c-1.2-1.3-2.4-2.7-4.3-3.1-4.2-1.2-7.7 4-7.8 8.5-.1 3.2.6 6.4 2.1 9.1 2.1 4.1 5.8 7.1 8.6 10.7 2.9 3.6 5 8.3 3.6 12.6-6.9-.6-12.4-5.8-17.3-10.7-5.1-5.1-10.1-10.1-15.2-15.3-1.9-1.8-4-4.3-3.4-6.9.8-3.9 6.1-4.3 9.1-7 3.2-2.8 3.5-7.9 6.1-11.2 3.4-4.1 9.7-4.6 14.6-2.4s8.6 6.2 12.1 10.1c4.3 4.7 8.5 9.5 12.8 14.2 2.2 2.4 4.5 5.2 4.3 8.5s-4.5 5.9-6.8 3.6c-6-7-12.2-13.8-18.5-20.7zM520.7 382.2c4.8-.6 6.8 6.2 5.5 10.9-4 14.1-22.6 20.9-35.9 14.8-9.6-4.5-16.5-14.4-17.2-24.9-.8-10.6 4.8-21.3 13.7-27 3.5-2.3 8.1-3.7 12-2.1 3.8 1.7 5.6 7.7 2.2 10.2-2.3 1.8-5.5 1-8.4 1.7-4.5 1-7.4 5.6-8.3 10.1-1.7 7.7 1.6 16.6 8.4 20.5s16.9 1.8 20.8-5c1.9-3.7 3.2-8.7 7.2-9.2zM558.9 479.6c.8-2.8 4.9-3.6 7.3-2 2.4 1.7 3.3 4.9 3.1 7.8-.6 11.4-13.9 19-25.1 17-8.6-1.6-16.2-7.5-20.4-15-4.2-7.7-5.1-16.9-3-25.4 2.2-8.9 10.1-17.9 18.8-15.6 2.9.8 5.9 3.5 5.4 6.6-.8 4.5-7.3 5.1-10.3 8.8-1.7 2.1-2.1 4.9-2.2 7.5-.3 4.9 0 10.3 2.8 14.3 2.8 4.2 8.1 6.4 13.1 5.5 4.8-.9 9.2-4.7 10.5-9.5zM757.4 268.4c-8.8 7.6-9.9 22.4-2.4 31.2 3.4 3.8 9.7 3.4 14 .8s7.4-6.9 11.1-10.5c.8-.8 1.6-1.5 2.7-1.8 2.3-.6 4.7 1.5 5.3 3.7.6 2.3-.1 4.8-1 7-2.9 7.3-7.8 14.2-15.2 16.9-8.2 2.9-17.7-.3-23.8-6.4s-9.4-14.7-11-23.2c-.8-4.5-1.2-9.2.1-13.7s4.6-8.6 9-9.7c4.6-1.2 10 1.2 11.2 5.7zM515.2 335.6c2.1-2.7 3.1-6.2 5.4-8.8s6.4-4.2 9-2c2.1 1.7 2.1 4.9 1.3 7.4s-2.4 4.8-3.2 7.3c-1.6 5.3.4 11.1 3.5 15.7 3.2 4.5 7.5 8.2 11.3 12.3 2.6 2.9 5 7.2 2.9 10.5-5.3 1.3-10.1-2.9-13.8-7-5.5-6-10.9-11.9-16.5-17.8-2.7-2.8-5.6-6.4-4.7-10.3.5-3 3-5 4.8-7.3zM541.7 313.6c.5-3.1 4.6-4.5 7.5-3.5s5.1 3.6 7.1 5.9c7.7 9.4 15.4 18.7 23.1 28.1 1.8 2.2 3.4 6 .9 7.3-6 2.4-12-3-16.1-7.9-6.6-7.9-13.2-15.7-19.8-23.6-1.5-1.8-3.2-3.9-2.7-6.3zM625.3 212.1c.7-2.7 4.1-3.7 6.7-2.9s4.5 3.1 6.2 5.1c12.4 14.6 24.7 29.2 37.1 43.9 1.8 2.1-.7 5.5-3.5 5.5s-5-1.9-7-3.7c-13.8-12.7-26.3-26.9-37.4-42-1.4-1.8-2.6-3.8-2.1-5.9zM687.1 243.1c-2.4 1.7-5.5-.6-7.6-2.6-5.9-5.8-11.8-11.8-17.8-17.5-3.3-3.3-6.7-8.7-3.4-12 3.4-3.3 8.9.3 12 4 5.4 6.2 10.7 12.6 15.6 19 2.2 2.8 4 7.3 1.2 9.1zM642 196.6c.9 3.2 5.7 4.5 8.1 2 2.3-2.5 1-7.2-2.3-8-3.2-.9-6.7 2.7-5.8 6zM530.6 300.4c-.6 3.1 3 6.3 6.1 5.3 3-1.1 4-5.8 1.5-7.9s-7-.5-7.6 2.6zM306.4 655.2c3.3-1.5 4-6.7 1-8.9s-7.9-.1-8.3 3.5c-.4 3.6 4 6.9 7.3 5.4zM291.7 774.4c24.2 13.8 39.3 42.4 36 69.9-3.3 27.6-25.8 52.1-53.2 56.5-14.1 2.2-28.8-3.6-39.2-13.5s-16.6-23.5-19.9-37.3c-4.4-18.8-3.3-39.5 6.2-56.1 9.5-16.8 28.4-28.7 47.7-27 8.1.7 15.6 3.5 22.4 7.5m22.8 61c0-9.9-2.9-19.8-8-28.4-7-12.1-18.7-21.9-32.2-25-13.6-3.2-29.1.7-38.3 11.3-9.9 11.2-11.5 27.5-10.2 42.3 1.1 12.2 4.1 24.5 11 34.5s18.3 17.6 30.6 17.6c5.2-.1 10.2-1.2 15-3.3 19-8.1 32.3-28.2 32.1-49zM178.6 618.7c5.1 8 8.2 17.6 7.1 27-.8 6.7-3.8 13-6.8 18.9-9.7 18.9-23.2 38.6-44.1 43.3-16.7 3.9-34.9-3.9-45.2-17.5s-12.8-32.3-7.8-48.8c4.9-16.3 16.7-30.3 31.2-39.2 5.4-3.4 11.4-6.1 17.6-7.4 18.5-3.4 37.8 7.7 48 23.7m-9.6 34.7c1.6-4.6 2.8-9.5 2.7-14.3-.3-15.9-15.2-29.2-31.1-30.2-15.8-1.1-31.2 8.1-40.3 21.1-9.4 13.5-12.7 32.2-5.2 46.9 7.5 14.8 26.9 23.3 41.9 16.3 3.6-1.7 6.8-4.1 9.7-6.7 10.2-8.8 18-20.4 22.3-33.1z"/></svg>