<svg xmlns="http://www.w3.org/2000/svg" viewBox="-15 211 1015 458" enable-background="new -15 211 1015 458"><path fill="#FEDB48" d="M325.4 443.8L816.1 211H-15v458h826.6z"/><g fill="#13110C"><path d="M929.8 438.5c1.4 8.6-3 17.8-10.4 22.3s-17.7 4-24.6-1.3c-2.8-2.1-5.2-6.1-3.5-9.1 2.6-4.3 9.1-1.3 14.3-.8 5.4.5 11.4-3.6 11.5-9.2.3-5.5-6.7-10.1-11.3-7.1-8.3 5.7-20.6.4-24.8-8.8-4.2-9.1-1.9-20 3-28.7 3-5.5 7.3-10.5 13.1-12.9 9.2-3.8 19.8.3 29 4.2 1.3.6 2.7 1.1 3.7 2.1 3.5 3.2 2.3 9 1.3 13.6-2.8 11.7-3.1 23.8-1.3 35.7m-27.9-17.3c6.5-.6 12.9-4.2 15.7-9.9 2.8-5.9.7-14-5.2-16.6-7.1-3.3-15.3 2.3-19.7 8.7-2.8 3.9-4.8 9.1-2.5 13.2 2.1 3.8 7.3 5 11.7 4.6zM721.1 454.5c-1 3.8 2.3 7.6 6.1 9.1 3.7 1.5 7.9 1.6 11.5 3.2 6.2 2.7 10.2 9.2 11.4 15.9 1.2 6.7.1 13.6-1.4 20.4-1.4 6.1-3.3 12.6-8.3 16.5-2.5 2-5.8 3.1-8.9 4.1-4.5 1.6-9.5 3-14 1.4-7.9-3-9.2-13.6-9.1-22 0-13.4.2-26.8.2-40.4 0-4.2.3-9.1 3.5-11.9 3.5-2.8 10.2-.4 9 3.7m16 48.4c2.3-4.7 3.4-10.2 1.7-15.1s-6.4-9-11.7-8.4c-5.2.4-9.5 6.5-7.2 11.2 2.5 5.7-2.5 13.3 1.3 18.2 2.1 2.7 6.3 3 9.3 1.6 2.9-1.5 5.1-4.5 6.6-7.5zM864.2 536.2c-3.8-6.4-3.5-14.4-3-21.7.8-11.7 1.6-23.3 2.3-35 .2-2.5.4-4.9.9-7.3.6-3.2 2.6-6.6 5.9-6.9 3.5-.4 6.2 3.3 6.7 6.7.3 3.5-.8 6.9-1.1 10.5-.4 3.5.5 7.6 3.4 9.3 5.9-3 12-5.9 17.9-8.8 1.2-.5 2.3-1.2 3.7-1.2 3.7-.1 5.9 4.7 4.9 8.2-1.1 3.5-4.5 5.9-7.8 7.5-3.3 1.7-6.9 3-9.5 5.7-2.6 2.6-3.7 7.4-1.3 10 3.7 4.1 7.1 8.3 10.8 12.4 2.7 3.1 5.6 7.7 3 11.1-3 4-9.4 1.1-12.9-2.5-5.3-5.3-9.9-11.6-13.3-18.1-1.7-.1-3.4-.4-5.1-.6-.3 4.4 2.1 8.6 2.5 13 0 4.5-4.1 9.7-8 7.7zM38.5 315.5c11.5-41.8 54.2-70.1 97.4-74.3 32.2-3.2 69 8.2 82.7 37.4 7.9 16.8 6.5 37.1-.5 54.4s-19.2 32-32.5 45c14.7 7.9 29.5 15.9 44.3 23.7 9.1 4.8 18.7 9.7 29.1 10 7.8.2 15.7-2.4 23.3-4.9 136.5-46.2 273.2-92.3 409.6-138.2 4.1 5.4-2.9 12-9 14.9C565.6 340.9 441 383 325.4 443.8c117.7 51 235.6 101.8 353.3 152.7 3.7 1.6 8.1 4.3 7.6 8.4-.9 5.4-8.7 5.2-13.9 3.3-137.3-47.5-274.6-95.2-411.8-142.7-4.2-1.3-8.6.6-12.4 2.5-14.6 7.4-29.1 14.8-43.6 22.1-8 4-17.4 11-15.1 19.7 9.2 33.8 2.3 72-19.7 99.1-21.9 27.2-59 42.1-93.3 35.8-34.4-6.4-64.2-34.6-70.6-69-6.9-36.7 12.9-74.8 42.3-98s67-33.2 104.2-37.9c6.6-.8 14.6-2.6 16.5-9-31.7-11-62.4-25-91.8-41.2-14.4-7.8-29-17.3-36.3-31.8-6.4-12.9-6.3-28.3-2.3-42.3m161.3-43.7c-7.8-8.2-18.5-13.2-29.4-16-41.3-11.2-88.7 7.1-112.1 42.7-5.8 8.8-10.2 18.7-10.8 29.2-.9 17.9 9.5 34.7 23.3 46s30.8 17.9 47.4 24.3c136.8 52.3 274 102.7 412.2 151.3 3.4 1.1 8.8.9 8.6-2.7-53.5-18.9-105.6-42.1-157.5-65.3-70.7-31.5-141.4-63.1-212.1-94.6-.7-.3-1.5-.6-2.1-1.2-4.2-3.5.9-9.8 5.4-12.9 16.4-11.2 30.8-26.4 37.2-45.1 6.4-18.8 3.6-41.5-10.1-55.7M17 562.2c1.3 32.7 27.8 62.3 59.8 69.2 32 7.1 67.1-7.6 86.7-34.1 19.4-26.4 23.3-62.9 12-93.8-2.5-7 5.2-13.2 11.9-16.7 18.1-9.3 36.3-18.7 54.4-28.1-19.7-15-46.1-20.5-70.1-14.4-34.2 9-69.5 15.6-100.1 33.2-30.6 17.6-56 49.4-54.6 84.7m563.8-241.9c-1-3.3-5.7-2.8-8.7-1.8-99.6 33.5-198.9 67.2-298.5 100.8 14.5 9.7 32.8 19.8 48.4 12.2 84.4-41.2 170.9-78.3 258.8-111.2zM930.6 501.4c3.7 5.4 9.1 10 15.3 12.5 7 2.9 10.7 11.5 9 18.9-1.8 7.4-8.3 13.1-15.7 14.7-7.4 1.6-15.4-.7-21.4-5.4-2.4-1.8-4.5-4.1-5-7.1s1.3-6.4 4.4-6.6c1.6-.1 3 .6 4.5 1.6 2.8 1.6 5.4 3.5 8.5 4.2 3 .8 6.7.4 8.8-2.1 2.1-2.5 1.3-7-1.7-7.9-9.1-2.8-16.6-10.7-17.9-20.3-1.3-9.4 4-19.6 13.1-23 9-3.3 20.2 1.3 23.5 10.3 1.1 2.8 1.3 6.3-.5 8.7-1.9 2.5-6.2 2.9-7.7.4-3.8-6.3-14.9-5.7-17.2 1.1zM742.4 427c-.6 2.6-.1 5.3-.4 7.8-.4 2.6-2.3 5.3-4.9 4.9-4.8-4.1-5-11.2-4.9-17.3.2-12.4.6-24.7.7-37.2.1-2.6.1-5.5 1.3-7.9.8-1.7 2.3-3.1 3.7-4.3 10.3-7.9 27.5-2.6 32.7 9.4 5.2 12-1.1 27.3-12.7 33.2-5.9 3.1-13.8 4.9-15.5 11.4m1.6-32.9c-.4 4-.3 8.9 3.2 10.5 2.9 1.3 6.4-.6 8.7-2.9 3.3-3.5 5.4-8.4 4.4-13-1.2-4.6-6.9-8.1-11-5.8-3.8 2.1-4.8 6.9-5.3 11.2zM618.5 469.2c-.9 10.8-1.9 21.8-3 32.6-.4 4.5-1.3 9.8-5.6 11.7-4.8 2.1-11.1-2.2-15.6.6-4.3 2.8-10.2 1.8-14.2-1.2s-6.3-8-7.4-12.8c-2.5-10.9 0-22.3 2.5-33.2 1-4.5 4.2-10.4 8.6-8.9 3.7 1.2 3.8 6.5 3.3 10.5-1 6.1-1.9 12.1-3 18.2-.5 3.5-1 7.4.8 10.2 3.2 5 11.5 3.9 15.5-.8s4.4-11.2 4.5-17.2c.2-6 .1-12.4 3.3-17.5.8-1.6 2.3-3 4-3.3 2.4-.4 4.8 1.6 5.7 3.7 1 2.4 1 4.9.6 7.4zM786.1 498c1.6-4.5.1-10-3.5-13.2-3.7-3-9.3-3.7-13.6-1.3-2.1 1.2-4.9-.2-5.9-2.3-1.1-2.1-.6-4.8.6-6.9 3.6-6.9 13.1-8.8 20.1-5.9 7 3.2 11.5 10.3 13.5 17.6 2 7.4 1.6 15.1 1.1 22.9-.3 5.2-.8 11-5 14.4-1.4 1.1-3.2 1.8-5 2.3-6.7 2.1-14.3 2.5-20.8-.3s-11.5-9.6-10.8-16.6c.4-5.4 4.5-10.3 9.4-12 5.1-1.7 11.2-.1 14.8 3.8 1.5 1.7 4.3-.3 5.1-2.5m-18 12.7c3.1 2.5 6.6 5.1 10.5 5.4 4 .4 8.6-2.5 8.5-6.5-6.1-.7-12.2-1.2-18.2-1.8-.5 1-.6 2-.8 2.9zM684.6 372c1.3-2.4 4.1-3.4 6.6-4.2 5.6-1.8 11.5-3.4 17.3-2.1 10.6 2.3 16.6 15.2 13.6 25.7-2.9 10.4-12.7 18-23.3 20.7-3.6.9-4.7 5.6-4.3 9.3.4 3.7 1.4 7.6-.1 11-1.7 3.4-7.8 4.1-8.4.4-3.3-18.8-4-38.1-2.1-57.3 0-1.2.2-2.5.7-3.5m9.9 22.2c.7 2.1 2.3 4.2 4.4 4.4 1.5.1 2.9-.6 4.2-1.4 5.2-3.3 10.3-9.7 7.5-15.1-2.2-4.6-9.3-5.2-13.1-1.9-3.8 3.1-4.8 9.2-3 14zM654.7 474.8c-7.4 4.6-7.1 15.3-5.9 24.1.4 2.7 1.1 5.8 3.7 6.8 3.6 1.5 7.3-2.9 11.1-2.3 4.8.7 5.1 8.1 2.1 12.1-3.4 4.5-9.3 7-14.8 6.4-5.6-.6-10.8-4.2-13.3-9.2-5.7-11.7 3-27.1-3.9-38-1.1-1.7-2.5-3.2-3.2-5.2-.6-2-.1-4.5 1.8-5.2 3.3-1.3 4.7-5.1 6.2-8.3 1.6-3.3 4.5-6.6 8.1-5.9 1.8.4 3.2 1.8 4.5 3.3 2.8 3.1 5.9 6.4 7 10.4 1.1 3.6.1 8.7-3.4 11zM861.1 400.5c.1-1.8.2-3.6-.8-5.2-2.1-3.8-8.3-2.6-11.5.5-2.3 2.2-4.1 4.9-4.9 7.9-1.4 4.4-.9 9.1-1.5 13.6-.5 4.6-2.3 9.4-6.4 11.5-4.5-5.3-4.7-12.9-4.7-19.8 0-7.2 0-14.3.1-21.6-.1-2.6.2-5.9 2.5-7.3 3.3-2.2 7.4 1.3 11.4 1.5 4.2.3 8.1-3.1 12.2-3.6 5.3-.5 10.1 3.6 12 8.6 1.9 5 1.7 10.5 1.4 15.7-.3 6.4-.7 12.7-1 19.1-.1 3.3-.5 6.9-3 9.1-2.5 2.2-7.4 1-7.4-2.3.8-9.1 1.2-18.3 1.6-27.7zM594.8 399.8c3.8 3 .4 9.2-3.8 11.6-12.8 7.1-30.8-1.2-35.9-14.9-3.6-10-1.5-21.8 5.4-29.8 6.9-8.1 18.5-11.7 28.8-9.4 4.1.8 8.3 3.1 10 7 1.5 3.9-1.5 9.4-5.7 8.8-2.9-.4-4.6-3.2-7.1-4.7-3.9-2.5-9.2-1.3-13 1.3-6.6 4.2-10.6 12.9-8.6 20.4 2.1 7.6 10.7 13.2 18.2 11.2 4.1-1.3 8.6-4 11.7-1.5zM553 495.7c2.5-1.4 6 .9 6.6 3.7.5 2.9-1.1 5.8-3.3 7.7-8.5 7.6-23.3 3.6-29.8-5.7-4.9-7.2-6.2-16.8-3.8-25 2.5-8.4 8.3-15.6 15.8-20.1 7.8-4.7 19.8-5.5 24.3 2.3 1.5 2.6 1.7 6.6-.8 8.5-3.7 2.6-8.8-1.6-13.5-1.1-2.7.3-4.9 2-6.9 3.7-3.7 3.3-7.3 7.3-8.1 12.1-1 4.9 1.2 10.3 5.4 13.2 4 2.8 9.8 3.2 14.1.7zM842.7 486.7c-11.6-.8-22.8 8.8-23.8 20.4-.3 5.1 4.5 9.3 9.3 10.5 4.9 1.2 10.1.4 15.3.4 1.1 0 2.2.1 3.2.6 2.1 1.2 2.3 4.4 1.1 6.4-1.2 2.1-3.5 3.3-5.7 4.2-7.2 3.1-15.6 4.5-22.7 1.2-7.8-3.7-12.3-12.7-12.3-21.4 0-8.6 3.7-17 8.6-24.2 2.6-3.7 5.7-7.4 9.8-9.6 4.1-2.3 9.3-2.8 13.2-.5 4.2 2.5 6.3 8 4 12zM623.9 363c3.4-.4 6.6-2.2 10-2.4 3.5-.2 7.5 1.6 7.8 4.9.3 2.7-2 4.9-4.3 6.2-2.3 1.2-5.1 1.7-7.4 2.9-4.9 2.6-7.6 8.1-8.6 13.6-.9 5.4-.5 11.1-.7 16.7-.2 3.9-1.6 8.6-5.4 9.5-4.7-2.8-5.1-9.2-4.8-14.7.4-8.1.7-16.1.9-24.3.1-3.9.6-8.5 4-10.6 2.4-1.8 5.6-1.5 8.5-1.8zM658.2 366.2c2.5-1.8 6.4.1 7.8 2.8 1.3 2.8 1.1 6.2.8 9.2-1.2 12.1-2.3 24.1-3.5 36.2-.3 2.8-1.8 6.6-4.5 5.8-5.9-2.5-6.4-10.6-5.8-17 .9-10.3 1.8-20.4 2.7-30.7.2-2.3.4-5 2.5-6.3zM789.1 353.5c2.4-1.4 5.5.3 6.8 2.7 1.3 2.4 1 5.4.8 8-1.6 19.1-3.2 38.1-4.8 57.3-.2 2.8-4.4 3.4-6.4 1.4s-2.2-4.9-2.3-7.6c-.8-18.7.4-37.6 3.3-56.1.2-2.3.7-4.6 2.6-5.7zM810.9 419.1c-2.9-.5-3.5-4.3-3.5-7.2-.1-8.3 0-16.7-.2-25 0-4.7 1.4-10.9 6.1-10.9 4.7.1 6.1 6.5 5.7 11.3-.6 8.2-1.3 16.5-2.4 24.5-.6 3.6-2.5 8-5.7 7.3zM811.8 354.4c-1.6 2.9.8 7.2 4.3 7.1 3.4-.1 5.8-4.4 4-7.3-1.5-2.9-6.6-2.8-8.3.2zM659.7 349c-2.6 1.8-2.3 6.6.6 8.1 2.9 1.3 6.9-1.3 6.6-4.5-.3-3.3-4.6-5.4-7.2-3.6zM250.3 441.3c3.4 1.3 7.6-1.9 7-5.6-.6-3.7-5.5-5.7-8.3-3.4-2.9 2.3-2.1 7.8 1.3 9zM155.6 515.2c7.4 26.9-2.2 57.8-24 74.9-21.8 17.2-55.1 18.6-77.6 2.3-11.5-8.4-17.8-22.9-18.2-37.3-.4-14.4 4.9-28.4 12.3-40.4 10.2-16.4 25.6-30.3 44.1-35.3 18.6-5.2 40.4-.2 52.8 14.6 5.3 6.3 8.6 13.6 10.6 21.2m-27 59.3c7-7 12-16.1 14.4-25.7 3.6-13.5 2.3-28.7-5.1-40.4-7.4-11.9-21.1-20.1-35.1-19.1-14.9.9-27.6 11.3-37.1 22.7-7.8 9.4-14.4 20.2-16.6 32.2-2.2 12 .5 25.4 9.2 34.1 3.7 3.6 8.1 6.4 12.9 8.3 19.2 7.5 42.8 2.7 57.4-12.1zM185.7 325.1c-2.1 9.3-6.6 18.2-14.1 24.1-5.3 4.2-11.9 6.5-18.2 8.6-20.2 6.5-43.7 10.9-61.8-.6-14.6-9.1-21.9-27.4-19.6-44.3 2.3-16.9 13.8-31.9 29-40 15-8.1 33.2-9.6 49.8-5.7 6.2 1.4 12.4 3.7 17.7 7.2 15.5 10.7 21.3 32.2 17.2 50.7m-31.3 17.8c4.4-2.1 8.7-4.7 12-8.2 11-11.5 9.9-31.4-.6-43.3-10.4-12-27.8-16.3-43.4-13.6-16.2 2.9-31.7 13.8-36.8 29.5-5.2 15.8 2.5 35.5 18.1 41.2 3.7 1.3 7.7 1.9 11.6 2.1 13.3.9 27.1-1.8 39.1-7.7z"/></g></svg>