<svg xmlns="http://www.w3.org/2000/svg" viewBox="0 0 563.9 713.4" enable-background="new 0 0 563.9 713.4"><g fill="#13110C"><path d="M153 253.5c-2.5 6.2-5.1 12.5-9.2 17.7-4.2 5.2-10.3 9.2-17 9.3-5.6 0-10.8-2.7-15.6-5.6-13.4-8.1-25.6-18.3-36-30.1-2.3-2.6-7.1.2-7.3 3.7-.3 3.5 2.1 6.5 4.5 9 10.4 11 22.6 20.3 36.1 27.2 5.1 2.6 10.5 4.9 16.1 5.5 16.1 1.7 31.1-11.2 36.5-26.5 1.1-3.2 1.9-6.9.1-9.8-1.8-2.9-7-3.5-8.2-.4zM540.4 157.3c-2-3.4-6.2-3.7-8.9-.8-20.8 21.6-37.1 46.9-57.1 69.2-18.9 21-41.9 39.8-69.4 46.1 32.6-45 67.9-88.1 105.5-129.1 4-4.3.5-11.3-5.3-10.6-4.7.5-8.2 4.5-11.2 8.2-30.3 37.4-60.6 74.7-90.9 112.1-5.4 6.6-14.8 13.7-21.2 8.1-6.1-5.3-1.3-15.2 3.7-21.5 31.9-40.3 63.8-80.6 95.7-121-1.3-4-6.7-5.4-10.6-3.9-3.9 1.5-6.7 5-9.3 8.3C431.6 161 401 202.2 368.6 237c-3.1-17.1 7.4-33.6 17.7-47.7 21.9-30.2 44.9-59.7 68.7-88.4 2.8-3.3.3-8.5-4.1-8.2-3.7.2-6.6 3.3-9 6.1-27.8 32.1-55.9 64.6-75.3 102.3-25.5 49.6-37.1 109.5-80.2 145 .3-101.9.7-203.8 1-305.7 0-11-2.1-25-12.7-27.7-10.8-2.8-19.5 8.9-24.3 19-40.9 87.7-46.7 191.1-15.9 282.8 7.5 22.4 17.3 45.7 12.8 69-20.4-32.2-40.3-65.2-52.5-101.3-10-29.4-14.8-60.4-25.1-89.7-10.4-29.3-27.7-57.8-55.2-72.3-27.5-14.5-66.4-10-83.4 16-7.8 11.9-10.2 26.6-10.5 40.8-.8 43.5 18.8 88 54.5 112.9 19.3 13.5 42.1 20.9 63.2 31.4 35.5 17.8 66.2 45.1 88.1 78.3 3.6 5.5 6.8 13.3 2.3 18.1-36 37.3-72 74.7-108.1 112-16.7 17.3-33.6 34.8-46.9 54.9-6.7 10-12.6 21.1-13.3 33.1-.7 12 5 25.1 16.1 29.8 15.9 6.7 33.1-5.6 44.8-18.3 51-55.2 76.6-130.3 128.9-184.3l-1.5 189.3c-.1 14-.1 28.7 6.5 41.1 6.6 12.4 22 21.3 34.9 15.7 15.8-6.8 17.3-28.3 16.3-45.5-2.8-47.4-5.6-94.9-8.4-142.3 23.1 36.2 46.2 72.5 69.3 108.7 14.9 23.4 33.5 49.2 62 50.2 3.2.1 6.3-.4 9.1-1.9 12.5-6.7 7.9-23.3 1.5-34.5-16-28-37.4-52.5-58.7-76.7-19.6-22.3-39.1-44.6-58.7-66.8-15.9-18.1-32.7-38.4-33.1-62.4-.4-25.2 17.1-46.7 34-65.4 17.5-19.4 35.5-38.7 57.1-53.4 22.1-15.1 47.4-25 69.6-39.8 36.9-24.7 63.4-61.7 89.2-97.8 1.2-1.7 2.6-3.7 1.1-6.1zm-313 58.7c-2.9-65.2 5.6-133 39.2-189 1-1.7 2.2-3.5 4-4.2 1.9-.7 4.5.4 4.4 2.4-2.5 103-2.6 206-.3 308.9.2 9 .4 18.1 3.3 26.6 2.3 7.1 2.6 14.7 2.8 22.2.5 15.8 1 31.7 1.5 47.5-10-15.2-20-30.3-30-45.5 9.3-12.9 10.7-31 3.4-45.1-19.7-37.9-26.4-81.1-28.3-123.8zm19.8 211.9c-.4 3.2-2.7 5.7-4.9 8-52.9 56.3-80.8 132.3-132.5 189.7-7.9 8.7-20 17.7-30.3 12-6-3.3-8.7-10.8-8.3-17.6s3.6-13.2 7-19.1c6-10.7 12.9-21 20.5-30.6 9.4-11.9 20.1-22.8 30.6-33.7 36.4-37.5 72.9-75 109.3-112.5.9-1 1.9-2 3.2-2.3 3.1-.8 5.8 2.9 5.4 6.1zm40.2 252.5c-7.4 3.2-16.4-1.6-20.5-8.5-4.2-6.9-4.7-15.4-5.1-23.5-.9-17.9-1.4-35.8-1.7-53.7-.7-47.9.3-95.8 3.1-143.6 13.8 11.6 22.3 29.4 22.7 47.5 1 51 4.5 102 10.5 152.7 1.2 10.9 1 24.8-9 29.1zm81.8-127c23 26.5 46.8 52.7 64.6 82.9 2.2 3.8 4.3 8.9 1.5 12.4-2.2 2.7-6.2 2.8-9.5 2.2-17.6-3-30.1-18.5-40.4-33.1C328 536.4 282.7 446 217.1 370.9c-16.7-19.1-35-37.4-57-50.1-22.6-13-48.5-19.8-70.6-33.7-36-22.7-59-64.7-58.6-107.3.1-13.1 2.4-26.5 8.8-37.9 6.5-11.4 17.6-20.6 30.5-22.7 16.5-2.6 32.7 6.4 45.5 17.1 23.1 19.4 40.5 45.6 49.3 74.5 5.7 18.8 7.9 38.5 12.7 57.5 11.9 47.2 39.3 88.7 67.7 128.3 38.8 54.2 80.2 106.5 123.8 156.8zm-81.7-172.2c12.5-46.2 60.5-80.5 68-125.6.4-2.3 1.9-4.7 3.6-7 7.2 11.8 20.4 24.2 30.8 33-39.6 26.8-74.5 60.7-102.4 99.6z"/></g></svg>