<svg xmlns="http://www.w3.org/2000/svg" viewBox="0 0 1000 1000" enable-background="new 0 0 1000 1000"><desc xmlns:shape="http://adobe.com/products/shape"><shape:version>1.0.1</shape:version><shape:captureDetail>0.750000</shape:captureDetail><shape:source>1</shape:source></desc><path fill="#010101" d="M438.6 78.2c38.8-4.2 78.6-1.9 115.7 9.9 37.2 11.8 71.6 33.5 95.9 64 29.7 37.3 42.7 85.7 46.1 133.3 1.6 22.9 1.2 46-3.2 68.5-4.2 21.5-11.9 42.2-20.5 62.3-6.3 14.8-13.2 29.4-22.1 42.7-21.1 31.4-53.4 54.4-88.9 67.3C526.1 539 487.4 542 449.8 538c-38.8-4.2-77.2-15.9-110.3-36.6-33.1-20.8-60.7-50.9-76-86.9-9.6-22.7-14.2-47.3-16.5-71.9-4.1-44.8-.5-90.8 15.2-132.9 15.8-42.1 44.3-80.1 83-103 28.5-16.8 60.9-25 93.4-28.5m88.4 445c43.6-7.5 83-33.4 110.3-68.2 27.3-34.8 42.9-78 48-121.9 5.9-51.4-2.5-105.1-28.3-149.8-25.9-44.8-70-79.7-120.7-89.9-9.7-1.9-19.5-3-29.3-3.8-55.7-4.5-114.9 0-161.8 30.4-35.4 23-61 59.4-74.8 99.2-13.8 39.9-16.3 83.1-11.5 125 2.9 25.7 8.6 51.3 20.1 74.4 18.6 37.4 52 66.4 89.9 83.8 37.9 17.5 80.3 24 122 23.6 12 0 24.1-.7 36.1-2.8zM468.6 736.8c-13.7-.2-27.4-.3-41-.5-80.3-1-160.6-2-240.8-3.1-3.2 0-6.7-.2-9.2-2.1-2.5-2-3.3-6.5-.5-8.2 1.2-.7 2.6-.8 4-.8 212.5-.9 425 1.6 637.5 7.3 2.9 2.3 1.8 7.4-1.3 9.5-3 2.1-7 2.2-10.8 2.1l-337.9-4.2zM633 581.3c3.6 1.6 3.2 6.8 2.2 10.6-7.6 27.3-15.1 54.5-22.7 81.8-.7 2.6-1.5 5.3-3.6 6.9-2.1 1.7-5.7 1.5-6.8-.9-9.3-21.4-18-43.1-26.1-65-2.6-1.2-4.7 2.4-5.3 5.2-4.5 20.1-10.4 39.9-17.8 59.2-1.2 3.2-6.1 3.5-8.8 1.3s-3.7-5.8-4.5-9.1c-6.6-27-11-54.5-13-82.3-.1-1.8-.2-3.8.9-5.3 1.8-2.5 6.1-1.8 8.1.6s2.4 5.7 2.8 8.8c1.8 16.8 3.6 33.6 5.4 50.3.4 3.9 3.3 9.3 6.7 7.3 6.8-20.4 13.6-40.9 20.3-61.3.8-2.6 2.2-5.6 4.9-5.8 3.4-.3 5.1 3.9 5.8 7.2 4.6 21.6 11.8 42.7 21.4 62.6 2.2.4 3.6-2.3 4.2-4.5l16.8-59.4c1.3-4.4 4.8-10 9.1-8.2zM227.3 757c9.8-.5 19.6-1.1 29.5-1.6 3.8-.2 8.5 0 10.5 3.2 18.8 30.5 45.3 56.1 76.5 73.7 2.7 1.5 5.6 3.1 7.1 5.8 1.6 2.7 1.2 6.8-1.6 8.1-1.1.6-2.4.6-3.6.6-11.7-.1-23-3.8-34-7.7-38.7-14-77.9-35-97.2-71.3-1.6-3 .3-6.8 3.1-8.6 2.9-1.8 6.4-2 9.7-2.2m9.3 12.3c-1.5 0-3.1.1-4 1.3-1.2 1.6 0 3.9 1.3 5.5 9.6 12.3 21.7 22.6 35.4 30.2 11.8 6.5 25 11.1 35.1 20.2 1.8 1.6 3.6 3.4 5.9 4.1 2.3.7 5.3-.2 5.9-2.6.8-2.8-2.2-5.1-4.8-6.6-19.8-11.7-36.5-28.6-47.9-48.5-1.9-3.3-6.5-3.7-10.3-3.6-5.5-.1-11.1-.1-16.6 0zM455.3 920.5c-3.2 2.1-6.2-2.9-6.8-6.7-7.2-47.7-14.4-95.4-21.7-143.2-.4-2.5-.7-5.1.2-7.4 2-5 8.6-5.9 14-6.1 8.3-.3 16.7-.5 25-.8 3.7-.1 7.5-.2 10.8 1.3 3.3 1.5 5.9 5.2 5 8.8-10.5 39.6-17.5 80.1-21.1 120.8-.9 11.2-1.7 22.6-5.4 33.3m1.5-79.2c.3-6.8 1.7-13.6 3-20.3 3.2-16.1 6.4-32.2 9.6-48.2.6-3-3.5-4.5-6.5-4.7-5.7-.3-11.4-.1-17.1.6-2.7.3-5.7 1-7.3 3.2-1.4 2.1-1.2 4.9-.8 7.4 3.6 25.6 7.1 51.2 10.7 76.8.3 2.4 1.5 5.5 3.9 5.2 4.6-5.3 4.2-13 4.5-20"/><path fill="#010101" d="M678.8 761.5c2.3.1 4.6.3 6.6 1.5 4.6 2.9 4.2 9.7 2.4 14.8-6.4 18.1-22.1 31.5-38.7 41.1-24.5 14.2-52.4 22.3-80.6 23.5-3.4.1-7.1.1-9.7-2.2s-2.3-7.4 1-8.2c36-8.1 67.6-33.6 83.2-67 2.1-4.5 8.3-5 13.3-4.7l22.5 1.2m-5.8 13.3c-6.5-2.4-14.2-3.5-20.1.1-4.4 2.7-7.1 7.4-9.8 11.7-7.7 12.1-17.8 22.8-29.4 31.2-2.1 1.5-4.5 4.5-2.7 6.3 1.3 1.4 3.6.6 5.3-.2 21.5-10.2 43.9-21.2 57.9-40.5 1.6-2.3 3.1-5.7 1-7.6-.7-.4-1.5-.7-2.2-1zM399 630.8c-1.2-2.6.6-5.9 3.1-7.3 2.6-1.4 5.6-1.4 8.5-1.4 7.9.1 17.7 1.4 20.3 8.9.8 2.3.7 4.8.5 7.2-.4 7.4-.8 14.8-1.2 22.3-.2 4.3-.5 8.7-2.5 12.4-3.6 6.7-12 9.4-19.6 9.8-21.7 1-42.9-13.6-50.9-33.8-7.9-20.2-2.8-44.7 11.8-60.8 4-4.4 8.7-8.3 14.2-10.5 12.4-4.9 27.2-.1 36.9 9.1 2.5 2.4 4.9 5.5 4.6 8.9-.4 3.4-5.2 6-7.4 3.4-4.9-5.7-11.3-10.6-18.8-11.5-12.1-1.4-23.1 7.9-28.5 18.8-5.9 11.8-6.9 26.1-2.1 38.4s15.6 22.3 28.4 25.4c7.9 1.9 18 .2 21.1-7.3.8-1.9 1-4 1.3-6.1.4-3.5.7-7 1.1-10.4.5-4.3.5-9.6-3.2-11.9-5.2-3.4-14.9 2.2-17.6-3.6zM942.3 630.5c-.7 9.1.2 20.7 8.8 23.7 3.4 1.2 7.1.6 10.7 1.1 3.6.5 7.4 3.2 7.1 6.7-.4 4.4-6.3 5.7-10.6 5-4.3-.7-9.4-1.9-12.7 1-3.1 2.8-2.5 7.7-1.8 11.8.7 3.8 1.4 7.5 2.1 11.3.5 2.4.8 5.4-1.1 7.1-2.5 2.3-6.7.1-8.4-2.8-2.9-5.1-1.6-11.4-2-17.3-.4-5.9-4.1-12.8-10-12.2-14.7 1.4-30.9 2.3-42.5-6.8 14.4-25.1 31.1-48.9 49.9-70.9 1.7-2 3.7-4.1 6.3-4.2 5.4-.2 6.9 7.3 6.5 12.6-.6 11.3-1.4 22.6-2.3 33.9m-28.8 24.4c6.7.2 14.8-.4 18-6.3 1.4-2.6 1.5-5.8 1.5-8.8v-29.1c0-1.4-.3-3.1-1.6-3.4-1.1-.2-2 .8-2.7 1.8-9.3 13.5-18.6 27-27.9 40.4 2.1 4.5 7.9 5.3 12.7 5.4zM89.1 576c4.5 2.1 8.9 5.1 10.9 9.6s.7 10.8-3.9 12.8c-6.7-7.7-14.4-15.9-24.5-16.8-8.5-.8-16.9 4.1-22.1 10.9-5.1 6.9-7.4 15.5-8.5 24-1.3 10.1-.9 20.7 3.3 29.9s12.7 17 22.8 18.2 21.1-5.4 23.1-15.4c.7-3.8.2-7.9 1.5-11.5 1.5-4.3-4.5-7-9-7.4-4.5-.4-10.6-2.3-9.8-6.8.6-3.6 5.3-4.6 9-4.6 4.4 0 8.8.3 13.1.8 2.4.3 5 .7 6.6 2.6 1.9 2.2 1.7 5.4 1.4 8.2-.7 6.8-1.5 13.6-2.2 20.5-.4 3.9-.9 7.9-2.6 11.5-2.5 5.1-7.3 8.6-12.5 10.9-15.7 6.8-35.7 1.7-46.3-11.7-12.8-16.2-11-39.3-6.4-59.4 1.3-5.6 2.8-11.2 5.8-16.1 4.9-8 13.7-13.2 23-14.7s18.8.5 27.3 4.5zM784.1 581.7c11-1.8 21.9 5 28.5 14 2.6 3.5 4.7 7.4 6.2 11.5 4.9 13.5 3.5 28.4 1.1 42.5-2.4 14.2-7.2 30-20.1 36.2-11 5.3-24.9 1.3-33.4-7.3-8.6-8.6-12.5-21-13.5-33.1-1.1-13.9 1.3-28.1 6.9-40.8 4.6-10.6 12.8-21.1 24.3-23m-10.4 88.7c3.8 5.5 11.7 7.2 18 4.9 6.3-2.3 11-7.8 13.7-14 2.7-6.1 3.6-12.9 4.4-19.5 1.2-10 2-20.5-1.3-30-1.6-4.8-4.2-9.2-7.5-12.9-3.7-4.1-8.9-7.5-14.3-6.5-4.1.7-7.3 3.8-10 7-16.2 19.6-17.5 50.1-3 71zM477.2 677.6c-9.6.4-18.8-5-24.6-12.6-5.8-7.6-8.6-17.2-9.7-26.7-1.4-11.9-.2-24.3 5-35s14.7-19.7 26.3-22.8c11.6-3 25 .6 32.3 10.1 4.8 6.2 6.7 14.2 7.4 22 1.5 15.3-1.1 31.2-8.6 44.5-5.9 10.6-16 20-28.1 20.5m5.3-14.1c2.8-1.4 5-3.7 7-6.1 10.6-12.8 15.2-30.3 12.3-46.7-1.1-6.4-3.6-13-8.8-16.8-6.4-4.7-15.8-4.1-22.5.2s-11.1 11.5-13.7 19.1c-3.1 8.9-3.9 18.7-2.3 28 1.1 6.9 3.7 13.8 8.7 18.5 5.2 4.8 13.1 6.9 19.3 3.8zM216.7 644c-3.1-.4-6.4-.7-9.4.1-3 .9-5.9 3.2-6.3 6.3-1 7.2-4.2 14.2-9.1 19.6-3.2-.4-5.4-3.6-5.7-6.8-.3-3.2.9-6.3 2-9.3 9.5-25 19-50 28.5-75.1 1.6-4.3 5.2-9.6 9.5-8 2.4.9 3.6 3.5 4.5 5.8 11.1 28.4 22.3 56.9 33.4 85.3.6 1.6 1.2 3.2.9 4.8-.8 3.8-6.4 4.5-9.4 2.1s-4.1-6.4-4.9-10.2c-.9-3.7-2-7.8-5.1-10.1-2.4-1.8-5.5-2.2-8.5-2.5-6.8-.5-13.6-1.3-20.4-2m18.8-11.9c2.1-2.5 1.2-6.2.2-9.3-2.6-7.6-5.1-15.2-7.7-22.8-.6-1.8-1.3-3.7-2.9-4.8-1.6-1.1-4.3-.6-4.7 1.3-2.2 10.2-5.8 20.2-10.7 29.5 2.8 6.2 10.8 7.6 17.6 8.1 3 .1 6.3.2 8.2-2zM332.8 584.4c2.3 2.6 4.3 6.2 3.4 9.5-1 3.4-6.2 5.1-8.1 2.1-4.7-7.8-13.7-12.8-22.9-12.7-4.9.1-9.9 1.6-13.5 4.9-3.6 3.3-5.6 8.5-4.4 13.3 1.6 6.3 7.9 10.2 14.2 12s12.9 2 18.9 4.3c12.6 4.9 20.4 19.5 18.1 32.9S324.4 675 311 676.9c-3.4.5-6.8.5-10.1-.5-6.7-1.9-11.8-7.3-16.3-12.6-2.4-2.8-4.9-6.9-2.8-10 2.2-3.2 7.4-2.1 10.2.6 2.8 2.7 4.5 6.5 7.6 8.9 3.8 2.9 9.2 3.1 13.6 1.3s8-5.3 10.6-9.3c2.1-3.1 3.9-6.7 3.9-10.5 0-8.6-8.4-14.8-16.5-17.4-8.2-2.6-17.1-3.2-24.4-7.8-7.1-4.5-11.6-12.7-11.7-21.1-.1-8.4 4.4-16.6 11.4-21.2 5.8-3.8 12.9-5 19.8-4.7 10 .5 20 4.4 26.5 11.8zM722.9 642c-8.4 9.7-17.3 19-26.7 27.8 2.9 4 8.6 4.3 13.6 4.2 7.3-.2 14.6-.4 21.9-.5 2.3-.1 4.9 0 6.7 1.5 2.8 2.5 1.4 7.6-1.8 9.6s-7.2 2-10.9 1.9c-11-.3-22.1-.6-33.1-1-3.9-.1-8.1-.3-11.3-2.5-3.2-2.2-4.8-7.2-2.1-10.1 14.4-15.4 28.3-31.4 41.6-47.8 3.2-4 6.5-8.2 8.2-13 1.7-4.9 1.7-10.6-1.3-14.8-2.9-4-8.2-5.9-13.1-5.3-4.9.6-9.4 3.4-12.7 7-3.4 3.7-8 9-12.4 6.4-4.3-2.5-2-9.3 1.4-12.9 5.6-6.2 13.2-10.8 21.5-11.9 8.3-1.1 17.2 1.7 22.7 8 6.5 7.6 7.2 18.9 4.1 28.4-3.4 9.4-9.8 17.5-16.3 25zM397.3 846.4c-.4 3.9-6.1 5-9.2 2.7s-4.2-6.4-5-10.2c-5.1-22.5-9.9-45.1-14.3-67.8-.7-3.7-1.4-7.7.1-11.2 3-6.7 12.2-7.3 19.6-6.9 4.3.2 8.6.5 12.9.7 2.4.1 5 .3 7 1.6 5.8 3.5 4.6 12.1 2.7 18.6-6.7 23.7-11.3 48-13.8 72.5m-3.2-81.3c-5.3-.9-12.5-.7-13.8 4.4-.4 1.4-.2 3 .1 4.4 1.7 11.2 3.5 22.4 5.2 33.6.4 2.8 2.4 6.5 4.9 5.3 1.3-.6 1.8-2.3 2.1-3.7 2.4-12.3 4.8-24.6 7.2-36.8.3-1.4.5-3-.1-4.3-1.1-1.9-3.5-2.5-5.6-2.9zM516.1 843.7c-1 2.5-2.5 5.4-5.1 5.7-3.8.4-5.5-4.5-6-8.3-2.9-22.3-5.7-44.6-8.6-66.8-.6-5-1.1-10.6 1.9-14.6 3.7-5 11-5.3 17.2-5.1 5.4.1 10.9.3 16.3.4 3.5.1 7.5.4 9.8 3 3.4 3.9 1 9.9-1.3 14.6-10.9 22.5-15.4 47.6-24.2 71.1m-6.1-35.4c.2 2.8 1.5 6.4 4.2 6.1 7.8-12.1 6.5-28.3 13.8-40.7 1.1-1.8 2.3-4.1 1-5.7-.9-1.1-2.5-1.1-3.9-1.1-3.2 0-6.4 0-9.6.1-1.9 0-4 .1-5.5 1.1-2.9 2-2.9 6.2-2.6 9.7.9 10.1 1.8 20.3 2.6 30.5zM136.8 676c-5.1.4-11.1.4-14.2-3.7-1.7-2.3-2-5.4-2.2-8.3-1.8-26.9-1.1-54 2-80.8.5-4.3 2.4-9.7 6.7-9.5 2.4.1 4.3 2.3 4.9 4.6s.3 4.8-.1 7.2c-3.3 23.2-4.2 46.7-2.7 70.1.3 4.2 4.8 7 9 7.3s8.3-1.1 12.5-1.7c4.2-.6 9-.2 11.7 3s1.4 9.5-2.8 9.8c-8.2.7-16.5 1.4-24.8 2zM857.9 584.8c1.2-.1 2.5-.2 3.6.5 1.9 1.1 2.1 3.7 2.2 5.9.5 27.9 1.1 55.7 1.6 83.6.1 3.5 0 7.4-2.4 9.9s-7.9 1.6-8-1.9c-.4-25-.9-49.9-1.3-74.9-.1-2.9-2.9-5.1-5.8-5.3-2.9-.3-5.7.8-8.3 1.9-3.2 1.3-6.3-3.2-5.2-6.5 1.1-3.3 4.4-5.2 7.5-6.9 5-2.9 10.3-5.7 16.1-6.3zM470.4 287.3c24.7-2.1 49.8.2 73.6 6.8 5.1 1.4 11.2 4.6 10.6 9.8-1.3 11 0 22.2-1 33.3-3.4 37.3-35.9 68.9-72.9 74.2s-75.6-14.1-96.1-45.4c-20.5-31.3-23.3-72.6-10.3-107.7 5-13.6 12.3-26.5 22.2-37.2 17.3-18.6 42.3-29.6 67.7-29.8 25.3-.2 50.6 10.4 68.2 28.7 2.9 3 5.7 6.7 5.2 10.8-.5 4.1-6.4 7-8.9 3.7-24.5-33-76.3-41.4-110-17.8-14.2 10-24.9 24.5-32 40.5-14.7 33.3-12.8 74.2 8 104.1 20.8 29.8 61 45.9 95.7 35.2s59.5-49.4 51.3-84.9c-1.2-5.2-7.2-7.4-12.4-8.4-13.2-2.8-26.8-4-40.3-3.7-4.4.1-9.1.3-13.1-1.5-3.9-1.8-7.1-6.5-5.5-10.7zM366.9 476.1c-32.9-20.4-55.7-54.7-67.2-91.6-11.5-36.9-12.5-76.5-8.3-115 .4-4.1 1.2-8.6 4.5-11.1s9.5-.3 8.8 3.7c-6.7 39.4-6.4 80.6 6 118.6 12.5 38 38.1 72.5 73.6 90.9 24.2 12.5 51.6 17.2 78.7 20 17 1.7 34.3 2.8 51.2.4 51.4-7.1 95.1-46.3 115.7-93.9 20.6-47.6 20.3-102.4 7.8-152.8-2.9-11.5-6.3-22.8-11.1-33.7-23.2-52.3-78.4-88.3-135.6-90.1-5.7-.2-13.8-3-12.1-8.4 1.2-3.9 6.5-4.2 10.5-3.8 35.8 3.7 72.1 13.4 100.6 35.6 45.3 35.3 63 96 66 153.3.8 14.4.8 28.8-.7 43.2-3.8 39-18.6 77.2-43.9 107.1-25.3 29.9-61.5 51-100.4 55.8-17.9 2.2-36.1 1.1-54.1-1-31.3-3.8-63.2-10.5-90-27.2zM574.9 394.5c24.7-44.2 33.9-98.4 17.8-146.4-16.1-48-59.9-87.5-110.3-91.6-2.2-2.1-1-6.2 1.7-7.7s5.9-1.4 8.9-1c52.6 6.4 96.6 49.6 111.7 100.3s4.2 107-21.8 153.1c-6.6 11.6-14.3 23.1-25.4 30.6-8.6 5.9-18.8 9-29 11.6-54.8 13.7-117.9 10.1-161.1-26.2-3.1-2.6-6.3-5.6-7.1-9.6-.8-4 1.8-8.9 5.9-8.8 38.4 38.7 99.5 46.6 152.9 35.4 13.1-2.7 26.4-6.7 36.8-15.2 8.1-6.5 13.9-15.4 19-24.5z"/></svg>