<svg xmlns="http://www.w3.org/2000/svg" viewBox="0 112 1000 773" enable-background="new 0 112 1000 773"><path fill="#FEDB48" d="M0 170h1000v665H0z"/><desc xmlns:shape="http://adobe.com/products/shape"><shape:version>1.0.1</shape:version><shape:captureDetail>0.750000</shape:captureDetail><shape:source>1</shape:source></desc><desc xmlns:shape="http://adobe.com/products/shape"><shape:version>1.0.1</shape:version><shape:captureDetail>0.750000</shape:captureDetail><shape:source>1</shape:source></desc><path fill="#13110C" d="M775.3 133c27.4 9.7 45.3 38.7 46.3 67.8s-13 57.3-33.2 78.1-46.5 35-73.4 45.9c-103.4 41.9-220.7 39.4-323.8 81.9-72.5 30-136.2 82.7-175.2 150.8S163.9 709 184.5 784.8c8.7 32 23 62.2 37.3 92.1-57.7-76.3-69.4-182.8-36.8-272.7S291.6 442 379.3 404c96.2-41.7 204.9-43.8 304.9-75.2 29.3-9.2 58.2-21.1 82.2-40.3s42.5-46.5 46.1-77-10.3-63.8-37.2-78.5zM795.5 124.3c26.1 19.3 44.9 48.6 50 80.7s-4.1 66.4-25.6 90.7c-22.6 25.6-56 38.5-87.9 50.6-74.9 28.6-150.4 59.2-213.2 109s-112.3 121.9-117 201.9c-4.3 72.5 28.6 143.3 75.8 198.5 3.5 4.1 7.2 10.4 3.5 14.4-56.6-59.4-94.3-140.7-86.3-222.3 8-82.1 61.1-154.5 126.8-204.4s143.7-80.5 220.7-110.2c23.2-8.9 47-18.2 65-35.2 23.9-22.6 34.8-57.4 30.4-90s-23.4-62.4-49.5-82.5c-1.1-3 4.6-3.2 7.3-1.2zM302.4 743.8c-4.7 4.6-12.7 5.4-18.2 1.8-5.5-3.5-8.2-11.1-6-17.3.9-2.7 2.7-5.1 3.1-8 .8-4.9-2.4-9.5-5.3-13.5-7.3-9.8-14.6-19.5-22-29.3-6.3 2.4-4.2 11.7-1.2 17.8 7.3 15.1 12.6 32.1 9 48.5-3.6 16.4-18.6 31.1-35.3 29.3-11.4-1.2-21.1-9.8-25.8-20.2-4.7-10.4-5-22.4-3.2-33.6 1.5-9.4 4.5-18.8 10.7-26 6.1-7.3 15.8-12 25.1-10.5 8.8 1.4 16.5-7.7 17-16.6.5-8.9-3.9-17.3-8.2-25.1.9-2.8 5.3-2 7.2.2 1.9 2.2 3.1 5.3 5.8 6.4 3.7 1.5 7.4-1.6 11.2-2.9s9.5 2 7.2 5.2c-.6.8-1.6 1.2-2.5 1.6-4.7 2-9.4 4-14.1 5.9-1.5 2-.2 5 2 6.2s4.8 1.1 7.3.9c11.9-.8 23.9-1.6 35.8-2.5 3-.2 6.2-.5 8.7-2.3 2.4-1.8 3.5-5.8 1.3-7.9-2.3-2.2 1.2-5.8 4.2-6.8 8.6-3 17.9-4 26.9-2.9-5.5 5-12 8.8-19 11.3-.2 6.4-.3 13.1 2.5 18.8 2.9 5.7 9.8 9.9 15.7 7.4 6.1-2.5 13.4-.3 18.2 4.1 4.9 4.4 7.6 10.7 9.5 17 4.2 14.2 4.3 29.5.4 43.7-1.8 6.6-4.6 13.1-9.4 17.9-11.7 11.7-34.4 8.3-42.1-6.4-1.9-3.6-3-7.6-5.6-10.6-2.9-2.9-8-4.4-10.9-1.6m-62.1 20.4c2.5-1.8 4.4-4.3 6.1-6.9 11.3-17.6 11.5-41.7.5-59.4-3.5 1.1-5 5.1-6 8.6l-4.5 15.3c-.6 2-1.3 4.2-2.9 5.5s-4.5 1.4-5.5-.5c.5-7 2.7-14 6.3-20 2.6-4.5 6.1-9.6 3.9-14.3-1.4-3-5-4.6-8.3-4.5-3.3.1-6.4 1.7-9.1 3.7-9.8 7.2-14.9 19.3-16.5 31.4-1.7 12.2.1 25.5 8 35 6.7 8.1 19.5 12.3 28 6.1m78.8-25.9c1.6 5.8 3.3 11.6 6.6 16.6s8.6 9 14.6 9.4c7 .5 13.6-4.2 17.3-10.1 3.8-5.9 5.2-13 6.3-19.9 1.4-8.8 2.5-18 .3-26.7-2-7.9-6.5-14.8-10.9-21.6-2-3.1-6.7-2.2-10.2-1-2.7 1-5.5 2-7.7 3.9s-3.5 5.1-2.5 7.8c2.8 7.7 5 15.5 6.8 23.5.2 1.1.5 2.3 0 3.3-.4 1-1.4 1.7-2.2 2.3-6.2 4.2-12.3 8.4-18.4 12.5m-54.8-57.9c7.3 9.7 14.6 19.4 22 29 1.6 2.2 4.6 4.5 6.7 2.8.7-.6 1-1.5 1.3-2.3 3.9-11.4 7.8-22.9 11.8-34.3.5-1.5 1-3 .8-4.5-.3-1.5-1.5-3-3.1-2.9-11.4.9-22.7 1.7-34.1 2.6-3 .2-6.8 1.1-7.5 4-.5 2 .8 4 2.1 5.6m56.5-6.3c-.7-2.2-1.5-4.6-3.4-5.9-4.5 2.2-4.9 8.2-5.9 13-2.3 11.2-10.9 21-10.4 32.4.1 2.7 3.4 4.5 6.1 3.8 2.7-.7 4.5-3.1 5.7-5.6s1.8-5.2 3.1-7.6c1.7-3.2 4.3-5.8 5.8-9 3.1-6.5 1-14.2-1-21.1m-34.2 65.4c3.3 3 9.1.6 10.7-3.5 1.6-4.1 0-8.9-2.4-12.5-.4-.6-.8-1.1-1.4-1.5-1.4-.8-3.2-.1-4.5.9-3.7 2.9-5.5 8.1-4.4 12.7.2 1.4.9 2.8 2 3.9m42.7-33.1c-2-2.8-6.5 0-7.7 3.2-1.3 3.6-.5 8.5 3 10.1 5.3-1.4 7.9-8.8 4.7-13.3M305.2 732c-.2 1.9 2.3 3.3 4.1 2.6 1.8-.7 2.7-2.8 2.6-4.8-.1-1.9-.9-3.7-1.8-5.5-3.6-.1-6.4 4.4-4.7 7.6m16.6-8.1c-1.8-.5-3.8 1.4-3.3 3.2.5 1.8 3.1 2.6 4.5 1.2 1.3-1.2.6-3.9-1.2-4.4z"/></svg>