<svg xmlns="http://www.w3.org/2000/svg" viewBox="0 0 1000 703.8" enable-background="new 0 0 1000 703.8"><desc xmlns:shape="http://adobe.com/products/shape"><shape:version>1.0.2</shape:version><shape:captureDetail>0.750000</shape:captureDetail><shape:source>1</shape:source></desc><path fill="#C22C7F" d="M609.9 641.6c3.3-103.5 12.9-206.8 28.7-309.1.8-5.2 1.6-10.5 2.5-15.7.4-2.6.9-5.2 1.3-7.9 3.9-7.1 1.9-10.3-5.9-9.4-7.5-4.2-20.8-3.4-29.4-4-9-.6-55.5 6.1-57-9.1-.5-5 19.6-22.4 23.9-27 8.2-8.8 16.5-17.5 25-26 17-17 34.8-33.2 53.3-48.6 16.6-13.9 33.7-27.3 51.3-39.7 7.6-5.4 15.6-12.7 25.3-7.5 8.9 4.7 15.7 19.4 21.5 27.5 14 19.3 28 38.7 42 58 15.7 21.6 34.9 43.2 48 66.4 14.9 26.3-18.9 15.9-33.6 15-8.1-.5-19.1-2.3-26.9.5-13.1 4.7-11.5 17.1-12.9 29.5-5.8 50.3-9.9 100.8-12.5 151.4-1.5 29.3-2.4 58.6-2.8 87.9-.2 14.7-.3 29.3-.2 44 .1 10.5 2.6 26.3-5.8 34.7-13.5 13.5-53.9 3.8-70.5 3-10.8-.7-65.9 4-65.3-13.9m-29.2-358.3c17.7-.1 38.7-3.5 56 .8 20.6 5.2 18.5 24.1 15.9 41.1-7.6 48.4-14.8 96.7-19.7 145.5-4.9 48.6-9.2 97.6-9.9 146.5-.4 24.3 14.6 22.9 35 23.5 11.1.3 22.1.6 33.2 1 10.5.3 27.9 3.9 38.1.7 17-5.3 9.8-35.7 10.1-50.9.4-24.9 1.1-49.8 2.1-74.7 2-48.5 5.2-96.9 9.7-145.2 1.1-11.7 2.1-23.5 3.5-35.2 1-8 7.6-21 7.4-27.6-.1-3.4-8.3-12.2-2.9-17.1 4.8-4.4 25 .3 31.7.7 13.5.9 40.9 9.6 27.2-10-13.6-19.6-27.8-38.8-41.7-58.1-15.2-21.2-29.3-47.8-47.7-66.3-15.5-15.5-42.1 16.7-54.8 27.2-19.7 16.2-38.9 32.9-57.8 50-9.4 8.6-18.8 17.2-28 26-5 4.3-28.2 22.3-7.4 22.1 13.5-.1-4.5.1 0 0zM222.2 357.7c11.8-9.8 1-46.1-.2-58.7-2.5-26.6-4.3-53.2-5.4-79.9-2.2-50.7-2.1-101.4.4-152 .4-7.9-1.1-22.3 3.2-29.3 6.1-9.9 16-5.5 27.2-4.8 25.8 1.6 51.7 1 77.4-1.6 16.6-1.7 43.8-11.8 48.2 11.5 4.3 23.1-1.5 51.5-2.3 75.1-1.6 49.7-2.5 99.4-2.5 149.1 0 22.4-4 49.9.6 71.7 4.8 22.2 35.9 14.3 53.4 13.8 5.4-.1 24.6-4.2 28.7.8 7.1 8.5-10.7 11.1-14.8 11.5-18.6 1.9-50.6 7.4-68.3.2-17.8-7.2-11.8-35.2-11.6-50l1.2-80.5c.7-51 1.5-102 2.2-153 .1-8.5 3.7-26.7.3-33.9-3.5-7.4-12.7-4.4-20.4-4.2-25.6.9-51.2 1.7-76.7 2.6-7.4.2-22.4-2.6-28.2 1.8-6.5 4.9-4.9 17-5.3 24.5-1.4 26.4-2.2 52.9-2.3 79.3-.2 48.9 1.9 97.9 6.2 146.6 1.1 11.9 2.2 23.7 3.6 35.5 1 8.7 5.2 23.1.9 31.4-7.7 14.8-44.3 9.4-58.2 10-5.6.2-17.2-1.6-16.7 6.1.4 6.5 16.6 21.7 20.4 26.4 14.6 18.3 29.8 36.2 45.6 53.5 15 16.4 30.5 32.4 46.4 47.8 4.4 4.3 8.9 8.5 13.4 12.7 8.3 7.7 4.5 7.8 13.6 1.8 10.1-6.6 18.8-19.8 27.2-28.5 34.6-35.9 69.8-71.3 105.5-106.2 4.6-4.5 23.5-28.1 28.3-27.4 12.7 1.7 1.3 14.3-2.5 18.7-18.1 21.1-39.4 40.2-58.9 60-20.6 20.9-41.2 41.8-61.9 62.7l-28.2 28.5c-2.3 2.3-7.9 9.6-11.3 11.4-3.5 7.4-7.2 7.6-10.9.7-1.8-1.7-3.5-3.4-5.3-5-37.7-36.1-73-74.8-105.6-115.7-7-8.8-44.5-46.5-35.9-58 4.9-6.5 28.9-1.8 36.3-1.9 10.8-.2 34.4 2.2 43.2-5.1 5.2-4.3-3.1 2.6 0 0zM67.6 637.2c21.7 10.6-26.7 61-42.5 61.3-20.8.3-15.6-68.5-16.6-83.6-1-14.7-4.2-26.3 10-34.8 10.5-6.3 27.5-10.7 38.9-5.5 31.5 14.3-5.5 50-20.8 60.6 1 5.8 26.1-.4 31 2m-21.2-53.4c-17.7-2.4-39.7 33.2-20.9 41.3 11.5 5 43.9-38.1 20.9-41.3m-23.1 75c-1.4 5.9 1 18 8.8 18.1 6 .1 16-13 19.4-16.9 19.6-22.7-24.3-17.4-28.2-1.2"/><path fill="#C22C7F" d="M258.5 681.2c-28.4 9.9-24.4-34.1-20.5-47.8 2.2-8 20.5-60.8 36.9-48.7 7.5 5.5-9.3 18.8-12.5 23.2-6.7 9.2-11.7 19.6-14.5 30.7-2.1 8.5-6.5 30.6 8.6 29.1 9.1-.9 19.7-21.3 23.1-28.5-13.9 1.7-15.4-7.9-3.7-13.6 5.9-2.9 12.6-5.4 19.2-5.5 4.4-.1 16.6 6.8 18.3 6.4 20.8-5.4-6.2-55.7 14.9-56.3 4.3-.1 9.4 5.6 14.2 6.4 5.1.9 10.4-.4 15.4-1.3 6.4-1.1 27-7.5 31 .9 5.3 11.2-19.1 9.2-24.6 9.5-11.7.6-27.6 3.5-31.4 16.7-9.2 32.1 41.3 5.7 37.7 23.4-1.5 7.2-59.3 8.1-37.4 34.8 6.6 8 21.1 3.7 29.7 2.9 10.4-.9 34.1 5.8 14 11.6-19.2 5.5-58.8 11.4-59.1-16.6-.1-10.3-2.2-30.3-18-17.1-10.6 8.8-4.5 27.4-3.1 38.7.6 4.7 3.1 12-2.7 13.4-7.4 1.8-7.7-13.6-9.2-17.9-3.1-8.4-1-11-10.5-6.4-6 3-9.2 9.7-15.8 12zM989.2 38.8c-10.6-25.8-48.6-29-71.2-19-14.9 6.6-9.4 16.1-11.3 30.3-2 14.5-5.8 28-5.9 42.8 0 7.6-4 21.6 5.2 25 11 4.1 30.5-13 38.2-18.6 16.8-12.2 55.5-34.9 45-60.5-5.2-12.5 1.3 3.3 0 0zm-12.4 10.3c-1.7 11-18.5 20-26.8 26.2-7.5 5.6-20.3 20.2-29.9 21.9-13.3 2.4-6-15-4.7-23.8 1.4-9.5.8-30.3 6.3-38.5 10.6-15.9 58.6-9.4 55.1 14.2-1 6.4 1.3-9.1 0 0zM709.4 94.4c-.5-18.5-1.9-37-4.1-55.3-1.2-9.9-2-36.4-16.8-23.1-9.4 8.5-17 30.5-19.6 42.9-1.1 5.2-.5 36.2-9.6 21.6-5.7-9.1.3-84.5-20.5-68.4-8.9 6.9-14.1 33.2-17.5 43.7-2.9 8.7-16 37.6-10.7 45.8 9.2 14.2 12.2-13 14-20.1 1.5-5.9 6.5-42.9 14.4-43.2 17.7-.8 4.2 77 27 73.9 14.4-2 1.7-74.9 24.6-70.5 8.4 1.6 5.1 35.5 6.4 43.1.6 3.5.9 12.4 4.3 14.6 5 3.1 8.2.7 8.1-5-.7-23.8 0 2 0 0zM466.1 119.6c-5.4-14.2-6.8-28.4-7.9-43.5-.8-10.8-6.4-23.1-5-33.7 2.9-22.2 38.2-44.4 59.2-36.2 26.9 10.5 8.7 44.6.7 62.3-3.1 6.7-39.1 71.8-47 51.1m9.1-90.4c-12.7 11-5.4 36.9-4.5 51.7.2 3.5-1.5 20 5.7 20.6 5.8.5 14.3-17.2 16.5-20.8 7.8-12.9 24.2-36.5 22.4-52.1-2.5-22.1-30-8.3-40.1.6-2.6 2.3 6.4-5.6 0 0zM183.6 688.2c-24 13.6-20.6-50.7-21-59.7-.3-8.3-5.8-32.2.3-38.3 5-5.1 21.2-3.3 29.1-4.1 26.9-2.8 32.6 26.7 29.2 47.7-3.8 22.3-17.7 43.2-37.6 54.4m26-58.4c2.2-12.5-1.2-33.1-17.9-33-17.2.1-17.6 20.4-17.2 32.6.3 10.1-3.2 44.9 12.5 39.6 12.1-4.1 20.6-28.2 22.6-39.2 1.4-7.8-2.7 15.2 0 0zM816.3 113.8c-12.3-.5-2.5-48.7-1.8-56.3.6-6.8-1.3-26.3 4.3-31.2 8-7.1 10.6-1.4 13 6 3 8.9 9.7 59.7 24.2 58.9 11.5-.7 12.9-49.3 15-59 1.2-5.8 2.5-18.6 11.6-14.6 6.5 2.9-1.5 24-2.5 29.5-2.2 12.1-3.8 24.3-4.9 36.5-.6 7.2.7 20.2-5.4 25.6-18 15.8-28.1-26.6-37-32.5-19.8-13 1.4 37.9-16.5 37.1"/><path fill="#C22C7F" d="M593.7 97.8c-10-3-20.7 5.8-30.9.9-8-3.8-11.1-13.7-5.7-21.3 7-9.8 22.9-6.3 31.2-13.5 11-9.5 0-11.3-8.9-9.7-10.1 1.8-19.3 11-24-.8-14.9-38.1 45.8-28.6 41.1-46.6-2.3-9-22.2.7-27.5 2.1-4.4 1.2-7.6 2.7-12.3 2.2-3.8-.4-4.5-4.8-9.1-3.4-11.5 3.5-4.3 46.7-3.5 56.4-1.9 1.3-2.6 2.9-2.1 4.9-.3 1.9.7 3.2 2.8 3.8.1 1.5 1.3 5 1.5 7.3.7 9.2-8.2 16.6-.6 26.2 7.1 9 22 5.7 31.8 5 4.6-.3 13.6 1.1 17.3-2.2 3.8-3.2 6.9-8.9-1.1-11.3-3.2-.9 3.2 1 0 0zM791.8 99.6c-3-7.7-6.2-16.3-6-24.7.1-6.8 4-13.2 2.1-19.9-1.7-6-8.1-10.1-9.8-16.9-1.7-6.8-.5-14.2-2.2-21.1-5.3-21.3-16.6-4.9-22.5 6.8-7.6 15.3-14.6 30.5-21 46.2-2.2 5.4-17.6 30.8-8.4 34.3 5.3 2 10.5-11 13.8-14.7 4.9-5.3 10.8-8.7 17.4-11.6 20.1-8.9 19.1 4.6 23.4 21.3 1.1 4.5 3.5 15.5 8.8 17.3 8.9 3.1 6.5-11.5 4.4-17-4.6-11.8 1.2 3.3 0 0zm-23.1-50.5c3 7.2-9.1 17.8-15.8 17.6-14.9-.4-1.6-13.4 1.4-20.4 2.4-5.8 1-22.9 9.1-22.7 10.7.1 3.3 20.8 5.3 25.5 2.5 6.1-1.6-3.8 0 0zM133 585.6c21.6-3 6.6 82.1-4.6 92.9-35 34-39-59.3-38.6-75.1.2-6 .2-17.2 8.8-12.6 6 3.2 4.5 16.5 4.9 22 .8 11.7-3 46.9 8.4 54.3 12.7 8.3 19.8-24.6 20.5-33.4.6-5.8-7.8-46.9.6-48.1 3.9-.5-4.9.7 0 0zM460.9 571.7c17-3.8 10.8 10.9-1.2 14.1-14 3.7-17.8 6.1-19.3 21.4-1.6 15.9.3 32.9.5 48.9.1 6.7 3.2 29.6-9.8 20.9-8.7-5.8-2.9-34.9-2.7-44.8.2-8.7 5.8-33-5.3-38-3.7-1.7-9.1 3-12.2 1.3-7.5-3.9-4.6-8.8 1.6-12.7 12.1-7.5 34.6-7.9 48.4-11.1 3.8-.8-14.5 3.3 0 0zM489.5 592.6c5-5.2 20.1-20.7 28.4-13.4 7.2 6.4-17 20.8-21.5 24.5 14.4 13 41.1 28.8 33.4 51.6-3.2 9.6-38.5 33-37.2 14.6.5-6.9 12.9-7.2 17.7-11.3 7.7-6.5 8.9-14.5 3.4-22.9-9.6-14.2-43.5-23.2-24.2-43.1z"/></svg>