<svg xmlns="http://www.w3.org/2000/svg" viewBox="0 0 1000 824.6" enable-background="new 0 0 1000 824.6"><desc xmlns:shape="http://adobe.com/products/shape"><shape:version>1.0.1</shape:version><shape:captureDetail>0.750000</shape:captureDetail><shape:source>1</shape:source></desc><path fill="#FEDB48" d="M146.8 145c14.1 1.4 28.3 1.8 42.5 1.3 4-.2 8.5-.6 11.3-3.6 4.2-4.6 1.4-12.5-3.9-15.8-5.3-3.2-11.9-3.1-18.1-2.9-9.7.4-19.4.7-29.1 1.1-3.8.1-7.8.3-11.3 2s-6.3 5.3-5.8 9.1c.8 6.1 8.3 8.2 14.4 8.8zM501.8 626.7c-6.6-1.9-13.9.8-19.1 5.4-5.1 4.6-8.5 10.8-11.3 17.1-3.7 8.3-6.9 17.1-6.3 26.2.6 9 5.8 18.3 14.3 21.3 8.9 3.2 19.1-1.2 25.2-8.4 6.1-7.2 8.7-16.7 10.3-25.9 1.2-6.9 1.9-14 .1-20.7-1.8-6.8-6.5-13-13.2-15zM617.8 391c9.3-.5 13.3-11.8 14.9-20.9 2.1-11.7 4.3-23.7 2.3-35.5-2-11.7-9.2-23.3-20.4-27.3-20-7.1-46 11.1-61.8-3.1-8.3-7.5-8.5-20.2-8.1-31.4.5-13.2 1-26.5 1.5-39.7.6-15.1-12.9-27.7-27.5-31.5-14.6-3.8-30-.8-44.7 2.1-13.4 2.7-20.9 17.7-21.3 31.3-.5 13.6 4 26.9 5.1 40.5 1.1 13.6-2.3 29.2-14 36.2-12.5 7.5-28.3 2.3-42.7.7-14.5-1.6-33.4 5.2-32.9 19.7.5 14.7 1.1 29.3 1.6 44 .6 15.3 20.9 20.4 36.1 19.1 15.2-1.3 34.2-2.9 42.1 10.1 4.5 7.3 3.4 16.5 2.4 25-2.7 23.3-3.6 46.8-2.7 70.3.3 7.9 1.1 16.6 6.8 22.1 5.3 5.2 13.3 6.1 20.7 6.7 10.3.9 20.6 1.8 31 2.7 6.6.6 13.5 1.1 19.4-1.7 15.2-7.1 14.3-28.6 12.2-45.2-2.6-21.7-2.9-43.7-1-65.5.6-6.5 1.6-13.3 5.8-18.2 5.8-6.6 15.6-7.5 24.4-8 17-.9 33.9-1.7 50.8-2.5zM114.9 597.7c-3.9.4-8 1.6-10.5 4.6-2.2 2.8-2.6 6.7-2.8 10.3l-4.2 63.3c-.5 7.6.8 17.7 8.3 19.1 11.7-3.9 21-13.3 27-24 6-10.8 9-23 11.1-35.1 1.7-10 2.6-21.2-3.5-29.2-5.7-7.6-16.1-10.1-25.4-9zM810.2 146.3c5.2 1.3 10.7.5 16-.2 15.8-1.9 31.9-1.5 47.5 1.2 6.3 1.1 12.9-4.8 12.6-11.2-.5-9-11.6-13.6-20.6-12.7-9 1-17.6 5.2-26.6 4.8-7.6-.3-14.8-4-22.4-4.6-7.6-.6-16.8 4-16.6 11.6 0 5.5 4.9 9.7 10.1 11.1zM366.3 65.1c9.1-13.8 28.3-15.4 44.8-15.5 69.3-.6 138.7-1.1 208-1.7 13.1-.1 24.2 10.6 28.8 22.9 4.6 12.2 4 25.7 3.4 38.7-.1 2.7-.3 5.5-1.7 7.8-6 10.2-26.9 1.1-31.2 12.1 18.2 6 38.5 5.1 56.1-2.4-20.9-21-2.3-62.3-22.9-83.6-11-11.3-28.6-12-44.4-12l-191.4.6c-13.8 0-28 .2-40.7 5.6-22.8 9.7-36.2 37.3-29.7 61.2 13.4-3.3 13.4-22.3 20.9-33.7zM341.2 127.8c8.6-.4 17.2-.9 25.8-1.3 5.2-.3 12.3-3.3 10.4-8.1-6.4-3.6-14.1-3.7-21.4-3.7-12.5 0-26.6.8-34.8 10.2 5.9 3.5 13.2 3.2 20 2.9zM620.9 623.2c-1.5-1.4-3.3-2.8-5.3-3.3-4.3-1.3-8.8 1-12.8 3.3-6.5 3.7-13.2 7.6-17.7 13.5-3.6 4.7-5.5 10.4-7 16.2-3.1 11.8-4.4 25 1.5 35.6 5.9 10.7 21.2 16.6 30.8 9.2 11.3-8.7 20-21.2 22.5-35.3 2.7-14-1.5-29.5-12-39.2zM853.8 634.8c9.5 4 21.2 1.7 28.5-5.5 6.2-6.1 1.2-17.9-7.1-20.3-8.3-2.4-17.2 2-23.4 8-3.1 3-6 7.3-4.7 11.5.9 3 3.8 5.1 6.7 6.3zM733.6 643.6c3.6-7.1-3.3-16.2-11.2-17-7.9-.9-15.5 4-20.7 10-6 6.9-10.1 15.7-9.8 24.8.3 9.1 5.8 18.2 14.3 21.5 5.4 2.1 11.2-1.8 15.7-5.4 6.7-5.4 13.8-12.5 12.9-21.1-.6-4.4-3.2-8.9-1.2-12.8zM939.7 219.5c.1-13 .1-26.4-5.1-38.2-5.2-11.9-17.1-21.8-30-20.4-31.5 3.5-63.3 4.9-95 4.2-5.7-.1-11.6-.4-16.6-3-4.6-2.5-8.1-6.8-12.8-9-4.3-2-9.2-2.1-14-2.2-170.7-2.4-341.4-4.7-512-7-15.8-.2-34.7 1.2-42.7 14.8-3.3 5.7-11.1 6.5-17.7 6.6-27.9.6-57 .9-82.2-11-18.3-8.7-41.1 3.3-51.3 20.8-10.2 17.5-11.2 38.7-11.8 59C43.4 388 38.3 541.8 33.2 695.7c-.9 27.5.4 59.8 22.9 75.6 13.6 9.6 31.4 10.1 48 10.4 261.8 3.5 523.5 6.9 785.3 4.1 15-.2 30.6-.4 44.3-6.6 13.7-6.1 25.3-19.8 24.2-34.8-13.1-174.7-19.1-349.8-18.2-524.9zM155 674.5c-9.1 19.7-26 36.2-46.9 41.9-9.5 2.6-21.8 1.8-26.6-6.9-2.3-4.3-2.2-9.5-1.9-14.4 1.5-31 2.9-62 4.4-92.9.2-4.2.4-8.4 2-12.3 3-7.4 10.6-12.1 18.4-13.6 7.8-1.5 15.9-.2 23.6 1.6 12.7 2.9 26.5 8.1 32.1 19.9 1.9 4.1 2.7 8.6 3.2 13.1 2.5 21.6.7 44-8.3 63.6zm63.7-41.6c-6.2 3.5-9.2 10.6-11.3 17.4-4.5 14.8-6 30.5-4.4 45.9.7 6.7.8 15.3-5.4 17.8-4.2 1.7-9.1-1-11.4-4.9-2.3-3.8-2.7-8.5-3-13-1.1-20.4-.6-41 1.7-61.3.4-3.7.9-7.5 2.9-10.6s5.8-5.4 9.4-4.4c5.1 1.4 9.7-3 14.2-5.7 7.1-4.1 15.7-4 23.9-3.8 3.2.1 6.8.3 9.1 2.6 4.7 4.6-.4 12.9-6.6 15.2-6.2 2.2-13.4 1.6-19.1 4.8zm42.8 76.1c-2.7 5.1-10 7.2-14.9 4.2-5-3-6.5-10.4-3.3-15.2 3-4.4 9.7-5.8 14.2-3.1 4.6 2.9 6.5 9.4 4 14.1zm157.2-17c-4.6 14.7-15.1 28.4-29.8 33-19.8 6.1-41.8-6.5-51.8-24.7s-10.4-40.1-7.6-60.6c2.7-19.4 8.6-39.4 22.8-52.8 14.2-13.4 38.7-17.4 53.1-4.3 4.9 4.4 8.4 11.4 6 17.6-2.3 6.2-12.4 8.4-15.5 2.5-4.4-8.4-16.4-10.3-24.9-6-8.5 4.3-13.8 12.9-17.5 21.6-9.1 21.6-10.4 47.2.4 68 3 5.8 7.1 11.4 12.8 14.7 5.6 3.4 13.1 4.3 18.8 1.2 3.7-2 6.4-5.5 8.6-9 5.1-8.1 8.6-17.2 10-26.6.4-2.3.6-4.8-.1-7.1-1.8-5.6-8.4-7.8-13.9-9.9-5.5-2.1-11.6-6.7-10.3-12.5 1.5-6.5 10.4-7.2 17.1-6.4 4.4.5 8.8 1.1 13.2 1.6 3.5.4 7.3 1 9.6 3.6 2.5 2.6 2.7 6.6 2.8 10.2.6 15.5.9 31.2-3.8 45.9zm104.7 7.1c-11.6 16.6-34.7 26-53.1 17.5-13.1-6-21.4-19.9-23.4-34.1-2-14.2 1.5-28.8 7.2-42 4.7-11 11.3-21.7 21.6-27.8 6.5-3.8 14-5.6 21.5-6 9-.5 18.7 1.1 25.5 7 7.6 6.6 10.4 17.1 11.7 27.1 2.6 20.1.7 41.7-11 58.3zm22.8-155.4c-7.6 6.3-18 8-27.8 8.9-21.8 1.8-43.9 0-65.1-5.4-8.2-2.1-16.7-5.1-21.6-11.9-5-7-4.9-16.2-4.6-24.8.8-24.4 1.6-48.8 2.3-73.3.3-9.3-2.9-22.1-12.2-21.2-13.2 1.3-26.6 2.6-39.4-.7-12.8-3.3-25-12.2-28.4-25-2.9-11.1 1.1-22.7 1.2-34.2.2-13.6-5.1-27.8-.2-40.6 4.4-11.4 16.2-18.6 28.3-20.7 12-2.1 24.4.1 36.4 2.5 14.7 3 25.3-15.3 24.4-30.3s-7.8-29.6-5.8-44.5c2.8-20.6 22.6-35.5 43-39.3 20.4-3.9 41.3.9 61.6 5.6 7.1 1.7 14.8 3.7 19.3 9.4 3.4 4.4 4.4 10.2 5 15.8 1.9 17.6 1.7 35.5-.7 53-1.5 11.1 9.2 20.6 20.1 22.9 11 2.3 22.3-.3 33.4-1.2 11.2-.8 23.7.7 31 9.2 6.9 8 7.1 19.7 7 30.3-.3 17.1-.5 34.3-.8 51.4-.2 14.2-5.4 33.2-19.5 32.3-21-1.4-42.2-.2-62.9 3.4-4.9.9-10.3 2.2-13 6.3-2.3 3.5-2.2 8-1.9 12.2 1.2 20.3 2.4 40.5 3.6 60.8 1.1 17.5.9 37.9-12.7 49.1zm106.2 122.9c-2.9 16.9-10.1 33.5-23.2 44.6s-32.5 15.3-47.8 7.7c-12.3-6.1-20.3-19-23.1-32.5-2.8-13.5-1-27.5 2.5-40.8 1.8-6.9 4-13.9 7.9-19.9 6.3-10 16.7-16.9 28-20.5 10.4-3.3 22-3.7 31.9.7 10.7 4.8 18.5 14.8 22.2 26 3.6 11.1 3.6 23.2 1.6 34.7zm103.2-45.2c-.4 30-.9 59.9-1.3 89.9-.1 9.4-.3 18.9-3.4 27.7-5 14-17.6 24.9-32.1 27.8s-30.4-2.4-40.3-13.5c-5-5.6-7.5-16-.8-19.3 5.9-2.9 12 2.9 17.5 6.5 8.2 5.2 19.2 5.6 27.7.9s14.1-14.3 14-24c0-3.8-1.5-6.3 1.5-8.6l-22.3-2.9c-6.3 2.2-13.6.6-19.6-2.5-16.7-8.7-26.2-28.5-24.4-47.3 1.7-18.7 13.6-35.8 29.5-45.9 9.3-5.9 22-9.5 30.9-3 5 3.6 12.5-1.9 18.1.7 4.5 2.1 5 8.3 5 13.5zm41.7 88c-7.5-.5-9.9-10.2-10.2-17.7L782 576.8c-.2-4.7-.4-9.6 1.1-14.1s5-8.7 9.7-9.5 10 2.9 9.8 7.6c-2.2 41.4-1.1 83.1 3.2 124.3.8 9.3.3 21.4-8.5 24.3zm108.5-11.2c-11.5 8.2-26.2 12.1-40.2 9.9-14-2.2-27-10.6-34.2-22.8-7.3-12.4-8.2-27.4-8.9-41.7-.2-4.7-.3-10 2.9-13.5 5.1-5.7 4.7-14.3 7.8-21.3 3.8-8.6 12.6-14 21.7-16.5 13.9-3.9 29.9-1.6 40.6 8s14.4 27.1 6.5 39.1c-3 4.5-7.3 8-12 10.7-10.5 6.1-23.2 8.5-35.2 6.7-6-.9-11 5.8-10.2 11.8.8 6 5.7 10.7 10.9 13.6 14.8 8.3 35 5.7 47.1-6.2 4.5-4.3 12.7.9 12.9 7.2s-4.6 11.4-9.7 15z"/><path fill="#13110C" d="M558.9 494.4c-1.2-20.3-2.4-40.5-3.6-60.8-.2-4.2-.4-8.7 1.9-12.2 2.8-4.1 8.1-5.4 13-6.3 20.7-3.6 41.9-4.8 62.9-3.4 14.1.9 19.3-18.1 19.5-32.3.3-17.1.5-34.3.8-51.4.2-10.6 0-22.3-7-30.3-7.3-8.5-19.9-10-31-9.2-11.2.8-22.5 3.5-33.4 1.2-11-2.3-21.6-11.8-20.1-22.9 2.4-17.6 2.6-35.4.7-53-.6-5.6-1.5-11.4-5-15.8-4.5-5.8-12.2-7.8-19.3-9.4-20.2-4.7-41.2-9.4-61.6-5.6-20.4 3.9-40.2 18.8-43 39.3-2 14.9 5 29.5 5.8 44.5s-9.7 33.3-24.4 30.3c-12-2.4-24.3-4.6-36.4-2.5-12 2.1-23.9 9.3-28.3 20.7-4.9 12.7.4 26.9.2 40.6-.1 11.5-4.2 23.1-1.2 34.2 3.4 12.8 15.6 21.7 28.4 25 12.8 3.3 26.3 2 39.4.7 9.2-.9 12.5 11.9 12.2 21.2-.8 24.4-1.6 48.8-2.3 73.3-.3 8.5-.4 17.8 4.6 24.8 4.9 6.9 13.5 9.9 21.6 11.9 21.2 5.4 43.3 7.2 65.1 5.4 9.8-.8 20.2-2.6 27.8-8.9 13.6-11 13.8-31.4 12.7-49.1zm-16.1-93c-4.3 4.9-5.2 11.8-5.8 18.2-2 21.8-1.7 43.8 1 65.5 2 16.7 2.9 38.1-12.2 45.2-6 2.8-12.9 2.3-19.4 1.7-10.3-.9-20.6-1.8-31-2.7-7.4-.6-15.4-1.5-20.7-6.7-5.7-5.5-6.5-14.2-6.8-22.1-.9-23.5 0-47 2.7-70.3 1-8.5 2-17.7-2.4-25-8-13-26.9-11.4-42.1-10.1-15.2 1.3-35.5-3.8-36.1-19.1-.5-14.7-1.1-29.3-1.6-44-.5-14.5 18.4-21.3 32.9-19.7 14.5 1.6 30.2 6.8 42.7-.7 11.7-7 15.1-22.6 14-36.2-1.1-13.6-5.6-26.9-5.1-40.5.5-13.6 8-28.6 21.3-31.3 14.8-3 30.2-5.9 44.7-2.1 14.6 3.8 28 16.4 27.5 31.5-.5 13.2-1 26.5-1.5 39.7-.4 11.2-.2 23.9 8.1 31.4 15.7 14.3 41.7-4 61.8 3.1 11.2 4 18.3 15.6 20.4 27.3 2 11.7-.1 23.7-2.3 35.5-1.7 9.1-5.7 20.5-14.9 20.9-16.9.8-33.8 1.7-50.7 2.5-8.9.5-18.7 1.4-24.5 8zM715.9 705.8l-19.6-2.5c6.1 3.1 13.3 4.7 19.6 2.5zM696.4 703.3l19.6 2.5c.6-.2 1.2-.4 1.8-.7l-21.4-1.8zM750.4 607.8c-5.6-2.7-13.1 2.9-18.1-.7-8.9-6.5-21.6-2.9-30.9 3-15.9 10.1-27.7 27.1-29.5 45.9-1.7 18.7 7.7 38.6 24.4 47.3l21.4 1.8c-.6.3-1.2.5-1.8.7l22.3 2.9c-3 2.3-1.5 4.8-1.5 8.6.1 9.7-5.5 19.3-14 24s-19.6 4.3-27.7-.9c-5.5-3.5-11.6-9.3-17.5-6.5-6.7 3.3-4.2 13.7.8 19.3 9.9 11.1 25.7 16.4 40.3 13.5s27.2-13.8 32.1-27.8c3.1-8.8 3.3-18.4 3.4-27.7.4-30 .9-59.9 1.3-89.9.2-5.1-.3-11.3-5-13.5zm-28.6 69.6c-4.5 3.7-10.3 7.5-15.7 5.4-8.5-3.3-13.9-12.4-14.3-21.5-.3-9.1 3.8-18 9.8-24.8 5.3-6 12.8-10.9 20.7-10 7.9.9 14.8 9.9 11.2 17-2 3.9.6 8.4 1.1 12.8 1.1 8.6-6.1 15.7-12.8 21.1zM419.9 636c-2.4-2.6-6.2-3.1-9.6-3.6-4.4-.5-8.8-1.1-13.2-1.6-6.7-.8-15.6-.1-17.1 6.4-1.3 5.8 4.8 10.4 10.3 12.5 5.5 2.1 12.1 4.3 13.9 9.9.7 2.3.5 4.7.1 7.1-1.5 9.4-4.9 18.6-10 26.6-2.3 3.6-4.9 7-8.6 9-5.8 3.2-13.2 2.2-18.8-1.2-5.6-3.4-9.7-8.9-12.8-14.7-10.8-20.8-9.5-46.4-.4-68 3.7-8.7 9-17.4 17.5-21.6 8.5-4.3 20.5-2.4 24.9 6 3 5.8 13.1 3.6 15.5-2.5 2.3-6.2-1.2-13.2-6-17.6-14.5-13.1-38.9-9.1-53.1 4.3-14.2 13.4-20.1 33.4-22.8 52.8-2.8 20.5-2.5 42.5 7.6 60.6s32.1 30.8 51.8 24.7c14.7-4.5 25.1-18.3 29.8-33 4.6-14.7 4.4-30.4 4-45.8-.3-3.7-.6-7.6-3-10.3zM160.1 597.8c-5.6-11.8-19.3-17-32.1-19.9-7.7-1.8-15.8-3.1-23.6-1.6-7.8 1.5-15.4 6.2-18.4 13.6-1.6 3.9-1.8 8.1-2 12.3-1.5 31-2.9 62-4.4 92.9-.2 4.9-.4 10.1 1.9 14.4 4.7 8.7 17 9.5 26.6 6.9 20.9-5.7 37.8-22.3 46.9-41.9s10.8-42.1 8.3-63.6c-.6-4.4-1.3-9-3.2-13.1zm-16.4 38c-2.1 12.1-5.1 24.3-11.1 35.1s-15.3 20.1-27 24c-7.5-1.3-8.8-11.4-8.3-19.1l4.2-63.3c.2-3.6.6-7.5 2.8-10.3 2.4-3.1 6.6-4.2 10.5-4.6 9.3-1 19.7 1.5 25.4 8.9 6.2 8.1 5.3 19.4 3.5 29.3zM957.1 228c.3-28.6-1.3-61.8-24.3-78.8-13.5-9.9-34.7-15.8-35.4-32.5-.3-7.2-9.8-9.4-17-9.5l-65.6-.9c-8.1-.1-17.3.2-22.8 6.2-19.6 21.1-52.6 20.5-81.3 18.3-19.6-1.5-29.5-24.5-31.1-44.1-1.7-19.5 0-41.3-12.5-56.4-13.6-16.5-38-17.9-59.4-17.9-66 0-132.1-.1-198.1-.1-20 0-41.8.6-56.9 13.7-19.7 17.1-19.4 47.6-31.8 70.5-19.6 36.1-75.3 45.4-105.6 17.6-8-7.3-19.9-7.8-30.7-8-12.1-.1-24.1-.3-36.2-.4-10.8-.1-23.9 1.1-28.5 10.8-9.1 18.9-35.8 18.7-54.1 29-27.9 15.8-32.4 53.4-33.6 85.5-6 156.6-12 313.2-17.9 469.8-1.1 29.2-.9 62 19.7 82.7 19.7 19.7 50.6 21.1 78.5 21.2 253.8 1 507.6 2 761.4 2.9 22.3.1 45.4 0 65.8-8.9s37.7-29.1 35.9-51.4c-14.3-172.5-20.4-345.9-18.5-519.3zM816.6 123.7c7.6.6 14.8 4.2 22.4 4.6 9 .4 17.6-3.9 26.6-4.8 9-1 20.2 3.6 20.6 12.7.3 6.4-6.2 12.3-12.6 11.2-15.7-2.6-31.7-3-47.5-1.2-5.3.6-10.8 1.5-16 .2-5.2-1.3-10.1-5.6-10.2-11-.1-7.7 9.1-12.3 16.7-11.7zM375.2 37.5c12.7-5.4 26.9-5.5 40.7-5.6l191.4-.6c15.8 0 33.4.7 44.4 12 20.6 21.3 2 62.6 22.9 83.6-17.6 7.5-37.9 8.4-56.1 2.4 4.3-11 25.2-2 31.2-12.1 1.4-2.3 1.5-5.1 1.7-7.8.6-13 1.2-26.5-3.4-38.7-4.6-12.2-15.7-23-28.8-22.9-69.3.6-138.7 1.1-208 1.7-16.5.1-35.8 1.7-44.8 15.5-7.5 11.5-7.5 30.4-20.9 33.6-6.5-23.8 6.9-51.4 29.7-61.1zm234.6 69.7c-8.2-1-6.1 14.4-12.9 19.1-2.3 1.6-5.3 1.6-8.1 1.6l-181.4-1.5c-12.4-.1-8.7-25.5-20.9-27.5-9.7-1.6-10.9-16.7-3.7-23.4s18-7.1 27.8-7.1c64.9-.2 129.7-.5 194.6-.7 4.6 0 9.4 0 13.8 1.6 8.9 3.3 14.5 13.8 12.3 23s-12 16.1-21.5 14.9zM356 114.7c7.3 0 15.1.1 21.4 3.7 2 4.8-5.2 7.9-10.4 8.1-8.6.4-17.2.9-25.8 1.3-6.8.3-14.1.6-20-2.9 8.2-9.4 22.3-10.2 34.8-10.2zm-217.8 12.4c3.5-1.7 7.4-1.9 11.3-2 9.7-.4 19.4-.7 29.1-1.1 6.2-.2 12.8-.4 18.1 2.9 5.3 3.2 8.1 11.2 3.9 15.8-2.7 3-7.2 3.4-11.3 3.6-14.2.6-28.4.1-42.5-1.3-6.1-.6-13.6-2.8-14.4-8.8-.5-3.8 2.4-7.4 5.8-9.1zM933.6 779c-13.7 6.1-29.3 6.4-44.3 6.6-261.8 2.8-523.5-.6-785.3-4.1-16.6-.2-34.4-.8-48-10.4-22.5-15.8-23.8-48.1-22.9-75.6C38.2 541.8 43.3 387.9 48.4 234c.7-20.3 1.6-41.5 11.8-59 10.2-17.5 33-29.5 51.3-20.8 25.2 12 54.3 11.6 82.2 11 6.6-.1 14.4-.9 17.7-6.6 8-13.7 26.8-15.1 42.7-14.8 170.7 2.3 341.4 4.6 512 7 4.8.1 9.7.2 14 2.2 4.7 2.2 8.2 6.6 12.8 9 5 2.7 11 2.9 16.6 3 31.7.7 63.5-.7 95-4.2 12.9-1.4 24.8 8.5 30 20.4 5.2 11.9 5.2 25.3 5.1 38.2-1 175.1 5 350.2 18.1 524.7 1.2 15.2-10.3 28.8-24.1 34.9zM902.7 676.1c-12.2 11.9-32.3 14.5-47.1 6.2-5.3-3-10.1-7.7-10.9-13.6-.8-6 4.2-12.7 10.2-11.8 12 1.8 24.7-.6 35.2-6.7 4.7-2.7 9-6.2 12-10.7 8-12 4.3-29.5-6.5-39.1s-26.8-11.8-40.6-8c-9.1 2.5-17.9 7.9-21.7 16.5-3.1 7-2.7 15.6-7.8 21.3-3.2 3.5-3.1 8.8-2.9 13.5.7 14.4 1.6 29.3 8.9 41.7 7.2 12.2 20.2 20.6 34.2 22.8 14 2.2 28.7-1.7 40.2-9.9 5.1-3.6 9.9-8.8 9.7-15s-8.5-11.6-12.9-7.2zM851.8 617c6.2-6 15.1-10.5 23.4-8 8.3 2.4 13.3 14.2 7.1 20.3-7.3 7.2-19 9.5-28.5 5.5-2.9-1.2-5.9-3.3-6.8-6.3-1.2-4.2 1.7-8.4 4.8-11.5zM628.6 605.9c-9.9-4.4-21.5-4-31.9-.7-11.3 3.5-21.7 10.5-28 20.5-3.8 6-6.1 13-7.9 19.9-3.4 13.3-5.3 27.4-2.5 40.8 2.8 13.5 10.8 26.3 23.1 32.5 15.3 7.6 34.8 3.4 47.8-7.7s20.3-27.7 23.2-44.6c2-11.6 2-23.6-1.7-34.8-3.7-11.1-11.4-21.1-22.1-25.9zm4.5 56.5c-2.5 14-11.2 26.6-22.5 35.3-9.7 7.4-25 1.5-30.8-9.2-5.9-10.7-4.6-23.8-1.5-35.6 1.5-5.7 3.4-11.4 7-16.2 4.5-6 11.2-9.8 17.7-13.5 3.9-2.2 8.4-4.6 12.8-3.3 2 .6 3.7 1.9 5.3 3.3 10.3 9.7 14.5 25.2 12 39.2zM522.7 613.7c-6.9-5.9-16.5-7.5-25.5-7-7.5.4-15 2.2-21.5 6-10.3 6.1-16.9 16.8-21.6 27.8-5.7 13.2-9.2 27.7-7.2 42 2 14.2 10.4 28.1 23.4 34.1 18.4 8.5 41.5-1 53.1-17.5s13.6-38.2 11-58.3c-1.3-10-4-20.5-11.7-27.1zm-7.7 48.7c-1.6 9.3-4.3 18.7-10.3 25.9-6.1 7.2-16.3 11.6-25.2 8.4-8.5-3-13.7-12.3-14.3-21.3-.6-9 2.5-17.9 6.3-26.2 2.8-6.3 6.2-12.5 11.3-17.1 5.1-4.6 12.5-7.3 19.1-5.4 6.7 1.9 11.5 8.2 13.3 14.9 1.7 6.8 1 13.9-.2 20.8zM244.3 612.8c-2.3-2.3-5.9-2.5-9.1-2.6-8.2-.2-16.8-.3-23.9 3.8-4.6 2.7-9.1 7.1-14.2 5.7-3.6-1-7.4 1.3-9.4 4.4s-2.5 7-2.9 10.6c-2.2 20.4-2.8 40.9-1.7 61.3.2 4.5.6 9.2 3 13 2.3 3.8 7.2 6.5 11.4 4.9 6.2-2.5 6.1-11.1 5.4-17.8-1.6-15.4-.1-31.1 4.4-45.9 2.1-6.8 5.1-13.9 11.3-17.4 5.7-3.3 12.9-2.7 19-5 6.3-2.1 11.4-10.4 6.7-15zM802.5 560.8c.2-4.7-5.1-8.4-9.8-7.6s-8.2 5-9.7 9.5-1.3 9.4-1.1 14.1l5.1 114.9c.3 7.5 2.7 17.2 10.2 17.7 8.8-2.9 9.4-15 8.4-24.3-4.2-41.2-5.3-82.9-3.1-124.3zM257.6 695c-4.6-2.8-11.2-1.3-14.2 3.1-3.3 4.8-1.7 12.2 3.3 15.2s12.2.9 14.9-4.2c2.4-4.8.5-11.3-4-14.1z"/></svg>