<svg xmlns="http://www.w3.org/2000/svg" viewBox="0 0 1000 785.7" enable-background="new 0 0 1000 785.7"><desc xmlns:shape="http://adobe.com/products/shape"><shape:version>1.0.2</shape:version><shape:captureDetail>1.000000</shape:captureDetail><shape:source>1</shape:source></desc><path fill="#2BC22B" d="M923.5 164.5c-.3-2.9 2-5.2 4.1-7.2 14.7-13.5 31.3-27.9 51.3-28 2.5 0 5 .2 7.1 1.6 2.1 1.3 3.4 4 2.5 6.3-1 2.5-3.9 3.4-6.5 4.1-15.3 4.2-29.5 12.1-41.6 22.4-2.7 2.3-5.4 4.8-8.8 5.5-3.4.7-7.7-1.2-8.1-4.7zM929.2 312.1c-4 .4-9.3-.1-10.4-4-.6-2.3.9-4.8 2.9-6.1 2-1.3 4.5-1.7 6.9-2 20.3-2.9 40.7-4.7 61.2-5.4 3.9-.1 5.4 5.9 2.8 8.9s-6.9 3.5-10.8 3.9c-13.5 1.2-27 2.5-40.5 3.7-4 .3-8 .7-12.1 1zM8.9 222.5c.4-2.9 3.6-4.8 6.6-4.8 3 0 5.7 1.5 8.3 2.9 13.9 7.6 27.9 15.2 41.8 22.8 4.3 2.4 9.4 6.9 7 11.2-2.4 4.3-8.9 2.5-13.3.1-14.7-8.1-29.4-16.1-44.1-24.2-3.1-1.7-6.8-4.4-6.3-8zM7.4 395.3c-1.2-3 1.3-6.4 4.4-7.5 3-1.1 6.4-.4 9.6.2 15.4 3.1 30.9 6.2 46.3 9.3 4.8 1 10.9 3.7 10.1 8.5-.4 2.5-2.8 4.2-5.3 4.7s-5 0-7.5-.5c-16.7-3.4-33.3-6.8-50-10.3-3.1-.6-6.6-1.6-7.6-4.4zM890.5 12.7c1.9 3.8-1.8 7.9-5.1 10.6-11.9 9.9-22.2 21.7-30.4 34.8-1.4 2.3-2.9 4.7-5.1 6.2-2.2 1.5-5.5 1.9-7.5.2-3.3-2.9-1-8.3 1.5-11.9 9.7-13.7 20.2-26.9 32.6-38.1 2-1.8 4.2-3.7 6.9-4.3 2.6-.8 5.8 0 7.1 2.5zM206.3 57.4c3.8-1.2 6.9 3.2 8.4 6.9 6.7 16 13.3 32 20 47.9.9 2.2 1.8 4.4 2.3 6.7.6 2.7.3 6.1-2.2 7.3-3.6 1.9-7.2-2.7-8.8-6.5-7.1-16.9-14.3-33.8-21.4-50.8-1.6-3.9-2.5-10.2 1.7-11.5zM656.5 63.2c1.9-12.9 3.8-25.9 5.7-38.8.5-3.1 1-6.4 3.2-8.6 2.2-2.2 6.6-2.4 8 .4.7 1.4.5 3 .2 4.5-2.7 17.2-5.5 34.3-8.2 51.5-.5 3.3-5.8 3.4-7.8.7s-1.6-6.4-1.1-9.7zM462.7 94.3c-2.1.7-4.4-.6-5.5-2.5-1.1-1.9-1.3-4.1-1.5-6.3-1.2-15.3-2.4-30.6-3.6-46-.3-3.4.1-7.9 3.4-8.8 2.1-.6 4.4.9 5.5 2.8 1.1 1.9 1.3 4.2 1.4 6.4 1.1 15.5 2.1 30.9 3.2 46.4.2 3.1-.1 6.9-2.9 8zM128.4 190.6c229-42.7 462-60.3 694.6-74.2 9.6-.6 22.8 2.1 22.7 11.7-1.5 144.6 2.6 289.4 12.4 433.7 1.7 24.5 3.5 49.2 11.6 72.4-118.2-4.8-236.8.5-354.1 15.8-3.1.4-6.4.9-8.6 3.2-2.8 2.9-2.7 7.4-2.4 11.4.9 12.7 1.8 25.4 2.6 38.2.3 3.7.8 7.9 3.9 10 2.1 1.4 4.9 1.3 7.5 1.2 41.1-2.1 82.2-4.2 123.2-6.3 12.1-.6 16.2 18.4 7.9 27.2-8.3 8.8-21.8 9.7-33.9 10.1-80.2 3.3-160 15.4-237.6 36.1-6.2 1.6-12.5-3.4-14.6-9.4-2.1-6-1.2-12.6-.2-18.9.6-4 1.4-8.3 4.4-11.1 2.5-2.3 5.9-3 9.2-3.7 33.8-6.7 67.6-13.5 101.4-20.2-.8-16.3-1.6-32.7-2.4-49-.3-6.8-3.3-15.9-10-14.8-92.4 15.3-184.8 30.5-277.2 45.8-2.8.5-5.8.9-8.3-.4-3.8-1.9-4.8-6.8-5.4-11.1C152.9 523 137.4 357 128.4 190.6m102.8 237.3c-13.8-1.3-24.9-13-29.6-26-4.7-13-4.4-27.3-4-41.2.3-9.9 3-22.7 12.8-23.8 10.5-1.3 12.7-15.8 10.4-26.2-2.3-10.4-5.4-23.1 2.6-30.1 3.3 3.4 3.9 8.5 4.2 13.3 5.9 77.7 20.2 154.8 42.4 229.6 3.9 13.2 8.3 26.6 17 37.3 14.4 17.7 38.2 24.5 60.7 28 68 10.5 139.4-1.8 200-34.3 4.3 2.8.9 9.8-3.6 12.2-4.5 2.4-10.4 3.8-12.4 8.5-1.6 3.8 0 8 1.6 11.8 4.9 11.3 9.9 22.8 18.1 32 8.2 9.2 20.3 15.7 32.5 14.2 80.3-10.2 161.4-13.5 242.2-9.8 11.8.5 28.3-3.2 27.4-15-12.4-156-18.3-312.4-17.5-468.7 0-2.9-.1-6-1.9-8.2-2.3-2.7-6.5-2.8-10.1-2.7-223.5 9.2-446.5 31.6-667.3 67.2-6.2 1-13.3 2.6-16.4 8.1-2 3.6-1.8 8-1.5 12.1 11 151 25.2 301.8 42.5 452.2.9 7.8 3.1 17.2 10.7 19.3 2.9.8 5.9.2 8.8-.3 29-5.4 57.9-10.8 86.9-16.2 4.2-.8 8.6-1.6 12-4.1 4.8-3.5 7-9.4 8.9-14.9 5.2-15 10.5-30 15.7-45 1.9-5.4 1.8-14-3.9-14.2-19-.6-35.8-13.8-45.8-30s-14.4-35.1-18.6-53.7c-5.2-23-10.5-46-15.7-69.1-1.2-5.4-3.6-11.8-9.1-12.3m102.6 181.9c-6.3 18-12.7 35.9-19 53.9 6.2.8 12.4 0 18.6-.8 69.7-9.5 139.5-19.1 209.2-28.6 1.6-.2 3.7-.9 3.8-2.5.1-.7-.3-1.4-.7-2-7.8-13.4-15.6-26.8-23.3-40.2-2.6-4.5-7-9.7-11.9-7.8-52.2 20.5-110 26.4-165.2 16.9-5.8-1-9.6 5.7-11.5 11.1m39.4 142.9c-3.4 4.6.6 11.6 6 13.4 5.4 1.8 11.3.2 16.8-1.4 77.6-22.1 158.9-27 239.2-35.2 2.4-.2 5-.6 6.9-2.1 1.9-1.6 2.5-4.9.5-6.4-1-.8-2.5-.8-3.8-.9-86.4-.9-173 8.6-257.1 28.2-3.2.8-6.6 1.8-8.5 4.4M231 416.3c2.2-1.1 2.2-4.3 1.8-6.8l-7.8-50.7c-.9-5.6-3-12.4-8.6-13.1-3.6-.4-7 2.3-8.5 5.7-1.5 3.3-1.5 7.1-1.5 10.8 0 9.9.1 20 2.7 29.6 2.6 9.6 8.2 18.8 16.9 23.6 1.6 1 3.5 1.7 5 .9m253.4 248.8l3 40.8c.2 2.7.4 5.5 2 7.8 1.6 2.2 4.9 3.4 7 1.7 1.9-1.5 1.9-4.4 1.8-6.9l-3.9-51.9c-.3-3.5-5.8-4-8-1.4s-2.2 6.4-1.9 9.9zM213.8 245.1c19-10.6 39.9-17 60.7-23.4 89.2-27.3 180.4-54.9 273.6-52.2 3.8.1 8.5.9 9.7 4.5 1.7 5.3-5.8 8.5-11.4 8.9-50.2 3.4-103.1-2.4-148.8 18.6 43.7-4.3 87.4-8.7 131.2-13 3.6-.4 7.5-.7 10.6 1.2 3.1 1.9 4.5 6.9 1.6 9.1-1.5 1.1-3.5 1.2-5.3 1.2-110 .9-219.8 24.8-320.3 69.5-2.5 1.1-5.9 2-7.4-.2-2-2.9 1.9-6.2 5.1-7.5 26.1-11 52.3-22.1 78.4-33.1-23.4 4.2-46.2 12-67.3 23-2.8 1.5-5.8 3-8.9 2.6-3.1-.4-6-3.9-4.5-6.7.5-1 1.8-1.8 3-2.5"/><path fill="#2BC22B" d="M583.4 296.2c6.3 3.8 8.9 11.6 10 18.8 3.1 19.2-.5 39.4-9.9 56.5-2.2 4-4.8 8.1-4.7 12.6 1.2 60.5.1 121-3.3 181.4-.3 4.8-1.5 10.8-6.1 12-4.8-5.9-4.2-14.4-3.5-22 11.6-113.3 4.2-228.5-21.8-339.3 2.6-4.3 8.8 1.3 10.2 6.2 4.7 15.7 8.1 31.8 10.2 48 1 8 2.4 17 9.1 21.4 3 1.9 6.7 2.5 9.8 4.4m-7.3 11.6c-2.9 1.1-3.2 5-3.1 8.1.8 12.8 1.6 25.5 2.4 38.3.1 1 .1 2 .7 2.7 1.1 1.5 3.6 1 4.8-.3 1.2-1.4 1.5-3.3 1.7-5.2 1.4-11.6 1.6-23.4.5-35-.2-2.2-.5-4.4-1.6-6.2-1-1.9-3.3-3.1-5.4-2.4zM349.7 426.9c22.8 17.1 51.2 31 79.1 24.9 11.3-2.5 22.8-9.5 25.3-20.7 1-4.6.4-9.3-.3-13.9-4.7-34.4-9.3-68.8-14-103.2-.5-3.8.1-9.2 4-9.5 3.6-.3 5.2 4.3 5.7 7.8 4.6 33.3 9.2 66.7 13.8 100 1.4 10.4 2.7 21.7-2.4 30.9-4.1 7.3-11.7 12.1-19.6 15.2-30.4 12-66 2.4-92.2-17.1-3-2.3-6.2-5.1-6.6-8.9-.4-3.8 4.1-7.8 7.2-5.5zM456.4 285.9c4-12.7 14.8-23.2 27.8-26.1 13-2.9 27.6 2.2 35.3 13 7.7 10.8 7.6 26.8-.7 37.1-6.6 8.2-14.1 16.1-23.6 20.5-9.6 4.3-21.8 4.4-29.8-2.4-5.2-4.4-8-10.9-9.5-17.6-2-8-2-16.6.5-24.5m33.9-14.8c-8.6 2.7-16.8 7.5-22 14.9-5.2 7.3-7.1 17.4-3.2 25.6 3.9 8.1 14.1 13.2 22.5 9.9 8.1-3.1 15.8-8 20.8-15.1s6.8-16.8 3.3-24.7c-3.6-8-13.1-13.3-21.4-10.6zM823.9 563.5c.5 5 .9 10.1-.7 14.8s-6.1 8.8-11.1 8.4c-52.6-4.5-105.9-1.7-157.8 8.1-4.5.8-9.3 1.7-13.5-.1-4.2-1.8-7-7.5-4.2-11.1 2.4-3.1 2.3-7.5 2.1-11.4-2.8-56.1-5.6-112.2-8.3-168.3-.3-5.6 8.1-6 13.6-5 10.9 2 22.1.8 33.1-.4 36.5-3.9 72.9-7.9 109.4-11.8 8.4-.9 18.4-1.3 23.9 5.2 3.8 4.4 4.2 10.7 4.4 16.6.6 15.9 1.3 31.8 1.9 47.7 1.4 35.7 3.8 71.6 7.2 107.3m-133.3-88.2c-5.7-12.4 6.5-28.8 20-26.9 2.6.4 5.4 1.3 7.9.5 6.8-2.1 5-12.4.9-18.2-4.1-5.8-9.4-13.4-5.2-19.2 2.3-3.2-3.7-5.8-7.6-5.4-17.4 2-34.8 3.9-52.2 5.9-3.2.4-6.6.8-9.1 2.8-4.2 3.3-4.4 9.5-4.2 14.8 1.6 46.7 4.1 93.3 7.5 139.9.3 4.2 1.1 9.1 4.9 10.9 1.8.8 3.8.7 5.7.6 41.8-2.9 83.6-5.8 125.4-8.6 1.7-.1 3.4-.2 4.9-1 6.5-3.2 2.2-14.3-4.9-15.8-7.1-1.5-14 2.6-20.6 5.5-11.3 5.1-26.8 6.1-33.9-3.9-4.3-6-4-14-6.1-21.1-2-7.1-9-14.3-15.8-11.5-6.9 2.8-14.1 5.6-21.5 5.3-7.4-.3-15.3-4.5-17.4-11.6-1.8-6.2 1.1-13 5.7-17.5s10.6-7.2 16.5-9.8c5.6-2.5 1.6-10.4-.9-15.7m119.1 46.2c1.7-3.3 1.5-7.2 1.2-10.9-.5-7.6-1.1-15.2-1.6-22.9-.9-13.2-2.6-27.9-12.8-36.3-9.7-8-24.2-7.5-34.7-14.6-3.3-2.2-6.1-5.2-9.9-6.4-7.8-2.6-16.2 3.5-19.6 11-3.4 7.4-3.4 15.9-4.5 24s-3.9 16.8-10.8 21.2c-13.3 8.6-26.6 17.1-40 25.7 12.2 7.1 28.6 6.1 39.8-2.5 4.2-3.2 9.8 2 11.4 6.9 1.6 5 2.5 11.1 7.2 13.3 8.9 4.1 19-11.3 27.4-6.1-5.7 9.9-15.2 17.5-26 21 1.2 4.7 6.2 7.8 11 8.2 4.9.4 9.7-1.2 14.2-3 14.6-5.7 28.5-13.3 41.2-22.4 2.6-1.5 5.1-3.5 6.5-6.2m-48.2-104.9c-.4 7.9 9.5 14.1 16.5 10.5 3.1-1.7 5.4-4.8 8.7-6 3.3-1.3 8.3 1.3 7.1 4.6-2.3 6.7.6 14.8 6.6 18.4 1.1.2 2.3.4 3.4.6 3.9-10-2.4-21.2-1-31.8.3-2.7 1.2-5.4 1.1-8.2-.1-2.8-1.6-5.7-4.2-6.5-1-.3-2.1-.2-3.2-.2l-49.5 3.3c-4.2.3-8.5.6-12.7 1.4-3.5.7-6.9 1.9-9.6 4.2-2.6 2.3-4.3 6-3.4 9.4 1.3 5 7.6 7.3 12.7 6.2 5.1-1.1 9.3-4.5 13.5-7.6 2.4-1.7 5-3.4 8-3.4s6.2 2.2 6 5.1m37.2 129.9c-1.1 4.7.9 9.4 2.9 13.8 1.3 2.9 2.7 5.9 4 8.8 1.7 3.8 5.1 8.4 9 6.8 2.8-12.3-5-25.2-2.1-37.4-5.7-1.7-12.5 2.2-13.8 8m-96.4-68.8c1.5 1.1 3.5 1.8 5.3 1.4 1.9-.3 3.4-1.6 4.8-2.9 3.7-3.2 7.7-8.2 5.3-12.5-3.1-5.5-11.7-6.8-16.3-2.6-4.7 4.3-4.2 12.9.9 16.6zM354.2 515.3c1.3-.9 3.1-.8 4.7-.5 7.3 1.3 14.2 4 21.4 5.7 26.5 6.1 54.1-1.4 79.5-11 2.4-.9 5-1.9 7.5-1.5 2.6.4 5.1 2.6 4.8 5.2-.3 2.6-3.1 4.1-5.6 5.1-17.2 6.9-35 12.5-53.4 14.3-18.4 1.8-37.5-.2-54.3-7.8-1.9-.9-3.9-1.9-5.1-3.7-1.2-1.8-1.2-4.6.5-5.8zM289.8 341.2c-3.6-12.7-.6-27.1 8.1-37 8.8-9.8 23.2-14.4 35.9-10.8 12.7 3.6 22.7 15.5 23.4 28.7.5 8.9-5.6 16.8-12.3 22.6-8.3 7.3-18.5 13.1-29.5 13.3-11 .3-22.6-6.2-25.6-16.8m53.8-27c-5.6-9.3-18.5-12.9-28.6-8.9-10.1 4-16.8 14.6-17.3 25.5-.4 8.8 8.5 16 17.3 16.3 8.8.3 17-4.8 23.3-11 4.3-4.3 8.1-9.9 7.4-15.9-.2-2.2-1-4.2-2.1-6zM478.7 313.6c3.2-.4 5-4.9 3-7.5-2-2.6-6.8-1.9-8 1.1-1.2 3.1 1.8 6.9 5 6.4zM323.5 331c3-1.2 3.7-5.8 1.2-7.8s-6.9-.3-7.4 2.9c-.5 3 3.2 6 6.2 4.9zM772.1 501.3c-3 1.4-6.2 2.3-9.5 2.3-9.3-.2-16.8-9.2-17.1-18.5-.4-9.2 5.3-18 12.8-23.3 2-1.4 4.2-2.6 6.5-3.3 10.4-3.1 22 6 23.2 16.8 1.4 10.8-6 21.4-15.9 26m-16.6-22.7c-1 1.9-1.7 3.9-1.6 6 .3 4.9 5.6 8.3 10.5 7.8 4.8-.5 8.9-4 11.6-8.1 1.5-2.3 2.7-5 2.5-7.7-.5-5.1-6.4-8.5-11.5-7.6-5.1.9-9.1 5-11.5 9.6z"/><path d="M709.3 469"/><path fill="#2BC22B" d="M709.3 470.5c1.9 0 1.9-3 0-3s-1.9 3 0 3z"/><path d="M764.8 481.7"/><path fill="#2BC22B" d="M764.8 483.2c1.9 0 1.9-3 0-3-2 0-2 3 0 3z"/></svg>