<svg xmlns="http://www.w3.org/2000/svg" viewBox="0 0 726.1 317.6" enable-background="new 0 0 726.1 317.6"><desc xmlns:shape="http://adobe.com/products/shape"><shape:version>1.0.2</shape:version><shape:captureDetail>0.861511</shape:captureDetail><shape:source>1</shape:source></desc><path fill="#C12C7F" d="M92 298.9c-16.7 8.1-22.3-9-9.3-18.4 13.5-9.8 32.3-15.6 47.5-22.4 31-13.9 62.4-26.6 94.4-38 15.9-5.7 32-11 48.1-16.1 7.5-2.3 15.8-3.9 23-7 10.8-4.6 8.4-8.6 4-18.5-5.7-12.9-15.7-28.2-16.2-42.6-.7-20 15.9-15.2 26.6-24.7 10-9 6.4-26.7-2.7-35-15.2-13.9-17.2 7.7-26 15-14 11.8-16.7-12-19.4-20.9-2.3-7.5-4.7-14.9-7.2-22.3-2.3-7-4-17.9-9.1-23.6-8.2-9.1-27.3 2.8-36.7 6.2-17.1 6.3-34.2 13-51.1 19.9-31.4 13-62.4 26.9-92.9 41.7-7.8 3.8-15.6 7.7-23.4 11.6-6.9 3.5-22.7 8.5-27.8 14.5-8.8 10.4 6.8 34.3 11.1 45 15.2 37.8 30.4 75.7 45.6 113.5-11.7-10.3-17-27-23-40.9-6.9-16.2-13.5-32.6-19.7-49.1-6.3-16.5-12.2-33.1-17.8-49.8-1.6-4.9-6.8-13.7-5.4-18.7 1.7-5.9 12.9-9.3 17.8-11.9 61.9-32.1 125.9-60.3 191.4-84.3 11.3-4.1 29.3-15.4 37.4-1.6 8.6 14.8 10.7 35.2 16.3 51.4 1.4 4.2 3.1 13 9.1 12.8 7.1-.3 4.8-6.7 7.1-11.3 6.4-12.6 22.8-9.2 30.3 0 8.5 10.4 8.2 26.8 5.2 39.3-1.6 6.6-4.3 12.5-9.7 16.9-5.3 4.3-14.5 5.5-16.9 12.8-2.2 6.6 4.1 14.2 6.7 19.9 3.4 7.5 6.4 15.1 9.1 22.9 3.1 9.2 8.9 25.1-.8 32.5-6.3 4.8-20.1 6.1-27.6 8.3-8.3 2.5-16.5 5-24.7 7.7-18.1 5.8-36 12-53.8 18.6-37.2 13.7-73.7 29.3-109.5 46.6m201.3-94.3c-40.6 11.6-80.5 25.4-119.6 41.3-19.5 7.9-38.9 16.4-58 25.4-9.1 4.3-20.4 7.9-28.4 13.9-10 7.5-.9 8.7 6.8 5.3 39.1-17.2 78.1-34.1 118.3-48.7 19.2-7 38.5-13.6 58-19.8 10.2-3.3 20.3-6.4 30.6-9.4 4.7-1.4 10-.9 6-6.5-3.1-4.3-9.5-2.7-13.7-1.5m-3.5-72.7c7.6-1.6 14.9-5.5 20.4-11-3.8-3.6-25.1 4.2-20.4 11 7.7-1.7-2-2.9 0 0zM720.8 105.1c-15.9 41.6-31.7 83.2-47.6 124.8-7.3 19.1-14.5 38.1-21.8 57.2-2.7 7.1-5 21.1-13 24.2-8.5 3.3-21.7-4.9-29.2-7.8-77.7-30-157.5-54.3-238.7-72.8-15.7-3.6-33.2-1.9-31.4-21.5 1.9-21.8 8.4-44.2 13.6-65.4 2.7-10.8 6.7-33.5 22.7-28.4 7.6 2.4 11.3 9.4 20.4 8.3 7.5-.9 14.8-7.2 18.7-13.4 3.4-5.5 5.9-13.7.9-19.1-6-6.5-15.3-2.7-22.6-1.6-4.8.7-10.6 1.8-15.1-.7-9.2-5.4-4.1-16.2-2-24.5 2.6-10.5 5.2-21 7.9-31.5 1.5-5.8 2.4-19.3 6.2-23.4 5.1-5.5 16.1-.3 22.5 1.1 12.2 2.6 24.4 5.3 36.6 8.1C494.1 29 539 40.6 583.5 53.5c22.3 6.4 44.4 13.2 66.5 20.2 7.4 2.4 63.8 16.4 58.6 26.5-77-26.7-155.3-49.5-234.5-68.6-18.3-4.4-36.6-8.6-55-12.6-7.8-1.7-20-7.5-25.9-.1-4.7 5.9-6 21.4-7.9 28.4-1.3 4.9-8.4 20.5-3.3 24.6 5.4 4.3 8.8-3.2 13.9-5.4 15.8-6.8 28.2 6.3 29.2 21.4.8 13.8-4.3 30-16.3 37.8-5.7 3.7-12.7 5.4-19.4 4.4-6.6-1-11.9-8.4-18-8.2-12.6.5-15.5 34.8-17.8 44.1-2 8.4-6.4 18.6-6.5 27.2-.2 10.8 10.2 10.9 19 13.3 78.4 21.2 155.8 46.3 231.7 75.1 11.1 4.2 38.7 21.4 48.3 9 5.6-7.2 7.6-21.9 10.6-30.6 3.6-10.2 7.3-20.3 11-30.4 16.1-43.9 33.2-87.4 51.4-130.4 2.9-.7 2.1 4.6 1.7 5.9m-82.7 197.6c-49.6-19.7-99.8-37.8-150.6-54.1-25.4-8.2-50.9-15.9-76.6-23.1-13.7-3.9-27.4-7.6-41.2-11.3-4.3-1.1-27.6-9.7-25.6.2 1.4 7.3 25.9 9.2 31.3 10.5 13 3.1 26 6.3 39 9.7 25.9 6.7 51.7 14.1 77.2 22 25.6 7.9 51 16.4 76.2 25.5 9.4 3.3 65.1 30.5 70.3 20.6M378.1 82c7 4.4 19.5-1.8 27.5-.9 5.7.6 18.7 2.2 8.8-6.7-7.1-6.4-13.2-2-20.1.6-4.9 1.8-13.9 1.5-16.2 7zM483.2 138.5c2.2 5 13.5 3.2 16.4-.1 3.5-4.1 2-18.9 8.2-20.7 6.5-1.9-.1 10.2 1.4 12.2 5.3 7.7 13.4-10.8 16.6-12.1 3.5 5.8-2.5 11.6-4.4 16.6-2.2 5.7-1.1 17.4-8.7 19.3-2-4.2 4-10.6.4-14-3.7-3.5-5.7 1.2-8.7 3.4-7.9 5.9-24 10.5-26.5-3.1-1.2-6.3 5.8-26.2 14.4-25.3 11 1.1-12.6 15.8-9.1 23.8 1.3 3-.9-2.1 0 0zM131.8 137.4c3-3.9 8.7-7 13.4-4.3 6.5 3.8 1.1 6.9 2 11.7 1.6 8.5 13.6 6.5 11.3 17.8-2.2 10.3-12.4 13.7-18 5.4-4.4-6.5-14.6-23.1-8.7-30.6m15.4 27c6.9 1.3 6.6-7.5.6-8.3-6.5-.9-7.1 7.1-.6 8.3M136 145c3.4 2.9 11.3-1.8 6.2-5-4.1-2.5-6.2 2.4-6.2 5zM254.1 113.3c-4.7 7.6 8.3 15.1 4.2 22.8-5.1-5.6-14.1 3.4-20.2.4-6.3-3.1-8.5-13.8-9.1-20.1-.5-4.8-.6-16.9 4.4-20 8.5-5.3 4.1 3.9 2.7 7.2-2.4 5.7-4 11.8-1.9 17.9 1.6 4.4 7.8 11.7 12.6 5.8 3.6-4.5-2.4-10.3.7-15.8 3.5-6 12.6-7.8 6.6 1.8-4.3 6.9 1.4-2.3 0 0zM227.2 142.1c-6.9 1.1-11.7-2.8-17.3-5.9-7.1-3.9-7.1-4.2-6.2 3.4.3 2.8 4.3 13.2-1.7 5.7-3-3.8-5.7-15.8-6.5-20.4-3.3-17.7 13.1 7.5 20.1 7.2 6.5-.2 3.2-3.7 1.6-7.5-2.7-6.5-5.2-12-3.9-19.3 7.9 10.8 11 24.1 13.9 36.8-8.3 1.3-2.9-12.8 0 0zM548.5 144.7c1.5-6.1 4.6-12 8.9-16.6 5.4 2.9-6 22.3-7.5 25.1-1.4 2.7-2.4 7.6-6.5 7-2.8-.4-2.6-5.5-4.4-7-5.4-4.5-10.6 3.4-12.7-.4-2.7-5 8-20.6 10.2-24.4 5.2 2.3 2.4 8.5 3.6 12.3.5 1.5 6.6 11.3 8.4 4 1.5-6.2-.7 2.9 0 0zM90.4 175.4c11.6 6.5.9-14.8.5-18.8 6.5-.9 7.6 8.5 8.4 12.5 1 4.5 4.5 11.2 4.8 15.2 1.2 13.5-11.4-4.4-15.9-4.3-10.4.2 3.8 10.8.6 14.9-3.5 4.5-8.8-12.2-9.6-14.2-2.5-5.7-5.5-11.6-6.5-17.8 3.8-2.8 14.8 10.9 17.7 12.5 1.3.7-4.1-2.3 0 0zM625.8 170.2c-8 16.6-29.5 11.4-19.7-7.7 2.9-5.6 8.6-14 15.8-11.8 8.5 2.7 6.9 13.4 3.9 19.5m-12-7.8c-4.3 6.6-5.1 15.7 4.6 8.3 8.3-6.3 1.8-18.2-4.6-8.3-1.2 1.8 1.3-2.1 0 0zM109 156.1c.3-11.8 7.1-3.1 11.4 1.9 2.8 3.3 15.1 14.3 14.7 18.7-.5 6.7-7.8-1.9-9-2.3-5.4-2.2-14.2.4-10.6 8.3-7.5 4.4-6.6-22.3-6.5-26.6m8.6 9.9c1.1-3.8-4.5-4.4-3.4-.2 1.2-.2 2.3-.2 3.4.2zM63.2 167.9c-3.3 2.6-10.9 9.6-6.8 14.2 3.9 4.3 11-3 13.1 1.8 2.1 4.7-7.7 5.5-8.1 9.4-.8 10.2 13 .8 14.2 6.1 1.1 5.1-10.1 8-13.4 6.6-5-2.2-6.4-10.1-8.2-14.8-2.1-5.5-6.3-12.6-3.6-18.6 1.7-3.9 10.7-11.4 12.8-4.7-2.8 2.2-.5-1.5 0 0zM649.2 183.3c-.9 2.5-3.3 14.4-7.1 14.1-.7 0-8.8-8.3-9.5-9.1-6.3-8.5 2.2-28.5 13.2-31.5 7.8-2.1 4.8 1.8 2.2 5.8-3.1 4.7-12 9.2-12.5 15.6-.8 13.5 17.9-6.9 13.7 5.1-1.3 3.7.6-1.7 0 0zM571.3 165.1c-6.3 4.4-13.9 2.2-14.7-5.8-.6-6.1 5.6-15.3 10.5-18.6 15.9-10.4 14.3 17.3 4.2 24.4m0-18.6c-4.8.3-8.4 8.7-9.5 12.4 10.3 3 16.2-12.8 9.5-12.4-1.4.1 3.5-.2 0 0zM665.9 171.8c3.5-2 7-4 10.5-5.9 2.5 7.6-11.1 27.4-17.7 33-4.3-5.6 3.2-12 2.6-18.3-.4-3.6-3.7-6.8-2.4-10.8 2.4-6.9 4.9-1.5 7 2 3.5-2-1.2-1.9 0 0zM466 122.2c1.9 1.3 6 1.3 4.9 4.6-.7 2.2-3.9-.8-5.8.3-1.7 1-4.5 1.1-4.3 4.1.1 2.6 3.4 1.8 3.8 3.1.9 2.8 3.8 1.2 1.3 4.2-1.4 1.7-7.1-.1-8.5-1-4.9-3.5-3.8-7.8-2.4-13.2 1.6-6.5 13.5-29.5 22.8-18.4 4.5 5.3-23.5 8.5-11.8 16.3 1.2.8-3-2 0 0zM435.8 132.2c1.4-8.5 6.4-16.7 6.4-24.9 0-3.7-3.8-5.1 1.4-8.1 2.3-1.3 9.4.4 10.4 2.6 1.7 3.4-5.4 8.3-7.2 12.2-1.4 3.1-5 21.4-11 18.2 1.1-6.6 1.9 1 0 0zM179.4 156.7c-8.9 7.4-12.2-1.5-15.1-8.8-1.3-3.4-10.3-20.1-2.8-19.8 3.9.1 6.8 20.3 12 22.9 2.2 1 14.6-1.6 5.9 5.7-2 1.6 1.9-1.6 0 0zM192.6 154.3c-2-4.4-18.4-33.4-11-35.6 6.4 11.1 11.3 23.1 14.5 35.5-1.1 0-2.3.1-3.5.1-4-9 1.2 0 0 0zM594.6 141.5c5.3 3.4-5 15-5.4 18.6-.4 4 .5 3.6 1.4 6.2.9 2.5 7 3.1 2.1 7.4-7 6.4-10.4-6-9.9-10.3.4-3.3 6.5-23.5 11.8-21.9 2.1 1.4-2.4-.7 0 0z"/></svg>