<svg xmlns="http://www.w3.org/2000/svg" viewBox="0 0 371.4 426.9" enable-background="new 0 0 371.4 426.9"><desc xmlns:shape="http://adobe.com/products/shape"><shape:version>1.0.2</shape:version><shape:captureDetail>0.933453</shape:captureDetail><shape:source>1</shape:source></desc><path fill="#C12C7F" d="M319.7 172.7c-.1-3.2-2.4-6.6-5.3-8 2.8 89.9-18 235.7-126.1 256.7-50.9 9.9-95.6-19.5-119.6-63-5.7-10.4-10.3-21.3-14.1-32.5-2.6-7.6-4.1-26.3-13-29.7-3.5-1.3-7.7 1-11.6.7-5.1-.4-10.1-3.2-13.8-6.7-8.6-8.1-10.2-20.7-10.7-32s-.4-23.9 4.5-34.4c5.2-11.2 17-12.7 21.3-23.8 11.8-29.9 21.7-60.7 33.1-90.7-13.7 9.3-17.7 26.4-22.2 41.3-1.8 6-12.9 41.7-22.9 33.1-8.3-7.2 12.8-40.2 16.9-47.4 5-8.9 10.7-17.4 17.7-24.9 2.1-2.3 19.9-19.9 7.6-19.4 16-18 37.8-26.9 58.5-38.1 22-11.9 43.6-24.4 64.8-37.5-22.3 3.4-42.1 15.5-61.6 26.2-18.4 10.1-38.7 19.1-54.5 33.1-14.3 12.7-18.7 30.6-30.5 44.9-2.6 3.1-12.7 14.2-18 9.3-3.9-3.6 9.2-20.1 11.3-23C55.1 73.7 89.4 49.8 125.4 32c19.4-9.6 40.6-19.8 62.4-21.7 9.3-.8 20.7-2.3 29.9-1.6 11.1.9 17.8 8.5 23.8 17.3-1-6.1 1.5-13 7.8-8.5 1.4 1 4.4 8.9 5.8 10.6 2.1 2.6 4.7 4.8 7.5 6.7 4.3 2.8 11.4 3.9 14.7 8 2.9 3.6 2.8 9 5.5 13 9.8 14.2 38.6 17.6 39.2 37.8-11.2-6.4-22.5-12.8-33.7-19.3 14.1 17.9 26 37.4 35.5 58.1l-12.6-3c1.6 12.4 0 38.7 17.4 25.1 11-8.7 23.6-10.5 33.8 1.8 16.9 20.4-8 82.9-38.3 66.2 19.1-7.7 34.8-29 33.2-50.2-.6-8.8-8.4-22.3-19-15.4-4.1 2.7-10.4 24.3-18.6 15.8M89.1 81c-19.5 16.3-23.9 49.1-29 72.4-6.5 30.1-10.3 61-9.2 91.8 1.8 52.6 18.2 113.6 59.2 149.7 39.4 34.6 96.9 22.7 131.8-12.5 38.1-38.3 50.9-96.2 57.5-147.9 2.1-16.7 3.4-33.6 3.9-50.4.5-18.8-2.5-29-12.8-44.4-8.2-12.2-18.7-27.8-22-42.3-3.5-15.8 22.5 4.3 28.3 7.8-18.6-35.3-42-70.2-86.9-64.6-21.4 2.7-42.8 8.7-63.3 15.3-18.5 6-42.1 12.2-57.5 25.1M38.5 229.7c-2.1-3.5-6.5-13.1-11.4-13-5.5.1-9.2 12.6-10.1 16.5-3.3 13.5-2.6 31.9 3.3 44.5 6.5 14 24.9 18.4 22.8-1.6-.9-8.8-2.4-17.1-2.2-26 .2-7.3 1.7-13.7-2.4-20.4M141.1 47.8c4.8 6.2 29.1-9.9 34.2-12.7 11.3-6 23.2-12 36.3-12.5 1-15-29.9 3-33.7 4.8-12.5 5.8-26.4 11-36.8 20.4m99.6-20.7c-6.3 2.4-10.6-6.4-16.6-6.6-4.8-.2-14.2 5.4-9.6 11 3.8 4.6 6.3-2.2 10.3-2.7 5.8-.7 19 8.1 24.7 10.2.1-4.4-1.9-14.6-8.8-11.9m60.5 112.5c7.2-6.9-6.4-33.1-15.3-33.7-7.3-.5-1.5 6 1.2 11 2.8 5.5 7.6 20.5 14.1 22.7M200.8 36.9c4.5-.4 8-4.2 3.2-7.4-4-2.7-15.7 2.7-18.8 5-13.7 10.3 10.5 2.9 15.6 2.4M44.4 197.3c-1.8-2.4-11.6 14-1.4 16.5.9-3.4 3.8-13.3 1.4-16.5-1.2-1.6.4.5 0 0z"/></svg>