<svg xmlns="http://www.w3.org/2000/svg" viewBox="0 0 711 524.6" enable-background="new 0 0 711 524.6"><desc xmlns:shape="http://adobe.com/products/shape"><shape:version>1.0.1</shape:version><shape:captureDetail>0.750000</shape:captureDetail><shape:source>1</shape:source></desc><path d="M573.5 263.1c-11.5 17-29 29.8-48.6 35.6-8.2 2.4-17.1 3.7-24.1 8.6s-11.6 15-7 22.2c3.2 5 9.5 6.9 15.3 8.3 9.1 2.1 20.9 2.8 25.4-5.4 10-18 26.4-32.3 45.6-39.8 6.1-2.4 12.6-4.1 19.1-3.3s12.9 4.5 15.4 10.6c4.1 9.8-3.2 20.6-11.2 27.6-12.4 10.8-27.8 18.3-44 21.3-6.4 1.2-12.9 1.8-19.1 4-6.1 2.2-11.9 6.5-13.9 12.7-2 6.2 1.1 14.1 7.4 15.7 13.8 3.4 28.9 1.2 41-6.1 6.6-3.9 14.3-9.5 21.2-6.1-13.4 18-37.6 27.4-59.6 23-10.2-2-22.4-6.1-29.6 1.3-11.7 12.1-27.7 19.9-44.4 21.9-8.5 1-15.2-9.2-13.1-17.6s10.1-14 18.3-16.5c8.2-2.4 17-2.4 25.5-3.6 8.5-1.2 17.4-4 22.8-10.6 2.6-3.1 4.3-7.2 3.5-11.2-.8-4-4.8-7.3-8.7-6.5-8.5 1.7-17.3-8.5-25-4.4-2.9 1.6-4.5 4.8-6.2 7.7-6.9 12.2-17.8 22.1-30.6 27.7-9.6 4.2-22.1 5.5-29.4-2.1-9.5-9.8-3.1-26.5 6.1-36.5 8.2-8.9 19.2-16.2 31.3-16.6 6-.2 12.2 1.3 18-.5 5.8-1.7 10.5-8.9 7-13.7-2.6-3.6-7.8-3.6-12.2-3.5-21.5.4-43-4.1-62.5-13.2-4.1-1.9-8.5-4.5-9.6-8.9-1.1-4.4 4-9.7 7.7-7 18.7 13.9 43.1 16.8 66.3 19 5.7.5 12.2.9 16.5-2.9 2.5-2.2 3.9-5.4 5.2-8.4 10.7-25 25.3-51.3 50.6-61.1 12.1-4.7 28.5-3.6 34.8 7.8 5.3 9.4.9 21.5-5.2 30.5M537 239c-9.9 9.1-17.9 20.1-24.5 31.8-3.6 6.2-6.8 12.7-9.7 19.3-.9 2.1 2.7 3.1 4.9 2.6 21.2-5.1 40.6-17.5 54.2-34.6 5.1-6.4 9.5-15.5 5.1-22.4-3.1-4.9-9.7-6.6-15.3-5.4-5.6 1.2-10.5 4.8-14.7 8.7m57.5 57.6c-2.6-.3-5.1.7-7.5 1.7-18.3 8.2-33.9 22.3-43.9 39.8 1.6 2.1 4.8 2.1 7.4 1.7 15-2.1 29.5-8.2 41.5-17.6 4.3-3.4 8.6-7.5 9.8-12.9s-1.9-11.9-7.3-12.7m-161.8 76c3.4 1.2 7.1 0 10.4-1.5 10.4-4.8 19.5-12.5 25.8-22.1 1.6-2.5 3.1-5.4 2.5-8.3-1.2-5.4-8.4-6.7-13.9-5.7-10.5 1.9-20.1 8-26.4 16.6-2.4 3.3-4.4 7.2-4.4 11.3-.1 3.9 2.2 8.3 6 9.7m28.2 27.8c-.1 1.9 1.7 3.4 3.6 3.8 1.9.4 3.8-.2 5.6-.7 7.2-2.1 14.5-4.2 20.7-8.5 2.3-1.6 4.4-4.7 2.6-6.8-1.1-1.2-3-1.2-4.7-1-9.7 1-20.6 2.6-26.5 10.4-.7.8-1.3 1.7-1.3 2.8m25.2-94.5c-.5 1.6.9 3.5 2.6 3.5 1.1-1.8 2.3-3.7 3.4-5.5-.6-.8-1.6-1.4-2.5-1.5-1.2 1.2-2.4 2.3-3.5 3.5m15.9 82.8c.7-.9 1.3-1.8 2-2.8-.5-.8-.9-1.7-1.4-2.5-1.4-.5-3.2.4-3.5 1.9-.3 1.5 1 3.1 2.5 2.9M483.9 334c-.4-.9-.9-1.7-1.3-2.6-1.9-.7-4 1.9-2.9 3.6s4.4.8 4.5-1.2l-.3.2zM579.6 48.2c2.7 6.8.3 14.5 1.4 21.7s10.1 14.1 15.2 8.9c6.6-6.8 18.8-4.2 25.2 2.8 6.4 7 8.5 16.8 10.5 26.1 17.1 81.4 39.3 161.8 66.4 240.4 1.3 3.9-4.4 7-8 5.2-3.6-1.8-5.2-6.1-6.5-10-26.6-82.5-49.9-166-69.9-250.3-1.3-5.4-9-5.2-14.4-3.7-148.7 41.4-296.3 86.6-442.7 135.7-4.6 1.6-9.8 3.6-11.7 8.1-1.2 3.1-.6 6.5.1 9.8 17.3 84.7 38.2 168.6 62.8 251.4 1.6 5.3 5.4 11.9 10.7 10.1 158.6-52 318.5-99.9 479.6-143.6 5.3 2.6-1.2 10.1-6.9 11.8-158.7 47.3-317.5 94.7-476.2 142-3.2 1-6.8 1.9-9.9.8-6.6-2.3-7.4-11-8.4-17.9-1-6.9-6.8-15.2-13-12.2-8.5 4-19-.4-25-7.6-5.9-7.3-8.3-16.7-10.6-25.8-6.3 4.1-12.8 8.3-20.3 9.3-7.4 1.1-16-2-19-8.9-35.3-82.1-66.2-166-92.4-251.4-.7-2.3-1.4-4.9-.3-7.1 1-2 3.2-3.1 5.3-4.1 153-68 309.3-128.5 468.2-181.1 6.9-2.3 15-4.4 20.9-.1 7.1 5.1 6.2 15.6 7.1 24.3.9 8.7 9 19 16.5 14.5 7.4-4.4 15.1-9 23.7-9.9 8.6-1 18.3 2.8 21.6 10.8M166.9 461.5c3 7.5 10.4 16.6 17.3 12.3 5.1-3.2 4-10.9 2.3-16.7-21.5-71.9-39.9-144.7-55.1-218.1-.9-4.4-1.7-9.2.5-13.1 2.3-4 7-5.8 11.4-7.2 138.8-46.3 278.4-90.1 418.8-131.1 5.6-1.7 8.8-8.1 8.6-13.9-.2-5.9-2.9-11.3-5.5-16.6-1-2-2.2-4.1-4.3-4.8-1.5-.5-3.2-.1-4.8.3-104.9 26.8-207.4 62.5-309.7 98.1-50.7 17.7-101.4 35.3-152.1 53-2.2.8-4.6 1.6-6 3.5-2.3 2.9-1.5 7.1-.6 10.7 20.6 82.8 47.1 164.3 79.2 243.6m-94.2-260c1-1.2 2.6-1.8 4.1-2.3 56-19.8 111.9-39.6 167.9-59.4 83.1-29.4 166.4-58.8 251.6-81.3 7.3-1.9 11.2-10.5 10.4-18.1s-5.1-14.2-9.2-20.5C341.3 66.4 190.6 129.4 40.2 192.3c-3.1 1.3-6.5 2.8-8.3 5.7-2.8 4.4-1.1 10.1.7 15 26 71.1 51.9 142.1 77.9 213.2 2.5 6.9 5.3 14.1 11.2 18.5s15.9 3.8 19-2.8c2.1-4.5.3-9.7-1.4-14.4-26.8-71.2-49.3-143.9-67.2-217.7-.7-2.8-1.3-6.1.6-8.3zM275.4 432.9c6.6 5.9 17 5.6 24.9 1.6 7.9-4 13.8-11 19.4-17.8 2.3-2.8 7.3-.6 8.3 2.8s-.8 7.1-2.8 10c-8.5 12.1-23.3 19.6-38 19.1-6.8-.2-15.9-.7-18 5.8-3.2 9.5-13.4 15.9-23.5 15.4s-19.2-7.5-23.3-16.7c-3.5-8-2.6-18.8 4.6-23.7 10.1-7 24.3 1.5 36.2-1.9-8.3-10.7-13.6-23.8-15.1-37.3-.5-4.7-6.5-6.6-11.1-5.8-4.6.8-9 3.3-13.7 3.1-1.5-.1-3.2-.5-4.1-1.7-2.1-2.5.4-6.5 3.4-7.7 3-1.2 6.5-1 9.6-2.1 6.5-2.4 9.3-10.5 8.5-17.4-.8-6.9-4.2-13.2-6.3-19.8-3.4-10.3-3.6-21.9 1.1-31.7s15.1-17 25.9-16.4c4.2.2 8.9 2.1 10.2 6.1 1.3 4-3.6 9-7 6.4-5.9-4.5-15 .2-17.8 7-2.8 6.8-1.3 14.6.3 21.8 1.7 7.6 3.3 15.2 5 22.9.9 4.1 2.4 8.8 6.3 10.2 3.1 1.1 6.5-.5 9.7-1.4s7.5-.4 8.6 2.7c1.3 3.7-3.1 6.8-6.8 7.8-3.8 1-8.4 2-9.6 5.7-.5 1.7-.1 3.5.3 5.2 2.3 10 4.7 20 7 30.1 1.1 6.3 2.9 13.2 7.8 17.7M247 460.5c2.2 0 4.2-1 5.9-2.3 4.8-3.7 7.1-11.5 2.9-15.9-2.5-2.6-6.4-3.2-10-3.7-3.9-.5-8.7-.7-11 2.6-2.7 3.8.1 8.9 2.9 12.6 2.4 3.1 5.3 6.6 9.3 6.7m14.3-22.8c1.6 2 4.4 3 7 2.4.3-4.6-4.6-7.6-8.7-9.6-1.8.3-3 2.5-2.4 4.2 1.3 1 2.7 2 4 3h.1zM358.2 431.6c-4.7-1-9.5-3.8-10.5-8.5-.9-4.7 5-9.7 8.7-6.6 8.1 6.9 21.7 2.2 27.3-6.9s5.1-20.6 3.4-31.1c-1.9-11.9-5.4-24.2-14.2-32.5s-24.1-10.5-32.5-1.9c-4.8 4.9-8.9 13.2-15.5 11.6-4.7-1.2-6.4-6.8-7.3-11.6-2.9-15.5-5.8-31-8.7-46.4-.5-2.8-1-5.7.1-8.3 1.2-2.8 4.1-4.5 6.8-5.9 6.7-3.5 13.4-6.8 20.4-9.7 3.3-1.4 6.7-2.8 10.3-2.6s7.3 2.2 8.3 5.6c1 3.4-2.1 7.7-5.6 7-9.4-2-19 5-22.6 13.9-3.5 8.9-2 19.1 1.4 28.2 1.8 4.8 7.3 10.1 11 6.7 9.8-9.1 26.1-8.5 37.3-1.2 11.2 7.3 18.1 19.9 22 32.7 4.6 15.2 5.6 32.3-1.3 46.6-7 14-23.3 24.4-38.8 20.9m-33.6-94.2c-1.4 1.9 1 4.2 3.1 5.3 1.3.7 2.6 1.3 3.9 2 1.5-3.1-.5-7.3-3.8-8.1-1.2-.2-2.5-.1-3.2.8z"/></svg>