<svg xmlns="http://www.w3.org/2000/svg" viewBox="-461 451 75.7 100" enable-background="new -461 451 75.7 100"><path fill="#29A4C5" d="M-388.3 500.6c-1.3.9-1.9 1.9-1.2 3.4.4.8.5 1.7.1 2.6-1 .1-1.9.2-2.9.3.8.5 1.5.9 2.2 1.3.3.9.2 1.7-.8 2.3-.8.6-1.2 1.5-1.1 2.7.4 5.7-.1 6.2-5.6 6.6-.6.1-.6.1-1.4 0-.8.1-1.3-.1-1.3-.1-.9-.1-.7-.2-1.5.6-.5 1.7-1.5 2.9-1.7 4.6.1 1.7-1 3.2.2 5.2.9 1.5 1.4 3.1.4 4.7-1.4 1.3.3 1.9.6 2.8.4 1.1 2.5 2.3 1.6 2.9-1.6 1-2.3 3.4-4.5 3.2-2.5-.2-4.8 1-7.2.9-.7 1.7 3.9 2.8.4 4.7h-9.6c-3.4.1-6.9.3-10.3.5h-3.5c-1.1.1-2.3.2-3.5.3l.1-.3c-.3.1-.5.1-.8.1-.9.2-1.8.2-2.7.1-.2 0-.4-.1-.6-.1-.2.1-.3.2-.5.1l-.2.2-.3.3c-.6 0-1.2.1-1.8.1-.7-1-3.2 1.4-2.8-1.5.1-.6.1-1.3.2-1.9.5-1.1.2-2.6 1.2-3.5.3-1.1 2.4-2.6-1.1-2.3-1.6.2-3.5-1.7-5.2-2.7-1 .7.5 1.9-.1 2-1.4.2-2.4-.7-3.3-1.7 0-.4-.1-.7-.6-.4-.9-.8-1.7-1.6-2.5-2.4-.3-.7-.6-1.3-.9-2-.9-16.7 2.4-32.8 7.1-48.6 1.8-6 2.9-12.2 5.5-17.7 2.8-5.9 5.6-12.6 13.7-13.5.5 0 .8-.7 1.2-1.1 2.3-.4 4.3-1.7 6.8-1.3.5-.3.9-.5 1.4-.8 6.4-.2 12.5 1.8 18.5 3.6.5.1.9.3 1.4.4.3.2.5.4.8.6 3.5 2.2 7.2 4.1 11.2 5.3 3.1.9 2.4 4 3.8 5.9 1 2.1.9 4.2 0 6.3 0 1.3 0 2.6-.1 3.9-1-.7-1.1-.9-1.4-2.5.1 1.1.1 2.2.1 3.3-.2 2.5-.1 5-.6 7.5-.6 3.4 1.8 5.9 3.7 8.4 3.2 3.9 3.3 4.1-.6 6.7z"/></svg>