<svg xmlns="http://www.w3.org/2000/svg" viewBox="0 0 1000 786.4" enable-background="new 0 0 1000 786.4"><desc xmlns:shape="http://adobe.com/products/shape"><shape:version>1.0.1</shape:version><shape:captureDetail>0.750000</shape:captureDetail><shape:source>1</shape:source></desc><path fill="#FEDB48" d="M468.3 260.6c-45.6-.4-91.3-.7-136.9-1.1-33.1-.3-67.3-.3-97.7 13-30.3 13.3-55.7 43.8-52.2 76.7 3.1 29.2 28 52.3 55.5 62.4 27.5 10.1 57.6 9.9 87 10 47.1.2 94.2 1.5 141.2 4.1 8.2.4 11-10.6 11-18.8 0-46.3.1-92.6.1-138.9 0-1.9-.1-3.9-1.2-5.3-1.6-1.9-4.4-2.1-6.8-2.1zm-246.6 63.7c-1.2 2.9-6.4 3.2-7.1.2l-.9.4c-1.5-3.3.9-7.7 4.4-8.3 2.7 1.4 4.8 4.8 3.6 7.7zm12.3 53.6c-4-1.1-3.2-8.5.9-8.6l.2-.9c1-1.1 3.2.1 2.8 1.5 3.3 2.6.1 9.1-3.9 8zm28.9-83.4l-1.4-.5c.7-3.6 4.8-6.2 8.4-5.2 1.8 2.9 2.1 7.2-.5 9.4-2.7 2.2-7.9-.5-6.5-3.7zm10 36.9c-4.5.5-8.2-5.3-6-9.2l.4.2c1.3-2.8 6-2.3 7.5.5 1.4 2.8.2 6.3-1.9 8.5zm36.8 65.3c-4.1.6-7.9-4.2-6.3-8 1.5-3.8 7.5-4.7 10.1-1.5 2.5 3.3.3 8.9-3.8 9.5zM320.2 292c-2.7-1.7-2.5-6.4.3-7.8 2.8-1.5 6.7 1 6.6 4.2-.1 3.1-4.3 5.3-6.9 3.6zm11.7 46.5c-3.1 1.5-7.3-1.2-7.3-4.7.9-2.3 3.4-3.8 5.9-3.5l.2.2c1.3 2.5 1.7 5.3 1.2 8zm54.8-3.6c-2 3.2-8.4 1.3-7.5-2.4l-1.5-.3c.4-2.9 2.5-5.5 5.3-6.5 3.4 1.6 5.7 6.1 3.7 9.2zm1.5-53.1c.9 1.6-.8 3.7-2.6 3.5-1.8-.1-3.2-1.8-3.6-3.6-.7-2.6.7-5.9 3.4-6.3 2.6-.4 4.8 3.7 2.5 5.2l.3 1.2zm24.6 74.6c-3-1.7-3-6.8 0-8.5 2.9-1.7 7.1.8 7.2 4.2v-.2.4-.2c0 3.3-4.2 5.9-7.2 4.3zM424 401c-2.6-.8-3.5-4.8-1.4-6.6 2.1-1.8 5.9-.5 6.5 2.1l-.4-.3c.8 2.6-2.1 5.6-4.7 4.8zm16.8-96.8c-2.2 3.5-8.2 3.3-10.1-.3-1.9-3.6 1.3-8.7 5.3-8.6 4.1.1 6.9 5.4 4.8 8.9zM650.5 68.1c-7-16.6-22-28.9-38.8-35.3-16.8-6.5-35.2-7.6-53.1-6.5-19.1 1.1-39.6 5.5-52.3 19.8-13.8 15.4-15 37.9-15.6 58.5-1.2 44.4-2.3 88.8-3.5 133.2 3.8 7.1 13.4 7.9 21.4 7.9 45.5-.1 91.1-.3 136.6-.4 2.6 0 5.6-.2 7.3-2.1 1.4-1.5 1.6-3.7 1.7-5.8 2.8-43.8 3.6-87.7 2.3-131.5-.4-12.9-1-26-6-37.8zM519.7 83.8c.1-2.6 2.7-4.9 5.2-4.4s3.8 4.2 2 6l1.3 1.4c-1.4.9-2.8 1.9-4.1 2.8-2.5-.8-4.5-3.2-4.4-5.8zm13.6 112.5c-3.5.3-6.5-3.9-5-7 1.4-3.2 6.6-3.7 8.6-.8 2 2.8-.1 7.5-3.6 7.8zm6.2-54.6c-3.3-.7-5-4.8-3.9-8 1.9-3.4 8.1-2.6 9.1 1.2l-.8.5c2.2 2.6-1.1 7-4.4 6.3zm36-81.6c3.4-.1 5.9 4.7 3.7 7.3l1.3.7c-2.2 2.7-7 2.5-8.8-.4-1.9-2.9.4-7.5 3.8-7.6zm-1.6 109.1c-2 2-6 1.1-6.8-1.7-.8-2.7 2.1-5.7 4.9-5.1 2.7.7 3.8 4.7 1.9 6.8zm8.3-56c-2 3-7.2 2.6-8.8-.5-1.6-3.2 1.3-7.6 4.9-7.4 3.6.2 5.9 4.9 3.9 7.9zm26.7 44.5c-.7-2.3 1.2-5.5 3.6-4.8l-.1-.7c2.6-.1 5.2 2 5.5 4.6.4 2.6-1.4 5.3-4 6-2.1-1.3-4.3-2.7-5-5.1zm10.8 60.6c-3.2 2.5-8.8.3-9.4-3.7-.6-4 4.1-7.8 7.9-6.3 3.8 1.5 4.7 7.5 1.5 10zm5.4-113c-3 1.3-6.9-1.5-6.5-4.7.3-3.2 4.7-5.2 7.4-3.3 2.5 1.9 2 6.7-.9 8zM635.2 259h-133c-5.2 0-11.4.4-14.3 4.8-1.8 2.6-1.9 5.9-1.9 9-.7 44.1-1.3 88.2-2 132.3-.1 6.7.3 14.4 5.6 18.4 3.7 2.8 8.6 2.9 13.2 2.9 46.4 0 92.7 0 139.1.1 3 0 6.4-.1 8.6-2.3 2-2 2.2-5.2 2.3-8.1 1.3-45.6 2.7-91.2 4-136.8.1-5 .2-10.4-2.8-14.4-4.2-5.4-12-5.9-18.8-5.9zm-69.4 46.7c-4.2-7.1-8.9-14.5-16.3-18.2-2.5-1.2-5.4-1.9-8-.8-2.5 1.1-4.1 4.6-2.4 6.7 4.3 5.7 5.4 13.7 2.6 20.3-8-5.3-13.4-13.5-17.9-22-2.4-4.6-10.2-3.3-12.6 1.3-2.4 4.6-.7 10.4 2.2 14.7 2.9 4.3 6.9 7.8 9.8 12.1 2.8 4.4 4.4 10.2 1.7 14.7-4.1-3.6-11.3-3-14.7 1.3 3.8 2.4 7.7 4.9 9.9 8.9 2.2 3.9 1.9 9.6-1.9 12.1-2.8 1.9-7.1 1.7-8.8 4.6-1.7 2.8-6.3 2-8.3-.6-1.9-2.6-2-6.2-1.9-9.4.3-16.7.6-33.4.9-50.2.1-7.5.5-15.6 5.2-21.4 4.6-5.6 12.3-7.6 19.5-7.7 7.2-.1 14.4 1.4 21.6 1.6 10.4.2 21.1-2.5 31 .5 3.7 1.1 7.8 4.1 6.9 7.9-1.3 5.3-10.2 4.5-12.7 9.3-1.6 3.1.3 6.8.4 10.3.3 3.2-4.4 7-6.2 4zM635 405.9c-4.1 4.4-10.7 5.2-16.8 5.7-10.5.8-21 1.4-31.5 1.7-3.2.1-6.6.2-9.6-1s-5.6-4-5.6-7.2 3.7-6.2 6.6-4.8c2.6 1.2 5.3-2.2 5.1-5.2-.2-2.9-1.9-5.6-2.1-8.5-.2-2.9 2.6-6.4 5.2-5 3.6-.7 6.7 2.4 8.7 5.4 2 3 3.9 6.6 7.3 7.8s8.2-2.2 6.4-5.4c-1.1-2 1.6-4.5 3.9-4.1 2.3.4 4 2.4 5.5 4.1 1.6 1.8 3.6 3.5 5.9 3.3 3.5-.3 5.1-4.7 4.7-8.2-.3-3.5-1.7-7-.8-10.4-3.8.6-7.8 1.1-11.4 0-3.7-1.1-7-4.3-7-8.2.1-3.8 4.8-7.1 8-5 1.5 1.1 2.3 3 3.6 4.3 2.4 2.2 6.6 1.8 8.6-.8 1.9-2.6 1-6.8-1.8-8.4-2.7-1.5-1.6-6.2 1.4-7.2 2.9-1 6.2 1 7.7 3.7s1.6 5.9 1.8 9c.3 8.8.5 17.5.6 26.3.1 6.5-.1 13.5-4.4 18.1zM942.7 289.7c-7.4-11.9-18.1-22.3-31.4-26.6-8.5-2.7-17.6-2.8-26.6-2.8-65.4-.3-130.7-.5-196.1-.8-7 0-15.1.5-19.2 6.2-2.6 3.6-2.8 8.3-2.8 12.7-1 43.8-1.9 87.6-2.9 131.4-.1 5.3.3 11.5 4.7 14.4 2.1 1.3 4.8 1.6 7.3 1.8 54.7 3.9 109.7 4.1 164.4.5 30-1.9 61.9-5.7 85.4-24.5 32.5-25.8 39.2-77.2 17.2-112.3zm-240.2 63.1c-2.6 2.3-7.6.7-8.3-2.8-.7-3.5 3.2-6.9 6.6-5.8 3.3 1.1 4.4 6.3 1.7 8.6zm4.3-59.3c-4.2 2.3-10.1-2.3-8.9-6.9 1.1-3.1 4.6-5.2 7.9-4.6l-.1.3c4.6 1.4 5.3 8.9 1.1 11.2zm43.1 8.2l-.1-.2c-1.1-3.2 3.6-6 6.4-4.3 2.9 1.8 3.3 6 1.8 9-3.1 2.1-8.2-.7-8.1-4.5zm16 88.7c-1.5.9-3.4 1.1-5.1.6-1.6-1.5-2.3-3.9-1.9-6l1.1-.1c-.5-2.4 3.6-3.3 5.1-1.5 1.6 1.8 1.2 4.6.8 7zm37-54.4c-.3-3.4 3.7-6.2 6.8-4.9l.3.4c.1 2.8.2 5.6.4 8.4-2.8 1.7-7.2-.5-7.5-3.9zm23.1-57.3c1.2-3.6 6.7-4.6 9.1-1.7l-.3.2c.4 2.9-.5 6-2.4 8.2-3.7 1-7.5-3.1-6.4-6.7zm7.5 104c-3.9-.5-6.1-5.9-3.7-9.1 2.4-3.1 8.3-2.2 9.6 1.5l.3-.1c1.3 3.7-2.3 8.2-6.2 7.7zm30.6-62.3c-1.8 2-5.4 2-7.1 0-1.7-2.1-.9-5.7 1.6-6.8l-.4-.7c4-2.1 8.9 4.1 5.9 7.5zm32.6-27.8c-4.3-.9-6.4-7.1-3.5-10.4l.4.5c2.7-1 6 .6 6.9 3.3.9 2.7-1 5.9-3.8 6.6zm20.2 63.5c-2.9-1.9-5.7-4.7-5.6-8.1s5.2-6 7.1-3.2l.4-.3c3.2 3.2 2.1 9.5-1.9 11.6zM652.4 450.6c0-2.3-.1-4.9-1.8-6.4-1.5-1.4-3.9-1.6-6-1.6-48.5-.5-96.9-1.1-145.4-1.6-4 0-8.5.2-11 3.2-2 2.4-2.1 5.7-2.1 8.8-.5 62.7-.9 125.4-1.4 188.1-.1 18.6-.2 37.7 5.8 55.3 12.6 37 52.4 61.5 91.5 60.4 11.7-.3 23.4-2.7 33.6-8.5 16.6-9.5 27.2-27.2 32.1-45.7 5-18.5 5-37.8 4.9-57 0-65-.1-130-.2-195zM505.5 580.3c-3.7-.9-6.1-5.3-5-9l.2-.2c2.3-1.3 5.2-1.8 7.8-1.2 2 3.6.5 8.6-3 10.4zm17.7 73.1l-.1-.1c-1.6.8-3.5 1-5.2.5-2.3-2.3-3-6-1.8-9h7.7c1.4 2.7 1.1 6.1-.6 8.6zm-3.3-146.7c-4.6-.3-6.2-7.9-2.1-10l-.1-.2c1.9.2 3.8.4 5.7.5 3.7 2.8 1.1 10-3.5 9.7zm.2-38.9c-3.3-1.1-4.3-6-1.8-8.3 2.5-2.3 7.4-.7 8.1 2.6.7 3.4-3 6.8-6.3 5.7zm14.5 236.4c-4.8-.2-7-7.7-3.2-10.5h.1c2.4.1 4.9.2 7.3.3 3.5 3.2.6 10.5-4.2 10.2zm17.7-102.8l-.3-.6c-3 .7-6.3-2.2-6-5.3s4-5.4 6.9-4.2c1.3 3.2 1.1 7.1-.6 10.1zm-.7-75.6c-2.8-2.2-3.1-6.9-.6-9.5l.3.1c1.5 0 3 .1 4.4.1 2.8 3.2.1 9.3-4.1 9.3zm18.1 24c-3.6-1.8-5.9-5.9-5.6-9.8 1.3-.3 2.6-.5 3.9-.8l.1.2h4.6c1.9 3.5.5 8.5-3 10.4zm19 112.6c-2.1 1.4-5.1 1.1-6.9-.7l.1-.1c-2.6-3.5 2.2-9.3 6.2-7.4.8 2.6 1 5.5.6 8.2zm9.2-178.8c-1.6.8-3.5 1.1-5.3.6h-.1.1c-1.6-1.8-2.5-4.3-2.4-6.8 2.2-.8 4.6-1.1 6.9-.8.9 2.3 1.2 4.7.8 7zm9.3 222.7c-3 2-7.9-.5-7.9-4.1l-.5.2c-.1-3.6 4.3-6.6 7.6-5 3.3 1.4 3.8 6.8.8 8.9zm-7.6-108.6c-1.2-4.1 4.3-8.3 8-6 1.1 1.9 1.5 4.3 1 6.5l1 .4c-2 3.9-8.8 3.2-10-.9zm25.3-52.4c-3.3-1.1-6.1-4.3-5.3-7.6.9-3.3 6.8-3.9 7.4-.6l-.3.1c1 2.7.3 6.1-1.8 8.1z"/><path fill="#13110C" d="M985.1 492.6c.2-3.9-.1-8.5-3.4-10.5s-7.8.2-9.6 3.6c-1.8 3.4-1.8 7.4-1.7 11.2.3 8.4.5 16.9.8 25.3.1 3.3.2 6.8-1.3 9.8-1.5 3-5 5.3-8.1 4.3-11.3-3.8-24.1.4-33.2 8-9.1 7.6-15.1 18.3-19.9 29.2-8.6 19.2-14.3 40.9-8.4 61 6 20.1 27.1 36.8 47.4 31.4 5.6-1.5 10.7-4.4 16.3-5.9 5.6-1.5 12.2-1.1 16.2 3.1 2.1 2.3 6.3.9 7.9-1.8 1.6-2.7 1.3-6.1 1-9.2-4.8-52.8-6.1-106.2-4-159.5zm-12.2 142.5c-1.6 3.5-4.9 5.8-8.1 7.8-9.2 5.7-20.1 10.1-30.6 7.5-13.5-3.4-21.9-18-22.3-31.9-.5-13.9 5.1-27.3 11.1-39.9 4.2-8.9 8.9-18 16.9-23.6 8-5.7 20.2-6.6 26.9.6 5.1 5.4 5.6 13.6 5.8 21 .5 16.3 1 32.7 1.5 49 0 3.2.1 6.6-1.2 9.5zM777.3 499c-1.3-3.8-3.3-8.1-7.2-8.7-5-.8-8.2 5-9.9 9.8-16.9 48.6-33.7 97.1-50.6 145.7-1.2 3.5-2.5 7.2-1.9 10.9.6 3.7 3.6 7.3 7.3 7.2 6.3-11.1 11.1-23 14.2-35.4 1.2-4.7 2.2-9.6 5.2-13.3 5.1-6.2 14-7.3 22-7.9 18.6-1.4 41.1-.8 50.7 15.2 4.5 7.5 4.8 16.6 7.1 25 2.3 8.4 8.1 17.2 16.8 17.7.4-8.9-2.6-17.6-5.5-26-16-46.6-32.1-93.4-48.2-140.2zm13 90.4c-1.9 3-6.1 3.4-9.7 3.4H762c-3.8 0-7.8 0-11.2-1.8-3.4-1.7-6-5.7-4.8-9.4 5.2-15.9 10.4-31.8 15.6-47.6 1.5-4.6 5.3-10.3 9.7-8.3 2.2 1 3.1 3.6 3.8 5.9 5 16.3 10.1 32.6 15.1 48.9.8 3 1.7 6.3.1 8.9zM285.6 579.6c-8.8-1.1-20-.6-23.6-8.6-2.7-6.1 1.5-13.2 6.6-17.6 8-6.7 20.8-9.7 28.7-2.9 2.2 1.9 3.8 4.3 6 6.1 2.3 1.8 5.6 2.7 8 1.1 2.7-1.8 2.7-5.8 1.8-8.9-3-10.4-13.5-17.7-24.4-18.4-10.8-.8-21.5 4.2-29.3 11.8-8.4 8.2-13.8 20.3-11.6 31.9s13.4 21.5 25.1 19.9c11-1.5 22.8 3 29.2 11.9 6.5 9 6.6 22.3-.4 30.8s-21 10.7-29.7 3.8c-3.6-2.8-6.2-6.8-10.2-9s-10.4-.8-11 3.7c-.2 1.7.5 3.4 1.2 4.9 6.1 12.1 19.5 20.2 33 20 13.6-.2 26.7-8.6 32.4-20.9 1.4-3 2.4-6.1 3-9.4 2.2-11.3-.1-23.4-6.6-32.9-6.3-9.2-16.8-15.8-28.2-17.3zM70.3 484.2c-3.8-.4-7.5.7-11.2 1.6-14.2 3.5-29.2 4-43.6 1.4-5.8-1-8.3 7.1-8.3 13.1v129.6c0 8.7.8 18.9 8.2 23.5 5.4-6.5 5.3-15.8 4.9-24.2l-2.1-42.3c-.3-5.6-.2-12 4.1-15.6 3.9-3.3 9.5-2.8 14.6-2.4 7.3.5 14.7.5 21.9-.2 3.6-.3 7.4-.9 10.3-3.1 2.9-2.2 4.5-6.5 2.6-9.6-7.2-5.8-17.5-3.8-26.6-2.7-9.1 1.1-20.6-.2-24.1-8.7-1.2-2.9-1.2-6.2-1.1-9.3.1-5.1.1-10.3.2-15.4 0-2.7.1-5.5 1.3-7.9 2.7-5.2 9.4-6.4 15.2-7 8.9-.9 17.9-1.8 26.8-2.8 7-.7 16.3-4.2 15.1-11.1-.6-4-4.4-6.5-8.2-6.9zM949.4 395.8c15.1-20.2 20.4-46.7 18-71.8-2.3-23.7-12-47.8-31.2-61.7-19.5-14.2-45.1-15.7-69.2-16.5-62.3-1.9-124.7-1.5-187 1.1-10.7.4-14.1-14.1-13.9-24.8.7-30.8 1.4-61.6 2-92.4.6-29.2.5-61-17.2-84.3-18.2-23.9-50.7-32.4-80.8-32.8-28.8-.4-60.7 7.1-76.9 30.8-12.3 18-13 41.2-13.2 63-.5 42.1-1 84.2-1.4 126.2-.1 10.8-14.6 14.1-25.3 14-42.6-.2-85.2-.4-127.8-.5-46.4-.2-98.4 1.9-130.4 35.4-28.7 30-30.5 81.8-4 113.8 31.5 37.9 87.3 41.6 136.6 42.4 42.7.6 85.5 1.3 128.2 1.9 5.2.1 10.8.3 14.6 3.8 4.1 3.8 4.6 9.9 4.8 15.5 2.2 54.9 2.2 109.8-.1 164.7-1 24.1-2.4 48.7 3.7 72 9.9 37.6 41.6 69.6 79.9 76.2 38.3 6.6 80.7-15.1 94.7-51.4 5.3-13.9 6.6-28.9 7.6-43.7 4.7-70.7 4.7-141.8-.2-212.5-.7-9.8 7.7-18.3 17-21.3s19.4-1.8 29.2-.8c42.8 4.4 86 4.8 128.8 1.2 42.1-3.6 88.2-13.6 113.5-47.5zm-473.3 11.1c0 8.2-2.8 19.3-11 18.8-47-2.6-94.1-3.9-141.2-4.1-29.3-.1-59.4.1-87-10-27.5-10.1-52.4-33.2-55.5-62.4-3.5-32.9 21.9-63.4 52.2-76.7 30.3-13.3 64.6-13.3 97.7-13 45.6.4 91.3.7 136.9 1.1 2.4 0 5.2.2 6.8 2.1 1.2 1.5 1.2 3.5 1.2 5.3 0 46.4 0 92.7-.1 138.9zm171.6 295.7c-5 18.5-15.5 36.2-32.1 45.7-10.1 5.8-21.9 8.2-33.6 8.5-39.1 1.1-78.9-23.3-91.5-60.4-6-17.6-5.9-36.7-5.8-55.3.5-62.7.9-125.4 1.4-188.1 0-3.1.1-6.4 2.1-8.8 2.5-3.1 7.1-3.3 11-3.2 48.5.5 96.9 1.1 145.4 1.6 2.1 0 4.4.1 6 1.6 1.7 1.6 1.8 4.2 1.8 6.4l.3 195c0 19.2 0 38.5-5 57zm9-423.3c-1.3 45.6-2.7 91.2-4 136.8-.1 2.9-.3 6-2.3 8.1-2.1 2.2-5.5 2.3-8.6 2.3-46.4 0-92.7 0-139.1-.1-4.6 0-9.6-.1-13.2-2.9-5.3-4-5.7-11.7-5.6-18.4.7-44.1 1.3-88.2 2-132.3 0-3.1.2-6.5 1.9-9 2.9-4.3 9.1-4.8 14.3-4.8h133c6.8 0 14.6.5 18.7 5.9 3.1 4 3.1 9.4 2.9 14.4zm-2.5-42c-.1 2-.3 4.2-1.7 5.8-1.7 2-4.7 2.1-7.3 2.1-45.5.1-91.1.3-136.6.4-8 0-17.6-.8-21.4-7.9 1.2-44.4 2.3-88.8 3.5-133.2.5-20.6 1.8-43.1 15.6-58.5 12.8-14.3 33.2-18.6 52.3-19.8 17.9-1.1 36.3.1 53.1 6.5 16.8 6.5 31.8 18.8 38.8 35.3 5 11.8 5.6 24.9 6 37.7 1.2 43.9.5 87.8-2.3 131.6zM925.6 402c-23.6 18.7-55.4 22.5-85.4 24.5-54.7 3.5-109.7 3.4-164.4-.5-2.5-.2-5.1-.4-7.3-1.8-4.5-2.8-4.8-9.1-4.7-14.4 1-43.8 1.9-87.6 2.9-131.4.1-4.4.3-9.1 2.8-12.7 4.1-5.7 12.2-6.2 19.2-6.2 65.4.3 130.7.5 196.1.8 8.9 0 18 .1 26.6 2.8 13.3 4.3 24 14.7 31.4 26.6 21.9 35.1 15.2 86.5-17.2 112.3zM215.9 528.9c-16.6-1.8-31.8 13.2-48.3 10.9-5.4-.7-7.5 6.7-7.5 12.2.1 24.3.3 48.6.4 72.8.1 10.1.2 20.7 5.3 29.4 2.6 1.1 5.6-.5 7.1-2.8s1.8-5.2 2-7.9c.7-12.9-1.3-25.8-2.1-38.7-.7-12.9-.1-26.3 5.5-38s17.1-21.2 30-21.2c3.4 0 6.9.6 10.3.2 3.4-.4 6.9-2.2 8-5.5 1.9-5.7-4.8-10.8-10.7-11.4zM420.4 624.2c-3.5-2.2-8.2.1-10.9 3.2-2.7 3.1-4.5 7-7.8 9.5-7.3 5.5-18.6.8-23.1-7.1-4.6-7.9-4.4-17.6-4.1-26.7.5-13.5.9-26.9 1.4-40.4.1-2.1.2-4.3 1-6.2 2.1-4.8 7.8-6.7 13-7.9 5.1-1.2 10.9-2.7 13.4-7.4 2.5-4.6-2.6-12-7.1-9.2-7.3 4.7-18.8-.6-20-9.3-.7-5.4.5-13.3-4.9-14.3-3.3-.6-6.1 2.7-6.8 5.9-.7 3.2-.2 6.7-.9 9.9-1.7 7.2-10.4 11.8-17.3 9.1-4.6-1.8-8.1 5.8-5.3 9.9 2.8 4.1 8.2 5.3 12.9 6.9 4.7 1.6 9.8 5.1 9.6 10.1-.7 15.5-1.3 31-2 46.5-.5 10.9-.8 22.4 4.3 32.1 5.5 10.4 17.2 17.2 29 16.7s22.9-8.3 27.4-19.2c1.6-4.1 1.9-9.8-1.8-12.1zM870.5 617c-1.1-19.9-2.2-39.9 1.1-59.5.7-4 1.5-8.2.4-12.1s-5.1-7.3-9-6.3c-4.8 1.3-5.9 7.4-6.1 12.3-1.5 36.8-.8 73.7 2.2 110.4.5 5.5 3.2 12.8 8.6 11.8 4.7-.9 5.6-7.2 5.3-12-.8-14.8-1.6-29.7-2.5-44.6zM125.9 496.3c-4.7-1.2-10.1 3.2-9.4 8.1.7 4.6 5.6 7.1 9.9 8.9 2.2-1 4.1-2.9 5-5.2 1.8-4.6-.8-10.6-5.5-11.8zM858.4 508.9c2.7 3.5 8.9 3 11.2-.8 2.3-3.7.3-9.3-3.8-11-4.1-1.6-9.2.8-10.9 4.8.5 2.7 1.7 5.1 3.5 7zM531.4 693.7c-3.8 2.8-1.6 10.3 3.2 10.5 4.8.2 7.7-7 4.1-10.2-2.4 0-4.8-.1-7.3-.3zM531.4 693.7c.1 0 .1 0 0 0zM523.4 497.1c-1.9-.2-3.8-.4-5.7-.5l.1.2c-4.1 2.1-2.4 9.7 2.1 10 4.6.2 7.2-7 3.5-9.7zM126.4 541c-3.6-2.3-8.8 0-11 3.7-2.2 3.7-2.3 8.2-2.3 12.6-.1 27.3-.1 54.6-.2 81.9 0 6.2 1.6 14.3 7.8 15 7.3-5.5 7.3-16.1 6.9-25.2-1.2-25.2-.5-50.5 2.1-75.6.5-4.5.5-10-3.3-12.4zM607.6 591.7c-3.6-2.3-9.1 1.9-8 6 1.2 4.1 8 4.8 9.9 1l-1-.4c.6-2.3.2-4.7-.9-6.6zM568.1 539.4l-.1-.2c-1.3.3-2.6.5-3.9.8-.3 4 2 8.1 5.6 9.8 3.5-1.9 5-6.9 3-10.4h-4.6zM516 644.8c-1.2 3-.5 6.7 1.8 9 1.7.5 3.6.3 5.2-.5l.1.1c1.7-2.5 2-5.9.6-8.5-2.5-.1-5.1-.1-7.7-.1zM500.7 571.2l-.2.2c-1.2 3.6 1.3 8 5 9 3.6-1.8 5-6.9 3-10.3-2.7-.7-5.5-.2-7.8 1.1zM606.4 697.3c-3.3-1.6-7.7 1.4-7.6 5l.5-.2c0 3.6 4.9 6.2 7.9 4.1 3-2 2.5-7.4-.8-8.9zM518.3 459.5c-2.5 2.3-1.5 7.3 1.8 8.3 3.3 1.1 7-2.3 6.3-5.7-.7-3.3-5.5-4.9-8.1-2.6zM581.9 661.6l-.1.1c1.8 1.7 4.8 2 6.9.7.4-2.7.2-5.6-.7-8.2-4-1.9-8.7 3.9-6.1 7.4zM627 537.1c-.6-3.4-6.5-2.7-7.4.6-.9 3.3 2 6.6 5.3 7.6 2.1-2 2.9-5.4 1.8-8.2h.3zM546 595.5c-.3 3.1 3 6 6 5.3l.3.6c1.7-3 1.9-6.9.5-10.1-2.9-1.1-6.6 1.1-6.8 4.2zM551.3 516.4l-.3-.1c-2.5 2.5-2.2 7.3.6 9.5 4.2 0 7-6 4.2-9.2-1.6-.1-3-.1-4.5-.2zM592.6 484.3s0-.1 0 0c0-.1 0-.1 0 0zM590.2 477.5c-.1 2.5.8 4.9 2.4 6.8 1.8.4 3.7.2 5.3-.6.3-2.3.1-4.7-.8-6.9-2.3-.5-4.7-.2-6.9.7zM705.7 282.3l.1-.3c-3.3-.6-6.8 1.4-7.9 4.6-1.2 4.6 4.7 9.2 8.9 6.9 4.2-2.3 3.5-9.8-1.1-11.2zM918.4 344.8c-1.9-2.9-7-.3-7.1 3.2s2.7 6.2 5.6 8.1c4.1-2.1 5.1-8.3 1.9-11.6l-.4.3zM756.3 297.2c-2.9-1.8-7.5 1.1-6.4 4.3l.1.2c-.1 3.8 5 6.6 8.1 4.5 1.4-3 1-7.2-1.8-9zM839.4 375.1c-1.3-3.7-7.2-4.6-9.6-1.5-2.4 3.1-.2 8.5 3.7 9.1 3.9.5 7.5-4 6.2-7.7l-.3.1zM832.4 285.4c1.9-2.2 2.8-5.3 2.4-8.2l.3-.2c-2.4-2.9-7.9-1.9-9.1 1.7-1.1 3.6 2.7 7.7 6.4 6.7zM893.7 282.6l-.4-.5c-2.9 3.3-.8 9.5 3.5 10.4 2.8-.6 4.6-3.9 3.8-6.6-.9-2.7-4.3-4.3-6.9-3.3zM700.8 344.2c-3.4-1.1-7.3 2.3-6.6 5.8.7 3.5 5.7 5.1 8.3 2.8 2.7-2.3 1.6-7.5-1.7-8.6zM809.7 331.1c-3.1-1.3-7.1 1.6-6.8 4.9.3 3.4 4.6 5.6 7.5 3.8-.1-2.8-.2-5.6-.4-8.4l-.3-.3zM760 384.9l-1.1.1c-.4 2.1.3 4.5 1.9 6 1.7.5 3.6.3 5.1-.6.4-2.4.8-5.1-.8-7-1.6-1.9-5.6-.9-5.1 1.5zM858.3 312.9l.4.7c-2.5 1-3.3 4.7-1.6 6.8 1.7 2.1 5.3 2.1 7.1 0 2.9-3.4-2-9.6-5.9-7.5zM303.4 388.7c-1.5 3.8 2.3 8.6 6.3 8 4.1-.6 6.3-6.3 3.8-9.5-2.6-3.2-8.6-2.3-10.1 1.5zM267.3 322.5l-.4-.2c-2.2 3.9 1.5 9.6 6 9.2 2.2-2.2 3.4-5.7 1.9-8.5s-6.2-3.3-7.5-.5zM436 295.3c-4.1-.1-7.3 5-5.3 8.6 1.9 3.6 8 3.8 10.1.3 2.1-3.5-.7-8.8-4.8-8.9zM269.3 298.2c2.6-2.2 2.3-6.5.5-9.4-3.6-1-7.7 1.6-8.4 5.2l1.4.5c-1.3 3.2 3.9 5.9 6.5 3.7zM382.9 325.8c-2.8 1-4.9 3.6-5.3 6.5l1.5.3c-.9 3.6 5.5 5.5 7.5 2.4 2.1-3.2-.2-7.7-3.7-9.2zM218.1 316.6c-3.6.6-5.9 5-4.4 8.3l.9-.4c.8 3 5.9 2.7 7.1-.2 1.2-2.9-.9-6.3-3.6-7.7zM412.8 347.9c-3 1.7-3 6.8 0 8.5 2.9 1.6 7.2-.9 7.2-4.3-.1-3.3-4.3-5.8-7.2-4.2zM420 351.9v.4-.4zM235.2 368.4l-.2.9c-4.1.1-4.9 7.5-.9 8.6 4 1.1 7.2-5.3 4-8 .2-1.4-1.9-2.6-2.9-1.5zM327.1 288.3c.1-3.1-3.8-5.7-6.6-4.2s-3 6.1-.3 7.8 6.8-.4 6.9-3.6zM385.3 275.5c-2.6.4-4 3.7-3.4 6.3.4 1.8 1.8 3.4 3.6 3.6 1.8.1 3.6-2 2.6-3.5l-.4-1.1c2.4-1.5.2-5.7-2.4-5.3zM330.5 330.3c-2.4-.3-5 1.2-5.9 3.5 0 3.5 4.2 6.1 7.3 4.7.5-2.7.1-5.5-1.2-7.9l-.2-.3zM618.3 208.3c-3.8-1.5-8.5 2.2-7.9 6.3.6 4 6.2 6.2 9.4 3.7 3.1-2.5 2.2-8.5-1.5-10zM422.5 394.4c-2.1 1.8-1.2 5.8 1.4 6.6 2.6.8 5.6-2.2 4.7-4.8l.4.3c-.6-2.7-4.4-4-6.5-2.1zM535.6 133.7c-1.1 3.2.6 7.3 3.9 8 3.3.7 6.6-3.7 4.4-6.3l.8-.5c-1-3.7-7.2-4.6-9.1-1.2zM578.3 105.3c-3.6-.2-6.5 4.2-4.9 7.4 1.6 3.2 6.9 3.5 8.8.5 2-3-.3-7.7-3.9-7.9zM528.3 189.3c-1.4 3.2 1.6 7.4 5 7 3.5-.3 5.6-5 3.6-7.9-2-2.8-7.2-2.3-8.6.9zM617.9 156.8c-.4-2.6-2.9-4.7-5.5-4.6l.1.7c-2.4-.7-4.3 2.5-3.6 4.8.7 2.3 3 3.8 5.1 5.1 2.5-.6 4.3-3.4 3.9-6zM625.9 97.3c-2.6-1.9-7 .1-7.4 3.3-.3 3.2 3.6 6.1 6.5 4.7 3-1.3 3.5-6.1.9-8zM580.5 68l-1.3-.7c2.2-2.6-.2-7.4-3.7-7.3-3.4.1-5.7 4.7-3.8 7.6 1.8 3 6.6 3.1 8.8.4zM526.9 85.4c1.9-1.8.6-5.5-2-6-2.5-.5-5.1 1.8-5.2 4.4-.1 2.6 1.9 5 4.3 5.8 1.4-.9 2.8-1.9 4.1-2.8l-1.2-1.4zM571.9 162.4c-2.8-.7-5.6 2.4-4.9 5.1.8 2.7 4.9 3.7 6.8 1.7 2-2.1.9-6.1-1.9-6.8zM571.7 291.2c2.5-4.8 11.4-4 12.7-9.3.9-3.7-3.2-6.8-6.9-7.9-10-2.9-20.6-.3-31-.5-7.2-.1-14.4-1.7-21.6-1.6-7.2.1-14.9 2.2-19.5 7.7-4.8 5.8-5.1 13.9-5.2 21.4-.3 16.7-.6 33.4-.9 50.2-.1 3.3 0 6.8 1.9 9.4 1.9 2.6 6.6 3.4 8.3.6 1.8-2.9 6-2.7 8.8-4.6 3.7-2.5 4-8.2 1.9-12.1-2.2-3.9-6.1-6.5-9.9-8.9 3.4-4.3 10.5-4.9 14.7-1.3 2.6-4.5 1.1-10.3-1.7-14.7-2.8-4.4-6.9-7.8-9.8-12.1-2.9-4.3-4.6-10.1-2.2-14.7 2.4-4.6 10.2-5.9 12.6-1.3 4.5 8.4 9.9 16.7 17.9 22 2.7-6.6 1.7-14.6-2.6-20.3-1.7-2.2-.1-5.7 2.4-6.7 2.5-1.1 5.5-.4 8 .8 7.4 3.6 12.1 11.1 16.3 18.2 1.8 3 6.5-.7 6.4-4.2-.3-3.3-2.2-7-.6-10.1zM638.9 361.7c-.1-3.1-.3-6.3-1.8-9s-4.7-4.7-7.7-3.7c-2.9 1-4 5.7-1.4 7.2 2.8 1.6 3.7 5.8 1.8 8.4-1.9 2.6-6.2 3-8.6.8-1.4-1.3-2.1-3.2-3.6-4.3-3.2-2.2-8 1.1-8 5-.1 3.8 3.3 7.1 7 8.2 3.7 1.1 7.6.5 11.4 0-1 3.4.4 6.9.8 10.4.3 3.5-1.2 7.9-4.7 8.2-2.3.2-4.3-1.6-5.9-3.3-1.6-1.8-3.2-3.7-5.5-4.1-2.3-.4-5 2-3.9 4.1 1.8 3.2-3 6.7-6.4 5.4s-5.3-4.8-7.3-7.8-5.2-6.1-8.7-5.4c-2.6-1.3-5.4 2.1-5.2 5 .2 2.9 1.9 5.6 2.1 8.5.2 2.9-2.4 6.4-5.1 5.2-2.9-1.4-6.6 1.6-6.6 4.8 0 3.2 2.6 6 5.6 7.2 3 1.2 6.3 1.1 9.6 1 10.5-.3 21-.9 31.5-1.7 6-.5 12.6-1.3 16.8-5.7 4.3-4.6 4.6-11.6 4.5-17.9-.2-8.9-.4-17.7-.7-26.5z"/></svg>