<svg xmlns="http://www.w3.org/2000/svg" viewBox="156 0 685.9 595.3" enable-background="new 156 0 685.9 595.3"><desc xmlns:shape="http://adobe.com/products/shape"><shape:version>1.0.1</shape:version><shape:captureDetail>0.750000</shape:captureDetail><shape:source>1</shape:source></desc><path fill="#FEDB48" d="M493.4 182.5c-28.7-29.2-57.5-58.4-86.2-87.6C386.4 73.7 364.7 52 337 41.1c-27.7-10.8-63.2-7.6-81.8 15.6-16.6 20.5-15.4 51-4.4 74.8 11 23.9 30.3 42.8 48.9 61.6 29.8 30 58.8 60.7 87 92.2 5 5.5 13.7.3 18.9-5 29.4-29.4 58.8-58.7 88.2-88.1 1.2-1.2 2.4-2.5 2.6-4.1.2-2.2-1.4-4.1-3-5.6zM296.5 66.4c-2.6 1.1-6.1-2-4.6-4.4l-.8-.3c1.1-3 5.5-4.3 8.1-2.5.7 2.6-.1 6.1-2.7 7.2zm-26.3 41.8c-1.8-3.2 3.4-7.4 6-4.9l.7-.4c1.3-.1 2 2.1.8 2.7.5 3.7-5.6 5.8-7.5 2.6zm71.3-34.6l-.6-1.2c2.7-1.8 7-.9 8.6 2-.7 3-3.2 5.9-6.3 5.6-3-.2-4.6-5.3-1.7-6.4zm-17 29.8c-3.2-2.5-1.8-8.6 2-9.6l.1.4c2.6-1 5.3 2.3 4.4 5.1-.8 2.5-3.8 4-6.5 4.1zm-18.1 64.8c-3-2.2-2.3-7.7 1.1-9.1 3.4-1.5 7.7 1.8 7.4 5.5-.6 3.6-5.5 5.8-8.5 3.6zm73.1-59.8c-.6-2.8 2.5-5.6 5.1-4.8 2.7.8 3.6 4.9 1.5 6.9-2 1.9-6 .6-6.6-2.1zm-22.1 36.9c-2.9-1-3.9-5.4-1.7-7.6 2-.9 4.6-.3 6 1.5v.3c-.7 2.4-2.3 4.4-4.3 5.8zm37.1 32.5c-3.3.8-6.2-4.5-3.2-6.3l-.8-1.1c2.1-1.6 5.1-1.9 7.5-.8 1.1 3.2-.3 7.5-3.5 8.2zm34.6-32.7c-.4 1.6-2.9 1.8-3.9.6-1.1-1.2-.9-3.2 0-4.6 1.2-2.1 4.2-3.3 6.2-1.8 1.9 1.4.7 5.4-1.7 4.9l-.6.9zM397.4 208c-.8-3 2.4-6.2 5.4-5.4 2.9.8 4 5 1.9 7.2l.1-.1-.3.3.1-.1c-2 2.1-6.3 1.1-7.2-1.9zm-21.2 35.5c-1.1-2.2.8-5.3 3.3-5.1 2.5.2 4.1 3.4 2.8 5.5l-.1-.4c-1.1 2.1-4.9 2.1-6 0zm72.1-50.8c-3.6.8-7.3-3.1-6.2-6.6 1.1-3.5 6.3-4.7 8.8-2.1 2.5 2.7 1 7.8-2.6 8.7zM731.3 175.9c6.1-15 4.4-32.3-2.2-47-6.5-14.8-17.5-27.2-29.6-37.8-12.8-11.4-28.6-21.6-45.8-20.6-18.5 1-33.6 14.5-47 27.2-28.9 27.4-57.8 54.9-86.8 82.3-2.1 6.9 3.5 13.5 8.6 18.6 28.9 28.8 58 57.6 87 86.5 1.7 1.7 3.7 3.4 6 3.3 1.8-.1 3.4-1.3 4.8-2.6 29.6-26 58-53.4 84.9-82 7.8-8.5 15.8-17.2 20.1-27.9zm-93-73c1.7-1.6 4.8-1.4 6.1.5 1.3 1.9-.3 5.1-2.5 5.1l-.1 1.7c-1.5-.3-3-.6-4.4-.8-1.1-2.2-.8-4.9.9-6.5zm-62.8 80c-2.4-2-1.7-6.6 1.3-7.6 2.9-1.1 6.5 1.8 6 5-.6 3-4.9 4.6-7.3 2.6zm38.6-30.7c-1.7-2.5-.1-6.2 2.6-7.6 3.4-1 6.8 3.5 5 6.5l-.8-.2c-.2 3.1-5.1 3.8-6.8 1.3zm74.7-29c2.2 2.1.8 6.7-2.3 7l.4 1.3c-3.1.3-6-2.9-5.3-5.8.6-3.1 4.9-4.6 7.2-2.5zm-70.3 68.3c-2.5 0-4.5-3.1-3.2-5.4 1.2-2.2 5-2.3 6.3-.1 1.3 2.1-.6 5.4-3.1 5.5zm40.8-30.3c-3.2.6-6.2-2.9-5.3-5.9 1-3 5.6-4 7.8-1.6s.7 6.9-2.5 7.5zM648 206.4c1-1.9 4.3-2.7 5.3-.8l.4-.5c1.7 1.6 2 4.6.6 6.4-1.4 1.9-4.3 2.5-6.3 1.3-.6-2.1-1.1-4.4 0-6.4zm-31.6 45.3c-3.6-.4-5.8-5.4-3.6-8.3 2.2-2.9 7.6-2.3 9 1 1.5 3.4-1.8 7.8-5.4 7.3zm75.2-68.3c-2.7-1.1-3.4-5.3-1.1-7.1 2.2-1.8 6.3-.3 6.8 2.6.3 2.8-3.1 5.5-5.7 4.5zM600.4 287.4L516 203c-3.3-3.3-7.5-7-12.1-6-2.8.5-5 2.5-6.9 4.5-28.4 27.5-56.8 55.2-85.3 82.7-4.3 4.2-9 9.3-8.1 15.2.6 4.1 3.6 7.3 6.5 10.2 29.5 29.5 58.8 58.8 88.2 88.4 1.9 1.9 4.1 4 6.9 4 2.5 0 4.7-1.9 6.6-3.7l89.4-84.3c3.2-3.1 6.7-6.5 7.4-10.9.8-6.1-3.9-11.4-8.2-15.7zM526.7 273c1.8-7.2 3.6-14.9 1.2-21.9-.8-2.3-2.2-4.6-4.6-5.6-2.3-.9-5.5.3-5.8 2.7-.9 6.3-5.3 12.1-11.2 14.5-1.7-8.4.1-17.1 2.6-25.3 1.4-4.4-4.4-8.6-8.8-7.2-4.4 1.4-7 6.2-7.9 10.7-.9 4.6-.6 9.3-1.5 13.9-1 4.6-3.7 9.3-8.3 10.4-.3-4.9-5.3-9.1-10.2-8.5.9 3.9 1.8 8 .6 11.9-1.1 3.9-4.9 7.3-8.9 6.5-3-.6-5.6-3.4-8.5-2.7-2.9.7-5.3-2.7-4.9-5.6.4-2.9 2.7-5.2 4.8-7.2 10.8-10.4 21.6-20.8 32.4-31.3 4.8-4.7 10.2-9.6 16.9-10.3 6.5-.6 12.6 3 17.3 7.5 4.6 4.5 8.3 10 12.7 14.7 6.5 6.7 15 11.8 19.4 20 1.7 3 2.3 7.6-.6 9.4-4.2 2.5-9.3-3.6-14-2.2-3 1-4.1 4.5-6.3 6.8-1.8 2.4-7.2 1.8-6.4-1.2zM507 380.5c-5.4.2-10.1-3.5-14.3-7-7.2-6.2-14.2-12.4-21.1-18.9-2.1-2-4.3-4.1-5.5-6.7s-1-6.1 1-8.1 6.3-1.6 7.2 1.1c.9 2.4 4.8 2 6.5-.1 1.7-2 2.3-4.8 4.1-6.7 1.7-2 5.7-2.4 6.5.1 2.7 1.8 2.7 5.8 2.1 9-.6 3.2-1.7 6.7-.3 9.6s6.6 3.8 7.5.6c.6-2 3.9-1.8 5.1-.1 1.2 1.7 1 4.1.9 6.1-.1 2.2.1 4.5 1.7 5.8 2.4 2 6.2.3 8.2-2.2 2-2.4 3.4-5.5 6.1-7.1-2.8-2-5.6-4.3-7.2-7.2-1.7-3-1.7-7.2.8-9.6 2.5-2.3 7.6-1.5 8.3 1.9.3 1.7-.4 3.4-.4 5 .1 2.9 3 5.3 6 5 2.9-.4 5-3.7 4.2-6.5-.8-2.7 2.9-5 5.5-3.7 2.5 1.2 3.3 4.6 2.5 7.2-.8 2.7-2.7 4.8-4.6 6.9-5.4 5.8-10.8 11.4-16.3 17.1-4.3 4-8.8 8.3-14.5 8.5zM776.1 502.1c2.9-12.3 2.7-25.6-3-36.8-3.7-7.1-9.4-12.9-15.1-18.7-41.3-41.7-82.6-83.3-124-125-4.4-4.4-9.9-9.3-16.1-8.3-3.9.6-7 3.5-9.8 6.3-28.4 27.2-56.8 54.4-85.3 81.6-3.4 3.3-7.1 7.5-6.2 12.1.5 2.2 2 4.1 3.5 5.8 32.2 37.2 67 72.2 104 104.7 20.2 17.8 42.9 35.7 69.8 38.7 37 4.2 73.9-24.2 82.2-60.4zM583.6 389.7c-3.1-.2-5.3-4.4-3.5-7 1.8-2.7 6.4-2.3 7.9.5 1.4 2.7-1.2 6.7-4.4 6.5zm40.4-35c-4.1-1.2-5-7.9-1.3-10 2.7-1.3 6.2-.4 7.9 2.1l-.3.1c2.1 3.8-2.2 9.1-6.3 7.8zm22.1 32.6l.1-.2c1.3-2.7 6.1-1.5 6.8 1.3.7 3-1.7 5.9-4.6 6.9-3.3-.6-4.8-5.6-2.3-8zM600 453.8c-1.5-.4-2.9-1.5-3.6-2.9-.1-2 1-3.9 2.6-5l.8.6c1.2-1.8 4.4.2 4.2 2.3-.2 2.2-2.3 3.7-4 5zm58-11.1c2-2.3 6.3-1.6 7.4 1.2l-.1.4c-1.7 1.8-3.4 3.7-5.1 5.6-2.8-.6-4.2-4.8-2.2-7.2zm51-21.7c3-1.5 7.2 1.3 6.9 4.7l-.3-.1c-1.6 2.1-4.1 3.5-6.7 3.7-3.1-1.7-2.9-6.7.1-8.3zm-61.2 70.8c-2.2-2.8-.1-7.6 3.4-8.1 3.5-.4 6.7 3.9 5.1 7l.3.1c-1.5 3.2-6.7 3.8-8.8 1zm58.9-20.1c-2.4.1-4.7-2.2-4.5-4.5.3-2.4 3-4.2 5.3-3.3l.2-.7c3.9 1.2 3.1 8.2-1 8.5zm38.4 3c-2.2-3.3.4-8.6 4.4-8.8l-.1.6c2.3 1.1 3.4 4.2 2.3 6.5-1.2 2.2-4.4 3.1-6.6 1.7zm-27.5 53.2c-.6-3-.6-6.6 1.6-8.7 2.2-2.1 7.1-.5 6.5 2.5l.4.1c.1 4-4.6 7.3-8.5 6.1zM489.7 419.9c1.5-1.5 3-3.2 2.9-5.2-.1-1.8-1.5-3.5-2.8-4.8-30.5-31.1-60.8-62.2-91.3-93.3-2.5-2.5-5.5-5.3-9-5-2.8.3-5 2.3-6.9 4.3-40.1 39.5-56.5 55.3-96.6 94.8-11.9 11.7-24.1 23.8-31.4 38.8-15.5 31.5-5.8 72.3 19.7 96.4 7.6 7.2 16.6 13.1 26.7 15.9 16.6 4.5 34.5 0 49.4-8.6 14.9-8.6 3.4 2.9 15.6-9.4 41.3-41.2 82.5-82.5 123.7-123.9zM314.1 409c-1.8-2.9-.5-7.2 2.5-8.9h.3c2.3.6 4.4 2.2 5.7 4.2-1 3.6-5.1 5.8-8.5 4.7zm-11.4 33.9v-.1c-1.5-.5-2.9-1.6-3.6-3 0-2.9 1.9-5.7 4.6-6.9l4.9 4.9c-.9 2.7-3.3 4.6-5.9 5.1zm67.3-71.5c-2.7-3.1 1.1-9 5-7.7l.1-.2c1.1 1.3 2.2 2.7 3.3 3.9.5 4.2-5.7 7.2-8.4 4zm24.8-24.5c-1.4-2.8 1.1-6.5 4.1-6.4 3 .1 5.1 4.3 3.5 6.8-1.7 2.6-6.2 2.4-7.6-.4zM277.7 482.4c-2.9-3.2.4-9.3 4.6-8.7l.1.1c1.5 1.6 3 3.2 4.4 4.8.2 4.3-6.3 7.1-9.1 3.8zm52.7-30.3l.2-.6c-2.3-1.5-2.6-5.4-.4-7.2 2.2-1.8 6-.9 7 1.7-1.2 2.9-3.8 5.3-6.8 6.1zm47.6-48.4c-.4-3.2 2.4-6.3 5.6-6.4l.1.3c1 1 1.8 2 2.7 2.9-.2 3.7-5.8 5.9-8.4 3.2zm-3.8 26.7c-1.1-3.4 0-7.5 2.7-9.8 1 .6 2 1.3 3 2l-.1.2 2.9 2.9c-1 3.4-5 5.7-8.5 4.7zm-35.7 59.8c-2.2-.4-3.9-2.5-3.9-4.8h.1c.6-3.9 7.3-4.5 8.6-.8-1.1 2.2-2.8 4.2-4.8 5.6zm95.7-83.9c-1.5-.5-2.9-1.5-3.7-3l-.1-.1.1.1c.1-2.2 1.1-4.3 2.8-5.8 1.9.9 3.6 2.2 4.9 3.9-1 2-2.3 3.7-4 4.9zM322.4 529.8c-3.2-.6-4.7-5.3-2.4-7.6l-.4-.2c2.2-2.3 6.9-1.5 8 1.7 1.2 3-2 6.7-5.2 6.1zm40.4-50c1.8-3.4 8-2.5 8.9 1.3-.5 1.9-1.8 3.7-3.5 4.8l.4.9c-3.8 1.1-7.6-3.6-5.8-7zm49.3-17.2c-1.4-2.8-1.1-6.6 1.5-8.2 2.7-1.5 6.8 1.8 5.1 4.3l-.3-.1c-1.1 2.3-3.7 4.1-6.3 4z"/><path fill="#13110C" d="M713 573.7c22.4-3.2 42.6-16.7 57-34.2 13.6-16.5 22.7-38 19.4-59-3.4-21.4-18.7-38.6-33.5-54.4-38.3-40.8-78.2-80.1-119.4-118-7-6.5 0-17.9 6.9-24.6 20-19.1 40-38.2 59.9-57.4 18.9-18.2 39-38.4 42.6-64.4 3.6-26.7-11.6-52.8-30.5-72.1-18-18.5-43-34-68.4-29.3-19.1 3.7-34.3 18-48.2 31.7-27 26.4-54.1 52.8-81 79.2-6.9 6.8-18.2-.3-24.9-7.2-26.9-27.2-53.8-54.3-80.8-81.4-29.4-29.6-63.8-61.2-105.4-60.3-37.2.8-71.2 32.6-74.7 69.7-4.1 44.1 29 81.8 59.8 113.6 26.7 27.5 53.4 55.1 80.2 82.6 3.2 3.4 6.7 7 6.9 11.7.2 5-3.4 9.2-6.8 12.9-33.5 36.2-44.6 47.4-80.9 80.8-15.9 14.7-32.4 29.4-43.4 48.1-17.6 30.2-17.8 70.6 2.3 99.1s60.8 41.6 92.7 27.5c12.2-5.5 22.5-14.2 32.6-22.9 47.9-41.9 69.3-63.3 111-111.3 5.8-6.7 16.5-6.7 24.3-2.7 7.8 4 13.5 11.2 19 18 24.4 30 51.5 57.6 81 82.5 29.1 24.3 64.7 47.2 102.3 41.8zM405.5 280.3c-5.2 5.2-14 10.5-18.9 5-28.2-31.5-57.3-62.2-87-92.2-18.5-18.7-37.8-37.6-48.9-61.6-11-23.9-12.2-54.3 4.4-74.8 18.7-23.1 54.1-26.3 81.8-15.6s49.4 32.6 70.3 53.8c28.7 29.2 57.5 58.4 86.2 87.6 1.5 1.5 3.2 3.4 3 5.6-.2 1.7-1.5 3-2.6 4.1-29.5 29.4-58.9 58.8-88.3 88.1zm-55 272.9c-14.9 8.6-32.8 13.1-49.4 8.6-10.1-2.7-19.1-8.7-26.7-15.9-25.5-24.1-35.3-64.9-19.7-96.4 7.4-15 19.6-27 31.4-38.8 40.1-39.5 56.5-55.3 96.6-94.8 2-2 4.1-4 6.9-4.3 3.6-.4 6.6 2.4 9 5 30.5 31.1 60.8 62.2 91.3 93.3 1.3 1.3 2.7 2.9 2.8 4.8.1 2.1-1.5 3.8-2.9 5.2-41.2 41.3-82.4 82.6-123.6 124-12.3 12.2-.8.7-15.7 9.3zm250.7-239.3l-89.4 84.3c-1.9 1.8-4 3.6-6.6 3.7-2.7.1-5-2-6.9-4-29.5-29.5-58.8-58.8-88.2-88.4-2.9-2.9-6-6.2-6.5-10.2-.8-5.9 3.8-11 8.1-15.2 28.4-27.5 56.8-55.2 85.3-82.7 2-2 4.3-4 6.9-4.5 4.6-.9 8.8 2.7 12.1 6l84.4 84.4c4.3 4.3 9 9.6 8.1 15.6-.6 4.6-4 8-7.3 11zm25-28.2c-1.3 1.2-2.9 2.5-4.8 2.6-2.3.2-4.3-1.7-6-3.3-28.9-28.8-58-57.6-87-86.5-5.1-5.1-10.7-11.7-8.6-18.6 28.9-27.4 57.8-54.9 86.8-82.3 13.4-12.8 28.5-26.2 47-27.2 17.2-1 32.9 9.3 45.8 20.6 12.1 10.7 23 23.1 29.6 37.8 6.5 14.8 8.3 32.1 2.2 47-4.3 10.7-12.3 19.4-20.1 27.7-27 28.7-55.3 56.2-84.9 82.2zM694 562.5c-26.9-3.1-49.4-20.9-69.8-38.7-36.9-32.5-71.8-67.5-104-104.7-1.5-1.7-3-3.5-3.5-5.8-1.1-4.6 2.7-8.8 6.2-12.1 28.4-27.2 56.8-54.4 85.3-81.6 2.9-2.7 6-5.6 9.8-6.3 6.2-1 11.7 3.8 16.1 8.3 41.3 41.7 82.6 83.3 124 125 5.6 5.6 11.4 11.5 15.1 18.7 5.7 11.2 5.9 24.6 3 36.8-8.4 36.2-45.3 64.6-82.2 60.4zM282.3 473.7c-4.2-.6-7.6 5.5-4.6 8.7 2.9 3.2 9.3.4 9.1-3.9-1.6-1.5-3.1-3.1-4.5-4.8zM282.3 473.7c.1.1.1.1 0 0zM378.3 367.6c-1.1-1.3-2.2-2.7-3.3-3.9l-.1.2c-3.9-1.3-7.7 4.6-5 7.7 2.8 3 9 0 8.4-4zM371.7 481.1c-.8-3.7-7-4.6-8.9-1.3-1.8 3.4 2 8.1 5.6 6.9l-.4-.9c1.9-1 3.2-2.8 3.7-4.7zM379.8 422.8l.1-.2c-1-.6-2-1.3-3-2-2.7 2.3-3.9 6.4-2.7 9.8 3.4 1 7.6-1.2 8.5-4.7-1-1-1.9-2-2.9-2.9zM303.6 432.9c-2.7 1.1-4.6 3.9-4.6 6.9.8 1.4 2.1 2.5 3.6 3v.1c2.7-.5 5-2.5 5.8-5-1.5-1.7-3.2-3.3-4.8-5zM316.8 400.2h-.3c-3 1.5-4.3 5.9-2.5 8.9 3.4 1.1 7.6-1.2 8.4-4.6-1.2-2.2-3.3-3.7-5.6-4.3zM327.6 523.6c-1.1-3.1-5.8-4-8-1.7l.4.2c-2.3 2.3-.8 7 2.4 7.6 3.2.7 6.4-3 5.2-6.1zM398.9 340.5c-3-.1-5.6 3.7-4.1 6.4 1.4 2.8 5.9 3 7.6.4 1.7-2.6-.4-6.6-3.5-6.8zM334.7 485.4h-.1c.1 2.2 1.8 4.3 3.9 4.8 2-1.5 3.7-3.4 4.8-5.6-1.3-3.8-8-3.1-8.6.8zM418.7 458.7c1.8-2.5-2.4-5.8-5.1-4.3s-2.9 5.5-1.5 8.2c2.6.1 5.3-1.6 6.3-4.1l.3.2zM330.2 444.4c-2.2 1.8-1.9 5.7.4 7.2l-.2.6c3-.8 5.6-3.2 6.7-6.1-1.1-2.6-4.8-3.6-6.9-1.7zM383.7 397.5l-.1-.3c-3.2 0-6 3.2-5.6 6.4 2.7 2.7 8.3.6 8.5-3.2-1-1-1.9-1.9-2.8-2.9zM430.3 403.4s.1-.1 0 0c.1-.1.1-.1 0 0zM433.1 397.5c-1.7 1.5-2.6 3.6-2.8 5.8.9 1.4 2.2 2.5 3.7 3 1.7-1.3 3-2.9 3.9-4.9-1.1-1.7-2.8-3-4.8-3.9zM630.4 346.9l.3-.1c-1.7-2.5-5.2-3.4-7.9-2.1-3.7 2.2-2.9 8.8 1.3 10 4 1.3 8.3-4 6.3-7.8zM725.7 521.6c.6-3-4.3-4.6-6.5-2.5-2.3 2.2-2.2 5.6-1.6 8.7 3.9 1.3 8.5-2 8.6-6.2h-.5zM653 388.5c-.7-3-5.5-4.1-6.8-1.3l-.1.2c-2.5 2.3-1 7.4 2.3 8 2.8-1 5.3-4 4.6-6.9zM656.3 490.7c1.5-3.2-1.7-7.5-5.1-7-3.5.4-5.5 5.3-3.4 8.1 2.2 2.8 7.3 2.2 8.8-1l-.3-.1zM708.8 429.3c2.6-.2 5.1-1.6 6.7-3.7l.3.1c.3-3.4-3.8-6.2-6.9-4.7-2.9 1.6-3.1 6.6-.1 8.3zM749.5 466.5l.1-.6c-3.9.3-6.5 5.5-4.4 8.8 2.2 1.4 5.4.4 6.6-1.8 1.1-2.2 0-5.4-2.3-6.4zM588 383.1c-1.5-2.9-6.1-3.2-7.9-.5-1.8 2.7.4 6.9 3.5 7 3.2.3 5.8-3.7 4.4-6.5zM665.4 443.9c-1.1-2.8-5.5-3.5-7.4-1.2-2 2.3-.6 6.5 2.3 7.2 1.7-1.8 3.4-3.7 5.1-5.6v-.4zM599.7 446.5l-.8-.6c-1.6 1.1-2.7 3-2.6 5 .8 1.4 2.1 2.5 3.6 2.9 1.8-1.3 3.7-2.7 3.9-5 .3-2.2-2.9-4.1-4.1-2.3zM707.8 463.2l-.2.7c-2.2-1-5.1.9-5.3 3.3-.3 2.4 2 4.7 4.5 4.5 4-.3 4.8-7.3 1-8.5zM307.4 159.1c-3.4 1.5-4 6.9-1.1 9.1 3 2.2 8 0 8.4-3.6.5-3.7-3.9-7-7.3-5.5zM326.6 94.2l-.1-.4c-3.9 1.1-5.1 7-2 9.6 2.8 0 5.8-1.5 6.6-4.2.7-2.7-1.9-6-4.5-5zM450.9 184c-2.5-2.7-7.8-1.5-8.8 2.1-1.1 3.5 2.7 7.5 6.2 6.6 3.6-.9 5.1-6 2.6-8.7zM343.2 80c3 .3 5.6-2.7 6.3-5.6-1.7-2.9-5.9-3.9-8.6-2l.6 1.2c-2.9 1.1-1.3 6.2 1.7 6.4zM397.8 169.6c-2.4-1.1-5.4-.8-7.5.8l.8 1.1c-2.9 1.7 0 7 3.2 6.3 3.4-.7 4.8-5 3.5-8.2zM299.1 59.2c-2.7-1.9-6.9-.6-8.1 2.5l.8.3c-1.4 2.4 2 5.5 4.6 4.4 2.7-1.1 3.5-4.6 2.7-7.2zM402.8 202.7c-3-.8-6.2 2.4-5.4 5.4.8 2.9 5.1 4 7.3 1.8 2-2.2.9-6.4-1.9-7.2zM404.8 209.8l-.1.1-.1.1.2-.2zM277 102.9l-.7.4c-2.7-2.5-7.9 1.7-6 4.9 1.8 3.2 7.9 1.2 7.6-2.5 1-.7.5-2.8-.9-2.8zM386.2 110.4c2-1.9 1.2-6-1.5-6.9-2.7-.8-5.8 2-5.1 4.8.6 2.8 4.5 4.1 6.6 2.1zM431.3 139.2c-1.9-1.4-4.9-.2-6.2 1.8-.9 1.4-1 3.3 0 4.6 1.1 1.2 3.6 1 3.9-.6l.4-1c2.5.7 3.8-3.4 1.9-4.8zM361.7 139.2c-1.3-1.7-3.9-2.4-6-1.5-2.2 2.2-1.2 6.5 1.7 7.6 2-1.4 3.6-3.4 4.3-5.8v-.3zM621.9 244.5c-1.5-3.4-6.8-4-9-1-2.2 2.9 0 7.9 3.6 8.3 3.5.4 6.8-4 5.4-7.3zM379.4 238.3c-2.5-.2-4.4 2.9-3.3 5.1 1.1 2.2 5 2.2 6-.1l.1.4c1.4-2-.2-5.2-2.8-5.4zM616.7 144.6c-2.7 1.3-4.3 5-2.6 7.6 1.7 2.5 6.5 1.8 6.8-1.2l.8.2c1.7-3-1.6-7.5-5-6.6zM661.8 153.7c-2.2-2.4-6.8-1.5-7.8 1.6-1 3 2.2 6.6 5.3 5.9 3.2-.6 4.7-5.1 2.5-7.5zM576.8 175.3c-2.9 1.1-3.7 5.7-1.3 7.6 2.4 2 6.7.4 7.3-2.7.5-3.1-3.1-6-6-4.9zM654.3 211.5c1.4-1.9 1.1-4.8-.6-6.4l-.4.5c-1.1-2-4.3-1.1-5.3.8-1 1.9-.5 4.3 0 6.5 2 1.2 4.9.5 6.3-1.4zM697.1 178.8c-.4-2.9-4.5-4.4-6.8-2.6-2.2 1.8-1.6 6.2 1.1 7.1 2.8 1.1 6.2-1.6 5.7-4.5zM686.9 131.4l-.4-1.3c3-.3 4.6-4.8 2.3-7-2.2-2.1-6.6-.6-7.2 2.4-.8 3.1 2.2 6.2 5.3 5.9zM641.9 108.4c2.3.1 3.9-3.1 2.5-5.1-1.3-1.9-4.4-2.1-6.1-.5-1.7 1.6-2 4.4-1 6.4 1.5.3 3 .6 4.4.8l.2-1.6zM621.5 185.9c-1.3-2.2-5.1-2-6.3.1-1.2 2.2.8 5.5 3.2 5.4 2.6 0 4.5-3.3 3.1-5.5zM539.7 267.5c4.6-1.5 9.8 4.7 14 2.2 2.9-1.8 2.3-6.3.6-9.4-4.5-8.2-12.9-13.3-19.4-20-4.5-4.6-8.1-10.2-12.7-14.7s-10.9-8.1-17.3-7.5c-6.7.6-12.1 5.6-16.9 10.3-10.8 10.4-21.6 20.8-32.4 31.3-2.2 2-4.3 4.3-4.8 7.2-.4 2.9 2 6.3 4.9 5.6 3-.7 5.5 2.1 8.5 2.7 3.9.8 7.7-2.7 8.9-6.5 1.1-3.9.3-8-.6-11.9 4.9-.6 9.8 3.6 10.2 8.5 4.5-1.2 7.2-5.8 8.3-10.4 1-4.6.6-9.3 1.5-13.9s3.5-9.3 7.9-10.7c4.4-1.4 10.2 2.7 8.8 7.2-2.5 8.2-4.3 16.9-2.6 25.3 5.9-2.5 10.3-8.2 11.2-14.5.3-2.5 3.6-3.7 5.8-2.7 2.3.9 3.7 3.2 4.6 5.6 2.4 7 .6 14.7-1.2 21.9-.8 3 4.6 3.7 6.7 1.4 1.8-2.5 3-6 6-7zM537.6 354.9c1.9-2 3.8-4.2 4.6-6.9.8-2.7 0-6-2.5-7.2-2.5-1.2-6.2 1.1-5.5 3.7.8 2.8-1.3 6-4.2 6.5-2.9.4-5.8-2-6-5-.1-1.7.7-3.4.4-5-.6-3.4-5.8-4.4-8.3-1.9-2.5 2.3-2.4 6.6-.8 9.6 1.7 3 4.5 5.1 7.2 7.2-2.8 1.5-4.1 4.6-6.1 7.1-2 2.4-5.8 4.3-8.2 2.2-1.6-1.3-1.7-3.7-1.7-5.8.1-2.2.3-4.4-.9-6.1-1.2-1.7-4.4-1.9-5.1.1-.9 3.2-6.2 2.3-7.5-.6-1.3-3-.3-6.4.3-9.6s.6-7.2-2.1-9c-.8-2.5-4.8-2.1-6.5-.1-1.7 2-2.3 4.8-4.1 6.7-1.7 2-5.6 2.5-6.5.1-1-2.7-5.2-3.2-7.2-1.1s-2.2 5.5-1 8.1c1.1 2.7 3.3 4.7 5.5 6.7 6.9 6.5 13.9 12.8 21.1 18.9 4.1 3.5 8.8 7.2 14.3 7 5.6-.2 10.3-4.4 14.2-8.5 5.7-5.6 11.2-11.3 16.6-17.1zM741.3 204.6c-1.2-1.4-2.9-2.8-4.6-2.4-1.8.4-2.5 2.7-2 4.4s1.9 3.1 3.2 4.3c2.9 2.7 5.8 5.5 8.7 8.2 1.1 1.1 2.3 2.2 2.8 3.7s.1 3.4-1.3 4.1c-5.1 2.5-7.9 8.2-8.4 13.8-.5 5.6 1.1 11.2 3.1 16.4 3.5 9.3 8.9 18.5 17.6 23.2 8.7 4.7 21.4 3.2 26.4-5.4 1.4-2.4 2.1-5.1 3.5-7.4 1.4-2.4 3.7-4.4 6.5-4.4 1.5.1 2.4-1.8 2-3.2-.4-1.4-1.6-2.5-2.7-3.4-19.3-15.9-37.6-33.3-54.8-51.9zm43.6 51.8c.6 1.7.3 3.6-.1 5.3-1.2 5-3.3 10.1-7.7 12.7-5.7 3.4-13.3 1.3-18.1-3.2-4.8-4.5-7.4-10.8-9.6-17.1-1.6-4.4-3-9-2.2-13.5.8-4.6 4.5-9 9.2-8.8 3.5.1 6.4 2.7 9 5.1 5.6 5.3 11.3 10.6 16.9 15.9.9 1.1 2.1 2.2 2.6 3.6zM674 276.3c-1.7-.8-3.8-1.6-5.3-.5-1.9 1.4-1.1 4.4 0 6.6l31.8 65.7c.8 1.6 1.6 3.2 3 4.3 1.4 1 3.6 1.2 4.9 0-1.6-5.8-4-11.4-7.1-16.6-1.2-2-2.5-3.9-2.7-6.2-.4-3.8 2.2-7.1 4.7-10 5.8-6.7 13.5-14 22-11.9 4 1 7.2 3.9 10.7 6 3.6 2 8.5 3 11.5.3-2.8-3.1-6.8-5-10.5-6.9-21-10.3-42-20.5-63-30.8zm34.6 25.9c.4 1.6-.9 3.2-2.1 4.4l-6.2 6.2c-1.3 1.3-2.6 2.6-4.3 3.1-1.7.6-3.9.1-4.8-1.5-3.6-7.1-7.2-14.1-10.7-21.1-1-2-1.7-5.2.5-6 1.1-.4 2.2.2 3.2.7 7.1 3.8 14.3 7.5 21.4 11.3 1.2.7 2.6 1.5 3 2.9zM744.6 284.6c-7-6.3-14.1-12.6-19.5-20.3-1.1-1.6-2.2-3.2-3.9-4.2-1.7-.9-4.1-.7-5.1.9-1.2 2 .5 4.4 2.1 6.2 11.8 12.8 24.4 24.9 37.7 36.2 2 1.7 5.4 3.2 6.8 1.1 1.3-1.9-.5-4.3-2.2-5.8l-15.9-14.1zM704.4 252.5c2.1.3 4-2 3.5-4s-3-3.2-5-2.4c-1.9.8-2.8 3.3-2 5.3 1.1.6 2.3 1.1 3.5 1.1zM296 318.7c-3.5 2.7-7.2 6.8-11.3 5.3-3.1-1.2-4.1-5.2-3.9-8.5.5-5.2 3.9-10.7 9-11.1 1.4-.1 2.8.2 4.2 0 1.4-.2 2.9-1 3.2-2.4.3-1.6-1.1-3-2.5-3.7-4.7-2.6-10.9-1.5-15 2.1-4.1 3.5-6.1 9-6.1 14.4-.1 5.8 2.3 11.9 7.1 15.2 4.8 3.3 12.2 2.8 15.8-1.8 3.3-4.4 9-6.9 14.4-6.1 5.4.9 10.1 5.5 10.7 10.9.5 5.4-3.6 11.1-9.1 11.7-2.2.3-4.6-.2-6.7.4-2.2.6-3.9 3.4-2.6 5.2.5.7 1.4 1 2.1 1.3 6.4 2.1 13.9.2 18.6-4.6 4.7-4.8 6.3-12.4 4-18.7-.6-1.5-1.3-3-2.2-4.3-3.2-4.7-8.2-8.2-13.8-9.2-5.4-.9-11.4.4-15.9 3.9zM187.1 360.7c-1.5 1.2-2.4 2.9-3.4 4.5-3.7 6.2-8.8 11.6-14.8 15.8-2.4 1.7-.4 5.4 1.7 7.5l45.4 45.4c3 3 6.9 6.3 11.1 5.4-.4-4.2-3.7-7.4-6.8-10.2L204.7 415c-2.1-1.9-4.3-4.1-4-6.9.2-2.5 2.3-4.3 4.3-6 2.7-2.4 5.3-5 7.6-7.7 1.2-1.4 2.3-2.9 2.5-4.7.2-1.8-.7-3.9-2.5-4.3-4.6.5-7.5 4.8-10.3 8.4s-7.3 7.1-11.5 5.4c-1.4-.6-2.6-1.8-3.6-2.9-1.8-1.8-3.6-3.6-5.3-5.5-.9-.9-1.9-2-2.3-3.2-.9-2.8 1.1-5.5 2.9-7.8 2.8-3.4 5.6-6.9 8.4-10.4 2.2-2.7 4.2-7.2 1.4-9.2-1.5-1.1-3.7-.7-5.2.5zM253.8 325.4c-6.4 5.2-6.5 15.8-13.1 20.7-2.1 1.6-.3 5 1.6 6.9l25.7 25.4c3.6 3.5 7.3 7.2 12.2 8.4 1.3-.5 1.8-2.1 1.5-3.5s-1.2-2.5-2.1-3.5c-4.3-4.8-9.5-8.6-14.3-12.8-4.8-4.3-9.3-9.2-11.4-15.2s-1.4-13.4 3.1-17.9c1.2-1.2 2.6-2.2 3.7-3.5 1.1-1.3 1.6-3.2.9-4.7-1.4-2.7-5.5-2.2-7.8-.3zM358.8 287.1c-2 .5-2.8 2.9-2.7 4.9.1 2 .9 4 .6 6.1-.6 4.5-6.2 6.8-10.6 5.6-4.4-1.2-7.7-4.6-10.8-7.9-4.6-4.9-9.1-9.7-13.7-14.6-.7-.8-1.4-1.6-1.8-2.5-.9-2.4.4-5.1 1.8-7.3s2.9-4.8 2.1-7.3c-.7-2.5-5.1-3.3-5.7-.7-.9 4.2-6.8 6.4-10.3 3.7-2.1-1.6-4.5-4.8-6.7-3.3-1.4.9-1.2 3.1-.3 4.5.9 1.4 2.3 2.4 3.2 3.8 1.9 3.1.5 7.8-2.9 9.3-2.2 1-.8 4.9 1.6 5.3 2.4.5 4.7-1 6.9-2.1s5.2-1.6 6.9.2c5.2 5.7 10.4 11.3 15.6 17 3.6 4 7.6 8.1 12.8 9.7 5.6 1.7 12.1 0 16-4.3 4-4.3 5.1-10.9 2.9-16.3-.9-2.2-2.8-4.3-4.9-3.8zM210.8 345.5c-2.1 1.2-2.4 4.7-.5 6.1 1.9 1.4 4.5.5 6.6-.4.4-1.1.4-2.5-.1-3.6-.9-2.1-3.9-3.3-6-2.1zM226.7 361c-2.1.5-3.1 3.1-2.6 5.2s2.1 3.7 3.6 5.2c9.5 9.6 19.1 19.2 28.6 28.8 2.2 2.2 5.6 4.5 8 2.5.6-4.5-3.1-8.2-6.4-11.2-9.3-8.4-17.9-17.5-25.8-27.2-1.3-1.9-3.3-3.8-5.4-3.3z"/></svg>