<svg xmlns="http://www.w3.org/2000/svg" viewBox="0 0 1000 730.3" enable-background="new 0 0 1000 730.3"><desc xmlns:shape="http://adobe.com/products/shape"><shape:version>1.0.2</shape:version><shape:captureDetail>0.750000</shape:captureDetail><shape:source>1</shape:source></desc><path fill="#29A3C5" d="M41.2 358.7c18.7 64.2 44.5 126.3 76.7 185 15.8 28.8 33.2 56.8 52 83.8 7.9 11.4 58.5 65.2 44.8 76.2-4-4.9-13.6-22.2-20.4-20.8-9.5 1.9-5 12.2-1.4 16.8 4.2 5.4 16.4 10.7 13.4 19.8-3.7 11.8-13-4.3-17.3-9.3-30.1-34.9-57.3-72.4-81.2-111.7C84.4 560 64.1 519.7 47.1 478c-8.7-21.3-16.5-43-23.4-65-3.1-9.9-21.1-49.6-7.3-56.6 17.6 61.8 41 122 69.8 179.4 2.2 4.4 11.5 23.9 17 13 3.1-6.2-13.5-35.5-16.4-42.6-12.3-30.4-24.6-60.7-36.9-91.1-10.7-26.5-34.2-58.6-11.9-84.3 18.5-21.4 46.3-37.6 69.2-53.9 49.6-35.4 101.1-68.1 154-98.3 104.9-60 215.5-109.9 329.1-150.9 12-4.3 26.5-12.2 39.1-13.7 20.4-2.4-4.2 14-12 16.8-28.2 10-56.4 19.8-84.3 30.7-56.8 22.2-112.5 47.1-166.9 74.5-60.6 30.5-119.6 64.2-176.7 100.9-29 18.7-57.5 38.1-85.5 58.3-13.1 9.4-26 19-38.8 28.7-12.4 9.5-29.2 17-24 34.8m93.2 248c7.8-6-17.1-48.7-27.4-43.3-11.3 6 19.3 49.4 27.4 43.3m50.9 65.7c4-7.2-18.4-31.9-25.8-26-10.4 8.3 19.9 36.7 25.8 26m-48.8-53.7c-4.6 5.5 10.8 22.6 18.3 17 7.1-5.4-9.9-26.9-18.3-17zM303.3 511.7c-.2 5.8-4.2 11-9.2 13.8-6.5 3.6-11.3-.8-16.6.6-11.1 2.9-14.5 18.6-26.2 24.4-28 13.8-55.6-6.1-71.4-28.4-20-28.3-32.3-63.3-38.1-97.3-4.8-28.2-9.9-69 11.8-92 21.1-22.2 56.3-13.2 58 18.5.3 5.9 1 16.5-2.7 21.7-4.1 5.8-4.8 3.8-11.1 5.7-19.2 5.9-16.1 24.2-13 41.3 4 21.6 18.3 79.9 47.3 80.8 14.4.4 18.6-13.5 16-25.3-1.1-5.2-3.4-11.3-7.5-15-2.3-2.1-5.2-4.1-8.4-4.7-5.8-1.1-9.5 4.9-12.9 4.5-12.7-1.4-12.5-30.4-10-38.1 3.5-10.7 19.4-27.8 32.5-24.2 11.6 3.2 26 42.1 32.8 54.5 8.5 15.4 29.4 41 28.7 59.2"/><path fill="#29A3C5" d="M234.8 693.3c136.8-122.6 293.7-220.4 455.3-306.8 19.5-10.4 39-20.9 58.7-30.8 6.3-3.2 50.6-27.4 52-14.2.8 7.6-43.8 25-51.5 28.9-20.8 10.6-41.5 21.4-62.2 32.4-80.3 42.9-159 89-234.8 139.6-42.6 28.5-84.3 58.4-124.8 89.9-19.3 15-38.3 30.4-57 46.2-9.7 8.2-18.9 17.6-29.2 25.1-11.6 8.7-17.2-.7-6.5-10.3 148.9-133.4-3 2.7 0 0zM349.8 238.9c4.7-18.9 38.1-29.8 48.3-11 7 12.9 9.5 30.1 14.8 44 6 15.6 12.6 30.9 19.9 45.9 4.5 9.2 9.9 26 20.4 30 17.4 6.6 15-14.6 13.4-25.1-4.7-30.8-13.4-60.9-25.9-89.4-5.2-11.8-8.3-20.9 5.2-28.1 12.9-6.9 23.1-5.5 29.6 6.9 14.6 27.6 27.5 60 33.9 90.7 8.8 42.1-7.9 111.3-64.8 101.5-32.3-5.5-39.9-39.2-51.6-65.1-7.4-16.3-14.8-32.6-22.2-49-5.2-11.2-24.2-38.4-21-51.3M581.5 180.3c8.3 8.9 19.5 22.4 12.4 35.3-6.9 12.6-22.9 9.7-22.4 28.4.3 12.5 11 34.3 25 33.1 16.3-1.4 29.5-23 47.4-21 16.7 1.9 16.7 20.9 8.5 31.6-9.8 12.9-29.1 20.5-42.7 28.4-8.7 5-33.6 25.2-43.7 22.5-9.9-2.7-17.9-35.4-21.5-44.2-14.8-35.7-28.6-71.8-41.5-108.3-2.2-6.2-11-22-9.8-28.3 1.5-7.5 10.7-10.9 16.7-14.8 16.9-11.2 33.7-22.6 50.8-33.5 14.6-9.3 21.1-4.3 27.1 12.6 6.1 17.2-3.6 24.2-17.4 31.6-10 5.3-30.4 12.5-23.5 27.6 6.9 15.4 26.4 8.8 34.6-1"/><path fill="#29A3C5" d="M679.6 26.5c-6.4-1.6-19-7-15.7-15.9 32.8 8 65.6 15.9 98.3 23.9 30.8 7.5 63.7 22.9 93.5 7.6 13.2-6.8 27.7-16.9 42-21.2 13.1-4 14.2.8 22.6 9.6 20.7 21.7 50.5 7.4 71.9-5 7 26.3-5.9 50.2-26.8 65.3-7.2 5.2-19.3 20.5-27.3 18.4-9.9-2.6-16.4-21.2-20.5-29.4-3.8-7.7-7.3-15.7-10.2-23.7-1.1-3.1-3.7-16.3-5.9-18.5-7.5-7.5-26.5 8.6-33.3 12.6-15.7 9.2-20.7 11.4-13.1 30 4.8 11.6 9.8 34.1 19.6 42.1 11.2 9.1 24.6-3.6 36.9-7.6 15.6-5 20.5 3.3 5.9 11.5-6.6 3.7-40.4 21.4-46 19.3-3.2-1.2-8-17.7-9.3-20.4-3.6-7.9-7.2-15.9-10.8-23.8-5.4-11.9-9.4-29.6-21.3-36.8-12.6-7.6-33-9-47.3-12.6-34.3-8.4-68.7-16.9-103.2-25.4m262 62.4c13.8 1.4 29.5-16.1 36.7-26.1 10.6-14.7 6.6-16.3-10-12.9-10.7 2.1-35.3-1.3-43 7.1-9.4 10.1 4.8 30.7 16.3 31.9m-19.8-41.6c1-3.6-15.3-25.6-18.6-12 2.8.5 15.7 22.9 18.6 12 1.2-4.2-.7 2.9 0 0zM407.4 420.5c8.1 16.6-41.2 43.3-53 52.4-10.2 7.9-17.8 19.6-28.1 9-9.1-9.4-15.3-27.8-21.5-39.5-14.1-26.5-27.6-53.2-40.6-80.2-6.5-13.5-12.9-27-19.1-40.7-4.6-10.1-16.1-26.8-13.4-37.9 1.3-5.5 19.3-25.8 24.9-27.1 13.3-2.9 16.2 15.6 19.7 25.1 10 27 21 53.6 33.2 79.7 6.1 13 12.2 26.1 19 38.7 6.8 12.5 10.8 19.5 24.1 11.4 8.6-5.2 21.6-20.9 31.5-22.3 12.5-1.8 18.9 22.5 23.3 31.4"/><path fill="#29A3C5" d="M780.1 297.9c-20.7-44.2-40.2-88.9-58.4-134.2-8.9-22.1-17.4-44.2-25.7-66.5-2.6-7.1-23.5-54.6-14.9-55.9 8.8-1.2 24.8 52 27.8 59.5 9 22.4 18 44.9 27 67.3 19 47.3 37.9 94.5 56.9 141.8-6.3.1-10.3-6.9-12.7-12zM868.2 151.2c6 13.8-10.7 34.3-16.4 46.2-7.6 16-14.3 32.5-19.9 49.3-5.2 15.7-9.6 31.7-13.1 47.8-1.2 5.7-2.5 35.6-13.8 31.5-11.4-4.1 13.1-76.8 16.8-87.5 5.3-15.4 11.5-30.5 18.6-45.2 5.6-11.5 14.3-37.7 27.8-42.1 3.3 7.8-5.2 1.7 0 0zM826.1 474c21.9-22.5 74.1-20.5 87.8 9.4 7.9 17.2 7.5 38 5.7 56.4-.9 9.3-2.1 18.8-4 28-2.4 11.2-2.7 10.5-12.9 14.5-13.4 5.2-22.4 15.7-37.8 15.8-17.6.1-33.5-10.5-45.8-22.2-16.2-15.6-10.7-30.3-7.9-50.8 2.2-16.8 2.3-38.2 14.9-51.1m69.3 84c-1.6 11.8 6.8 17.4 11.2 5.3 4.1-11.3 2.3-28.7 2.9-40.8.6-13.3-2.4-15.7-15-12.4-12.7 3.3-24.1 7.6-37.6 5.4-9.9-1.6-23.8-13.6-32.2-3.6-5.3 6.4-5.8 25.8-6.4 33.8-.6 10 3.9 23.8 10.6 9.4 2.4-5.1 1.7-12.5 2.2-18 .9-9.4-2.5-16.8 8.5-16.6-1 10.8-9.7 42.4-3.6 51.6 12.4 18.7 11.6-22.5 11.8-28.9.1-4.3-1.4-14.5 4.7-16.1 7.5-2 4 15.3 3.9 18.2-.4 6.2-6.9 44.9 9.2 38.2 8.9-3.7.5-30.3 1.4-38.4.3-2.9 1.4-18.7 8.8-14.7 2 1.1 1.1 23.5 1.2 26.5.2 3.9-1.5 17.2 2.3 20.2 7.4 6 9.8-2.3 10.3-8.5.2-2.4-4.7-49.4 9.5-39.4-1 9.6-2.3 19.2-3.7 28.8m-63.6-71.7c-4.8 21.5 70.5 25.3 69.3.3-1.2-24.9-65.2-18.7-69.3-.3-.3 1.4.3-1.2 0 0z"/></svg>