<svg xmlns="http://www.w3.org/2000/svg" viewBox="0 0 1000 587.4" enable-background="new 0 0 1000 587.4"><desc xmlns:shape="http://adobe.com/products/shape"><shape:version>1.0.2</shape:version><shape:captureDetail>0.931655</shape:captureDetail><shape:source>1</shape:source></desc><path fill="#C12C7F" d="M12.4 458c10.8-14.3 26.1-25.1 43.1-30.7 5.4-1.8 18.3-7 23.5-3.4 7.5 5.1-5.4 12.2-9.8 17.4-11.4 13.4-21.4 33-37.8 41.1-18.6 9.2-31.4-8-19-24.4m5.6 7.3c-10.6 12.5 8.1 9.3 14.4 4.5 9.2-6.9 14.9-17.5 23.2-25.4 10.6-9.9 7.2-12.4-5.7-5.3-12 6.7-22.9 15.6-31.9 26.2-2.2 2.6 11.7-13.7 0 0zM855.6 500.6c9.4.4 17.9-6.4 27.2-7.4 9.1-1 18.9 1.2 26.6 6.2 16.7 10.9 14.7 29.4 1.7 42.5-5.6 5.7-13.5 11.1-21.9 8.6-10.6-3.1-10.3-11.6-11.6-20.4-3.2-21.1-23.8-20-40.2-25.4.6-8.6 13.7-4.2 18.2-4.1m52.7 8.1c-5.6-4.8-26.8-12.9-32.3-3.5-2.8 4.7 4.8 9.5 6.7 13 2.7 5.2 1 9.9 2.7 15 6.8 20.7 40.6-9.5 22.9-24.5-7.9-6.7 3.2 2.7 0 0zM77.3 517.9c3.2 11.4 9.3 81-19 62.1-23.5-15.7 0-60 14.2-73.7 1.6 3.8 3.6 7.6 4.8 11.6m-9.1 54.8c7.2-3.8 2-18.8 1.8-25-.2-4.6 4.8-22.5-.7-25.1-7.2 9.1-11.6 20.6-12.4 32.2-.5 5.8.8 23.4 11.3 17.9 4.4-2.3-3.1 1.6 0 0zM773.1 303.6c17.6 41-2.6 93.2-33 122.4-34.4 33.1-90.3 44.7-136 33.3-49-12.2-81.3-52.5-64.5-103.5 14.4-44 61.2-85.4 104.5-100.1 44.9-15.3 108.9 1.1 129 47.9m-96.7 144c40.4-11.1 75.7-39.4 88.8-80.1 13.1-40.9-2.2-83.2-43-100.4-42.6-18.1-90.2-.6-123.8 27.5-30.6 25.6-65.5 66.7-52.3 109.7 15.4 49.8 88.7 54.8 130.3 43.3 28.2-7.8-32.9 9.1 0 0zM211.4 402.1c-46-15.7-59.2-62.8-41.1-105.4 16.6-39 51.3-70.4 91.3-83.9 37.9-12.8 91.7-12.1 106.9 32.3 12.8 37.3-1.6 81.8-24.1 112.4-30.4 41.4-83.3 61.6-133 44.6m-27.8-27.7c26 29.8 76.2 28.2 109.2 12.6 35.7-16.9 59.7-52.1 67.9-90.1 8.1-38-2.6-81.7-49.4-79-9.2.5-19 4.8-28.1 3.7-4-.5-7-2.7-11.1-2.6-4.7.1-10.5 3.1-14.8 4.8-17.8 7.2-33.9 18.5-47.4 32.1-28.3 28.4-58.2 81.9-26.3 118.5 7.2 8.3-10.8-12.3 0 0zM625.7 362.2c15.3-8.5 29.9-18.2 43.6-29.1 6.9-5.4 13.5-11.1 19.9-17.1 4.3-4 13.4-13.6 13.4-1.7 0 11.1-27.1 27.6-35.2 32.9-14.5 9.6-30.2 17.4-46.2 24.3-4.2-3.4 1.9-7.9 4.5-9.3 26-14.4-1.8 1 0 0zM694.2 371.5c-10.3 9.1-22.8 15.2-35.4 20.4-2.9 1.2-14.4 7.5-17 5.7-5-3.4 3.1-7.7 5.8-9.4 11-7.1 22.9-12.5 33.5-20.2 3.9-2.9 10.7-12.1 15.5-9.4 5.9 3.3 1 9.9-2.4 12.9-14.6 12.8 2.7-2.3 0 0zM312.7 289.2c-15.1 12.5-31.1 23.9-47.9 33.9-3 1.8-14.8 11.1-17.7 7.4-3-3.9 12.9-13.9 15.2-15.6 13.2-9.8 27.5-18.2 39.4-29.6 3.5-3.3 8.8-12.8 14.3-11.2 7.8 2.2-.1 12.6-3.3 15.1zM312.9 246.4c12.7-2.4-10 20.5-10.6 21.1-5.1 4.3-19.7 18.6-26.2 17.6-10.9-1.6 3.7-11.5 7.6-14.8 6.9-5.8 20.7-22.3 29.2-23.9zM977.8 94.5C935.8 20 832 1.7 754.2 6.2 658.1 11.7 571.5 57.9 478.9 79c-45.1 10.2-92.4 15.1-138.1 5.9C297 76 259.2 46.5 214.7 41.6c-83.5-9.3-151.2 71-171 144.2-5.1 18.8-7.8 38.3-7.8 57.8 0 9.7.6 19.5 1.9 29.1.6 4.4 1 9 2.2 13.3.4 1.3.5 5.6 1.4 6.6 3 2.9 4.3.4 7.3 1.4 10.1 3.6 18.1 5.9 29.5 6.9 10.5.9 21.1 1.6 30.7 6.2 20.6 10 17.5 24.8 20.2 44 5.2 37.6 33.9 69.5 68.7 83.1 42.4 16.6 90.7 8.8 130.5-11.1 40.1-20 67.7-51.5 101.1-80 13.6-11.6 36.8-21.7 51.9-6.6 13.2 13.2 8.4 36.9 10.8 53.7 12.6 87.2 103.4 141.6 186.4 113.4 39.5-13.4 72.1-41.6 99.7-72 13.4-14.7 25-31.6 40.7-44 7.1-5.6 15.2-10.4 24.2-12 9.5-1.7 17.2 2.2 25.7-3.5 17.5-11.9 33.2-30.6 47.8-45.9 15.3-16.1 29.7-33.3 41.9-51.9 23.4-35.6 38.4-77.5 36.1-120.5-1.2-20.8-6.5-41.3-16.8-59.3-25.7-45.5 26.2 46.3 0 0zM581.4 61.1c4.2-9.1 13.7-10 16.7-1.1 2 5.9 5.7 27.6 2.7 33.7-3.4 7-13.3 9.6-17.3 2.9-3.5-5.9-4.7-29.9-2.1-35.5 2.1-4.6-1.4 2.9 0 0zM734.2 68c61.8-6.8 130.4 6.9 175.6 52.3 22.4 22.5 37.7 51.9 43.7 83.1 1.2 6.3 4.3 17.1 2.7 23.6-1.6 6.4-8.6 14.1-12.7 19.4-10.2 13.6-22.4 25.8-36 36-18.6 13.9-50.6 34.4-74.8 22.4C821 299 814.9 283 807 273c-9.5-12.1-20.3-23.2-32.5-32.6-25-19.3-55.2-30.4-87-27.5-33.6 3.1-64.1 19.5-94.2 33.6-15.2 7.1-30.9 15-47.4 18.6-19.6 4.3-30.3-3.5-47.8-9.6-16.2-5.6-28.6 4.7-44.5 4-15.5-.6-23.5-14.1-31.2-25.7-36.4-54.6-103.3-68.9-164.6-53.8-17.1 4.2-33.7 10.5-49.7 17.9-15.6 7.2-31.9 20.7-48.7 24-32 6.2-60.6-25-60.3-55.5.2-28.6 23.1-52.4 48.6-62.2 34.5-13.2 73.2-3.2 106.1 9.8 38.4 15.1 74.5 33.8 116.1 38.9 42.9 5.3 84.6-1.4 126.2-11.7 4.6-1.1 9.1-2.3 13.7-2.9 6-.8 13.7 2 19 .9 6.8-1.4 14.9-8 21.4-11 20.1-9.2 40.4-18 60.9-26.3 39.5-16 80.5-29.3 123.1-33.9 62.8-6.9-62.8 6.8 0 0zm-174.3-.8c5.7-13.6 11.3 2.8 11.8 7.6.7 6.6 7.1 24.4 3.2 30.8-5.5 9-9.8-.5-11-6.1-1.8-8.4-7.4-24-4-32.3 1.4-3.3-1.4 3.3 0 0zm-19.3 7c2-7.4 7.2-.8 8.8 2.3 3.1 6.2 3.8 15.2 5.5 22 .9 3.7 4.3 11.4 1.8 15.1-4.3 6.2-7.7-.1-9.5-4.6-3.1-7.8-8.8-26.4-6.6-34.8.6-2-.5 2 0 0zm-14.9 1.9c9-1.3 18.6 39.9 12 44.3-9.2 6.2-18.1-38.6-12-44.3 4-.6-2.5 2.3 0 0zM215.8 49.5c24.8 3.3 46.7 15.9 68.9 26.5 23.9 11.3 48.7 18.7 75 21.4 26.8 2.7 53.9 1 80.6-2.7 12.6-1.8 25.2-4 37.7-6.5 7.3-1.5 29.4-10.2 35.3-5.7 6.2 4.7 7.2 25.5 7.7 32.9 1 14.9-11.5 14.6-23.6 17-27.2 5.6-54.5 10.5-82.2 12.4-26.2 1.8-52.9.8-78.5-5.5-26.9-6.6-50.9-19.9-75.9-31.2-27.3-12.3-57.2-21.5-87.4-18.2-12.4 1.3-24.7 4.7-35.7 10.4-11.4 5.9-21.6 20.9-33.8 23.7 14.9-45.9 63.1-81 111.9-74.5 31 4.1-48.2-6.4 0 0zM67.4 289.4c-34.9 19.9-18.8-86.7-15.9-98.5 4.8-19.4 12.1-38.3 22.2-55.6 5-8.6 10.6-16.8 17-24.4 1.5-1.7 19.4-20.1 19.5-16.7-9 19.5-16.6 39.6-22.7 60.1-1.4 4.5-4.3 10.8-2.5 14.2.8 1.5 4.2 3.2 5.5 4.9 4 5.2 4.7 12.3 6.9 18.3 1.9 5.3 7.2 10.5 8.6 15.3 2.2 7.5-5.2 16.9-8.3 23.6l-15 32.1c-3.6 7.9-7.2 22-15.3 26.7-6.3 3.5 3.8-2.2 0 0zm23.3 1.8c-5.2 2.7-8.4-1.8-8.7-6-.3-5.7 8.1-17.1 10.5-22.1 3.8-8 7.6-15.9 11.4-23.9 1.8-3.8 5.5-16.9 10.2-18.3 14.4-4.3-1.6 23.9-3.4 28-4.6 10.3-9.7 36.9-20 42.3-3.8 2 3.9-2 0 0zm757.8 64.4c-5.9 9-20.5 15.1-29.6 7.2-34.7 57.3-82.2 111.8-149 130.6-60 16.8-131.3-3.3-158.4-63.5-13.3-29.6-1.8-66.7-20.4-93.7-22.1-32-59.7-9.3-80.7 10.7-49.2 46.7-108.5 95.8-181.5 86.1-33.2-4.4-65-23.2-81.3-53.1-12.6-23-7.5-88.2-46.7-86 7.8-18 13.9-40.7 24.9-56.9 9.2-13.6 33-6.6 25.8 10.9 42.9-35.8 96-66 153.5-64.7 25 .5 50.2 6.9 71.8 19.7 23 13.6 33.6 34 50.7 53.1 7.3 8.1 15.9 14 27.2 13.8 15.7-.2 28.4-8.9 44.3-3.6 13.2 4.5 23.3 11.9 37.9 11 15.7-1 30.7-8.2 44.7-14.6 53.1-23.8 114.4-58.2 171.7-26.1 26.5 14.8 44.3 38.9 61.4 63.2 4.2 6 8.8 12.7 15.3 16.5 8.5 4.9 11.6-.7 19.1 0 12.9 1.1 4.1 32-.7 39.4-6.3 9.7 6.3-9.7 0 0zm32.6-33.8c-3.8 12.2-6.7 26-13.5 37-1.6 2.6-6.2 10.5-10.4 9.7-6.9-1.3-.6-10.5.6-14.1 3.8-11.1 3-27.8 9.1-37.6 5.6-8.8 17.9-6.6 14.2 5-1.7 5.5.7-2.3 0 0zm9 15.8c-8.3 7.6.4-21.6 1.8-24.8 4.2-10.1 14-14.5 22.4-20.9 9.1-6.9 17.6-14.8 25.2-23.3 3.5-4 16.7-27.3 23.9-20.6-20 33.1-44.8 63.4-73.3 89.6zm78.6-108.3c1.3 5.7-4.6 13.9-7.2 6.7-.7-1.9 1.1-9 3.2-10.1 4.3-2.3 7.2 2.7 4 3.4zm-.7-18.5c-5 10.8-8.5-9.4-8.8-11.5-1.3-9.1-3.3-18.2-6.1-27-5.5-17.6-14.3-34.2-26.5-48.1-23.9-27.3-59-45.9-93.2-56.8-78.1-24.9-152.8-2-226.4 26.4.3-11.4-2.5-29.1 1.3-40 3.3-9.6 14.8-10.3 23.5-12.9 24.5-7.3 49.3-14 74.5-18.7 45.6-8.6 92.8-11.2 138.4-1.2 42.1 9.2 83.8 29.6 112.4 62.6 32.3 37.2 30.7 84 10.9 127.2-.5 1 12.4-27.2 0 0z"/></svg>