<svg xmlns="http://www.w3.org/2000/svg" viewBox="0 0 1024 1024" enable-background="new 0 0 1024 1024"><desc xmlns:shape="http://adobe.com/products/shape"><shape:version>1.0.1</shape:version><shape:captureDetail>0.750000</shape:captureDetail><shape:source>1</shape:source></desc><path fill="#13110C" d="M394 313.4c-8.6-1.5-13 9.9-14 18.6-1.9 17.5-3.9 35-5.8 52.6-11.4-10.6-20.4-23.8-26.3-38.1-5.2-12.6-11.4-28.9-25-29.1-15.5-.3-30.8-.6-46.3-.8-25.5-.5-54-2.3-71.2-21.1-12.9-14.1-16.1-34.7-14.4-53.7 2.5-28.4 18.4-59.1 46.3-64.7 6.3-1.2 12.8-1.1 19.4-1 37.1.7 74 1.4 111.1 2.2 24.2.5 50.7 1.8 68.4 18.2 8.8 8.1 14.4 19.1 17.7 30.6 5.8 20.1 4.5 42.8-6.6 60.6-11 17.9-32.7 29.5-53.3 25.7m-19.1 3.7c1.1-7.3 5.7-16.9 12.6-14.4 19.7 7.1 43.1-3.5 53.8-21.4s9.6-41.4.6-60.2c-3.7-7.8-8.8-15-15.6-20.3-14.6-11.5-34.7-12.4-53.4-12.8-35.7-.8-71.5-1.6-107.2-2.5-15.9-.4-33.1-.3-45.6 9.4-11.5 8.9-16.1 23.9-18.9 38.1-2.9 14.2-4.4 29.6 1.7 42.8 6.3 13.6 20 22.6 34.4 26.9 14.4 4.2 29.6 4.3 44.6 4.4 15.2 0 30.2.1 45.4.1 11.6 0 19.4 12 23.4 22.8 4.1 10.9 7.8 23.3 18 28.9 2-14 4-27.9 6.2-41.8zM179.3 482.5c6.8-31.5 29.1-59.6 58.8-72.1 29.7-12.5 66-8.4 91.6 11.3 25.6 19.7 38.8 54.6 31.5 85.9-.6 2.8-1.4 5.7-.6 8.4.7 2.5 2.7 4.3 4.5 6 12.7 12.1 25.3 24.2 38 36.1 5.7 5.4-1.1 15.8-9 16.6-7.9.8-15.2-3.6-22.6-6-7.5-2.5-17.6-1.8-21 5.2-13.7 28.5-45.7 46.3-77.2 45.4-31.5-.9-61.4-19.5-78.6-45.9s-22.1-60.1-15.4-90.9m71.9-65.8c-9.1 2.2-18.1 5.2-26.2 9.9-25.6 15.1-38.8 45.9-39.8 75.6-.9 27.2 7.4 55.1 25.1 75.9 17.7 20.7 45.2 33.5 72.3 31.3 27.1-2.2 53-20.1 62.5-45.7 3.1-8.4 15.1-8.7 23.6-5.8 8.5 2.9 17.8 7.4 25.9 3.5-13.5-12.2-27-24.3-40.7-36.5-2.5-2.3-5.2-5.3-4-8.4 7.8-20.2 6.3-43.6-3.8-62.7-10.1-19-28.8-33.4-49.9-38.2-14.8-3.4-30.3-2.3-45 1.1zM743.5 465.5c-7.5 14.1-18.4 26.4-31.6 35.3-3 1.9-7 3.8-9.7 1.6-2.8-2-2.4-6.3-1.5-9.7 1.8-7.9 3.6-15.7 5.4-23.6 1.1-5 2.4-10.3.9-15.4-1.4-5-6.5-9.3-11.5-8.1-7.1 1.7-8 11.2-7.8 18.4.8 42.9-16.5 85.2-44.5 117.7-28.1 32.5-66.4 55.2-107.3 68.1-1 .3-1.9.6-3 .5-3.9-.3-5.1-5.5-5.1-9.4-.3-14.6-.5-29.4-.8-44 0-2.3-.1-4.7-1.4-6.6-1.8-2.7-5.4-3.2-8.6-3.6-33.6-4.6-65.1-23-85.6-50.1-8.8-11.6-15.6-24.7-20.9-38.2-8.5-21.5-13.3-44.5-12.8-67.7 1.1-47.9 27.2-94.6 67.4-120.7s93.3-30.8 137.6-12.4c7.9 3.3 14-7.1 17.4-14.8 9.6-22.2 28.4-39.8 50.4-49.9 22-9.9 47-12.5 71-9.2 29.4 4.1 58.7 18.1 75.3 42.8 14.2 21.2 17.8 47.9 15.8 73.4-3.4 43-25.3 88-65.4 103.8-4.8 1.9-9.8 3.4-13.7 6.8-4.8 4-7.2 9.7-10 15M608.9 308.8c-40-19.5-89.4-18.2-128.6 3C441 333 413 373.4 406.6 417.4s9.1 90.7 40.3 122.5c9.4 9.6 20.3 18 32.4 24.2 14.3 7.4 30.3 11.7 46.5 12.5 3.2.1 6.7.3 8.7 2.8 1.7 1.9 1.7 4.9 1.7 7.5-.2 12.9-.3 25.9-.5 38.8-.1 4.1.7 9.4 4.8 10.3 1.4.3 2.9-.1 4.3-.5 47.3-13.4 88.1-47.2 111.9-90.2s30.9-94.7 21.7-143c-2.5-12.8-5.9-25.4-11.7-37.1-12-24.8-33.2-44.4-57.8-56.4m137.2-74.7c-25.8-5-53.2-2.5-76.7 9.3-23.4 11.8-42.2 33.4-48.4 58.9 35 20.8 59.5 58.4 64.4 98.8.9 7.5 1.2 15.3 3.9 22.3 2.7 7.1 8.5 13.5 16 14.5 7.3.9 11.6 9.1 11.5 16.4-.1 7.3-3.2 14.1-5.1 21.2-1.2 4.3-.6 10.6 3.8 11.2 19-11.3 21.4-42.1 42.3-49.4 24.4-8.5 44.1-28.2 55.1-51.5s13.6-50.1 10.2-75.7c-1.1-8.9-3.1-17.7-6.7-25.9-11.8-27.4-40.8-44.4-70.3-50.1zM742.8 512.6c6.6-1.2 13.3-2.5 19.8-.9s12.5 6.9 12.7 13.5c.2 5.6 7.8 7.3 13.4 7.2l37.2-.6c10.6-.2 22.6.2 29.9 8 6.5 7 7 17.4 7 26.8.1 19.7.3 39.3.4 59 0 6.3.1 12.9-2.4 18.8-2.5 5.8-8 11-14.4 10.8-36.1-1-72.2-2-108.3-3.1-9.9-.3-21.4-1.3-27-9.5-3.3-4.8-3.8-10.9-4.2-16.7-.9-14.5-1.8-29.1-2.8-43.6-.6-9.6-1.2-19.4 1.4-28.7 2.7-9.2 9.3-17.9 18.5-20.4 4.9-1.2 3.5-8.6 5.4-13.2 2.2-4.8 8.2-6.4 13.4-7.4M855 631l-.6-67.6c0-4.5-.1-9.2-2.5-13-4.4-7.4-14.4-8.3-23-8.4l-89.8-1.2c-7.6-.1-16.1.1-21.3 5.5-5.1 5.3-5.3 13.6-5.1 21 .4 17.8.9 35.6 1.3 53.5.1 5.3.4 11.2 3.7 15.4 4.6 5.9 13.2 6.6 20.7 6.8 33 .7 65.9 1.4 98.9 2.2 6.1.1 13.6-.4 16.5-5.8 1.2-2.6 1.3-5.6 1.2-8.4M736.5 528.4c7.8 2.6 16.2 3.6 24.4 3 2.9-.2 5.3-2.6 5.8-5.3-4-4.6-10.9-4.8-16.9-4.6-5.5 0-12.5 1.5-13.3 6.9zM278.8 720.8c4.3-3.1 9.4-5.4 13-9.3 2.7-2.9 4.4-6.6 6.5-9.8 2.2-3.4 4.8-6.6 8.6-7.8 3.7-1.2 8.6.2 9.9 3.9 1.3 3.7-2.9 8.4-6.3 6.7-2.8-1.4-5.6 2.8-4.5 5.7s4.1 4.5 6.8 6.3c10.1 7.1 15.5 20.5 12.8 32.6-2.7 12.1-13.1 22-25.3 24.1-3.4.6-3 6.2 0 8 3 1.8 6.8 1.3 10.1 1.9 10.1 1.9 15.6 13.4 15.9 23.7.5 18.9-14.8 38.5-33.8 37.7-12.7-.6-24.2-10.5-27.2-22.8-3.1-12.3 1.9-26.1 11.7-34.2 2.6-2.2 5.5-4 7.1-7 1.5-3 .8-7.4-2.4-8.4-10.1-3.1-17.1-13.6-17.2-24.3-.3-10.6 5.7-20.7 14.3-27m16.8 70.7c-9.8-.7-19.6 6.7-21.6 16.3-1.9 9.6 4.1 20.3 13.4 23.4 9.3 3.2 20.6-1.4 25-10.2 2.6-5.1 5.1-10.8 3.9-16.3-1.9-8.5-11.9-12.5-20.7-13.2m5.8-29.6c9.1-3.6 15.7-13.5 14.2-23.2s-11.9-17.4-21.4-15c-4.4 1.1-8.1 4-11.5 7-3.1 2.7-6 5.4-7.8 9.1-3.1 6.7-.4 15.3 5.4 19.8 6 4.5 14.3 5.1 21.1 2.3zM732.1 723.4c1.7 3.3 5.2 5.1 8.1 7.4 12.8 10.2 12.4 32.9-.8 42.6-3.7 2.8-8.2 4.6-10.9 8.4 13.2 3.8 24.2 15.5 26.2 29.1 2 13.6-5.3 28.4-17.8 34.2-12.5 5.8-29.1 1.6-36.7-9.8-7.6-11.5-4.6-29 6.9-36.7 3.5-2.4 7.2-4.9 8.8-8.9 1.6-3.9-.1-9.4-4.2-10.2-9.2-1.8-16.3-10.2-17.5-19.6-1.2-9.2 2.9-18.8 9.6-25.2 5.8-5.4 13.6-8.9 18.6-15.1 3.1-3.8 5.2-8.6 9.5-11.1s11.5.1 10.8 4.9c-.9 5-8.3 5.6-10.6 10M709 830.6c7.9 7.7 22 7.8 29.9.2 8-7.6 8.5-21.7 1.1-29.9-1.6-1.7-3.6-3.4-5.8-4.1-5.6-1.9-11.7 1.2-16.3 5-3.9 3.2-7.4 7-10.2 11.1-1.4 2-2.8 4.3-3.2 6.8-.6 4 1.5 8.1 4.5 10.9m22.2-93.7c-2-1.3-4.3-2.6-6.8-2.9-3.8-.4-7.4 1.7-10.3 4.1-7 5.4-12.8 14.6-9.4 22.8 2 5 7.4 8.3 12.9 8.8 5.4.5 10.9-1.5 15.4-4.7 5.7-4.1 10.2-11.5 8-18.1-1.7-4.3-5.8-7.4-9.8-10zM92.1 761.8c5.1.3 10.1.5 15.3.8.9 8.7 1.9 17.3 2.9 26 .3 2.8.5 5.7-.9 8-1.1 1.7-3.1 2.8-5 3.5-14.6 6-31.9 4.4-45.8-3.4s-24-21.3-28.6-36.5c-6.2-20.6-1.8-44.6 13.1-60.1s40.4-20.5 59.2-9.9c2.9 1.6 5.8 4 6.2 7.3.4 3.3-3.7 6.7-6.2 4.5-10.3-8.7-25.8-10.2-38.2-5-12.5 5.2-21.8 16.8-25.5 29.8-4.1 14.3-1.6 30.3 6.6 42.8 8.2 12.5 22 20.9 36.9 22.7 5.3.6 11.2.3 15.6-2.9 4.4-3.2 6.5-9.9 3.2-14.1-.7-.9-1.6-1.7-2.8-2.3-2.8-1.3-5.9-.8-8.9-1.1-3-.4-6.3-2.4-6.2-5.3-.4-4 5.1-5 9.1-4.8zM549.5 739.1l-.3 52c0 3.3-5.2 4.2-7.6 1.8-2.4-2.4-2.4-6-2.4-9.3l.6-34.2c.1-6.2-.2-13.4-4.9-17.5-6.3-5.4-16.5-1.7-22.3 4.2-14.2 14.2-15.1 36.6-15.1 56.6 0 3-4.7 3.8-6.9 1.6-2-2.2-2.2-5.5-2-8.5.7-31.5 1.5-63.1 2.6-94.5.1-3.4 5.5-4 7.7-1.4s1.8 6.3 1.5 9.6c-.6 5.6-1.2 11.3-1.9 17-.6 5.4-.4 12.4 4.6 14.6 6.5-8.1 16.7-13.5 26.9-12.4 10.2 1.2 19.5 10 19.5 20.4zM380.6 760.7c-2.5 3.2-.8 7.8 1.4 11.2 4.1 6.2 10.1 11.4 17.3 13.4 7.2 2 15.6.5 20.8-4.8 2.7-2.7 7.7.8 7.5 4.6-.2 3.8-3.6 6.7-6.9 8.4-8.3 4.4-18.5 5.1-27.4 1.9-8.9-3.2-16.3-10.2-20-18.9-2.2-5-3-10.4-3.4-15.9-1-13.6 1.7-28.7 12.3-37.3 9-7.3 22.8-8 32.5-1.5 9.6 6.5 14.3 19.5 11.1 30.5-.3.9-.6 1.8-1.2 2.7-2.3 3.2-7 3-10.9 2.7-8.6-.7-17.2-.7-25.7.2-2.8.1-5.7.7-7.4 2.8m33.9-25.9c-4.1-5.6-11.8-8.3-18.6-6.8s-12.5 7-14.8 13.5c-.6 1.8.7 4 2.5 4.9 1.7.9 3.9.8 5.8.8 6.3-.1 12.8-.3 19.1-.4 2 0 4.2-.1 5.8-1.3 3.4-2.4 2.6-7.6.2-10.7zM604.6 755.9c5-7.7-.5-19.3-9.3-22-8.8-2.8-18.6 1.7-24.4 8.9-3.7-.8-5.2-5.6-3.9-9.1s4.7-5.7 8.1-7.4c7-3.4 15.2-4.7 22.6-2.7 7.5 2 14.1 7.9 15.9 15.5.9 3.9.6 7.9.4 11.9-.7 12.3-.2 24.6 1.3 36.7.8 6.6-5.4 11.9-11.6 13.9-9.8 3.3-21 1.8-29.8-3.5-5.2-3.2-9.7-7.9-11.4-13.7-2.5-8.7 2.2-18.2 9.1-24 5.9-4.9 14.4-7.5 21.5-4.3 2.7 1.2 5.4 3.3 8.2 2.4 1.5-.4 2.6-1.5 3.3-2.6m.2 24.2c-2-7.5-8.7-13.6-16.4-14.2-7.7-.6-15.7 5-16.8 12.6-.2 1.5-.1 3.3 1 4.2 5.5 4.8 11.5 9.8 18.7 10.3 7.3.5 15.4-5.9 13.5-12.9zM211.4 799.5c-13.3-3.2-21.6-17.1-23.8-30.7-1.6-10.1-.7-20.7 3.3-30.2 5.2-12.7 18.2-23.8 31.7-21 5.6 1.1 10.5 4.5 14.4 8.7 8.1 8.7 11.9 20.9 12 32.8.1 10.6-2.6 21.6-9.3 29.8-6.8 8.1-18.1 13-28.3 10.6m5.4-10.6c2.2.1 4.3-.5 6.2-1.4 7.4-3.3 12.9-10.1 15.2-17.9 2.3-7.8 1.5-16.2-1.3-23.8-2-5.4-5.2-10.5-9.9-13.9-4.7-3.4-11.1-4.8-16.5-2.7-6.2 2.4-10.1 8.7-12.3 15.1-5 14.8-1.8 33.6 11.3 42 2.2 1.4 4.6 2.5 7.3 2.6zM175.1 748c2.3 12.6 2 26.3-4.5 37.4-6.6 11.1-20.9 18-32.7 13.1-7.8-3.3-13-11-15.8-19-5-14.4-3.5-30.9 4.2-44.1 1.9-3.3 4.2-6.5 7.1-8.9 9.9-8.4 26.8-6.7 34.8 3.6 3.9 5.1 5.8 11.5 6.9 17.9m-16.9-12.1c-2.3-2.4-4.9-4.4-8.1-5-8.3-1.8-15.7 6.1-18.8 14-5.2 13.1-4.2 29.4 5.4 39.7 2.6 2.8 5.8 5 9.5 5.1 3.5.1 6.8-1.8 9.5-4.1 7.2-5.9 11.7-15.1 12.1-24.4.4-9.1-3-18.6-9.6-25.3zM997.5 770.9c2 5.1 3.4 11.2.8 16.1-1.4 2.7-3.8 4.7-6.1 6.7-4 3.3-8.2 6.6-13.1 8.2-8 2.7-17.3.4-23.2-5.5-1.3-1.3-2.6-3.1-2.3-5 .4-2.3 3.1-3.5 5.3-3.3 2.3.2 4.3 1.3 6.5 2.3 5.4 2.3 11.9 2.5 17-.4s8.4-9.1 6.9-14.7c-.9-3.3-3.2-5.9-5.6-8.1-3.3-3-7.1-5.4-11.2-7.2-6.2-2.7-13.5-4-18-9-5.9-6.8-4-18.2 2.8-24.2 6.8-5.9 17-6.8 25.6-4 3.7 1.2 7.5 3.2 9.3 6.6 1.9 3.4 1.2 8.4-2.2 10.2-3.6-4.9-9.6-7.9-15.7-7.6-6 .2-11.9 3.6-15.1 8.7 4.4 8.6 16.5 8.7 24.9 13.4 6.3 3.5 10.6 10 13.4 16.8zM777.1 798c-12.2-3.6-19.3-17.1-19-29.8.1-6.5 1.6-12.7 4-18.7 2.6-6.8 6.3-13.2 12.2-17.5 6.6-4.8 15.6-6.2 23.3-3.6 7.8 2.7 14 9.2 16.3 17 1 3.4 1.2 6.9 1.3 10.3.2 11.1-2.2 22.5-8.8 31.2-6.9 8.8-18.6 14.1-29.3 11.1m3.9-58.8c-3.4 1.9-5.8 5.1-7.9 8.5-4.6 7.5-7.8 16.5-5.8 25.1 1.8 8.6 10.1 16.1 18.8 14.8 6-.9 10.9-5.6 14.2-10.6 5.3-8.1 8.2-18.6 4.5-27.6-3.6-9.2-15.3-15-23.8-10.2zM647.6 744.7c-2.7 1.9-5.3 4-7.1 6.8-2.9 4.5-2.7 10.2-2.5 15.6.4 9.7.7 19.6 1.1 29.3.1 2.7-4 3.6-5.9 1.9-2-1.7-2.4-4.6-2.6-7.3-1.3-17.3-1.4-34.7-.5-52.1.2-2.8.8-6.1 3.5-7 3.1-.9 5.6 2.7 8.7 3.5 5.5-3.8 11.8-6.6 18.4-6.9s13.6 2.3 17.6 7.6c6.5 8.6 3.5 20.7 2.7 31.4-.7 8.8.2 17.7 1 26.5.3 3.3-4.8 4.7-7.4 2.5-2.5-2.3-2.8-5.9-2.8-9.2-.1-7.8.3-15.7 1.2-23.4.5-4.6 1.1-9.2.3-13.7s-3.5-9-7.7-10.8c-5.9-2.5-12.7 1.4-18 5.3zM881.2 729.5c1.9 14 2.3 28.4.9 42.5-.4 4.4-1 8.9-2.7 13-3.6 8.9-12.5 15.5-22.1 16.4-9.6.9-19.6-4-24.7-12.2-4.5-7.1-5.3-15.7-5.6-24-.3-10.2.3-20.5 1.8-30.6.3-2.2.7-4.4 2-6 1.3-1.6 4-2.6 5.7-1.2 3.2 16.3-4.3 33.8 1 49.5.8 2.4 1.9 4.6 3.4 6.7 4.1 5.3 11.2 8 17.7 6.8 6.6-1.2 12.2-6.3 14-12.8.8-2.8.9-5.7 1-8.6.5-13.1.9-26.1 1.4-39.2 2.2-.3 4.2-.3 6.2-.3zM913.6 708c4 4-.3 12.2 3.9 15.9 2.6 2.3 7.6 1.8 8.6 5.1.6 2.2-1.1 4.3-3.1 5.4-1.9 1.1-4.2 1.6-5.9 3.2-3 2.6-3.1 7.1-3.1 11 .1 6.8.2 13.5.2 20.3.1 5 .2 10.3 2.9 14.6 2.7 4.3 8.7 7 12.9 4.1 3.3-2.2 5.2-7.2 9.1-6.8 4.2.4 4.6 6.6 2.6 10.2-3 5.2-8.6 8.8-14.6 9.2-5.9.4-12.1-2.4-15.7-7.2-3.1-4.1-4.3-9.2-5-14.2-1.3-8.7-1.4-17.5-.3-26.2.6-4.9 1.3-10.8-2.5-13.9-1.7-1.4-4-1.9-6-2.9s-3.9-3-3.6-5.1c.6-4 6.7-3.6 9.6-6.2 2.9-2.6 2.2-7.1 2.6-10.9.3-3.7 4.4-8 7.4-5.6zM348.2 697.5c-2.5-2.9-7.9.4-10.9-1.9-1.7-1.4-1.6-4.3-.3-6.1 1.3-1.8 3.5-2.8 5.6-3.5 4.7-1.6 9.6-2.4 14.6-2.4 1.8 4.2 1.3 9.1.8 13.7-2.9 25.3-3.6 50.8-2.4 76.2.2 4.8 1.4 10.8 6 12 3.4.9 3.7 6 1.3 8.5-2.4 2.6-6 3.1-9.5 3.6-3 .4-6.1.7-8.9-.3-2.8-1.1-5-4.3-4-7.2.5-1.5 1.7-2.6 2.8-3.8 4.7-5.5 4.5-13.5 4.2-20.7-.8-21.2-.4-42.4 1.3-63.5.3-1.5.4-3.4-.6-4.6zM462.4 710.8c3.1 2.5 8.5 3.1 8.7 7 .2 5.1-8.7 4.8-11.4 9.2-1.4 2.4-.5 5.3-.2 8.1.4 2.8-.4 6.2-3.1 6.9-3.4.8-5.5-3.8-5.3-7.3.2-3.5 1.1-7.5-1.2-10-2.3-2.3-5.8-1.8-9-1.7-3.2.1-7.2-1.2-7.5-4.3-.3-3.1 3.3-5 6.3-5.4 3.1-.4 6.6-.1 8.9-2 2.2-1.8 2.7-4.9 4.5-7.1 1.8-2.2 6.5-2 6.3.8.3 2.1 1.3 4.4 3 5.8zM549.7 420.7c.9-10.8 1.7-21.6 2.7-32.4.6-7.7 10-11.5 17.6-10.9 7.7.6 15.2 3.7 22.8 2.6 7-1 15.3-5.2 20.1 0 2.4 2.5 2.6 6.2 2.7 9.6.5 16.9 1.1 33.9 1.6 50.8.2 6.7.4 13.5-1.8 19.9-4.8 13.6-19.5 21-33.5 24.9-9.1 2.5-19.6 3.8-27.4-1.4-3-1.9-5.4-5-5.7-8.6-.6-7.1 7.2-12 14-13.6 6.9-1.6 14.8-2.4 19.6-7.7 1.3-1.5 2.4-3.5 2.3-5.5-.3-5.2-7-7.4-12.2-6.8-5 .5-10.5 2.6-15.3.5-7.6-3.2-8.1-13.3-7.5-21.4m23.2 47.9c-4.9 1.3-10.5 2.3-13.4 6.5 8.2 4.8 18.7 2.6 27.4-1.1 5.9-2.5 11.8-5.6 16.3-10.3 4.4-4.7 7.4-11.2 6.8-17.6-1.7-17.4-2.5-34.9-2.2-52.4.1-3.1-3.4-5.1-6.5-5.2-3.1 0-6 1.2-9.1 1.7-6.2.9-12.4-1.7-18.6-2.4-6.2-.5-13.9 2.7-14.2 8.9-.4 8.2-.8 16.5-1.2 24.7-.1 2.7-.2 5.5 1.2 7.8 2.2 3.5 6.9 4.2 11 3.7 4-.5 8.1-1.9 12.1-1.3 8.8 1.3 13.6 12.5 10.6 20.9-3.1 8.4-11.6 13.8-20.2 16.1zM472.2 435c-1.7-2.9-1.9-6.5-2.2-9.7-.3-7.8-.6-15.6-1-23.3-.2-4.1-.3-8.4 1.2-12.3 2.3-5.4 7.7-9.1 13.3-10.6s11.7-1.3 17.6-1.1c7.6.3 15.1.5 22.6.8 5.5.2 11.6.6 15.5 4.6-.3 19.8-.5 39.5-.8 59.2-.1 4.3-.1 8.6-1.1 12.8-2.4 9.9-9.8 18.2-18.8 23-9 4.9-19.4 6.8-29.5 7.3-7.2.3-16-1.1-18.3-7.9-1.9-5.5 1.9-11.6 6.9-14.6 4.9-3.1 10.9-4.2 16.2-6.5 5.4-2.3 10.6-6.3 11.6-12.1-4.8-3.5-11.3-3.1-17.3-3.2-6-.1-12.8-1.3-15.9-6.4m37-2c5.3 3 7.2 10.2 5.2 16.1-1.9 5.8-6.8 10.2-12.1 13.2-7.1 4-15.3 6-21.7 10.9 2.6 3.5 7.6 3.8 11.9 3.4 9.1-.9 18.3-3.8 25.5-9.5 7.3-5.7 12.3-14.5 12.2-23.8-.1-16.1-.2-32.3-.4-48.3 0-1.9-.2-4.2-1.7-5.3-.9-.6-2.2-.7-3.3-.8-9-.6-18.1-1.1-27.1-1.7-7.2-.4-16-.1-19.5 6.2-2.9 5.3-.2 11.7-.1 17.7.1 5.8-1.9 12.3 1.5 16.9 3.1 4.1 9.1 4.5 14.2 4 5.2-.6 10.9-1.6 15.4 1zM755.2 330.4c.6-2.7 1.4-5.5 3.5-7.3 2-1.7 5.9-1.5 6.9 1-1.5 5.5-3.1 11.2-4.6 16.7-.5 1.8-1 3.7-.6 5.5.4 1.8 2 3.6 3.9 3.4 2.6-.2 4.6-3.7 7-2.7 1.3.6 1.6 2.3 1.6 3.7-.2 4.1-3.1 7.9-6.9 9.3-3.9 1.3-8.5.2-11.2-2.9-4.4-5-3.1-12.6-1.5-19 .7-2.6 1.3-5.1 1.9-7.7zM764.4 289.5c-2.6 2.2-1.6 7 1.5 8.1 3.2 1.1 6.9-2 6.2-5.3-.5-3.3-5.1-4.9-7.7-2.8zM722 330.7c-8.5 7-16 15.3-21.9 24.5-1.3 2-4.8 1.1-5.9-1-1.1-2.2-.6-4.7-.1-7.1 1.6-7.4 3.4-14.7 5-22.1-2.7-2.2-6.7-1.1-9.8.2s-6.7 2.9-9.9 1.6c-3.2-1.2-4.1-7-.7-7.7 9.6-2 20-5.1 25.6-13.2 3.8-5.4 4.7-12.3 6.1-18.7 1.5-6.5 4.1-13.2 9.7-16.7 1.9-1.1 4.4-1.8 6.3-.8 2.4 1.2 3 4.3 3.1 6.9.4 8.6-1.9 17.3-6.7 24.5-5 7.6-12.4 13.4-17.6 20.9-1.5 2.3-2.9 5.6-.9 7.7 2.6 2.7 6.8-.3 9.3-3 2.5-2.5 5.2-4.7 8.6-5.6 3.4-.9 7.4-.1 9.4 2.7 3 3.9 1 9.4-.2 14.1-1.2 4.7-.6 11.3 4.1 12.5 1.2.3 2.6.2 3.7.6 2.3.9 2.9 4 1.9 6.2-1.6 4.1-7.4 5.5-11.4 3.6s-6.3-6.5-6.9-11c-.5-4.4.4-8.9 1.3-13.3.3-1.2.5-2.5.8-3.7-.7-.7-1.8-1.4-2.9-2.1m-2.4-47.9c-1.8 1.4-3.8 3.2-4.2 5.4-.5 2.3 1.5 5.1 3.8 4.5 1-.3 1.8-1.2 2.5-2.2 1.3-1.7 2.8-3.9 2.5-6-.3-2.3-3.5-3.8-4.8-2l.2.3zM226.4 521.2c2.4-1.6 5.5-1.6 8.4-1.5 12.4.2 24.7.3 37.1.5 8.4.1 16.8.2 25.2-.6 6.2-.6 14-1.1 17.2 4.2 1.9 3.2 1.2 7.3.1 10.8-5.8 17.7-23.9 30.3-42.5 30.8s-36.9-10.5-46.1-26.7c-3.2-5.8-4.8-14.1.6-17.5m14.9 22.9c9.7 6.9 21.7 11.4 33.6 10.4 12-.9 23.7-7.9 28.5-18.9.3-.7.6-1.4.5-2.2-.1-3-4.1-3.9-7.2-3.8-19 .2-38.1 0-57.1-.5-3.4-.1-5.6 4.1-4.8 7.4.8 3.3 3.7 5.7 6.5 7.6zM308.9 485.4c1.1.1 2.2.4 3.2 1 3.8 2.4 4.1 8.6.5 11.4-3.6 2.7-9.5.7-10.8-3.5-1.3-4.4 2.6-9.3 7.1-8.9zM383.8 213.9c1.6 1.9 1.6 4.7 1.5 7.3-.5 12.9-.9 25.8-1.4 38.7-.2 4.6-1.3 10.5-5.9 11.4-2.7.5-5.3-1.1-7.6-2.8-6.8-4.9-13.2-10.1-19.5-15.8-3.1-2.8-8.4.3-9.5 4.3-1.1 4 .2 8.2.6 12.4.4 4.2-.5 9.1-4.4 10.9-1.7.7-3.7.7-5.5.6-18.6-.8-37.3-1.7-55.9-2.6-2.9-.1-5.8-.3-8.2-1.8-4.6-3-5.2-9.3-5.2-14.8-.1-11.5-.2-23-.4-34.5 0-4.6.1-9.7 3.3-13.2 3.5-3.7 9.2-3.9 14.3-3.8 18.5.3 37.1.5 55.6.8 1.5 0 3.2.1 4.5.8 2.7 1.5 3.2 5 2.8 8-.4 3-1.3 6-.5 8.9.8 2.9 4.4 5.2 6.9 3.5 7.1-5.3 14-10.6 21.1-16 3.9-3.2 10-6.1 13.4-2.3M334 230.2c.1-3-.1-6.3-2.6-8.1-1.4-1-3.3-1-5-1.1-15.2-.4-30.3-.9-45.6-1.3-3.3-.1-7.2.1-9.1 2.8-1.2 1.6-1.2 3.9-1.2 5.9-.1 7.9-.1 15.8-.2 23.7 0 3.4 0 7 1.2 10.1s4.1 5.9 7.5 6.1c14.7.7 29.5 1.4 44.2 2 3.3.1 7.2 0 8.9-2.8.9-1.4 1-3.3 1-5 .5-10.6.7-21.5.9-32.3m38.4 26.5c1.6-.1 2.2-2.2 2.3-3.8.5-7.2.9-14.3 1.4-21.5.1-1.2.1-2.6-.6-3.6-1.6-2.2-5-.6-7.2 1-4.2 3.3-8.5 6.6-12.7 9.8-.8.6-1.6 1.3-1.6 2.4s.8 1.8 1.6 2.5c4.9 4.1 9.8 8.1 14.7 12.2.6.5 1.3 1 2.1 1zM226.7 486.2c1.4-.6 3.3-1 4.6-.2 1.3.8 1.7 2.6 1.7 4.1-.1 3.2-2.3 6.2-5.3 7-3.1.7-6.7-1.7-6.6-4.8.2-2.9 3-4.9 5.6-6.1zM793 575.7c6.6 8.8 2.9 22.8-6.5 28.7-3.8 2.4-8.6 3.5-12.7 1.7-5.9-2.7-10.6-8-12.3-14.2s.1-13.4 4.7-17.9c7.1-7.3 20.6-6.3 26.8 1.7m-23.7 8c-.8 1.2-1.6 2.7-1.3 4 .2.9.8 1.7 1.4 2.5 1.8 2.2 3.9 4.3 6.6 5.3 4.8 1.7 10.8-1.6 11.8-6.6s-3.1-10.4-8.2-10.8c-4-.2-7.9 2.4-10.3 5.6zM803.6 619.3c-2.6 2.3-5.5 3.9-8.7 5-9.8 3.8-21.2 3.8-30.8-.5-9.6-4.3-17.4-12.9-20.1-23-2.4-8.6-1-17.9 1.9-26.3 1-3 2.3-5.7 3.9-8.4 6.9-11 20.6-16.9 33.4-14.8 12.8 2 24 11.3 28.8 23.2 4.9 12 3.7 26-2.6 37.4-1.5 2.6-3.3 5.2-5.8 7.4m-6.9-52.9c-11.3-8.7-29.2-7-38.7 3.7s-9 28.7.9 38.8c9.9 10.1 28 11.1 38.8 1.8 4.3-3.6 7.5-8.6 8.4-14.1.5-3.3.3-6.7 0-9.9-.4-4.5-1-9-3.1-13-1.4-2.9-3.7-5.3-6.3-7.3z"/></svg>