<svg xmlns="http://www.w3.org/2000/svg" viewBox="-213 0 1374 1000" enable-background="new -213 0 1374 1000"><g fill="#2BC22B"><path d="M297.9 291.7c2.4 3.3 4.8 6.5 7.2 9.8 1.9 2.6 4 5.3 6.9 6.7 2.9 1.4 7 .9 8.7-1.9 2.9-5 6-10.2 10.4-13.9 4.5-3.7 10.8-5.9 16.3-3.9 5.7 2.1 9.1 7.7 13.5 11.9s12.3 6.4 16 1.6c.8-1.1 2.8-.7 3.6.4.8 1.1.7 2.7.3 4-2 6.9-10.7 10.2-17.6 8.2s-12.1-7.8-15.8-14c-1.9-3.2-7-2.5-9.7 0-2.7 2.6-3.9 6.3-6 9.4-3.6 5.5-10.1 9-16.6 9-6.6.1-13.1-3.3-16.8-8.7-2-2.9-3.2-6.4-5.5-9.1-2.3-2.7-6.2-4.6-9.4-3-2.2 1.1-3.3 3.4-5 5.2-1.6 1.8-4.6 2.9-6.4 1.2-.6-.8-1.2-1.6-1.9-2.4 2.2-5.6 5.9-11 11.4-13.6 5.4-2.7 12.8-1.8 16.4 3.1zM512.8 48.2c-2.9 3-4.1 7.3-7.1 10.2s-9.3 3-10.2-1.1c-.4-2 .7-4 1.8-5.7C506.5 37.4 516 23.5 526 9.9c2.1-2.8 5.1-6 8.4-5 2.5.7 3.8 3.5 4.5 6 5.3 17.6 1.8 37.3 9.4 54 1.6 3.5-3.2 7.1-6.8 5.9-3.6-1.2-5.5-5.2-6.3-8.9-.8-3.7-1-7.7-2.8-11-3.5-6.8-14.2-8.3-19.6-2.7m12.8-7.3c.9.6 2.1 1 3.1.6.5-.3.9-.7 1.3-1.2 3-4.4 2.1-11-2.1-14.4-6.1 1.7-7.7 11.5-2.3 15zM260.8 157.9c1.7 1.5 3.6 3.5 3.1 5.7-.5 2.7-3.8 3.6-6.5 4-7.8 1.3-15.5 3.1-23.1 5.4-3.1.9-6.3 2.1-8.2 4.7-1.9 2.6-1.3 7.1 1.7 8.1 6.4 2.1 11.6 7.3 13.7 13.7-6.5 2.4-13.5-1.6-19.3-5.5l-20.4-13.5c-1.5-1-3-2-3.7-3.7s-.1-3.9 1.7-4.3c11.1-2.6 22.1-5.2 33.2-7.8 2.6-.6 5.4-1.3 7.3-3.3 1.8-2 2.1-5.7-.2-7.1-5.7-3.5-10.8-7.8-15.1-12.8-1-1.2-2.1-2.5-2-4.1 0-2.5 2.8-4.1 5.2-3.9s4.6 1.7 6.5 3.2c9 6.7 17.7 13.8 26.1 21.2zM282.9 79.2c.1-5.8 2.4-11.3 5.2-16.3 2-3.5 4.2-6.9 7.3-9.5 6.7-5.6 16.9-6.2 24.6-2.2 7.7 4 12.9 12.3 13.8 21 1.5 13.9-8.7 28.5-22.6 30.7-13.8 2.2-28.5-9.6-28.3-23.7m17.9-17.1c-4.5 5.2-7.7 12-6.8 18.9.9 6.8 6.7 13.2 13.6 13.1 6.1-.1 11.2-5 13.4-10.7 3.2-8.3.7-18.8-6.4-24.1-1.4-1-2.9-1.9-4.6-2.1-3.7-.3-6.9 2.2-9.2 4.9zM734.9 291.6c-8.5 6-18.7 9.5-29.1 9.9-2.6.1-3.7-3.8-2.1-5.9 1.6-2.1 4.4-2.7 6.9-3.1 10.1-1.8 20.1-3.6 30.2-5.4 3.5-.6 7.8-1 10 1.7 3.2 3.9-.5 9.5-4.2 13-6.7 6.3-13.6 12.4-20.8 18.2-1.9 1.5-1.3 4.8.5 6.4s4.4 2 6.8 2.4c8.4 1.3 16.8 2.5 25.1 3.8 2.8.4 3 5 .7 6.7s-5.5 1.4-8.3 1.1c-12.2-1.6-24.5-3.2-36.7-4.8-2.5-.3-5.1-.7-7.1-2.2s-2.9-4.6-1.4-6.6c7.2-8.8 14.8-18 25.2-22.5 2.3-1 4.7-1.8 6.7-3.3s3.5-4 3.1-6.4c-.3-2.6-3.5-4.4-5.5-3zM403.2 231.2c-8.9 2.6-19.4-3.8-21.2-12.9-.4-2.2-.4-4.6-1.6-6.5s-4.2-2.9-5.7-1.1c-5 6.2-13.7 11.7-20.6 7.7-4.6-2.7-6.2-8.6-6.4-13.9-.3-5.3.4-10.8-1.4-15.8-1.8-5-7.3-9.3-12.3-7.4-1.4.5-2.7 1.5-4.2 1.4-2-.2-3.2-2.6-2.8-4.5.4-2 2.1-3.5 3.8-4.4 7.2-4 16.8-.6 21.8 6 4.9 6.6 6 15.3 5.1 23.5-.3 3.2 3.8 5.4 6.9 4.5 3.1-.9 5.4-3.5 7.6-5.9 2.2-2.4 4.9-4.8 8.1-4.9 4.3-.1 7.6 4 9 8.1s1.7 8.6 3.8 12.3c2.1 3.8 7.2 6.5 10.8 4 2.4-1.6 5.7 1.5 5.3 4.3s-3.2 4.7-6 5.5zM567.6 172.9c-3.4 2-7.4 2.3-11.2 3.2s-7.8 2.9-9.1 6.5c-1.8 5 2 10.2 2.5 15.5.6 6.9-4.6 13.1-10.6 16.6-4.7 2.8-10.1 4.5-15.6 5-4.1.4-9.7-1.8-8.6-5.8.9-3.7 6.1-3.4 9.9-3.6 5.3-.4 10.3-3.9 12.5-8.7s1.6-10.9-1.6-15.1c-3.2-4.4.3-10.8 5.1-13.4 4.8-2.6 10.5-3 15.3-5.5s8.8-8.5 6-13.2c-1.8-3-1.3-6.9.6-9.9 1.9-2.9 4.9-5 8-6.5 2.5-1.3 5.4-2.3 8.2-1.8 2.8.5 5.4 3 5.1 5.8-3 1.6-6.1 3.3-8.3 5.9-2.2 2.6-3.5 6.3-2.4 9.5 1.8 5.7-.7 12.5-5.8 15.5zM188.1 276.8c-1.1 3.2 2.1 6.4 5.3 7.2 3.3.8 6.8.3 10 1.3s6.2 4.5 4.6 7.5c-14.1 2-28.1-7.2-42-4.3-2.1.4-3.8-2.2-3.3-4.3s2.3-3.6 4-5c7.9-6.3 15.9-12.6 23.8-19 1.8-1.5 1.6-4.5.2-6.3-1.4-1.9-3.7-2.8-5.9-3.7-4.2-1.7-8.4-3.5-12.5-5.2-1.3-2 .3-4.8 2.6-5.5 2.2-.8 4.7-.1 6.9.6 9.9 2.9 19.8 5.8 29.6 8.6 1.8.5 3.8 1.2 4.7 2.8 2.1 3.6-2.7 7.2-6.5 9-7.2 3.4-13.8 8-19.5 13.6-.8.8-1.6 1.6-2 2.7zM469.9 169.6c-1.7 6.8-9.6 11.9-8.3 18.7.8 3.8 4.2 6.4 6.4 9.6 2.2 3.2 2.1 8.9-1.7 9.8-2.5.6-4.8-1.4-6.6-3.3-3.9-4.1-7.7-8.6-9.3-14-1.6-5.4-.3-12.1 4.3-15.3 4.2-2.9 4.6-9.2 2.4-13.8s-6.3-7.9-10.1-11.3c-3.8-3.4-7.6-7.2-8.8-12.2-1.2-5.1.6-10.6 4-14.6s8.2-6.6 13.1-8.2c2-.6 4.1-1.1 6-.3 1.9.8 3.2 3.3 1.9 5-.6.8-1.5 1.1-2.4 1.5-3.9 1.5-7.9 3.1-10.6 6.3-2.6 3.2-3.1 8.6.1 11.2 5.5 4.4 10.3 9.5 14.4 15.2 3.6 4.6 6.6 10.2 5.2 15.7zM417.8 35.1l3.6-24c.4-2.8 1.2-6 3.7-7.1 2.7-1.1 5.9 1.1 6.9 3.9s.4 5.9-.2 8.8c-2.7 13.1-5.3 26.1-8 39.2-.7 3.5-2.7 7.9-6.2 7.4-1.2-.2-2.2-1-3.1-1.8-13.8-11.4-25.3-25.5-33.8-41.2.9-2.9 4.9-4 7.8-2.9s4.9 3.6 6.8 6.1l14.4 18.3c1.4 1.8 4.4 1.3 5.9-.4 1.5-1.7 1.9-4 2.2-6.3zM740.6 231.2c-10 9.7-28.1 8.9-37.2-1.6-2.9-3.4-5-7.7-4.6-12.2.2-2.9 1.5-5.6 3.1-8 4.4-6.4 11.8-10.5 19.5-10.9s15.5 2.8 20.7 8.5c2.1 2.3 3.7 5 4.4 8 1.2 5.9-1.6 12-5.9 16.2m-27.6-17c-1.3 1.7-2.3 3.8-2 5.9.3 2.3 2 4.3 3.9 5.6 6.3 4.1 15.8 1.9 19.6-4.6 2.9-5-1-11.9-6.6-13.3-5.6-1.4-11.6 1.8-14.9 6.4zM579.8 230.2c1.4-6.3 6.9-11.4 13.3-12.4 3.5-.5 7.2.1 10.7-.7 6.3-1.6 10.2-7.8 15.4-11.8 2.7-2.1 6.4-3.6 9.6-2.3 3.2 1.4 4.1 6.7 1 8.1-7.8 3.4-12.2 13-20.5 14.9-5.1 1.1-11.2-.8-15.3 2.4-4.5 3.5-3.4 10.5-5.1 15.9-3 9.7-14.4 13.5-24.3 15.8-2.2.5-4.6 1-6.5-.1-1.9-1.1-2.3-4.6-.2-5.3 8.6-3 18.3-7.2 20.6-16 .8-2.7.7-5.7 1.3-8.5zM627.7 302.2c7 4.7 17.4 3.4 23-3 3.3 1.1 2.3 6.2-.1 8.8-5 5.4-13.4 7.3-20.3 4.7-2.1-.8-4-1.9-6.2-2.3-7.6-1.1-12.8 7.5-20.1 9.9-8.1 2.6-16.3-3-22.9-8.3-2.2-1.7-5.5-.7-7.7 1s-3.9 4.1-6.5 5.2c-2.5 1.2-6.3.5-6.9-2.2-.4-1.7.6-3.4 1.7-4.8 3.5-4.6 8.1-8.6 13.7-9.9 5.6-1.3 12.2.6 15.2 5.5 2.4 3.9 8 4.4 12.2 2.9 4.3-1.5 7.8-4.6 11.8-6.8 4.2-2.1 9.3-3.2 13.1-.7zM644.8 71.2c-2.1.4-3.7 2.1-5.1 3.7-5 5.5-9.8 11.3-14.2 17.2-1.7 2.4-3.6 4.8-6.2 6.2-2.6 1.3-6.4 1-7.9-1.6-1.8-3.1.6-6.9 2.9-9.7 3-3.6 6-7.2 9.1-10.8 3.4-4 7-9.4 4.6-14.1-1.4-2.8-4.4-4.2-6.9-6.1-2.4-1.9-4.5-5.3-2.9-8 1.2-2.2 4.3-2.6 6.6-1.8 2.3.9 4.2 2.7 6 4.4 6.1 5.7 13.3 10.2 21.1 13.3 2.4.9 4.9 1.8 6.6 3.7 1.7 1.9 2.2 5.2.3 6.9-4.7 1.4-9.2-4.3-14-3.3zM670.6 151c-1.9-1.4 0-4.3 1.8-5.8 7.6-6 15.7-11.4 24.2-15.9 3.8-2 9.6-3.3 11.4.6 1.6 3.6-2.4 7.1-5.8 9l-18 10.2c-4.2 2.4-9.6 4.7-13.6 1.9zM192.3 335.7c2.4.4 4.9.9 6.8 2.4 1.9 1.5 3 4.3 1.8 6.4-14.2-2.1-28.4-4.1-42.6-6.2-2.5-.4-5.6-1.2-6.1-3.7-.4-2 1.3-4 3.2-4.6 2-.6 4.1-.3 6.1.1 10.3 1.9 20.6 3.8 30.8 5.6zM478 318.2c-10.2 3-23.1 1.3-28.4-7.9-3.9-6.8-2.3-15.7 2-22.3 4.2-6.6 10.7-11.4 17-16.1 1.3-.9 3-1 4.5-1 7.9.1 16.5 1.3 22.2 6.9 6.3 6.2 7.1 16.7 3.1 24.6-4 7.9-11.9 13.3-20.4 15.8M465.5 285c-3.5 3.4-6.4 7.6-7 12.4s1.7 10.2 6.2 12c3.7 1.6 8.1.4 11.7-1.4 5.6-2.9 10.6-7.9 11.7-14.2 1.1-6.3-2.8-13.5-9-14.5-5.1-.9-10 2.1-13.6 5.7zM116.9 969.3c12.3-14.7 31.3-21.9 49.6-27.9 59.2-19.2 120.6-31.5 182.6-36.6 11.5-.9 20.1-12.1 22-23.5s-1.2-23-4.3-34.1c61.7-10.7 124.8-13.8 187.2-9 2.6-4.6-.6-10.7-5.3-13-4.7-2.4-10.2-2.1-15.4-1.8-53.1 3.4-106.2 6.7-159.2 10.1 6.5-38.8 13.1-77.6 19.6-116.5 1.8-10.9 3.6-22.7-1.5-32.6 14.5-37 21.5-76.9 20.5-116.6 5-16.2 8.1-32.8 11.2-49.5 6.2-33.4 12.4-66.7 18.6-100.1 1.5-8.2 1.4-19.3-6.6-21.8 21.7-10.6 25.4-45.5 6.5-60.5-24.2-19.1-17.6-61.1 6.7-79.9 14.1-10.9 33.4-15.9 50.4-10.6s30.7 21.7 30.5 39.5c-.2 15.2-9.7 28.8-12.2 43.8-1.6 9.5-.5 19.3.7 28.9 21.8 179 37.2 358.9 46.2 539-10-3.7-10.3-17.5-9.5-28.2s-2.4-25-13.1-25.5c-11.6-.6-15.3 15.4-15 27 .4 14.3 4.3 32.7 18.5 34.6 94.1 12.5 186.4 38.1 273.6 75.6 6.8 2.9 14.9 10 10.7 16.1-220.3-106.1-485.1-116.1-713-26.9m401.3-118.4c-.3-3.4-1.7-7.9-5.1-7.8-22 1.1-44.1 2.1-66.1 3.2-3.8.2-7.9.5-10.8 3-3.5 3.1-3.8 8.5-3.8 13.2 0 7.9 0 15.8.1 23.7 0 2.7 0 5.4 1.1 7.9 1 2.5 3.4 4.6 6 4.6 24.9-.3 49.8.6 74.6 2.5 2.9.2 5.4-2.1 6.4-4.8s.8-5.7.5-8.5c-.9-12.4-1.9-24.7-2.9-37m-24.6-171.3c-12.9.7-25.9 1.4-38.8 2.1-2.6.1-5.5.4-7.4 2.1-2.2 2-2.6 5.2-2.9 8.2-1.3 14.2-2.7 28.5-4 42.7-.1 1.1-.2 2.3 0 3.4 1.1 5.4 8.5 6.1 14 5.7 17.4-1.4 34.9-1.4 52.3 0 2.4.2 4.6-1.8 5.5-4 .9-2.3.7-4.8.6-7.2-.7-11.7-1.4-23.4-2-35.2-.4-6.1-1.3-13.1-6.5-16.2-3.3-1.9-7.2-1.8-10.8-1.6m-42.4-34.4c16 0 32.1.1 48.1.1 2.2 0 4.7-.1 6.1-1.8 1.2-1.5 1.1-3.5 1-5.4-1.3-20-2.6-40.1-3.9-60.1-.4-5.5-2.4-12.7-7.9-12.7-7.7 0-15.4 0-23.1-.1-4.8 0-10.3.2-13.5 3.8-2.4 2.7-2.9 6.5-3.2 10-2.2 20.8-4.4 41.7-6.5 62.5-.1 1.1-.2 2.3.6 3 .6.7 1.5.7 2.3.7m65.9 158.4c-.6-8-1.2-16-1.9-23.9-.3-3.3-3.1-6-6.2-7.1s-6.6-.9-9.9-.8c-15 .8-29.9 1.6-44.9 2.3-3.7.2-7.5.4-10.9 1.9s-6.4 4.6-6.6 8.3c-.6 8-1.1 16-1.7 24-.2 3.5-.1 7.7 3 9.4 1.4.7 3 .7 4.6.6 22.2-.8 44.3-1.6 66.5-2.4 1.4-.1 2.9-.1 4.2-.7 3.9-1.8 4.1-7.2 3.8-11.6m-17.3-476.5c5.6-4.6 9-11.2 12-17.7 4.2-9.2 7.8-19.3 6.3-29.4-2.5-16.2-19-28.2-35.4-27.9s-31.5 11.3-39.3 25.7c-4.7 8.5-7.1 18.4-6 28.1s6.1 19 14 24.6c6.1 4.3 13.5 6.2 20.7 8.1 1.3.3 2.6.7 4 .6 1.5-.1 2.9-.8 4.3-1.5 3.1-1.5 6.2-3.1 9.3-4.6 3.5-1.8 7-3.5 10.1-6m30.5 487.6c1.6 1.2 3.7 1.6 5.6 1.9 2.8.5 5.7 1.1 8.5.3 2.8-.7 5.3-3.1 5.3-5.9 0-13.2 0-26.5-.1-39.7 0-4.1-.1-8.4-2.4-11.8-3.6-5.4-11.1-6.2-17.6-6.4-3.4-.1-6.9-.3-10.3-.4-4.1-.1-8.2-.3-12.3-.4-19-.6-38-.5-56.9.3-3 .1-6.1.3-8.7 1.8s-4.5 4.7-3.4 7.5c1.4 3.8 6.5 4.2 10.5 3.9 17.7-1 35.3-2 53-3 3.2-.2 6.9-.2 9.3 1.9 1.6 1.4 3.9-.4 5.3-2.1 1.4-1.6 4.2-3.1 5.3-1.2 1.4 2.3 4.4 3.1 7.1 3.1s5.4-.7 8.1-.5 5.6 1.8 6.2 4.4c.6 2.6-2.6 5.6-4.8 4-3.6-2.5-8.9-.1-11 3.7-2.1 3.8-1.9 8.4-1.6 12.8l.9 14.7c.2 4.1.7 8.7 4 11.1M496 476.4c-2.1-3.8-7.3-4.5-11.7-4.4-5.7 0-12.2.8-15.8 5.2-2.4 3-3 7-3.4 10.8-1.4 11.1-2.8 22.3-4.2 33.4-.3 2.5-.6 5.1.3 7.5s3.4 4.3 5.8 3.7c8.8-2.2 18.1-2.2 26.8 0 2.1.5 4.3-1.1 5.2-3.1.9-2 .7-4.3.6-6.5-.8-13.7-1.7-27.4-2.5-41.1 0-1.9-.2-3.9-1.1-5.5m-80.4 373.8c-6.2.3-12.4.7-18.5 1-3.7.2-7.6.5-10.6 2.7-3.5 2.7-4.7 7.4-5.5 11.8-1.5 8.1-2.7 16.2-3.6 24.3-.2 2.3-.4 4.8.8 6.8 2.1 3.5 7 3.7 11 3.5 8.1-.4 16.2-.9 24.2-1.3 1.5-.1 3.1-.2 4.4-.9 2.8-1.6 3.2-5.4 3.3-8.6l.9-32.8c.1-1.9 0-4.1-1.4-5.4-1.2-1.3-3.2-1.2-5-1.1m-9.2-102.9c4.1-.6 8.3-1.2 12.4-1.8 2.8-.4 5.7-.9 7.7-2.8 2.4-2.3 2.9-5.8 3.2-9.1 1.5-14.5 3-28.9 4.5-43.4.1-1.1.2-2.3-.1-3.4-1.1-3.7-6-4.1-9.9-3.9-5.2.3-11 .9-14.6 4.7-2.8 2.9-3.6 7.1-4.3 11.1-2.7 14.7-5.3 29.3-8 44-.4 1.9 1.3 3.8 3.1 4.5 2 .7 4.1.4 6 .1M437 641.9c1.7-2.9 1.9-6.4 2-9.8.7-17.3 1.4-34.7 6-51.4.7-2.5 1.5-5.2.9-7.7-1.1-4.5-6.4-7-10.9-5.9-4.5 1-7.9 4.8-9.7 9-1.9 4.2-2.4 8.8-2.9 13.4-2.4 19.1-5.6 38.1-9.8 56.9 4.3 1.1 8.8 2.2 13.2 1.8 4.4-.4 9-2.4 11.2-6.3m84-76.7c-3.5.5-6.2 3.6-7.3 7s-.8 7-.6 10.6c1.2 18 2.5 36 3.7 54 .1 1.8.3 3.7 1.2 5.3 1.5 2.6 4.7 3.6 7.6 4.4 2.6.7 5.3 1.4 7.9.9 2.6-.6 5-2.9 4.8-5.5-1.9-20-3.7-40-5.6-60-.4-3.8-.7-7.7-2.6-11.1-1.7-3.5-5.3-6.1-9.1-5.6m-98 212.4c-.9-.4-2-.3-3.1-.2-5.5.6-11 1.2-16.5 1.7-2.2.2-4.5.5-6.4 1.6-3.7 2.2-4.8 7-5.6 11.3-1.5 8.8-3.1 17.6-4.6 26.4-.1.7-.3 1.5-.1 2.2.6 2.5 4 2.9 6.6 2.6 6.9-.7 13.8-1.3 20.6-2 2.6-.2 5.4-.6 7.4-2.3 2.5-2.2 2.8-6 3-9.4.3-8.5.7-17 1-25.5.2-2.4-.1-5.4-2.3-6.4m101.7-36.2c3.2 4.7 10 4.8 15.6 4.3 1.8-.2 3.7-.4 4.9-1.7 1.5-1.5 1.4-3.9 1.2-6-.7-7.1-1.4-14.1-2-21.2-.5-5-1-10-1.4-15-.6-5.8-1.3-12-4.9-16.6-3.6-4.6-11.2-6.5-15.3-2.3-2.9 3.1-2.9 7.9-2.6 12.1.8 12.8 1.7 25.6 2.5 38.4.2 2.7.4 5.7 2 8m-17.9-72.6c3.8-3.5 1.8-10.3-2.5-13.1s-9.8-2.7-14.9-2.6c-7.8.3-15.6.5-23.4.8-4.8.2-9.8.3-14.1 2.5-4.3 2.1-7.8 6.7-7.1 11.4.3 1.7 1.1 3.4 2.7 4.2 1.2.6 2.7.6 4.1.6l46.8-1.5c2.9-.1 6.2-.3 8.4-2.3m-.1-244.7c-.1 3.1-.3 6.3.6 9.2.9 3 3.2 5.8 6.2 6.3 3.1.5 6.5-2.2 5.9-5.3-2.3-11.9-4.6-23.9-6.9-35.8-.3-1.7-.6-3.5.2-5 1.4-2.5 1.1-5.5.7-8.4-2.3-15.8-4.5-31.6-6.8-47.4-.3-2.1-1-4.7-3.1-5.1-3-.6-4.4 3.7-4.3 6.8.3 12.8 1.6 25.6 3.9 38.2 1 5.5 1.2 12.8-4 14.8-2.2.9-3 4.2-1.3 5.9 1.6 1.7 5 1.2 6-1 2.1 8.8 3.1 17.8 2.9 26.8m-71.8 111.6c6.5-1 14.5-3.4 15.3-9.9 1.2-9.6 2.5-19.2 3.7-28.8.7-5.6 1.5-11.5 4.7-16.2 2-3-2-6.7-5.5-6.7-4.9 0-9.2 3.6-11.5 7.9s-3.1 9.3-3.9 14.1c-2.1 12.3-5 24.4-8.7 36.3-.9 2.7 3.2 3.7 5.9 3.3m89.4-4.1c2.8-2.3 2.8-6.6 2.5-10.2-.6-8.3-1.2-16.7-1.7-25-.6-8.8-1.8-18.8-8.9-24.1-2.8.1-5.1 2.5-6 5.1-1 2.6-.9 5.5-.8 8.3.3 10.2.7 20.5 1 30.7.1 4.3.4 8.9 2.8 12.5 2.3 3.6 7.8 5.5 11.1 2.7M493 402.9c-.5-4.3-6.9-5.5-10.3-2.8s-4.5 7.3-5.4 11.5c-1.2 5.9-2.4 11.7-3.6 17.6-.3 1.6-.6 3.2-.2 4.8 1.1 3.6 5.6 4.8 9.3 5.3 4.2.6 9.4.8 11.9-2.7 1.6-2.3 1.4-5.4 1.1-8.2-.8-8.5-1.8-17-2.8-25.5m-29.2 151.7c10.4.9 20.8 1.2 31.3 1.1 4.4 0 6.8-6.2 4.5-10-2.2-3.8-7.1-5.3-11.5-5.3-4.4.1-8.7 1.3-13.1 1.5-4.3.2-8.9-.5-12.7 1.4-3.9 1.9-5.6 8.3-1.9 10.4 1 .7 2.3.8 3.4.9M478 348.5c-1.7-2.6-6-2.3-8.2-.1-2.2 2.2-3 5.4-3.6 8.5-2 9.3-3.9 18.6-5.9 27.9-.5 2.1-.8 4.7.7 6.3 2.7 2.9 7.4-.5 9-4.1 4-9.1 1.6-20.1 6-29 1.5-3.1 3.8-6.7 2-9.5m-47.3 409c-.6-2.7-3.6-4.2-6.4-4.2s-5.4 1.1-8.1 1.7c-3.9.8-7.9.6-11.8 1.5-3.9.8-7.9 3.1-9 7-1.1 3.8 2.5 8.6 6.3 7.4 9.5-3 21.9-.5 27.6-8.6 1.1-1.4 1.8-3.1 1.4-4.8M490.4 342c-4.3 1.6-5.5 7.1-6.1 11.6-1.1 9-2.2 18-3.3 27.1-.4 3.3-.5 7.3 2.2 9.3 3.2 2.3 7.9-.3 9.3-4 1.4-3.6.6-7.7 0-11.6-1.1-7.9-1.1-16.1.1-24 .6-3.1.7-7.3-2.2-8.4m-24.7 59.4c-2-1.1-4.8-.2-6.3 1.6-1.6 1.7-2.3 4.1-2.9 6.3-1.6 5.6-3.2 11.2-4.9 16.9-1.3 4.5-1.7 10.8 2.7 12.4 2.5.9 5.3-.6 6.9-2.7s2.1-4.8 2.7-7.4c1.3-6 2.5-12.1 3.8-18.1.6-3.3.9-7.4-2-9m-53.6 272.7c.9.5 2 .7 3.1.8 4.7.6 9.7.8 14-1.3 4.3-2 7.5-7 6.2-11.5-1.2-4.1-5.9-6.6-10.2-6.3-4.3.3-8.2 2.8-11.3 5.7-1.8 1.7-3.5 3.7-4 6.1s.1 5.3 2.2 6.5m70.8-226.6c-4.8.2-10.1 1.8-12.3 6.1-2.2 4.2 1.5 10.9 6.1 9.6 6.5-1.9 15.3 2.5 19.1-3.1 2.1-3.1.7-7.6-2.2-9.9-3-2.3-7-2.8-10.7-2.7m49 225.5c1.2.3 2.4.6 3.6.4 3.5-.6 4.7-5.3 3.9-8.8-1.5-6-7.3-11.2-13.5-10.4s-10.4 9.1-6.5 13.9c2.8 3.7 8 3.9 12.5 4.9m-88.3-129.1c-6.1-2.8-14.3 1.5-15.5 8.1-.2 1.1-.2 2.2.2 3.2.9 2.1 3.6 2.9 5.9 3.1 3.6.3 7.5 0 10.4-2.2s4.3-6.6 2.3-9.6c-.8-1.2-2-2-3.3-2.6m13.4-80.8c2-2 3.7-4.4 4.2-7.1.4-2.8-.7-5.9-3.2-7.2-3.5-1.7-7.6.7-10.2 3.7-3.4 4.1-4.6 11.6.4 13.6 3 1.2 6.4-.7 8.8-3m72.4 84.8c-2.2-4.4-7.5-7.3-12.1-5.6-4.6 1.6-6.7 8.5-3.1 11.8 1.6 1.5 3.7 2 5.8 2.5 3.1.7 6.7 1.3 9-.9 1.9-2 1.7-5.3.4-7.8m-20.3-97.1c-2.9 2.5-3.2 7.5-.7 10.4s7.5 3.2 10.4.7c.7-.6 1.2-1.3 1.7-2.1 1.1-2.1 1.1-4.9-.1-7-1.2-2.3-3.7-3.8-6.3-3.8-1.8-.1-3.6.6-5 1.8"/></g></svg>