<svg xmlns="http://www.w3.org/2000/svg" viewBox="-449 451 100 100" enable-background="new -449 451 100 100"><path fill="#C22C7F" d="M-389.6 538.4c2.3-6.5 6.1-9.3 9.7-9.6 3.6-.3 17.1 2 15.8-4.5-.7-3.4-1-3.7-.2-5.5.2-.5.4-.9 1.2-1.6.5-.4 1.5-1.7.6-2.7-.9-1-1.4-1.2-1.4-1.2s1.6-.7 2-2.1c.2-.6-.1-1.4-.6-2.1-.5-.7-.6-2-.2-2.5.5-.5.6-.4 1.3-.7.7-.3 2.5-.6 3.5-2.2s.3-2.2-2.2-5.9c-2-2.9-3.8-4.8-3.8-4.8-.8-1.4-1.5-2.6-1.5-4s.8-5.3.8-6.1v-.1c1.6-1.4 3.7-4.1 3.2-8.5-.5-5.9-13.5-18.7-29.5-19.3-1.3-.1-2.7 0-4.1.1-1.2.1-2.6.2-4 .4-.8.1-1.6.3-2.2.5-3.9-.8-22.5-3.3-30.2 17.2-7.4 19.8-3.6 30 1.1 48.9 6.9 27.8 6.4 23.4 21.2 25.2 5.9.7 9.9.6 12.6-.2 4.3-1.6 5.4-4.6 6.9-8.7z"/></svg>