<svg xmlns="http://www.w3.org/2000/svg" viewBox="0 0 475.6 659.7" enable-background="new 0 0 475.6 659.7"><desc xmlns:shape="http://adobe.com/products/shape"><shape:version>1.0.2</shape:version><shape:captureDetail>0.750000</shape:captureDetail><shape:source>1</shape:source></desc><path fill="#2BC22B" d="M141.3 505.7c6.4-2.5 16.2-2.4 17.4 4.3.8 4-2.4 7.7-5.3 10.6-11.6 11.6-23.3 23.2-34.9 34.7 10.5-4.7 21-9.4 31.6-14.1 5.7-2.5 12-5.1 18-3.5 6 1.6 10.3 9.8 6.1 14.3-21.4 23-51.6 36.4-72.8 59.7C90.2 624 82 638.5 73.8 652.9c-1.8-2-1.3-5.1-.5-7.6 6.8-22.5 24.2-40.3 42.7-54.8 18.5-14.5 38.8-27 55.2-43.8-10.1-6.5-23.6-1.2-33.7 5.5-10.1 6.6-20.6 14.8-32.6 13.8 12.1-19 27.6-35.7 45.6-49.3 2.4-1.8.7-6-2.2-6.9s-5.9.5-8.5 1.8c-14 7.4-26.7 17.3-37.3 29.1-3.3 3.7-9.5 7.5-12.2 3.4 13.8-26 32.2-49.5 54.1-69.2 2-1.8.3-5.3-2.2-6.1-2.5-.7-5.2.5-7.5 1.7-20.7 10.8-38 27.8-49.2 48.3-2.1 3.9-7.9 8.1-9.8 4.1 11.6-25.2 26.1-49.2 43-71.3 1.8-2.4-1.1-6.1-4.1-6-3 .1-5.5 2.4-7.6 4.5C85 473 68.3 501 58.8 531.3c-.8 2.4-4.1 2.9-6.3 1.7-2.1-1.3-3.3-3.7-4.3-6-8-18.2-14.7-38.2-30.1-50.8-2.6 3.9-.4 9.1 1.9 13.2 9.3 17.3 17.7 35.5 20.5 55s-.6 40.6-13 55.9c-1.3 1.6-2.8 3.2-4.8 3.2-2 .1-3.9-2.5-2.5-4 13.9-15.1 16.8-37.8 13-57.9-3.8-20.2-13.4-38.7-22-57.3-1.4-3-2.7-6.4-1.4-9.4 2.8-6.4 12.6-3.1 17.5 1.8 12.8 12.7 19.9 29.9 26.6 46.6 13.1-30.2 27.6-62 54.7-80.5 5-3.4 12.8-5.9 16.4-1 3 4.1.2 9.9-2.6 14.2-6.1 9.2-12.1 18.5-18.2 27.7 8.4-5.4 16.9-10.9 25.3-16.3 4.1-2.6 8.5-5.4 13.3-5.4s10.1 3.9 9.5 8.7c-.3 2.5-2 4.6-3.7 6.6-14.2 16.5-28.4 33.1-42.6 49.6 11.2-8.1 22.5-16.2 35.3-21.2zM286 575.5c-2.8-.6-5.8-1.3-7.7-3.4-3.4-3.6-1.9-9.9 1.8-13.2 3.7-3.3 8.8-4.4 13.7-5.4 12.2-2.4 24.4-4.9 36.5-7.3-11.8-7.8-26.1-11.8-40.3-11.2-6.3.2-8.3-9.8-3.8-14.3s11.6-4.7 17.9-4.6l39.6.6c-4.8-6.2-11-11.1-17.1-15.9-11.8-9.4-23.7-18.9-35.5-28.3-5.7-4.6-2.2-14.8 4.5-17.6 6.7-2.8 14.5-.6 21.2 2.2 18.2 7.5 34.8 18.6 48.7 32.6 2.4-2.9.7-7.2-1-10.5-6.5-12.4-12.9-24.8-19.4-37.3-4.7-9-8.8-21.6-1-28.1 3.8-3.2 9.3-3.5 14.1-2.1 11 3.3 17.7 14.1 23.3 24.2l27 48c11.8-23 25.5-47.9 49.6-57.4 4.5-1.8 10.7-2.4 13.2 1.7 2.2 3.4.3 7.9-1.7 11.4-12.1 21.9-27.3 42.5-33.9 66.6-9.2 33.9 0 69.7 9.1 103.7.6 2.1-2.5 3.6-4.4 2.5-1.9-1.1-2.6-3.4-3.2-5.4-9.6-34.8-18.2-72.2-7.1-106.6 4.4-13.6 11.6-26 18.8-38.3 5.7-9.7 11.3-19.4 17-29-3.1-3.9-9.4-1.3-13.3 1.9-19.8 16-34.6 38.3-41.5 62.8-6.4-3.7-9.8-10.8-13.1-17.4-8.6-17.5-18.1-34.5-28.4-51-3.3-5.2-7.2-10.8-13.1-12.2s-13.3 4.7-10.5 10.2c12.5 24.5 23.8 49.6 33.8 75.2-24.8-9.5-42.5-32.2-67.1-42.1-4.2-1.7-9-3-13.1-1.1-4.1 1.8-6.2 8.1-2.6 10.9 16.9 13.4 33.8 26.9 50.6 40.5 2.4 1.9 4.9 4.1 5.6 7s-1.6 6.7-4.6 6.2c-14.8-2.7-29.9-3.8-45-3.5-3.5.1-7.5.4-9.8 3-2.4 2.6-1.2 8.1 2.4 8 18.5-.5 37 6.4 50.7 18.8-15.2 2.1-30.5 4.2-45.7 6.4-8 1.1-18.3 4.7-17.8 12.8 45.9 9.5 88.5 34.6 118.9 70.2-4.5 2.7-9.8-1.6-13.4-5.4-27.5-29.3-63.9-50-102.9-58.8zM300.6 323.6c-4.1-18.2-.1-38 10.8-53.1 10.9-15.1 28.5-25.1 47.1-26.9 9.3-.9 19.1.4 26.8 5.7 7.1 4.9 11.7 12.8 14 21.2 5 18 0 37.7-9.9 53.5-8.6 13.9-21.5 25.7-37.3 30-15.8 4.3-34.4-.3-44.1-13.4-3.8-5-6.1-10.9-7.4-17M311 284c-2.8 6.7-4.3 13.9-4.7 21.2-.6 9.9.6 20.2 5.4 29 4.8 8.7 13.4 15.7 23.3 16.7 6.5.7 13.1-1.2 19.1-3.9 21.7-9.9 37.6-31.8 40.1-55.5.9-8.7.1-17.8-3.6-25.7-3.7-7.9-10.6-14.6-19-16.9-6.4-1.7-13.3-.9-19.7.9-17.8 4.8-33.7 17.2-40.9 34.2zM155 326.7c4.5 22.2-1.5 47.2-18.5 62.2s-45.3 16.9-62 1.6c-8.7-8-13.6-19.5-14.8-31.3-1.2-11.7 1.1-23.6 5.1-34.7 3.5-9.7 8.4-19.2 16-26.1 9.4-8.6 22.7-12.8 35.4-11.2 12.7 1.7 24.4 9.1 31.3 19.9 3.8 6 6.1 12.7 7.5 19.6m-8-3c-1.3-5.5-3.2-10.9-6.3-15.7-8.6-13.3-26.7-19.5-41.7-14.3-17.4 6.1-27.4 24.7-31 42.8-3.7 18.7-1.1 40.9 14.1 52.4 16 12.1 40.9 6.9 54-8.3 13.1-15.1 15.6-37.4 10.9-56.9zM134 112.8c3.3-.3 6.7-.2 10.1.4 19.2 3.2 34.6 20.7 36.9 40s-7.8 39.2-23.9 50.1c-9.3 6.3-20.9 10-32 8-15.7-2.8-28.1-16.7-31.9-32.2-3.9-15.5-.4-32.1 6.6-46.5 1.5-3.1 3.2-6.2 5.8-8.4 2-1.8 4.5-3 7-4.1 6.7-3.2 13.8-6.5 21.4-7.3m37.6 30.3c-1.9-4-4.5-7.5-7.4-10.9-3.7-4.3-7.9-8.3-12.9-10.9-15.1-7.9-35.2-1.3-45.1 12.5-9.9 13.8-10.6 32.9-4.7 48.8 3 8.1 7.8 15.8 15.3 20.2 7.8 4.5 17.7 4.7 26.1 1.7 8.5-3.1 15.6-9.2 21.1-16.4 9.7-12.8 14.4-30.5 7.6-45zM248.6 95.8c-18.9-1.1-34.7-18.3-36.8-37.2-2.1-18.8 8-37.8 23.3-49 4.3-3.1 10.5-5.7 14.7-2.4 3.6 2.8 8.6 2.2 13.2 2.4 18.9.7 34.7 18.5 35.4 37.4S286.3 84 269 91.7c-6.3 2.9-13.4 4.6-20.4 4.1m38.3-29.9c2.6-4.4 4.8-9.2 5.3-14.3.9-8.2-2.6-16.2-7.4-22.9-6.1-8.4-15.5-15.4-25.8-14.9-3.2.2-7 .7-8.9-1.9-2.2-3-6.9-1.3-9.9.9-9.4 7.1-16.8 17.2-19.8 28.6-3.1 11.4-1.6 24.1 4.6 34.2 3.5 5.7 8.7 10.5 14.9 13 8.8 3.5 19.1 2 27.4-2.6 8.4-4.5 14.8-11.9 19.6-20.1zM405 140.4c.6 6.5-.8 13-3.4 19-8.4 19.7-30.5 33.2-51.6 29.8-4.6-.7-9.1-2.2-12.8-5.1-8.1-6.2-10.5-17.4-9.6-27.5 1.5-15.2 9.8-29.8 22.7-38 5.7-3.6 12.1-6 18.6-8 3.5-1.1 7.1-2.1 10.7-1.6 4.4.6 8.3 3.3 11.6 6.3 7.2 6.6 12.9 15.4 13.8 25.1m-30.6 39.7c12.4-6.7 22-19.2 23.1-33.2s-7.2-28.9-20.5-33.5c-1.8-.6-4.3-.8-5.2.9-1.6 3.2-5.9 3.5-9.3 4.3-8.8 2-15.3 9.3-20.2 16.9-4.4 6.9-7.9 14.5-8.5 22.7-.6 8.1 2.2 16.8 8.6 21.9 9 6.9 22.1 5.4 32 0zM42.3 378.3c-1.4 7.9-.2 16.2 3.4 23.4.7 1.4 1.5 2.8 1.4 4.4-.1 1.5-1.5 3.1-3 2.7-.8-.2-1.4-.9-1.9-1.5-4.6-6.1-7.1-13.8-7-21.5 0-2.1.3-4.3 1.5-6 1.4-1.8 3.9-2.7 5.6-1.5zM77.2 169.3c-1.7 8.1-.1 16.8 4.3 23.9 1.2 1.9-1.8 4.1-3.8 3.3s-3-3.2-3.7-5.3c-1-2.8-1.9-5.6-2.9-8.4-1-3-2.1-6.3-1.2-9.4s4.5-5.6 7.3-4.1zM422.8 165.1c1.7-5.2 3.4-10.4 3.7-15.9.1-1.9 0-3.7 0-5.6 2.4-1.8 6 .2 6.9 3.1.9 2.8 0 5.9-.9 8.7-1.5 4.7-4.7 10.6-9.7 9.7zM323 379.2c-4-.2-8.1-.3-11.7-1.9-3.7-1.6-6.8-4.9-7-8.9 7.4 2.7 14.7 5.4 22 8.3.9 1.4-1.6 2.6-3.3 2.5zM22 404.9c1.5-2.2 4.8.2 6.3 2.4 3.3 5.2 6.7 10.4 10 15.7-3.8.5-7.5-1.5-10.1-4.3-2.6-2.8-4.2-6.3-5.8-9.7-.7-1.3-1.3-2.9-.4-4.1zM327.6 34.7c.8 2.1 1.6 4.3 1.1 6.5s-2.7 4.2-4.9 3.4c-1.3-5.9-3.4-11.6-6.3-16.9 1.8-1.5 4.8-.9 6.5.7s2.8 4.1 3.6 6.3zM296.9 389.7c2.3-2.1 5.6.7 7.9 2.8 3.3 2.9 7.7 4.6 12.1 4.5 1 .9-.4 2.3-1.6 2.7-7.5 2.3-16.4-2.5-18.4-10zM339.6 17.1c5.5-.7 11 4.1 10.9 9.6 0 1.9-.6 3.7-1.7 5.2-1.9.6-3.4-1.6-4.1-3.4-1.7-3.7-3.4-7.5-5.1-11.4z"/></svg>