<svg xmlns="http://www.w3.org/2000/svg" viewBox="116.6 0 770.4 1000" enable-background="new 116.6 0 770.4 1000"><desc xmlns:shape="http://adobe.com/products/shape"><shape:version>1.0.2</shape:version><shape:captureDetail>0.750000</shape:captureDetail><shape:source>1</shape:source></desc><path fill="#2BC22B" d="M803.2 21.8c-2.1-2.8-4.7-5.9-8.2-6.5-4.2-.5-7.9 2.6-10.8 5.6-36.3 36-72.9 71.8-109.2 107.6 18.7.5 37.6.9 56.4 1.2 4.2 0 8.7.3 11.9 3.1 3.1 3 3.7 7.9 3.8 12.2 6.3 143.5-30.9 286.6-90 417.6-33 73.6-73.7 144.7-130 202.3-94 96.5-230.6 149.9-365.2 143.1-16.8-.9-30.8 15.2-33.5 32-2.8 16.6 2.6 33.5 8 49.6 82.5 1.4 166.2-3 244.1-29.7C533.7 907.7 648 773.5 712.7 625S799 313.5 817.5 152.5c.7-5.8 1.6-11.7 5.1-16.1 11.9-14.5 39.1 1.6 53.1-11-23.1-35.2-47.2-69.7-72.5-103.6zM414.6 780.2c-2.4 8.7 10 17.5 6.1 25.7-3.1 3.3-8.2-1.2-10.5-5.2-8.2-14.3-16.3-28.7-24.5-43.2-1.6-2.8-3.1-5.8-2.8-8.7.3-2.4 1.6-4.5 3-6.5 5.1-7.5 10.5-15.4 18.2-20.1 7.9-4.7 18.7-5.6 25.5.7 7 6.5 6.8 17.6 3 26.4-2.6 5.9 1 13.1 6.3 16.9s11.9 5.2 18.2 7.3c6.1 2.1 12.6 5.2 15.6 11.2-8.7 2.3-18.2 1.4-26.2-2.6-5.6-2.8-10.5-6.8-16.4-8.4-6.1-1.6-13.8.5-15.5 6.5m-3.5-17c6.5-1.4 9.6-8.7 11-15.2 1.7-7.5.5-18.2-7.2-19.2-6.3 4.4-12.9 9.3-15.7 16.4-2.8 7.2.7 17.1 8.2 18.3 1.2-.1 2.4-.1 3.7-.3zM342.6 846.6c-.5 4.5-.5 10.7-5.1 11.7-2.8.7-5.6-1.4-6.6-4.2-1-2.6-.9-5.6-.5-8.6 2.6-26.7 5.4-53.5 8-80.2.2-2.1.5-4.4 2.1-5.9 3.7-3.7 9.6.7 12.8 4.7 10.7 13.3 21.1 26.7 31.8 40 5.8 7.2 11.5 14.7 14.3 23.4-8 1.6-16.9-2.8-20.4-10.1-1.9-4-7.9-2.1-11.7.3-11.3 7-23.3 15.8-24.7 28.9m3.5-34.1c2.8 3.7 8.9 2.8 12.2-.3 2.1-1.9 3.7-4.5 4.4-7.3 2.4-9.8-5.9-19.2-15.4-23.1-.9 7.3-1.7 14.9-2.6 22.2 0 2.7-.4 6.1 1.4 8.5zM613.9 499.2c3.8 1.9 4.2 7.2 3.3 11.4-1 4.2-3 8.2-2.1 12.4 2.4 12.1 22.7 10.1 28.5 21-2.8 2.8-7.3 2.4-11.4 3-4 .5-8.6 4-7 7.7 4.2 10.1-5.8 22-16.8 23.1s-21.3-5.6-29.2-13.5c-6.1-6.3-11.2-13.6-13.6-22-2.3-8.4-1.4-18 3.5-25 1.9-2.8 5.1-5.2 8.4-5.1 3.5.3 6.1 4.9 3.7 7.3-5.4 5.6-5.9 14.9-3.1 22.2 2.8 7.3 8.4 13.3 14 18.7 4.4 4.2 10.1 8.7 15.7 6.8 4.2-1.4 6.8-6.1 6.6-10.7-.2-4.5-2.8-8.6-5.9-11.7-3.1 4.5-9.6 6.6-14.9 4.5 3.5-12.1 7-23.9 10.7-36 1.9-5.5 4.2-11.8 9.6-14.1zM481.8 760.8c-16.1-16.8-30.6-34.8-43.7-54 1.6-3 5.4-4.5 8.7-3.7 19 5.8 39 8.9 58.7 9.4 3-4-.9-9.4-4.4-13.1-8.9-9.1-18-18.2-26.9-27.4-2.4-2.4.7-7 4.2-7s6.3 2.4 8.7 4.9c15.6 15.2 30.9 30.4 46.3 46-1.2 1.6-2.4 3.3-3.7 4.9-15.6 2.1-31.1.2-46.7-1.6-5.8-.7-11.5-1.4-17.3-1.9-1.4 18.5 27.6 28.1 26.9 46.7-2.7 3.1-7.6-.1-10.8-3.2zM518.5 619.8c15.7-4.2 31.8-6.8 47.9-7.9 3.8-.2 8.7-1 10-4.7 1.4-4-2.6-7.7-6.3-10.1-8.9-5.9-17.8-11.9-26.7-17.6-2.4-2.8.7-7.5 4.4-7.9 3.7-.5 7.2 1.7 10.1 3.8 12.6 8.6 25.3 17.1 37.9 25.9 2.4 1.6 4.9 3.5 6.1 6.1 1.2 2.6 0 6.5-3 7-13.1 2.6-26.2 5.2-39.3 7.9-3.5.7-7.2 1.6-9.6 4.2-2.4 2.6-2.3 7.7 1 8.9 11.7 4.5 21.5 14 26.4 25.5-3.8 3.5-10 .5-14.2-2.6-13.1-9.8-26.2-19.6-39.5-29.2-2.4-2.7-5.9-5.7-5.2-9.3zM273.5 857.1c10 10.1 28.1-3 40.9 3.3v5.8c-12.1 1.7-24.3 3.5-36.3 5.2-3 .3-6.3.9-9.1-.2-5.9-2.3-7.9-9.8-8.7-16.1-3-19.2-5.8-38.4-8.7-57.8-.3-2.1-.5-4.5.5-6.5.9-1.4 2.4-2.3 4-3 12.1-5.8 23.9-11.5 36-17.3 2.3-1 5.1-2.1 7.2-.5 3.3 2.4 0 7.7-3.5 9.8-8.2 5.2-18 8.4-24.8 15.6-6.6 7.2-7.9 20.8.9 25.3 4.7 2.4 10.5 1 15.4-1 3.5-1.6 7.3-3.7 11.2-2.6 3.7 1 5.1 7.7 1.2 8.6-8.2 1.7-16.9 3.7-23.2 9.3-6.4 5.1-8.9 16-3 22.1zM697.1 359.4c-8.9-2.8-17.8-5.6-26.9-8.4-11.7-3.7-25.3-9.6-27.1-21.7-.7-4.7.7-9.4 3-13.6 3-5.9 7.9-11.4 14.2-13.1 6.3-1.9 14.3.9 16.8 7 2.3 5.8 9.6 7.9 15.6 6.3 5.9-1.6 10.7-5.8 15-10 3.3-3.1 8.9 2.1 7.7 6.5s-5.9 6.6-10.1 8.4c-5.9 2.3-12.1 4.7-16.1 9.6-4 4.9-4.5 13.3.9 16.8 3.1 2.1 7.3 1.7 10.8 3.1 3.5 1.2 6.6 5.9 4 8.7-2 2-5.2 1.3-7.8.4m-26.2-21.6c3.8-2.4 3.3-8.4 1.4-12.6-2.1-4.4-5.2-8.2-9.1-11.2-7.3 4.5-8.2 16.4-1.9 22 2.6 2.5 6.6 3.7 9.6 1.8zM729.1 181.2c.7 11.7 1.6 23.4 2.3 34.9.3 4 .3 8.6-2.4 11.5-3.3 3.3-8.6 2.8-13.1 1.9-10.5-1.7-21-3.7-31.5-5.4-3.5-.5-7-1.2-10-3-10.1-5.8-10.7-20.1-9.6-31.6.3-4.4 1-9.1 4.4-11.7 3.5-2.6 10.1.5 8.6 4.5-3.7 9.4-2.1 20.6 4 28.8 1.6 1.9 3.5 3.8 5.9 4.2 4.5.7 8-4.2 8.6-8.7.5-4.5-.9-9.1-.5-13.5.3-4.5 3.5-9.4 8-9.3 5.4 4.4 4.5 12.6 4 19.6-.5 7 1.9 15.9 8.7 16.6 3.1-6.8.9-15 .9-22.5-.4-7.6 4-16.8 11.7-16.3zM243.1 876.3c-8.7 3.5-18.2 5.1-27.4 4.5-3.3-.2-6.6-.7-9.1-2.8-3.7-3-4.2-8.2-4.7-12.9-1.7-21.7-3.5-43.5-5.1-65.2-.3-4.9.7-11.5 5.6-11.9 4.7-.3 6.6 5.9 7 10.8 1.2 18 2.4 35.8 3.7 53.8.5 7.5 2.4 16.9 9.8 18.5 6.5 1.6 13.5-4.2 19.4-1.2.1 2.2.5 4.3.8 6.4zM662.2 454.5c5.6-2.4 7.5-9.6 8.6-15.7.9-4.7 1.7-9.6 2.6-14.3 3.8-.3 7 3.3 8.4 7 4.9 13.3-4 29.9-17.8 33-10.3 2.3-21.1-2.3-28.8-9.4-7.7-7.3-12.4-16.9-16.3-26.7-1.4-3.5-2.8-7.5-1.9-11.2 1-3.7 5.2-6.8 8.7-5.1 2.8 1.6 3.5 5.2 4 8.4 1.9 10.7 7.2 20.6 14.9 28.3 4.8 4.3 11.6 8.3 17.6 5.7zM659.5 282.7c-2.4-1.4 0-5.1 2.4-6.3 6.5-3 14-2.1 21.1-2.6 7.2-.3 15.2-2.6 18.3-9.1-12.6-7.9-25.3-15.9-37.9-23.8.2-2.8 3.1-4.7 5.9-4.7 2.8-.2 5.4 1 7.9 2.3 16.9 8.2 33.4 17.8 48.8 28.7-17.2 15.9-43.1 16-66.5 15.5zM653.6 361.2c12.6.2 24.8 5.8 33.2 15 7.7 8.7 11.4 23.2 3 31.5-7 6.8-18.7 5.2-27.8 1.7-8.4-3.3-16.1-7.9-23.1-13.5 2.4-4.5 8.9-5.1 13.8-3.1 4.9 1.9 8.6 5.8 13.1 8.2 4.5 2.4 10.8 3.3 14.5-.3 4.9-4.9 1.4-13.3-3.3-18.3-7.7-8-18.5-13.3-29.7-14.2-1.7-1.2-1.4-4 .3-5.4 1.6-1.5 3.9-1.6 6-1.6zM495.6 642c3.1-4.4 10-1.4 14.3 1.7 10 7.3 19.7 14.7 29.7 22.2 6.8 5.1 14 10.5 18.5 17.8-4.5 5.4-13.3 1.4-18.9-3-8.6-6.5-16.9-12.9-25.5-19.4-7.1-5.5-14.6-11.3-18.1-19.3z"/></svg>