<svg xmlns="http://www.w3.org/2000/svg" viewBox="0 0 744.5 969.7" enable-background="new 0 0 744.5 969.7"><desc xmlns:shape="http://adobe.com/products/shape"><shape:version>1.0.2</shape:version><shape:captureDetail>0.750000</shape:captureDetail><shape:source>1</shape:source></desc><path fill="#C22C7F" d="M614.3 132.1c-.2-4.3-.6-9.2-3.8-12.1-3-2.8-7.6-3.1-11.7-3.2-18.6-.4-37.2-.7-55.7-1.1C578.9 80.3 614.8 45 650.7 9.6c3-2.9 6.6-6.1 10.7-5.5 3.5.5 6 3.6 8.2 6.4 24.8 33.3 48.7 67.4 71.4 102.1-13.8 12.4-40.7-3.5-52.4 10.8-3.5 4.3-4.3 10.2-5 15.8-18.3 158.7-39.6 319.6-103.4 466C516.4 751.6 403.7 884 252.7 935.7 175.8 962.1 93.2 966.5 12 965.1c-5.3-15.9-10.6-32.5-7.9-49 2.7-16.5 16.5-32.5 33.2-31.6 132.7 6.8 267.3-46 360-141.1 55.4-56.9 95.6-127 128.3-199.5 58.3-129.2 94.9-270.2 88.7-411.8"/><path fill="#C22C7F" d="M286.4 758.3c-2.4 8.7 9.9 17.2 6 25.3-3.1 3.2-8.2-1.2-10.4-5.1-8-14.2-16-28.3-24-42.5-1.5-2.7-3.1-5.6-2.8-8.7.3-2.4 1.6-4.5 3-6.4 5-7.5 10.3-15.1 17.9-19.8 7.7-4.7 18.5-5.4 25.1.7 6.8 6.3 6.6 17.4 2.9 26-2.6 5.9 1 13 6.3 16.8 5.2 3.8 11.7 5.2 17.8 7.3 6.1 2.1 12.4 5.3 15.4 11-8.5 2.3-17.9 1.4-25.8-2.5-5.5-2.7-10.3-6.8-16.2-8.4-6-1.7-13.6.4-15.2 6.3m-3.6-16.8c6.4-1.4 9.5-8.6 10.9-15 1.7-7.4.5-17.9-7-19-6.2 4.3-12.8 9.1-15.5 16.1-2.7 7.1.7 16.9 8.1 18 1.2.1 2.4.1 3.5-.1zM215.3 823.7c-.5 4.5-.6 10.5-4.9 11.6-2.7.7-5.6-1.5-6.6-4.1-1.1-2.6-.8-5.6-.5-8.4 2.6-26.4 5.3-52.8 7.9-79.1.2-2.1.5-4.4 2-5.9 3.6-3.6 9.5.7 12.7 4.7 10.4 13.1 20.9 26.3 31.3 39.4 5.6 7.1 11.4 14.4 14.1 23-7.9 1.6-16.6-2.7-20.1-10-1.9-3.9-7.8-2.1-11.5.3-11.1 6.9-23 15.6-24.4 28.5m3.5-33.7c2.7 3.6 8.8 2.7 12.1-.3 2.1-1.9 3.7-4.5 4.4-7.3 2.3-9.6-5.9-19-15.1-22.7-.9 7.3-1.7 14.6-2.6 21.9-.3 2.9-.6 6.1 1.2 8.4zM482.9 481.2c3.7 1.9 4.2 7.1 3.2 11.2s-2.9 8.2-2.1 12.3c2.4 11.8 22.3 10.1 28.1 20.7-2.8 2.8-7.3 2.4-11.2 3-3.9.5-8.4 3.9-6.9 7.5 4.2 10.1-5.6 21.7-16.5 22.8s-21.1-5.5-28.7-13.3c-6-6.1-11.1-13.4-13.4-21.7-2.3-8.3-1.4-17.7 3.5-24.7 1.9-2.8 4.9-5.3 8.3-5 3.4.3 6 4.8 3.7 7.2-5.4 5.6-5.9 14.6-3.1 21.8 2.8 7.2 8.3 13 13.9 18.5 4.3 4.2 9.9 8.5 15.6 6.7 4.2-1.4 6.7-6.1 6.5-10.5-.2-4.4-2.7-8.5-5.8-11.6-3.1 4.5-9.5 6.5-14.6 4.5 3.5-11.8 7-23.6 10.5-35.5 1.5-5.5 3.7-11.7 9-13.9zM352.7 739c-15.8-16.5-30.2-34.3-43.1-53.2 1.6-3 5.4-4.5 8.6-3.5 18.8 5.7 38.3 8.8 58 9.3 2.9-4-.8-9.4-4.3-12.9-8.8-9-17.7-18-26.5-27-2.4-2.4.7-6.9 4.1-6.9 3.4 0 6.2 2.5 8.7 4.9 15.4 14.9 30.6 30 45.6 45.3-1.2 1.6-2.4 3.2-3.5 4.8-15.2 2-30.7.2-46-1.5-5.7-.7-11.4-1.3-17.1-2-1.3 18.3 27.2 27.8 26.5 46.1-3.1 2.9-8-.3-11-3.4zM388.8 600c15.4-4.2 31.3-6.8 47.3-7.8 3.8-.3 8.6-1 9.8-4.7 1.4-4-2.6-7.6-6.1-9.9-8.8-5.8-17.5-11.7-26.3-17.5-2.3-2.8.7-7.4 4.4-7.8 3.6-.4 7 1.7 10 3.8 12.5 8.5 24.9 17 37.4 25.4 2.4 1.6 4.9 3.4 6 6 1.1 2.7-.1 6.4-2.9 7-12.9 2.6-25.8 5.1-38.7 7.7-3.4.7-7.1 1.5-9.4 4.1-2.3 2.6-2.2 7.6 1.1 8.8 11.6 4.4 21.2 13.8 26 25.2-3.8 3.5-9.8.5-13.9-2.6-13-9.6-25.9-19.2-38.9-28.8-3.1-2.3-6.4-5.2-5.8-8.9zM147.3 833.9c9.8 9.9 27.8-2.9 40.3 3.3 0 1.9.1 3.7.1 5.6-12 1.7-23.9 3.4-35.9 5.1-3 .4-6.1.8-8.9-.2-5.9-2.2-7.7-9.6-8.7-15.9-2.9-19-5.7-38-8.6-57-.3-2.1-.6-4.5.6-6.3.9-1.4 2.5-2.2 4-2.9 11.8-5.7 23.7-11.4 35.5-17.1 2.2-1.1 5-2.1 7-.6 3.2 2.5-.1 7.5-3.5 9.7-8.1 5.2-17.8 8.2-24.4 15.3-6.6 7-7.8 20.5.8 24.9 4.7 2.4 10.4 1.1 15.2-1.1 3.5-1.6 7.3-3.7 11-2.6s5 7.6 1.2 8.4c-8.2 1.7-16.8 3.6-22.9 9.2-6.3 5.7-8.7 16.3-2.8 22.2zM564.9 343.4c-8.8-2.8-17.6-5.5-26.5-8.3-11.5-3.6-25-9.4-26.6-21.3-.6-4.6.8-9.3 2.9-13.5 3-5.8 7.7-11.1 14-13 6.3-1.8 14.1.9 16.5 6.9 2.2 5.6 9.5 7.8 15.3 6.2 5.8-1.5 10.5-5.7 14.9-9.9 3.3-3.1 8.8 2.1 7.5 6.5-1.2 4.3-5.8 6.6-10 8.3-5.8 2.3-12 4.6-15.9 9.4-4 4.8-4.4 13.1.8 16.6 3.1 2.1 7.2 1.8 10.7 3.1 3.5 1.3 6.5 5.9 3.9 8.6-1.8 1.9-5 1.2-7.5.4M539.1 322c3.8-2.5 3.3-8.3 1.4-12.4-2-4.3-5.2-8.2-9-11-7.2 4.5-8.2 16.1-1.9 21.7 2.6 2.4 6.6 3.6 9.5 1.7zM596.4 167.5c.8 11.5 1.5 23 2.3 34.5.3 4 .4 8.5-2.5 11.4-3.2 3.2-8.4 2.7-12.9 1.9-10.4-1.8-20.7-3.5-31.1-5.3-3.4-.6-6.9-1.2-9.9-2.9-10.1-5.6-10.5-19.7-9.6-31.2.3-4.2 1-9 4.4-11.5 3.4-2.5 9.9.5 8.4 4.5-3.6 9.3-2.1 20.4 3.9 28.4 1.5 2 3.4 3.8 5.8 4.2 4.4.6 7.9-4.1 8.4-8.5s-.8-8.9-.5-13.3c.4-4.4 3.4-9.4 7.9-9.2 5.4 4.2 4.4 12.4 3.9 19.3s1.8 15.7 8.7 16.3c3.2-6.8.9-14.7.9-22.2 0-7.8 4.4-16.9 11.9-16.4zM117.2 853c-8.6 3.5-17.9 5-27.1 4.5-3.2-.2-6.6-.7-9-2.7-3.6-3-4.2-8.1-4.6-12.8-1.7-21.4-3.4-42.9-5.1-64.3-.4-4.8.7-11.4 5.5-11.6 4.7-.3 6.6 5.9 6.9 10.7 1.2 17.7 2.4 35.3 3.5 53 .5 7.4 2.4 16.6 9.7 18.3 6.3 1.5 13.3-4.2 19.1-1.2.4 2 .8 4 1.1 6.1zM530.5 437c5.6-2.5 7.4-9.4 8.5-15.5.9-4.7 1.7-9.4 2.6-14.2 3.8-.4 6.8 3.3 8.2 6.9 4.9 13-3.9 29.4-17.5 32.5-10.1 2.3-20.9-2.2-28.4-9.4s-12.2-16.8-16.1-26.4c-1.4-3.5-2.8-7.4-1.8-11.1 1-3.7 5.2-6.7 8.6-4.9 2.8 1.5 3.4 5.1 4 8.2 1.9 10.5 7.1 20.4 14.7 27.9 4.5 4.7 11.3 8.6 17.2 6zM527.9 267.6c-2.3-1.4-.1-5 2.4-6.1 6.4-2.9 13.8-2.1 20.8-2.5 7-.4 14.9-2.6 18-8.9-12.5-7.8-25-15.6-37.4-23.5.3-2.7 3.1-4.6 5.8-4.7 2.7-.1 5.3 1.1 7.8 2.3 16.8 8.1 32.9 17.6 48.1 28.3-16.9 15.5-42.5 15.8-65.5 15.1zM522.1 345.1c12.3.1 24.5 5.7 32.8 14.9 7.7 8.5 11.2 23 3 30.9-7 6.7-18.4 5.2-27.4 1.7-8.2-3.2-15.9-7.7-22.7-13.3 2.4-4.5 8.8-5.1 13.5-3.1s8.4 5.7 12.9 8.1c4.5 2.4 10.6 3.2 14.2-.4 4.8-4.8 1.4-13.1-3.2-18-7.6-8-18.2-13.1-29.2-13.9-1.7-1.2-1.3-4 .3-5.3 1.5-1.5 3.7-1.7 5.8-1.6zM366.3 621.9c3.1-4.3 9.9-1.4 14.2 1.8 9.7 7.3 19.5 14.5 29.2 21.8 6.8 5.1 13.7 10.3 18.2 17.5-4.5 5.3-13.1 1.3-18.7-2.9-8.4-6.4-16.8-12.8-25.2-19.1-7-5.4-14.2-11.1-17.7-19.1z"/></svg>