<svg xmlns="http://www.w3.org/2000/svg" viewBox="75.9 28 848.1 944.1" enable-background="new 75.9 28 848.1 944.1"><path fill="#2BC22B" stroke="#C2942C" stroke-width=".5" stroke-miterlimit="10" d="M357.6 616.6c18.9 20.8-19.8 93.6-70.9 157.8l-17-16.1-137.1 175.9 85.1 37.8h278.8l-15.1-16s29.3-71.8 47.3-115.3c38.8-97.4 86-87.9 126.7-78.4 21.7 4.7 69.9 4.7 95.5 19.8 43.5 25.5 74.7 5.7 78.4-16.1 3.8-20.8-17-45.4 0-77.5s28.4-92.6 36.9-99.2c8.5-6.6 53.9-21.7 57.7-40.6 4.7-19.8-47.3-70.9-68.1-96.4s-18.9-52 0-77.5c19.8-25.5-12.3-101.1-22.7-153.1 0 0 63.3 10.4 43.5 82.2 60.5-99.2-40.6-232.5-185.3-224-88-62.5-323.3-88-382.9 36.7-.9 1.9-1.9 3.8-2.8 4.7C279.1 75 200.7.3 123.2 111.8c-80.3 116.3 31.2 465-47.3 557.7 0 0 56.7-31.2 75.6-61.4l-17 56.7s72.8-75.6 107.8-177.7c25.5 60.5 55.8 115.4 115.3 129.5z"/></svg>