<svg xmlns="http://www.w3.org/2000/svg" viewBox="0 0 140 60" enable-background="new 0 0 140 60"><g fill="#fff"><path d="M44.663 22.832h3.46v22.295h-3.46V22.832zM51.443 22.863h3.335v3.668c1.605-3.08 4.265-3.713 9.032-3.713 7.084 0 9.957 1.774 9.957 7.217v2.87H70.56v-2.026c0-3.928-1.56-4.856-7.595-4.856-5.483 0-8.018 1.52-8.018 5.316v13.78h-3.503V22.864zM77.342 22.874h3.463v22.274h-3.463V22.874zM84.527 29.103c0-4.64 2.57-6.244 9.41-6.244h6.163c6.624 0 9.827 1.48 9.827 5.232v1.432h-3.287v-.88c0-2.285-2.323-2.622-7.765-2.622h-3.377c-5.91 0-7.553.212-7.553 3.08 0 2.953 1.728 3.167 7.553 3.167l5.91-.047c3.88 0 6.373.084 7.89 1.644 1.476 1.48 1.476 3.168 1.476 5.574 0 4.602-3.12 5.698-9.706 5.698h-8.736c-5.57 0-7.804-1.897-7.89-7.807h3.124v.387c0 3.79 1.347 4.17 5.528 4.17h9.704c3.716 0 4.432-.46 4.432-3.54 0-2.365-.973-3.162-4.39-3.162h-8.903c-7.176 0-9.41-.804-9.41-6.082zM113.762 29.103c0-4.64 2.57-6.244 9.405-6.244h6.16c6.627 0 9.83 1.48 9.83 5.232v1.432h-3.29v-.88c0-2.285-2.32-2.622-7.762-2.622h-3.375c-5.907 0-7.554.212-7.554 3.08 0 2.953 1.73 3.167 7.554 3.167l5.907-.047c3.883 0 6.373.084 7.89 1.644C140 35.347 140 37.037 140 39.442c0 4.6-3.12 5.697-9.7 5.697h-8.735c-5.568 0-7.804-1.898-7.89-7.808h3.12v.386c0 3.79 1.35 4.17 5.53 4.17h9.705c3.714 0 4.43-.46 4.43-3.54 0-2.365-.97-3.162-4.383-3.162h-8.91c-7.17 0-9.405-.805-9.405-6.083z"/></g><path fill="#fff" d="M16.504 22.87"/><path fill="#fff" d="M22.41 15.71c0 2.954 1.734 5.35 3.867 5.35 2.137 0 3.867-2.396 3.866-5.353 0-2.948-1.734-5.34-3.868-5.34-2.13 0-3.868 2.395-3.866 5.343zM18.35 25.568c1.128 2.398 1.672 5.24 1.42 8.233-.423 4.98-2.837 9.11-6.286 11.368 0 0-1.16.673-1.583.97-.52.36-.946.868-.97 1.543-.015.654.312 1.23.82 1.564.142.095.304.168.47.218.03.01.245.067.328.08.218.033.446.048.678.033 3.108-.177 6.223-3.027 8.62-7.95 2.524-5.192 5.914-4.97 8.152-2.776 2.252 2.205 5.99 7.954 3.32 17.754-.21.76-.165 1.628.242 2.112.486.58 1.435.68 2.207.232 2.472-1.433 2.923-5.517 3.133-6.666 1.187-6.57-1.445-12.492-2.832-15.007-.795-1.44-1.64-3.63-2.466-5.97-1-2.838-.436-5.427 1.027-8.474 2.304-4.803 6.502-7.49 6.85-7.74.686-.5 1.025-.868 1.077-1.613.05-.65-.264-1.12-.756-1.483-.13-.1-.29-.182-.454-.24-.028-.013-.243-.08-.32-.097-.22-.046-.444-.073-.68-.073-3.113.01-6.247 2.675-8.912 7.457-2.807 5.05-6.3 4.656-8.424 2.343-2.124-2.33-5.546-8.274-2.343-17.915.248-.745.255-1.615-.127-2.12-.452-.608-1.397-.75-2.19-.352-2.545 1.296-3.22 5.352-3.492 6.488-1.544 6.49.834 12.517 2.012 15.14.38.85.905 1.786 1.416 2.816l.065.128zM28.64 40.235c-.6-.587-1.25-.913-1.833-.913-1.066 0-2.242 1.148-3.214 3.15-.542 1.11-1.123 2.132-1.728 3.052 1.756.26 3.48.207 4.99-.302 1.565-.56 2.873-1.416 3.822-2.17-.745-1.43-1.568-2.357-2.037-2.817zM16.547 26.292c-.203-.39-.398-.78-.594-1.15-.308-.6-.604-1.164-.854-1.728-.07-.148-.134-.298-.2-.453-1.065-1.968-1.643-3.165-2.333-5.07-1.462-3.996-.997-9.082-.997-9.082.15-1.032.03-1.743-.364-2.25-.598-.758-1.748-.782-2.706.21-1.62 1.687-1.584 6.872-1.584 6.872.42 6.753 2.2 11.196 3.885 13.835-.048-.01-2.572-2.387-3.88-4.847-1.202-2.14-1.966-4.16-1.966-4.16-.285-.777-.705-1.405-1.27-1.708-.858-.45-1.918-.2-2.286.896-.698 2.084 1.51 6.793 1.51 6.793 2.687 5.17 5.332 8.136 7.64 10.096.002.01.002.02 0 .03-3.218-1.737-6.847-5.76-6.847-5.76-.546-.603-1.11-1.083-1.69-1.246-1.027-.274-1.96.273-2.01 1.655-.044 2.295 3.547 6.195 3.547 6.195 3.408 3.32 6.215 5.247 9.004 6.824.053.028.455.216.972.467 2.417-2.092 4-5.386 4.31-9.067.214-2.557-.213-5.056-1.234-7.235l-.05-.116z"/></svg>