<?xml version="1.0" encoding="utf-8"?>
<!-- Generator: Adobe Illustrator 18.1.0, SVG Export Plug-In . SVG Version: 6.00 Build 0)  -->
<svg version="1.1" id="Layer_1" xmlns="http://www.w3.org/2000/svg" xmlns:xlink="http://www.w3.org/1999/xlink" x="0px" y="0px"
	 viewBox="0 596.3 1024 427.7" enable-background="new 0 596.3 1024 427.7" xml:space="preserve">
<g>
	<path d="M326.7,757.9H352V921h-25.3V757.9z M376.3,758h24.4v26.8c11.7-22.5,31.2-27.2,66.1-27.2c51.8,0,72.8,13,72.8,52.8v21h-23.5
		v-14.8c0-28.7-11.4-35.5-55.6-35.5c-40.1,0-58.6,11.1-58.6,38.9v100.8h-25.6L376.3,758L376.3,758z M565.7,758.2H591V921h-25.3
		V758.2z M618.3,803.7c0-33.9,18.8-45.7,68.8-45.7h45.1c48.4,0,71.9,10.8,71.9,38.3v10.5h-24v-6.4c0-16.7-17-19.2-56.8-19.2h-24.7
		c-43.2,0-55.2,1.6-55.2,22.5c0,21.6,12.6,23.2,55.2,23.2l43.2-0.3c28.4,0,46.6,0.6,57.7,12c10.8,10.8,10.8,23.2,10.8,40.8
		c0,33.7-22.8,41.7-71,41.7h-63.9c-40.7,0-57.1-13.9-57.7-57.1h22.8v2.8c0,27.7,9.9,30.5,40.4,30.5h71c27.2,0,32.4-3.4,32.4-25.9
		c0-17.3-7.1-23.1-32.1-23.1h-65.1C634.6,848.2,618.3,842.2,618.3,803.7L618.3,803.7z M832.1,803.7c0-33.9,18.8-45.7,68.8-45.7H946
		c48.5,0,71.9,10.8,71.9,38.3v10.5h-24.1v-6.4c0-16.7-17-19.2-56.8-19.2h-24.7c-43.2,0-55.3,1.6-55.3,22.5
		c0,21.6,12.7,23.2,55.3,23.2l43.2-0.3c28.4,0,46.6,0.6,57.7,12c10.8,10.8,10.8,23.2,10.8,40.8c0,33.6-22.8,41.7-70.9,41.7h-63.9
		c-40.7,0-57.1-13.9-57.7-57.1h22.8v2.8c0,27.7,9.9,30.5,40.4,30.5h71c27.2,0,32.4-3.4,32.4-25.9c0-17.3-7.1-23.1-32.1-23.1h-65.2
		C848.4,848.2,832.1,842.2,832.1,803.7L832.1,803.7z"/>
</g>
<path d="M120.7,758"/>
<path d="M163.9,705.8c0,21.6,12.7,39.1,28.3,39.1s28.3-17.5,28.3-39.2c0-21.6-12.7-39.1-28.3-39.1
	C176.6,666.7,163.9,684.2,163.9,705.8L163.9,705.8z M134.2,777.9c8.3,17.5,12.2,38.3,10.4,60.2c-3.1,36.4-20.8,66.6-46,83.1
	c0,0-8.5,4.9-11.6,7.1c-3.8,2.6-6.9,6.3-7.1,11.3c-0.1,4.8,2.3,9,6,11.4c1,0.7,2.2,1.2,3.4,1.6c0.2,0.1,1.8,0.5,2.4,0.6
	c1.6,0.2,3.3,0.4,5,0.2c22.7-1.3,45.5-22.1,63-58.1c18.5-38,43.3-36.4,59.6-20.3c16.5,16.1,43.8,58.2,24.3,129.9
	c-1.5,5.6-1.2,11.9,1.8,15.4c3.6,4.2,10.5,5,16.1,1.7c18.1-10.5,21.4-40.4,22.9-48.8c8.7-48.1-10.6-91.4-20.7-109.8
	c-5.8-10.5-12-26.6-18-43.7c-7.3-20.8-3.2-39.7,7.5-62c16.9-35.1,47.6-54.8,50.1-56.6c5-3.7,7.5-6.3,7.9-11.8
	c0.4-4.8-1.9-8.2-5.5-10.8c-1-0.7-2.1-1.3-3.3-1.8c-0.2-0.1-1.8-0.6-2.3-0.7c-1.6-0.3-3.2-0.5-5-0.5c-22.8,0.1-45.7,19.6-65.2,54.5
	c-20.5,36.9-46.1,34.1-61.6,17.1s-40.6-60.5-17.1-131c1.8-5.4,1.9-11.8-0.9-15.5c-3.3-4.4-10.2-5.5-16-2.6
	c-18.6,9.5-23.6,39.1-25.5,47.5c-11.3,47.5,6.1,91.6,14.7,110.7c2.8,6.2,6.6,13.1,10.4,20.6L134.2,777.9L134.2,777.9z M209.5,885.2
	c-4.4-4.3-9.1-6.7-13.4-6.7c-7.8,0-16.4,8.4-23.5,23c-4,8.1-8.2,15.6-12.6,22.3c12.8,1.9,25.5,1.5,36.5-2.2
	c11.4-4.1,21-10.4,28-15.9C218.9,895.2,212.9,888.5,209.5,885.2L209.5,885.2z M121,783.2c-1.5-2.9-2.9-5.7-4.3-8.4
	c-2.3-4.4-4.4-8.5-6.2-12.6c-0.5-1.1-1-2.2-1.5-3.3c-7.8-14.4-12-23.1-17.1-37.1c-10.7-29.2-7.3-66.4-7.3-66.4
	c1.1-7.5,0.2-12.7-2.7-16.5c-4.4-5.5-12.8-5.7-19.8,1.5c-11.8,12.3-11.6,50.3-11.6,50.3c3.1,49.4,16.1,81.9,28.4,101.2
	c-0.4-0.1-18.8-17.5-28.4-35.5C41.7,740.6,36.1,726,36.1,726c-2.1-5.7-5.2-10.3-9.3-12.5c-6.3-3.3-14-1.5-16.7,6.6
	c-5.1,15.2,11,49.7,11,49.7c19.7,37.8,39,59.5,55.9,73.8c0,0.1,0,0.1,0,0.2c-23.5-12.7-50.1-42.1-50.1-42.1c-4-4.4-8.1-7.9-12.4-9.1
	c-7.5-2-14.3,2-14.7,12.1C-0.3,821.3,26,849.8,26,849.8c24.9,24.3,45.5,38.4,65.9,49.9c0.4,0.2,3.3,1.6,7.1,3.4
	c17.7-15.3,29.3-39.4,31.5-66.3c1.6-18.7-1.6-37-9-52.9L121,783.2L121,783.2z"/>
</svg>
