<svg xmlns="http://www.w3.org/2000/svg" viewBox="0 0 1000 788" enable-background="new 0 0 1000 788"><path fill="#29A3C5" d="M766.5 104.5c61.1 65 82.8 159.3 77.5 248.3-6.2 104.8-48.1 208.7-123.3 281.9s-184.5 112.7-288 95.5c-103.5-17.2-197-94.4-225.3-195.4-20.1-71.7-8-148.6 11.6-220.5 10.7-39.3 24.1-78.9 49.5-110.7-6.1-.5-4.4-9.9-.9-14.9 56.2-78.4 138.5-140.4 232.8-160.5s200 6.1 266.1 76.3m-554.9 392C225.8 601.3 313.7 689.3 416.8 713s215.7-13.2 292.1-86.4S826.6 447.7 830.8 342c2.8-72.1-11.9-147.3-55.2-205-53.7-71.4-147.5-107.6-236.3-99.3C450.4 46 368 95.5 311.5 164.5s-88.2 156.3-99 244.9c-3.5 28.9-4.8 58.2-.9 87.1zM86.4 42.7c1.2-6.9 2.5-14 6.5-19.7 4.1-5.6 11.9-9.3 18.2-6.4 8.2 3.7 9 14.8 8.7 23.8-.9 22.6-1.7 45.1-2.6 67.7-.2 4.7 6.7 7 10.7 4.5 4.1-2.5 5.8-7.4 7.2-11.9 6.3-20.1 12.7-40.2 19-60.3 2.7-8.7 5.7-17.7 12-24.3 6.3-6.6 17.1-9.8 24.7-4.8 6.4 4.2 8.5 12.4 9.5 20 3.7 28.6-2.8 58.4-18.1 82.9-11.5 18.5-27.7 33.9-37.6 53.2-12.2 23.6-14 51.1-15.1 77.6-3.6 86.6-2 173.4 4.9 259.8 5.8 71.8 15.1 143.8 9 215.5-1.2 13.9-3.1 28.3-10.5 40.1-7.3 11.9-21.4 20.6-35.1 17.6-11.5-2.5-20-12.7-23.9-23.9-3.8-11.1-3.8-23.1-3.7-34.9 1.3-158 2.7-316 4-474 .2-23.1-.2-48-14-66.6-9.1-12.2-23-20.1-31.9-32.4-11-15.2-13-35-14.5-53.7-1.8-20.8-3.3-42.6 5.1-61.7 1.4-3.1 3.2-6.3 6-8.2 6.8-4.6 16.6.5 20.3 7.8s3.2 16 3.1 24.2c0 13.8 1.7 27.6 5 41 1.4 5.5 3.4 11.4 8.1 14.6 4.7 3.2 12.8 1.5 13.8-4.1 4-21 7.6-42.2 11.2-63.4m24.6-9.5c.4-3.8-5.4-5.7-8.5-3.5-3.1 2.3-4.1 6.5-4.7 10.3-4.6 25.5-9.2 51-13.8 76.4-2.3 12.8-21.9 14.8-31.3 5.8-9.4-9-11-23.2-12.1-36.1-1.5-17.4-2.9-34.7-4.4-52.1-4.8-3-9.1 4.7-9.6 10.4-1.9 19.9-3.8 40-.4 59.7 3.4 19.7 12.8 39.1 29.4 50.3 28.7 19.4 31.3 60 31 94.7l-4.5 470.1c-.1 9.2-.1 18.6 3.2 27.1 3.3 8.5 10.8 16.1 19.9 16.8 9.2.7 17.7-6 22.1-14.1 4.3-8.2 5.3-17.7 5.9-26.9 5.7-81.5-6.3-163.1-12.4-244.6-6.2-81.9-6.6-164.2-1.2-246.2 1.2-17.6 2.6-35.4 8.4-52.1 9.4-27 29.2-48.8 44.1-73.3 14.8-24.5 24.6-55.7 11.8-81.2-10.2.9-15.5 12.3-18.8 21.9L139 123.1c-3.8 11.2-21.9 10-28.8.4-6.9-9.6-6-22.6-4.7-34.4 1.6-18.5 3.5-37.2 5.5-55.9zM618.5 487.1c3.3 9.4 16.6 10.9 22 19.2 5.5 8.4.6 19.7-5.3 27.8-9.5 13-21.6 24.1-35.4 32.3-5.2 3.1-12.3.6-16.3-4s-5.5-10.8-6.7-16.8c-3.8-18-6.3-36.2-7.5-54.5-.6-9.1-.8-18.6 3.2-26.8 6.1-12.3 20-18.3 32.9-22.9 11.2-4 24.7 4.2 27.6 15.8 3 11.7-3.8 24.5-14.5 29.9m-6.8 20.6c-8.1 0-17.3.6-22.3 6.9-5.5 6.8-3.3 16.8 0 24.9 1.6 4.1 4.1 8.7 8.5 9.3 11-6.6 20.4-15.8 27.2-26.6 1.1-1.7 2.1-3.5 2.2-5.5.2-6.8-8.9-9-15.6-9m-13-18.1c7.5-6.7 14.1-14.4 19.5-22.8.7-1.1 1.4-2.3 1.6-3.6.7-4.9-5.7-7.6-10.6-7.3-12.3.7-23.6 10.1-26.7 22-1.7 6.6 1 15.9 7.9 15.9 3.2 0 5.9-2.1 8.3-4.2zM926.6 233.6c.4-1.7.7-3.6 0-5.3-1.9-4.6-8.6-3.3-13.4-4.5-6.7-1.7-10.5-9.2-10.2-16.1.3-6.9 3.7-13.2 7-19.2 6.2-11.5 12.5-22.9 18.7-34.4-5.2-6.4-14.5 3.4-22.8 3.9-6.5.4-11.9-5.8-12.9-12.3-1-6.4 1.3-12.9 3.8-18.9 12.6-31.1 30.1-60.1 51.8-85.7 6.2-7.3 13.3-14.7 22.7-16.6 9.4-1.9 20.9 4.6 20.4 14.2-5.4 118.4-10.8 236.7-16.3 355.1-.2 4.6-.4 9.3 1.2 13.6 1.5 3.9 4.3 7.2 6 11 2.1 5 2.1 10.7 1.9 16.2-2.3 93.3-4.5 186.5-6.8 279.8-.3 11.5-.7 23.5-6 33.7-10.1 19.3-38.8 25.7-56.2 12.6-19.3-14.6-20.1-42.9-19.1-67.1 2.9-69.9 5.9-139.8 8.8-209.7.6-15.1 1.3-30.6 6.5-44.8 2.8-7.8 5.5-19.3-2.2-22.3-12.4-4.8-17-20.8-14.3-33.8 2.8-13 10.9-24.1 17.3-35.8 4.8-8.6 7.1-22.3-2-26-15.6-6.3-16.1-28.9-8.5-43.9 7.8-15 20.8-27.4 24.6-43.7m-1-23.1c13.9 2.1 17.5 21.7 11.4 34.4-6 12.7-17.7 22.2-23.4 35.1-5.7 12.9-.8 32.5 13.2 33.4 7.6.5 7.1 12 4 19l-23.1 53.4c-3.7 8.6 5.5 16.9 13.1 22.5 7.6 5.6 15.1 16.5 8.5 23.3-8.6 8.8-9.7 22.4-10.3 34.7-3.5 75.3-7.1 150.5-10.6 225.8-.8 16.1-1.3 33.2 6.9 47s28.7 21.5 40.9 11c8.8-7.6 9.6-20.6 9.8-32.2 1.6-89.9 3.3-179.9 4.9-269.8.1-7.2.2-14.7-2.5-21.4-2.3-5.7-6.7-11-6.4-17.1 5.5-119.4 10.9-238.8 16.4-358.2.1-2.7.2-5.5-1.2-7.8-4.5-7.2-15.5-.5-20.5 6.3-22 29.6-41.1 61.4-56.9 94.8 7.8 2.2 15.7-2.3 23.4-4.9 7.7-2.7 18.2-2.5 21.6 4.9l-26.4 55.2c-1.2 2.5-2.4 5.7-.7 8 1.8 2.3 5.1 2.1 7.9 2.6zM525.3 249.9c.6 3.9 1.3 8.1-.4 11.6-1.7 3.6-6.8 5.7-9.7 3-13.1-12.1-24.1-26.4-32.4-42.2-4.7-9.1-9.1-19.2-18.1-24.2-4.4 4.4-2.8 11.8-1.2 17.9 3.8 14.3 6.1 28.9 6.8 43.7.1 1.6.1 3.3-.7 4.6-1.7 2.8-6.2 2.5-8.5.2s-3.1-5.7-3.7-9c-5.7-31-9.7-62.3-12.1-93.7 2.8-4.3 9.4-4.5 13.8-1.8s7.1 7.3 9.6 11.8c11.9 21.1 23.9 42.3 35.8 63.4 1.4 2.4 5.5 1.3 6.6-1.3 1.1-2.5.3-5.5-.4-8.2-1-3.8-1.6-7.6-2-11.5-.7-7.5-.2-15 .3-22.5.8-12.6 1.6-25.2 2.3-37.8.3-4.3.8-9.1 4.1-11.9 3.3-2.8 10-.8 9.4 3.5-5 34.5-4.9 69.9.5 104.4"/><path fill="#29A3C5" d="M642.2 239.1c.1-4.4-1.3-8.8-.7-13.1.6-4.2 2.8-7.9 4.8-11.5 6.3-11.7 10.2-24.6 11.6-37.7.5-4.6 8-4.7 10.5-.8 2.5 3.9 1.4 9 .2 13.4-2.7 10.2-5.4 20.3-8.1 30.5-2.2 8.4 7.3 14.7 15.2 18.2 4.7 2 9.4 4.1 14.2 6.1 4.1 1.8 8.4 3.6 12.8 3.6 4.5 0 9.3-2.3 10.8-6.5 5.6-16 11.2-32 16.9-48 1.6-4.5 5-10.1 9.6-8.7 4.8 1.4 4.3 8.4 2.7 13.2-10.9 32.8-21.9 65.6-32.8 98.5-1.5 4.6-5.1 10.3-9.6 8.7-3.9-1.4-4.1-6.7-3.3-10.7 1.7-8.6 5.1-16.8 9.8-24.2 1.7-2.7-1.8-5.6-4.8-6.8-9.3-3.9-18.7-7.9-28-11.8-6.6-2.8-15-5.3-20.3-.5-4.1 3.8-4.1 10-4.7 15.6-.6 5.5-3.2 12.1-8.8 12.6-5.6-4.3-5.7-12.8-3.6-19.6 1.9-6.9 5.6-13.4 5.6-20.5zM541.6 484.8c.4 1.2.5 2.4.5 3.6.6 27.7 1.2 56.2-8.5 82.2-3.1 8.2-7.8 16.6-16 19.7-9.1 3.5-19.8-1.3-25.8-9s-8.2-17.7-9.3-27.4c-2.7-22.7-.5-46 6.4-67.9 2.9-2.7 8-.5 9.6 3.1 1.6 3.6.8 7.8.1 11.7-3.1 16.7-4.3 33.7-3.5 50.7.3 6.7 1.1 14 5.7 19 4.5 5 14 5.8 17.3 0 13.4-23.3 13.5-51.8 12.6-78.7-.1-3.4 0-7.3 2.6-9.3 2.6-2.1 7.1-.9 8.3 2.3zM560.3 225.4c-.7 5.8-1 11.8.8 17.4 1.8 5.6 6 10.7 11.7 12.2 8.1 2.2 16.2-3 23-8 6-4.4 11.9-8.8 17.9-13.2 2.8-2.1 7 1.1 7.2 4.6.2 3.5-2.2 6.5-4.5 9.1-7.8 8.6-17 16.4-28.1 19.8-11.1 3.4-24.2 1.9-32.6-6.2-12-11.5-10.4-31.1-5.9-47.2 3.4-12 7.9-23.7 13.6-34.8 3.4-6.7 7.3-13.4 13.1-18 5.9-4.7 14.1-7 21-4 8.7 3.7 12.5 14.8 10.1 23.9-.4 1.5-1 3.1-2.4 3.9-2.7 1.5-5.9-1.4-7-4.3s-1.3-6.4-3.6-8.5c-4.7-4.3-11.9.8-15.7 6-10 14-16.4 30.3-18.6 47.3zM350.8 524.8c9.7-.7 18.1-8.7 27.8-7.7 3 7.3-4.5 14.8-11.8 17.8-14.3 5.8-32.2 3.5-42.8-7.6-8-8.4-11.1-20.6-10.5-32.2s4.7-22.7 9.5-33.3c4.5-10.1 9.8-20.2 18-27.7s19.7-12.1 30.5-9.5c10.8 2.6 19.6 13.8 17.2 24.6-.8 3.6-3.1 7.3-6.8 8-3.6.7-7.6-3.5-5.8-6.7 3-5.1-2.1-12-8-12.7-5.9-.7-11.5 2.7-16 6.6-10.9 9.1-19.1 21.4-23.5 34.9-3.1 9.5-4.3 20.1-.7 29.4 3.6 9.3 12.9 16.8 22.9 16.1zM416 169.7c9.5 20.9 15.5 43.4 17.6 66.3.7 7.9 1 16.1-1.3 23.7-2.3 7.6-7.7 14.7-15.2 17.2-8.9 3-19-.8-25.8-7.3-6.8-6.5-10.9-15.2-14.7-23.9-6.8-15.5-12.9-31.3-18.3-47.4-.4-1.2-.8-2.5-.6-3.8.5-3.5 5.5-4.7 8.5-2.9 3 1.8 4.5 5.3 5.8 8.6 7.7 20.3 14.2 42 29 57.9 1.9 2 4 3.9 6.6 4.6 4.4 1.1 9.1-1.8 11.4-5.7 2.3-3.9 2.7-8.7 2.8-13.2.5-19.2-3.1-38.5-10.6-56.2-1.5-3.6-3.2-7.3-2.8-11.1.3-3.8 3.8-7.6 7.6-6.8zM351.8 297.1c-6 2.7-11.5 6.5-16.2 11.1-2.9 2.8-7.9 2.3-11.1-.2-3.2-2.4-5.1-6.2-6.9-9.9-7.5-15.6-15.1-31.2-22.6-46.8-2.1-4.4-3.6-10.9.8-13 4.4-2.1 8.5 3.1 10.6 7.4 6.3 13 12.6 26 18.9 39.1 1.7 3.5 6 5.1 9.9 4.8 3.9-.3 7.5-2.1 11-4l16.2-8.4c4.7 1.5 5 8.5 2 12.3-3.2 4-8.2 5.6-12.6 7.6zM446.3 576.1c-13.8-2.7-27.6-5.4-41.3-8-3.9-.8-8.4-1.9-10.2-5.5-1.5-3-.6-6.7.5-10 8.5-27.2 17.1-54.3 25.6-81.5 1.2-3.9 2.7-8.1 6.3-10 3.6-1.9 9.3 1.1 8.2 5-7.6 24.9-15.2 49.7-22.8 74.6-1.7 5.5-2 13.5 3.6 14.8 9.4 2.2 18.8 4.3 28.2 6.5 3.4.8 6.9 1.7 9.4 4.1 2.5 2.4 3.2 7 .5 9.2-2.2 1.8-5.3 1.3-8 .8z"/></svg>