<svg xmlns="http://www.w3.org/2000/svg" viewBox="0 0 841.9 595.3" enable-background="new 0 0 841.9 595.3"><desc xmlns:shape="http://adobe.com/products/shape"><shape:version>1.0.1</shape:version><shape:captureDetail>0.750000</shape:captureDetail><shape:source>1</shape:source></desc><path d="M619.6 386.1c.5 24.1-5.1 48.3-16.2 69.7-6.5 12.5-17.1 25.2-31.1 25-6.5-.1-9.4 8.1-10.3 14.5-4.2 28.2-8.4 56.4-12.5 84.7-.2 1.3-2.4 1.4-3.2.4s-.7-2.6-.6-3.9c3.6-31.4 8.5-62.6 14.8-93.6.8-3.9-2.8-7.1-5.3-10.1-7.5-8.9-7.9-21.7-6.3-33.1 3.8-27.2 17.1-53 37.1-71.8 5-4.7 11.2-9.2 18-8.3 5.6.7 10.2 5.1 12.6 10.2 2.4 4.9 2.8 10.6 3 16.3m-12.7-21.6c-5.3-2.8-11.6 1-16 5.1-19.2 17.5-32.4 41.5-36.7 67.1-1.9 11.3-2 23.6 4.1 33.3 1.3 2 4.6 3.7 5.5 1.5 1.4-3.6 2.9-7.3 4.3-10.9.6-1.6 2.3-3.6 3.7-2.5.5.4.7 1 .7 1.6.5 3.2-1.6 6.1-3 8.9-1.4 2.9-2 6.9.6 8.8 2.2 1.6 5.3.6 7.7-.7 16.1-8.6 24.4-26.8 29.9-44.2 6-18.9 10-39.3 5.1-58.5-1-3.8-2.5-7.7-5.9-9.5zM278.7 302.4c-.5-18.9.2-37.8 2-56.6.2-2.4 1.5-5.6 3.8-5.1.9.2 1.5.9 2.1 1.5 5.4 6.2 8.6 14 11.8 21.6 3.5 8.4 6.9 16.7 10.4 25.1.5 1.2 1 2.4 2.1 3.1 1.1.7 2.9.3 3.2-.9 4.3-17.4 11.2-34.2 20.3-49.7.4-.7 1-1.5 1.8-1.5 1.2 0 1.7 1.6 1.7 2.8 1 20.5 2 41.1 3 61.6 0 .6.1 1.3-.2 1.8-.7 1.4-3 1.2-4 0s-1.1-2.9-1.2-4.5c-.6-13.4-1.2-26.7-1.7-40.1-.1-1.2-.3-2.7-1.5-3-1.3-.4-2.3 1.2-2.8 2.4-5.8 14.6-10.8 29.6-14.8 44.8-.3 1.1-1 2.5-2.1 2.4-.8-.1-1.3-1-1.6-1.8-7.5-17.9-15-35.7-22.4-53.6-3.4.9-4.1 5.3-4.2 8.8-.2 13.7-.5 27.3-.7 41 0 1.7-.5 3.8-2.1 4-2.1.5-2.9-2.2-2.9-4.1zM417.8 409.7l-.3 48.2c0 1.8-.1 3.8-1.5 5-2.3 2.1-5.9-.1-8.1-2.3-11.7-11.3-21.9-24-30.3-37.9-.7-1.1-2.6-.8-3.3.3-.8 1.1-.8 2.5-.7 3.8.3 12.1.6 24.2.9 36.2 0 1.8-2.8 2.4-4.1 1.1-1.3-1.3-1.4-3.3-1.4-5.1-.2-16.1-.3-32.3-.5-48.4 0-1.7 2.2-2.6 3.8-2.1 1.6.6 2.6 2.1 3.5 3.5 9.5 14.5 20.1 28.4 31.4 41.5.7.9 1.6 1.8 2.7 2 1.1.3 2.5-.4 2.5-1.6 0-13.4-.1-26.8-.1-40.2 0-1.9.1-3.9 1.4-5.3 1.1-1.2 4.1-.6 4.1 1.3zM351.8 384.3c-.6-17.1-.1-34.2.4-51.4.1-2.1.9-5 3-4.8 7.4 16 14.8 32.1 22.2 48.1.9 1.9 2.5 4.2 4.6 3.7.9-15.2 1.9-30.4 2.8-45.6.1-1.7.3-3.5 1.5-4.6 1.2-1.1 3.8-.5 3.7 1.2-1.4 20.6-2.8 41.1-4.2 61.7-3 .9-5.6-2.2-7.1-4.9-7.2-12.6-13.6-25.6-19.1-39-2.9.8-3.4 4.6-3.4 7.6.2 11.3.4 22.6.6 34-1.4.8-3.2-.1-4.1-1.4-.8-1.4-.9-3.1-.9-4.6zM408 70.9c8.3.6 17.1 1 24.2-3.2s11-14.9 5.3-20.9c-9.7-10.3-5.8-30 7.3-35.7 2.7-1.2 5.7-1.8 8.7-1.8 8.6.3 16.4 7.2 17.8 15.6 1.5 9.2-3.9 17.9-6.1 27s1.5 21.6 10.8 21.8c2.6 0 5.3-.9 7.6.3 1.7.9 2.7 2.8 3.5 4.6 20.6 43.8 41.3 87.6 61.9 131.4 3.4 7.2 3 15.6 2.5 23.6-6.7 107.4-13.4 214.9-20.1 322.4-.1 2.2-.3 4.5-1.6 6.4-2.1 3-6.3 3.5-10 3.7l-32.1 1.8c-7.5.4-15.6.6-21.7-3.7s-7.7-15.2-1.1-18.7c5.2 3.5-1 13.7 4.1 17.3 1.5 1.1 3.5 1.1 5.4 1l44.5-1.2c1.9 0 3.8-.1 5.3-1.2 2.3-1.6 2.7-4.8 2.8-7.6 6.3-107.3 12.7-214.6 19-321.9.1-2 .2-4.2-1.2-5.7-1.5-1.7-4-1.8-6.2-1.7-88.1.9-176.1 1.8-264.2 2.6-2.9 0-6.3.3-7.8 2.7-.9 1.3-.9 3-1 4.5-4.2 102.3-6.8 204.6-7.8 307-.1 6-.1 12.3 2.3 17.8s7.8 10.3 13.8 9.8c39.1-2.8 78.4-5.6 117.5-3.2 12.6.8 29.1-.6 32.1-12.9 4.4 1.4 4.4 8.4.9 11.5-3.5 3.1-8.5 3.3-13.2 3.5-48.4 1.1-96.9 2.3-145.3 3.4-2.9.1-6.2 0-8.3-2-2-2-2.3-5-2.4-7.9-1-23.7-1.9-47.4-2.9-71.1-13.3 5.9-14.7 24.2-11.9 38.5 2.7 14.3 7.2 30.2-.7 42.4-1.6-20.6-3.3-41.3-4.9-61.9-.4-4.9-2.1-11.2-7-11.5-12.5-.8-23.1-10.5-28.1-22s-5.2-24.5-4.1-37c.9-9.9 2.6-20.1 8.4-28.1 5.8-8 16.6-13.2 25.9-9.6 6.4 2.5 10.7 8.4 14.6 14 3 4.2 6 8.5 9 12.7 3.5-62 5.4-124.2 5.5-186.3 0-5.9-.3-12.6-4.8-16.5-3.3-2.9-.8-8.4 1.8-11.9 34.1-46.1 69.8-91 107.1-134.5 2.8-3.3 5.8-6.6 9.8-8.2 3.6-1.4 7.6-1.1 11.4-.9 8.2.5 15.9 1 23.7 1.5m-24.7 2.5c-2.9 0-5.9 0-8.6 1.2-2.4 1.2-4.2 3.3-6 5.4-37 44-74.1 88.1-106.9 135.3-1.1 1.6-2.2 3.5-1.4 5.3.9 1.8 3.4 2.1 5.4 2.1 92.7-.1 185.3-1 278-2.6.8 0 1.6 0 2.3-.4 2.3-1.2 1.3-4.6.1-6.9-22.9-43.1-43.7-87.3-62.3-132.5-1.1-2.8-4.7-3.7-7.7-3.6s-6.1.9-9-.1c-5-1.6-7.2-7.6-7.3-12.8 0-5.3 1.3-10.6.4-15.7-.9-5.2-5.4-10.4-10.6-9.4-4.7.9-7.1 6.3-7.2 11.1-.1 4.8 1.4 9.5 1 14.3-.4 4.8-3.7 9.9-8.4 9.9-17.1-.3-34.5-.4-51.8-.6M214.8 407.2c-8.9 6.7-12.7 18.2-14 29.3-1 8.9-.6 18 1.2 26.8 1.4 7 3.8 14 8.1 19.7s10.7 10.2 17.8 10.9c2.2.2 5.2-.9 4.7-3-.9-4.2-1.9-8.3-2.8-12.5-.3-1.2-.3-3 .9-3.3.5-.1 1 0 1.4.3 3.4 1.7 3.6 6.4 4.1 10.2.5 3.8 3.5 8.4 7.1 7 5.5-2.1 7.3-8.8 8.2-14.5 3.3-23.1.3-48.5-14.7-66.5-3.4-4-7.8-7.8-13.1-7.9-3.1 0-6.3 1.5-8.9 3.5M435.6 29c-.6 3 1.8 5.9 4.7 6.9 2.9 1 6 .5 9 0s6.2-.9 9 .1c2.3.8 5.1 2.5 6.9.8 3.6-3.4 2-10.5-2.7-12-3.2-1-6.6.3-9.9.4-3.2.1-6.4-1-9.6-1-3.1.1-6.8 1.7-7.4 4.8m10.6-13.3c-.5.5-.9 1-.9 1.7s.5 1.4 1 1.8c2.7 2.5 6.7 3.4 10.2 2.2 1.1-.4 2.1-.9 2.8-1.8 2.2-2.7-.3-7.2-3.8-7.9s-6.9 1.5-9.3 4zM420.8 482.2c11.5 15.8 24.1 30.9 37.5 45.2 2.4-1.1 2.7-4.3 2.7-7-.1-10.6-.1-21.1-.2-31.7 0-2.9.6-6.6 3.4-7.2 2 1.6 2.1 4.5 2 7.1l-.9 39.2c-.1 3.2-1.2 7.5-4.4 7.5-1.6 0-2.9-1.3-4-2.4-10.3-10.8-20.1-22.2-29.3-34-.8-1-2.6-.6-3.3.5-.7 1.1-.7 2.5-.6 3.8.6 12.1 1.2 24.2 1.8 36.4 0 1 .1 2.2-.6 3-1.1 1.3-3.4.8-4.4-.6-1-1.4-1.1-3.2-1.1-5l-1.2-48.8c-.2-2.5.2-5.6 2.6-6zM342.5 408.8c7.3 6.6 11.6 16.3 11.7 26.1 0 6-1.5 12-3.6 17.6-1.5 4-3.3 8.1-6.4 11.1-6.4 6.2-17.3 6.2-24.6 1.2-7.4-5-11.3-14.1-11.5-23-.2-8.9 2.9-17.6 7.2-25.4 3.5-6.3 9-12.8 16.2-12.7 4.1-.1 7.9 2.3 11 5.1m-7.1 55c2.3-.9 4.3-2.5 5.9-4.4 2.9-3.4 4.7-7.6 5.9-11.9 2-7.4 2.6-15.3.3-22.6-2.2-7.3-7.4-13.9-14.5-16.8-3.2-1.3-6.5 1.3-8.7 4-9.2 11-14.2 26.6-8.9 40 1.6 4 4.1 7.7 7.7 10.1 3.6 2.3 8.3 3.2 12.3 1.6zM394.5 247.4c0-1.3 0-2.6.7-3.7s2.4-1.6 3.3-.7c.6.6.7 1.5.7 2.4.5 14 .1 28.1-1.4 42.1-1 9.4-3.4 20.3-11.9 24.4-4.8 2.3-10.5 1.8-15.8 1.1-4-.6-8.2-1.4-11.4-3.9-6.3-4.7-7.1-13.7-7.2-21.5-.2-13.1-.1-26.2.4-39.4.1-1.6.2-3.4 1.4-4.5s3.7-.6 3.7 1l-.3 41.9c0 7.3.5 15.8 6.6 19.8 2.3 1.5 5.1 2.1 7.8 2.7 2.8.5 5.6 1 8.4.4 4.6-.9 8.2-4.7 10.2-9s2.5-9.1 2.9-13.7c1.3-13.2 1.9-26.3 1.9-39.4zM294 390.2c2.7 2 6.9 3.1 8.9.5 1-1.3 1-3 1-4.6 0-5.5.1-11 .1-16.5 0-3.9-.9-9-4.8-9.4-1.2-.1-2.8.1-3.3-1-.7-1.5 1.6-2.4 3.2-2.5 3.3 0 7.2.3 8.9 3.1.9 1.5.9 3.4.9 5.2v24.5c0 .8 0 1.7-.3 2.5-.7 1.9-2.7 3-4.6 3.6-6.5 1.7-13.6-1.2-18.1-6.2-4.5-4.9-6.9-11.5-8.1-18.1-1.9-10.5-1.3-21.4 1.8-31.6 2.2-7.1 6.6-14.7 14-15.7 4.6-.6 9.3 1.7 12.4 5.2 3.1 3.5 4.7 8.1 5.4 12.7-1.3.1-2.7.2-4 .4-1.4-5.5-4.8-10.5-9.4-13.9-.8-.6-1.7-1.2-2.7-1.1-.8 0-1.6.5-2.2.9-9.1 6.3-11.2 18.7-11.2 29.8.1 11.8 2.5 25.2 12.1 32.2zM449.3 363.9c3 9.1 6.1 18.1 9.1 27.2.5 1.5-1.7 2.7-3.1 2-1.4-.7-2-2.3-2.5-3.8-3-8.9-5.9-17.9-8.9-26.8-1-3-5.7-2.9-7.7-.5s-2.2 5.8-2.2 9v16.7c0 2-.7 4.6-2.6 4.5-1.9-.1-2.4-2.6-2.4-4.5.1-5 .1-9.9.2-14.9.1-12.8.3-25.5.4-38.3 0-1.9.1-4 1.2-5.5 2.3-3.1 7.1-2 10.9-2.7 6.4-1.2 13.1 3.3 15.2 9.4 2.1 6.1 0 13.3-4.4 18-1.6 1.7-3.6 3.4-4 5.7-.2 1.5.3 3 .8 4.5M434 351.8c0 1.1 0 2.2.4 3.1.7 1.5 2.6 2.3 4.3 2.3 1.7-.1 3.3-.8 4.8-1.7 4.5-2.8 8.3-7.2 9.1-12.5.8-5.2-1.9-11.2-6.9-12.9-5-1.8-11.5 2-11.5 7.3-.1 4.8-.2 9.6-.2 14.4zM494.3 509.8c3-.9 6.3-1.1 9.4-.6 1 .2 2.1.5 2.9 1.2 1.6 1.4 1.5 3.8 1.4 5.9-.5 5.7-1.2 11.4-2 17.1-.3 2.2-.7 4.5-1.7 6.5-3.1 5.8-11.6 7-17.3 3.8s-9-9.6-10.7-15.9c-2.9-10.6-2.1-22.2 2.1-32.3 3.1-7.6 9.3-15 17.5-15.4 4.7-.2 9.5 2.1 12.1 6 .9 1.3 1.6 3 .9 4.4-.7 1.4-3.3 1.6-3.6 0-1-4.8-7.1-7.2-11.7-5.7-4.7 1.5-7.9 5.8-10 10.3-3 6.6-4.1 14-3.9 21.2.1 7.6 1.7 15.6 6.8 21.2 2.9 3.2 8 5.4 11.4 2.8 2.2-1.7 2.8-4.7 3.3-7.5.5-3.4 1.1-6.7 1.6-10.1.3-2.1.7-4.3.2-6.4-.5-2.1-2.2-4.1-4.3-4.3-1-.1-2 .2-2.9 0-1.1-.3-2-1.4-1.5-2.2zM483.3 379.9c-6.1-1.8-13.3 2.6-14.4 8.9-.4 1.9-.3 4.1-1.6 5.6s-4.6.5-4-1.4c3.8-11.2 5.1-23.1 8.2-34.6 1.1-3.9 2.4-7.8 3.7-11.7 1.3-4 2.6-7.9 4-11.9.5-1.6 1.2-3.4 2.6-4.3 1.1 2.9 1.7 6 2.3 9.1 3.4 17.3 6.8 34.6 10.1 51.9.1.7.3 1.5 0 2.1-.7 1.7-3.4 1.2-4.4-.3-1-1.5-.8-3.5-.9-5.3-.1-2.7-1.1-5.5-3.3-7.1-.8-.4-1.5-.8-2.3-1m-1.3-25.6c-.4-1.9-1.1-4.1-3-4.4-2.7 6.6-4.7 13.5-5.9 20.5-.3 1.6-.4 3.4.6 4.7 1 1.2 2.8 1.5 4.4 1.6 2.6.2 5.7.2 7.1-2 .9-1.5.5-3.4.2-5.1-1.2-5.1-2.3-10.2-3.4-15.3zM441.1 449.5c-3.9 3-4.2 8.8-6.5 13.1-.5 1-1.2 2-2.3 2.3-1.1.4-2.5-.2-2.6-1.3-.1-.5.1-.9.2-1.4 6-17.1 12.1-34.2 18.1-51.3.7-2 1.8-4.4 3.9-4.6 6.8 18.2 10.2 37.9 20.2 54.6.7 1.1-.5 2.6-1.8 2.7-1.3.1-2.4-.8-3.2-1.8-3.2-3.8-3.2-9.9-7.2-12.9-2.6-1.9-6.2-1.9-9.5-1.8-3.2.3-6.7.5-9.3 2.4m15.9-12.1c-1.3-3.8-2.5-7.5-3.8-11.3-.8-2.2-1.6-4.6-3.5-6-2.7 6.2-4.9 12.5-6.7 19-.2.8-.5 1.7-.3 2.6.6 2.3 3.5 2.7 5.9 2.7h5c.9 0 1.8 0 2.6-.5 2-1.1 1.6-4.2.8-6.5zM359.5 537.8c-6.9-16.8-12.5-34.3-16.6-52 .9-1.2 2.8-1 3.9 0s1.5 2.5 2 3.9c3.5 11.9 6.9 23.8 10.4 35.6.4 1.4.9 2.9 2.1 3.9 1.2.9 3.3.7 3.7-.7 4.7-14 9.6-27.9 14.7-41.7.5-1.4 1.1-2.9 2.5-3.5 1.3-.6 3.4.5 2.9 1.9-6 17.6-12.2 35.2-18.6 52.6-.6 1.6-1.5 3.5-3.3 3.6-1.8.1-3-1.9-3.7-3.6zM326 375.2c.1 2 .2 3.9.4 5.9.1 2.2.4 4.6 1.9 6.1 3.5 3.4 9.8-.4 14.2 1.7v2.5c-3.9.4-7.8.7-11.7 1.1-2.5.2-5.3.4-7.1-1.3-1.8-1.6-1.9-4.3-2-6.7-.4-15.2-.7-30.5-1.1-45.7-.1-2.2-.1-4.6.6-6.7s2.5-4.1 4.7-4.4c3.1-.5 6.3-.9 9.4-1.4 1.1-.2 2.3-.3 3.3.1 1 .5 1.7 1.8 1.1 2.7-5.1.2-11.1 1.2-13.1 5.8-.7 1.7-.7 3.6-.8 5.4 0 3.4 0 6.7-.1 10.1 0 2.8.2 6.1 2.4 7.8 3.2 2.4 8.3-.1 11.7 2.2-.1.7-.3 1.4-.4 2.2-2.3 1.5-5.4-.2-8.1.3-2.4.4-4.2 2.6-4.9 4.9-.7 2.4-.6 4.9-.4 7.4zM404.6 380.6c-.1 2.9-.4 6.3 1.7 8.2 3.2 2.9 8.2-.4 12.5-.3 1 0 2.1.3 2.7 1.1.7.8.6 2.2-.3 2.6-.4.2-.8.2-1.2.2-4.8.2-9.7.4-14.5.6-1.3.1-2.7.1-3.8-.6-1.9-1.2-2.1-3.9-2.1-6.2.3-16.5.5-33 .8-49.5 0-2.7.2-5.6 2-7.6s4.7-2.4 7.3-2.7c2.8-.3 5.5-.7 8.3-.4.5 0 1 .1 1.4.4 1.2.9.1 3-1.3 3.3s-3-.2-4.5-.2c-3.2-.1-6 2.5-7.3 5.4-1.3 2.9-1.4 6.2-1.5 9.5 0 2.1-.1 4.2-.1 6.3-.1 3.6.5 8.2 3.9 9.3 1.5.5 3.1.1 4.7 0s3.4.3 4.1 1.7c.7 1.4-1 3.5-2.3 2.6-3.3-2.4-8.1.5-9.6 4.2-1.4 3.8-.8 8-.9 12.1zM469.3 241.6c5.4.6 10.9.4 16.3-.6 3.7-.7 8.1-1.4 10.5 1.4-3.6 4.2-11.1.7-15.8 3.5-3.7 2.2-4.3 7.3-4.4 11.7-.6 16.2-1.1 32.4-1.7 48.7 0 .9-.1 1.8-.7 2.4-1 1-2.8.4-3.5-.8s-.7-2.6-.6-4c.7-17.4 1.4-34.9 2.1-52.3.1-1.3.1-2.6-.4-3.8-1.4-3.4-6.2-3.6-9.9-3.1s-8.3.7-10.2-2.5c5.5-2.8 12.1-1.2 18.3-.6zM420.8 309c-2 0-4.1 0-5.7-1.2-1.9-1.5-2.2-4.4-2.2-6.8-.4-18 0-36 1.1-53.9.1-1.7.3-3.6 1.6-4.7s3.9-.5 3.9 1.2c-.5 18.5-.9 37-1.4 55.6-.1 3.6 3.9 6.2 7.5 6.3s7.1-1.2 10.8-1.6c3.6-.4 7.9.7 9.4 4-2.3.7-4.6.7-7 .8-6.1 0-12.1.2-18 .3zM503 331.5c8.7-.2 17.4-.3 26.1-.5 1.2 0 1.8 1.7 1.1 2.7-.7 1-2.1 1.2-3.3 1.1-1.2-.1-2.4-.5-3.6-.5-2.8 0-5.2 2.2-6.3 4.8s-1.1 5.5-1.2 8.2c-.2 13.6-.3 27.2-.5 40.8 0 2.2-.9 5.1-3 4.8-1.7-.3-2.2-2.5-2.2-4.3-.2-14.7.3-29.4 1.5-44 .3-3.1.3-6.9-2.2-8.8-3.9-2.9-11.2.7-13.5-3.5 2.3-.7 4.7-.8 7.1-.8zM514.5 466.2c-3.4.1-6.7.1-10.1.2-4.7.1-9.5.2-14.2-.7-1.4-.3-2.9-.7-3.8-1.7-1.1-1.2-1.1-3-1.1-4.7 0-4.5.1-9 .1-13.6.1-5.7.1-11.4.2-17.1 0-5.4.1-10.7.7-16.1.2-1.5.5-3.1 1.6-4 1.2-.9 3.4-.3 3.4 1.2-.4 15.1-.7 30.2-1.1 45.3 0 1.9-.1 3.9 1 5.4 1.5 2.3 4.7 2.7 7.4 2.7 2.9 0 5.7-.2 8.6-.6 3-.4 6.8-.7 8.2 2-.2.6-.5 1.1-.9 1.7zM290.5 544.9c-1.1 0-2.3.1-3.2-.5-1.3-.8-1.6-2.6-1.8-4.1-.5-4.2-.6-8.4-.8-12.7-.4-11.4-.8-22.9-1.2-34.3-.1-1.7-.1-3.5.6-5s2.6-2.7 4.2-2.1c.8 15.1 1.3 30.3 1.3 45.5 0 2.5.1 5.3 1.7 7.3 2.2 2.6 6.2 2.7 9.5 2.1s7-1.4 10.1.1c1.2.6 2.3 1.9 1.7 3-7.4.2-14.7.5-22.1.7zM516.5 241.6c2 1.2 2.2 4 2.1 6.3-.8 19.5-1.6 39-2.5 58.5-.1 1.4-.2 2.9-1 4-.9 1.1-2.8 1.5-3.6.3-.4-.6-.4-1.4-.4-2.1.5-19.7 1.2-39.4 2.3-59.1.1-2.9.5-6.4 3.1-7.9zM291 408.6c-1.4 8.5-.9 17.2-.5 25.8.4 9 .9 18.1 1.3 27.1.1 1.3.1 2.6-.5 3.7s-2.1 1.9-3.2 1.2c-1.6-3-1.8-6.5-2-9.8-.7-14.6-1-29.2-1.1-43.8 0-2 .1-4.3 1.6-5.7 1.6-1.4 4.8-.5 4.4 1.5zM401.2 539.4c.1 1.8-2.8 2.4-4.1 1.2-1.3-1.2-1.4-3.3-1.5-5.1-.3-15.6.2-31.2 1.3-46.8.1-1.7.3-3.5 1.6-4.6 1.3-1.1 3.8-.4 3.7 1.2-1.4 18.1-1.7 36.1-1 54.1zM332.5 487.3c-.3 17.3 0 34.6.8 51.9 0 .7.1 1.5-.4 2.1-.7 1.1-2.5.8-3.4-.2-.8-1-1-2.4-1.1-3.6-1.5-15.5-1.5-31.1-1-46.6.1-1.6.2-3.4 1.4-4.6 1.2-1.1 3.7-.6 3.7 1z"/></svg>