<svg xmlns="http://www.w3.org/2000/svg" viewBox="0 0 1000 787.4" enable-background="new 0 0 1000 787.4"><desc xmlns:shape="http://adobe.com/products/shape"><shape:version>1.0.2</shape:version><shape:captureDetail>0.750000</shape:captureDetail><shape:source>1</shape:source></desc><path fill="#2BC22B" d="M573.8 270.1c6.4-.4 12.8-.8 19.2-1.3 3.6-.2 7.4-.4 10.6 1.2 6.5 3.2 7.6 11.8 7.9 19 1.4 32.4 2.8 64.9 4.2 97.3 11.2-32.1 22.3-64.2 33.5-96.4 1.5-4.3 3.3-8.9 7.3-11.1 3.3-1.8 7.4-1.3 11.1-.8 9.9 1.3 22.3 5.1 23.1 15 2.5 29.4 5 58.7 7.4 88.1.4 5.3 3.4 12.5 8.5 10.9 2.6-.8 3.9-3.8 4.8-6.4 9.9-28.3 19.7-56.7 29.6-85 3.9-11.2 15.9-17.9 27.7-19.1 11.8-1.2 23.5 2.1 34.9 5.3 3.2.9 6.7 2 8.6 4.8 2.5 3.8.8 8.9-.9 13.1-35 84.2-69.9 168.3-104.8 252.3-1 2.5-2.2 5.1-4.6 6.3-1.5.7-3.2.8-4.8.7-11.6-.8-21.3-9.9-26.1-20.5-4.9-10.5-5.8-22.4-6.7-34l-4.5-60.6c-.4-5.7-1.9-12.7-7.5-14-10.4 35.8-20.7 71.6-31.1 107.4-11.7-5.4-23.3-10.9-35-16.3-7.1-3.3-15.2-8.1-15.7-15.9-4.1-73.1-8.1-146.2-12.2-219.4-.4-6.6-.2-14.3 5.2-18.1 3-1.9 6.7-2.2 10.3-2.5m2.7 17.3c-3 3.3-2.9 8.2-2.7 12.6 3.1 60.1 6.1 120.1 9.2 180.2.5 10.3 1.4 21.6 8.5 29.1s22.6 7 25.4-2.9c8.7-31.2 17.4-62.3 26.1-93.5 1.9-6.7 4.1-14 9.9-18 5.8-4 15.9-1.6 16.5 5.3 3.7 39.5 7.4 79.1 11.1 118.6 1.1 11.4 5.8 26.3 17.2 25.9 31.2-76.6 62.5-153.2 93.7-229.8 4.6-11.3-12.1-21.7-23.2-16.7-11.2 5-16.5 17.5-20.8 29-11.8 31.4-23.7 62.8-35.5 94.2-2.2 5.9-11.1 6.3-15.9 2.3-4.8-4-6.4-10.6-7.7-16.7-7.3-34.5-11.4-69.6-12.3-104.8-.1-5.5-8.1-7.8-12.8-4.9-4.7 3-6.7 8.7-8.3 13.9-10 31.5-19.9 63-29.9 94.6-1.8 5.6-10.4 5.7-14.4 1.6-4.1-4.2-4.8-10.5-5.2-16.3-2.3-27.6-4.5-55.2-6.8-82.9-.5-6.4-1.2-13.3-5.2-18.4-4-5-12.5-7.1-16.9-2.4"/><path fill="#2BC22B" d="M192.8 684.9c-3.6 2.3-7.7 4.8-11.9 3.8-8.3-2-7.8-13.9-5.4-22.1 13-43.5 26.1-87 39.3-130.4-49-.8-98.1-1.5-147.1-2.3-6.7-.1-15.8-2.6-15.3-9.3.2-3.2 2.9-5.7 5.3-7.8 23.9-20.6 47.9-41.1 71.8-61.7-38.2-12.5-75.6-27.4-112-44.5-5.4-2.5-11.8-8-8.7-13.2 1.4-2.4 4.3-3.3 7-4 36.9-10.1 73.8-20.2 110.6-30.2C87.3 315 56.7 259.8 36.6 201c38-3.7 77.2 5.3 109.8 25.2 6.5 4 15.5-.2 19.4-6.7 3.9-6.5 4.2-14.5 4.3-22.1.8-39.3 1.6-78.7 2.3-118 .1-6.6 8.6-10.4 14.9-8.4 6.3 2 10.7 7.6 14.7 12.9 25.3 33.7 50.5 67.4 75.8 101.1C294.1 125.9 308 66.2 319.5 6c44.7 39.7 47.7 110.6 88 154.7 14.5-44.2 25.3-89.6 32.3-135.5 7-3.8 13.9 5.3 16.8 12.8 15 38.9 30 77.8 45.1 116.6 2.9 7.4 13.9.9 18.1-5.8 16.7-27 33.4-53.9 50.1-80.9 7.3 37.1 14.6 74.3 21.9 111.4 36.7-36.3 73.3-72.7 110-109 6.1-6.1 20.5-8.8 19.6-.2-4.3 39.1-8.6 78.1-12.9 117.2-.9 8.4 3.6 21.1 11.2 17.4 36.6-18 73.1-36.1 109.7-54.1 6.7-3.3 17.2-5.1 19.4 2 1 3.3-.7 6.8-2.3 9.8-10.6 19.4-21.1 38.8-31.7 58.3-3.9 7.2 6.6 13.4 14.7 14.8 54.3 10.1 108.6 20.1 162.8 30.2-37.1 27.6-77.5 50.8-120.2 68.9 34.6 27.4 69.1 54.9 103.7 82.3 2.5 2 5.2 4.4 5.1 7.6-.1 4.6-5.8 6.6-10.3 7.5l-131.7 24.3c24.3 46.2 48.6 92.3 72.9 138.5 3.7 7 2.1 20.3-5.1 17.1-38.7-17.6-80.2-29.3-122.5-34.4 10.2 49.2 20.5 98.5 30.7 147.7 1.6 7.8 1.5 18.6-6.3 20.5-35.4-30.7-70.7-61.3-106.1-92-2.7-2.3-5.7-4.8-9.2-5-7.2-.4-11.3 7.9-13.5 14.8-12.2 39.1-24.4 78.3-36.7 117.4-8.8 1.7-14.4-8.9-17-17.4-14.8-48.9-29.5-97.9-44.3-146.8-25.3 38.8-50.6 77.7-78.6 114.6-15.8-38.5-26.8-79-32.8-120.2-1.5-10.4-6.3-23.9-16.7-22.7L391.6 715c-1.9 3.8-4.4 8.2-8.6 8.7-5.9.8-9.6-5.9-11.6-11.5C357.7 672 347 630.8 339.5 589c-48.9 31.9-97.8 63.9-146.7 95.9M141.1 356c4.3 5.1 8.7 12.7 4.2 17.6-1.7 1.9-4.4 2.7-6.9 3.4-33.5 9.1-67.1 18.1-100.6 27.2 35.8 13.8 71.6 27.6 107.3 41.4 4.2 1.6 9.2 4.5 8.7 9-.3 2.5-2.3 4.4-4.2 6-22.8 19.8-45.6 39.6-68.3 59.3 43.1-.1 86.3-.3 129.4-.4 10.6 0 25.5 5.6 21.8 15.5-15.6 42.3-28.7 85.6-39.3 129.5 50.5-26.4 98-58.7 140.9-96.2 4.8-4.2 12.8-1.5 16.5 3.6 3.7 5.1 4.3 11.8 5 18.1 4 35.9 14.2 71 30 103.5 21.9-44.7 43.8-89.4 65.7-134 1.7-3.4 3.8-7.2 7.5-8.1 6.4-1.4 10.5 6.4 12.2 12.7 11.9 44.2 23.8 88.3 35.7 132.5 28-31.4 51-67.3 67.9-105.9 1.9-4.3 8.4-4.6 12.1-1.7 3.7 2.9 5.3 7.7 6.7 12.2 14.4 46.4 28.7 92.8 43.1 139.3 13.5-36 27-72 40.5-108.1 1.2-3.1 2.6-6.5 5.6-7.9 4-1.9 8.6.8 12.3 3.4 30.8 22 59.2 47.5 84.4 75.8 4.5 5.1 13.1 10.2 17 4.6-9.1-44.2-18.2-88.3-27.3-132.5-1.7-8.2.9-20.9 9-18.8 32.4 8.4 64.8 16.9 97.2 25.3 2.1.6 4.5 1.1 6.4 0 3.9-2.2 2.3-8.1.2-12.1-21.1-39.5-42.2-78.9-63.3-118.4-3.1-5.8 5.5-10.6 12-11.6 40-6.4 79.9-12.8 119.9-19.2-34.5-29.7-69.1-59.4-103.6-89.1 36.9-17.8 73-37.2 108.2-58-46.8-8.3-93.6-16.6-140.4-24.8-8.4-1.5-18.6-4.5-20.4-12.9-1.1-5 1.4-10.1 3.9-14.6 9.1-16.8 18.2-33.7 27.3-50.5-43.4 19.6-86.8 39.1-130.2 58.7-.6-45.6 2.2-91.3 8.5-136.5-41.7 34.6-80.3 72.9-115 114.5-13.9-30.9-22.8-64.1-26.4-97.8-16.2 23.3-32.3 46.7-48.4 70-2.2 3.2-5.2 6.8-9.1 6.7-4.4-.2-7-5-8.6-9.1-16.2-40.1-32.3-80.1-48.5-120.2-8.8 39-17.7 77.9-26.5 116.9-1.8 7.9-12.8 10.4-19.9 6.5-7.1-3.9-11.1-11.6-14.6-18.8-18.7-38.1-37.4-76.2-56-114.3-19 57.9-30.5 118-41.9 177.9-31.9-42.9-63.9-85.9-95.8-128.8-4.2-5.6-16.2-8.5-15-1.6 9.6 1.8 11.3 14.7 10.7 24.4-2.4 38.9-4.7 77.8-7.1 116.7-.5 8.1-6.1 19.4-13.2 15.4-34.7-19.6-73.2-32.4-112.8-37.4 20.7 51 49.9 99.1 85.5 141.7zM270.4 518.8c-5.7-1.9-8.1-8.5-9.7-14.3-18.8-67.1-33.1-135.4-42.9-204.4-.6-4.2-1.1-9 1.5-12.4 1.9-2.5 5-3.7 8-4.7 13-4.6 26-9.2 38.9-13.8 17.5-6.2 34.4 11.1 42.6 27.8 8.2 16.7 15.5 36.8 32.9 43.2-3.3-26.9-6.6-53.7-9.9-80.6-.5-4.2-.9-8.9 1.6-12.3 2-2.7 5.5-3.9 8.7-4.9 12.2-3.8 24.6-7 37-9.7 2.2-.5 4.6-1 6.8-.5 6.9 1.6 8.4 10.7 8.4 17.8.4 88.5 7.2 176.9 20.4 264.4 2 13.1-16.1 21.7-28.3 16.4-12.2-5.2-19.1-18-25.5-29.6-18.5-33.8-40.1-65.9-64.6-95.7 6.5 31.5 13.1 63 19.6 94.5.7 3.3 1.3 7-.7 9.6-1.7 2.3-4.8 3.1-7.7 3.6-9.2 1.8-18.5 3.7-27.7 5.5-2.9.6-6.3 1.2-9.4.1m-4.1-43.4c1.4 7.3 3 14.8 7.8 20.5 4.7 5.7 13.7 8.6 19.7 4.3 6.9-5 6-15.4 4.3-23.7-5.3-26.6-10.7-53.1-16-79.7-1.8-9.2-1.5-22 7.7-23.9 38.6 46.3 73.4 95.7 103.9 147.7 8.1-7.2 7-20 5.3-30.8-11.2-71-17.4-142.8-18.4-214.6-.1-10.1-1.9-22.7-11.5-25.8-7.7-2.5-16 3.5-19.1 10.9-3 7.5-2.2 15.9-1.3 23.9 2.8 24.8 5.6 49.6 8.5 74.4.9 7.7-1.9 19.1-9.5 17.4-2.6-.6-4.5-2.8-6.2-4.8-20.2-24.4-38.5-50.4-54.6-77.6-4-6.7-12.7-9.5-20.5-8.6-7.8.8-14.9 4.6-21.9 8.3-3.8 2-7.7 4.2-9.7 8-2.3 4.3-1.4 9.5-.4 14.2 10.6 53.2 21.3 106.5 31.9 159.9zM482.2 424.4c.8 3.6 1.6 7.4 4.1 10.2 5.9 6.7 16.6 4 25.3 2.3 8.8-1.7 21 1.1 21.1 10 0 11.7.1 23.4.1 35.1 0 4.3-.4 9.4-4.1 11.7-2.1 1.3-4.8 1.2-7.3 1.1l-60-2.7c-5.7-.3-11.6-.6-16.4-3.7-7.9-5.1-9.7-15.8-10.7-25.1-6.8-62-11.7-124.1-14.7-186.4-.3-6.4-.4-13.6 3.8-18.5 3.6-4.1 9.3-5.5 14.6-6.7l80.7-17.7c4.3-.9 9.5-1.6 12.3 1.8 1.7 2 1.9 4.9 1.9 7.6.4 12.5.7 24.9 1.1 37.4.3 9.3-9.4 16-18.5 17.9-9.1 2-18.9 1.2-27.5 4.9-8.6 3.7-15.3 14.6-10.1 22.3 4.8 7.1 15.3 6.2 23.7 5 8.5-1.2 19.4-.7 22.6 7.3 1 2.4 1 5.1 1 7.7 0 7.9-.1 15.8-.1 23.7 0 4.7-.2 9.9-3.5 13.3-6.6 7-18.5.6-27.8 3-7.2 1.9-12 9.1-13.3 16.5-1.4 7.2.2 14.7 1.7 22m-12.7-77.7c-2.5-2.4-3.6-5.9-4.5-9.3-2.7-9.8-5.3-20.1-3.4-30.1s9.9-19.6 20.1-19.8c11-.2 23.1-.3 31.7-7.2s8.8-23.9-1.8-26.9c-3.5-1-7.2-.3-10.7.5-16.3 3.4-32.7 6.8-49 10.2-8.2 1.7-18.5 5.9-17.9 14.3 3.6 56.4 7.2 112.8 10.9 169.2.6 9.7 2.1 21 10.4 26.1 7.7 4.8 17.6 2 26.6 2 7.7 0 15.5 2.3 23.1.8 7.6-1.5 14.9-9 12.2-16.3-2.7-7.2-12.6-8.1-20.2-6.7-7.6 1.4-16.3 3.7-22.4-1-5.4-4.1-6.3-11.8-6.7-18.6-.9-15-1.8-29.9-2.7-44.9-.5-7.6 2.4-18.4 9.9-17.1 9 1.6 18.8 3.2 26.9-1.2 8.1-4.3 11.6-17.3 4.2-22.6-10.4-7.6-27.4 7.3-36.7-1.4z"/></svg>