<svg xmlns="http://www.w3.org/2000/svg" viewBox="0 0 383 141.8" enable-background="new 0 0 383 141.8"><path fill="#FEDB48" stroke="#000" stroke-width="2" stroke-miterlimit="10" d="M1.2 1.2H382v139.4H1.2z"/><path d="M112.5 23.4h-4.8V18h15v5.4h-4.8V60h-5.4V23.4zM125.7 25.8h5.4v14.6h4.6V25.8h5.4V60h-5.4V45.8h-4.6V60h-5.4V25.8zM159.8 60h-13.9V25.8h13.5v5.4h-8.1v8.7h5.7v5.4h-5.7v9.3h8.5V60zM176.4 18l5.2 20.9V18h5.4v42h-6.4l-5.4-22.6V60h-5.4V18h6.6zM191.8 29.4c0-1.9 1.7-3.6 3.6-3.6h8.2c2 0 3.6 1.7 3.6 3.6v27.1c0 1.9-1.6 3.5-3.6 3.5h-8.2c-1.9 0-3.6-1.6-3.6-3.5V29.4zm9.9 1.8h-4.6v23.4h4.6V31.2zM221.9 46.3h-4.6V60h-5.4V25.8H223c2 0 3.6 1.7 3.6 3.6v11c0 1.5-.8 2.6-1.9 2.9 1.6.4 2.5 2 2.5 3.5V60h-5.4V46.3zm-4.6-5.4h3.9v-9.7h-3.9v9.7zM250.6 60V41.5l-4.4 13.7h-4.4l-4.1-13.7.1 18.5h-5.6V25.8h5.4l6.4 19.7 6.7-19.7h5.4V60h-5.5zM260.8 25.8h5.4V60h-5.4V25.8zM277.6 25.8l5.2 16.1V25.8h5.4V60h-5.6l-6.2-19.6V60H271V25.8h6.6zM302.9 36v-4.8h-4.6v23.4h4.6v-4.9h-1.8v-5.4h7.2v12.1c0 1.9-1.6 3.5-3.6 3.5h-8.2c-1.9 0-3.6-1.6-3.6-3.5v-27c0-1.9 1.7-3.6 3.6-3.6h8.2c2 0 3.6 1.7 3.6 3.6V36h-5.4zM316.1 31.2h-4.8v-5.4h15v5.4h-4.8V60h-5.4V31.2zM329.3 29.4c0-1.9 1.7-3.6 3.6-3.6h8.2c2 0 3.6 1.7 3.6 3.6v27.1c0 1.9-1.6 3.5-3.6 3.5h-8.2c-1.9 0-3.6-1.6-3.6-3.5V29.4zm10 1.8h-4.6v23.4h4.6V31.2zM356.1 25.8l5.2 16.1V25.8h5.4V60H361l-6.2-19.6V60h-5.4V25.8h6.7zM173.9 124H160V82h13.5v5.4h-8.1V99h5.7v5.4h-5.7v14.2h8.5v5.4zM181.6 89.8l3.6 25.8 3.6-25.8h5.6l-5.1 34.2h-8.2L176 89.8h5.6zM211 124h-14V89.8h13.5v5.4h-8.1v8.7h5.7v5.4h-5.7v9.3h8.5v5.4zM221.8 89.8l5.2 16.1V89.8h5.4V124h-5.6l-6.2-19.6V124h-5.4V89.8h6.6zM237.1 89.8h5.4V124h-5.4V89.8zM253.9 89.8l5.2 16.1V89.8h5.4V124h-5.6l-6.2-19.6V124h-5.4V89.8h6.6zM279.2 100v-4.8h-4.6v23.4h4.6v-4.9h-1.8v-5.4h7.2v12.1c0 1.9-1.6 3.5-3.6 3.5h-8.2c-1.9 0-3.6-1.6-3.6-3.5v-27c0-1.9 1.7-3.6 3.6-3.6h8.2c2 0 3.6 1.7 3.6 3.6v6.6h-5.4zM295.3 82H307c2 0 3.6 1.7 3.6 3.6v15.8c0 1.9-1.6 3.5-3.6 3.5h-6.4V124h-5.4V82zm9.9 5.4h-4.6v12.1h4.6V87.4zM314.2 93.4c0-1.9 1.7-3.6 3.6-3.6h8.2c2 0 3.6 1.7 3.6 3.6v27.1c0 1.9-1.6 3.5-3.6 3.5h-8.2c-1.9 0-3.6-1.6-3.6-3.5V93.4zm10 1.8h-4.6v23.4h4.6V95.2zM339.8 114.9v3.7h4.6v-9.4H338c-2.1 0-3.6-1.7-3.6-3.5V93.4c0-2.1 1.4-3.6 3.6-3.6h8.2c2 0 3.6 1.5 3.6 3.5v5.2h-5.4v-3.4h-4.6v8.6h6.4c2 0 3.6 1.7 3.6 3.6v13c0 1.9-1.6 3.5-3.6 3.5H338c-1.9 0-3.6-1.6-3.6-3.5v-5.5h5.4zM357.5 95.2h-4.8v-5.4h15v5.4h-4.8V124h-5.4V95.2zM65.3 91.9v-6.7h-9.8v6.7h-3.7v48.7H54V94h3.6v-6.7h5.6V94h7.2v46.6h2.1V91.9zM43.6 76.8V65H33.5v-4.3h-9.4V65h-2.8v75.6h2.1V67.1h2.8v-4.3h5.2v4.3h10.1v11.8h3.3v61.7h2.1V76.8zM104.4 123.5v-11.1h-2.8V52.2h-2.1v-6.5H97v-4.1h-2.3L93.3 31v-2.2h-1.2L92 17.7h-2.3l-.2 11.1h-1.2l.1 2.1-1.5 10.7h-2.2v4.1h-2.5v6.5H80v60.2h-2.7v11.1h-2.1v17.1h2.1v-15h2.1v-11.1h2.7V54.3h2.2v-6.4h2.5v-4.2h2l1.7-12.6v-.2h.7l1.7 12.8h2v4.2h2.5v6.4h2.1v60.2h2.8v11.1h2v15h2.2v-17.1zM135.8 98V87.4h-11.9v-5.9h-13.4v5.9h-2.9v53.2h2.2V89.5h2.8v-5.9h9.1v5.9h12v10.6H148v40.5h2.1V98z"/></svg>