<svg xmlns="http://www.w3.org/2000/svg" viewBox="0 0 1000 744.5" enable-background="new 0 0 1000 744.5"><desc xmlns:shape="http://adobe.com/products/shape"><shape:version>1.0.2</shape:version><shape:captureDetail>0.750000</shape:captureDetail><shape:source>1</shape:source></desc><path fill="#29A3C5" d="M19.5 666.7c11.8 56.6 80 64.6 126.9 60.5 63.5-5.6 126-20.2 188.2-33.2 128.1-26.6 256.8-51.2 384.3-80.8 69.4-16.1 138.3-35.2 204.4-61.8-14 19.1-37.1 28.2-58.9 35-26.9 8.5-54.3 15.4-81.7 22.1-59 14.5-118.6 26.6-178 39.2-119.1 25.3-238 52.7-357.9 74.3-53.3 9.6-117 27.1-170.6 11.5-49.1-14.2-75.1-58-60.8-107.7 14.1-48.6 51.9-90.1 85.6-126.4 35-37.8 73.4-72.2 113-105.1 40.7-33.8 82.7-65.9 124.2-98.7 39.8-31.4 82.7-62.4 117.3-99.6 16.6-17.9 30-39.4 31.7-64.2 1.6-23.3-9.2-50.3-33.5-57.3-23.6-6.8-49 10.6-63.8 27.5-14.8 16.9-17.4 37.4-28.2 56.1-11.6 20-37.3 20.3-50.1.5-13.4-20.8-3.9-49.1 8.5-67.9 26.2-39.9 80.2-71.7 126.7-79.6 44.2-7.5 96.6 12.1 106.5 60.1 5.2 25-2.4 51.2-13.3 73.7-4.4 9.1-12.9 18.8-13.9 28.9-1.2 12.1 7.4 22.4 16.8 28.7 23.5 15.6 55.4 23.3 81.5 33.6 29 11.4 58.1 22.8 87.1 34.2 57 22.4 114.1 44.7 171 67.2 37.6 14.8 81.9 32.7 102.6 70 23.8 43.1 1.1 97.5-28.6 131.7-15.3 17.6-34.2 32.1-55.4 41.9 45.7-35.7 121.3-124.3 68.5-182-22.7-24.8-59.1-36.5-89.1-49.6-38.3-16.7-76.9-32.9-115.7-48.5-39.8-16-79.9-31.5-120.2-46.4-19.1-7-38.2-13.9-57.4-20.7-17.4-6.1-36.2-11.7-50.6-23.8-11.4-9.6-20.1-24.3-18.8-39.6 1.4-17.3 16.3-33.6 22.5-49.6 12.9-33.2 6.9-68-24.4-88.1C454-6.9 366.6 42.3 329.4 94.7c-13.1 18.5-29.7 68.6 10.3 67 14.8-.6 16-11 19.5-22.8 5.1-16.7 13.9-32.1 25.6-45 20.8-23 56.8-42.3 86-22 29.8 20.8 30.1 62.8 16.5 93.1-15.2 33.9-45.9 58.7-73.5 82.3-26.7 22.8-54.2 44.6-81.8 66.2-62.6 48.9-126.3 96.8-183.9 151.7-28.4 27.1-55.3 55.9-79.3 87s-58 72.5-49.3 114.5zM71.2 578.2c35.4-49.5 86.8-88.8 133.1-127.5 48-40.1 97.3-78.6 147.1-116.3 24.5-18.5 49.1-36.9 73.8-55.2 12.2-9.1 24.2-19.2 37-27.4 11.9-7.6 21.3-5.6 34.3-1.2 61.7 20.9 122.5 44.9 183.6 67.3 31.1 11.4 62.3 22.8 93.4 34.2 28.7 10.5 59.9 18.9 87.1 33 19.3 10 39.4 32.2 27 55.1-11.2 20.6-40.5 24.1-61 28.4C696.1 496 565.5 523.4 435 550.7c-72.7 15.2-145.3 30.5-218 45.7-34.3 7.2-68.8 16-103.6 20.1-12.1 1.5-29.5 4.9-41-1.1-15.8-8.1-9.5-25.5-1.2-37.2m406.4-322.3c-10.7 1.2-21.8 13.2-30.2 19.4-12.1 9-24.3 17.9-36.4 26.9-23.4 17.3-46.7 34.8-69.9 52.4-47.2 35.9-93.7 72.5-138.9 110.8-22.2 18.8-44 38-65.4 57.6-18.8 17.3-45.3 36-58.4 58.2-5 8.4-7.3 20.2 1 27.6 9.5 8.5 27.6.3 38.5-2l95.4-20.1c122.7-25.8 245.3-51.7 368-77.5 62.5-13.2 124.9-26.3 187.4-39.5 28-5.9 60.4-8.5 86.8-19.7 21.5-9.1 33-34 11.2-49.7-10.9-7.8-25.5-11.5-37.9-16.1-17.4-6.5-34.8-12.9-52.2-19.4-32.6-12.1-65.3-24.2-97.9-36.3-33.7-12.5-67.5-25-101.2-37.5-16.3-6.1-32.6-12.1-49-18.2-14.2-5.2-35.8-18.6-50.9-16.9-4.5.5 4-.4 0 0zM742.9 562.1c-14-9.1-30.3 12.1-34.6 23.2-10.7-6.8 4.1-27.4 6.7-35.4 2.3-7.1 7.8-41.1 19.3-35.4 4.6 2.3 4.5 11.4 6.4 15.5 1.7 3.8 3.6 7.5 7.1 10 1.2.9 9 2.7 9.2 3.1 2.4 4.5-3.9 9.3-3.4 13.9.8 7.7 8.1 12.5 7.9 21.6-9.5 2.2-12.5-12.5-18.6-16.5M727 550.2c4.6 3 16.5-4.8 6.4-8.4-4.9-1.7-11.9 4.9-6.4 8.4 1.2.8-2.9-1.8 0 0zM145.4 681.7c0 6.2-1.7 12.1-8.9 9.5-7.6-2.8-6.3-17.3-11.3-21.2-15.5-12.2-8.9 30.6-19.1 28.4-7.6-1.7 4.7-45.1 6.5-51 6.5-21.7 15.9 10.2 22.9 16.9 8.9-8 2.8-31 17.5-33.6 2.3 6.8-2.7 16.1-4.2 22.3-2.3 9.4-3.5 19.1-3.4 28.7 0 2.4-.1-12.8 0 0zM392.9 619.8c-1.2-6.1 2.9-11.1 1.2-17.4-1.2-4.4-5.7-3.6-4.5-9.5 2.1-10.3 28.8-16.7 37.3-19.4 5.6 11-39.1 23.7-17.6 33.7 4.4 2 13.3-4.8 14.7 2.5 1.5 7.9-15.5 8.7-18.7 14.4-10.9 19 32.4 2.3 19.5 18.1-5.3 6.5-22.3 8-28.1 1.8-4-4.2-2-7.1-2-12.2-.1-4.7-.8-7.1-1.8-12zM200.1 652.7c8.7 7.1-24.8 12.9-25.8 15-6.1 12.5 22.8 4.1 25.2 4.7 19.3 4.8-8.3 11.5-14.1 12.5-15.7 2.6-21.9 1.5-20.9-15.8.6-9.6-2-30.2 4.5-38.2 3.8-4.8 36.3-13.8 28.1-.6-4.6 7.4-22.3 2.9-21.6 16.2.7 14.4 16.9 3.1 24.6 6.2 1.7 1.5-7.1-2.8 0 0zM356.6 600.8c10.1 15.8-33.5 59.2 4.6 48.7 4.9-1.3 17-7.8 19.4-2.4 1.7 3.8-4 7.1-6 8.5-5.9 4-30.1 10.7-37.3 10.1-25.9-2.2 25.2-54.7 5.3-59.4-4.1-1-24.1 11.4-16.1-3.1 4.2-7.7 25-10.4 30.1-2.4 2.4 3.8-2.2-3.4 0 0zM894.8 521.5c9.2 10.4-35.2 35.5-42.6 34-18.3-3.9-13.5-39.8-10.1-51.7 1.7-5.8 5.5-13.7 10.5-5.4 4.6 7.6-2.1 22.1-1 30.5 1.3 10.2 4.2 10.6 13.3 6.9 10.3-4.2 19.1-10.8 29.9-14.3 1.8 2.1-10.6 3.4 0 0zM799.5 550.3c7.3-3.6 14.5-7.2 21.8-10.8 7.3 10.8-23.4 32.6-32.3 29.5-13.8-4.8-11-31.8-10.2-42.7.3-4.3-.4-14.8 3.2-18.2 5.8-5.5 8-.3 8.9 5.5.7 4.9-7.1 44.4 8.6 36.7 7.2-3.7-1.1.5 0 0zM478.8 568c3.8-1.8 25.2-12.8 29.4-8.5 7.6 7.8-12.4 11.7-15.9 14.2-6.8 4.8-11.4 14.6-2.6 20 8.3 5 18.4-9.9 23.9-3.3 7.5 9-13.9 12.5-17.4 14-13.9 6.2-3.2 14.6-10.3 21.9-7.8 8.1-8.5-18.8-8.7-21.1-.8-7.9-7.2-32.9 1.6-37.2 7.7-3.8-1.5.7 0 0zM605.1 541c3.3 6.2-5.3 9.5-8.8 11.8-6.4 4.2-9.1 5.2-10.1 13.6-1.5 13.2 7.7 30.6-.5 42.7-19.6-8.8 4.5-46.1-18.2-48-10-.8-18.4-2.6-2.7-8.9 12.8-5.2 26.4-9 40.3-11.2 1.9 3.7-17.1 2.7 0 0zM248.2 669.4c-3.9-7.3 48.7-12 17.2-28.8-6.7-3.6-18.1-4.5-19-14.2-1.1-12.5 18-20.9 27.5-21.7 4.7 10.2-16.9 10.2-15.7 19.6.9 7 19.6 10.3 24.2 17.9 11.4 18.3-19.2 38.1-34.2 27.2-1.6-2.9 7.4 5.4 0 0zM83 640.1c26-4.1 15.9 46-5 50.5-27.3 6-13.1-47.6 5-50.5m-.2 11.3c-7.6 2.1-19.6 27.1-6.8 28.8 14 1.9 22-33 6.8-28.8zM643.3 540.2c-.1 4.5-10.3 11.2-13.3 13.9 11.7 7.9 29.7 23 18.5 38.6-3.3 4.6-12.4 10.1-18.5 7.7-11-4.4-1.5-6.4 3.5-9.5 19.3-11.9-3.5-20.2-11.1-28.7-5.4-6-3.4-12.8 2-18.3 2.2-2.1 19.1-13 18.9-3.7-.1 1.6 0-2.1 0 0zM532.8 568.6c.2-3.7 2.7-12.4 8.4-8.5 3.4 2.3 1.5 12.6 1.6 15.9.3 15.9.7 31.8 1 47.7-13 5.7-11.3-49.7-11-55.1.2-3-1 15.5 0 0zM304.5 601c7.4.3 5 22.9 5.1 27.3.2 5.8 3.7 39.3-5.2 33.1-7.1-4.8-7.5-60.7.1-60.4z"/></svg>