<svg xmlns="http://www.w3.org/2000/svg" viewBox="0 0 945.4 986.6" enable-background="new 0 0 945.4 986.6"><desc xmlns:shape="http://adobe.com/products/shape"><shape:version>1.0.2</shape:version><shape:captureDetail>0.750000</shape:captureDetail><shape:source>1</shape:source></desc><path fill="#2BC22B" d="M319.7 926.1C194 985.3 88.8 885.1 55.2 768c-32.8-114.5 2.9-236.3 82.1-323.2 18.6-20.4 39.4-38.6 61.8-54.5 25-17.7 62.6-48.7 92.7-54.6 27.1-5.4 32.6 44.1 33.8 65.5 1.5 26.4 5.8 6.5-6.2 16.5-3.6 3-14 5.8-17.8 7.7-12.9 6.6-24.7 14.9-35.5 24.5-39.9 35-65.3 85.6-80.2 135.8-2.9 9.9-11.3 29.4-2.5 38.3 9.3 9.4 13.7 1.3 22.9-3 27.1-12.7 50.5-18.9 80.5-10.8 64.6 17.5 95.8 84.8 108.1 145.2 15 72.9-4.9 137.6-75.2 170.7m-24-288.5c-22.8-10.9-50.2-11.2-73.6-2-19.5 7.6-47 44.9-58 15.2-7.2-19.6.9-53 5.2-72.7 6.3-29 17.4-56.9 32.6-82.4 13.4-22.5 29.9-43.1 49.2-60.8 11.4-10.5 54-29.8 56.3-45.9 4.9-32.9-44-10.4-55.2-4.3-26 14.2-50.4 31.5-72.5 51.2C97.3 509.1 46.2 618.2 64.9 729.4 81.8 830 165.3 941.6 279.5 917.1c53-11.4 97.6-51.5 102.1-107.4 4.9-59.3-29.7-145.2-85.9-172.1-33.5-16 31.7 15.2 0 0zM684.6 433.1c-16.7-13.7-44.2-11.6-58.8 4.3-5.8-20.1-13-28.2 10.7-34 9.7-2.4 20.4-2 30.2-.7 22.5 3.1 44.7 13.4 63.3 26.2 37.3 25.7 64.8 66 73.3 110.7-47-23.9-52.5 62.5-40.9 87.3 8.8 18.7 28.4 24.2 38.3 3.6 10.1-20.8.9-63.3.6-85.3 27.7 43 17.1 98 7.3 144.8-9.5 45.4-21.6 89.7-56.8 122.1-60.4 55.6-156.1 62.3-223.8 16.6-73.3-49.6-106.9-144.4-88.7-229.8 9.7-45.6 32.5-88 63.3-122.8 8.5-9.6 99.6-95.2 101.9-44.3-18.8.1-36.6 8.8-27.6 27.1 6.8 13.9 24.2 24.1 38.9 27.1 33.2 6.6 66.5-19.5 68.8-52.9M473.5 738.5c38.5 64 112.7 109.6 188.8 95.5 34.9-6.4 68.5-24.7 90.6-52.8 24.6-31.2 28.4-72.5 50.2-105.2-38.4-9.4-65.9-46.6-63.2-85.9 1.3-19.5 9.1-35 20.4-50.4 12.9-17.6 13-24.5 2.3-44.3-12.8-23.5-51.4-63.7-77.1-29.6-8.3 11.1-3.9 22-16.8 31-14 9.8-41.7 12.1-58.1 10.1-22.5-2.7-27.1-13-37.2-30.1-9.5-16.2-15.2-23-34-8.4-19.2 15-69 59.7-48.4 85.4 10.2 12.7 22.2 10.3 21.3 32.1-.7 15.7-5.8 34.6-7.7 50.1-3.4 27.9-23.2 24.9-37.2 45.2-12.2 17.8-4 40.6 6.1 57.3m-5.3-164c-19.3 19.2-46.6 114.2 9.4 73.5 22.5-16.3 13.1-26.8 12.7-50.3-.1-8.6-.4-44.6-22.1-23.2-2.5 2.5 5.2-5.1 0 0zM827.9 315.1c-20.5-8.3-33.4-38.9-43.3-56.6-12.1-21.6-23.1-43.8-32.9-66.6-7.6-17.6-13.2-51.4-34.3-56.1-17.8-3.9-48.7 13.6-54.9 30.5-7.2 19.8 2.1 50 3.5 70.4 1.2 17.4-5.9 52-17.7 15.3-7.2-22.5-4.1-50.9-5.3-74.5-1.5-29-3-58.1-4.5-87.1-1.4-27.3-10.1-47.4 15-62.7C673 16.1 695.7 6.5 718.8 6.6c36.5.2 77.9 30.8 61.6 71.3-6.3 15.7-23.2 21.6-27.9 38.4-6.5 23.5 9.5 47.6 19.8 67.2 10.2 19.2 75.9 113.4 55.6 131.6M760 51.3c-9.7-27.4-49.7-23.6-70.3-14.6-28.2 12.2-31.6 26.7-30 55.5 2 37.4 16.2 38.4 47.5 22.2 18.8-9.9 62.5-35.7 52.8-63.1-2-5.5 4.5 12.9 0 0zM185.8 181.3c23 54.6 5.5 119.8-41.5 155.6-41.7 31.7-100.5 39.6-126.5-15.2C-28.7 224 129 46.4 185.8 181.3M68.7 339.5c88.5 19.9 146.9-135.9 67.3-181.6-69-39.6-167.8 159-67.3 181.6 18.4 4.2-19.4-4.4 0 0zM453.2 98.5c1.8 18.8-1.9 47 19.7 54.2 19.4 6.5 45.9-16 65.7-14.6 23.7 1.7 15.9 16.6-1.6 23.9-18.3 7.7-50.2 3.1-64.9 17-15.6 14.8-5.4 41.3 12 47.1 18.5 6.1 61.3-10.7 79.6-14.4 9.6-2 59.7-16.8 46.7 10.8-6 12.8-61.5 14.7-74.2 17.1-19.2 3.7-63 21.7-80.4 8.5-9.1-6.9-6.5-19.4-7.7-28.8-1.7-13.3-2.8-20.9-7.6-33.2-7.3-18.8-1.6-35.6-4.5-57.5-1.9-14.2-12.4-68.5-7.5-74.6 5.6-7 27-.9 34.3-1.2 11.8-.5 23.1-3.3 34.4-6.5 10.6-3.1 53.7-27.1 64.7-14.2 16.9 19.8-42.1 29.3-50.8 31.9-20.6 5.9-60.5 6.9-57.9 34.5.9 9.4-.8-7.7 0 0zM333 234.3c17.2-10.9 2.7-69 3.2-87 .5-15.4-2.9-105.3 17.2-96.1 15.4 7 2.1 92.2 2.3 108.9.2 20.3 1.2 40.6 3 60.8 1.1 12.2 10.9 44.1 3.9 55.7-15.7 26.1-53.6-37.6-63.7-50.3-24.1-30.1-48.3-60.3-70.6-91.7-4.3-6-28.7-39-4.8-39.9 10.4-.4 28.5 33.2 33.4 39.8 25 33.6 50.3 66.9 76.1 99.8 11.8-7.5-35.3-45.1 0 0zM519.8 977.9c-22.3 13.3-95.5-23.3-76-46.9 9.5-11.5 29 17 35.6 21.9 6.2 4.6 13 8.4 20.5 10.6 13.4 3.9 17.6-3 19.9 14.4-12.7 7.5-.5-4 0 0zM837.7 394.9c17 8.4 39.5 70.7 9.3 64.6 4.8-25.5-12-31.3-23.5-48.7-3.9-5.9-11.2-5.5-5.2-14.6 4.2-6.2 14-4.5 19.4-1.3zM918.5 678c13.7 6.2 29.7 28.9 7.3 26.8-18.4-1.8-33.1-22.2-52.8-5.1-32.5 28.1 21.1 43.1 36.9 55.2 62.8 47.7-13.7 141.5-70.8 85.1-6.8-6.7-20.2-22.6-7.2-28.9 13.4-6.5 27.2 18.5 40.4 21.8 35.4 8.7 52.8-33.8 27.8-56.2-20.2-18-56.2-19.3-59.1-52.4-4.1-46.6 42.1-62.4 77.5-46.3 6.5 2.9-13.7-6.2 0 0zM495.2 868.4c9.2 9.9 30.3 15.1 37.2 24.5 12.7 17.4-8.9 17.3-20.2 13.2-10.9-3.9-30-17.8-34-28.8-6.1-16.8 4.3-22.5 17-8.9 8.4 9.1-4.6-4.9 0 0zM919.1 431.8c-.7-18.7-11.6-26.5-16.4-41-4.3-13.3 3.5-20.9 17.6-13.4 13.8 7.3 16.8 30.7 14.9 44.1-1 7.5-15.2 34.9-16.1 10.3zM266.6 727.3c54.8 67.2-40.7 185.6-95.1 99-19.3-30.7-10.2-76.7 10.8-105.3 19.9-26.9 64.4-18.1 84.3 6.3M193 742.7c-30.5 35.9 2.9 124 49.9 80 43.4-40.5-6-131.7-49.9-80-20.3 23.9 8.3-9.7 0 0zM578.6 777.8c-27.8-1.2-45.2-53.2-38.2-76.2 8.3-27.2 36.8-72.3 65.8-77.3 44.3-7.7 58.5 18.2 79.2 53.8 9.3 16 10.5 26.7 2.5 43.9-3.2 6.9-22 35.8-29.7 17.2-3.3-8 24.5-23.7 23.2-37.7-1.1-11.7-21.6-42.8-30.2-51.2-26-25.2-57.1-1.8-70.2 22.4-14.2 26.1-44.4 51.5-11.7 80.1 11.2 9.8 23.7 9.2 38.2 8.7 15.2-.5 45.4 3.6 57.3-7.2 22 38.4-74.9 24-86.2 23.5-4.4-.2 21.2.9 0 0z"/></svg>