<svg xmlns="http://www.w3.org/2000/svg" viewBox="0 0 830.3 493.3" enable-background="new 0 0 830.3 493.3"><desc xmlns:shape="http://adobe.com/products/shape"><shape:version>1.0.2</shape:version><shape:captureDetail>0.750000</shape:captureDetail><shape:source>1</shape:source></desc><path fill="#C12C7F" d="M399.1 254.8c-8.9 79.7-67.4 151.8-143.7 176.8 21.4-2.7 42.7-5.5 64.1-8.2 3.7-.5 7.7-.9 11.2.4 3.5 1.3 6.5 5 5.7 8.7-102.8 4.7-205 22.4-303.3 52.6-8.5 2.6-17.6 5.4-26.3 3.1 1.7-4.2 6.5-5.9 10.8-7.1 56.2-16.2 112.6-32.5 170.5-40.9 14.3-2.1 28.8-3.7 42.9-6.8 68.3-15.1 126.8-68.4 148.3-134.9 11.9-36.7 13-76.3 8.7-114.7-2.1-19-5.6-37.9-12.9-55.6-10-24.2-27.2-45.4-48.9-60.2-13.4-9.2-28.3-15.8-43.2-22.4-5.7-2.5-11.4-5.1-17.1-7.6 48.7 1 91.8 37.2 111.7 81.6 19.9 44.4 20 95.4 12.1 143.4 4.8 2.1 11-3.3 9.4-8.2zM87.5 311.5c18.1 63.2 77.6 112.3 143.1 118.1-22.1 4.9-45.5-.3-65.7-10.5-43-21.7-72.9-65-84.6-111.7S74 210.8 88.8 165c16.3-50.4 44.5-98 86.2-130.5 15.9-12.4 33.9-22.6 53.7-26 16.5-2.8 33.5-.9 49.6 3.4 53.9 14.4 99.6 56.3 118.7 108.6 14.5 39.7 14 83.6 5.4 124.9 1.6-39.1 3-79.2-9.7-116.2-14.3-41.7-46.4-76.3-85.4-96.7-10.4-5.4-21.3-10-32.7-12.9-14.1-3.7-29-5-43.5-2.6-5.4.9-10.8 2.3-16 4.1-41.4 14.1-71.6 50.1-94.1 87.7-10.5 17.5-20 35.8-26.2 55.3-3.1 9.7-5.4 19.7-7.4 29.7-7.5 38.8-10.8 79.6.1 117.7zM646.2 415c-65.9-3.7-132.1-3.4-197.9.9-12.6.8-25.1 1.8-37.7 2.8-23.7 1.8-47.5 3.7-71.2 5.5 1.2-5.1 7.6-6.5 12.8-7 45.4-4.1 90.9-7.3 136.4-9.6 52.7-2.7 106.1-4.1 157.6 7.4zM820.8 430.9c3.5.9 7.6 5.6 4.3 7.1-.7.3-1.6.3-2.4.2-132-13.1-265.3-12.9-397.3.5 4.8-5.1 12.3-6.1 19.3-6.8 108.6-11.3 218.2-13.3 327.2-5.8 6.3.4 13 1.1 17.7 5.3-.4-5.8 8.3-6.6 13.9-5.1 5.7 1.5 11.5 3 17.3 4.6zM220.4 161.3c-4.3 6.1-10.6 10.7-17.7 12.8 3.1-11.8 14.1-19.5 24.4-26.1 4.1 5.1 4.9 11.9 5.5 18.4 3.1 30.6 6.2 61.2 9.2 91.7.3 2.5.6 5.3 2.5 7 3.1 2.8 8 1 12.1.1s10.1 1.1 9.2 5.3c-15.6 6.2-32.2 10-48.9 11.2-4.2.3-10.3-1.6-9.2-5.7.8-3.2 5.2-3.5 8.5-3.5 6.9.1 13.7-1.7 19.8-5-3.9-30.7-7.7-61.4-11.6-92.1-.6-4.8-1.3-9.9-3.8-14.1zM269.6 70.9c-2.2 2.1-3.1 5.1-3.6 8.1-.3 1.9-.5 3.9.1 5.7 1.4 4.4 6.6 6.3 11.2 7.2s9.7 2 12.2 5.9c-.7 4.3-6.8 4.9-10.9 3.4-4.1-1.5-8.8-3.8-12.5-1.5-4.3 2.7-3.2 9.7.6 12.9 3.8 3.3 9.1 3.9 14.1 4.9 4.9 1 10.3 2.7 12.8 7.1-1.1 3.9-6.8 3.6-10.7 2.5-5.8-1.7-11.6-3.3-17.4-5-2.6-.8-5.4-1.6-7.5-3.3-2.2-1.7-3.7-4.5-3.1-7.2 3.3-13.9 4.9-28.2 4.8-42.5 0-3.7 3.5-6.4 7-7.9 7.4-3.2 15.9-3.6 23.5-1.2.9.3 2 .7 2.4 1.6.6 1.3-.4 2.7-1.5 3.6-6.1 4.6-16 .5-21.5 5.7zM228.4 330.6c-1.3-1.2-3.5-.8-4.8.5-1.3 1.2-1.8 3-2.4 4.7l-7.2 23.1c-.1.3-.2.6-.3 1-1.3 2.9-2.5 5.8-3.8 8.7-.6-.5-1.2-1.1-1.7-1.8-4.7-5.8-8.4-12.3-11.1-19.2-2.6-6.6-4.3-14.3-1-20.7 1.1-2.3 2.8-5.2 1-7-2.1-2-5.3.6-6.9 3.1-8.2 12.4-15.7 25.2-22.5 38.4-.8 1.5-1.5 3.3-.6 4.7.9 1.4 3 1.5 4.4.7s2.3-2.3 3.1-3.7c2.9-4.8 5.7-9.6 8.6-14.4 1.3-2.2 4.9-1.8 6.7 0 1.8 1.9 2.3 4.6 3.1 7 2.8 9.2 9.2 16.9 15.4 24.3.3.4.7.8 1.1.9 1.3.5 2.4-1 3.1-2.2 6.9-13.6 12.5-28 16.5-42.8.3-1.7.7-4-.7-5.3zM142.7 312c.1.8.8 1.3 1.5 1.7 7 4.3 14.2 8.2 21.6 11.8 2.6 1.2 1.3 5.7-1.5 6.5s-5.6-.6-8.1-1.9c-5.3-2.9-10.5-5.7-15.8-8.6-1.8-1-4.1-1.9-5.7-.6-2.1 1.7-.5 5.1 1.1 7.2 5 6.2 10.1 12.3 15.4 18.2 1.7 1.9-.6 5.2-3.2 5.2s-4.7-1.9-6.5-3.8c-6.2-6.5-11.4-13.8-15.5-21.7-.8-1.5-1.6-3.2-1.2-4.9.3-1.5 1.4-2.7 2.5-3.8 7.3-7.6 14.7-15.2 22-22.7 2.1-2.1 5.7-4.3 7.6-2 6 7.3 18.5 6.6 24.2 14.1-3.1 2.7-7.9 2.6-11.9 1.5s-7.8-3.1-11.9-3.5c-5.2-.5-10.6 1.7-14 5.7-.2.4-.6 1-.6 1.6zM207.5 124.4c-1.3.1-2.3-1.2-3-2.4-5.5-10.1-1.7-23.8-8.5-33-1.8-2.5-4.4-4.6-4.8-7.7-.4-3 3.6-6.3 5.6-3.9 7.5 9 15.5 17.5 24.1 25.4 1.8 1.6 4.2 3.4 6.4 2.4 2.3-1 2.5-4.2 2.3-6.7-.7-10.5-1.3-21-2-31.5-.2-2.4 3.5-3.4 5.4-1.9 1.9 1.5 2.3 4.2 2.5 6.6 1.2 12 1.9 24 2 36.1 0 2.7-.1 5.8-2 7.8-2.9 2.9-7.9 1.5-11.5-.6-6.9-4-12.8-9.6-17.2-16.2-3.8 2-2.9 7.8-.7 11.5s5.2 7.8 3.9 11.9c-.3 1-1.2 2.2-2.5 2.2zM332.4 304.9c-.3-.5-.5-1-.9-1.4-2.1-7.4-.2-15.1 5.2-20.7.7-.7.5-1.6 0-2.1 1.4-2.8 2.6-5.7 3.9-8.5 1.4-3.3 2.5-7.8-.5-9.8-2.4-.8-4.3 1.9-5.4 4.2l-12 25.9c-2 4.3-8.5 3.6-12.4.9-3.9-2.7-7.1-6.9-11.7-7.8-.6-.1-1.2-.2-1.8 0-2.1.6-2.4 3.5-1.7 5.5 1.9 5.6 7.5 8.9 13 11 5.5 2.1 11.4 3.7 15.7 7.6 2.3 2.1 4 4.6 5.7 7.2l9.4 14.3c1.7 2.6 3.7 5.4 6.6 6.6 3 1.2 7.1-.4 7.4-3.5-7.8-9.1-14.7-19-20.5-29.4zM136 253.7c6.1 1.4 11.6 4.9 15.5 9.7 1.8 2.2 3.3 4.9 3.1 7.7-.2 2.8-2 5.3-4.2 7.2-5.5 4.7-13.5 6.4-20.4 4.3-7.5-2.3-14.6 3.9-20 9.5-1.7 1.8-5.1-.3-5.2-2.8-.1-2.5 1.7-4.6 3.3-6.5 5.7-6.2 11.6-12.2 17.8-17.9-3.5-1.5-3.4-7-.6-9.4 2.7-2.6 7-2.6 10.7-1.8m-8.7 19.4c5.2 4 13.7 2.5 17.3-3-.4-3.8-5.3-5.6-8.9-4.4s-6.1 4.4-8.4 7.4zM463.6 296c-2.4 5.2-5.8 10.6-11.3 12.4-2.2-.7-1.2-4 0-5.9 14-22 15.5-51.5 3.7-74.8-.8-1.5-1.6-3.1-1.3-4.8.3-1.7 2.2-3.1 3.6-2.2 6 3.9 9 11.1 10.7 18.1 4.7 18.9 2.8 39.4-5.4 57.2zM158.1 138.1c-5.7-3.8-8-11.2-7.6-18 .4-6.8 3.2-13.2 5.9-19.5 1-2.2 2-4.5 3.8-6.2s4.6-2.4 6.7-1.2c7.1 4.1 13.3 10.1 16.3 17.7s2.3 16.9-3 23.2c-5.3 6.3-15.3 8.5-22.1 4m11.5-7.1c5.6-2.1 9.2-8.7 8-14.6-.9-4.2-3.8-7.7-6.6-11-1.9-2.2-4.8-4.6-7.3-3.2-.9.5-1.5 1.4-2 2.2-2.7 4.4-4.2 9.4-4.3 14.5-.1 5.3 2.1 11.6 7.4 12.6 1.5.4 3.2.1 4.8-.5zM485.5 242.6c3.8-.9 7.3 2.4 9.5 5.6 11.6 16.8 11 41.1-1.3 57.3-2.3-.8-2.1-4-1.5-6.4 3.5-13.2 5.7-27.8-.3-40-2.6-5.3-6.9-10.5-6.4-16.5zM297.1 361.6c-.8-2.7-3.2-4.6-5.5-6.2-1-.8-2.1-1.5-3.3-1.8.1-2.9-.2-5.8-.9-8.6 0-.1-.1-.2-.1-.2-1.1-9.5-2.1-19-3.2-28.5-.2-2.1-3.2-2.9-5-1.7s-2.4 3.5-2.5 5.6c-.1 3 .5 5.9 1.2 8.8l1.7 7.7c.3 1.4.7 2.8 1.3 4.2-.1.3-.1.7.1 1.1.1.2.2.4.3.7 0 .3.1.5.1.8v.1c-.3 3.6-.2 7.2.3 10.7-.3-.1-.5-.2-.7-.5-10.7-9.4-22.2-18-34.3-25.5-1-.6-2.3-1.3-3.3-.6-1 .6-1.1 2.1-1 3.2.7 11 1.4 22 3.3 32.9 1.3 7.3 3 14.6 5.3 21.7 1.9.2 3.7-1.4 4.3-3.3.6-1.9.3-3.9.1-5.8-1.1-8-2.3-16.1-3.4-24.1-.3-2.3.1-5.5 2.4-5.6.7 0 1.3.2 1.9.5 13 6 25.5 13 37.4 20.8 2.7-.1 4.3-3.7 3.5-6.4z"/></svg>