<svg xmlns="http://www.w3.org/2000/svg" viewBox="0 0 673.3 275.5" enable-background="new 0 0 673.3 275.5"><path fill="#29A3C5" d="M319.2 6.5c6.5-6.2 25-3 33.1-3.1l38.9-.3c7.7-.1 24.9-3.5 31.7 1.8 7 5.5 5.7 22.2 6.6 30.1 2.9 25.8-2.2 46.9-8.3 71.9-6.1 24.8-11.9 49.7-17.3 74.7-2.7 12.5-5.4 25-7.9 37.5-2.2 10.5-2.2 24.9-7.5 34.2-5.4 9.5-19 6.3-28.2 6.2-8.3-.1-23.4 3.3-26.3-6.6-2.5-8.6 3.6-26.8 4.8-35.8 1.8-12.7 3.6-25.5 5.3-38.2 3.6-25.5 7.1-50.9 10.7-76.4 1-7 8.2-31.6 2.6-36.7-7.2-6.5-23.6 1.8-32-.1-9.8-2.3-8.5-14.2-8.7-22.3-.3-8.5-4.7-30.1 2.5-36.9M670.3 96.7c-4.8 28.3-9.5 56.5-14.3 84.8-1.9 11.5-1.5 29.6-6.8 39.8-6.7 13-14.7-2-18-9.3-11.8-26.4-22.6-53.3-33.9-79.9-3.7-8.8-10.7-26.8-16-8.2-3.8 13.4-4.3 28.6-6.4 42.4-2.1 14.1-4.1 28.3-6.4 42.4-.5 2.9-.3 12-6.1 9.9-5.4-2-2.4-11.2-1.9-14.8 4.3-28.8 9.2-57.5 13.8-86.2 1.1-6.6.8-32.1 11.5-27.4 3.3 1.5 8.1 15.4 9.8 18.8 3.2 6.3 6.3 12.7 9.3 19.1 12.2 25.5 23.2 51.6 33.1 78.2 8.7-4.2 8.1-18.7 9.2-26.8 1.7-12.5 3.6-25 5.7-37.5s4.3-25 7-37.3c.7-3.3.9-9.9 4-11.9 3.7-2.3 7.2-.8 6.4 3.9"/><path fill="#29A3C5" d="M212.7 189c2.8 4.2 5.9 8.7 10.7 10.7-.9-22.1-1.8-44.1-2.7-66.2-.4-9.7-2.8-21.1-1.1-30.6 1.4-7.9 6.3-11.9 8.5-1.6 2.1 9.3.5 20.5.7 30 .2 11 .6 21.9 1.1 32.9 1.1 21.9 2.8 43.8 5.2 65.6-8.5 4.4-31.3-38.3-35.8-44.9-3.2-4.8-23.8-42.3-30.2-39.3-6.1 2.9 3.3 50 4.1 57.4 1 9.7 2.9 19.7 3.2 29.5.2 5.3-1.2 15.2-7.1 6.8-4.2-6-2.5-19.5-3.1-26.5-1-11.2-2-22.3-2.9-33.5-1.6-18.4-.6-39.8-7-57.3-1.9-5.1-5.4-13.7 4.5-9.6 6.2 2.6 12.3 17.2 16 22.6 12 18.1 23.9 36 35.9 54 2.8 4.3-16-23.9 0 0zM38.4 207.8c-15.7 11.9-9.8 25.5-7 43 .7 4.2 5 16.9-.3 20-7 4-6.5-11.3-7.2-15.6l-9.3-57.9c-1.4-8.8-2.6-17.6-4.2-26.3-1.2-6-6.4-11.5-7.3-16.4-.7-3.9 1.5-4 2.6-7.7.8-2.6.1-5.8.8-7.9 2.6-7.8 3.1-3.6 11.3-4.6 7-.9 12.8-6.5 19.9-7.4 7-.9 14 1.5 19.5 5.7 29.1 22.1 2 59.4-18.8 75.1m6.4-72.4c-10.9-2.9-28.5 7.5-29.2 18.9-.5 7.8 2.8 16.9 4.2 24.6 1.1 6.1.8 19.5 6.5 23.2 10 6.7 27-22.1 30.4-29 6.3-13 5.2-33.1-11.9-37.7-6.7-1.8 4.9 1.3 0 0zM261.9 217.2c-5-4.3-6.8-19.3 3.4-14.3 2.4 1.2 3.6 6.3 6 8.3 3.5 2.9 8.3 4 12.7 4.3 18.7 1.4 40.4-18.2 24.8-35.9-12.2-13.9-34.4-10.8-46.8-24.2-13.1-14.2-7.8-38.1 2.3-52.4 10.4-14.6 29.9-22.9 46.2-12.3 3.7 2.4 15.2 13.7 9.8 19.1-4.3 4.4-11.1-9.3-15.1-11.7-19.4-11.6-36.6 8.1-41.6 25.7-6.6 23.4 12.1 31 30.5 36.7 19.8 6.1 35.5 23.5 25.5 45.2-9.1 20.2-41.2 25.8-57.7 11.5-3.2-2.8 9.3 8.1 0 0zM106.5 168.5c4.7-1.2 28.8-10.5 30.9-3.2 2.2 7.4-21.5 9.6-26 10.6-13.9 3.1-15.3 6.3-14.5 20.3.5 8.3-1.7 27 3.4 33.8 6.4 8.6 19 3.2 27.4 1 3.4-.9 24.5-9 22.3 1-1.9 8.6-28.7 9.5-35.4 10.8-9.2 1.8-18.8 6.1-21.8-4.6-3.5-12.1-2.6-27.2-3.8-39.7-.6-6.3-2.2-10.9-3.8-16.7-1.5-5.6-1.3-5.1-.2-11.3 1.8-10.5.3-20.1-.6-30.6-.5-5.4-1-10.9.1-16.3 1.5-8.2 2.3-7.1 9.9-6.7 5.1.3 28.8-7.5 29.9.1 1.4 9.2-22.3 6.1-27 9.7-7.2 5.5-4.5 15.6-3.7 23.7.8 9.5-.1 21.3 12.9 18.1 7.5-1.8-3.1.8 0 0zM535.4 29.6c-11.9-15.2-33.2-27.7-52.2-16.8-18.4 10.5-27.1 43.1-33.3 61.7-7.9 23.9-12.7 48.8-14.2 73.9-1.3 22.4.3 47.4 15.9 65.1 14.3 16.2 36.1 20.6 54.7 9.1 19.6-12.1 27.9-34.8 34.5-55.6 7.7-24 14.4-49 14.2-74.4 0-22.3-5.7-45.3-19.6-63zm-35.1 95c-1.3 7.6-7.7 51.2-21.3 45.5-18.7-7.7 2.3-102.3 19-97.7-.2 0-.3-.1-.5-.1-.1 0-.2-.1-.3-.1-.2 0-.3-.1-.4-.1h-.1c-.1 0-.1 0 0 0h.1c.1 0 .2.1.4.1.1 0 .2.1.3.1.2 0 .3.1.5.1.1 0 .1 0 .2.1.1 0 .2 0 .2.1.3.1.5.1.6.2-.1 0-.3-.1-.6-.2-.1 0-.2 0-.2-.1-.1 0-.1 0-.2-.1 12.2 3.4 3.7 43.7 2.3 52.2z"/></svg>