<svg xmlns="http://www.w3.org/2000/svg" viewBox="0 0 1000 737.8" enable-background="new 0 0 1000 737.8"><desc xmlns:shape="http://adobe.com/products/shape"><shape:version>1.0.2</shape:version><shape:captureDetail>0.884892</shape:captureDetail><shape:source>1</shape:source></desc><path fill="#C12C7F" d="M785.1 631.1c8 5.3 28.9-.5 29.8-11 .4-4.4-3.8-6-2-11.1 1.8-5.1 6.5-6.5 11.5-6.9 9.6-.8 28.6 5.8 31.6 16 .9 2.9.7 6.8-.9 9.4-2.4 4.2-7.8 3.1-9.7 6.2-4.8 7.9 8.7 14.2 10.5 21.6 2.9 12.3-7.4 20.6-18.4 22.5-7 1.2-24.9 1.2-30-4.8-7.6-8.9 2.9-21.7 2.4-31.1-.5-9.4-18.5-4.1-22.8 2.4-6.6 10.1 9.2 18.8 4.6 28-6.8 13.6-13.9-18-15.6-21.1-5.2-9.1-15.9-9.8-24-3.9-4.6 3.4-17.1 20.7-16.6 5 .3-10.3 16.5-27.3 22.5-35.2 3.4-4.4 16.6-25.5 23.9-16.6 5.9 7-5.6 24.7 3.2 30.6m32.6 33.5c6.8 12.2 36.9.8 22.8-14.1-11.8-12.6-32-2.5-22.8 14.1m25.3-42.8c3.3-7.6-19.1-10.7-19 2.4 0 10.9 16.3 3.9 19-2.4m-83.7 12.1c4.6 5.4 16-3.5 13.3-10.2-4.2-10.3-15.2 7.9-13.3 10.2zM346 664.6c-5.2-7.2 2.9-64.7 15.9-60.4 5.3 1.7 12.3 58.2 20.8 31 3.3-10.3 3.1-21.9 11.7-29.9 11.6-10.9 14 8.4 14.3 17.5.3 7.1-2.9 22.9 3.8 27.8 9.8 7.2 13.1-13.8 15.2-20 2.3-7 6.4-31.4 12.8-35 10.1-5.6 11.2 9.5 12 15.2.5 3.9.4 9.9 4.7 12.1 3.4 1.8 6.5-1.3 8.3-.7 10.2 3.3-4.2 10.2-3.9 18.8.2 6.6 12.9 16.5 6.4 21.2-9.1 6.4-12.8-13.1-17.2-16.6-17.3-13.4-26.8 29.7-43.6 15.1-4-3.5-4.7-10.7-5.7-15.6-.8-4.1.2-15.4-1.9-18.4-8.2-11.5-10.3 15.1-10.8 19.2-1 8.3-2.6 26-15.4 16.8-9.7-7-3.6-24.2-14.7-30.4-4 8-3.2 15-4 23.6-.4 2.2-3.5 15.9-8.7 8.7m96.6-32.5c7.5-4.8 1.7-13.9-4.6-8.4-4.7 3.9-2.3 12.8 4.6 8.4zM689.2 27.4c-28.1 33.1-54 68.1-77.4 104.7 7.9-.1 32.7-4.5 38.7.8 11.7 10.4-18.6 8.1-23.9 8.2-10.5.3-29.9 5-39.2 1.1-10.4-4.4-1.9-14.1 2.8-20.3 17.1-22 35-43.9 53.5-64.9 7.2-8.1 16.1-8.7 23-16.6 8.8-10 14.9-20.6 26.1-28.5 4.4 4.7-.5 11.8-3.6 15.5m-81.4 99.3c9.6-13.6 19.5-27.1 28.7-40.9 0 0 7.5-8.6 4.2-10.4-4.1-2.3-10.6 9.6-13.2 13-8.6 11-17.2 22-25.7 33.1-2.4 3.2-12.1 11.6-2.6 11.8 3.7.1 6.9-3.7 8.6-6.6zM207.5 651.1c8.5 8.8 35.1-10.8 40.7-17.6 5.6-6.8 9-14.2 17.2-9.1 7.1 4.4 12.8 16.6 14.6 24.3 3.4 14.4-3.7 38.6-21.9 38.8-9.5.1-14.2-8.1-15.9-16.6-1.4-7.3 4.3-18.2-5.2-17.7-4.2.2-24.5 12-26 15.3-2 4.2 7.6 23.8 1.9 25.6-9.8 3.2-16.2-48.1-16.4-55.1-.1-3.3-.5-9.7 2.1-12.5 3.9-4.2 6.8-1.4 12.3-2.3 4.9-.8 18.2-10.9 22.9-5.4 8.2 9.6-42.2 15.9-26.3 32.3m58.7 21.1c6-6 7.3-15.3 4.8-23.2-3-9.3-9-17.4-15.8-9.2-6.9 8.3-5.9 49.4 11 32.4 4.8-4.7-2.6 2.6 0 0zM930.3 643c1.9-5.8 5.2-18.4 11.4-21.2 3.9-1.8 15.8 1.3 21.8 1 6-.2 14.5-1.8 19.9 1.9 10 6.9-1.4 9.3-8.6 10-8.4.7-19.9-2.9-27.2 2-3.5 2.3-10.3 12.7-9 17.3 2.1 7 19.6 4.9 25 7.1 9 3.7 7.9 10.1-2.2 10.2-8.1.1-16.9-6.5-25.1-2.8-7.3 3.3-9.1 11.2-2.2 15.7 2.8 1.8 44.9 5.7 28.6 14.5-5.4 2.9-24.2-2.8-30.1-3.8-7.2-1.2-15.3-1.9-15.7-10.8-.2-3.6 2.9-6.9 3.6-10.3.8-4.2-.5-6.4-.6-10-.4-9.1 7.5-11.9 10.4-20.8 2.7-8.5-1 2.8 0 0zM162.1 533.5c-3.5-17.6-6-35.4-7.7-53.2-.7-7.9-1.3-15.9-1.6-23.8-.2-5.5-3.8-26.5-.4-29.9 3.4-3.4 23.4-3.1 27.8-3.6 9.3-1.2 18.5-2.4 27.8-3.6 13.6-1.8 31.6-7.7 45.2-3.5 14.3 4.4 11.1 19.5 11.8 32l3.6 59.7c.8 12.7-.5 30.1 8.1 40.6 6.2 7.7 22.9 12.5 27.9.4 2.1-5.1-2.1-18.7-2.7-24.4-.9-8.1-1.7-16.3-2.4-24.4-1.8-19.4-3.4-38.7-4.7-58.1-1.2-17.4-2.2-34.7-3-52.1-.5-11.4-6.8-36.9 4.8-44.1 10.8-6.8 33.6-4.9 46-6.3 17.4-1.9 37.4-7 54.9-5.5 17.1 1.5 14.4 13.9 14.8 27.9.6 18.8 1.2 37.7 1.9 56.5.6 18.8 1.2 37.7 1.9 56.5.5 15.9-.8 33.2 2.6 48.9 2 9.1 6.7 21.9 17.7 22.6 12.2.8 16.5-12.4 17.4-22.1 1.4-15.8-1.7-32.5-2.7-48.3-1.1-18.4-2-36.9-2.7-55.4-1.2-36.9-1.4-73.9-.6-110.9.2-8.2.4-16.4.7-24.6 0-.1-.4-11.4.5-12.3 1.7-1.7 12.9-.9 15.7-1.1 19.9-1.4 39.8-2.8 59.6-4.2 13.4-.9 28.9-4.5 42.2-1.6 17.5 3.8 13.1 18.9 12.9 33.5l-2.1 112.4c-.3 17.7-.7 35.4-1 53.1-.3 18.2-2.7 37.7 0 55.7 2.1 13.9 13.9 32.1 30.5 25.2 12.3-5.1 13.9-21.3 14.5-32.8 1.9-40.6 1.7-81.2 3.7-121.8 3.9-82.9 11.3-165.6 25-247.5-7.9 123.5-15.9 247-23.8 370.5-.6 9.3-4.4 23.5 5.7 28.9 10 5.3 29.1 3.2 40.3 4.2 12.7 1.1 27.5 4.4 40.1 3.2 14.6-1.3 10.6-12.6 10.5-24.7-.5-60.9 1.4-121.9 5.6-182.7 4.9-69 12.8-137.9 23.8-206.2-5.1 73.1-10.3 146.2-15.4 219.3-2.6 37.6-5.3 75.2-7.9 112.8-1.7 24.2-12.9 70.4 15.5 84.2 13.2 6.4 33.2 4.8 47.7 6.5 19.3 2.2 38.7 4.8 57.9 7.7 34.5 5.2 68.8 11.4 102.9 18.6 6 1.3 43.4 5 41.5 16.3-.9 5.5-42.4-4.9-49.2-6.2-34.1-6.1-68.3-11.2-102.7-15.3-40.4-4.9-81-8.4-121.7-10.6-20.3-1.1-40.7-1.8-61-2.2-10.9-.2-31.9-3.2-37.2 9.9-9.3-16.8-47.3-10-62.6-9.9-26.3.2-52.6.8-78.9 1.9-53.6 2.2-107.1 6.3-160.4 12.3C214.8 593.5 110 612.8 7 639.2c6-7.2 13.9-12.9 22.5-16.4 3.8-1.5 10.2-1.8 13.6-3.7 4.1 1.2 5.6.1 4.6-3.2-.1-2.7-.3-5.4-.6-8.1-2.1-21.5-9-42.6-20-61.2 21.8-6.3 43.5-13 65.4-18.9 14.6-3.9 31.3-5.6 37.3 11.6 4.8 13.7-.9 28.7 3.9 42.5 6.3 18.2 18.2 15.8 34.5 13 21.6-3.8 43.2-7.5 64.8-11.3 10-1.7 21.2-2.4 30.9-5.4 4.8-1.5 8.7-.8 5.1-6.6-1.4-2.2-4.3-3.2-6.5-4-15.2-5.8-40 2.2-55.6 4.2-12 1.5-32.8 3.1-35.4 18.4-4-9.1-15.3-14.2-24.7-11.2 21.7-2.1 18.1-30.9 15.3-45.4M557 273.4c-25.2 2-50.3 4-75.5 6-7.1.6-19.4 0-24.1 6.8-5.4 7.8-1.9 26.2-1.9 35.5 0 51.6 1 103.1 3 154.7.5 12.4 1 24.7 1.6 37.1.4 8.8-2.3 23.6 6.8 27.5 9.4 4 28.1.5 38.4.6 13 0 25.9.1 38.9.1 9.4 0 19.8 1.7 24.1-8.4 3.9-9.2 1.2-22.3 1-31.9-.7-25.9-1-51.8-.9-77.7.1-29 .6-58 1.5-87 .5-14.5 1.5-29 1.8-43.5.3-11.5-.9-20.9-14.7-19.8m-236.6 277c25.5-1.9 51.1-3.3 76.5-5.6 17.1-1.6 13.3-8.4 12.8-24.2-.4-12.6-.9-25.1-1.3-37.7-.9-27.2-1.9-54.5-2.8-81.7-.5-15.1 6.5-57.5-14.2-58.2-24.9-.9-52.7 5.6-77.5 8.5-10.1 1.2-14.7 2-15.3 13.3-.8 14 1.2 29 1.9 43 1.4 26.6 3.2 53.2 5.4 79.8 1 11.8-1.4 64 14.5 62.8M161.3 437.8c-4.2 5.5-.8 16.5-.2 22.4 1.1 10.3 2.1 20.7 3.2 31 2.1 20.7 4.1 41.4 6.4 62.1.8 7 .2 13.5 7.7 15.7 7.3 2.1 20.4-2.9 28-4.1 10.4-1.6 20.8-3.2 31.1-4.8 7-1.1 21-.3 26-6.1 4.3-4.9.2-20.7-.3-26.8-.8-10-1.6-20-2.4-29.9-1.6-19.8-2.2-40.1-4.9-59.9-2.9-21.3-22.6-13.1-38.9-10.7-10.3 1.5-20.6 3.1-30.9 4.6-6 1.1-20.4.8-24.8 6.5M116.7 536c-6.4-5.8-25.3 2.9-31.9 4.7-8.7 2.4-26.9 4-33.9 10.5-7.9 7.4-1 23.1.6 32.5 1.1 6.2 1.5 27.6 7.2 31.4 7 4.6 23.4-2.5 30.7-4.2 10.2-2.4 20.7-4.3 30.6-7.7 8.5-2.9 7.9-1.4 8.1-9.9.1-6-2.1-12.7-3.1-18.7-1.6-9-1.4-32.2-8.3-38.6m296.5 20c-4.8-8.7-41.8-.7-50.5-.2-8.7.6-47-2.5-48.9 9.5-1.9 12.6 41 4.4 48.8 3.7 6-.4 57.3-.8 50.6-13m49.3 1.1c2.3 9.6 45.3 3.1 53.3 2.8 6.1-.2 52.6 1.8 51.6-6-1-7.7-45.9-3.8-53.3-3.8-6.3 0-54.3-4.6-51.6 7m165.4 1.3c17.1.7 34.3 1.5 51.4 2.2 8.8.4 35.8 6.4 42.4-.9-4.1-5.3-15.8-3.6-21.3-3.9-9.8-.5-19.7-1-29.5-1.5-4-.2-48.4-3.6-43 4.1m-335.5 2.9c-5.3.5-15 .5-16.6 7.5-1.7 7.5 5 7.6 10.3 7.7 5.1 0 15.1-.4 18.3-4.7 7-9.5-5.2-11.1-12-10.5m129.8-1.9c2.7 10.8 29.4 2.1 33.7-3.7-5-3.2-37.1-10.1-33.7 3.7m154.8-4.5c0 7 40 5.8 41.6.2-3.4-6.7-41.6-7.4-41.6-.2m155.2 3.9c-3.7 4.7 13.5 9 16.9 2.9-2.9-.8-14.2-6.4-16.9-2.9-1 1.2 1.1-1.4 0 0zM723.7 9.2c21.5 28.9 40 59.9 62.6 88 4.7 5.8 31.3 28.4 28.7 35.7-1.7 4.8-18 1.2-22.6 1.3-8.4.1-21.9 4.9-29.7 2.5-8.3-2.5-7.2-8.3.7-10.5 8.1-2.2 20.1 2.6 27.5-.8 7.8-3.7-1.7-10.4-6.3-16.2-6.1-7.8-12.2-15.7-18.1-23.7-11.8-15.9-23.2-32.2-34.2-48.8-4.3-6.5-14.2-17.5-16-25.1-1.5-6.4 1.9-9.8 7.4-2.4 29 38.9-1.4-1.9 0 0zM539.6 604.8c-2.2 9.8-3.5 19.8-3.9 29.9-.2 6.2 3.6 21.8-3.7 24.8-12.6 5.1-31-25.6-36.2-33.6-6.5 7.3-2.3 17.6-3.3 26.1-1 9.1-6.4 15.6-9.8 4.1-2.8-9.3-1.2-60.9 10.4-59.8 5.9.6 21.5 56.4 33.3 41.4 2-2.5.8-10.8 1-13.3.4-5.5 1.4-11.1 2.7-16.4.3-1.4 1.6-10.3 4.4-11 5.4-1.7 6.2 3.2 5.1 7.8-3.7 16 .8-3.3 0 0zM181.3 641.8c1.8 5.8-2.7 11.5-6.3 15.4-3 3.3-14.3 7.3-15.8 10.2-4.4 8.3 20.9 15.9 26.4 18.4 13.1 5.9 3 9.8-6.4 7.7-8.5-1.9-26.9-19-29.5-6-1 4.7 6.7 9 3.6 14.2-3.9 6.5-6 1.9-8.1-2.1-5.9-10.8-5.7-30.2-7.9-42.1-.7-3.7-4.8-14.2-2.5-18 2.9-4.7 8.1-3.8 13.1-5 10-2.5 28.8-7 33.4 7.3m-11 3.6c-7.8-9.1-33.3 2.5-26.7 12.9 6.3 10 31.3-7.5 26.7-12.9-3.4-3.9.5.6 0 0zM319.6 609.8c10.2 3.6 19.8 13.6 9 22.8-5.8 5-24.4 5.8-24 15 .4 10.6 23.8 9.1 28 14.9 10 13.6-17.3 3.3-20.9 2.3-19-5.4.9 10.7-8.1 15.8-8.5 4.9-8.7-18.3-9.3-22.1-1.8-11.6-8.1-29.4-3.5-41 4.6-11.6 18.8-11.2 28.8-7.7m-.4 11.3c-7.3-4.7-28.5-1.2-18.4 10.2 5.2 5.7 26.2-5.3 18.4-10.2-3.2-2.1 1.4.8 0 0zM99.4 674.7c4.1-1.9 13.6-8.9 16.2-1.8 2 5.6-9.7 9.4-13 11-4.8 2.4-15.2 5.4-13.6 12.5 1.7 7.7 11.4 5.1 16.7 3.7 5.1-1.4 17.2-8.6 22.6-6.2 9.8 4.5-1.9 9.1-5.7 10.6-7.9 3-15.9 5.6-24 8-9.8 2.9-12.1 4.6-14.8-4.9-2.5-8.6-3.2-18.2-4.8-27-1.2-6.8-5.7-18.1-3.3-25 3-8.6 30.4-24.4 39-20.2 13.2 6.3-18.3 14.9-23.6 19.2-9.8 7.9-7.3 27.4 8.3 20.1 2.8-1.4-2.7 1.3 0 0zM740.6 594.4c4.4.2 9.9 1.9 7.7 7.4-1.2 3-14.9 1.6-17.5 1.7-12.5.5-16.1 1.9-18.4 14.2-2.7 14.1.3 31.3-4.4 44.8-1.1 3.3-.3 7.7-5.3 8.3-6.2.7-3.5-13.6-3.4-16.4.5-12.6 6.2-28.8 4.6-41.1-2.3-17.2-14.9.5-24-3.5-15.2-6.7 11.7-12.3 14.7-12.8 15.2-2.5 30.6-3.4 46-2.6 2.7.1-19.2-.9 0 0zM621.4 651.4c9.4-3.1 34.1 3.2 15.7 8.9-11.9 3.7-32.4 4.9-36.8-9.7-3.6-12-.7-33.8 2.2-45.8.5-2.3.8-6.9 2.9-8.5 3.2-2.5 3.5-.1 6.6-.5 3.1-.4 16.7-3.9 19-3.1 15.3 5.5-11.5 12.6-14.4 15-3.8 3.1-6.9 9.2-1.6 12.9 4.7 3.2 13.7-1.5 18.9-.5 6.4 1.1 10.6 4.2 4.5 9.4-3.9 3.4-11.4 1.7-16.2 2.4-5.3.8-11.4 1.8-13 7.9-1.7 7.1 5.2 14 12.2 11.6 6.4-2.1-3.9 1.3 0 0zM584.6 601.5c-12.9 5.9-29.1 35.3-19.1 48.9 8 10.9 15.6-.3 23.3-2.6 10.7-3.2 4.6 7.6-.6 11.8-7.8 6.4-19.5 7.7-27.5.7-8.1-7.1-7.4-19-5.8-28.6 1.7-10.4 5.2-23.1 12-31.4 3.8-4.6 21.4-11.1 17.7 1.2-12.6 5.7 1.4-4.7 0 0zM32.2 658.7c16.5-3.9 39.5 2.5 26 23.6-3.9 6-15.3 10.8-16.9 18-2 9.1 9.2 18.8 7.3 28.2-1.5 7.4-5.4 6.2-8.9.1-4.1-7.2-3.9-18.9-5.7-26.8-2.5-11.6-21.4-38.6-1.8-43.1m6.3 24.5c7.6 5.5 20.2-11.3 9.7-16.8-10.2-5.5-18.9 10.2-9.7 16.8.9.6-4.2-3.1 0 0zM898.2 689.1c-18.1-3.1-32.5-1.8-26.5-23.7 2.9-10.7 6.5-21.3 10.3-31.7 1.9-5.1 6.3-24.5 12.5-18.5 11.2 10.8-13.8 41.5-13.3 54.2.4 10.1 10.8 6.8 18.9 10.3 3.9 1.7 10.4 3.7 7.8 8-1.6 2.4-7.7 1.7-9.7 1.4-6.3-1.1 4.3.7 0 0z"/></svg>