<svg xmlns="http://www.w3.org/2000/svg" viewBox="0 0 735.3 1000" enable-background="new 0 0 735.3 1000"><desc xmlns:shape="http://adobe.com/products/shape"><shape:version>1.0.2</shape:version><shape:captureDetail>0.902878</shape:captureDetail><shape:source>1</shape:source></desc><path fill="#29A3C5" d="M701.2 274c-125.9 26.4-253.1 53.2-369.3 108.4-2.9 1.4-6.2 2.7-9.1 1.4-2.7-1.3-3.8-4.4-4.6-7.3-22.1-74-44.2-148-66.4-222-2-6.7-2.5-16.3 4.2-18.2 13.5-.3 26.3-5.9 38.7-11.3C405 77.6 522.2 48.9 638.8 20.4c3.5-.9 8.7-.7 9.2 2.9.5 3.2-3.5 5-6.6 5.8-123.6 30-247.8 61.2-364.1 112.7-4.1 1.8-8.7 4.2-9.9 8.6-.6 2.3-.1 4.8.4 7.1 15.4 69.1 35.2 137.3 59.3 203.9 1.6 4.3 5.3 9.6 9.5 7.8 110.7-49.7 230.4-75.8 349-101.5 6.4-1.4 16.1-.3 15.6 6.3zM210.5 489.9c13.5-10.6 28.3-24.2 45.1-20.7l-48.9 39.9c-3.6 3-8 6.1-12.6 5.1-3.9-.9-6.5-4.5-8.7-7.8-7.5-11.7-14.1-23.9-19.7-36.5-1.7-3.9-2.7-9.6 1.1-11.3 3.8-1.7 7.4 2.8 9.2 6.5 3.9 7.9 7.7 15.9 11.6 23.8 1.7 3.6 6.5-1.3 7.1-5.3 8.9-59.9 32.1-117.6 67.2-166.9 2.2-3.1 4.8-6.4 8.6-6.9 3.7-.6 7.9 3.9 5.6 6.9-37.2 50.3-61.7 109.8-70.8 171.7-.1.6-.2 1.2.1 1.8.8 1.9 3.5 1 5.1-.3"/><path fill="#29A3C5" d="M727.6 264.6c-.5 2.3-3.9 2.7-5.7 1.2-1.8-1.4-2.4-3.9-3-6.2C700.8 180 689.1 99 677.4 18c-.2-1.5-.4-3.2.4-4.6 1.4-2.5 5.4-2.1 7.4-.1s2.5 5 3 7.9c13.1 80.5 26.3 160.9 39.4 241.4.1.7.2 1.4 0 2zM367.4 312.3c-3.5.7-7.2-1.5-9.1-4.6-2-3-2.6-6.7-3.3-10.3-3.2-17.6-6.8-35.2-10.9-52.7-.6-2.5 1.4-4.9 3.5-6.5 7.9-6.2 19.1-8.2 28.6-5 4.7 1.6 9.3 4.6 11.4 9.1 2.1 4.5 1.1 10.7-3.1 13.4-3.1 2-1.2 7.2 2.1 9 3.2 1.8 7.3 2.1 10.2 4.5 4 3.2 4.4 9.3 2.3 14-2.1 4.7-6 8.2-9.8 11.5-5.3 4.7-10.7 9.3-16 14-1.7 1.6-3.6 3.2-5.9 3.6m9.6-19.4c3.9-3.3 8.1-6.9 9.2-11.9 1.1-5-2.6-11.3-7.7-10.6-4.4.6-9.2 1.5-12 5-3.2 4.1-2.1 10-.6 15 .6 2 1.4 4.2 3.3 5.1 2.7 1.2 5.6-.7 7.8-2.6m-2.6-49.1c-2.5-4.9-10.2-6.1-14.1-2.2-4.4 4.4-3 11.8-.5 17.5.9 2.1 2.4 4.4 4.6 4.3 1.4 0 2.6-1 3.6-2 5-4.6 9.5-11.6 6.4-17.6zM543.6 121.7c5.2 9.3 11 18.3 17.3 26.9 2.9-3.2 1.9-8.2 1-12.5-2.5-11.4-3.2-23.2-2.3-34.9.2-2.4.5-4.9 1.8-6.9s4-3.3 6.2-2.4c3 1.3 3.2 5.4 3.1 8.6-1.1 20.6.9 41.4 6 61.4.3 1.2.6 2.5.5 3.7-.5 3.7-5 5.6-8.6 4.6-3.6-.9-6.3-3.8-8.8-6.5-6.1-6.6-12.4-13.4-15.9-21.7-.8-2-4.2-1.3-5 .7-.8 2 0 4.2.8 6.2 1.7 4.2 3.4 8.3 5.1 12.5 1.2 3 2.3 6.9 0 9.2-2.1 2.1-5.9 1.3-8-.9-2-2.2-2.8-5.3-3.4-8.2-2.8-12.7-5.7-25.5-8.5-38.2-.8-3.7-1.5-8 1-10.8 2.6-2.9 7.5-2.5 10.6-.3 3.3 2.5 5.2 6.1 7.1 9.5zM343.5 143.6c4.2 8.3 1.8 18.2-.8 27.2-1.5 5.1-3.1 10.4-6.3 14.7-2.9 3.9-6.9 6.9-10.1 10.5-3.2 3.7-5.7 8.6-4.4 13.3 1.7 6.3 3.3 12.6 5 18.9.4 1.4.7 2.8.3 4.2-.9 2.6-4.5 3.3-6.9 2-2.4-1.3-3.7-3.9-4.7-6.5-2.4-6.5-3.1-13.5-4.3-20.4-1.8-10.9-4.7-21.6-8.7-31.9-2.2-5.6-4.7-11.6-3.2-17.4.7-2.8 2.3-5.3 3.9-7.7 5-7.4 11.2-14.9 20-16.6 7.9-1.6 16.5 2.6 20.2 9.7M326 182.5c3.5-5.9 7-12 8.4-18.7 1.4-6.7.3-14.3-4.5-19.2-2.9-3-8.1-1.9-11.3.8-5.1 4.2-7.3 11.2-7.1 17.8.2 6.6 2.5 13 4.8 19.2.7 1.9 1.7 4.1 3.7 4.5 2.5.6 4.6-2 6-4.4zM429.1 166.5c-1.9 1.3-3.9 2.5-5 4.6-1.1 2-.7 5 1.4 5.9 10.4 4.4 20 10.8 28 18.7-1.3 4-7 4.1-10.9 2.7-5-1.7-9.6-4.6-13.4-8.3-1.3-1.2-2.7-2.7-4.4-2.4-3.1.4-3 5-1.4 7.6 1.6 2.6 3.9 5.6 2.7 8.4-1.3 2.8-5.6 2.9-8 .9-2.4-2-3.3-5.2-4.1-8.2-3.7-14.1-7.4-28.2-10.3-42.4-.7-3.3-1.2-6.7-.2-9.9s3.5-5.7 6.1-7.9c3.9-3.3 8.3-6.3 13.2-7.7 4.9-1.4 10.6-1 14.8 1.9 5.9 4.2 7.7 12.7 5.4 19.5-2.4 7.1-7.9 12.6-13.9 16.6m.4-26.9c-2.7-2.1-6.8-1.7-9.5.5-2.7 2.1-4.1 5.5-4.6 8.9-.8 5.2 1.1 11.8 6.3 12.9 2.6-3.6 6.2-6.4 8.5-10.1 2.3-3.8 2.8-9.4-.7-12.2zM475.4 284.6c-2.4 3.7-8.4 3.1-11.5 0-3.1-3.1-4.1-7.7-5-12-2.7-13.6-5.5-27.2-8.2-40.8-.6-2.7-1.1-5.6-.4-8.3.7-2.7 2.9-5.3 5.7-5.3 2.7-.1 5.5 2 7.8.7 8.5-5 20.4-6.2 27.5.7 4.2 4.1 5.9 10.3 5.6 16.2-.3 5.9-2.3 11.5-4.6 17-4.7 11.1-10.4 21.7-16.9 31.8m-1.3-61.7c-4.7.3-8.3 4.7-9.3 9.3-1 4.6 0 9.4 1 14 1.7 7.8 3.4 15.5 5 23.3 5-7.1 9-14.8 11.9-22.9 1.7-4.7 3-9.8 1.9-14.7-1.2-4.9-5.6-9.3-10.5-9zM523.4 200.7c2.8 3.1-.7 7.7-3.1 11-6.8 9.3-6.3 22-4.7 33.4.4 2.8 1.7 6.3 4.5 6.2 1.9 0 3.2-1.7 4.3-3.2 2.2-3.2 4.5-6.7 4.6-10.6.1-3.9-3.3-8.1-7.1-7.4-1.9-2.1 1-5.1 3.5-6.5 4.2-2.2 8.4-4.4 12.5-6.6 2-1.1 4.2-2.2 6.5-2.2s4.8 1.6 5 3.9c.3 3.3-3.7 5.2-5.2 8.2-1.4 2.7-.5 6 .5 8.9 2.4 7.7 4.9 15.4 7.3 23 1.1 3.4 1.9 7.8-.8 10.1-3.6 3-9.1-1-10.8-5.4-1.7-4.4-2.1-9.7-5.7-12.7-2.8 4.7-5.9 9.8-11.1 11.5-6.8 2.3-14.4-2.7-17.5-9.2-3.1-6.5-2.7-14.1-2-21.2 1-10.1 2.9-20.8 9.3-28.7 2.5-3 7.4-5.5 10-2.5zM611.1 136.6c-1.3.2-2.4.9-3.5 1.7-4.6 3-9.4 6.4-11.4 11.5-1.2 3-1.3 6.4-2.9 9.2-1.6 2.8-5.7 4.7-8 2.4-1.3 0-1.5-1.9-1.3-3.1 3.2-18 6.5-36.1 9.7-54.1.8-4.6 1.9-9.6 5.4-12.7 3.5-3.1 10.4-2.6 11.7 1.9 5.2 18.2 13.3 35.6 23.8 51.3 1.3 2 2.8 4.3 2.4 6.6-.6 3.2-4.5 4.8-7.6 4-3.1-.9-5.4-3.6-6.9-6.4-1.6-2.8-2.7-5.9-4.5-8.5-1.8-2.2-4.3-4.2-6.9-3.8m-10.6-6.5c1.3 1.5 3.8 1.3 5.3 0s2.2-3.3 2.4-5.3c.5-5.1-1.5-10.3-5.3-13.7-2.3 4.7-3.4 9.9-3.4 15.2 0 1.4.1 2.8 1 3.8zM402.7 231.4c2.3-2.1 6.3-1 8.2 1.5 1.9 2.5 2.4 5.7 2.8 8.8 1.5 10.4 3.9 20.8 7.2 30.8.8 2.3 1.7 4.8 3.8 6.2 2.1 1.4 5.5.8 6.1-1.6 3.1-12.7 2.9-26.3-.5-38.9-.8-3-1.8-6.2-1-9.2.8-3 4.4-5.5 7.1-4 1.3.7 2.1 2.1 2.7 3.5 6.4 13.6 8.4 29.2 5.5 43.9-1.4 7.2-4.3 14.7-10.4 18.8-6.1 4.1-16 3-19-3.7-7.1-15.4-11.8-31.9-13.9-48.8-.4-2.5-.5-5.5 1.4-7.3zM577.6 242.4c4.8 2.5 10.5-.1 15.7-1.6 5.2-1.5 12.6-.4 13.5 4.9-10 3.5-20.2 6.3-30.6 8.3-3.2.6-6.9 1.1-9.3-1.1-1.8-1.6-2.3-4.2-2.7-6.6-2.7-15.5-5.4-31.1-8.1-46.6-.4-2.5-.8-5.5.9-7.4 1.2-1.4 3.2-1.9 5.1-2.4 9.2-2 18.4-4.1 27.5-6.1 3.2-.7 4.6 4.5 2.4 6.9-2.2 2.4-5.8 2.6-9 3.2-5 .9-10.2 3.4-12.4 8.1-2.2 4.6-.1 11.4 5 12.4 2.9.6 5.8-.7 8.5-1.7 2.8-1 6.1-1.6 8.5.1 2.4 1.7 2 6.5-.9 6.7-6 .4-12.4 2.2-16.1 7-3.9 4.9-3.3 13.1 2 15.9zM371.7 173.6c6.2 3 13.1-3.3 20-2.8 1 .1 2.1.3 2.8 1.1 1.5 1.5.8 4.2-.9 5.6-1.6 1.3-3.9 1.7-5.9 2.1-3.8.8-7.6 2-10.6 4.5s-4.9 6.5-4.1 10.3c.8 3.8 5 6.8 8.7 5.5 4.1-1.4 8.2-2.6 12.3-3.7 2.5-.6 5.1-1.2 7.5-.3 2.4.9 4.1 3.9 2.7 6.1-1.1 1.8-3.6 2-5.7 2.2-5.6.5-11.1 2.2-16.1 4.8-4 2.2-8.5 5.1-12.8 3.4-4.2-1.6-5.6-6.8-6.4-11.2-2.5-13.1-5-26.2-7.4-39.4-.3-1.4-.5-2.8-.3-4.1.6-2.9 3.2-4.8 5.7-6.4 5.8-3.7 11.7-7.1 17.7-10.4 1.9-1 4-2.1 6.2-2.1s4.6 1.4 4.9 3.6c.4 2.8-2.5 4.8-5 6.1-5.4 2.6-11.3 4.8-15 9.5-3.7 4.7-3.7 12.9 1.7 15.6zM507.9 176c-9.4 2.2-18.3-7-19.9-16.5-1.6-9.5 1.7-19.1 4.3-28.4 1.6-5.8 9.3-8.2 15-6.1 5.7 2.2 9.5 7.4 12.3 12.8 1.7 3.3 3.2 6.7 3.7 10.3.9 5.9-.6 12-3.5 17.3-2.5 4.9-6.5 9.4-11.9 10.6m-2.5-9.6c8.4-7.9 8.5-22.8.3-30.9-.4-.4-.9-.8-1.5-.9-1.4-.2-2.3 1.5-2.7 2.9-1.8 6.2-2.4 12.8-1.9 19.2.3 4.1 1.8 8.9 5.8 9.7zM610.8 180.1c12.8-4.4 25.9-8.1 39.1-10.9 3.1-.7 6.5-1.2 9.1.6 2.5 1.8 2.1 7-1 7.1-5.8.3-11.9.6-17.1 3.3-5.2 2.7-9.4 8.3-8.4 14.1l6.3 36.9c.5 2.9.8 6.3-1.4 8.2-2.3 1.9-6 .9-7.9-1.4s-2.5-5.4-3-8.3c-1.8-11.1-3.7-22.2-5.5-33.3-.6-3.9-2-8.6-5.9-9.3-3.1-.6-7.6 1.3-8.8-1.6-1-2.5 2-4.5 4.5-5.4zM686.4 143.3c-.4.9-1.5 1.4-2.5 1.7-7 2.4-13.9 4.9-20.9 7.3-2.2.8-4.6 1.6-6.9 1.2-5.2-.9-7.5-7-8.7-12.1-4.3-18.1-7.5-36.5-9.6-55-.2-1.6-.3-3.2.4-4.6 1.6-3 6.3-2.8 8.7-.4 2.4 2.4 3.1 6 3.6 9.4 2 12.5 3.9 24.9 5.9 37.4.8 4.8 2.1 10.3 6.5 12.2 3.6 1.6 7.7 0 11.5-1.2s8.5-1.8 11.1 1.1c.9.7 1.4 1.9.9 3zM458.4 188.7c3.6-1.6 7.2-3.2 10.8-4.7 4.1-1.8 4.9-7.8 2.6-11.7-2.2-3.9-6.4-6.2-10.4-8.2-4-2-8.2-4.2-10.7-7.9-3.2-4.9-2.6-11.4-.1-16.7 2.5-5.2 6.8-9.4 11-13.5 1.5-1.4 3.1-2.9 5.1-3.4 2-.5 4.5.6 4.9 2.6.2.9-.1 1.7-.4 2.6-1.9 4.8-6.4 8.1-9.3 12.4-2.9 4.3-3.3 11.4 1.3 13.7 6.9 3.5 13.1 8.3 18.2 14.2 2.3 2.7 4.4 5.7 4.7 9.2.4 4.6-2.6 8.9-6.5 11.5-3.9 2.5-8.5 3.6-13 4.6-2 .4-4.1.9-5.9.2-2-.8-3.4-3.2-2.3-4.9zM297.6 968.8c-.7 5.4-3.1 12.3-8.5 11.9-53-4.8-107.4-9.4-158.6 5.1-5.5 1.6-13.7 1.7-14.4-4-3.2-26.4-6.4-52.8-9.6-79.1-.5-4.3-1.4-9.2-4.9-11.6-2.9-2-6.8-1.8-10.4-1.5-28 2.4-56 4.9-84 7.3-3.1-5 4.9-9.4 10.8-9.9 24.6-2.2 49.2-4.5 73.8-6.7 4.8-.4 11.1-2.6 10.5-7.4C90.2 777.4 82 681.6 77.8 585.5c-.1-2.9-.1-6.2 1.9-8.2 1.9-1.9 4.9-2.1 7.6-2.1 79.7-1.3 159.4-2.5 239.1-3.8 5.7-.1 11.5-.1 16.7 2.2 5.2 2.3 9.4 7.8 8.4 13.3-16.5 93.9-30.1 188.4-40.9 283.1-.6 4.9.6 11.8 5.5 11.7 68.5-.7 137 3.2 205 11.9 4.4.6 10.2 3.9 7.9 7.6-63.8-4.2-127.5-8.4-191.3-12.6-6.5-.4-13.2-.8-19.4 1.2-6.2 2-11.9 7-12.7 13.5-2.7 21.9-5.3 43.7-8 65.5M177.7 666.9c-3.7 2.1-4.3 7.1-4.5 11.3-.5 10.8-1.1 21.6-1.6 32.5-.1 2.6-.2 5.4.7 7.8.9 2.5 3.2 4.6 5.8 4.6l47.5-.6c3.3 0 7.1-.4 8.9-3.2.8-1.2 1-2.7 1.2-4.1 1.8-13.8 3.7-27.7 5.5-41.5.3-2.5.5-5.5-1.5-7-1.2-.9-2.9-1-4.4-1h-51c-2.2.1-4.6.1-6.6 1.2m69.8-45.1c1.5-9.3 2.9-18.6 4.4-27.9.4-2.6.8-5.3.1-7.8-.8-2.5-3.1-4.8-5.7-4.6-17.8 1.3-35.6 1.5-53.4.5-4.7-.3-9.9-.5-13.6 2.5-4.1 3.3-4.6 9.3-4.9 14.5-.3 7.5-.7 15-1 22.5-.1 2.3-.2 4.6.7 6.7.8 2.1 2.9 3.9 5.2 3.7 19-1.7 38.2-1.6 57.2.4 1.8.2 3.6.4 5.3-.2 3.8-1.4 5-6.2 5.7-10.3m41.2 9.7c1.2 1.5 3.3 2.1 5.2 2.5 5.6 1.1 11.3 1.4 16.9 1.1 3.9-.2 8-.8 11.6.7 3.6 1.5 6.4 5.9 4.6 9.3-9 1.2-18.2 1.2-27.2-.2-3.6-.5-7.4-1.3-10.8 0s-6 5.5-4.2 8.6c1.5 2.6 5 3.1 8.1 3.3 9.7.6 19.5 1.3 29.2 1.9 3.6.2 6.9-2.6 8.3-6 1.4-3.3 1.5-7.1 1.6-10.7.5-16.5 2.8-32.9 6.8-48.9 1-4.2 1.5-9.9-2.4-11.7-1.3-.6-2.8-.5-4.3-.5-8.1.4-16.2.8-24.3 1.1-2.8.1-5.7.3-8 1.8-3.8 2.4-5 7.3-5.9 11.7-1.9 9.7-3.8 19.3-5.7 29-.6 2.4-.9 5.1.5 7M169.8 780.1c0 8.1 0 16.2-.1 24.4 0 2.1 0 4.2 1.1 6 2.1 3.5 6.9 3.8 11 3.7 12.1-.3 24.2-.6 36.2-.9 1.6 0 3.3-.1 4.6-.9 2.4-1.5 2.9-4.7 3.2-7.5 1.1-11.2 2.1-22.3 3.2-33.5.3-3.1.3-6.8-2.2-8.6-1.5-1.1-3.5-1.1-5.3-1.1-13.8 0-27.6.1-41.4.1-3.9 0-7.3 3.2-8.8 6.8-1.4 3.5-1.5 7.6-1.5 11.5m154.6-108.8c-1.5-2.6-5-3.1-8-3.3-7.8-.5-15.7-.9-23.5-1.4-3.8-.2-8.1-.2-10.6 2.6-1.5 1.7-1.9 3.9-2.3 6.1-2.3 12.3-4.6 24.7-6.9 37-.4 2.4-.8 5 .5 7 1.6 2.3 4.8 2.7 7.5 2.9 9 .6 18 1.3 27 1.9 3.2.2 7 .2 8.8-2.4.8-1.1 1.1-2.6 1.3-4 2.2-13.5 4.4-27.1 6.6-40.6.3-1.8.6-4-.4-5.8m-204 245.9c-2.2 3.2-1.6 7.4-.9 11.3 2.1 11.8 4.1 23.6 6.2 35.4.5 2.7 1 5.5 2.5 7.8s4.4 3.9 7.1 3.1c7.8-2.4 16.2-3 24.3-1.9 3.3.4 6.3-2.3 7.5-5.4 1.1-3.1.8-6.6.4-9.8-3.1-29.6-4.8-59.4-5-89.1-.1-7.1-.2-14.7-4.5-20.3-3.9 4.9-3.5 11.8-3 18 2.8 31.8 4.7 63.6 5.8 95.5.1 1.5 0 3.2-1 4.4-1.6 1.7-4.5.9-5.9-.9-1.4-1.8-1.6-4.2-1.7-6.5-.7-11.4-1.4-22.8-2.1-34.1-.3-4.8-1.1-10.5-5.4-12.7-7.9 3.3-19.5-1.9-24.3 5.2m-16.3-247.4c-3.1.2-6.6.7-8.6 3.1-1.8 2.3-1.7 5.6-1.4 8.5 1.1 12.3 2.3 24.6 3.4 36.8.3 3.3 1 7.2 4 8.5 1.4.7 3.1.6 4.6.5 8.6-.6 17.3-1.1 25.9-1.7 2.3-.1 4.9-.5 6-2.4.7-1.2.7-2.6.7-3.9-.4-13.9-.7-27.7-1.1-41.6-.1-2.4-.2-5.1-1.7-7-2.3-2.8-6.5-2.8-10.1-2.5-7.1.6-14.4 1.2-21.7 1.7m78.8 181.1c-3 0-6.2.1-8.6 1.9-3.3 2.6-3.3 7.5-3.1 11.7.5 9 1.1 18.1 1.6 27.1.2 2.9.5 6.1 2.8 7.8 1.7 1.3 4.1 1.4 6.3 1.4 9.2-.1 18.5-.1 27.7-.2 1.7 0 3.6-.1 5-1.1 1.9-1.4 2.3-4 2.6-6.3 1.3-11.8 2.5-23.5 3.8-35.3.2-2.2.3-4.8-1.6-6.1-1-.7-2.3-.7-3.5-.7-10.9-.1-21.9-.1-33-.2m29.8 59.4c-1.8-1.2-4-1.1-6.1-1l-24.6 1.2c-2.6.1-5.6.4-7.1 2.5-1.2 1.6-1.2 3.9-1.1 5.9.6 13.5 1.1 27 1.7 40.5.1 2.7.3 5.7 2.3 7.6 2 2 5.1 2.1 7.9 2 5.1 0 10.2-.1 15.3-.1 4.3 0 9.4-.6 11.3-4.4.6-1.3.7-2.9.8-4.3.8-13.5 1.6-27 2.4-40.4.2-3.5.1-7.6-2.8-9.5m58.8-95.3c9.6.7 19.3.8 28.9.3 1.6-.1 3.3-.2 4.4-1.3 1-1 1.3-2.5 1.5-3.9 1.7-11.6 3.5-23.3 5.2-34.9.3-1.7.5-3.5-.1-5.1-1.3-3.8-6-4.9-9.9-5.4-6-.8-12.1-1.5-18.1-2.3-4.6-.6-9.8-1-13.4 1.9-3.5 2.8-4.3 7.8-4.7 12.4-.9 8.8-1.9 17.5-2.8 26.3-.4 3.4-.5 7.4 2 9.8 1.8 1.7 4.5 2 7 2.2M90.1 601.9c.4 7.4.8 14.8 1.3 22.1.2 3.1.6 6.8 3.3 8.4 1.5.9 3.4.9 5.2.9l29.5-.3c2.6 0 5.7-.4 6.9-2.6.5-1 .5-2.2.5-3.3l.3-34.8c0-2.1 0-4.3-1.2-6-1.9-2.6-5.6-2.7-8.8-2.6-7.5.3-15 .5-22.5.8-3.8.1-8 .4-10.9 2.9-3.9 3.5-3.9 9.4-3.6 14.5m182.7 248.2c-3.6-.3-7.5-.5-10.4 1.5-3.8 2.6-4.7 7.7-5.1 12.3-.9 9.6-1.6 19.2-1.9 28.8-.1 2.8.1 6.1 2.4 7.6 1.1.7 2.4.9 3.7 1.1 8.7 1.1 17.4 2.2 26.1 3.2 3.4.4 8.1-.1 8.6-3.5 1.7-12.1 3.4-24.1 5.1-36.2.6-4 .8-8.8-2.3-11.4-1.9-1.5-4.4-1.8-6.8-1.9-6.6-.5-13-1-19.4-1.5m13.9 63.7c-5-.5-10.1-1-15.1-1.6-5.4-.6-11.7-.8-15.2 3.3-2.5 2.8-2.8 6.9-3.1 10.6-.7 10.1-1.3 20.3-2 30.4-.3 4.3-.2 9.4 3.4 11.8 1.8 1.2 3.9 1.3 6 1.5 5.1.4 10.2.7 15.4 1.1 3.5.2 7.3.3 9.9-2 2.3-2.1 2.8-5.5 3.1-8.6l3.9-38.4c.2-2.2.4-4.6-1.1-6.2-1.2-1.4-3.3-1.7-5.2-1.9M108 816.5c2.2 2.3 5.9 2.2 9.1 1.9 5.3-.5 10.6-1 15.8-1.5 4.3-.4 9.5-1.5 10.8-5.6.4-1.3.4-2.7.3-4-.6-11.8-1.1-23.7-1.7-35.5-.1-2.8-.5-6.1-2.9-7.7-1.6-1-3.6-.9-5.4-.8-7.7.5-15.5.9-23.2 1.4-1.9.1-4 .3-5.7 1.3-3.9 2.4-3.8 8-3.3 12.5 1.3 10.6 2.6 21.1 3.9 31.7.3 2.3.7 4.7 2.3 6.3m18.9 87.3c5.3-.5 10.6-1 16-1.5 1.5-.1 3.1-.4 4.1-1.5 1.1-1.2 1-3 .9-4.6-.8-11.8-1.6-23.6-2.5-35.5-.2-3-.7-6.4-3.3-7.9-1.7-1-3.7-.8-5.6-.6l-15.3 1.5c-2.9.3-6.1.7-8.1 2.8-2.5 2.6-2.1 6.7-1.6 10.3 1.2 9 2.5 18 3.7 27 .5 3.4 1.2 7.2 4.1 9 2.3 1.4 5.1 1.3 7.6 1m100.6-152.5c4.5-1.8 6.5-7.2 6.4-12.1-.1-2.9-1.4-6.4-4.3-6.5-12.6-.1-25.1-.2-37.7-.4-5.7-.1-11.9 0-16.6 3.3s-6.6 11.1-2.1 14.7c2.5 2 5.9 2 9 2l39.6-.3c1.9 0 3.9 0 5.7-.7m15.9 170.9c.2-3.8.2-8.1-2.6-10.6-3.5-3.2-9.6-1.3-12.4 2.5-2.8 3.9-3.2 8.9-3.6 13.6-.7 9.6-1.3 19.2-2 28.8-.2 2.2-.3 4.4.3 6.5 1.2 4.1 5.6 7.1 9.9 6.6 4.3-.5 7.9-4.4 8.2-8.7.7-12.8 1.5-25.7 2.2-38.7m-68-267.5c2.1 2 5.4 2.1 8.3 2.1l55.8-.9c3.2 0 5.6-3.7 5-6.9-.6-3.2-3.3-5.6-6.4-6.7-3-1.1-6.3-1.2-9.6-1.2l-38.1-.3c-4.4 0-9.2 0-12.9 2.5-3.5 2.5-5.3 8.3-2.1 11.4m100.7-25.5c2.4-11.5 4.8-23 7.2-34.4.6-2.8 1.2-5.9.1-8.5-2.4-5.9-11.6-5.9-16.1-1.4-4.6 4.5-5.7 11.3-6.6 17.6-.9 6.1-1.7 12.3-2.6 18.4-.5 3.5-.7 7.6 1.9 9.8 1.2 1 2.7 1.4 4.2 1.8 4.5 1.2 11 1.3 11.9-3.3m-97.2 213.1l38.6-.9c5.2-.1 8.2-7.1 6-11.8-2.2-4.7-7.7-7.1-12.9-7.6s-10.4.5-15.7.6c-4.6 0-9.2-.7-13.8 0-4.6.7-9.2 3.1-10.9 7.3-2.1 5.5 2.7 12.5 8.7 12.4m95.8-109.2c-2.5 1.1-3.9 3.8-4.9 6.4-1.5 4-2 9.4 1.6 11.6 1.4.9 3.1 1 4.7 1.1 10.6.8 21.1 1.6 31.7 2.4 1.6.1 3.3.2 4.6-.6 1.6-1 2.2-3.1 2.7-4.9 1.3-5.2 2-12-2.6-14.7-1.8-1.1-4-1.1-6.1-1.2-8.9-.2-17.8-.5-26.8-.7-1.6-.1-3.4-.1-4.9.6m-17.9-8.9c3.4-1.4 4.5-5.6 5.2-9.2 2.1-12.2 4.3-24.3 6.4-36.5.7-3.9 1.2-8.6-1.7-11.4-3.3-3.2-9.1-1.6-12 1.9-2.9 3.5-3.5 8.3-4.1 12.8l-3.3 26.4c-.5 3.7-.9 7.7.5 11.2 1.4 3.5 5.5 6.2 9 4.8m-10 141.7c.5-2.9 1.1-5.8.8-8.7-.4-2.9-1.9-5.8-4.7-6.9-3.4-1.3-7.3.8-9.3 3.8s-2.5 6.8-2.9 10.4c-.8 6.9-1.7 13.7-2.5 20.6-.6 4.7-1 10.1 2.1 13.7 2.4 2.9 6.7 3.9 10.1 2.5 3.4-1.4 5.7-5.3 5.3-9-.8-8.8-.5-17.7 1.1-26.4m6.6-103.1c-3-2.8-8.3-1.3-10.8 2-2.5 3.2-3.1 7.6-3.5 11.7-1 8.8-1.9 17.6-2.9 26.3-.2 2.2-.5 4.5.2 6.7 1.1 3.5 4.8 5.9 8.5 5.5 3.6-.4 6.7-3.5 7.1-7.2 1.2-11.7 2.3-23.5 3.5-35.2.3-3.5.4-7.5-2.1-9.8m-89-171.1c.1-1.8.1-3.6-.6-5.3-2.1-4.7-9.6-4-12.9-.1-3.2 4-3.4 9.5-3.4 14.7 0 7.1-.1 14.3-.1 21.4 0 2 0 4.1.8 6 1.3 3.2 5 5.3 8.5 4.6 3.4-.6 6.2-3.8 6.4-7.3.3-11.2.8-22.6 1.3-34m-36 66.8c2.8-.2 5.7-.6 7.7-2.5 3.6-3.4 1.5-10-2.8-12.6-4.2-2.6-9.6-2.4-14.5-2.1-4.3.3-8.6.5-12.9.8-4 .2-8.4.6-11.4 3.3-2.7 2.5-3.6 6.8-2.2 10.1 1.5 3.4 5.2 5.6 8.9 5.3 9.2-.7 18.2-1.5 27.2-2.3m10.6 80.3c-.5-1.2-1.1-2.5-2.2-3.2-1-.6-2.3-.6-3.5-.5-5.8.3-11.7.7-17.5 1-4.1.2-8.3.5-11.8 2.4-3.6 1.9-6.3 6-5.4 9.9 1.2 5 7.2 7.1 12.3 6.7 5.1-.4 10-2.3 15.1-1.9 4.2.4 8.8 2.2 12.3-.2 4.2-2.9 2.7-9.4.7-14.2m163.3 106.1c1.3-3.8 2.7-7.7 2.1-11.7s-3.5-7.9-7.5-8.1c-6.3-.3-12.6-.6-19-.8-4.4-.2-9.1-.3-13 1.7-3.9 2-6.7 7-4.8 10.9 2.6 5.4 10.2 4.6 16.2 4 8.8-.9 17.8.5 26 4M160.6 668.7c-2.5-2.9-7.6-1.5-9.7 1.6s-2.1 7.2-2 11.1c.3 11.3.5 22.7.8 34 .1 4.2 1.5 9.8 5.7 9.8 1.5 0 2.9-.8 3.9-2 2.1-2.4 2.2-5.9 2.3-9.2l.6-39c-.1-2.1-.1-4.6-1.6-6.3m-24.1 156.7c-4.8 1.2-9.8.6-14.8 1.1s-10.2 2.2-12.7 6.5-.2 11.1 4.7 11.4c10.1.6 20.4-.6 30-3.6.7-3.3 1.4-6.9.4-10.1-.9-3.3-4.3-6.1-7.6-5.3m22-10c1.3-.9 1.4-2.7 1.4-4.2-.1-14.6-.3-29.1-.4-43.7 0-.7 0-1.5-.3-2.1-1-1.9-4.1-1.6-5.4.1s-1.3 4.1-1.3 6.2c.3 12.5.6 25 .8 37.5 0 1.7.1 3.4 1 4.8.9 1.5 2.9 2.3 4.2 1.4m88.2-80.6c-4 3.5-5.6 10-2.5 14.3 3.1 4.3 11.2 4 12.9-1 1-2.9 2-5.8 1.7-8.9-.3-3-2.2-6.1-5.1-6.8-2.5-.5-5.1.8-7 2.4m.3 89.8c-.9-1-2-2-3.4-2.1-.7-.1-1.5.2-2.2.4-3.8 1.4-7 4.6-7.8 8.6s1.3 8.5 5.1 9.9c4 1.5 8.8-1 10.5-4.9 1.7-3.9.6-8.7-2.2-11.9m19.1-182.8c-3.6-.6-7.6.7-9.7 3.7-2.1 3-1.7 7.6 1.2 9.9 2.4 1.8 5.7 1.8 8.6 1.1 2.9-.7 5.9-2.3 6.9-5.1 1.5-4.3-2.6-8.8-7-9.6M161.4 655c2.6-3.1 2.2-8.4-.9-11-3.1-2.7-8.4-2.3-11.1.8-2.7 3.1-2.3 8.3.7 11.1 3.2 2.7 8.6 2.3 11.3-.9m-2.8 80.5c-1.7-1.5-4.7-.8-6.2.9s-1.9 4.2-2 6.5c-.1 2.5.3 5.2 1.9 7.2 1.6 2 4.7 2.9 6.7 1.5 2-4.1 2.4-8.9 1.1-13.2-.3-1.1-.7-2.2-1.5-2.9m2.3 102.8c-.3-4.3-.6-8.7-.8-13-.2-2.7-2.1-6.4-4.4-5-1.5 5.1-2.1 10.5-1.6 15.8.2 1.8.5 3.7 1.7 5 1.3 1.3 3.7 1.5 4.7-.1.5-.8.5-1.8.4-2.7z"/></svg>