<svg xmlns="http://www.w3.org/2000/svg" viewBox="0 0 694.1 311.8" enable-background="new 0 0 694.1 311.8"><desc xmlns:shape="http://adobe.com/products/shape"><shape:version>1.0.2</shape:version><shape:captureDetail>0.750000</shape:captureDetail><shape:source>1</shape:source></desc><path fill="#C12C80" d="M615.4 146.6c-10.5.6-35.4-2.9-38.9 8.9-2 6.8-.6 16-.9 23.2-.3 9-.6 17.9-.9 26.9-.6 17-1.1 34.1-1.7 51.1-.2 6.6-2.4 15.7-.6 22 2.1 7.2 6.1 6.5 13 7 16 1 32 1.8 48 2.7 8.8.5 17.8.6 26.6 1.5 4.9.5 11.8 1.4 5.8 6.6-3.9 3.4-19.7.3-24.4 0-8-.4-15.9-.8-23.9-1.2l-53.1-2.7c1.6-29.3 2.7-58.6 3.2-87.9.3-12.8.4-25.6.5-38.5 0-4.3-2.3-18.6 0-22 2.9-4.1 6-3.2 11-3.4 26.7-1.1 53.4-1 80.1-1.5 8.9-.2 22-4.2 26.8 4.7 4.8 9 .4 29.5.2 39.6-.5 28-1 56-1.5 83.9-.1 3.6 1.8 30.4-7.1 22.1-3.5-3.3.4-34 .5-38.7.3-27.6.7-55.3 1-82.9 0-3.9 2.4-16.7-.5-19.6-2.9-2.9-14.6-1.1-18.4-1.1-9.9-.2-28.8-4.2-37.9-.3"/><path fill="#C12C80" d="M91.6 186.7c2.6 4.1 1.6 9.8-4 8.9-1.5-.2-3.9-5.8-5.6-6.6-8.3-4.1-15.6 4-19.6 10.1-7.2 10.9-16.3 42.5-1.5 51.4 7 4.2 17.9-.9 21.3-7.7 5.9-11.7-6.5-2.4-9.1-8.1-3.4-7.4 16.5-9.1 19.8-9.8 2.1-.5 11.9-4.2 13.6-1.4 2.5 4.2-.5 2.9-2.4 4.7-2.6 2.6-6.4 2.4-8.9 6.6-2 3.4-2.2 7.4-2.2 11.2 0 4.2 5.9 21.2-.1 22.2-7.9 1.1-.9-16.5-13.9-12.6-9.8 2.9-13.7 8.8-23.5-.2-14.9-13.6-9.7-40-2.3-56.2 5.7-12.4 26.9-30.5 38.4-12.5zM353.5 182c1.8 6.1 12.5 8.6 16.6 13.6 4 4.8 6.5 11.1 6.8 17.3.8 14.8-11.2 28.4-25.9 29.9-18.1 1.8-25.6-12.8-22.3-29 1.7-8.2 5-16.2 9.6-23.2 1.2-1.8 12.5-17.7 15.2-8.6m-7.5 11.9c-11.9 11.9-18.5 51.4 9.5 38.1 9.2-4.3 16.7-12.8 13.2-23.3-2.3-7-15.1-22.4-22.7-14.8-4.6 4.6 1.5-1.5 0 0zM555.9 63.6c-2.8-3.1-18.2-27.1-8.9-28.9 4.2 6.8 8 16.4 13.6 22 7.3 7.5 10.3 1.8 15.8-5.1 4.2-5.3 10.3-17 16.1-20.2 9.6-5.4 5.8 4.9 2.2 9.8-10.5 13.8-23.1 21.6-22 40 .4 6.5 7.7 46.9-5.9 43.7-.9-20.5 3.3-45.4-10.9-61.3-4.9-5.6 2.8 3.1 0 0zM622.2 210.2c-18.6 3.8 3.6 33.9-12.7 40.5-1.8-14.9-2.5-29.9-2.1-44.9.3-11.3-1.2-27.3 12.3-31.5 9-2.8 21.1 3.3 23.6 12.6 3.6 13.1-10.5 21.1-21.1 23.3m-4.1-25.3c-8.7 6.2-2.7 22.6 9.8 14.5 13-8.4 2.5-23.4-9.8-14.5zM152.6 90.6c-9.3 2.5-5.1 13.5-4.6 19.7.7 8.2-3.9 13.3-7.1 3.6-5.1-15.2-2-33.4-5.7-48.8-1.6-6.6-2.7-11 6.1-12.6 6.7-1.3 15 2.6 20.2 6.4 5.3 3.9 10.9 9.2 9.3 16.1-1.8 7.4-11.6 13.8-18.2 15.6m-8.8-25.2c-3.3 10.4 5.6 25.1 15.1 12.4 8.4-11.2-12.2-21.5-15.1-12.4zM302.1 291.5c23.5-.8 46.9-.9 70.4-.4 11.6.3 23.7-.2 35.2 1.3 8.8 1.1 15.5 6.9 2.4 7.7-23.2 1.6-47.2-.3-70.5-.5-10.8-.1-21.7 0-32.5-.2-1 0-9.4.8-10.7-1.3-2.6-4.4 1.3-6.4 5.7-6.6zM311.8 111c-6.5 6.3-15.9 1.3-23.4 1-9.1-.4-16 4.3-18.5-7-1.8-8.2.1-18.9.3-27.3.1-4.1-2.2-25.1 1.4-28 8.3-6.5 5.8 37.5 5.6 42.6-1 24.4 32.6 2.6 34.6 18.7-3.5 3.4-.5-4.2 0 0zM450.7 104.1c-3.2-12.3-7.5-24.4-10.8-36.4-1.8-6.5-3.8-41-15.1-28.9-7.3 7.8-9.9 26.4-14 36.3-2.4 5.8-3.2 11.3-5.1 17.3-1.9 5.9-6.6 11.6-4.8 18.1 10.2-.7 8.7-18.1 16.5-23.1 6-3.8 14.4-4.7 20.8-8.4 2.8 6.7 2.4 16.2 4.5 23.4.8 2.7 1 9 4.4 9.4 4.8.6 4.5-4.4 3.6-7.7-2-7.6.5 2 0 0zm-36.2-25.9c2-4.8 5.8-14.5 10.5-17.2 4.2-2.4 8.5 3.2 9.4 8.8.6 3.8 2 4.1-2.4 6.9-4 2.7-13 2.3-17.5 1.5.4-1.1 5.8 1.1 0 0zM212.1 227.6c-8.8-9 5.7-10.3 11.7-13.4 8.1-4.1 15.7-10.5 15.7-20.4 0-8.9-7.7-15.7-15.9-17.9-10-2.7-17.5 4.4-27 5.9-3.6.5-6.6-1.5-9.2 1.3-2.8 3.1-.4 11.4-.1 15.1 1 11.9 2.3 23.9 2.8 35.8.2 3.7-2.8 28.2 5.5 19.9 2.4-2.4 1.7-28.4 4.1-27.7 1.6-.4 13.4 14.4 14.8 15.9 3 3.2 12.8 16.9 18.4 15.8 11.3-2.4-17.1-26.6-20.8-30.3-1.2-1.3 8.1 8.1 0 0zm-16-19c-.7-5.9-3.1-8.5 0-13.6 1.8-3.1 7.1-6.1 10.4-7.7 6.3-3.1 22.3-5.5 25.2 4.3 3.1 10.5-33.8 31.4-35.6 17-.3-2.8.3 2.7 0 0zM489.4 231.8c10.3-2.8 9.4-18.5 9.5-26.4.1-3.9 0-29.2 6.9-19.5 4.6 6.5 1.9 25.3.5 32.4-1.6 8.4-5.4 18.2-14 21.7-10.1 4.1-17.1-2.2-19.7-11.6-1.8-6.6-4.6-27.9.1-34.2 8.5-11.6 7.1 8.6 6.5 13.5-.9 6.7-3.2 27.7 10.2 24.1 2.3-.6-4.3 1.2 0 0zM295 154.2c.4-12.6 32.2-7.5 40.5-7.7 6.8-.1 12.3.8 15.2-6.1 2.9-7.1-.5-23.4-.7-31.2-.6-18.3-1.1-36.7-1.7-55-.3-8.4 1-19.4-.8-27.5-2.2-9.7-6.7-8.9-16.4-8.7-17.8.4-35.5 1.2-53.3 1.8-8.9.3-17.8.5-26.7.9-9.6.5-11.9 1.1-12.7 11.2-1.5 18 .1 37.1.1 55.2 0 8.3 0 16.6.1 24.8 0 8-3.1 23 .6 30.4 5.8 11.9 21.5 3.6 30.9 3.6 20.5-.2 14.9 26.7 14.8 40.5 0 18.4-.1 36.7-.1 55.1V269c0 8.2 2.9 22.8-1.4 29.8-6.1 10-32.2 5.8-41.6 6-18 .3-36 .6-54 1-8.6.2-18.5 1.8-27 .5-8.4-1.3-7.8-4.9-8.2-12.4-.9-20.1-1.1-40.3-1.3-60.4-.2-21.9 1.1-44 .4-65.9-.2-5.9-.5-12.7-8.8-10.5-7.7 2.1-7.1 11.4-7.1 17.8.2 21.9 2.3 44.1 3.4 66 .5 8.8 8.2 45.2-4.8 48.2l-3.6-70.2c-.6-10.8-1.1-21.6-1.7-32.4-.4-6.9 1.4-21.4-4.1-26.8-6.1-5.9-23.3-2.4-30.8-2.1-11.9.4-23.9.8-35.8 1.1-10.9.3-22.2-.2-33 1-10 1.1-12 3.7-12.1 13.9-.2 22.2 2.2 44.8 3.3 67 .5 10.7 1 21.4 1.6 32.2.3 6.9-1.7 22.1 5.4 26.2 12.9 7.5 116.3-19.7 116.4-.2-24.7 2-49.4 3.9-74.1 5.9-11.9.9-23.8 1.9-35.7 2.8-14.1 1.1-16.8 2.1-17.5-12.9l-3.6-73.5c-.6-11.8-1.2-23.6-1.7-35.4-.4-7.6-4.6-25 .8-31.6 4.9-6 19-3.4 26.2-3.5 12.5-.3 25-.5 37.6-.9 9.2-.3 16.4.3 18.1-10 1.9-11.6-.4-25.4-.7-37.2-.3-11.7-.5-23.4-.8-35.1-.1-5.3-3.5-30.5 3.5-26.8 6.5 3.4 3.7 20.6 3.8 26.5l.9 37.2c.3 10.8-2.7 28 1.1 37.8 4 10.4 21.2 6.4 30.1 6.4h83.7c-.2-26-.3-52-.5-78-.1-12.6-.2-25.1-.2-37.7-.1-12.7-.6-19.5-14.8-18.8-26.1 1.3-52.6 6-78.6 8.9-5.3.6-26.4 6.3-29.1-2-1.8-5.6 7.5-4.1 11.3-4.5 7.3-.8 14.5-1.5 21.8-2.3 26.3-2.7 52.7-6.6 79-8.3 9.2-.6 15.9-.8 17.3 9.3 1.8 13.3.3 28.1.4 41.5.2 26.7-.6 53.6.7 80.3.3 5.7 1.7 17.1 9.6 10.2 6.6-5.8 3-24.7 3-32-.1-26.5-.3-52.9-.4-79.4 0-8.3-3.1-19.7 6.2-22.7 11.2-3.6 27.8-1 39.6-1.4 12.7-.4 25.5-.9 38.2-1.3 8.4-.3 32.3-5.2 38.3.6 5.5 5.4 2.5 21.9 2.7 29.2l.9 44.1c.2 8.7-4.4 61.7 7.9 61.7 8.8 0 5-21.6 5-27.8 0-14.5 0-29 .1-43.4V20.4c0 .2-.6-10.3 0-10.9 1.3-1.2 9.2-.3 11.1-.4 26.9-.9 53.7-1.7 80.6-2.6 9.4-.3 29.7-5.9 33.3 5.4 3.5 11.1-.5 29.5-.8 41.2-.3 14.6-.7 29.1-1 43.7-.3 11.1-3.3 27.1 1.2 37.7 1.8 4.2 5.2 8.2 10 9.1 7.4 1.3 8.1-1.7 8.1-7.6-.1-15-3.2-30.3-3.7-45.3-1-29.4.9-59 5.6-88 23.9 5.8 48.9 5 73.2 3 15.2-1.3 37-3.6 43-20.5 2.1 23.8-5.4 47.5-7.5 71.1-1.1 12.2-1.4 24.4-1.4 36.6 0 11.6 2.5 25.3.8 36.7-2.1 14.6-7.7-1.5-8.1-7.8-.8-12.4-.6-25-.2-37.4.8-24.9 3.3-49.7 7.6-74.3-26 1.5-51.9 2.9-77.9 4.4-9.1.5-21.8-2-26.2 7.3-3.9 8.2-.8 23.8-.9 33.1l-.3 38.8c-.1 10.9-1.8 22.9.6 33.5 5.2 23.4 27.6 2.6 38.3 20.6 9.6 16.1-1.1 44.9-2 62.6-1 21.5 4.8 43.7 2.4 64.9-2.6 23.3-25.6 21.3-44.1 22.4-24.6 1.4-49.3 1.3-73.9-.2 6.2-27.5 4-56.7 3.9-84.7-.1-14.1.5-28.3-.3-42.4-.5-9.5-9.7-24.8 2.1-27.9 10.6-2.8 23.3 3.3 34.4 1.8 10.8-1.5 9.9-2.7 9.1-12.9-.5-7.1-.9-14.1-1.2-21.2-1.2-28.4 2.9-56.6 2.4-84.8-.3-14.2-8.3-12.2-20.6-11.6-14.4.8-28.9 1.5-43.3 2.3-7.2.4-14.4.8-21.7 1.2-5.5.3-14.5-1-19.6 1.2-10.2 4.4-6.5 19.1-6.4 28.2.4 28.6.4 57.2 1.2 85.7.4 14.2 7 13.5 20 13 10.6-.5 21.9-2.4 29.6-10.3 1.5 47 1.9 94.4-.2 141.4-.3 5.6-2.1 15.5-7 6.2-4.2-8-.9-26.2-.9-35.2 0-23.4.6-46.9 1.7-70.3.3-6.1 2.7-21.3-4-25.2-2.9-1.7-12.6.4-16 .5-6.2.2-12.5.4-18.7.5-21.6.6-45.1-1.3-66.4 2.3-21.9 3.7-14.9 28.9-14.9 46-.1 23.2-.1 46.4-.2 69.6 0 3.4 1.2 11.1-1.7 13.9-6 5.8-4.4-5.8-4.5-9.4-.3-12.8-.6-25.7-.6-38.5-.4-27.7-.1-55.2.9-82.7m-21.4 2.4c-7-4.7-26.5-1-34.4-.8-10.8.2-21.7.4-32.5.7-13.6.3-46-6.5-48 11.4-2.5 21.9-.1 45.5-.1 67.5v35.7c0 7.9-3.1 22.1 6 26.2 7.6 3.5 20.3.4 28.4.2 11.5-.3 22.9-.6 34.4-.8 11.5-.3 22.9-.5 34.4-.8 8.9-.3 13.5 0 15.6-9.3 2.4-10.3 0-24.6 0-35.1V184c-.2-6.6 2.7-23.1-3.8-27.4m189.7 135.2c22.9-1.3 46-1.7 68.9-3.8 20.1-1.8 15.4-19.4 14.5-35.2-1.3-22.5-1.2-45.1.6-67.6.6-7.6 5.4-23.6 2.2-30.6-3.7-8.2-14.9-6.7-22-6.4-10.2.4-19.8 1.8-29.7 4.5-8.8 2.5-14.9 1.1-23.9.4-6.8-.6-18.6-2.6-23.2 3.9-4.3 6.1-1.8 18.5-1.9 25.3-.2 21.4-.3 42.8-.5 64.2-.2 15.5-8.5 46.6 15 45.3 23.9-1.3-6.5.3 0 0z"/></svg>