<svg xmlns="http://www.w3.org/2000/svg" viewBox="0 0 774.7 298" enable-background="new 0 0 774.7 298"><desc xmlns:shape="http://adobe.com/products/shape"><shape:version>1.0.2</shape:version><shape:captureDetail>0.750000</shape:captureDetail><shape:source>1</shape:source></desc><path fill="#C12C7F" d="M373.9 202c-115.7 5.6-230.8 22.4-343.3 50.1 0-9.1 18.2-10.3 24.2-11.7 12-2.8 24-5.4 36.1-8 24.1-5 48.4-9.6 72.7-13.6 47.9-7.9 96.1-13.8 144.5-17.7 97.5-7.9 195.7-7.6 293.2.8 27.6 2.4 55.2 5.4 82.7 9.2 9.4 1.3 66.1 3.1 63.6 18.2-106.9-22.2-214-27.2-322.7-29.3"/><path fill="#C12C7F" d="M77.3 115.4c-6.4 2.6-12.8 5.3-19.2 7.9 3.5 4.5 5.5 10.1 6 15.7.4 5.2-3.8 14.4-2.1 17.4 2.4 4 12.5 5 16.5 5.2 7.6.3 13.3-2.1 19.8-5.6 3.4-1.8 9.6-6.8 9.5-.8-.1 4.1-9.9 9.2-13 10.6-4.7 2-10 3-15.1 2.6-6.1-.5-10.5-4-16.3-1.1-10.4 5-14.2 19.5-25.5 25.1-10 4.9-23.8 4.1-30.9-5.4-6.9-9.3-2.9-22.5 5.3-29.5 4.6-3.9 10.6-6 16.5-6.8 7.4-.9 14.4 2.5 21.5 2.1 9.6-.5 9.7-17.8 5.7-24.9-3.4-6.1-6.9-4.5-12.7-2-2.5 1.1-14.3 6.6-12.3-2.1 1.5-6.4 29.4-3.3 20.3-15.6-2.6-3.5-7.8-4.7-11.8-4.4-2.6.2-12.7 4.5-8.7-3.9 2.6-5.4 11.8-1.1 15.4-4.5 3.7-3.5-1.6-11.9-2.6-17.1-2.4-11.8-3.6-31 4-41.3 7-9.5 20.3-2.8 25.6 5.3 1.9 2.9 2.9 14.4-3.2 9.4-.8-.7-1.3-6.7-2.8-8.4-2-2.3-5-3.6-8-3.6-16.5.3-10.8 27-9.7 36.8.6 5.6.9 14.2 7.2 16.7 6.5 2.6 14.9-6.6 20.9-2.1 8.1 6.1-29 6.1-20.6 18.5 3.2 4.8 10.5 1.8 14.7.8 1.9-.4 3.5-2 5.6-1.4 4.3 1.5 3.4 5 0 6.4m-43 41.2c-9.6.3-21.1 4.2-24.3 14.2-3.6 11.3 4.8 19.6 16 18.2 10-1.3 19.7-8.4 25.2-16.6 7.9-12.1-6.2-16.2-16.9-15.8-8 .2 6.4-.2 0 0zM487 131.1c8.9 6.7 19 7.6 29.6 6 3.2-.5 8.1-3.2 6.9 2.6-.9 4.1-7.7 4.9-11 5.3-10.1 1.2-20.1-7.6-29.2-3.7-7.7 3.3-15.5 13.9-23.4 3.9-5.6-7-.3-15.5 7.9-16.3 4.5-.4 7.6 2 12.2-.1 5-2.3 7.1-7.4 8.7-12.3 2-6.4 7.2-25.4 2.1-30.5-4-4-22.5 1.1-21-8.9 8.9 0 17.9-.1 26.8-.1-4.2-2.5-3.3-7.9-5.3-11.7-3.2-6-7.1-5-13.7-5.5-3.3-.2-15.6.9-17.7-2.5-4-6.4 11-5 13.3-4.7 4.9.6 11.2 2.7 15.6-1s2.6-8.3 2.9-13.5c.7-12.7 6.8-27.7 18-34.8C514.1.5 519.4-1 524.4.9c2.8 1 11.3 8.2 7 10.5-2.5 1.4-9.6-5.7-14.8-4-5.6 1.8-9.8 7.4-12.6 12.2-4.7 7.7-12.8 27.9-2.8 34.2 6.7 4.2 24.2-3.3 26.5 7.6-7.8 2.6-25.7-5.6-29.4 5.9-4.2 13 16.2 4.9 16.4 14-12.2-1.8-16 9.5-16.6 18.8-1.1 11.2-4.3 21.9-11.1 31M469.9 142c2.5-1.1 4.7-2.7 6.6-4.8-9.5-7.9-14.9 7.4-6.6 4.8zM336.8 58c-9.2-13.9-3.2-51.6 16.4-54.4 5.6-.8 22.4 7.4 16.2 15.1-3.6 4.6-5.7-4.4-7.3-6-3-2.9-6.7-3.7-10.8-2.2-10.3 3.9-9.8 18.5-10.5 27.4-.8 10.5-4.2 19 8.2 20.4 2.6.3 8.9-.9 10 2.8 1.2 3.9-8.9 3.1-11.3 3.8-3.5 1-8.4 3.9-6.3 8.3 1.7 3.4 7.8 1.7 9.5 5.4-16.7 4.6-9.1 29.3-14.7 40.8-2.8 5.8-4.5 5.2 1.7 9.4 2.8 1.9 5.9 3.4 9 4.7 7.4 2.9 15.5 3.9 23.4 3 4.3-.5 20.3-8 21.8-4.6 2.8 6.2-14.5 10.3-17.8 11-8.7 1.7-17.9.9-26.1-2.3-11.2-4.4-13.7-5-23.5 2.8-6 4.8-14.2 11.4-19.8 2-4.1-6.8.6-14.5 6.5-18.2 6.9-4.4 16.2-2.4 20.1-10.6 2.3-4.9 5.4-22.3 2.7-27.2-3.4-6.1-17.3-.7-18.8-7-1.5-6.2 16.6-.9 19.6-7.8 4.1-9.5-10.2-7.4-13.9-9.7-11-6.9 13.7-5.3 15.7-6.9m-11 74.3c-1.5-8.7-17.9 2.4-16.9 8.2 1.3 8.3 17.9-2.4 16.9-8.2-.4-1.9.3 2 0 0zM606.7 136.8c1.7 16.4-29.2-1.7-35.7 1.8-6.4 3.5-8.7 11.6-16.7 13.4-5 1.1-11.5-.1-14.4-4.8-4-6.7 1.1-14.6 6.5-18.4 7.2-5.1 13.5-1 20.4-3.9 9.3-3.9 10.6-32.1 6.3-39-2-3.1-4.1-4.3-7.4-5.6-2.3-.9-7.5 1.7-5.1-3.2 2.6-5.4 11.5 2.4 12.6-6.7 1-7.9-8-8.9-13.5-9.6-2.8-.4-6 1-6.2-3-.1-5.2 7.2-2.2 9.6-2.5 8.9-1 8.8-2.7 10.1-11.6 1.2-7.9 2.4-15.2 6.1-22.3 3.3-6.5 8.1-13.1 14.1-17.3 4.5-3.2 16.8-6.3 16.6 3.4C588.9-1.2 577.1 44 575.3 57c6.5-.8 13.5 2.5 17 8-3.5-.4-11.8-3.2-14.6-.5-2.4 2.3-.8 6.5 1.1 8.4 5.4 5.4 17.9.1 20.9 8.9-9-1.6-18.9-1.2-19.6 9.6-.5 8.4 1.5 15.4-1.6 24-.7 2-6.4 10.2-6.1 11.5.4 2 7.9 5.1 9.3 5.7 7.7 3.5 16.5 5 25 4.2m-59.8 9.2c4.8 2.6 24.8-11.2 18.7-14.8-7.5-4.5-27.8 9.7-18.7 14.8 2.4 1.3-3.2-1.8 0 0zM660.8 102.7c-.7 6.3-2.3 12.5-4.9 18.3-1 2.2-2.1 5.8-3.9 7.5-2.3 2.1-3.9-.8-6.1 1.8 7.1 8.1 16.8 18 27 21.9 5.8 2.3 8.6-.1 13.8-.9 3.5-.5 8.8-1 4.9 5.2-5.7 9-24.7.6-30.6-3.3-3.6-2.4-8.1-8.8-12-10-5.8-1.8-6.5 2.5-10.2 6.6-5.4 5.9-18.3 15.6-26.2 9-7.5-6.2.2-20.1 5-25.9 3.3-4 7.9-7.5 13.3-7.8 5.2-.3 8.7 3 13.6.5 7.3-3.9 5.8-26.4 16.3-22.9m-19.7 33.5c-6.6-12.6-24.3 1.9-25.6 11.1-2.4 16.6 22.3-7.3 25.6-11.1-2.6-4.9-4.9 5.6 0 0zM15.3 287.4c51.3-20.2 104-36.9 157.5-50.1 14.4-3.5 155.2-34.5 156.2-24.2-109.2 12.9-216.7 40.3-318.8 81.2-1.9-3.1 3.1-6.1 5.1-6.9 98.4-38.7-3.1 1.2 0 0zM187.7 102.4c0-7.3-4.9-6.8-10.6-6.4-5 .4-15.5.6-6.8-5.3 5.3-3.6 17.1-4.3 23.5-5.1 7.5-.9 11.8-.8 7 5.2-2 2.5-4.7 1.5-6.6 5-1.6 3-1.2 6.5-.9 9.6.7 8.6 1 13.4-1 21.9-1.8 7.9 1 6 8.6 4.3 4-.9 8-2 11.9-3.4 1.6-.5 10-4.9 11.4-4.6 6.6 1.3.2 6.1-2.5 7.8-6 3.7-13.2 5.4-19.9 7-6.8 1.7-10.5 2.6-14.2 8.5-3.6 5.7-5.6 11.1-13.8 11-15.2-.3-16.7-18.1-1.8-21.2 6.4-1.4 12.8.2 15.8-6.7 2.7-6.2 0-20.5-.1-27.6m-2.3 41.5c-3.5-1.2-21-2.7-17.5 4.8 3.7 8 14.8-1.8 17.5-4.8-4.5-1.5-2.5 2.8 0 0zM252.5 87.1c-4-1.6-15.1-.5-7.4-6.7 4-3.2 13.9-.2 18.8-.8 2.8-.3 11.2-4.8 9.9 1.7-.5 2.3-3.7.7-5 1.5-3.3 2.1-5.1 3.5-6.3 7.4-2.4 7.2.1 15.1-2.5 22.4-1.4 4-6.8 8.7-3.8 12.2 1.2 1.4 14 4.2 16.3 5.2 6.1 2.7 10.2 4.1 16.8 3.5 3.4-.3 9.5-2.6 6.8 3.4s-14.6 4.5-19.1 2.8c-5.6-2.1-10.5-6.9-16.7-7-8.3-.2-8.8 8.1-15.4 9.5-5.6 1.2-7.4-3.3-6.2-8.3 1.5-6.7 7.5-7.4 11.6-11.7 4.2-4.4 11.2-31.6 2.2-35.1"/><path fill="#C12C7F" d="M667.3 43.6c-1.2 8.4.6 17.6-3.3 25.5 6.2 2.5 20.3-1.4 22.6 7.9-6.1 2.8-12.9-2.8-19 .8-3.7 2.2-4.6 9.9-9.8 9.5 1-2.5 1-5.2 2.1-6.7 1.1-1.7 3.3-.8 4.2-3.7-2.7-.7-25.1-5.1-15.3-10.1 6.8-3.4 10.8 6.3 11.6-6.3 1.2-17.2 1.2-40.5 20.5-48.2 8.8-3.5 16.2-.9 21.2 7 .8 1.3 3.9 6.3 3.8 8 .7 1.9.3 3.5-1.3 4.8-2.7 1-4-.1-3.9-3.6-6.2-7.3-8.7-15.7-19.2-8.7-7.7 5.1-12.9 14.7-14.2 23.8zM735.3 173.9c9.9 1.1 19.7-6.7 21.7-16.2 2.1-10.1-4.5-18.6-9.6-26.7-5.9-9.3-10.4-19.3-3.9-29.6 4-6.4 21.6-17.5 25.1-4.2 1.9 7.4-2.9 2.9-6.3 2.1-5.5-1.2-10.8 3.2-13.7 7.8-6.9 11 4.4 20.3 9.4 29.5 5.7 10.5 8.7 23.5 1.6 34.2-3.2 4.9-24.9 17-24.3 3.1 11.5 1.2-.1 3.9 0 0zM187 17.7c6.3-13.7 24.2 1 21.3 4.5-2.4 2.9-5.5-2.6-7.2-3.2-4.7-1.6-7.8-.3-10.6 3.8-6 9-4.2 28.7-2.9 38.7.5 3.9.8 9.6 5.6 10.7 3.9.9 7.6-5.5 11.3-3.1 7.2 4.7-15.7 11.9-19.3 12.6-3.4.7-15.8 2.5-18.6-.6-3.7-4.1 1.4-6.2 5.3-6.7 5.5-.7 9.9 2.5 11.3-4.9.8-4.1-2.3-10.9-2.6-15.2-1-12.5 1.2-25.2 6.4-36.6 1.1-2.4-7.1 15.5 0 0zM256.7 38.1c.8 6 0 20.6 6.6 23.9 4.1 2.1 8.2-1.5 12.2-.4 6.5 1.8 4.5 3.4.3 5.6-3.6 1.9-13.4 4.6-17.4 4.5-4-.1-6.5-1.9-10.6-2.5-4.8-.8-17.8-2.3-8.1-7.2 4-2 12 3.2 15.8.8 4.1-2.6.3-1.8-.3-4.4-2.3-10.6-6.1-20.5-4.4-31.6 1.3-8.4 5.7-18.1 14.6-20.7 6.8-2 16.2 1.5 17.3 9.3-3.3 2.3-5.6-1.5-8.2-2.5-4.6-1.8-6.1-1.6-10.2 1.2-7.8 5.4-8.8 15.6-7.6 24 .6 4.9-.6-4.4 0 0zM435.3 158.9c-3.8 10.5-10.8 19.5-20.8 24.7-4.9-4 10.2-18 12.2-21.7 2-3.9 4.7-9.5 4.4-14-.5-7.2-3.2-4.7-8.1-8.2-7.6-5.3-1.5-14.7 6.8-10.7 10.7 5.1 8.8 20.9 5.5 29.9-1.3 3.6 1.9-5 0 0zM661.8 95.4c-3.4 2.1-14.8 3.8-16.7-1.3-1.9-4.9 10-3.9 12.5-6.3 1.4 2.6 2.8 5.1 4.2 7.6-5.1 3.2-1.4-2.5 0 0zM125.5 153.5c-3.6-3.7-1.4-9.8 3.3-11.2 6.3-1.8 12 5 14.4 9.8 5.8 11.7 1 26.4-10.5 32.5-3.2-4.2 6-14.6 6.2-19.9.1-2.7-.3-7.4-2.6-9.4-4-3.4-7.2 1.9-10.8-1.8-2.6-2.6 1.5 1.5 0 0zM681.7 94.9c-2.1 4.5-15 4.5-14.4-2 .5-4.8 15.9-1.3 14.4 2z"/></svg>