<svg xmlns="http://www.w3.org/2000/svg" viewBox="0 0 1000 840.3" enable-background="new 0 0 1000 840.3"><desc xmlns:shape="http://adobe.com/products/shape"><shape:version>1.0.2</shape:version><shape:captureDetail>1.000000</shape:captureDetail><shape:source>1</shape:source></desc><path fill="#29A3C5" d="M609.6 423.1c-2.5 8.3-5.3 17.1-11.8 22.9-6.8-3.8-9.7-12-11.5-19.6-2.4-10-3.9-20.1-4.5-30.3-.4-7.1-1.3-15.6-7.6-18.9-8.2 15.7-6.9 34.7-13.5 51.2-.8 2.1-1.9 4.2-3.9 5.2-3.2 1.5-7.2-1.1-8.4-4.4-1.2-3.4-.5-7.1.3-10.5 5.8-26.4 12.3-52.6 19.6-78.5 1.8-6.5 4.7-14 11.3-15.7 6.4 5.3 8 14.3 9.1 22.5 2 14 3.9 28.1 5.9 42.1.4 2.6.8 5.5 2.8 7.3 1.9 1.8 5.8 1.7 6.6-.9 7.4-23 18.8-44.8 33.6-63.9 4.4-.2 8.1 3.6 9.5 7.8 1.3 4.2.8 8.7.4 13-2.7 25.8-3.2 51.8-1.5 77.6.3 4.5-6.3 6.7-10 4.2s-5-7.4-5.7-11.8c-2-13.1-1.4-26.6 1.6-39.5.7-3.1-3.8-5.2-6.6-3.7s-3.9 4.9-4.8 7.9c-3.6 11.9-7.2 23.9-10.9 36zM739.6 421c-7.7 14.5-20.4 27.2-36.3 31.2-15.9 4.1-35-2.4-42.3-17.1-4.4-8.9-4.3-19.3-2.8-29.1 3.6-24.1 14.8-47.1 31.5-64.9 2.4-2.5 5-5.1 8.4-6.1 6.2-1.9 12.6 1.7 18.1 5.2 8 5.1 16.1 10.4 22 17.8 13.7 17.5 11.8 43.4 1.4 63m-18.6-2.7c3.6-5 7-10.3 9-16.1 6.7-19.1-3.9-42.5-22.7-50-4.5-1.8-9.1 2-12.1 5.7-11.9 14.4-19.7 32.1-22.4 50.6-1.2 8.6-1 18.4 5.1 24.6 6.1 6.2 16.4 6.5 24.3 2.8 7.8-3.6 13.7-10.5 18.8-17.6zM145.8 271.1c6.8-4.1 14.5-7.2 22.4-6.8 7.9.4 15.9 4.9 18.9 12.2 4.1 10.2-2.3 21.5-9 30.2-2.7 3.5-5.4 8.6-2.4 11.7 1 1 2.3 1.5 3.6 1.9 12.4 4.1 25.4 5.9 38.4 5.3 3.7-.2 6.4 4.2 5.5 7.8-.9 3.6-4.4 5.9-8.1 6.7-3.6.7-7.3 0-10.9-.6l-26.4-4.8c-3.8-.7-9.1-.5-10 3.3 4.4 5.7 8.1 11.9 10.9 18.5 1.4 3.3 2.6 6.9 1.8 10.4s-4.4 6.5-7.8 5.5c-18-21.6-21.2-52.5-38.2-75-3.3-4.3-2.9-10.5-.4-15.3 2.7-4.7 7.1-8.2 11.7-11m10.9 33c3.5 2.2 8.4.8 11.3-2.2 2.9-3 4.2-7.1 5.3-11.1.6-2.3 1.2-4.8.4-7.1-.6-1.8-2.1-3.3-3.7-4.3-6.2-3.8-15.3-1-18.7 5.5s-.8 15.3 5.4 19.2zM414 331.5c4.4-2 8.9-4 13.7-4.5 9.8-1.1 19.5 4.3 25.3 12.3 5.8 8 7.9 18.1 7.9 27.9-.1 31.8-24.2 62-55.3 69-2.9.7-5.9-1.4-7.3-4.1s-1.5-5.8-1.6-8.8c-.7-21-1-42.1-.9-63.1 0-6.5.2-13.5 3.9-18.8 3.4-4.9 9-7.5 14.3-9.9m7.3 81.7c10.2-7.4 18.8-17.2 23.6-28.9 4.7-11.7 5.3-25.3.1-36.7-4.1-9.1-17.8-10.3-25.7-4.1s-10.7 16.8-11 26.8c-.3 10 1.5 19.9.7 29.9-.3 3.2-.8 6.4 0 9.5.8 3.1 3.3 6 6.5 6.1 2.1-.1 4.1-1.3 5.8-2.6zM498.1 152.3l48-122.1c2.2-5.7 4.7-11.7 9.8-15 6.9-4.5 16.1-2.6 24.1-.4 126.9 33.7 253.7 67.4 380.6 101.1 11.5 3.1 24.8 7.7 28.3 19.1 2.4 7.7-.7 16-3.7 23.5-23.7 58.2-48.1 116.1-73.2 173.8-57.5-18.7-115-37.4-172.4-56.2-9-2.9-23.4-1.8-22.4 7.5 16.2-.2 32.5 5.1 45.5 14.7-99.9-.3-199.9-.5-299.8-.8-21.5-.1-45.4.8-61 15.6-1.9-9.8-17.3-10.7-24-3.3-6.7 7.5-6.9 18.5-6.8 28.5l1.8 155.7c0 3.2.1 6.5 1.9 9.1 3 4.4 9.3 4.7 14.6 4.6l349.2-7.8c4.7-.1 9.7-.4 13.3-3.4 3.9-3.4 4.6-9.1 5-14.2 5.3-63.3 10.5-126.5 15.8-189.8 6.4-3.3 10.8 7.1 10.6 14.3-1.5 63.3-6.5 126.6-15.1 189.3-2.4 17.6-25.4 23.3-43.1 21.1s-37.4-7.6-51.9 2.6c-11.2 7.9-15.1 22.4-18.3 35.7-19.2 81-38.3 162-57.5 243-5.3 1.1-7.1-6.8-6.4-12.1 12.3-91.4 33.8-181.5 64-268.6-6.4-6.9-16.3 4.2-19 13.2-25 83.8-44.1 169.3-57.1 255.8-6.5 4.6-11.5-7.7-10.3-15.6 13.4-84.7 31.7-168.7 54.6-251.4-13.1-3.7-26.7-7.4-40.1-5.1-13.4 2.3-26.4 12.6-27.3 26.1-5.7 93.4-11.5 186.7-17.2 280.1-7.1.7-9.7-9-9.7-16.1.6-93.4 6.7-186.9 18.2-279.6.9-7.3-10.3-10.8-16.1-6.2-5.8 4.5-7.1 12.6-7.9 19.9-10.2 88.6-15.2 177.9-14.9 267.1 0 9.6-4.4 23.1-13.7 20.7.3-101.8 6.2-203.7 17.5-304.9-37.6-4.9-76.1-3.5-113.2 4.1 24.8 70 49.5 140 74.3 210 2.6 7.3.2 19.8-6.9 16.7-24.1-68.1-48.3-136.2-72.4-204.3-3.7-10.4-9.3-22.5-20.3-24.1-7.7-1.1-10.3-10.6-11.5-18.3-7.1-43.7-24.7-85.7-50.8-121.4-7.6-.3-13.5 7.3-14.3 14.8-.7 7.5 2.3 14.8 5.3 21.8 55.6 129.7 111.1 259.4 166.7 389.1 3.3 7.8 3.4 20.9-5 20.5-57-133.4-114-266.8-171-400.1-4.6-10.8-16.1-23.7-25.4-16.4-41.7 32.9-83.5 65.8-125.2 98.7-3.7 2.9-8.2 6-12.8 4.8-3.8-1-6.2-4.8-8.2-8.2C80.5 438.8 45.3 365 16 289c-1.6-4.1-3.1-8.5-1.9-12.7 1.3-4.5 5.6-7.5 9.5-10.1 117.4-76.5 239-146.6 363.9-210 8.5-4.3 18.4-8.7 27.3-5.2-124.5 71.4-249 142.7-373.5 214-4.8 2.8-10 5.9-12 11.2-2 5.4 0 11.3 2.1 16.6 28.1 73.3 63 144 104.1 211 69.7-61.5 144.2-117.4 222.7-167.1-.7-10.5-1.4-21.4 2.8-31.1 4.1-9.7 14.7-17.5 24.8-14.9 40.6 10.5 68.4-53.9 110.3-50.6-17.1 17.4-36 33-56.3 46.5 74.1-1.9 148.3-3.9 222.4-5.8 4.7-.1 9.9-.4 13.3-3.7 9.7-9.2-5.7-23.1-18.3-27.3-50.6-16.8-101.2-33.5-151.7-50.2-17.1-5.6-14-30.5-7.4-47.3m201.8 98.4c65.8 21.7 131.9 42.7 198.2 62.7 1.5.5 3.2.9 4.7.5 2.4-.7 3.6-3.3 4.6-5.6 22.2-53.9 44.5-107.8 66.7-161.6.8-2 1.7-4.2 1.2-6.4-.9-3.4-4.7-4.9-8.1-6C837.4 94 706.1 58.5 573.6 27.9c-2.6-.6-5.4-1.2-8-.5-4.8 1.4-7.2 6.6-9 11.3-17.1 44.5-34.2 89.1-51.4 133.6-3.5 9.2 8.1 16.6 17.4 19.7 59.1 19.6 118.2 39.1 177.3 58.7M360.7 439.8c1.7-3.9 1-8.4.3-12.6-3.7-24.2-4-49-.9-73.3.3-2.1-2.2-3.8-4.3-3.6-2.1.2-3.9 1.6-5.6 3l-21 17.1c-2.5 2-5.2 5.2-3.6 7.9 11.2 19.9 21.2 40.5 29.8 61.7 1.8-.1 3.6-.1 5.3-.2M701 279.7c2.4-2.7 5.1-6.2 4-9.7-1.7-5.1-9.8-4.4-13.3-.3-2 2.4-3.2 5.8-2.4 8.8s4.2 5.4 7.3 4.5c1.8-.5 3.1-1.9 4.4-3.3zM499.7 341.6c-4 1-8.2 2.5-10.6 5.9-2.3 3.3-2.3 7.7-2.2 11.8.1 5.4.7 11.6 5.1 14.5 4.5 3 10.4 1.1 15.7.2 5.3-.9 12.4.7 13.1 6.1.6 4.7-4.6 8.2-9.3 8.7s-9.6-.7-14.2.5c-5.9 1.5-10.4 7.1-10.7 13.1-.3 6 3.8 12 9.5 14 3.5 1.2 7.4 1 11.1.8 4.6-.3 9.1-.5 13.7-.8 6.3-.4 14.8.9 15.6 7.3.5 4.4-3.7 8.1-8 8.9-4.3.8-8.8-.4-13.1-1.1-4.7-.7-9.4-.8-14.1-.2-5.9.7-11.8 2.3-17.6 1.3-5.8-1.1-11.5-6.3-10.4-12.1 2.2-11.8 1.5-24.1-1.9-35.6-.8-2.6.3-5.4 1.2-8 3.5-11.2 1-23.4 2.3-35.1.4-3.4 1.2-7.1 3.6-9.6 3-3.1 7.6-3.7 11.9-4.2 7.7-.9 15.4-1.7 23.2-2.6 4.7-.5 9.9-.9 13.5 2.2 3.6 3 2.6 10.6-2.2 10.6-8.6.2-17 1.3-25.2 3.4zM498.5 222.5c1.5 4.1-4.4 7.6-8.4 5.8-4-1.8-5.9-6.3-7.4-10.3-19.4-50.9-38.7-101.7-58.1-152.6-2.9-7.5-4.5-18.3 2.9-21.5 5 3.7 7.4 9.8 9.6 15.6 20.6 54.3 41.2 108.6 61.4 163zM92.5 301.2c5.8-4.1 12.9-7.2 19.8-5.8 11.8 2.3 17.9 16 18 28.1.1 13.5-4.8 26.9-13.6 37-2.9 3.4-.7 8.6 1.5 12.4 4.1 7.1 8.3 14.1 12.4 21.2 1.8 3 3.6 6.2 3.7 9.7.1 3.5-2.2 7.3-5.6 7.7-4 .4-6.9-3.6-8.9-7-13.2-22.9-26.5-45.9-39.7-68.8-3.4-5.8-3.2-13.2-.5-19.4 2.6-6.2 7.4-11.2 12.9-15.1m21.3 42.2c3.5-5.6 5.8-12.3 5-18.9-.8-6.6-5.2-13-11.6-14.8-6.4-1.8-14.2 2.1-15.5 8.6-1.7 8.6 7.2 15.3 10 23.6 1.6 4.8 9.4 5.8 12.1 1.5zM302.7 180.7c2.8-2.1 5.9-4.4 9.4-4 3.5.4 6.3 5 3.8 7.4-8.5 8.3-17 16.5-25.6 24.8 2.5 4.7 8.7 6.2 13.8 4.9 5.1-1.3 9.4-4.8 13.4-8.2 4.5-.3 6.8 6 4.7 10-2.1 3.9-6.6 5.9-10.6 7.8-4 1.9-8.3 4.5-9.5 8.8-1.3 4.9 2 9.9 5.9 13.3.9.8 1.8 1.5 2.9 1.9 3.4 1.3 7.2-.7 10.3-2.7 4-2.5 7.9-5 11.9-7.5 4.6-2.9 11.8-5.1 14.3-.3 2.2 4.3-2.6 8.8-6.8 11.3-10.1 6-20.1 12-30.2 17.9-3.9 2.3-8.4-1.8-11-5.5-5.2-7.2-10.4-14.3-15.6-21.5-2.2-3-4.5-7.1-2.4-10.3 5-7.8-10.7-16.8-6.9-25.3.9-1.9 2.6-3.3 4.2-4.5 8-6 16-12.2 24-18.3zM214.1 314.4c-10.9-11.1-13.4-27.8-15.3-43.2-.6-5.2-1.3-10.3-1.9-15.5-.6-4.8 2.9-9.4 7.4-11.3 4.5-1.9 9.5-1.4 14.2-.2 15 4 27.3 16.6 31 31.6 3.7 15-1.3 31.9-12.7 42.4-6.3 5.9-16.8 2.3-22.7-3.8m8.8-13c2.6 3 7.9 2.3 10.7-.5 2.8-2.9 3.6-7.2 3.5-11.2-.1-13.5-8.6-26.5-20.9-32-4.4.3-5.2 6.4-4.6 10.8 1.7 11.6 3.6 24 11.3 32.9zM249.4 241.9c-1.4-4.2-2.8-8.6-5.6-12-2.8-3.5-7.5-5.8-11.7-4.5-4.4 1.3-6.9 5.8-10.2 9-3.4 3.1-9.9 4.3-11.8.1-1.4-3.2 1.2-6.7 3.6-9.2 13.8-13.9 29.6-25.9 46.8-35.3 3-1.7 7.6-2.9 9.4 0 1 1.6.6 3.7-.4 5.3-2.4 4.3-7.3 6.5-11.3 9.4-4 2.9-7.6 8.1-5.4 12.5l29.1 60.6c2.5 5.2 4.1 13.1-1.2 15.3-4.6 2-9.1-3-11.6-7.4-8-13.8-14.6-28.5-19.7-43.8zM365.8 138c8.7-13.1 20.5-24.2 34-32.3 3.1-1.8 7.4-3.3 9.8-.7 2.6 2.7.4 7.2-2.3 9.8-2.7 2.6-6.2 5.1-6.5 8.8-.1 2 .8 3.9 1.6 5.8 8.7 18.2 17.4 36.3 26.1 54.5 2.1 4.4 4.3 9.5 2.7 14.1-1.6 4.6-9.2 6.7-11.3 2.3-8.8-18-17.5-36-26.3-53.9-1.6-3.3-3.8-7.1-7.4-7.6-4.3-.6-7.6 3.6-10.4 7-2.8 3.4-8 6.3-11.2 3.4-3-2.8-1.1-7.8 1.2-11.2zM374.5 220.6c3.4-1.3 4.5-5.9 3.1-9.3-1.4-3.3-4.5-5.6-7.7-7.4-10.6-6-23.6-9-31-18.7-6.8-8.8-6.8-22.3.1-31.1 2.2-2.8 5.5-5.3 9-4.8s6 5.5 3.3 7.8c-5.8 4.9-4.1 14.8 1.2 20.3s12.9 7.8 19.9 10.8c9.3 3.9 18.9 10.4 20.8 20.3 1.4 7.3-1.8 14.9-6.5 20.6-2.9 3.4-6.5 6.5-10.9 7.5s-9.5-.4-11.9-4.2c-2.4-3.8-.7-9.8 3.6-11 2.2-.6 4.7.1 7-.8zM877.6 202.2c7.2 1.1 14.3 2.6 21.3 4.6 3.3.9 6.8 2.1 8.9 4.9 2.1 2.8 1.8 7.5-1.4 8.9-1.7.7-3.6.3-5.3-.1-8.6-1.9-17.2-3.8-25.8-5.8-5.8-1.3-11.9-2.6-17.6-1-5.7 1.6-10.8 7.2-9.6 13 1.1 5.7 7.3 8.8 12.7 11.1 10.2 4.3 20.5 8.6 30.7 12.8 4.5 1.9 10 6 8 10.4-1.9 4.3-8.2 3.2-12.6 1.4-17.1-7-34.2-14-51.4-20.9-2.1-.9-4.3-1.8-5.8-3.6-3.2-4-.9-9.9 1.5-14.3 10.4-19.3 22.5-37.9 29.1-58.8 1.9-6.2 3.4-12.7 7.4-17.8 4-5.1 11.3-8.3 17-5.3 12.7 6.7 26.1 12.1 39.8 16.2-.1 3.4-.2 6.8-.3 10.3-11-1.2-21.9-3.9-32.2-8-7.3-2.9-13.9 5.3-17.6 12.2-2.8 5.3-5.6 10.5-8.4 15.8-.8 1.5-1.6 3.1-1.7 4.7-.2 6 7.4 8.5 13.3 9.3zM696.1 94.2c9.7 1.1 20 2.5 27.7 8.6 7.7 6.1 11 18.7 4.2 25.8-11.5 11.9-26.2 20.6-42.1 25.1 7 11 14.1 22 21.1 33 1.9 3 3.9 6.1 4.5 9.7.6 3.5-.6 7.6-3.7 9.4-17-6.9-19.7-30.7-34.3-41.9-5.2-.1-7.7 6.1-9 11.1-1.3 5-4.5 11.1-9.6 10.3-5.9-1-5.9-9.5-4.3-15.3 5.5-19.8 11-39.6 16.6-59.4 1.4-5.1-6.1-8.9-10.8-6.5-4.7 2.4-6.8 8-8.5 13-4.7 14-9.3 28-14 42-3.4 10.3-7 21-14 29.3-4.4-2-6.7-7.1-6.8-11.9s1.6-9.5 3.3-14c6.4-17.3 12.8-34.6 19.3-51.8.6-1.6 1.2-3.3.7-5-1.8-6-12.8-1.5-16.4-6.6-1.7-2.4-.6-6 1.7-7.9 2.3-1.9 5.4-2.5 8.4-2.8 9.1-.9 18.2.2 27.2 1.2 12.9 1.6 25.8 3.1 38.8 4.6m10.3 14.2c-14.8-3.2-30.8 9.5-31.2 24.6-.1 4.3 2.8 9.8 6.9 8.4 10.9-3.8 21-9.8 29.6-17.5 1.7-1.5 3.4-3.2 3.9-5.4 1.2-5-4.2-9.1-9.2-10.1zM580.4 147.5c2.2-6.8.1-14.4-4-20.3-4.1-5.8-10.1-10.1-16.1-13.9-5.8-3.6-8-11.3-6.8-18 1.3-6.7 5.4-12.5 10.2-17.4 6.8-6.9 15.7-12.7 25.4-12.3 9.7.5 19.1 9.6 17 19.1-.7 3.1-3.4 6.4-6.5 5.8-4.5-.9-4.5-7.6-8-10.5-4.1-3.5-10.2-.1-14.4 3.2-3.5 2.7-7 5.6-9 9.6s-1.8 9.3 1.7 12.2c12.1 10 25.3 22.1 25.5 37.8.1 10.6-6.4 20.8-15.7 25.9-9.3 5.1-21 5.1-30.7.9-3.6-1.6-7.3-4-8.6-7.8s.8-8.8 4.7-9.2c3.3-.3 6 2.4 8.7 4.2 9 5.9 23.2 1 26.6-9.3zM790.8 146.3c-1.7 2.5 1.2 6 4.2 6s5.6-1.9 8.1-3.6c8.9-6.1 19.3-9.7 29.6-13.2 5.1-1.7 10.8-3.4 15.6-1 4.8 2.5 5.6 11.1.4 12.4-15.9 3.9-31.2 10.3-45.2 18.8-2.2 1.4-4.6 3.1-5.1 5.6-.4 1.9.4 3.8 1.1 5.5l17.7 42.6c1.6 3.9-3.6 7.9-7.7 6.8-4.1-1.1-6.7-5.1-8.7-8.8-4.7-8.7-8.5-17.9-11.2-27.4-.9-3.2-1.9-6.6-4.4-8.8-2.6-2.1-7.3-1.9-8.4 1.3-2.2 6.2-4.3 12.3-6.5 18.5-1.1 3.1-2.2 6.3-4.6 8.7-2.3 2.4-6.1 3.6-9 2-4.8-2.6-3.4-9.8-1.4-14.8 1.7-4.1 3.4-8.3 5.1-12.4l7.5-17.7 18-42.6c1.5-3.6 3.7-7.7 7.6-8.2 3.8-.5 7.1 3.2 7.6 7s-1.1 7.5-2.8 11c-2.3 4.2-4.8 8.4-7.5 12.3zM732.7 212c-1.3 4.3-8.3 3.6-10.5-.3-2.2-3.9-1.1-8.7.2-13 8.1-28.5 17.7-56.5 28.9-84 1.3-3.3 3.2-7 6.6-7.7 3.9-.9 7.6 3 8.2 6.9.6 4-1 7.9-2.5 11.6-11.8 28.2-22.1 57.1-30.9 86.5z"/></svg>