<svg xmlns="http://www.w3.org/2000/svg" viewBox="0 0 1024 1024" enable-background="new 0 0 1024 1024"><desc xmlns:shape="http://adobe.com/products/shape"><shape:version>1.0.2</shape:version><shape:captureDetail>0.750000</shape:captureDetail><shape:source>1</shape:source></desc><path fill="#C12C7F" d="M218.7 822.8c-.8-4.7.7-9.5 2.4-14 6.7-19 13.3-38.1 20-57.2.6-1.9 1.4-3.9 3.1-5 3.3-2.3 8.1.7 9.2 4.6 1 3.9-.4 7.9-1.7 11.7-5.7 15.1-11.4 30.1-17.1 45.2-3 7.1-8.1 15.9-15.9 14.7zM87.2 784c-4.4-2.6-3.5-9.1-1.9-14 5.4-17.2 10.9-34.4 16.3-51.6 1.4-4.4 4.1-9.8 8.7-9.5 3.3.2 5.6 3.5 5.9 6.7.4 3.3-.8 6.5-1.8 9.5-3.4 9.3-6.8 18.5-10.2 27.9-4.1 11.1-8.4 22.7-17 31zM769.2 761.6c7.7-17.3 15.5-34.6 23.1-52 1.8-4.2 6-9.3 10-7.1 4.4 4.9 2.3 12.6-.2 18.6-7.6 19.1-15.8 39.2-31.8 52.2-4-1.5-2.8-7.6-1.1-11.7zM387.2 934.7c-2.8-3.9-1.5-9.2-.2-13.7 5.5-18.6 11.1-37.3 16.6-55.9.9-3.2 2.4-6.8 5.5-7.6 3.3-.8 6.5 2.2 7.2 5.4.7 3.3-.3 6.7-1.3 9.8-4.4 13.6-8.8 27.3-13.2 41-2.6 8.4-6.3 17.9-14.6 21zM992.3 562c.7 5.1-7.1 7.8-11.2 4.7-4.2-3.1-5.2-8.8-5.8-13.9-4.5-37.9-3.1-45.7-7.4-83.7-4.4-38-15.4-76.7-40.9-105.1-28.8-32.1-73.5-47.1-116.4-45.2-43 1.9-84.2 19.5-119.6 43.9-22.5 15.6-44.3 36.2-49.2 63.2-1.1 6.1-10.6 7-15 2.4-4.3-4.6-4.7-11.4-5-17.6-2.3-56.1-8.8-112-19.8-167-6.2-31.3-14.2-48.9-32.6-75.2-9.8-13.8-22.4-25.9-37.8-32.7-37.3-16.6-81.4.6-113.3 26-81.7 65-112.3 161.4-118.4 265.6-16 4.2-32.6-2.4-48.7-5.7-63.6-13.1-129.3 27-162.8 82.6C55.1 560 48.3 597 50.2 661.8c292.6-78.6 598-108.6 900.3-88.4 10 .7 21.6 2.3 26.9 10.9L568 588.5c-30.4.3-47.2 34.6-56.8 63.5-7.6-2.2-8.8-12.9-5.3-20.1 3.5-7.2 9.7-12.7 12.3-20.2 2.6-7.5-1.6-18.2-9.5-17.6-154.9 13.1-308.5 42.5-457.4 87.6-9.3 2.9-14.4-10.6-14.5-20.4-1.2-69.1 6.7-110.6 43.5-169.2 36.9-58.5 109.2-99.1 175.9-81.2 12.1 3.3 30.4 4.3 31.5-8.1 8.2-93 37.9-174.2 105.6-238.6 21.5-20.4 46.9-37.5 75.6-45 28.7-7.5 60.8-4.5 85.3 12.1 32.9 22.3 46.3 49.3 55.4 87.9 13.2 56 22 113 26.3 170.4 43.8-43.6 99.8-77.7 161.3-83.9 61.5-6.1 128.1 19.9 159.7 73 37.4 62.6 19.5 112 35.4 183.3zM621.6 679.9c-4.1 9.5-8.7 18.7-13.6 27.9-3.4 6-8.5 12.9-15.4 12.1-2.5-5.5.1-11.9 2.6-17.5 6.5-14.3 12.8-28.7 19.3-43.1 4.4-1.5 9.1 2.6 10 7.2.9 4.6-1.1 9.2-2.9 13.4zM405.3 732.5c-2.8-5.4-.4-12 2-17.6 6.6-15 13-29.8 19.6-44.7 3.6-2.7 9.1.8 10.1 5.1 1 4.4-.9 8.8-2.8 12.9-2.9 6.2-5.7 12.4-8.6 18.6-4.7 10.1-10.1 21.1-20.3 25.7zM490.4 748.8c1.2-3.7 7.3-3.1 9.3.2 2 3.3 1.3 7.5.4 11.3-2.5 10.3-5.7 20.5-9.7 30.3-3.9 9.7-9.1 19.7-18.3 24.7-2.9-4.4-1.2-10.1.5-15.1 5.7-17 11.8-34.3 17.8-51.4zM668.2 772.6c-3.4 6.2-8.6 13.4-15.6 12.4-1.1-4.3.7-8.8 2.5-12.9 5.1-12.1 10.3-24.2 15.5-36.2 2-4.7 4.8-10 9.8-10.9 4.1 1.6 6.1 6.6 5.8 11s-2.5 8.5-4.6 12.3c-4.5 8-9 16.2-13.4 24.3zM238.5 932.8c-3.7-4-1.9-10.3 0-15.5 5.3-13.8 10.6-27.8 16.1-41.6 1.7-4.6 3.7-9.3 7.6-12.4 7.4 4.5 5.2 15.7 2.2 23.7-6.6 16.6-13.3 33.6-25.9 45.8zM117.6 900.3c-3.1-1.4-2.7-5.9-1.6-9.2 5.4-18.2 11.2-36.4 17.1-54.4.5-1.6 1.1-3.4 2.6-4.4 2.9-2 7.1.4 8.1 3.8 1 3.3 0 6.9-1.1 10.1-3.9 11.8-7.8 23.6-11.8 35.3-2.7 7.5-6.1 15.9-13.3 18.8zM169.6 772.2c-5-5.7-2.9-14.6-.3-21.9 3.9-11.3 7.8-22.5 11.7-33.7 3.9-2.3 9.1 1.2 10.3 5.5 1.2 4.3-.2 8.9-1.6 13.2-4.6 13.3-9.6 27.5-20.1 36.9zM561.5 810c2.7 1.3 2.8 5.1 2.3 8.1-3.1 21-11.8 41.1-25 57.5-4.1-1.2-3.6-7.2-2.2-11.3 5.3-15.8 10.8-31.5 16.1-47.3 1.5-3.9 4.9-9 8.8-7zM46.6 857.7c.8-2.8 2-5.9 4.8-6.8 3.1-.9 6.3 1.8 7.1 4.9.7 3.1-.2 6.3-1.2 9.4-2.4 7.6-4.8 15.1-7.2 22.6-2.9 9.1-6.6 19.3-15.1 23.6-3.3-3.2-2.2-8.6-.8-13 4-13.5 8.3-27.1 12.4-40.7zM267.3 686.3c-2.9 6.9-8.9 15.2-15.7 12.2 3.8-14.7 8.2-29.4 13.4-43.7 1.1-3 2.7-6.3 5.6-7.2 3.6-.9 7.2 2.5 7.8 6.1.6 3.7-.8 7.4-2.3 10.9-2.8 7.1-5.9 14.4-8.8 21.7zM693 662.5c3.6-14.4 9-28.5 15.9-41.7 1.9-3.8 4.9-7.9 9.1-7.8 4 3.1 5.1 8.8 4 13.7-1.1 4.9-4 9.2-6.8 13.4-5.2 7.7-10.3 15.3-15.6 22.9-2.1-.1-4.3-.3-6.6-.5zM879.6 682.1c-3.1 5.7-8.7 12.4-14.5 9.7 3-17.2 10.6-33.7 22-47 3.8 1.5 5.6 6 5.3 10-.3 4.1-2.3 7.8-4.2 11.4-2.7 5.3-5.7 10.6-8.6 15.9zM320.9 753.2c-1.5-3-.5-6.6.5-9.7 3.6-10.5 7.2-21.2 10.9-31.7 1.3-4 3.4-8.7 7.6-9.4 5.9 5.9 3.7 15.8.9 23.8-3.8 10.9-8.9 23.3-19.9 27zM345.5 809.2c4.4.5 7.4 5.1 7.7 9.5s-1.4 8.7-3.1 12.8c-2.2 5.1-4.2 10.2-6.3 15.5-2 5-5.5 10.9-10.9 10.4-4.3-4.8-2.2-12.4.3-18.3 4.1-10 8.2-19.9 12.3-29.9z"/></svg>