<svg xmlns="http://www.w3.org/2000/svg" viewBox="97 144 828 509" enable-background="new 97 144 828 509"><path fill="#FEDB47" d="M368.4 535.8c-4.7-.1-9.3-.1-14 0 .8-.3 1.6-.5 2.3-.8 7.8-2.6 12.9-9.7 11.8-18.1-1-7.5-8-15.1-16.2-14.3-2.4.2-4.9.5-7.3.7-3.7-2.3-8.2-3.2-12.7-1.8l-15.3 4.8-.3-.9c-2-4.7-5.8-8-10.4-9.3 13.3-6.1 26.5-12.6 39.5-19.4 6.2-3.2 9.7-12 7.6-18.6-1.4-4.3-4.9-8.8-9.3-10.9 5.4-4.5 10.8-9 16-13.7 12-10.7.5-29.7-13.8-28 .4-3.7-.3-7.6-2.1-10.4-2.1-3.2-5.2-5.7-8.7-7.1l31.6-18.1c4.8-6.7 10.7-12.7 14.5-20.1 4.8-9.4 4.9-20.8 5.7-31.5l-7.5 3.3c1.7-4.8 1.3-10.8-1.2-14.6-2.6-4.1-7.1-7.2-11.9-8 7.1-5.2 14-10.7 20.7-16.5 10.2-8.8 3.5-24.2-7.5-27.5l2.9-2.9c5.7-5.9 6.3-15.1 1.3-21.7-5.4-7-13.6-7.6-21.3-4.2-12 5.2-23.9 10.6-35.8 16.1 2-1.9 3.9-3.9 5.9-5.8 3.8-3.2 7.5-6.6 11.1-10.1 1.4-1.4 2.6-3.1 3.4-5 2.3-2.5 4.6-5 6.9-7.6 12.5-14.2-3-34.4-20-25.9-7.5 3.7-14.9 7.6-22.2 11.7 1.8-1.3 3.5-2.6 5.3-3.9 6.9-5.1 11.1-14.5 5.9-22.6-5.2-8-14.2-9.9-22.6-5.9-65.6 31-122.6 76.8-178.9 121.9-6.8 5.4-6.1 17.8 0 23.3 5.1 4.7 11.2 5.6 16.8 3.7 4.7 2.3 10.4 2.4 15.4-.5 13.1-7.7 26.3-15 39.5-22.1.5 2.7 1.5 5.2 3.2 7.3 1.3 1.7 2.7 3 4.3 4-.4.3-.7.6-1.1.8-6.8 5.2-11.2 14.4-5.9 22.6 5 7.7 14.4 10.3 22.6 5.9l21.9-11.7c0 1.2.1 2.3.3 3.5-11.2 6.9-22.2 14.1-33.1 21.5-7.1 4.8-11 14.7-5.9 22.6 5.3 8.2 14.1 9.6 22.6 5.9l10.2-4.5c.3 3.2 1.5 6.4 3.4 8.8.3.4.7.8 1 1.2-6.5 4-13.1 8.1-19.6 12.1-7.4 4.5-10.8 15-5.9 22.6.9 1.3 1.8 2.5 2.8 3.4-1.3.8-2.7 1.5-4 2.3-16.1 9.2-5.4 35.5 12.7 30.2l15.3-4.5c-8.7 4.6-17.3 9.4-25.8 14.4-7.4 4.4-10.8 15-5.9 22.6 4 6.1 10.6 8.9 17.3 7.7-5.3 2.6-10.6 5.4-15.8 8.3-6.8 3.8-9.5 12.2-7.2 19.3-8 6.6-7.1 17.5-1.2 23.9-5.2 1.4-10.5 2.9-15.7 4.3-8 2.1-12.9 10.1-11.8 18.1.7 5.4 3.8 9.6 8.1 12-2.6 4.6-3 10.8-1.1 15.3 3.2 7.7 11.4 11.5 19.5 9.6l55.2-13.4c-.3 1.5-.4 3-.3 4.4-1.3.2-2.6.5-3.9.7-3.8.5-7.7 1-11.5 1.6-8.1 1.2-12.8 10.8-11.8 18.1 1 7.4 8 15.2 16.2 14.3 3.8-.4 7.7-1 11.4-1.6 3.9-.5 7.9-.9 12.5-1.3 7.4-.6 14.8-1 22.2-1.2 14.8-.3 29.6.3 44.3 1.8 8.6.9 16.9-8.2 16.5-16.5-.4-9.7-7.3-15.6-16.5-16.5-2.7-.3-5.4-.5-8.2-.7v-.2c17.9-7.4 35.3-16.1 51.9-26 14.1-8.5 8-30.5-8.3-30.7zM245 482.5c-2 .9-4 1.7-6.1 2.6 2.1-1.1 4.1-2.3 6.2-3.4-.1.3-.1.6-.1.8z"/><desc xmlns:shape="http://adobe.com/products/shape"><shape:version>1.0.1</shape:version><shape:captureDetail>0.750000</shape:captureDetail><shape:source>1</shape:source></desc><desc xmlns:shape="http://adobe.com/products/shape"><shape:version>1.0.1</shape:version><shape:captureDetail>0.750000</shape:captureDetail><shape:source>1</shape:source></desc><path fill="#13110C" d="M663.1 556.3c1-1.9 1.1-4.2 1.2-6.3.2-6.2.4-12.5.6-18.7.1-3.8 6.1-4.7 8.7-2 2.7 2.7 2.8 6.9 2.8 10.7l-.3 43.3c0 6.7-.1 13.5 1.4 20.1.3 1.4.7 2.9.6 4.3-.4 3.5-4.6 6-7.9 4.6-2-.8-3.3-2.7-5-4.1-1.6-1.4-4.2-2.4-5.9-1.1-5.1 3.8-11.9 5-18 3.3-4.8-1.4-9.4-5-10.2-10-.3-2.3.2-4.6.8-6.9 3.9-13.3 12.9-25 24.8-32.1 2.5-1.4 5.1-2.7 6.4-5.1m-18.9 37.9c0 1.7 1.8 3.1 3.5 3.1s3.4-.7 4.9-1.6c4.3-2.3 8.8-4.9 10.9-9.3 2.1-4.4 0-10.9-4.8-11.6-5.7 4.8-10.4 10.6-13.9 17.1-.3.8-.6 1.5-.6 2.3M738.7 608.4c-3.4-12.4-6.3-24.9-8.6-37.5-.5-2.8-1-5.8.4-8.3 1.3-2.5 5.2-3.8 7-1.6 4.7 5.5 7.2 12.8 6.9 20-.1 3.2 4.8 4.1 7.2 2 2.3-2.1 2.8-5.6 3.8-8.6.9-3 3.1-6.3 6.3-6.3 9 3.5 6.8 18.5 14.9 23.7 4.8-9.5 8.7-19.3 11.8-29.4.8-2.7 4.5-3.7 7-2.3s3.7 4.4 3.6 7.2c0 2.8-1.1 5.5-2.1 8.1-4.6 11.7-9.7 23.6-10.3 36.2-.1 2.4-.1 4.9-1.6 6.8-1.9 2.3-5.6 2.5-8.2 1.1-2.7-1.4-4.5-3.9-6.1-6.4-2.4-3.8-4.5-7.8-6.2-12-1.3-3.1-6.2-2.5-8.2.2s-2.1 6.2-2.7 9.4c-.6 3.2-2.3 6.8-5.6 7.5-4.8.8-8-5-9.3-9.8M217.3 606.9c6.2 1.7 12.9 1 19.3.5 33.4-3 67.2-2.4 100.5 1.8 3.2.4 6.8 1.1 7.8 4.6.7 2.2-.2 4.5-1.9 6-3.6 3.1-8.3 2.7-12.6 2.3-43.1-4-86.6-3.5-129.6 1.4-3 .3-6.1-.6-8.2-2.8-5.5-5.8.1-13.9 6.4-13.7-.2-94.2-.5-188.4-.7-282.7 0-1.6 0-3.2-.8-4.6-1.6-2.7-5.3-3.1-8.4-3.1-24-.3-48 1-71.8 3.9-1.4.2-2.8 0-3.9-.8-4.5-2.7-1.3-8.8 2-12.4 54.8-58 117.2-108.8 185.1-150.8 1.3-.8 2.8-1.7 4.3-1.5 1.6.2 2.9 1.4 4 2.6L423.7 277c3.6 3.7 7.4 7.8 8.2 13 .9 5.8-3.8 10.9-9.6 10.6-15.1-.5-30.2.1-45.1 2-2.7.3-5.5.8-7.5 2.5-2.8 2.4-3.3 6.6-3.5 10.4-4.4 73.9-7.1 147.9-8.1 221.8 0 2.2-.1 4.6-.4 6.8-.8 5.6-.6 11.2.7 16.7.7 3.1.9 6.4 1.1 9.5.6 12.6 1.2 25.3 1.9 37.9.1 2.9-1.8 5.6-4.7 6.1-4.8.9-6.6-5.2-6.8-9.7-4.4-101.5-2.3-203.3 6.2-304.6.4-4.9 4.7-9.1 9.6-9.4 17.2-1.1 34.5-2.3 51.7-3.4-36.4-37.4-72.8-74.8-109.2-112.1-2-2-4.2-4.2-7-4.3-2.2-.1-4.3 1.2-6.2 2.4-50.7 32.9-98.3 70.6-141.9 112.4-6.1 5.8-12.2 11.8-16.5 19.1 22.2-.7 44.5-1.4 66.7-2.1 3.4-.1 7.1-.2 10 1.5 3.4 2 4.4 6.5 2.1 9.7-5.7 8.2-5.9 18.9-5.8 28.9m-.2.2c.3 80.3.6 160.6.8 240.9M384.4 536.1c.1-3.2 4.4-4.9 7.3-3.4 2.8 1.5 4.2 4.8 4.5 8 .4 3.2 0 6.4.6 9.5s2.3 6.4 5.4 7.3c9.9 3.1 18.5 10.4 22.6 20 4.1 9.5 3.2 21.1-2.6 29.7-5.8 8.6-16.7 13.6-26.9 11.9-3.1-.5-6.7-2.3-6.9-5.4-.7-10.5-1.4-20.9-2.2-31.4-1.2-15.4-2.2-30.8-1.8-46.2m18.5 72.1c6.2-2.9 10.7-9 11.6-15.7s-1.7-13.9-6.9-18.3c-1.8-1.6-4.3-2.9-6.6-2.1-2.7 1-3.6 4.4-3.2 7.2s1.8 5.5 2 8.3c.3 3.8-1.3 7.5-1.8 11.3-.3 3.8 1.2 8.5 4.9 9.3M484.3 404.7c3.2-1.7 6-4.5 6.7-8 .8-3.5-.9-7.7-4.2-9-3.4-1.4-7.2.3-10.9.1-5.2-.2-9.8-4.1-11.7-8.9-1.9-4.8-1.4-10.4.4-15.2 1.7-4.8 4.7-9.2 8.5-12.7 5.9-5.4 15.1-8.3 21.9-4 4.6 2.9 6.9 8.4 7.5 13.8.6 5.4-.2 10.8-.5 16.2-.4 6.6 0 13.3 1.2 19.8 1.4 8-6.1 14.6-13.4 18.1-8.1 3.9-18.1 5.9-25.8 1.3-2.9-1.8-5.5-4.8-5.2-8.2s4.4-6.3 7.2-4.3c5.3 3.5 12.6 3.9 18.3 1m-2.4-30.1c2.9-2.7 5.8-5.4 8.7-8.2 3.1-3 .1-8.9-4.2-9.5-4.3-.5-8.2 2.7-10.5 6.4-1.6 2.6-2.6 6-1.5 8.8 1.1 3 5.3 4.6 7.5 2.5"/><path fill="#13110C" d="M558.8 578.3c.6 5.5.8 11 .7 16.5-.1 4-.4 8.2-2.5 11.6-5.4 8.7-14.3 16.5-24.5 15.8-10.4-.6-18.9-11.6-17-21.9 1.9-10.3 13.8-17.4 23.8-14.2 1.3.4 2.7 1 4.1.8 3.7-.7 3.7-6 2.7-9.7-.4-1.6-.9-3.3-1.9-4.5-2-2.5-5.8-2.9-8.8-1.9s-5.5 3.2-7.9 5.4c-1.6 1.5-4.4.1-5.1-1.9-.7-2.1.1-4.3 1-6.2 4.3-8.7 14.4-15.8 23.4-12.2 8.3 3.3 11.1 13.5 12 22.4m-24.2 30.3c3.3-.7 6.4-2.1 9-4.2-.4-3.8-3.2-7.4-7-8.3-3.8-.8-8.1 1.7-8.8 5.4-.7 3.8 3 7.9 6.8 7.1zM833.4 461.4c3.1-4.4 8.7-6.6 14-6.3s10.4 2.8 14.4 6.3c2.4 2.1 4.6 4.6 6.1 7.4 3.5 6.6 3.3 14.9-.2 21.4s-10 11.3-17.3 13.1c-6 1.4-7.9 9-7.6 15.1.3 6.1 1.4 13-2.3 17.8-1.3 1.7-3.6 3-5.6 2.2-2.1-1-2.5-3.8-2.6-6.1-.7-18-1.4-35.9-2-53.9-.2-5.9-.3-12.2 3.1-17m15.5 7.4c-1.1-.2-2.3-.1-3.4.4-2.9 1.4-3.3 5.2-3.3 8.4v7.6c0 1.4 0 2.8.7 4 1.6 2.7 5.6 2.4 8.3.9 4-2.3 6.7-7 6.3-11.6-.3-4.7-4-9-8.6-9.7zM462 580.7c9.5-4.3 11.8-17.3 20.4-23.1 5.8-3.9 14.2-3.7 19.8.6 5.6 4.3 7.9 12.4 5.5 19-1.6 4.5-5.1 8.2-8.9 11-3.3 2.5-6.9 4.5-10.7 5.9-1.7.7-3.5 1.3-4.7 2.7-2.8 3.6 1.4 9.1 5.9 9.6s8.8-1.9 13.2-3.3c2.2-.7 5.1-1 6.5.9 1.6 2.1-.1 5.1-1.9 7-5.1 5.3-12.4 8.8-19.7 8.4-7.4-.4-14.6-5.2-16.9-12.2-.7-2.2-1-4.5-1.9-6.5-1.7-3.7-5.3-6.1-7.6-9.4-2.4-3.3-2.7-8.9 1-10.6m24.1.1c3.4-1.8 6.4-4.4 8.8-7.5.7-.9 1.4-2 1.4-3.2.1-2.7-3.3-4.6-5.9-3.9-2.7.7-4.6 3-6.1 5.2-1.1 1.7-2.2 3.4-3.1 5.2-.6 1.2-1.2 2.7-.5 3.9.9 1.8 3.6 1.3 5.4.3M613.2 613.2c-8-1.9-15.5-5.9-21.5-11.5-2.8-2.7-7.4-1.1-10.9.6-.4.2-.7.3-1 .6-1.4 1.5.8 3.5 2.1 5.1 2.7 3.3 0 9.3-4.3 9.5-3.6-2-4.1-6.2-4.8-10.3-.5-3.3-.7-7.3-2.2-10.3s-2-7.1.5-9.3c2.6-2.2 2.8-6 3-9.4.3-10.1.6-20.2.9-30.2.1-1.8.2-3.7 1.3-5.1 2.2-2.7 6.9-1.4 8.8 1.5 1.9 2.9 1.7 6.6 1.5 10.1l-.6 9.9c-.1 1.9-.2 3.9.7 5.5s3.3 2.6 4.8 1.4c5.2-4.2 10.7-7.9 16.5-11.2 2-1.1 4-2.1 6.2-2.3s4.7.9 5.6 2.9c1.4 3.4-1.8 6.7-4.7 8.9-5.3 4-10.7 8.1-16 12.1-1.8 1.4-2.1 4.1-1.2 6.2.8 2.1 2.6 3.7 4.3 5.1 4 3.4 8.4 6.3 13 8.8 1.9 1 3.8 2 5.3 3.5s2.1 4 1.1 5.9c-1.4 2.8-5.3 2.7-8.4 2M495.6 456.4c-1.7 2-5.2 1.5-6.7-.6s-1.3-5.1-.1-7.4c1.2-2.3 3.2-4.1 5.2-5.7 2.9-2.4 6.1-4.7 9.8-5.5 6.6-1.3 13.3 3.1 16.8 8.8s4.5 12.6 5.5 19.3c1 7.2 2 14.9-1.1 21.4-2.1 4.3-5.7 7.6-9.8 10-8.8 5.2-21.8 5.3-27.9-2.9-3.9-5.4-3.8-13.2 0-18.7 3.7-5.5 10.6-8.5 17.2-8.1 2.7.2 5.9.8 7.9-1.1 1.6-1.5 1.7-4 1.1-6-1.1-3.5-4.2-6.4-7.8-7.1s-7.8.8-10.1 3.6m11.3 29.8c1.6-.8 3.3-1.7 3.9-3.4 1-2.9-2.3-5.5-5.3-5.8-2.8-.3-5.9.5-7.6 2.7s-1.4 5.9.9 7.4c2.4 1.6 5.5.3 8.1-.9M856.4 610.7c1.9 3.3-.4 7.9-3.9 9.1-3.6 1.2-7.7-.4-10.2-3.2s-3.7-6.6-4.3-10.3c-1-6.3-.6-12.9 1.2-19.1.6-2 1.4-4.2.9-6.3s-2.8-3.9-4.7-2.9c-.7.3-1.1.9-1.6 1.5-6.8 9-10.9 20.1-11.5 31.4-.1 2.3-.2 4.8-1.8 6.5-2.3 2.3-6.6 1.1-8.5-1.6-1.9-2.7-2.2-6.1-2.3-9.4-.5-8.6-.9-17.1-1.4-25.7-.1-2.7-.3-5.5.6-8.1.9-2.6 3.2-8.9 5.9-9.1.6 3.4 4.8 9.2 8.2 8.4 3.4-.9 6-3.4 8.5-5.9 2.5-2.4 5.2-5 8.6-5.6 6.8-1.3 12.7 5.8 13.4 12.6s-1.9 13.6-3.5 20.3c-1 4.2-1.4 9.2 1.4 12.4 1.5 1.9 3.8 2.9 5 5M425.3 389.8c-3.9 1.2-7.2-3.5-7.2-7.5 0-4.1 1.7-8.1 1-12.1-.8-5-5.5-9-10.5-9s-9.7 4-10.5 8.9c-.5 3.2.4 6.4-.1 9.6-.5 3.1-3.7 6.3-6.6 5-2.3-1-2.8-4-2.9-6.4-.3-4.7-.5-9.5-.5-14.2-.1-11.7.7-23.4 1.4-35.1.1-1.9.3-4 1.7-5.4 2.6-2.7 7.6-.3 8.9 3.2 1.2 3.5.1 7.4-.7 11.1-.8 3.7-1.2 7.9 1.1 10.8 3.2 3.9 9.2 3.3 14.2 2.2 5.4-1.1 6.7-8.3 5.9-13.8-.8-5.5-2.4-11.8 1.1-16 .6-.7 1.3-1.3 2.2-1.5 2.1-.4 3.8 1.9 4.5 3.9 2.7 7.2 2.4 15.1 2 22.8-.5 10-1 20.1-1.5 30.1M893.7 334.5c-2.8-1.8-6.3 1.3-7.9 4.2-1.1 2-2.1 4.2-1.7 6.4s2.5 4.3 4.7 3.8c4.6-1.1 9.3-1.6 14-1.5 2.6.1 5.8.8 6.4 3.4.4 1.6-.6 3.3-1.8 4.4-3.7 3.6-9.3 4-14.2 5.3-5 1.3-10.3 4.9-10 10 .7 12.5 1.5 25.1 2.2 37.6.2 2.6.3 5.4-.9 7.8-1.2 2.4-4.2 4-6.5 2.8s-2.7-4.2-2.9-6.8c-.6-9.6-1.1-19.3-1.7-28.9-.4-6-1-12.6-5.4-16.8-2-1.9-4.8-3.4-5-6.1-.2-3.3 3.5-5.2 5.9-7.4 4.7-4.3 5.2-11.3 6.5-17.5s5.1-13.2 11.4-13.4c3.1-.1 6 1.6 8.3 3.6 1.7 1.5 3.4 3.5 3.3 5.8 0 2.4-2.7 4.5-4.7 3.3M791.5 492.4c-.3 3.3-1.3 7.5-4.5 8-3.8.7-6-4.2-6.4-8.1-.6-6.1-.3-12.3.9-18.3.6-2.8-2.8-5.2-5.7-4.7-2.8.5-5 2.8-6.8 5-3.6 4.6-6.8 9.8-7.1 15.7-.1 2.5.4 5-.2 7.5-.5 2.4-2.5 4.9-5 4.7-5.5-1.3-6.6-8.5-6.5-14.1l.3-47c0-2.4.1-4.8 1.2-6.9 1.1-2.1 3.7-3.6 5.9-2.7 4 9.2 5.1 19.7 3.2 29.6 2.2 2.1 5.9 1.3 8.5-.4 2.5-1.7 4.7-4.2 7.5-5.2 5.5-2 11.7 2.1 14.1 7.5s2 11.5 1.5 17.3c-.3 4-.6 8.1-.9 12.1"/><path fill="#13110C" d="M541.2 384c0-6.4.1-12.9.1-19.3 0-2.3-2.6-4-4.9-3.8-2.3.2-4.3 1.8-5.7 3.6-2.4 3-3.9 6.6-4.3 10.4-.3 3.2-.1 7.1-2.8 9-2.6 1.8-6.4.2-8.1-2.5-1.7-2.7-1.7-6-1.8-9.1-.2-12.4-.3-24.7-.5-37.1-.1-6.3.3-13.5 5.3-17.4 3 .7 5.1 3.4 6 6.3.9 2.9.7 6.1.5 9.1-.3 4.1-.5 8.2-.8 12.2-.2 2.5 0 5.6 2.2 6.8 2.9 1.5 5.9-1.6 8.9-3 4.4-2 9.9.1 12.9 4 3 3.8 3.9 8.9 4 13.8s-.4 9.7 0 14.6c.2 2.6.8 5.3.3 7.9-.5 2.6-2.5 5.1-5.1 5.3-2.4.1-4.5-1.7-5.4-3.9-.8-2.1-.8-4.6-.8-6.9zM440.6 445.9c2.3 1.9 4.5 3.9 6.5 6.1 1.2 1.3 2.3 2.7 2.9 4.3 1.1 3.5-.9 7.3-3.2 10.1-2.7 3.3-6.1 6-9.8 8-2.5 1.3-5.1 2.4-7.3 4.1s-3.9 4.5-3.4 7.3c.6 3.5 4.3 5.7 7.8 5.6 3.5-.1 6.7-1.8 9.7-3.8 1.8-1.2 3.6-2.5 5.7-2.8s4.6.8 5 2.9c.3 1.6-.6 3.1-1.5 4.4-4.6 6.4-11.5 11.4-19.3 12s-16.2-4.2-18.2-11.7c-1.1-4.2-.3-9-2.6-12.7-2.1-3.4-6.7-6.2-5.5-10 .8-2.6 3.9-3.6 6.2-5 4.7-2.9 6.6-8.7 9.3-13.5 2.6-4.9 7.6-9.7 12.9-8.3 1.7.6 3.3 1.8 4.8 3m-3.5 11.3c-.8-2.5-4.6-1.5-6.6.1-4.8 3.8-8.8 8.6-11.8 14-.4.7-.8 1.6-.6 2.4.5 2 3.5 1.5 5.3.6 4.5-2.3 9.5-5.2 10.2-10.2.3-2.7 4.3-4.3 3.5-6.9zM688.6 491.3c-.5 3.9-1.9 8.7-5.8 9-2.8-.5-4.8-3.2-5.4-5.9s-.2-5.7.2-8.5c.8-4.9 1.5-9.7 2.3-14.6.5-2.9.4-6.9-2.5-7.8-2.2-.7-4.4 1-5.8 2.8-3.6 4.4-6 9.8-6.8 15.4-.5 3.7-.4 7.6-1.2 11.2-.9 3.7-3.1 7.3-6.7 8.5-4.3-.8-5.5-6.3-5.8-10.7-.7-10.2-1.3-20.3-2-30.5-.2-2.8-.3-5.8 1.5-8s6.1-2.1 6.7.6c.8 3.3 5.5 3.9 8.6 2.4s5.4-4.3 8.7-5.4c6-2.1 12.6 2.6 15 8.5s1.7 12.5.9 18.7c-.8 4.9-1.4 9.6-1.9 14.3"/><path fill="#13110C" d="M724.5 348c4 5.1 5.2 12.3 3 18.4-2.2 6.1-7.8 10.9-14.1 12.1-3.4.7-7.5.8-9.3 3.8-1.7 2.9.4 6.8 3.4 8.1s6.6.6 9.7-.6c3.1-1.2 6-3 9.2-3.8.7-.2 1.5-.3 2.2-.1 2.5.8 1.6 4.5.1 6.6-3.6 4.8-8.6 8.7-14.4 10s-12.5-.2-16.5-4.6c-2.6-2.8-4-6.4-4.8-10.1-3.3-14.4 2-30.4 13.3-40 3.5-3 8.1-5.4 12.5-4.2 2.2.9 4.2 2.5 5.7 4.4m-5.3 9.1c-.9-2.8-4.9-3.5-7.5-2-2.5 1.5-3.9 4.4-5.1 7.1-.6 1.3-1.2 2.7-1.8 4 2.9 1.1 6.3 0 8.7-1.9s4.1-4.6 5.7-7.2zM629.2 339.2c5.6-1.3 10.4 3.8 13.9 8.3 2 2.5 4 5.3 4.2 8.4.2 2.6-.8 5.2-2.1 7.4-3.8 6.4-10.2 11.2-17.5 13-2.8.7-6.6 1.9-6.5 4.8.1 2.7 3.7 3.8 6.4 3.6 5.6-.2 11.2-1.9 16-4.9 2.5-.1 4.4 2.6 4.1 5.1-.2 2.5-1.9 4.6-3.8 6.2-4.6 3.9-10.7 6-16.8 5.9-3.7 0-7.6-.9-10.6-3.1-6.8-4.8-8-14.7-6.1-22.8 1.8-8.3 6-15.9 10.1-23.3 2.1-3.6 4.6-7.6 8.7-8.6m3.8 20.7c1.8-1.6 3.5-3.5 3.7-5.9s-1.6-5.1-3.9-4.9c-5.1 2.4-8.5 7.9-8.4 13.5 2.9 1.1 6.2-.6 8.6-2.7zM534.1 456.4c-1.4-2.6.9-5.8 3.4-7.3 2.6-1.5 5.7-2.5 7.4-4.9 2.2-3 1.4-7.1 1.4-10.8s1.7-8.2 5.4-8.5c4.4 3 6.8 8.7 6 14-.3 2.1 1.1 4.1 3 5s4 .9 6.1.7c1.6-.1 3.4-.3 4.7.6 2.5 1.7 1.4 5.9-1 7.7s-5.6 2.4-8.1 4.1c-6.2 4-6.7 12.8-6.6 20.2 0 1.2.1 2.5.8 3.5 1.6 2.1 5 1 7.1-.6s4.3-3.8 6.9-3.4c2.6.4 4.2 3.4 3.8 6.1-.4 2.6-2.1 4.8-3.9 6.8-3.1 3.3-6.9 6.2-11.2 7.4-4.4 1.1-9.6.2-12.5-3.3-3.9-4.5-2.8-11.3-2-17.2s.4-13.2-4.7-16.2c-2.2-1.4-4.9-1.8-6-3.9"/><path fill="#13110C" d="M723.3 490.2c-2.1-4.1-5.2-7.7-8.9-10.5-3.8-2.8-8.6-5.1-9.9-9.6-.9-3.3.3-6.7 1.8-9.8 3.3-6.7 9.8-13.5 17.1-11.8 3.4.8 6.1 3.3 8.6 5.7 2.8 2.7 5.7 7.3 2.8 9.9-2.4 2.2-6.2.3-9-1.3s-7.4-2.5-8.6.5c-1.3 3.1 2.5 5.6 5.3 7.3 5.1 3 9.4 7.8 11.1 13.5 1.8 5.7.8 12.3-2.9 16.9-5.2 6.4-14.6 7.9-22.7 6.3-3-.6-6.1-1.7-8.3-3.8-2.2-2.2-3.3-5.6-2-8.4 1.3-2.8 5.4-4.1 7.7-2 5 4.7 14.5 3.2 17.9-2.9zM705.4 564.7c4.3 5.4 8.3 11.2 10.5 17.7s2.6 13.9-.1 20.2c-2.7 6.3-8.9 11.4-15.7 11.7-6.9.3-13.9-4.8-14.7-11.6-1.7-14.1.4-30 11.1-39.3 1.1-1 2.5-1.9 4-1.9 1.9-.2 3.6 1.5 4.9 3.2m-6.8 19c-.9 2.4-1.7 4.8-2.6 7.3-.6 1.5-1.1 3.2-.7 4.8.9 3.8 6.9 4.1 9.4 1.2s2.4-7.4 1.5-11.1c-.7-2.9-3.6-6.3-6-4.6-.9.5-1.3 1.5-1.6 2.4zM841.4 354.6c.6-.3 1.1-.9 1.7-.8 8.4 1.5 15 8.9 16.7 17.3 1.7 8.3-1.2 17.2-6.5 23.8-2.6 3.2-5.8 5.9-9.7 7.2-7.6 2.5-16.3-1.8-20.2-8.8-3.8-7-3.1-15.9.6-22.9s10.3-12.2 17.4-15.8m5.4 27.4c2.6-4.2 4.9-10.3.9-13.3-2.1-1.6-5.2-1.2-7.5.2-2.2 1.4-3.8 3.7-5.2 6-1.4 2.2-2.8 4.5-3.1 7-.4 2.6.5 5.5 2.7 6.8s5.2.7 7.3-.8c2.1-1.5 3.5-3.7 4.9-5.9zM606.7 496.7c-3.2-3.7-3-9.1-2.4-13.9 1.2-9.8 3.6-19.7 9.2-27.7 2.3-3.2 6.1-6.3 9.7-4.8 7.6 3.3 12.7 11.3 13.5 19.6s-2.5 16.7-8 22.9c-2.8 3.2-6.3 5.9-10.4 7s-8.9.1-11.6-3.1m12.9-28.3c-1.6 4.2-3.2 8.4-4.8 12.5-.2.6-.5 1.3-.4 2 .1 1.8 2.4 2.8 4.1 2.2 1.7-.5 2.9-2.1 3.9-3.6 2.1-3.3 3.6-7 4.6-10.8.6-2.7.2-6.6-2.5-6.9-2.5-.4-4.1 2.3-4.9 4.6zM776.8 388.4c-2.1-6.1-9.3-8.7-13.2-13.8s-4.1-12.3-1.4-18.1 7.9-10.1 13.6-12.8c3 3 7.6 3.4 11.4 5.3s6.5 7.4 3.3 10.1c-3.6 2.9-8.7-1.9-13.4-1.5-2.6.2-5 2.3-5.5 4.8-.5 2.6.8 5.4 3.1 6.6 8 4.2 13.7 13.2 12.7 22.2s-9.5 16.9-18.6 16c-2.9-.3-5.9-1.6-7.6-4s-1.5-6.2.8-8c2.4-1.9 5.8-1.2 8.8-1.3 3.2-.3 6.9-2.6 6-5.5zM440.6 562.2c4.3-2.1 8.7-4.1 13-6.2 2.5-1.2 5.4-2.4 8-1.6s4.2 4.9 1.9 6.5c-10.8 7.3-16.6 21.2-14.3 33.9.7 3.9 2.1 7.8 1.3 11.6-.8 3.9-5 7.4-8.5 5.6-2.7-1.4-3.3-4.8-3.7-7.8-1.3-10.2-2.5-20.5-3.8-30.7-.3-2.5-.6-5.1.7-7.3 1.2-1.9 3.3-3 5.4-4zM386.6 439.8c3.3 1.3 6.9-.7 9.8-2.8s6-4.5 9.5-4.2 6.2 5.4 3.4 7.5c-13 9.3-19.5 26.9-15.6 42.4.8 3.4 2.1 6.8 1.7 10.2-.4 3.5-3.4 6.9-6.9 6.3-4-.7-5.2-5.9-5.4-9.9l-2.7-39.9c-.2-2.3-.3-4.7.7-6.8s3.4-3.6 5.5-2.8zM463.9 431.6c2.2-2.2 6.3-1 8.2 1.5 1.8 2.5 2.1 5.9 2.3 9 .9 15.4 1.7 30.8 2.6 46.3.1 1.7.1 3.6-.9 5-1.7 2.2-5.5 1.7-7.4-.4-1.9-2.1-2.5-5-2.9-7.8-2.5-15.7-3.6-31.7-3.5-47.6-.1-2.1 0-4.5 1.6-6zM656.2 353.6c-.4-3.3 4.2-5.3 7-3.7 2.9 1.6 4 5.1 4.4 8.4.2 2.5.2 5.1 1.7 7.1 1.5 1.9 5.3 2.1 5.9-.3l3.6-13.8c.8-2.9 3-6.6 5.7-5.4 2.9 2 3.7 6.1 3.1 9.6-.6 3.5-2.3 6.7-3.4 10.1-2 6.2-1.8 12.8-2.5 19.2-.3 2.6-.9 5.5-2.8 7.3-2.8 2.6-7.7 1.9-10.6-.6s-4.4-6.3-5.7-10c-3-9-5.2-18.4-6.4-27.9"/><path fill="#13110C" d="M593.3 389.9c-4.2-.1-5.3-5.8-5-10 1-15.6 2.1-31.2 3.1-46.7.3-4.9 1-10.5 5.1-13.3 2.8.4 5 3 5.8 5.7s.6 5.7.4 8.6c-1.3 15.6-2.5 31.3-3.8 46.9-.3 3.8-1.8 8.8-5.6 8.8zM741 329c.4-1 .9-2 1.7-2.6 1.8-1.2 4.4-.1 5.6 1.8 1.1 1.9 1.1 4.2 1.1 6.4-.1 17-.1 34-.2 51 0 2.2 0 4.4-1 6.4-1 1.9-3.1 3.5-5.2 3-2.9-.7-3.7-4.4-3.9-7.4-1-13.9-1.2-27.8-.7-41.6.1-5.9.5-11.7 2.6-17zM588 445.9c4.9 3.8 5.5 10.9 5.7 17.1.3 9 .6 17.9.8 26.9.1 2.8.1 5.7-1.1 8.2-1.3 2.5-4.3 4.3-6.9 3.2-2.8-1.2-3.5-4.8-3.7-7.9-.9-13.9-1.5-27.8-1.8-41.7-.1-2.8.6-6.5 3.4-7 1.3-.3 2.6.4 3.6 1.2zM808.2 462.2c2.4-.1 4.5 1.8 5.3 4 .9 2.2.8 4.7.7 7-.4 8-.7 15.9-1.1 23.9-.2 4.1-1.5 9.4-5.5 9.7-2.4.2-4.6-1.7-5.5-4s-.8-4.7-.7-7.1c.4-7.9.7-15.8 1.1-23.7.2-4.1 1.6-9.5 5.7-9.8zM444 390.3c-1.1-1.3-1.2-3.1-1.2-4.9-.2-10.2 0-20.4.5-30.5.2-3.5 1-7.9 4.4-8.9 2.8.4 4.9 2.8 5.8 5.4.9 2.6.8 5.5.8 8.3l-.6 20.9c-.1 3-.2 6.1-2 8.5-1.8 2.4-5.8 3.4-7.7 1.2zM587.5 420.7c-.3-.8-.3-1.7-.1-2.5.3-1.7 1.2-3.2 2.5-4.3 3.6-.7 7.4 3.4 6.1 6.8-1.3 3.4-7.4 3.5-8.5 0zM807.9 431.9c.6-.1 1.3.1 1.9.4 3.4 1.4 6.3 5.4 4.4 8.5-1.4 2.3-5 2.6-7 .9s-2.6-4.9-1.6-7.4c.3-1.2 1.1-2.3 2.3-2.4zM449.9 333c-3.1-1-3.7-5.7-1.6-8.2.6-.7 1.3-1.3 2.2-1.7 2.8.3 5.3 2.8 5.2 5.6-.1 2.7-3.1 5.1-5.8 4.3z"/></svg>