<svg xmlns="http://www.w3.org/2000/svg" viewBox="5.7 681 1000 321.2" enable-background="new 5.7 681 1000 321.2"><path fill="#fff" d="M339.7 681.6h527.6v320H339.7zM6.2 681.6h320v320H6.2z"/><path fill="#0072C6" d="M326.9 1002.2H5.7V681h321.2v321.2zM6.8 1001h318.9V682.1H6.8V1001z"/><path fill="#fff" d="M339.5 682.1V1001h318.9v-53.9c-2.9-.8-5.9-1.7-8.6-2.9 2.8 1.2 5.8 2.1 8.6 2.9V747.3c-3.2 1.6-6.3 3.5-8.6 6.3 2.3-2.8 5.4-4.7 8.6-6.3v-65.2H339.5z"/><path fill="#0072C6" d="M339 681.6v320h320v-54.3c-.3-.1-.8-.2-1.2-.3v53.5H340.1V682.8h317.7v64.9c.3-.2.8-.3 1.2-.6v-65.5H339z"/><g fill="#0072C6"><path d="M35.1 694.6v3.5c-3.6-2.1-6.7-3.1-9.2-3.1-2.4 0-4.6.7-6.2 2.2-1.6 1.5-2.4 3.4-2.4 5.6 0 1.6.5 3 1.5 4.4.9 1.3 3 2.5 6.2 3.7s5.5 2.2 6.9 2.9c1.4.8 2.7 2 3.6 3.4 1 1.5 1.5 3.5 1.5 5.9 0 3.1-1.2 5.9-3.5 8.1-2.3 2.2-5.2 3.2-8.5 3.2s-7-1.2-10.6-3.6v-3.7c3.9 2.9 7.5 4.5 10.4 4.5 2.4 0 4.6-.8 6.2-2.3 1.6-1.5 2.5-3.5 2.5-5.9 0-1.7-.5-3.4-1.5-4.8s-3.1-2.7-6.5-3.9c-3.2-1.3-5.5-2.2-6.9-2.9-1.4-.7-2.5-1.8-3.5-3.2-.9-1.4-1.4-3.1-1.4-5.4 0-3 1.2-5.6 3.5-7.8s5.2-3.2 8.4-3.2c3.1-.2 6.4.7 9.5 2.4zM78.6 695.5v3.5c-5.1-2.7-9.9-3.9-14.8-3.9-5.2 0-9.5 1.7-12.8 5.3-3.4 3.5-5.2 7.8-5.2 13.1s1.7 9.7 5.3 13.1c3.5 3.4 8 5.2 13.4 5.2 4.6 0 9.5-1.4 14.8-4.2v3.2c-5 2.5-9.8 3.8-14.8 3.8-6.3 0-11.5-2-15.8-6.1s-6.3-9.1-6.3-15.1c0-6.1 2.1-11.1 6.5-15.2s9.3-6.1 15.3-6.1c4.6-.1 9.4 1 14.4 3.4zM105.5 692c6.1 0 11.3 2.1 15.6 6.2s6.5 9.1 6.5 15.1-2.1 11-6.5 15.1-9.5 6.2-15.6 6.2-11.3-2.1-15.6-6.2-6.3-9.1-6.3-15.1 2.1-11 6.3-15.1c4.2-4.2 9.4-6.2 15.6-6.2zm.1 39.6c5.2 0 9.5-1.7 13.1-5.3 3.6-3.5 5.4-7.8 5.4-13s-1.7-9.5-5.4-13c-3.6-3.5-8-5.3-13.1-5.3-5.2 0-9.6 1.7-13.3 5.3s-5.4 7.8-5.4 13 1.7 9.5 5.4 13c3.7 3.6 8 5.3 13.3 5.3zM160.6 692.5v2.7H145V734h-3.2v-38.9h-15.6v-2.6h34.4zM168.7 692.5v38.9h20.5v2.7h-23.8v-41.5h3.2v-.1zM210.5 692.2l19.1 41.7h-3.4l-6.6-14.3h-20.2l-6.6 14.4h-3.4l19.1-41.7h1.7v-.1h.3zm8.1 24.8l-9-19.5-8.9 19.5h17.9zM272 692.5V734h-2.7l-31.6-36.2V734h-3.1v-41.5h2.7l31.5 36.2v-36.2h3.2zM281.5 692.5H296c7.4 0 13 2 16.8 5.9 3.8 3.8 5.9 8.9 5.9 15 0 6-1.8 11-5.8 14.9-3.8 3.8-9.2 5.9-16.4 5.9h-15.1v-41.6h.1zm3.2 2.8v36.1h11.6c5.4 0 9.8-1.6 13.5-5 3.6-3.2 5.4-7.7 5.4-13.1s-1.7-9.7-5.3-13c-3.5-3.4-8.1-5.1-13.7-5.1h-11.5v.1z"/></g><g fill="#0072C6"><path d="M39.6 961.3v2.5c-3.7-2-7.5-3-11.1-3-3.8 0-7.1 1.3-9.7 3.9-2.6 2.6-3.8 6-3.8 9.8 0 3.9 1.3 7.3 3.9 9.8 2.5 2.5 6 3.8 9.9 3.8 3.4 0 7-1 11.1-3.1v2.4c-3.6 2-7.4 2.9-11 2.9-4.7 0-8.6-1.5-11.8-4.6-3.1-3-4.7-6.8-4.7-11.3 0-4.6 1.6-8.4 4.8-11.4 3.2-3 7-4.6 11.4-4.6 3.5.2 7.2 1.1 11 2.9zM46.9 959.1v31.1h-2.4v-31.1h2.4zM76.4 959.1v2H64.7v29.1h-2.4v-29.1H50.5v-2h25.9zM82.5 959.1v31.1h-2.4v-31.1h2.4zM113.4 959.1l.2.8L90.4 988h23.5v2H86.6l-.2-.7 23.3-28.4H87.4v-2h25.9v.2h.1zM135.5 959.1v2h-14.6v12.3h14.2v2h-14.2V988h15v2h-17.3v-31.1h16.9v.2zM168.9 959.1v31.1h-2L143.3 963v27.2h-2.4v-31.1h2l23.6 27.2v-27.2h2.4zM188.7 959.1h8c3.4 0 5.9.7 7.7 2.2 1.7 1.4 2.7 3.4 2.7 5.9 0 3.6-2 6.1-6 7.6 1 .5 2.4 2.1 4 4.8l7 10.7h-2.8l-5.4-8.5c-1.7-2.8-3.2-4.7-4.2-5.4-1-.7-2.4-1-4.5-1h-4.1v15h-2.4v-31.3zm2.5 1.9v12.1h5.2c2.5 0 4.7-.6 6.1-1.6s2.1-2.5 2.1-4.6c0-1.8-.7-3.4-2.1-4.5-1.4-1-3.4-1.6-6.1-1.6h-5.2v.2zM227.2 958.8l14.4 31.4H239l-5-10.7h-15.2l-5 10.7h-2.5l14.4-31.4h1.5zm5.9 18.6l-6.7-14.6-6.7 14.6h13.4zM245.3 959.1h10.8c5.5 0 9.7 1.4 12.6 4.4s4.4 6.7 4.4 11.2c0 4.5-1.4 8.2-4.4 11.1-2.9 2.9-6.9 4.5-12.2 4.5h-11.3v-31.1h.1v-.1zm2.3 1.9v27.1h8.8c3.9 0 7.4-1.3 10-3.7 2.7-2.4 3.9-5.8 3.9-9.8 0-3.9-1.3-7.3-3.9-9.8-2.7-2.5-6.1-3.7-10.3-3.7l-8.5-.1zM281.4 959.1v31.1H279v-31.1h2.4zM303.7 958.6c4.6 0 8.5 1.5 11.7 4.7 3.1 3 4.8 6.9 4.8 11.3s-1.6 8.2-4.8 11.3c-3.1 3-7.1 4.7-11.7 4.7s-8.4-1.5-11.7-4.7c-3.1-3-4.8-6.9-4.8-11.3s1.6-8.2 4.8-11.3c3.3-3.1 7.1-4.7 11.7-4.7zm.1 29.7c3.8 0 7.1-1.3 9.8-3.9 2.7-2.6 3.9-5.9 3.9-9.7 0-3.8-1.3-7.1-3.9-9.8-2.6-2.7-6-3.9-9.8-3.9-3.8 0-7.1 1.3-9.8 3.9-2.7 2.7-4 5.9-4 9.8 0 3.8 1.4 7.1 4 9.7 2.5 2.6 5.9 3.9 9.8 3.9z"/></g><g fill="#0072C6"><path d="M26.1 903.7l54.4-44.6c20.3-16.8 28.3-25.7 28.3-39.3 0-13.8-9.1-21.2-22-21.2-12.6 0-21.2 7-33.4 22l-25.3-20.3c16.1-22 31.8-33.9 61-33.9 33.9 0 56.4 19.8 56.4 50.5v.5c0 27.3-14.1 40.9-43 63.3L76 901.1h71.3v31.1H26.1v-28.5zM249.8 896.9h-79.9l-5.9-25.5 89.8-104h30.4v100.3h22v29.2h-22v35.3h-34.4v-35.3zm0-29.2v-51l-43.5 51h43.5z"/></g><path fill="#0072C6" d="M603.4 875.5L382 1001.6h443L603.4 875.5zm89.6 86.1c-11.7-11.7-29.2-11.7-43.2-17.5 14 5.9 31.5 5.9 43.2 17.5zM339.7 725.2V958l204.2-116.5zM825 681.6H382.1l221.3 126.1z"/><path fill="#0072C6" stroke="#0072C6" stroke-miterlimit="10" d="M902.6 795.3l-15 15c7.7 7.7 12.5 18.2 12.5 30 0 11.7-4.8 22.4-12.5 30l15 15c11.5-11.5 18.6-27.5 18.6-45 0-17.6-7.1-33.5-18.6-45zM963.5 840.3c0-29.2-11.9-55.7-31.1-74.8l-14.9 14.8c15.3 15.3 24.8 36.6 24.8 60s-9.5 44.6-24.8 60l14.9 14.9c19.2-19.1 31.1-45.5 31.1-74.9zM1005.7 840.3c0-40.9-16.6-78-43.5-104.7l-15 15c23.1 22.9 37.3 54.7 37.3 89.7s-14.3 66.9-37.3 89.7l15 15c26.9-26.8 43.5-63.8 43.5-104.7z"/><path fill="#0072C6" d="M762.1 785.1H652.6v110.5h105.1L867.4 958V725.2z"/></svg>