<svg xmlns="http://www.w3.org/2000/svg" viewBox="0 0 1000 1000" enable-background="new 0 0 1000 1000"><path d="M501.1 381.1c-65.6 0-117.8 53.3-117.8 117.8 0 65.6 53.3 117.8 118.9 117.8 65.6 0 117.8-53.3 117.8-117.8 0-65.6-53.3-117.8-118.9-117.8zm0 157.8c-22.2 0-40-17.8-40-40s17.8-40 40-40 40 17.8 40 40-17.8 40-40 40zM1000 55.6C1000 24.4 975.6 0 944.4 0H55.6C24.4 0 0 24.4 0 55.6v888.9c0 31.1 24.4 55.6 55.6 55.6h888.9c31.1 0 55.6-24.4 55.6-55.6V55.6zM501.1 666.7c-124.4 0-232.2-67.8-290-167.8 57.8-100 166.7-167.8 290-167.8 124.4 0 232.2 67.8 290 167.8-57.8 100-165.5 167.8-290 167.8z"/></svg>