<svg xmlns="http://www.w3.org/2000/svg" viewBox="0 0 480.7 573.1" enable-background="new 0 0 480.7 573.1"><path fill="#13110C" d="M158.7 319.3c5.3-.3 12.7 1.1 12.5 6.5-.2 4.6-6.2 6.1-10.8 6.3-21.1.8-42.3.1-63.3-2.2-17.6-1.9-35.8-5.2-50.1-15.7C33.3 304 24.7 287.8 22.2 271s.5-34.2 7.1-49.9c10.4-24.9 31.5-47.2 58.3-51 6-.9 14.6-4 12.4-9.7-13-33.6-3.3-73.4 20.2-100.5s59-42.2 94.7-45.2c9.3-.8 18.7-.8 27.9.4 44.3 6 82.2 44.5 87.5 88.9.4 3.4 2.7 8 5.7 6.5 15.3-8 35.2-6.4 49.1 3.9s21.1 28.9 17.9 45.9c-1.4 7.6-3.4 18.1 3.8 20.9 40.2 15.5 64.7 63.5 53.6 105.2-3.5 13-10.1 25.4-20.5 34.1-21.6 18.1-53 16.1-81 13.2-4.8-.5-11.1-2.9-10.3-7.6.8-4.2 6.5-4.9 10.8-4.5 20.6 2 42.5 6.2 61-3 25.4-12.7 33.5-46.7 26.5-74.2-3.6-14.4-10.7-28.1-21.8-38-11-9.9-26.3-15.5-41-13.1-2.6.4-4.8-2.6-4.7-5.2.1-2.7 1.7-5 3.1-7.3 8.8-14.3 10.6-33.5 1.7-47.7-8.9-14.2-29.6-20.7-43.7-11.6-3.7 2.4-6.8 5.7-10.8 7.5-4 1.8-9.5 1.5-11.8-2.2-1.4-2.3-1.3-5.2-1.2-7.8.9-39.7-27.6-78.2-65.8-88.9-21.7-6.1-45.2-3.8-66.7 3-13.7 4.3-26.9 10.4-38.3 19.1-37.2 28.5-48 85.1-26.5 126.7 1.9 3.8-2.8 7.9-7.1 7.7-4.2-.3-7.8-3-11.8-4.5-12.8-4.9-26.8 3.8-36.4 13.6C49 211 37.3 231.1 35.8 252.9c-1.6 21.8 8.5 45.1 27.7 55.5 9 4.9 19.2 6.8 29.3 8.2 21.8 3.1 43.9 4 65.9 2.7zM307.4 385.9c-2.5 2.9-7.2.3-9.9-2.5-9.2-9.2-18.5-18.3-27.7-27.5-6.1 11.2-12.3 22.4-18.4 33.5-1.3 2.4-2.7 4.9-5 6.5-2.3 1.6-5.7 1.8-7.6-.2-2.6-2.7-.9-7.1.9-10.4l15.6-27.9c1.4-2.5 2.7-5.8.9-8-1.1-1.3-2.9-1.6-4.6-1.7-5.9-.2-11.6 1.6-17.4 2.4s-12.4.1-16.5-4.2c3.7-7 13.3-7.7 21.3-7.4 4.4.2 10.4-1.2 10.1-5.6-.1-1.6-1.1-2.9-2.1-4.2-4.7-5.9-9.4-11.8-14.2-17.7-2.4-2.9-4.7-7.3-2.2-10.1 3.1-3.5 8.6.3 11.5 4 7 8.7 14 17.4 21.1 26.1 1.4 1.7 4.2 1.7 6.1.4s3-3.3 4.1-5.2c5.5-10.3 11.1-20.5 16.6-30.8 1.9-3.5 5.5-7.7 9.1-6 3.9 1.8 2.4 7.7.4 11.4-5.8 10.8-11.6 21.5-17.4 32.3 6.4 1.9 13.2 2.1 19.7.6 3-.7 6-1.8 9-1.5 3.1.3 6.2 2.8 5.9 5.9-.4 4-5.4 5.3-9.4 5.6-5.5.5-11 1-16.4 1.4-2.3.2-4.8.5-6.6 1.9-1.8 1.4-2.7 4.4-1 6.1 7.6 7.7 15 15.6 22 23.8 2.1 2.8 4.2 6.5 2.1 9"/><path d="M129.2 439.6c-4.1-4.8-8-21.8-9.8-27.8-1.1-3.9-2.5-8.2-5.8-10.6s-9.2-1.6-10.2 2.3c-.5 1.8.2 3.7.8 5.5 2.7 7.4 5.3 14.8 8 22.1 1.1 3.1.1 8.6-3 7.2-12.7-5.5-26.2-9.3-39.9-11.1-2.2-.3-4.6-.4-6.2 1.1-1.9 1.9-1.2 5.4.9 7.2s4.8 2.4 7.5 2.9c11.2 2.3 22.2 5.5 32.9 9.6 2.6 1 5.5 2.4 6.3 5.1.8 2.8-1.1 5.6-2.9 7.9-8.7 11.3-17.5 22.6-26.2 33.9-2.1 2.7 1.5 6.9 5 6.5 3.4-.3 6-3.2 8.2-5.9 9.1-11 18.2-21.9 27.3-32.9 4.3 10.7 8.5 21.3 12.8 32 1.5 3.8 3.4 8 7.2 9.6 3.8 1.6 9.3-2 7.7-5.7-3.5-8.3-7-16.5-10.5-24.8-.9-2.1-1.8-4.3-1.3-6.6s2.9-4.2 5-3.2c11.1 5 22.6 9.2 34.3 12.4 3.1.8 6.5 1.6 9.3 0 2.8-1.6 3.4-6.5.4-7.6-14-5.1-28.1-10.2-42.1-15.4-4.8-1.7-10.6-6.6-7.5-10.6 7.7-9.9 15.4-19.9 23.1-29.8 1.7-2.2 3.5-5 2.4-7.6-1-2.5-4.4-3.3-7-2.3-2.5.9-4.4 3-6.2 5.1M308.4 478.1c-1.1.8-2 1.8-3.1 2.5-.4.3-.9.5-1.3.7.4-9.6-1.9-23.8-1.5-33.4.1-3 .2-6.2-1-9s-4.2-5-7.2-4.3c-4.9 1.1-5.1 7.9-4.6 12.9 1.2 10.5.9 21.1-.8 31.5-11.4-5.3-22-12.3-31.3-20.7-2.3-2.1-4.7-4.4-7.7-5.3-3-.9-6.9 0-8.2 2.9-1.8 4.1 2.4 8.2 6.1 10.7l29.7 20.1c3.3 2.2-.3 7.1-3.6 9.2-12.6 7.8-25.2 15.6-37.7 23.4-3.2 2-.9 7.5 2.7 8.3 3.6.8 7.2-1.3 10.3-3.2 12.1-7.7 24.3-15.4 36.4-23.1 3.5-2.2 6.3 3.6 6.4 7.8l.3 38.3c0 5.2 2.1 12.3 7.2 11.7 4.6-.6 5.6-6.7 5.4-11.3-.5-12.7-.9-25.3-1.4-38-.1-3.1 1.8-7.6 4.5-6.1l26.1 15c3.6 2.1 7.7 4.2 11.7 3s5.7-7.7 1.9-9.3c-14.4-6-27.9-14.1-39.9-24 18.1-9.7 36.2-19.5 54.3-29.2.8-3.1-2.4-6.1-5.6-6.4-3.2-.3-6.3 1.3-9.1 2.8-10.9 5.8-21.7 11.7-32.6 17.5-2 1.1-3.6 2.8-5.3 3.9m-5.5 4.3"/></svg>