<svg xmlns="http://www.w3.org/2000/svg" viewBox="130 261 703 419" enable-background="new 130 261 703 419"><desc xmlns:shape="http://adobe.com/products/shape"><shape:version>1.0.2</shape:version><shape:captureDetail>0.750000</shape:captureDetail><shape:source>1</shape:source></desc><path fill="#2BC22B" d="M260.9 580.7c4.4 10.5 2.8 22.6-1 33.2-8 22.2-25.7 40.8-47.6 49.7l-11.1-27.9c-2-5.1 1.3-10.7 5.5-14.2s9.3-5.9 12.8-10.1c6.9-8.3 5.2-21.3-1.2-29.9-6.4-8.6-16.5-13.8-26.4-18s-20.3-7.9-28.7-14.7c-17.6-14.2-22.7-40-16.8-61.8s21.2-39.9 38.4-54.5c15.4-13 32.6-23.7 51.1-31.8 1.2-.5 2.5-1 3.7-.7 2.1.6 2.8 3.1 3.2 5.2 1.5 8.3 3 16.5 4.5 24.8.3 1.6.6 3.2.1 4.7-.8 2.5-3.4 3.8-5.7 5-17.5 8.9-33.7 22-42.1 39.7s-7.9 40.6 4.8 55.6c15.9 18.8 47 23 56.5 45.7m-15.7 45.1c7-9.8 12.1-22 9.4-33.8s-12.8-20.5-23.2-26.7c-10.4-6.3-21.8-11.2-30.5-19.6-14.1-13.6-18.9-35.2-14.4-54.2 4.4-19.1 17.1-35.5 32.9-47.1 6.2-4.6 13.2-8.7 17.2-15.3 4-6.6 3.4-16.8-3.4-20.4-8 5.8-16 11.6-24.1 17.4-17.2 12.4-34.8 25.3-46.1 43.3-11.3 18-14.8 42.5-3 60.1 8 11.9 21.5 18.8 34.4 25.3 12.8 6.5 26.3 13.6 33.9 25.8 7.6 12.2 6.6 31-5.8 38.2-5.7 3.3-10.4 8.8-11.4 15.3s2.8 13.8 9.1 15.7c9.7-6.3 18.3-14.5 25-24zM543.3 511.8c2.7 5 9.5 5.8 15.2 6l24.4.6c1.9 0 4 .2 5.4 1.4 1.7 1.5 1.8 4 1.9 6.2.1 3.8.1 7.7.2 11.5.1 5.9-.3 12.7-5.1 16-2.9 2-6.6 2-10.1 2h-48.1c-4 0-8.6-.2-11.3-3.2-2.3-2.5-2.7-6.2-2.9-9.6-2.8-47.5-2.7-95.2.2-142.7.2-3.9 1.3-8.8 5.1-9.7 17.7-3.9 35.8-6 54-6.3 2.3 0 4.7 0 6.6 1.2 2.6 1.7 3.4 5.2 3.9 8.3.7 4 1.4 8.1.2 12s-4.9 7.3-8.9 6.8c-7.3-1-14.9-1.9-21.8.7-6.9 2.6-12.5 10.1-10.3 17.2 2.2 7.4-3.1 18 3.7 21.7 5.4 2.9 11.7-3.3 17.9-2.6 4.6.5 8 4.8 8.9 9.3s-.1 9.1-1.1 13.6c-.5 2.2-1.1 4.6-2.7 6.2-4.1 4.1-11.1.7-16.7 1.9-9.6 2.1-10.9 15.1-9.9 24.9 0 2.5.3 4.7 1.3 6.6m-9.6-26c0-3.5 0-7.2 2.2-9.9 3.6-4.3 10.3-3.3 15.9-3.3s12.8-3.8 11.1-9.1c-1.5-4.8-8.2-4.8-13-3.4s-10.7 3.1-14.1-.5c-2.1-2.2-2.2-5.6-2.2-8.7v-28.7c0-6.4 1.6-14.8 7.9-15.6 7.4-1 14.8-1.9 22.2-2.9 2.6-.3 5.3-.7 7.3-2.4s2.8-5 .9-6.8c-1.1-1-2.8-1.2-4.3-1.3-12.4-.8-24.9.2-37 2.9-3.4.8-7.1 1.9-8.7 5-.8 1.6-.9 3.4-1 5.2-1.9 42.2-2 84.4-.4 126.6.2 3.9.6 8.4 3.7 10.8 2.3 1.8 5.5 1.9 8.5 2 12.8.1 25.5.2 38.3.4 2.7 0 5.5 0 7.8-1.4 4.8-3 3.9-10.9-.4-14.6s-10.5-4-16.1-3.4-11.3 1.8-16.9.8c-5.6-1.1-11.1-5.4-11.1-11-.3-10.3-.5-20.5-.6-30.7zM617.5 365c-16.7.1-33.4.2-50.1.2-17.8.1-36.7.5-51.4 10.6-4.7 3.2-11.9 7.1-15.2 2.4-2.4-3.4.2-8 3.3-10.8 3-2.8 6.8-5.5 7.3-9.6-6.4-.2-12.5-4.6-14.7-10.6 19.2-6.9 39.7-9.5 60-11.8 33.8-3.8 67.7-6.9 101.7-6.7 29.4.2 58.8 2.8 88.1 5.5 25.6 2.3 51.2 4.6 76.7 6.9-1.7 9-10.1 14.9-17.8 19.7 4.9 3.2 10.3 6.9 11.4 12.7 1.1 5.7-5.8 12.3-10.4 8.7-12.2-9.7-28.5-12.8-44.1-13.1-15.6-.3-31.2 1.8-46.8 1.1-5.9-.2-12.5-.7-17.1 3.1-3.7 3.1-4.9 8.2-5.9 12.9-5.9 28.2-10.1 56.7-12.5 85.3-1 12.1-1.8 24.2-2.5 36.3-2.3 38-4.5 77.1 7.1 113.4 1.2 3.8 1.2 9.7-2.8 9.8-1.7 0-3.1-1.2-4.3-2.4-14.9-14.8-30.8-32.3-29.6-53.3 1-17 1.4-34.1 1.1-51.1-4.4-1.2-6.7 5.1-6.9 9.6l-2.4 50.7c-.2 3.2-.3 6.5-2 9.2-3.1 5.1-9.9 6-15.9 6.5l-19.8 1.5c-3.3.2-7.8-.2-8.5-3.5-.3-1.1 0-2.4.5-3.5 3.2-8.2 12-12.7 17.1-19.8 5.2-7.2 6.2-16.5 7.1-25.4 1.1-11 2.2-22 3.2-33 1.8-18 3.5-36.1 3.5-54.2 0-29.4-4.5-60 6-87.5 1.2-3.1-1-6.6-3.9-8.1s-6.2-1.7-9.5-1.7m15.5 70.1c1.7 26-1 52.1-3.7 78-1.3 12.7-2.7 25.3-4 38-1.6 15.5-5.8 34.3-20.7 38.9 11 7.2 28.5-1.2 29.6-14.4 2.9-33.6 8.1-67 15.5-99.9 4.4-.1 5.8 5.9 5.7 10.3-.5 27-1.1 53.9-1.6 80.9-.3 17.1 9.3 32.6 18.6 46.9 1.2 1.9 4.2 3.8 5.3 1.8-11.7-40.9-10.8-84.4-7-126.8 3.7-41.3 10.1-82.3 19.2-122.7.5-2.2 1.6-4.9 3.9-5 23.1-.3 46.1-.7 69.2-1 6.1-.1 14.6-3.1 13.1-9-1-3.9-5.9-5.1-10-5.5-73.2-8-147.7-13.1-220 .9-4.6.9-9.2 1.8-13.9 1.3-5.7-.7-12.7-3.2-16.2 1.3 4.3-.2 6.8 5.7 5 9.7s-5.9 6.2-9.8 8.2c-2 1-.6 4.4 1.5 4.7 2.2.4 4.2-1.1 5.9-2.4 6-4.7 12-9.4 18-14.2l95.1.6c5.2 0 5.9 7.5 5 12.6-4 22-5.2 44.5-3.7 66.8m148.9-77.8c-.8 1.3.7 2.8 2 3.7 6.1 4 12.2 8.1 18.4 12.1 2 1.3 4.7-1.4 4.3-3.7-.4-2.4-2.7-3.9-4.8-5s-4.5-2-5.9-3.9-1-5.3 1.2-6c5.5-1.6 10.6-4.5 14.8-8.2-11-3.9-24.2 1-30 11zM775.6 402.4c1.3-2.2 2.8-4.5 5.1-5.4 2.1-.9 4.4-.5 6.6-.1 6.5 1.1 12.9 2.3 19.4 3.4 3.1.5 6.9 1.8 7.4 4.9.3 1.9-.9 3.8-2 5.4-13.1 18.4-26.2 36.8-39.2 55.2-8.2 11.5-11.8 25.6-15.2 39.4-7.3 29.4-14.7 58.8-22 88.2-.8 3.2-5.6 2.5-8.3.6s-6-4.5-8.8-2.9c-4 2.4-9.5-.9-11.1-5.2-1.7-4.4-.7-9.2.3-13.8 8.1-37.2 16.1-74.5 24.2-111.7.5-2.1.9-4.3.1-6.3-6.7-15.9-12.5-32.1-17.6-48.5-.5-1.5-.9-3.1-.2-4.5.9-1.8 3.1-2.3 5-2.6 6.1-1.1 12.4-2.1 18.3-.4 5.9 1.7 11.3 7.1 10.8 13.2-.6 7.9 3 16 9.3 20.9 5.9-10 11.9-19.9 17.9-29.8m-24 51.3c-2.3-10.1-4.5-20.2-6.8-30.4-1.3-5.9-2.9-12.2-7.6-15.9-4.7-3.7-13.5-2.3-14.5 3.6 5.5 12.6 11 25.3 16.5 37.9.9 2.1 1.9 4.4 1.3 6.6-9.1 36.2-17.1 72.8-23.8 109.5-.8 4.2-1.5 8.5-.2 12.6s5.5 7.4 9.6 6.4c4.4-1.1 6.2-6.3 7.3-10.7 8.1-31.9 16.1-63.8 24.2-95.7 6.4-25.5 31.2-42.1 42.3-66-2-6.2-11.1-7.2-16.5-3.6s-8.1 10-11 15.8c-5.5 10.9-12.5 21-20.8 29.9zM367.8 450.9c7.1-21 18.4-43 38.9-51.5 3.5-1.5 8.2-2.2 10.6.7 1.4 1.6 1.6 3.9 1.8 6.1.9 11.8 1.7 23.5 2.6 35.3.1 1.9.2 4-1.2 5.2-10.8 9.7-20.6 21-26.2 34.4s-6.7 29.2-.3 42.3c6.3 13.1 20.8 22.5 35.3 20.6 4-.5 5.8 4.8 6.1 8.7.7 8.8 1.4 17.5 2.1 26.3.1 1.2.2 2.5-.3 3.7-.9 2-3.4 2.7-5.6 3.1-29.6 4.8-58.5-18.4-68.5-46.7-10-28.3-4.9-59.8 4.7-88.2m15.2 65.3c-3.3-29.5 10.1-60.3 34-78-3.7-7.3-5.4-15.6-5-23.7.2-4-4.9-6.5-8.7-5.3-3.8 1.2-6.3 4.8-8.5 8.1-16.9 25.7-30.3 55-29.7 85.8.6 30.7 18.1 62.5 47.1 72.5 5.1 1.8 11.5 2.6 15.5-1.1 6.3-5.7 1.1-16.7-6.3-20.7s-16.5-4.5-23.6-9c-9.5-5.8-13.6-17.5-14.8-28.6zM278.7 432c3.4-4 7.3-7.6 12-9.9 11-5.2 24.7-1.4 33.7 6.7s13.9 19.9 16.8 31.7c5.8 24.1 3.6 49.6-2.4 73.6-3.1 12.3-7.5 24.9-16.4 34s-23.3 13.9-34.8 8.4c-5.1-2.4-9.1-6.6-12.5-11-18.5-23.9-21.6-56.9-16.2-86.7 3-16.9 8.7-33.7 19.8-46.8m43.1 7.4c-2.7-3.5-6-6.8-10-8.7-8.5-4-19.1-.9-26.1 5.5s-11 15.3-13.9 24.2c-4.6 14.1-7 28.9-7 43.8-.1 23.6 7.3 49.4 27.1 62.3 2.3 1.5 4.8 2.8 7.5 3.1 6.4.8 12.1-3.8 16.3-8.7 16.3-19.3 20.4-46.1 19.9-71.3-.5-17.6-3.1-36.1-13.8-50.2zM667 276.2c5.4-.8 11.2 1 15.2 4.8 6 5.7 7.4 15.3 4.2 22.9s-10.3 13.2-18.2 15.5c-5.4 1.6-11.5 1.8-16.6-.6s-9-7.8-8.7-13.4c.1-2.1-2.7-3.2-3.5-5.2-1-2.3 1-4.6 2.7-6.3 2-2 4-3.9 6.1-5.9 5.4-5.2 11.3-10.7 18.8-11.8m7 28.4c3.4-3.2 5.8-8 4.3-12.4-2.2-6.3-11.2-7.3-16.9-4-5.7 3.4-9.1 9.5-13 14.8 2.3 4.3 7.3 6.9 12.2 7s9.8-2 13.4-5.4zM462 562.5c-6.5-3.5-7.5-12.2-7.8-19.6-1.4-41.2-2.1-82.4-2-123.6 0-3.2.2-6.9 2.5-9.1 1.5-1.4 3.7-2 5.7-2.5 4.7-1.1 9.5-2.2 14.2-3.3 3.2-.7 8-.3 7.9 3-1.1 48.3-.1 96.6 2.9 144.8.3 4.7-5.8 6.9-10.5 6.8-4.7-.2-10.4-.5-12.9 3.5m6-11.2c4.1 1 8.2-2.1 9.8-6 1.6-3.9 1.2-8.2.8-12.4-3.3-37.4-4.8-74.9-4.5-112.4 0-3.3-.3-7.4-3.2-9-4.2.3-7.7 3.8-9.2 7.8s-1.5 8.4-1.5 12.6c.4 35 .7 70 1.1 105.1 0 5.7 1.2 12.9 6.7 14.3zM316.2 531.1c-3 7.1-7.9 14.3-15.5 15.6-5.8 1-11.7-2-15.5-6.5s-5.7-10.2-7-15.9c-5.2-23.4.2-49.1 14.6-68.3 2-2.6 4.5-5.4 7.8-5.5 5.8-.2 11.2 3.5 14.5 8.3s4.8 10.5 5.8 16.2c3.5 18.7 2.7 38.6-4.7 56.1m-11.3-69.6c-3.6-1.3-7.2 2-9.3 5.2-11.7 17.5-14.6 40.6-7.6 60.5 1.1 3 2.4 6.1 4.9 8.1s6.4 2.6 8.9.5c10.1-8.5 11.6-23.2 12.1-36.4.4-11.5.4-23.6-5.1-33.8-.8-1.6-2-3.4-3.9-4.1z"/></svg>