<svg xmlns="http://www.w3.org/2000/svg" viewBox="0 0 440.3 996.2" enable-background="new 0 0 440.3 996.2"><desc xmlns:shape="http://adobe.com/products/shape"><shape:version>1.0.2</shape:version><shape:captureDetail>0.750000</shape:captureDetail><shape:source>1</shape:source></desc><path fill="#C12C7F" d="M328.2 959.3c-1.1 1.4-2.5 3-4.4 3-2.3.1-4.1-2.4-4.1-4.7 0-2.3 1.2-4.4 2.4-6.4 7-11.6 14.5-23.8 26.4-30.4 3.4 1.3 2.1 6.4.2 9.5-6.2 10-13.1 19.7-20.5 29zM243.1 911.8c3.4 2.5 1.4 7.9-.9 11.4-7.6 11.3-16.3 21.8-26.1 31.2-2.9-.1-2.9-4.4-1.7-7.1 6.1-14.1 16.1-26.5 28.7-35.5zM244.1 681.7c7.8 4.6 17.7 1.2 26.8.3 9.1-.9 20.9 4.3 19.5 13.3-6.7 42.6-12.5 85.4-17.4 128.3-3.2 28.1 20.6 51.1 42.2 69.3 5.2 4.4 13.1 8.8 18.1 4.2 11.6-10.6 28.9-14.5 43.9-10s27.2 17.4 31 32.6c-18.8-2.1-29-30.6-47.7-27.3-10.2 1.8-16.3 12.8-26 16.3-11.4 4-23.7-3.4-31.6-12.6-7.9-9.1-13.6-20.3-23.2-27.6-15.6-11.9-38.3-10.5-55.8-1.6-17.5 8.8-31 23.8-43.9 38.7-10.8-13 25.2-29.9 15-43.5-2.7-3.7-7.8-4.6-12.4-4.8-16-.8-32.2 3.2-46 11.5-13.3 8-24.9 25.7-15.7 38.3 3.9 5.3 11 12 6.3 16.6-11.4-4.6-15.6-19.7-26.8-25-20.9-9.8-39 21.2-61.8 24.2 8.6-16.5 25.6-28.3 44-30.7 24.2-3.2 43.2-21.5 60.3-38.9 2.8-2.9 5.8-6.3 5.5-10.3-3.6-46.4-7.2-92.9-10.8-139.3-.3-3.9-.6-8 1-11.7 4.5-10.5 19.4-9.5 30.7-7.7 11.3 1.8 27.1-1 27.5-12.4 4-96.6 7.9-193.2 11.9-289.9.3-7-.1-15.3-6-19.1-18.8-12.1-26.7-35.3-32.1-57-3-12.1-5.7-25.1-1.1-36.7 4.6-11.5 19.6-19.6 30-12.7 10 6.7 21.5-7 24.1-18.7 6.5-29.4-2.4-61.7-22.9-83.6-12.2-13.1-11.3-33.2-12.4-51-1.1-17.9-8-39.1-25.5-42.9-6.8-1.5-17.2-3.5-15.3-10.2 12.4-2.1 23.8-9.8 30.5-20.5 5-8.1 7.9-18.3 16.2-23.2 13.2-7.8 30.3 4.7 35.1 19.2 4.7 14.6 1.9 30.4 3.5 45.6 1.6 15.2 10.5 32.2 25.8 33.6 14.3 1.4 25.6-11.2 35.3-21.8 9.8-10.5 24.7-20.8 37.4-14.1 3.7 46.8-24.7 94.4-67.5 113.6-11.5 5.1-14.6 20-14 32.5.6 12.6 3.3 25.8-2.1 37.2 5.8 5.5 15.7 0 23.1 2.9 8 3.1 9.1 13.7 8.9 22.3-.6 31.1-3.1 66.2-26.9 86.1-8.3 6.9-9.3 19.1-9.7 30-2.9 86.6-5.7 173.1-8.6 259.7-.1 10.6.6 23.1 9.6 28.5m-36.4 25.2c-.1 5 .1 10.5 3.6 14 3.5 3.6 11.2 2.3 11.4-2.6 3.5-115.9 7.1-231.9 10.6-347.8-9.7.5-13.1 13-13.7 22.7-6.8 104.5-10.8 209.1-11.9 313.7m-28.7-416c4 25.8 12.8 53.3 34.5 67.9 12.6 8.5 31 2.1 40.3-9.9 9.3-12.1 11.8-28 13.4-43.1 1-9.7 1.7-19.4 2.2-29.2.2-4.3 0-9.4-3.7-11.7-1.6-1-3.5-1.1-5.3-1.3-21-1.7-42.2-1.8-63.2-.2-4.5.3-9.2.9-12.8 3.5-6.9 5.2-6.7 15.5-5.4 24m54.5-49.2c0 5.6 2.2 13.3 7.8 12.5.8-22.5.7-45.1-.3-67.6-5.5-.4-7.4 7-7.4 12.5-.1 14.3-.1 28.5-.1 42.6zM13.6 964.8c.9-1.5 2.1-3.1 3.8-3.4 2.2-.4 4.3 1.8 4.6 4 .3 2.3-.5 4.5-1.4 6.6-2.5 6.2-4.9 12.3-7.4 18.5-2.3 1.7-5.9-.1-6.9-2.8-1-2.7-.2-5.7.7-8.5 1.6-5 3.9-9.9 6.6-14.4zM229.9 910.2l-15.6 19.5c-2.4 3-7.5 5.7-9.2 2.3 4-11.5 12.8-21.3 23.7-26.6 1.4 1.1 1.9 3.2 1.1 4.8zM87.7 922c9.4 2.1 17.8 8 22.9 16.2 1.2 1.9 2.3 4.2 1.6 6.4-11.3-2.7-20.9-11.5-24.5-22.6zM71.3 940.5c10.8-.2 21.1 7.7 23.8 18.1-10.2-1.8-19.4-8.7-23.8-18.1zM344 972.5c-.6-1.7.3-3.5 1.2-5 3.3-5.5 7.3-10.5 11.8-15 1.5-1.5 3.6-3 5.5-2s1.7 3.9 1 5.9c-1.9 5.9-5.4 11.3-10 15.6-2.7 2.6-8.2 4.1-9.5.5zM388 968.1c3.2-.7 3.9 4.6 2.6 7.6-2.3 5.5-8.9 11.3-13.5 7.5 0-5.7 4.6-10.1 8.9-13.8.6-.6 1.2-1.1 2-1.3zM414 939.6c-7.5 1.4-14.9 2.7-22.4 4.1.8-4.9 4.9-9 9.8-9.9 4.8-1 10.1 1.5 12.6 5.8zM436.9 971.3c-.4 5.6-5.1 10.5-10.7 11.1-1.5-6 4-12.6 10.1-12.3l.6 1.2zM73.6 964c-1.4-1.4-2-3.5-1.5-5.4 4.3-.6 8.9 2.7 9.5 7-2.5 1.7-6.3.9-7.9-1.7l-.1.1zM196.1 287.8c-.1-2.9.1-6 2.1-8.1 2.1-2.2 5.4-2.4 8.5-2.4l42.9-.9c1.8 0 3.8 0 5.3 1 2.6 1.7 2.8 5.5 2.6 8.6-.7 17.1-2.1 35.8-13.8 48.3-2.9 3.1-6.4 5.7-10.4 6.8-6.5 1.8-13.6-.5-18.8-4.8-5.2-4.3-8.7-10.2-11.4-16.4-4.3-10.1-6.7-21.1-7-32.1m50.5 3.8c-.1-1.9-.3-4-1.6-5.4-1.7-1.8-4.5-2-7-2h-14.1c-4.7 0-9.9.2-13.2 3.6-3.3 3.3-3.4 8.6-2.7 13.2 1.5 9.7 5.8 19 12.4 26.3 2.7 3 6.5 5.8 10.3 4.7 2.2-.7 3.9-2.6 5.2-4.5 7.5-10.3 11.3-23.2 10.7-35.9z"/></svg>