<svg xmlns="http://www.w3.org/2000/svg" viewBox="0 0 423.5 333.8" enable-background="new 0 0 423.5 333.8"><path fill="#FEDB48" d="M370.1 65.4c-7.6-7.6-16.5-13.8-25.8-19.2-33-19.2-71.5-28-109.7-28.5s-76.2 7.2-112.4 19.4c-13.1 4.4-26 9.4-37.7 16.8C61.8 68 45 90.3 32.8 114.3c-5.2 10.2-9.7 21-11 32.4-.9 8-.2 16.2 1.6 24.1 8.7 38.9 42.3 68.8 79.9 82C141 266 182.1 265 221.6 260c8.8-1.1 15.7 6.9 21.5 13.6 15.4 18 35 32.4 56.7 41.8 2.3 1 4.9 2 7.3 1.4 2.5-.5 4.6-3.3 3.6-5.6-6-13.7-10.2-28.1-12.3-42.9-1.5-10.2.3-23.9 10.4-26.1 37.1-8.3 70.1-35.4 83.3-71.1 13.2-35.6 5-78.9-22-105.7z"/></svg>