<svg xmlns="http://www.w3.org/2000/svg" viewBox="0 216 1000 569" enable-background="new 0 216 1000 569"><g fill="#2BC12B"><path d="M161.1 260.7c.4-9.6 1.4-20.3 8.5-26.7 7.1-6.4 22-3 21.6 6.6-5.3 126.7-2.5 253.7 8.5 380 1.1 12.8-1.5 30.4-14.3 31.2-12.7.8-17.7-16.1-18.3-28.9-5.6-120.7-11.2-241.5-6-362.2M50.5 614.8c-.1-125.3-.1-250.7-.2-376.1 0-9.4 14.9-11.9 21.4-5.1s6.7 17.3 6.5 26.7c-2.7 126.9 1.9 253.8 8.3 380.6.6 12-18.3 16-26.8 7.6-8.6-8.3-9.2-21.7-9.2-33.7M606.4 249.5c.2-6.1.5-12.5 3.4-17.8 2.9-5.4 9.3-9.3 15.1-7.4 7.7 2.6 9.2 12.7 9.3 20.8 1.9 126.9 3.9 253.8 5.8 380.8.1 9.4-2.5 21.9-11.8 22.3s-13.1-11.8-13.8-21.1c-9.2-125.6-11.9-251.7-8-377.6M803.6 229.8c.6-8.8 14.4-10.6 20.4-4.2s6.2 16.2 6 25c-2.4 125.1-1.2 250.4 3.6 375.4.4 9.6-1.4 22.1-10.9 23.9-11.4 2.2-16.7-13.6-17.1-25.2-5.2-131.5-10.5-263.4-2-394.9"/><path d="M434.2 226.2c11.6 3.3 13.6 18.7 13.2 30.8-3.1 117.9-1.1 235.9 6 353.6.6 10.3 1.1 21.5-4.8 30-5.8 8.5-20.7 11.1-25.9 2.3-1.9-3.2-2.2-7-2.4-10.7-7.2-123.3-10.7-246.8-10.5-370.3 0-8.4.1-17.1 3.9-24.6 3.8-7.6 12.4-13.4 20.5-11.1m6.4 399.5c.7-16 .4-32 0-48-2.1-107.9-4.3-215.9-6.4-323.8 0-2.3-.2-4.8-1.7-6.4-2.5-2.6-7.3-1.2-9.3 1.9s-2 7-1.9 10.6l9.3 361.3c1.9 3.4 6.2 5.3 10 4.4zM556.6 228.3c5.9-5.3 16-1.8 20.4 4.8 4.4 6.6 4.7 15 4.8 23l6.3 352.3c.1 6.6.2 13.6-3 19.4-3.2 5.8-10.7 9.8-16.6 6.7-5.9-3.1-6.9-10.9-7.2-17.5-5.5-122.3-8.7-244.7-9.5-367.1"/><path d="M923.3 237.1c.8-7.6 6.7-17.8 13-13.6 2.9 2 3.3 6.1 3.4 9.6l11.1 407.3c.1 4.2 0 8.9-2.9 11.8-4.2 4.2-12 2-15.5-2.9s-3.8-11.3-4-17.3c-2.4-69.3-4.8-138.6-7.1-207.8-2-62.4-4.2-125 2-187.1zM343.6 644.1c-6.9 7.6-20.6 3.9-26.5-4.6-5.9-8.4-6.2-19.4-6.4-29.7l-4.5-356.6c-.1-8.4.4-18 7-23.2 8.3-6.4 21.3-.9 26.4 8.3s4.5 20.3 3.8 30.7c-7.2 118.2-4.2 236.9 4.2 355 .5 7.1.7 15-4 20.1m-25.4-383.9c-1.6 115.8-.2 231.7 4.2 347.5.3 8.5 2.9 19.6 11.4 20.4l-4.5-342.9c-.2-13.6-.4-27.2-.5-40.8-7.3-1.5-10.5 8.5-10.6 15.8zM22.6 237.6c.7 132.9 1.5 265.7 2.2 398.6 0 4.1 0 8.5-2.4 11.9-2.3 3.4-7.9 4.8-10.5 1.6L8.3 292.1c-.2-19-.4-38.2 3-57 3.9-1.1 8.3-.1 11.3 2.5zM899.7 630.8c.5 7.8-1.9 18.8-9.7 18-11.7-141-12.5-283-2.4-424.1 3.4-2.6 8.8-.4 10.9 3.4 2.1 3.8 1.8 8.4 1.6 12.7-8.9 129.8-9 260.2-.4 390zM138 231.5c1.2 1.3 1.3 3.3 1.3 5.1l6.9 404.9c-5.6 3-9.9-5.8-10.3-12.1-7.6-129.2-10.1-258.6-7.5-388 .2-6 5.6-14.3 9.6-9.9zM279.1 230.8c4.3-.6 6 5.4 6.1 9.7l.9 74.2 4.2 327.5c-7.8-1.1-10.1-11.2-10.4-19.2-5.1-127.7-7-255.5-5.5-383.3.1-3.6 1-8.4 4.7-8.9zM253.6 245.9c1.1 129.4 2.2 258.8 3.4 388.3 0 4.8-.1 10.1-3.6 13.5-5.9-4.2-6.7-12.6-6.9-19.9-3.8-131.4-5.3-262.8-4.6-394.2 2.5-2.7 7.4-1.3 9.5 1.7s2.2 6.9 2.2 10.6zM101.7 621.3l-3.9-379c0-3.6.4-8 3.7-9.4 5.5-2.3 8.9 6.1 8.9 12 1 132.6 2.1 265.2 3.1 397.8-9-.4-11.7-12.3-11.8-21.4zM970.5 224.6c5.4-3.6 9.8 6 9.4 12.5-8.2 138.1-6.3 276.8 5.6 414.6-6 4.6-12.1-5.7-12.6-13.2-9.7-135.2-11.5-271-5.2-406.4.2-2.8.5-6 2.8-7.5zM522.3 228.8c1.1-3.2 6.1-3.1 8.4-.5 2.2 2.5 2.4 6.2 2.5 9.6l9.9 383.7c.2 6.8-.2 14.8-5.8 18.7-4.1-2.4-4.7-8-4.9-12.7-4.9-133-9.6-265.9-10.1-398.8zM367.5 231.8c1.4 133 2.7 266.1 4.1 399.1.1 5.3-5 12.7-8.3 8.6-5.6-129.6-7.9-259.4-6.8-389.2 0-8.1 2.9-19 11-18.5zM474.4 226.6c5.4-1.2 7.5 6.8 7.1 12.3-9.8 129-9.8 258.8.2 387.8.6 8.2-1.1 19.3-9.2 20-11.2-136.5-12.2-273.9-3.1-410.6.2-3.9 1.3-8.7 5-9.5zM869.6 227.4c-7.6 137.7-5.3 276 6.8 413.4.3 3.3-4.9 4.7-7.4 2.6-2.6-2.2-3-5.9-3.3-9.2-10.5-132.2-17-265.1-8.5-397.5.2-3.7.6-7.8 3.2-10.4 2.7-2.7 8.3-2.5 9.2 1.1zM755.1 643.5c-.9-1-1-2.5-1.1-3.9-5.6-135.9-7.6-271.9-5.9-407.9 0-2.2.2-4.9 2.1-6.1 4.1-2.7 7.6 4.3 7.7 9.2 1.5 133.6 2.9 267.3 4.4 400.9 0 4.6-4 11.2-7.2 7.8zM782.1 220.9c5.6-.9 7.4 7.3 6.8 12.9-13.5 131.2-5.7 263.5.9 395.2.3 5.1-3.6 12.6-7.6 9.4-1.4-1.1-1.6-3.1-1.8-4.9-10.9-133.8-12.2-268.5-3.9-402.5.2-4.2 1.4-9.5 5.6-10.1zM670.3 638.7c-6.6-8.8-7-20.6-7.1-31.5l-3.3-364.6c0-3.2 0-6.7 2-9.3 1.9-2.6 6.5-3.3 8.2-.6.7 1.1.7 2.6.8 3.9 1.2 130.7 2.4 261.5 3.7 392.2-.1 3.8-.7 8.6-4.3 9.9zM687.5 234c.2-3 .5-6.3 2.7-8.3s6.8-1 6.7 2c-3.3 121.2-.3 242.7 9.2 363.6 1.1 13.7 2.1 28.1-3.5 40.6-5.5-.8-7.1-7.9-7.4-13.5-1.1-22.9-2.3-45.8-3.4-68.7-5.2-105.2-10.4-210.6-4.3-315.7zM320.9 732.2c-1.4-9.4-2.7-19.4 1.1-28.1 5.1-11.6 19.6-18 31.6-13.9 6.9 2.4 12.8 8.1 14.6 15.2 1.7 7.1-1.2 15.3-7.5 19.1-4.4 2.6-3.2 9.7.2 13.5 3.5 3.8 8.5 6.2 11.4 10.4 3 4.2 2.1 11.8-3 12.6-6.4.2-11.1-5.6-16.3-9.3-5.2-3.8-14.6-4.4-16.1 1.9-1 3.8 1.9 8.4-.5 11.6-2 2.7-6.5 2-8.7-.5s-2.8-5.9-3.3-9.2c-1.2-7.9-2.3-15.6-3.5-23.3m14.1-18.3c-.5 4.1 4.8 7.1 8.7 5.8 3.9-1.3 6.3-5.4 7.4-9.4-4.6-4.2-13.3-2-15.3 3.9l-.8-.3zM681.5 696.9c2.7 4.9-.4 11-3.9 15.4s-7.7 9.1-7.3 14.7c.4 4.4 3.5 7.9 6.7 10.9s6.6 6 8 10.2c1.3 4.2-.6 9.7-5 10.4-3.2.5-6.1-1.8-8.5-4-5.5-5.2-10.6-11-15-17.2-2.8-3.9-9.7-1.1-11.3 3.4-1.7 4.6-.2 9.6.2 14.4.4 4.8-.8 10.7-5.3 12.4-8.3-7.6-9.8-19.9-10.9-31.1-.6-6.2-1.2-12.4-1.7-18.5-.5-5.1-.9-10.4.4-15.3 2.6-9.4 11.7-16 21.3-17.4s19.5 1.9 27.6 7.2c1.9 1.2 3.7 2.6 4.7 4.5m-27.9 17.5c6.2 3.5 15-4.3 12.2-10.9-2.8-6.6-14.5-5.8-16.3 1.2-1 3.6.8 7.8 4.1 9.7zM143.6 702.7c3.4-8.9 11.8-15.8 21.3-16.7s19.4 4.6 23 13.4-.1 20.1-8.5 24.6c-10.5 5.6-22.6 14.4-20.4 26.1.7 3.9 3 7.3 3.4 11.2s-2.6 8.7-6.4 7.7c-1.9-.5-3.2-2.1-4.2-3.8-6.6-10.6-8.2-23.6-9.5-36-1-8.8-1.9-18.1 1.3-26.5m24.2 15.1c5.6-2.4 5.9-11.8.6-14.6-5.4-2.8-12.9 2.8-11.7 8.7-.3 5.4 6.9 9.4 11.3 6.3l-.2-.4zM874.8 706c0-5.4.1-11.1 3.2-15.5 3.3-4.6 9.1-6.4 14.5-7.9 3.4-1 7-2 10.6-1.4 3.5.6 7 3.3 7.2 6.9.3 5.1-5.3 8.1-9.9 10.3-4.6 2.2-9.7 6.7-7.7 11.3 2.9 6.8 16.3 2.6 18.9 9.6 1.7 4.5-3.2 8.6-7.6 10.4-4.4 1.8-9.9 3.7-10.9 8.4-1 4.5 3.1 8.8 7.7 9.7 4.5.9 9.1-.6 13.5-2.1 4.9-1.7 9.1 5.3 6.9 10-2.2 4.7-7.8 6.6-12.9 7.3s-10.5.6-15.1 3c-5.3 2.8-12.1-.7-15-5.8-3-5.2-3.1-11.4-3.1-17.4-.2-12.2-.2-24.5-.3-36.8zM209.1 702.5c5.7-11.8 22.8-16.1 33.4-8.5 10.6 7.6 12 25.2 2.7 34.4-5.1 5-12.2 7.4-17.9 11.6-2 1.5-3.9 3.3-4.9 5.6-2.2 5 .4 10.7 1 16.1.6 5.4-3.3 12.5-8.5 10.9-9.2-18.6-12.3-40.2-8.6-60.6.6-3.2 1.4-6.5 2.8-9.5m24.4 16.9c3-3.4 1.3-9.5-2.9-11.3s-9.4.8-11.2 5-.3 9.3 3.1 12.4c4.5.4 9-2.3 10.9-6.3l.1.2zM598.5 722.2c3.9 3.4-.3 10-5.1 12s-10.8 2.6-13.6 7c9.2 5.4 20.7 6.4 30.7 2.7 3.4 2.4 3.1 7.9.4 11.1-2.7 3.2-6.9 4.6-11 5.5-6.7 1.5-13.5 2.1-20.3 1.8-4.7-.2-10.2-1.4-12-5.7-2.6-6 3.9-11.8 9.5-15.2-11.3-9.5-16.8-26-11.8-39.8 5-13.9 21-23.3 35.2-19.5 3.4 6.1-3.6 12.6-9.7 16-6.1 3.4-13.4 9.3-10.6 15.7 1 2.3 3.1 3.8 5.3 5 4 2.1 8.5 3.3 13 3.4zM962.5 730.6c-10.5-5.6-15.7-19.6-11.4-30.8s17.5-18 29.1-15.1c2.2.6 4.4 1.5 6 3.1 2.8 2.8 3.1 7.7.8 10.9-2.4 3.2-7.1 4.3-10.7 2.4-3.7-1.9-8.3 2.3-8.1 6.5s3.6 7.6 7.1 9.8 7.6 3.7 10.7 6.5c6.5 5.8 7.5 16.2 3.5 23.9s-12 12.8-20.5 14.7c-5.1 1.1-11 1.1-15.1-2.2s-4.7-10.8-.2-13.5c6-3.5 16.2 2.8 19.6-3.3 1.5-2.8-.1-6.4-2.5-8.4s-5.5-3-8.3-4.5zM392 694.9c14.8-8.8 32.2-12.9 49.3-11.6 3.1 5-2 11.2-7.2 13.9-5.2 2.8-11.6 5.1-13.3 10.7-.7 2.3-.5 4.9-.2 7.3 1.2 10.9 2.4 21.7 3.7 32.6.8 7.3.6 16.4-6 19.5-7-3.8-10.7-11.7-12.1-19.5s-.8-15.8-1.4-23.7c-.4-4.6-1.6-9.8-5.7-11.9-4.2-2.2-10.4-.3-13.4-4-3.6-4.3 1.5-10.4 6.3-13.3zM44.3 688.8c2.7-1.2 5.8-2.4 8.4-1.1 3.5 1.8 3.4 7.3.8 10.3-2.6 3-6.6 4.3-10.3 5.7s-7.6 3.3-9.3 6.9c-1.9 4.2 0 9.3 3.3 12.5s7.7 4.9 12 6.5c11 4.1 13 20.2 6.6 30s-18.1 14.7-29.2 18.6c-1.7.6-3.6 1.2-5.4.8-4.6-1-5.4-7.9-2.4-11.6 3-3.7 7.9-5 12.3-6.6 4.5-1.6 9.2-4.1 10.6-8.6 1.7-5.7-2.9-11.4-7.9-14.7-5-3.2-11-5.5-14.5-10.3-5.2-7.1-2.9-17.6 2.8-24.4s14.2-10.3 22.2-14zM293 712.9c9.4 6.9 14.3 19.5 11.9 30.9s-11.9 21-23.3 23.5c-1.5.3-3.1.5-4.6.5-9.2-.3-15.8-10-16.1-19.1s3.9-17.8 8-26c2.9-5.7 6.7-12.1 13-13.1 3.9-.8 7.8.9 11.1 3.3m-13.2 37c1.1.1 2.2-.2 3.2-.7 4.9-2.3 8.3-7.4 8.5-12.8 0-1.2-.1-2.5-.6-3.5-1.5-2.7-5.6-3.1-8.2-1.4-2.7 1.6-4.2 4.6-5.4 7.5-1.7 4-1.8 10.4 2.5 10.9zM725.2 698.7c2-6.4 8.9-10.9 15.7-10.2 2.3 7.4-1.7 15.1-4.6 22.3-4.2 10.6-6 22.1-5.3 33.5.3 5.2.2 11.9-4.7 13.7-4.4 1.5-8.6-2.5-11.3-6.2-7.9-11-14.1-23.3-18.2-36.2-1.1-3.5-2.1-7.3-1.1-10.8s4.7-6.6 8.2-5.5c6.4 1.9 6.1 13.8 12.7 14.2 3.1.2 5.6-2.6 6.6-5.6 1-3.1 1-6.3 2-9.2zM85.4 753.4c-5.1-12.5-7.4-26.2-6.6-39.8.3-4.9 7.7-6.6 11.5-3.4 3.8 3.2 4.5 8.7 4.2 13.6s-1.4 10 0 14.7c1.3 4.8 6.2 9 10.9 7.5 5.4-10.4 7.1-22.7 4.9-34.2-.5-2.9-1.3-5.9-.5-8.8.8-2.8 3.9-5.3 6.6-4.1 2.1.9 2.9 3.4 3.5 5.7 2.5 10.9 3.3 22.2 2.3 33.3-.7 7.8-2.4 16-7.5 22s-14.5 8.9-21.2 4.7c-4.1-2.5-6.4-6.9-8.1-11.2zM529.2 741.9c.9-12-18.4-15.6-21.5-27.2-1.4-5.3 1.1-11 5.1-14.8 3.9-3.8 9.1-6 14.2-8.1 3.7-1.5 9-2.5 11 1 2.3 4-2.4 8.1-6.2 10.7-3.8 2.5-7.4 8.3-3.7 11 8.3 6.1 14.7 15.3 15.8 25.6s-4 21.3-13.3 25.9c-9.3 4.5-22.2.9-26.4-8.6 5-1.7 10.3-2.2 15.2-4.2 4.8-2 9.4-6.1 9.8-11.3zM820.5 738.7c2.5 8.8 14.8 9.9 23.5 7 3.1 9.7-7 20-17.2 19.4-10.1-.7-18.3-9.8-20.6-19.7s.1-20.3 3.7-29.8c2.9-7.5 6.7-14.9 12.6-20.3 4.3-4 10.6-6.8 15.9-4.4 5.3 2.4 6 12 .3 13.4-10.5 2.5-15.4 14.4-17.8 24.9-.6 3.2-1.3 6.4-.4 9.5zM779 693.6c3.2 3.1 2.5 8.3 1.8 12.7-2.3 13.9-2.2 28.1.4 41.9 1.3 7.1 1.6 17.1-5.4 18.9-7-2.6-8.6-11.6-9.2-19.1-.9-12-1.7-23.9-2.6-35.9-.4-5.2-.7-10.7 1.9-15.2 2.5-4.4 9.3-6.8 13.1-3.3z"/></g></svg>