<svg xmlns="http://www.w3.org/2000/svg" viewBox="0 0 1000 1000" enable-background="new 0 0 1000 1000"><desc xmlns:shape="http://adobe.com/products/shape"><shape:version>1.0.1</shape:version><shape:captureDetail>0.750000</shape:captureDetail><shape:source>1</shape:source></desc><g><path fill="#FEDB47" d="M841.5 180.4c8.3 22.6 4.5 47.6.7 71.3-36.1 223.3-64.8 447.7-93.5 672-1.1 8.7-8.9 15.3-17.3 17.7-8.4 2.5-17.4 1.5-26.1.6-132.7-14.4-265.3-28.7-398-43.1-10.5-1.1-21.7-2.6-29.4-9.8 7.7-13 26.2-12.7 41.2-10.8 121.9 15.6 244.2 28.2 366.8 37.6 12.1 1 25.4 1.6 35.4-5.3 12.6-8.7 15.4-25.7 17.2-40.9 26.7-226.2 57.8-451.8 93.3-676.8.9-5.8 3.9-13.3 9.7-12.5zM809 162.7c10.7 6.2 10.2 21.6 8.2 33.9-35.7 223.6-66.9 447.9-93.8 672.7-1.2 10.4-3 21.9-10.9 28.8-8.6 7.6-21.4 7.1-32.8 6.1-126.1-10.5-252.1-23-377.9-37.5-2.9-.3-5.9-.7-8.1-2.6-3-2.6-3.4-6.9-3.2-10.7 2.1-37 46.5-66.8 35.8-102.3-4.8-15.9 9.2-30.9 21.8-41.7-4.3 29.1-8.7 58.1-13 87.2-1.2 8.4-2.3 17.6 2 25 6.2 10.5 20.2 12.4 32.3 13.3 92.5 6.6 185.1 13.1 277.6 19.7 10.6.7 23.1.6 29.2-8.1 2.7-3.8 3.5-8.6 4.2-13.2 31-199.1 62.1-398.2 93.2-597.3 1.3-8.4 2.5-17.5-1.9-24.7-7.3-12.1-24.6-11.6-38.6-9.7-103.2 14.3-206.4 28.5-309.6 42.8-3.6.5-7.4 1-10.4 3.1-5.6 3.8-6.8 11.3-7.6 18-8.9 76.4-17.9 152.8-26.8 229.2-3 26-9.7 57-34.3 66.1 14.1-108 28.2-215.9 42.3-323.9.7-5.6 1.8-11.7 6.1-15.3 3.2-2.6 7.4-3.3 11.5-3.9 128.2-18.8 256.3-37.7 384.4-56.6 6.8-1 14.3-1.9 20.3 1.6z"/><path fill="#13110C" d="M983.7 258.1c4.3-.3 6.1 6.3 3.3 9.7-2.8 3.4-7.6 4-11.9 4.5-7.3.7-14.7 1.5-22 2.2-8.7.9-17.5 1.8-26.2.5-2.7-.4-5.6-1.1-7.6-3s-2.8-5.3-1-7.4c1.4-1.7 3.9-2 6.2-2.2 19.7-1.4 39.4-2.8 59.2-4.3zM969.5 428.7c4.3.6 4.7 7.4 1.4 10.1-3.3 2.8-8.1 2.6-12.4 2.2-16.1-1.5-32.2-3.7-48.2-6.6-4.2-.8-8.8-1.9-11.2-5.4-2.4-3.5-.2-9.9 4-9.3 22.2 3.1 44.3 6.1 66.4 9zM963.5 76.5c3.4 1.2 5.1 6.5 2.1 8.5-19.2 12.1-38.4 24.3-57.6 36.4-.8.5-1.6 1-2.6 1.2-3.9.9-7.1-3.9-6.3-7.8.9-3.9 4.2-6.7 7.4-9.1 14.5-10.8 30.1-20.1 46.6-27.5 3.3-1.5 7-2.9 10.4-1.7zM933.9 606.9c2.3.6 5.2 1.9 4.9 4.3-1.4 4.4-6 7.1-10.6 7.7-4.6.6-9.2-.6-13.6-1.7-8.7-2.4-17.3-4.6-25.9-6.8-4.5-1.2-9.5-2.6-11.8-6.6-2.4-4 .7-10.7 5.2-9.6 17.3 4.2 34.5 8.4 51.8 12.7zM858.5 191.1c5.2 16.8 2.6 34.9-.1 52.3-35 226.9-66.3 454.4-94.1 682.4-1.6 12.8-13 22.6-25.3 26.3-12.3 3.7-25.5 2.4-38.3 1.2-121.1-12.1-241.9-26.1-362.5-41.9-30.6-4-64.3-7.5-89.9 9.7-24.3 16.4-34.7 47.1-56 67.2-3.7-23.5 12.8-45.3 30.4-61.4 17.6-16.1 38.1-31 46.6-53.2l41.4-108.3c1.7-4.5 3.3-10.1 0-13.6-32.3 30.8-60 66.3-82.1 105.1-10.1 1.4-9.1-15.3-3.4-23.7 63.3-92.8 155.6-163.2 217.4-257.1-21 20.7-58.8 21-80 .5-4.2-4.1-10.2-9.2-15-5.8-31.5 21.7-62.9 43.5-94.4 65.2-8.9 6.2-20.5 12.5-29.9 7.2-14-7.9-7.3-31.5-18.6-42.9-11-11.1-32.7-4.2-43.1-15.9-9.5-10.8-3.2-30.7-14.6-39.6-8.6-6.7-20.8-2.1-31.3.9-10.6 2.6-25.5.8-27.2-10-2.1-13.5-21.4-16.5-33.5-10.1-12.1 6.4-20.6 18.3-32.8 24.5-5.4 2.7-15 1.2-13.5-4.6 13.1-13 26.8-26.4 44.3-32.2 17.5-5.9 39.8-1.8 49 14.1 6.8 11.7 24.3 3.6 37.7 3 17.1-.8 32.8 16.1 30.6 33.1-1.7 13.2 17.1 16.7 29.7 20.8 20.7 6.8 34.1 30.8 28.9 52l73.8-46.8c12.4-7.9 26.1-17.6 28-32.2 13.6-105.2 27.2-210.5 40.8-315.7 1.2-9.3 2.8-19.5 9.6-26 6.1-5.8 15-7.3 23.4-8.5C527.8 189.1 651 171 774.2 153c13.9-2 28.1-4.1 41.8-1 19.7 4.4 36.5 19.9 42.5 39.1zm-16.3 60.6c3.8-23.7 7.6-48.7-.7-71.3-5.8-.8-8.8 6.7-9.7 12.5-35.5 225-66.6 450.6-93.3 676.8-1.8 15.2-4.6 32.2-17.2 40.9-10 6.9-23.3 6.3-35.4 5.3-122.6-9.4-244.9-22-366.8-37.6-15-1.9-33.5-2.2-41.2 10.8 7.7 7.2 18.9 8.7 29.4 9.8 132.7 14.4 265.3 28.7 398 43.1 8.7.9 17.7 1.9 26.1-.6 8.4-2.4 16.2-9 17.3-17.7 28.7-224.3 57.4-448.7 93.5-672zm-25-55.1c2-12.3 2.5-27.7-8.2-33.9-6-3.5-13.5-2.6-20.3-1.6-128.1 18.9-256.2 37.8-384.4 56.6-4.1.6-8.3 1.3-11.5 3.9-4.3 3.6-5.4 9.7-6.1 15.3-14.1 108-28.2 215.9-42.3 323.9 24.6-9.1 31.3-40.1 34.3-66.1 8.9-76.4 17.9-152.8 26.8-229.2.8-6.7 2-14.2 7.6-18 3-2.1 6.8-2.6 10.4-3.1 103.2-14.3 206.4-28.5 309.6-42.8 14-1.9 31.3-2.4 38.6 9.7 4.4 7.2 3.2 16.3 1.9 24.7-31.1 199.1-62.2 398.2-93.2 597.3-.7 4.6-1.5 9.4-4.2 13.2-6.1 8.7-18.6 8.8-29.2 8.1-92.5-6.6-185.1-13.1-277.6-19.7-12.1-.9-26.1-2.8-32.3-13.3-4.3-7.4-3.2-16.6-2-25 4.3-29.1 8.7-58.1 13-87.2-12.6 10.8-26.6 25.8-21.8 41.7 10.7 35.5-33.7 65.3-35.8 102.3-.2 3.8.2 8.1 3.2 10.7 2.2 1.9 5.2 2.3 8.1 2.6 125.8 14.5 251.8 27 377.9 37.5 11.4 1 24.2 1.5 32.8-6.1 7.9-6.9 9.7-18.4 10.9-28.8 26.9-224.8 58.1-449.1 93.8-672.7zm-58 38.5c.8-5.3 1.6-11-.7-15.9-5.1-10.5-19.9-9.9-31.4-7.8-93.1 17.1-187.1 29.9-281.4 38.3-8.6.8-18.4 2.2-23.1 9.5-2.3 3.6-2.9 8-3.4 12.3-10.2 85.5-20.3 170.9-30.5 256.4 11.2-2.9 22.3-5.7 33.5-8.6 11.7-3 24.9-5.8 35.3.4 10.1 6 14.1 19.1 12.5 30.7-1.6 11.6-7.7 22.1-14 31.9-22.3 35.1-49.1 67.3-79.4 95.8-11.3 10.6-14 27.1-16.2 42.4-3.7 25.9-7.4 51.9-11.1 77.8-.8 5.4-1.4 11.2 1.2 15.9 4 7.2 13.5 8.6 21.7 9.2 90.3 6.7 180.7 13.5 271 20.2 8.9.7 20.9-.9 22.2-9.7 31.3-199.6 62.5-399.2 93.8-598.8zM447.5 548.2c3.9-4.2 7.9-10 5.4-15.2-1.9-3.8-6.6-5.2-10.8-5.7-18-1.9-35.3 6.6-51.1 15.4-7.7 4.3-16.2 10-17.2 18.8-1 9 7 17.1 15.8 18.8 8.8 1.7 17.9-1.5 25.8-5.8 12.2-6.7 22.6-16.1 32.1-26.3zM751.3 11.3c2.8 2.7 1.7 7.3.4 10.9l-17.1 49.2c-1.1 3.3-2.4 6.7-5 9s-7.1 2.9-9.4.3c-2.3-2.5-1.5-6.4-.6-9.6 5-17.3 10.8-34.3 17.5-51 1.2-3.1 2.6-6.3 5.1-8.4 2.6-2.1 6.7-2.7 9.1-.4zM691.1 279.8c5.6 5.9 8.1 14.9 4.9 22.3-1.5 3.4-4 6.3-6.8 8.7-10.1 8.9-24.1 13.3-37.5 11.8-4-.5-8-1.4-11.5-3.5-11.4-6.7-13.3-23.9-5.8-34.8 7.5-10.9 21.9-15.4 35-14.1 8 .8 16.1 3.7 21.7 9.6zm-13.7 21.5c5.3-8.4-2.4-20.8-12.3-21.3-10.1-.6-18.8 8.7-19.5 18.6-.4 4.5 1.1 9.7 5.2 11.8 3.3 1.6 7.1.7 10.7-.3 6-1.6 12.5-3.6 15.9-8.8zM683.5 392.1c3.8 6.3 2.9 14.6-.7 21-3.6 6.4-9.6 11.1-16 14.7-6.5 3.7-13.9 6.6-21.4 6.2-12-.6-23-10.4-24.9-22.3-1.9-11.9 5.4-24.7 16.6-29 6.2-2.4 13-2.4 19.7-2 10.1.6 21.5 2.7 26.7 11.4zm-22.2 21.4c4.5-4.1 8.4-10.4 6.4-16.2-2.2-6.5-11-8.6-17.6-6.5-7 2.1-13 8-14.3 15.2-.6 3.3-.1 7 1.9 9.7 2.7 3.6 7.6 4.9 12 4.2 4.4-.8 8.3-3.3 11.6-6.4zM575.3 283.5c10.8 3.3 19.3 14.6 16.9 25.6-1.3 5.8-5.2 10.7-9.8 14.5-10.1 8.4-24.9 12.1-36.6 6.3-11.8-5.8-17.9-22.4-10.3-33 2-2.9 4.8-5.1 7.8-7 9.4-6.2 21.2-9.7 32-6.4zm-11.2 34.7c6.5-3.5 13.2-9.9 11.6-17.1-1.2-5-6.3-8.4-11.4-8.7-10.9-.8-20.2 12.3-15.7 22.3 1 2.4 2.8 4.5 5.2 5.4 3.4 1.3 7.1-.2 10.3-1.9zM574.3 395c8.8 4.9 14.5 16.5 10 25.5-5.7 11.5-17.3 20.4-30.1 21-12.8.7-26.1-8.2-28.6-20.8-2.5-12.5 6.7-26.1 19.2-28.4 9.9-1.8 20.7-2.2 29.5 2.7zm-11.6 28.9c3.6-3.5 6.7-8 6.5-13-.3-5.9-5.9-10.8-11.9-11-6-.3-11.6 3.5-14.4 8.7-2.2 4.2-2.8 9.4-.9 13.7 2 4.3 6.7 7.4 11.4 6.9 3.6-.4 6.7-2.8 9.3-5.3zM548.2 87c.3 4.2.4 8.9-2.2 12.2-2.6 3.3-9.2 3.3-10.2-.8-4.8-19.2-7.4-38.9-7.7-58.6-.1-5.7 1.3-13 6.9-13.9 3.3-.5 6.5 1.9 8 4.8s1.8 6.4 2 9.7c1.1 15.5 2.1 31 3.2 46.6zM495.3 304.3c4.9 4.9 6.2 12.8 4.2 19.5-2.1 6.7-6.9 12.2-12.6 16.2-8.5 6-19.7 9-29.7 6.1s-18.3-12.5-18-22.9c.1-4.1 1.5-8.1 3.4-11.8 1.4-2.7 3.1-5.3 5.4-7.3 6.1-5.5 15.1-6 23.4-6.1 8.5-.1 17.9.3 23.9 6.3zm-14 21.7c5.3-5.6 2.1-16-4.9-19s-15.7.6-20.1 7c-4.7 6.9-3.5 18.5 4.3 21.4 7.6 2.8 15.2-3.6 20.7-9.4zM479.7 400c8.8 3.1 13.4 13.6 11.7 22.8-1.8 9.1-8.7 16.6-16.9 21.1-11.2 6.2-26.9 6.7-35.7-2.7-9.1-9.7-6.6-26.8 3.3-35.6 9.9-8.8 25.1-10 37.6-5.6zm-5.3 20.5c1.5-5.7-1.7-12.9-7.5-13.8-3.8-.6-7.6 1.6-10.6 4-3.7 3.1-7 7-8.2 11.7-1.1 4.7.4 10.2 4.4 12.9 1.6 1.1 3.6 1.6 5.6 1.3 2-.3 3.8-1.5 5.4-2.6 4.8-3.5 9.4-7.8 10.9-13.5zM402.4 127c1 2.4 2 5.2.9 7.6-1.6 3.6-6.9 3.9-10 1.7-3.2-2.2-4.8-6.1-6.2-9.7-6.8-17.5-13.6-35-20.5-52.6-1.6-4.1 4.4-7.9 8.5-6.1 4.1 1.8 6.1 6.4 7.8 10.5l19.5 48.6zM343.3 641.1c2 2.4 3.8 6 1.7 8.3-.8.9-2.1 1.3-3.4 1.3-4.5.1-8.1-3.7-11-7.2-5-6.2-9.7-12.5-14.3-18.9 2.8-3.1 7.8-3.2 11.5-1.2 3.7 1.9 6.3 5.4 8.8 8.7 2.2 3 4.5 6 6.7 9zM326.3 651c1.1 1.8 2.3 3.9 1.9 6-.7 3.5-5.5 4.8-8.7 3.3s-5.2-4.8-7-7.9c-2.3-4-4.6-8-6.8-12 3.5-2.6 8.6-1.9 12.3.6 3.6 2.4 6 6.3 8.3 10zM306.8 231.3c-1.1 4.6-6.6 7-11.3 6.4-4.7-.6-8.7-3.5-12.6-6.2-11.9-8.5-23.7-17-35.6-25.5-4.5-3.2-9.5-9.1-6.2-13.5 3.1-4.1 9.6-1.7 13.9 1 18.2 11.4 35.4 24.1 51.8 37.8zM281.4 389.1c4.4.7 10 2.7 9.9 7.2-.1 5.2-7.4 6.2-12.5 5.6-11.2-1.4-22.4-2.7-33.6-4.1-6.8-.9-13.6-1.8-19.9-4.3-2.7-1.1-5.3-2.6-6.7-5.1-1.4-2.5-1-6.2 1.5-7.6 1.7-1 3.7-.7 5.6-.4 18.6 2.9 37.1 5.8 55.7 8.7z"/></g></svg>