<svg xmlns="http://www.w3.org/2000/svg" viewBox="0 58 1000 888" enable-background="new 0 58 1000 888"><desc xmlns:shape="http://adobe.com/products/shape"><shape:version>1.1.0</shape:version><shape:captureDetail>1.000000</shape:captureDetail><shape:source>1</shape:source></desc><path fill="#2BC22B" d="M840 770.5c11.6-15 30.3-21.7 47.9-26.7 20.8-6 43.1-12.2 65-11.3 45 1.9 46.8 47 38.6 82-8.5 36-30 68.1-57.4 92.6-10.5 9.4-30.3 29-45.4 28.1-8.1-.4-11.2-5.4-11.1-12.7.1-11.8 0-19.4-4-31-8.7-25.1-13.8-50.4-16-76.8-.7-7.8-.9-16.8-5.3-23.7-4.7-7.3-20.8-9.6-12.3-20.5m53.1-2.7c-18.4 7.6-14.5 25.2-12.5 41.7 2.2 18.3 5.8 36.4 10.6 54.1 2.3 8.5 4.3 18.1 8.1 26.1 4 8.5 6.1 8.8 13.4 3.5 12.6-9.3 23.6-20.7 32.6-33.4 17.1-24.3 27.3-54 27.4-83.8.1-19.7-10.3-24-28.3-22-17.7 2.1-35.1 6.8-51.3 13.8M717.5 830.2c16.5-1.2 33-2.5 49.5-3.7 8.8-.7 34.1-6.6 31.9 10-1.7 13-18.9 13-28.6 13.8-16.5 1.3-34.2.7-50.4 4-15.6 3.2-17.5 12.1-17.3 26.4.1 6-1.6 17.7 3.4 22.5 5.2 4.8 13.6 1.9 19.6.8 15.8-2.8 31.5-5.4 47.4-7.4 11-1.4 31.7-7.8 41.9-.9 10.2 6.9 1.9 15.7-6.4 18.8-14.9 5.7-33.5 6.2-49.2 8.8-16.1 2.7-32.1 5.4-48.2 8.1-15.3 2.6-29.2 4-33.3-14.6-3.1-14.4-.3-31.5.4-46.1.9-17.6 2.2-35.1 4.1-52.6 1.3-12.2.4-28.6 13.2-34.6 14.3-6.6 33.6-7.8 49-10 9.6-1.3 46.4-10 52.6-1.4 9.6 13.4-19.3 19.6-26.3 21.5-16.4 4.4-37.1 3.2-52.3 10.3-5.4 2.6-11.1 7.3-11.7 13.7-.3 5.9 4 13.1 10.7 12.6M622 849.9c-18.8 12.2-40.3 20.3-62.5 23.6 13.7 13.5 27.8 27.6 45.6 35.5 6.1 2.7 16.8 3.8 21.1 9.4 5.1 6.7.2 14.4-6.8 16.9-16.4 5.9-42.7-16.9-54.4-26.6-5.4-4.5-12.6-14.9-19.4-16.5-9.1-2.1-13.9 7.5-14.9 14.7-1.2 8.2 1.7 16.8-2.1 24.6-3.9 8.1-12.5 11-19.4 4.2-13.3-13.1 1.9-49.3 5.3-64.7 4.9-22 7.4-46.6 15.3-67.8 6.4-17.3 27.7-21.9 44.4-22.2 35.6-.4 97.2 37 47.8 68.9m-11.9-36.6c-13.7-8.1-32.3-13.7-46.8-4-6.5 4.3-9.6 10.8-12.1 18-1.5 4.4-6.7 16-4.2 20.4 6 10.5 36.3-3 43.6-6.7 7.9-3.9 35.7-18.4 19.5-27.7M193.9 706.8c11.5 2.7-6.6 16.1-8.4 18.2-6.5 7.5-8.2 18.2-10.5 27.5-2.5 10.1-3.3 28.9-10.7 36.8-6.7 7.2-16.6 1.6-19.4-6.4-5.2-14.7 22-50.6 7.1-58.5-4.6-2.4-14.5-1.1-19.6-1.5-5.8-.4-12.1-1.4-18-.4-12.5 2-16.2 11.9-24.9 19.4-6 5.2-20.1 11.2-23.4-.8-2.6-9.4 11.7-20.5 17.2-26.2 16.6-17.3 34.8-33 54.3-47 10.8-7.8 46.5-38.8 57.6-22.1 7.3 10.9-15.2 57.6-1.3 61m-39-4c12.7-.6 11.6-16.8 13-26.3-6.6-2-23.1 11.4-26.9 16.8-3.4 4.8-4.7 3.3.5 7.5 3.2 2.6 9.6 2.2 13.4 2"/><path fill="#2BC22B" d="M414 908.5c-38-6.8-36.3-48-24.8-75.8 10.1-24.5 36.3-69.6 68.7-63 65.7 13.4 18.6 150.1-43.9 138.8m-7.1-31.1c13.4 21 36.8-5.6 43.9-17.3 5.8-9.5 10.2-20 12.9-30.8 2.1-8.2 7.1-24.9 1.6-32.5-17.8-24.2-73.5 56.9-58.4 80.6 4.2 6.6-3.5-5.5 0 0zM109.7 570.2c11 2.5 22.1 4.9 33.1 7.3 9 2 24.9 2.8 31.9 9.8 6.8 6.9 3.6 15.3-5.4 16.8-10 1.7-22.8-2.2-32.6-4.4-9.4-2.2-19.4-7.9-28.7-3.1-8.5 4.4-13.5 14.1-18.3 22-12.9 21.2-25.2 42.8-36.9 64.6-4.9 9.2-20.1 52.6-36.1 44.3-16.2-8.4 9.6-43.8 14.4-52.6 12-22.1 24.2-44 36.8-65.7 3.7-6.3 15.4-18.6 7.1-23.1-8.9-4.9-26-3.5-36.1-4.7-7.9-1-26.9.9-29.4-9-2.3-9.5 8.5-13 15.8-13.7 27.7-2.7 57.6 5.5 84.4 11.5 17 3.8-26.5-5.9 0 0zM288.1 846.5l37.2 8.7c9.3 2.2 22.8 3.1 30.7 9.4 5 4 8.6 12.9 2.8 18-6.4 5.6-24.9-1.8-31.8-3.4-23-5.1-49.5-7.5-71.4-15.9-23.1-8.9-1.3-38 5.6-51.4l33.6-64.8c4.2-8.1 8.4-21.5 16.6-26.8 8.7-5.7 17.4-1 16.7 9.2-.7 10.1-9.3 21.5-13.7 30.1l-17.7 34.8c-5.9 11.6-12.5 23-17.7 34.8-4.2 9.4-1.8 14.7 9.1 17.3 17.7 4.1-6.4-1.5 0 0zM193.8 820.5c-11.2-6.7-.2-23.2 3.8-30.5 7-13.1 14.1-26.2 21.1-39.2 7.5-13.9 14.9-27.8 22.4-41.7 4.2-7.8 11.4-26.9 23.4-20 12.1 7 2.9 22.8-2 31.2-7.7 13.2-15.3 26.4-22.7 39.7-7 12.5-13.8 25.1-20.5 37.8-4 7.5-12.8 30.2-25.5 22.7-3.7-2.2 3.9 2.3 0 0zM169.7 310.1c-1.7-41.8 3.9-78.4 30.6-111.8 23.1-28.9 54.4-50.4 86.1-68.9 69-40.3 150-76.4 231.6-59.2 34.9 7.3 68.6 23.9 92.6 50.6 26 28.8 36 66.4 39.3 104.2 3.6 39.9 1 80.2 6.8 119.9 1.1 7.6 1.4 18.3 5.3 25.1 5.2 9.3 15.5 5.6 24.2 3.9 23-4.5 45.9-9.3 68.7-14.5 45.7-10.3 91.1-21.8 136.1-34.5 8.4-2.4 19.9-8.2 28.6-6.9 9.9 1.5 14.2 10.8 15.9 19.6 4.3 21.9 3 45.8 4.7 68.1 3.5 47.2 8.1 94.4 13.8 141.3 2.9 23.5 6 47 9.5 70.4 2.6 17.8 11.8 43.5-3 58.1-13.1 13-37.3 17.4-54.3 23-21.7 7.1-43.6 13.5-65.7 19.1-44.1 11.2-89 19.1-134.4 22.7-83 6.6-166.3-2.3-245.6-28.1-74-24.1-143.6-61.9-203.9-111.1-27-22.1-65.5-49.2-72.8-85.2-8.8-43.6-8.4-90.9-11-135.2-1.1-23.4-2.2-47-3.1-70.6m451.9 407.4c11.6-5.8 2.9-35.3 2.2-46.3-1.2-19.2-2.4-39.5-.2-58.6.9-8.1 11.2-27.2 20.4-14.4 3.3 4.6.5 21.7.6 27.4l.6 27.4c.4 17.1-1.1 35.6 1.4 52.5 2.7 18.7 15.3 11.2 29 13.5 6.8 1.2 10.7 3.9 16.7-2.2 5.4-5.5 5.1-13.2 4.8-20.4-.3-9-1.3-36 16-29 12.1 4.9.6 18.7 1.7 27.9 1.8 14.6 15 24.8 29.6 23.1 15.3-1.7 18.6-13.1 17.4-26.6-.8-9.1-3-32.4 13.7-27 10.4 3.4 3.5 17 6.2 25.4 4 12.6 16.4 21.9 29.6 16.5 15.1-6.2 13.4-18.7 10.4-31.9-4-17.4-7.2-36-7-53.9.1-6.5.3-15.1 6.8-18.8 6-3.4 10.9-.5 13.6 4.6 3.9 7.5 2.9 24.5 3.9 32.8 1.2 10 2.4 20.1 3.6 30.1.8 6.8-.4 20.3 4.2 25.9 5.1 6.4 17.7.4 24-1.6 18.5-5.9 36.2-14 52.7-24.2-49.9-32.7-81.3-93.4-94.6-150.2-7.8-33.1-4-63.3 13.2-92.6 17.2-29.5 38.1-57.2 59.8-83.5-27.4 7.4-54.8 14.9-82.2 22.4-8.6 2.4-28.7 3.8-31.9 14.1-2.9 9.1 8.7 19.7 2.8 28.6-6.7 10.1-13.8-1.7-16.7-7.9-4.6-9.7-10-16.4-21.3-18.5-12.6-2.3-25.8 3.1-36.9 8.5-12 5.9-12.9 11.1-12.5 24.2.4 14.3.8 28.7 1.1 43 .4 13.8 3 29.4 1.2 43-1.3 9.8-10.3 13.5-16.4 3.6-6-9.7-4.9-27-5.6-38-.9-14.3-1.1-28.7-.6-43.1.3-9.3 4.6-23.3-8.1-25.7-4.9-.9-9.3 1.4-13 4.4-2 1.6-3.6 5-5.6 6.3-5.3 3.5 1.9 2.5-6 1.5-10.9-1.4-19.5-6.8-31.4-5.9-5.9.5-27.7 3.8-30.1 10.7-.7 2.1 3 9.3 2.7 12.2-.5 4.8-2.5 9.2-7.4 10.5-10.3 2.9-9.5-6.4-11.6-12.5-4.3-13.1-18.7-14.9-30.5-13.1-9.5 1.4-20.9 3.3-23.1 13.9-1.4 6.8 3.5 18.1-1.2 23.9-6.4 7.8-14-1.7-15.9-8-3.5-11.6-.8-22.6-15.8-25.2-11.8-2-26.1-.6-38 .2-15.7 1-11.9 14-12 26.7-.1 28.8-.2 57.5-.2 86.3 0 7.3-.6 22.6-12.5 15.1-9.2-5.8-6-24.5-6.2-33.6l-.6-39.9c-.2-13.5 2.4-30.3-.9-43.4-3-11.9-14.8-17.5-26-18.7-9.3-1-27.5-2.4-30.1 9.2-1.6 7 4.6 17.7-1.1 23.6-12.8 13.3-16-16.7-16.6-22.1-1.2-10.6-7.1-17.5-16.7-21.9-4.8-2.2-10-3.6-15.2-4.6-7-1.4-9.9-3-13.4 3.8-9.4 18.4 13.2 52-10.4 64.7-4.8-13.9-7.8-28.6-8.8-43.3-.8-11 2.8-25-2.8-34.8-4.9-8.5-16.2-15-25.5-17.8-11-3.3-14.5 4-15.2 14.5-.4 5.3 2 21.4-6.9 22-9.2.7-12.2-23.4-11.6-29.9 1.8-21.9-2-44-25.3-53.3l9.6 146.4c1.3 20.6.5 41.9 10.6 60.6 9.7 17.8 25.5 31.8 42.1 43.1l-.6-31.3c-.2-8.4-2.2-19.5 2.2-27.1 3.4-6 10.9-9.5 16.7-4.7 5.8 4.8 4.1 15.7 3.8 22.1-.9 18.8-6.5 42 3.3 59.2 9.3 16.5 27.6 24.8 44.1 32.2.6-8.5 2-21.8 12.6-23.4 12.8-1.9 10.5 9.7 11.2 17.8 1.7 20.4 18.8 39.3 39.4 41.6 2-11.1-4-22.4-.8-33.4 2.2-7.5 10.9-15.3 18.7-8.7 7.4 6.2 1.2 24 2.4 32.9 1.5 11 6.3 21.6 16.1 27.5 11.4 6.9 26.4 10.2 38.9 14.9 8.7 3.3 18.3 7.7 22.7-4.2 4.1-10.9-6-22.6-.8-33.5 5.1-10.7 16.4-7.2 20.5 2.3 5.1 11.9-3.7 24.8.6 36.9 3.6 10.3 13.7 16.6 23.7 19.4 6.7 1.9 25 5.9 31.7 1.6 8.2-5.3 1.6-16.8 2.4-24.4.7-6.8 5.2-17.2 13.8-14.6 8.7 2.6 7 14.5 8 21.3 2.5 18 20.6 33 38.8 23.9m-261-466.6c20 12.2 46.4 11.3 66.7.1 9-5 19.5-13.2 23.3-23.2 5.7-14.9-9.8-20.6-21.5-23.7-23.9-6.3-50.2-2.1-71.4 10.4-17.6 10.3-47.2 37.9-30.8 60.1 14.3 19.4 51.2 19.9 72.5 18.4 27.4-1.9 54.4-11.2 76.9-26.9 19.5-13.6 43.8-37 29.6-62.5-12.9-23.2-44.8-34-69.6-36.5-54.5-5.5-113.7 27.5-141.7 74.2-41.1 68.4 59.7 82.4 104.9 81.1 56.8-1.6 115.2-21.9 147.7-71.1 14.4-21.8 23.5-49.7 19.3-76-4.7-29.3-29.4-44.1-56.2-50.9-61-15.4-127.5.4-179.9 33.6-26.2 16.6-53.1 38.5-66.3 67.2-7 15.2-9.9 32.7-6.1 49.2 1.9 8.2 17.3 30.9 5.4 36.9 26.1-1.2 42 36.3 68.6 28.7-3.4-3.3-6.8-6.7-10.1-10 .9 2.4 4.4-.7 2.9-3.5-1.7-3.1-9.1-4.3-12.3-5.5-10.5-4.1-20.9-9.5-29-17.5-15.8-15.7-18.1-39.2-10.9-59.5 14.6-41.1 62.9-73.3 102.2-87.4 39.6-14.2 86.5-12.5 121.2 13.1 17 12.5 31.4 31.4 32.8 53 1.5 23.1-14.5 40.6-31.4 54-34.5 27.2-79.7 40.5-123.4 36.7-38.3-3.4-86.7-29.5-64.6-75 18.9-38.9 69.1-58.6 110.3-53.5 18 2.2 39.3 10.4 47.4 28 8.5 18.4-2.8 36.2-17.3 47.2-18.4 14-44.4 22.6-67.5 20.2-18.2-1.9-52.1-21.2-35-43.5 7.1-9.2 22.4-14.8 33-18.5 7.1-2.4 32-8.8 37.3.6 6.9 12.2-20.7 13.2-25.3 14-12.3 2.4-23.7 8.7-31.7 18M272 325.7c-8.5-8.2-14.3 9.5-12.6 15.4 2.5 8.7 10.5 14.8 18.1 19 19.1 10.7 42 16.4 63.2 21.5 47.2 11.3 95.9 14.1 144.3 12.8 23.7-.6 47.4-2.2 71-4.3 12.6-1.1 25.3-2.4 37.9-3.8 10.7-1.2 26.7 0 36.6-4.4 10.1-4.4 6.7-16.4 6.1-25.5-.8-12.9-1.7-25.8-2.5-38.7-1.6-25.5-1.3-52.2-7.1-77.1-42.5 51.8-101.9 89.3-166.4 106.9-57.9 15.7-141.6 23.8-188.6-21.8m642.2 36.6c-39.8 43.2-80.9 93.1-64.2 155.8 7 26.4 18.4 51.7 33.5 74.6 14.6 22.1 34.7 49.9 61.2 58.1-10.2-96.2-20.4-192.4-30.5-288.5m-674.8-29.9c5.4-26-3.6-52.2-1.5-78.3 1.7-21.2 10.1-41.1 22.3-58.4 26.4-37.5 68.3-63.7 110.8-79.2 43.9-16.1 96.8-24 142.8-12.5 41 10.3 72.7 47.5 74.1 90.2.7 21.7-6.1 43.5-18.8 61.1-2.6 3.7-19.2 17.9-15.2 21.6 6 5.5 21.6-12.3 25.7-16 37.2-33.9 57.9-79.6 22.1-123-60-72.7-171.4-58.4-247.8-24.7-48 21.2-103.8 51.4-135.9 94.1-28.1 37.3-34.8 108.7 21.4 125.1"/></svg>