<svg xmlns="http://www.w3.org/2000/svg" viewBox="0 0 1000 643.3" enable-background="new 0 0 1000 643.3"><desc xmlns:shape="http://adobe.com/products/shape"><shape:version>1.0.2</shape:version><shape:captureDetail>0.750000</shape:captureDetail><shape:source>1</shape:source></desc><path fill="#C12C7F" d="M256.3 129.7c11.9 43.2 15.8 88.2 16.2 132.9.3 42.6-1.8 85.8-12.4 127.2-2.6 10.2-5.7 20.2-9.5 30.1-2.6 6.9-11.7 19.6-10.8 27 .9 7.3 13.8 20.2 18.1 26.4 6.6 9.4 13.3 18.9 19.9 28.3 2.9 4.1 18.9 23 14.2 25.7-6.6 3.7-15.1-10.7-17.3-13.9-13.3-19.2-26.7-38.4-40-57.6-9.3 19-26.6 33.2-46.3 40.5-20.3 7.5-37.4 4.9-57.8.9-13.6-2.7-12.5 8.9-13.7 20.6-1.3 13.5-2.7 27.1-4 40.6-.9 9.3-3.8 81.8-14.4 79.4 3.5-35.6 7.1-71.2 10.6-106.8 1.1-10.8 7.2-31.5 1.8-41.8-5.3-10-21.2-17.9-29.3-26.4-39.9-42-58.7-101.2-68.4-157-11-63.2-9.3-129.7 6.8-191.9 6.5-25.1 15.9-50.1 31.3-71.2 15.2-21 41-44.9 69.1-39.6C151.1 9 188 25.8 211.1 46.8c23.7 21.4 36.8 52.3 45.2 82.9M95.7 17.9C59.6 28.1 40.9 69.6 30.1 102c-12.9 38.8-16.7 80-16.4 120.7.4 76.2 13.5 158.6 61.6 220.2 20.7 26.5 52.8 53.3 88.4 52.3 39.3-1.1 64.2-36.8 77.9-69.6 16.3-38.9 22-81.4 23.3-123.3 1.4-42.2.6-85.7-5.2-127.5-5.8-41.7-19.3-83.6-48.5-115.1C185 31.4 135.1 6.9 95.7 17.9"/><path fill="#C12C7F" d="M363.4 215.4c-4.6-9 4-15.8 9.5-22.2 6.7-7.9 14.6-20.3 23.2-25.9 2.7-1.7 8.1-7.9 7.8.9-.1 3.2-3.6 6.1-5.4 8.3-6.9 8.7-15.7 16.3-22.1 25.3-4.9 7-5.5 12.5 0 19.8 6 8 13 12.8 15.7 1.3 2.3-9.8 0-25.1 4.6-33.9 6.5-12.2 3.9 1.9 5.7 7.6 72.2-17.6 146.1-27 220.1-32.5 36.6-2.7 73.3-4.6 110.1-6 17.4-.7 34.8-1.3 52.2-1.8 7.9-.3 17.1.8 24.7-1.8 7.9-2.7 14.7-9.8 21.1-14.9 4.7-3.8 11.5-11.7 17.5-13.7 8.8-2.9 9 1.8 5.7 7.2-6.8 11-35.1 16.4-34.4 31.2.3 6.1 6.6 11 10.5 15 2.7 2.8 18.3 15.2 17.6 19.7-2 12.4-31.7-23.3-34.4-26-11.8-11.5-29.5-7.8-45.2-7.7-19.6.1-39.3.5-58.9 1.2-37.3 1.4-74.5 3.8-111.6 7.4-41 4-81.9 9.3-122.6 15.9-20.1 3.3-42.7 4.9-62.1 11.4-17.7 5.9-14.4 31.6-16.1 47.1-14.3-7.1-26-18.9-33.2-32.9-.9-1.9 7.3 14 0 0zM858 196.8c-9.3-12.1-31.9-29.6-17.1-43.4 4.7-4.4 38-29.6 42.4-22.5 5.5 8.8-32.9 22.2-36.4 29.7-3.4 7.3 2.4 10.8 6.7 16 6.2 7.5 11.7 15.7 16.1 24.3-3.9 4.7-9.5-1.2-11.7-4.1-6.9-9 1.4 1.9 0 0zM978.1 185.4c-7.3 7.1-13.2 15.6-17.5 24.8-1.3 2.9-5.5 21.4-12.1 17.7 1.5-15.3 7.5-30.1 16.9-42.3 2.4-3.1 11.3-14.9 16.3-11.3 3.6 2.6-1.5 9.2-3.6 11.1zM871.8 179c-15.2-18.9 4-28 20.1-36.7 3.6-1.9 19-11.8 23.3-9.1 8.6 5.3-12.3 13.7-15 15.1-6.1 3.2-21.4 9.2-23.7 16.5-2.5 8 9.4 17.3 14.2 23.4 2.6 3.3 9.8 12.9-.2 11.7-6.2-.8-15.1-16.4-18.7-20.9-2.6-3.1 4.3 5.4 0 0zM976.2 227c0-5.3 6.7-40.8 17.4-34.4 5.7 3.4-13.4 36.6-17.4 34.4 0-10.7 2.2 1.2 0 0zM93.4 310.5C78.5 263.1 77.2 206.1 97.3 160c8.1-18.6 23.6-40.1 46.6-37.9 23.5 2.3 34.8 31.9 40.1 51.2 12.9 46.8 12.4 100.7-4.2 146.6-6.7 18.6-18.6 40.1-41.6 38.6-25.2-1.7-38.2-26.8-44.8-48m69.4-165c-33.5-46.3-64.9 25-69.7 54.2-7 41.9-5.7 94.7 18.4 131.3 10.8 16.3 28.9 27.1 45.9 12.1 16.9-14.9 22.3-41.6 24.9-62.9 5.4-42.8 7-98.2-19.5-134.7-4-5.6 19.8 27.3 0 0zM105.3 73.1l-.3 7.2c53.4-9.5 100 33.6 112.2 82.7 15.6 62.1 13.3 131.8.5 194.2-4.7 23.1-12.4 49.4-34.4 61.8-22.3 12.5-51 5.8-70.3-9.2-22.3-17.3-34.3-44.5-43.1-70.5-9.8-29-16.3-59.2-19-89.7-2.9-33.8-.9-68.3 7.4-101.3 7.2-27.4 18.4-63.3 47-75.2M133 87.7c-62.9-13.8-72 68.2-75.1 112.2-3.9 54.5 3.8 115 29.6 163.8 20.8 39.3 78.4 83.3 110.7 29.2 14.9-24.9 18.2-57.7 20.3-86.1 2-28.3 1.9-57.1.4-85.5-3.2-56.9-22.8-119.8-85.9-133.6-10.5-2.3 20.1 4.4 0 0zM118.1 198.1c.7-10.5 13.3-11.5 20.6-7.9 9.3 4.5 15.2 15.4 18.2 24.8 5.9 18.6 5.5 44.6-2 62.7-3.4 8.2-10.4 17.5-20.6 15.3-9.9-2.1-14.8-14.7-17.8-23-4-11.3-5.9-23.4-5.3-35.4.5-12.6 6.1-24.2 6.9-36.5m20.8 85c25.4-4.1 15.5-92.2-8.5-86.2-21.7 5.5-14.2 89.8 8.5 86.2 3.1-.5-5.8.9 0 0z"/></svg>