<svg xmlns="http://www.w3.org/2000/svg" viewBox="0 0 1000 776.9" enable-background="new 0 0 1000 776.9"><desc xmlns:shape="http://adobe.com/products/shape"><shape:version>1.0.2</shape:version><shape:captureDetail>0.750000</shape:captureDetail><shape:source>1</shape:source></desc><path fill="#C12C7F" d="M389.7 251.8c5.9-73.5 25.4-145.9 57-212.5 3.5-7.4 14.5-40.2 26.4-36 11.9 4.1 2.5 32.9 1 40.7-6.9 37.3-17.4 73.9-31.3 109.1 10.1-3 14.5-16 19.2-24.2 6.2-10.9 13-21.5 20.3-31.7C496 78 511.6 60.2 528.8 44c6.1-5.7 16.5-18.6 26-18.2 11.3.5 8 11.1 5.2 18.8-9.1 25.2-22.1 49.2-37.5 71 6.1 4.5 30.7-26.3 36-30.6 8.4-6.8 32.8-27.9 44.8-21.6 20.1 10.6-42.2 81-51.8 90.8 9.2.5 16.1-7.9 22.4-13.4 7.1-6.2 14.6-12 22.4-17.3 15.6-10.6 32.6-19.2 50.4-25.6 11.3-4.1 35.9-15.1 40.8 2.8 4.3 15.7-16.8 31.1-26 40.4-29.4 29.7-60.6 57.7-92.4 84.7-14.6 12.4-29.4 24.6-44.3 36.7-8.1 6.6-16.3 13.2-24.4 19.7-7.6 6.1-15.8 15.2-24.5 19.6-1.5.8-5.9 3.9-7.8 2-3-3.2 3.5-6.3 5.7-8.3 7-6.4 14.1-12.7 21.3-19 14.4-12.5 29-24.6 43.7-36.7 29.3-24.1 58.8-48.1 86.3-74.3 12.5-11.9 24.7-24.3 36.1-37.3 5.3-6 15.2-14.3 18.1-21.8 2-5 3.8-5.2-3.1-7.1-4.7-1.3-10 .3-14.5 1.7-34.4 10-66.4 30.5-93.7 53.2-34.6 28.8-63.3 63.9-89.1 100.4-5.2 7.3-11.8 23.1-19.3 27.8-7 4.4-16.6-1.9-23.6-4.4-9.8-3.5-24-11.9-34.5-11.5-11 .4-16.2 11-20 19.8 17.4 4.6 34.9 9.3 52.3 13.9 6.5 1.7 14 5.2 20 .9 4.3-3.1 6.6-15.9 14.4-13.2-2.6 6.9-6.8 13.4-12 18.6 4.9.7 9.5 3.7 12.3 7.8-22.8 2.9-30.7 39.7-38.8 56.5-3.6 7.5-3.5 7.3-9.6 7.4-4.5 0-7.1-1.5-12.3.3-10.6 3.5-18.8 6.7-30.1 3.6-26.3-7.2-26.9-33.4-20.5-55.6 3.9-13.4 9.2-26.5 15.8-38.8 6-11.2 15.6-22.5 16.7-35.9M590 73c-36.1 24.4-68.3 52.5-92.8 88.7-13.6 20.2-25.8 41.4-38.5 62.2-5.2 8.6-37.3 48.7-13.7 49.9 15.4.8 30.1-29.7 38.2-40.1 13.4-17.4 27.2-34.5 40.9-51.7 27.6-34.9 54.7-70.6 75.8-109.9-2.3-3.2-7.6-.7-9.9.9M415.8 260.7c3.8 13.8 16.8-7.4 18.4-10.6 5.7-11.3 11.7-22.4 18.1-33.4 12-20.6 25-40.5 38-60.5 12.9-19.9 25.8-39.9 37.4-60.6 4.5-7.9 33.9-57 26.6-62.4-5.7-4.3-41.6 39.2-46.2 44.6-14.7 17.2-28.3 35.4-40.5 54.5-12.1 19-22.7 39-31.4 59.7-4.6 11-8.8 22.3-12.3 33.8-2.7 8.7-10.6 25.9-8.1 34.9M470 15.8c-7.9-2.8-27.9 48.8-30.6 55.1-8.5 20.8-15.6 42.1-21.5 63.7-5.7 20.9-10.3 42.2-14.2 63.5-1.8 9.9-3.4 19.8-4.9 29.7-1 6.4-6.3 21.9-2 28.2 9.3 13.6 21.5-35.2 23.4-41.1 7.1-22.3 14.1-44.6 20.7-67 4-13.2 39.8-128.2 29.1-132.1m-36.1 328.5c2.7-5.6 15.1-23.2 12.2-29.5-3.3-7-24.3-10-31.7-11.9-8.3-2.2-27.4-10.5-35.2-6.9-7.6 3.5-11.6 20.7-13.7 27.7-5.3 18-10.6 44.1 12.7 50.7 22.9 6.5 46.5-10.7 55.7-30.1 3.7-7.7-2.6 5.6 0 0zM222.1 528.4C412.1 429.5 613.4 349 824 307.2c30-5.9 60.1-11.1 90.4-15.4 14.3-2 28.6-3.9 43-5.5 10.7-1.2 28.3-5.8 36.7 3.9-276.8 26.2-542.9 122.7-785.6 255.9-68.8 37.8-136 78.7-201.5 122 64.1-57.2 139.2-100.2 215.1-139.7 234-121.8-76 39.6 0 0zM720.9 73.3c-4.1-14.7-9.2-21.3-22.6-27.8-3.7-1.8-10.5-3.6-3-7.9 4.7-2.7 12.8 2.6 16.3 5.4 9.6 7.7 13.9 19.8 16.7 31.4.5 2.1 4.3 14 1.2 16.2-4.8 3.4-7.7-14.2-8.6-17.3-1.6-6 1.7 5.8 0 0zM796.5 47.7c-4.3-9.7-11.8-17.9-21-23.2-4.9-2.9-25.1-5.6-22.2-12 3.5-8 26.5 5.6 30.5 8.4 8.7 6.2 15.9 15.5 16.4 26.5-1.2 0-2.4.1-3.7.3-6.9-15.9 1.3-.2 0 0zM800.1 679.1c-2 11.2 1.5 16.7 12.5 17 12.4.4 24.6.5 37 1.8 26.3 2.8 52.3 8.6 77.2 17.5-26.3-3.1-52.6-6.3-78.9-9.4-9.6-1.1-49.4-12.1-52.7 5.3-10.3-9.9-25.4-14-39.4-12.1-7 .9-13.5 6.6-19.7 7.4-5 .7-13.9-6.1-20.4-7.5-6.8-1.5-13.9-1.5-20.7-.1-4 .8-7.9 3.4-11.7 4.1-5.3 1.1-3.8 1-9.5-1.7-11.6-5.4-27.3-2.3-35.2 8-10.8-19-41.1-9.7-39.3 12.1-3.9-21.6-33.8-26.7-44.7-7.6-6.3-5.8-15.3-8.2-23.7-7.1-5.3.7-8.7 3.6-13.4 5.2-5.2 1.7-4.9.6-10.8-1.2-16.2-4.9-35.8 1.9-44.4 16.8-5.8-22.2-40.6-11.3-32.7 10.2-2.1-19-28.7-23.8-37.3-6.6-5.7-5-13.7-6.6-21-5.4-4 .7-7.8 2.1-11.1 4.5-.9.7-1.8 1.5-2.6 2.2-1.3 3.2-2.8 3.4-4.5.7-6-.3-9.8-3.9-16.6-1.4-6.3 2.3-11.8 7.6-12.4 14.6-4.2-7.8-14.1-11.4-22.6-9.8-2.9.6-10.2 2.8-11.2 6.2 1.7 2.2 2.6 4.7 2.7 7.4 0 2.8-.8 5.3-2.5 7.5.3-8.6-8.4-14.9-16.3-15.2-3-.1-8.8.4-10.5 3.5-2.1 3.7 3.7 9.8-.5 15.7-1.3-14.1-24.2-19.1-31.2-6.8-2.4-6-4.7-12-7.1-18.1-2.8-7.1-3.1-11.2-11.2-6.6-8 4.5-12.7 15.2-9.3 24-4.8-13.9-9.8-27.8-14.8-41.6-2.5-6.7-4.4-14.3-7.7-20.7-3-5.8-5.2-6.3-7.9.9-3.5 9.5 3.7 24.9 6 34.1l10.8 44.4-27.3-73.5c-20 15-40.6 29.2-61.8 42.5 17.3-24.6 49.9-42 74.2-58.9 26.6-18.6 53.8-36.6 81.3-53.8 53.7-33.7 108.9-64.9 165.4-93.5C537 476.2 657 429 780.4 393.5c34.4-9.9 69-18.9 103.8-26.9 10.5-2.4 90.8-26.3 90.2-7.5-40.2 5.3-80.3 12.4-119.9 21.3-20.7 4.7-41.2 9.8-61.6 15.4-14.8 4.1-39.2 6.7-50.8 17.6-5.7 5.4-7.4 13-9.6 20.3-2.8 9.1-8.2 19.8-9 29.3-.5 5.7-1.9 5.4 5.1 7 3.3.8 6.8 1.1 10.2 1.1 6.3-.1 12.6-1.5 18.4-4 12.1-5.2 22.4-15 26.6-27.6 3.7-11 1.9-30.8 15.6-35.2-5.4 19.6-11.6 38.9-18.7 57.9l40.8-2.7c11.2-.7 21.8.2 29.8-9 13.2-15.3 8.5-42.2 26.7-53.6-4.5 19.4-11.3 38.3-20.3 56.1 18.1 4.1 43.7 8.6 55.4-10.6 4.7-7.7 4.4-18 7.4-26.5 3.5-10 8.9-19.3 15.9-27.2-5.6 21.1-12.6 41.9-20.8 62.1 14.3 2.2 28.6 4.3 42.9 6.5-13.7 1.8-43.8-.4-51 13.6-4.1 8.1-4.9 19.2-6.9 27.9-2.7 11.6-5.4 23.1-8.1 34.7-10.2 43.6-20.3 87.2-30.5 130.8 2.6-17.5 5.2-34.9 7.8-52.4 1.3-8.7 2.7-17.4 3.9-26.2 1.1-8.3 2.2-11.9-6.3-13.8-7.6-1.7-17.1-.3-24.9-.5-5.2-.1-12.8-1.7-17.5 1-5.9 3.3-6 11.6-7.3 17.6-2 9.9-4.1 19.7-6.1 29.6 10.1 1.6 20.2 3.3 30.3 4.9-5.3 9.9-20.9.7-28.9 5.5-5.9 3.6-6.2 11-7.3 17.1-1.9 10.6-3.7 21.3-5.6 32M413 554.1c-.6 10 .5 20.2 3.3 29.9 7.7-2.4 24.4-4.1 29.8-11.3 4.9-6.7.5-19.4 3.7-27.8 12.1 3.2-5 24.2 10.3 26.2 6.3.8 17.5-4.8 23.6-6.6 6.5-1.9 16.9-2.4 20-8.6 3.4-6.9 1.1-21.6 1.4-29.3.2-4.5 3.1-18.1-.6-21.6-6.6-6.3-40.2 16.6-47.4 20.3-16.9 8.7-33.9 17.4-50.8 26.2-13.7 7-29.1 10.5-28.9 28.2.1 5.5.2 12.8 6.2 14.5 4.1 1.2 18.6-4.7 21.4-7.8 6.8-7.4-4.9-29.8 8-32.3m380.3 75c-10.9.2-21.8.2-32.6.5-12.4.4-14.5 2.2-16.2 14.4-1.5 10.9-2.9 22-4.1 33-1.2 11.7-1 14.6 11.7 15.2 10.1.5 22.2 2.7 32.2 1.4 9.5-1.2 8.8-6.4 10.4-15.1 2.1-10.6 16.7-49.7-1.4-49.4M844.9 473c4.7-14.9-37.9-5.4-45.7-4.8-7.4.6-17-.4-22 6-5.3 6.8-6.4 21.1-8.6 29.1-3.6 13.1-1.5 13.2 11.6 12.5 11.1-.6 22.2-1.1 33.3-1.7 9-.4 16.4.7 20.9-7.9 5.1-9.6 7.2-22.9 10.5-33.2M696 692.5c9.7-1 19.6.7 29.1-.4 10.6-1.2 9.7-9.3 10.7-18.3 1.2-10.5 3.2-21.2 3.5-31.7.3-10.8-5-11.7-14.8-11.4-8.2.2-20.6-1.3-28.4 1.4-8.1 2.8-7.9 10-8.8 17.5-1.3 12-11.7 45.1 8.7 42.9m52.6-73.1c3.7 5.9 19.3 2.6 24.7 2.5 7.9-.1 21.6 2.7 28.6-1 7.5-4 17-42 11.2-48.1-3.9-4.1-22.4-1-27.5-.9-7.2.1-20.3-2.4-27 1.1-6.6 3.3-6.3 11.2-7.2 17.7-.8 6-6.2 23.1-2.8 28.7M547.3 518c-2.7 1-14.9 7.7-16.8 2 7.9-6.4 22.4-5.1 28.7-12.9 2.7-3.4 7.3-23.6 5.3-27.2-4-7-26.9 7.2-32.1 9.6-11 4.9-17.9 8.1-19.5 21-1.3 11-3.5 26.8-1.7 37.7 2 11.8 9.5 7.1 19.2 4.7 10.1-2.5 23.3-2.4 26.7-13.8 2.8-9.1 4.3-26.6-9.8-21.1m213.8 16.2c-1.1 6-7.7 22.9-4.7 28.1 3 5.1 14.7 2.5 19.4 2.4 14.9-.4 40 4.9 45.8-12 2.1-6.2 8.5-20.7 7.2-27.2-1.6-8-12.3-4.8-18.8-4.4-14.1.7-45.6-4.6-48.9 13.1m87.1-20.9c14.6-1.9 38.8 7.3 45.9-9.1 3.2-7.4 4.6-16.2 6.7-23.9 2.1-7.5 7.5-16.3-2.3-18.4-8.6-1.8-20.3.8-29.1 1.1-9.4.4-14.1-.3-18.1 8.7-4 9.1-6.3 19.7-9.2 29.2-1.9 6.8-4.1 13.8 6.1 12.4m-146.9 111c13.1-.7 37.5 3.7 41.7-11.6 2.3-8.2 3-17.9 3.8-26.4.8-8.3.8-12.3-8.3-12.9-11.3-.8-36.6-1.5-41.2 11.3-2.8 7.8-2 17.4-4 25.5-.5 1.8-4.1 11.1-3.7 12 1.4 2.8 9.5 2.2 11.7 2.1M826.7 555c-3.6 13.6 30.8 9.2 39.5 9.7 9.1.6 11.6-.9 14.5-9.8 2.7-8.5 5.7-18.4 6.9-27.3 1-7.1.9-8.3-6.5-8.8-9.1-.6-18.7.5-27.9.8-7.8.2-14.1-1.1-18.6 5.9-4.6 7.5-5.6 21.1-7.9 29.5M723 416.7c-10.2 3.4-20.7 6.4-30.7 10.3-8.6 3.4-9.3 6.2-11.5 15.1-2.1 8.4-8.6 23.4-7.5 32 1.1 9.1 7.2 5 14.6 3.5 6.6-1.3 15-.3 21.2-2.9 8.2-3.4 8.3-11.8 10.2-19.4 2.3-9.5 5.3-18.8 8.6-28 2-5.5 5.1-14-4.9-10.6M600.4 692.9c4.5 4.3 19.6 1.3 25.2.8 7.2-.6 10.3-1.2 13.4-8.2 3.1-7.1 2.1-18 2.8-25.5.4-4.7 3.9-17.4-.4-21.5-5.3-5-35.7-.3-40 5.2-3.8 4.9-2 16.5-2.1 22.3-.3 6.1-3.7 22.4 1.1 26.9m67.2-218.7c2-9.5 4.1-19.1 6.1-28.6 2.3-10.9 1.8-13-9.1-9.2-14.1 5-38.1 8.9-42.4 25.1-1.8 6.8-3 14.7-3.7 21.7-.8 9-.7 10 9.1 7.9 11.2-2.4 37.1-3.5 40-16.9m48.6 16.5c-1.5 6.1-8.2 21.2-6.3 27.1 2.3 7 12.8 2.9 19.4 2.2 7.1-.7 15.7-.3 22.6-2.4 8.3-2.5 8.9-8.7 11.1-16.3 1.8-6.5 6.8-16.4 6.3-23.1-.7-9-9.3-5.3-16.2-4.3-14.1 2-33 .2-36.9 16.8M600.4 629.9c1.8 5.7 36.1 1.9 40.5-1.1 7.7-5.3 10.2-31.1 8.4-39.5-1.5-6.9-5.2-6.4-11.4-5.8-8 .8-19.9 1.1-27.4 4.3-7.4 3.2-7.4 7.7-8.1 15.4-.8 7.3-4.2 19.8-2 26.7m-130.2 76.5c8.2-1.1 16.4-2.1 24.7-3.2 8.2-1.1 11.8 0 13.1-8.5 1.4-9.4 1.2-36.5-11-38-7.3-.9-17.6 3.5-24.8 5.1-6.1 1.3-11.1 1.6-12.9 8.1-1.9 7 .6 37.8 10.9 36.5m229.9-140.2c5.2 6.2 35.6 1.4 42.3-.5 8.4-2.4 9-7.6 10.5-15.4.9-4.9 5.1-15.9 3.6-20.8-2.9-9.6-29.9-2.7-37.7-1.6-8.6 1.3-10.1 3-12.5 11.2-2.7 8.8-4.2 18.2-6.2 27.1m-51.5 127.2c6.1-.4 18.9.9 24.3-1.8 6.5-3.3 5.5-11.7 6.3-18.2 1.1-8.8 2.2-17.6 3.2-26.4.9-8.5 1.9-13.1-7.6-13.6-14-.7-24.7.7-26.8 15.2-.9 6.1-7.8 45.4.6 44.8m-83.5-47.3c-14.9 2.4-9.8 25.3-9.5 36.2.2 7.5-1.4 12.2 5.9 14.5 5.4 1.7 17 .3 22.6-1 14.9-3.4 9.4-24.3 9.5-36.5 0-6.7 1.8-13.6-5.5-16-5.8-2-17.3 1.9-23 2.8m-109.5-26c-2.2 5 1.1 16.4 1.6 21.6.7 7.3-.5 12.8 7.8 13.8 6.2.7 15.9-3.1 22.2-4.3 6.5-1.3 14.1-1 16.8-7.6 2.8-6.6 2.4-33.1-5.1-35.2-4.3-1.3-41.5 7.6-43.3 11.7m197.9-56.2c2-13.9 7.1-28.8-11.8-25.9-12.2 1.9-29.7.7-33.8 14.1-1.8 5.8-3.6 15.3-3.1 21.4.7 8.3 3.8 7.3 11.5 6.2 12-1.7 34.9-.5 37.2-15.8m-42.9-33.2c-1.7 9.4 32 .7 36.8-.4 13.5-3.2 16.5-19.2 16.3-32.2-.1-7.6-2.4-7.2-9.7-5.9-7.1 1.3-14.2 3.1-21.3 4.7-6.2 1.4-13.2 1.7-16.8 7.4-4 6.3-4 19.3-5.3 26.4M538 650.1c-11.8 2.1-26.4.8-26 15.3.2 10.2-2.3 33.5 10.5 35.2 5.1.7 16.1 0 20.9-1.9 7.5-3 6.1-8.6 6.1-16-.2-10.7 5.2-35.6-11.5-32.6m26.3-11c12.7-1.9 29.1 0 30.8-15.5 1.2-10.3 7.1-33.1-7.3-32.7-9.3.3-27.9 2.1-30.6 12.2-2.1 8.2-6.2 38 7.1 36m93.6-11.4c6.4-.1 15.3.4 21.3-1.9 8.5-3.3 8-11.4 9.3-19.4 1.9-11.5 8.7-28.9-8-28-13.9.8-23.9.9-26.1 15.8-1.2 8.2-10.3 33.7 3.5 33.5m-123.6-25.6c-13.4 4.1-23.7-.8-24 17.1-.1 6.3-1.6 15.9.6 21.8 2.7 7.2 7.6 5.4 14.4 4.2 16.6-2.9 24.2-2.4 25.2-20.7.3-5.2 3.3-19.4-.8-23.7-4.3-4.6-10.9-.1-15.4 1.3m137-75.1c10.3-1.4 27.6.1 33.2-10.5 2.9-5.5 2.5-13.6 4.1-19.5 1.6-6.1 6.1-12.5-1.9-15-5.4-1.7-15.9 2.5-21.1 3.6-5.8 1.2-12.2 1.5-15.3 7.1-2.9 5.2-2.6 13.7-3.4 19.5-1.1 5.5-5.1 16.1 4.4 14.8M616 462.9c2.4-14.6-23 1-28.6 3.5-5 2.2-11.6 3.7-14.7 8.4-3.2 5-3.3 14.9-4.3 20.6-1.1 6.5-2.8 9.1 4 9.8 6.8.7 19.4-5.2 25.9-7 8.8-2.5 11.9-3 13.9-12 1.7-7.6 2.5-15.6 3.8-23.3M504.4 589.7c-.1-4.5 2.1-17.9-2.4-21.2-4.1-3-14.7 2.2-18.4 3.3-10.3 3-30.5 4.3-29.9 17.3.2 3.9-.3 11.4 1.1 15 2.6 6.9 7.4 5 13.7 3.6 11-2.3 36.2-3.2 35.9-18m153.1-18.5c7.6 4.5 31.8 1.2 36.9-5.4 3.8-4.9 9.4-29.7 4.1-34.1-4.9-4.1-25.8.3-30.9 3.1-9.9 5.7-8.6 26.2-10.1 36.4M553.2 580c1.4-14.2 5.8-26.4-12.4-22.3-12.5 2.8-29.1 2.4-30 17.7-.3 4.4-1.7 13.5.2 17.5 2.8 6.1 7.3 3.8 13.2 2.6 10.5-2.2 27.6-1.8 29-15.5m41.6-33.7c-11.4 2.2-30.1 1.6-33.7 14.6-2.5 9-6.9 27 5.3 26.8 7.3-.1 27.8-2.8 32.1-9.4 3.3-5.1 7.4-34.2-3.7-32m-31.8-3c2.7 3.9 32-2.7 36.1-5.3 5.3-3.3 13.4-26.1 8.5-32.1-4.4-5.3-29 2.8-34.9 5.7-5.4 2.6-6.3 5-7.5 10.7-.9 3.7-4.7 17.5-2.2 21M438.3 668c-3.9 1-11.5 1.4-14.4 4.6-4.1 4.5-1.5 12.7-.6 18 .7 4.6.3 12.7 3.1 16.7 3.7 5.3 10.7 2.7 16.5 2 4.7-.6 12.6-.4 14.8-5.6 1.9-4.4-2.8-13.2-3.3-17.9-1.4-11.8-.9-21.6-16.1-17.8m-10.8-5.5c12.7-1.9 24.2-2.2 23.8-16.9-.3-10 1.4-24-10.8-23.2-9.2.7-21.8 5-23.2 14.2-1.1 7.6-.5 27.5 10.2 25.9m-63.8 57.9c4.8-.7 16.1-1.1 19.9-4.2 4.4-3.6 3.1-3.6 2.3-9.7-1-8-2.2-22.7-11-24.5-8-1.6-24 6.2-24.5 13.9-.5 8.2 2.9 26.1 13.3 24.5m35.3-5c4.2-.7 16.7-.9 19.5-4.6 3.2-4.2.2-12.1-.5-16.6-1.7-10.6.2-21.7-12.6-19.5-3.8.7-11.7 2.1-14.8 4.3-4.8 3.5-3.9 3.3-2.8 9.8 1.1 6.3 1.5 28.1 11.2 26.6m-202.2 1.8c2.7 9 18.1 12.6 22.4 1.9 1.6-3.9-3.5-14.2-4.6-18.2-1.8-6.4-2.8-14.8-5.9-20.7-4.4-8.5-13.2-8.5-19 .6-5.5 8.9 4.3 27.1 7.1 36.4m87.3-52.2c6.8-2.8 16.5-4.5 18.5-12.2 1.4-5.3-2.6-14.7-8.2-15.8-4.4-.8-11.4 8-15.4 2.4-5.1-7.1 12.3-9.3 14.9-11.6 4.3-3.6 6.4-10.6-.9-11.6-4.9-.7-16.7 8.5-20 11.7-7.9 7.5-3.1 16.8-.7 26.3 1.8 6.9 2.8 14.6 11.8 10.8m93.2-14c-1.7-14-19-4.6-27-1.4-12.1 4.9-5.2 9.5-3.6 19.6 1.9 11.7 6.4 12.2 17.4 8.6 4.2-1.4 12.7-2.5 15-6.4 2.2-3.8-1.3-16.1-1.8-20.4m36.8-43.7c.7 14.9 10.1 12.2 21.5 8.9 11.6-3.4 13.4-5.6 12.7-17.6-.6-11.4-1-16.2-13.3-12.9-13.2 3.6-21.6 6.6-20.9 21.6m-19 62.8c4.3-1.1 14.6-2.4 17.4-6.3 2.5-3.4.4-10.2 0-14-.8-8.1.3-16.8-9.9-16.8-10.7 0-19.2 5.3-19.2 15.2.2 8.3-.7 25.1 11.7 21.9M375.2 628c-1-9.5.7-21.9-12.1-18.6-7.2 1.8-22.4 6.3-24.3 13.7-2.1 8 2.1 19 10.5 19 6.6-.1 26.7-6.2 25.9-14.1m-129.6 49.3c4.1 3.7 21.1-3.4 23.1-8.4 1.4-3.5-3.6-27.6-6.5-30.2-5.1-4.5-16.5 3.9-20.1 8.3-5.2 6.2-2.4 24.9 3.5 30.3m93.7-88.2c-4.4 4.6-6.8 19.3 1.9 21.2 4.6 1 26.2-8.8 29.1-11.9 3.1-3.3 3.8-20.8-.6-24.5-4.8-4-26.6 11.1-30.4 15.2m7.9 132.1c5.7-2.2.3-19.6-2-24.1-4.3-8.3-18.5-4.7-25 .7-5.5 4.6-3.4 18.2 1.3 24.2 5.6 7.4 17.9 2.2 25.7-.8m-36.9-53.1c2.2 10.5.7 21.9 13.7 20.1 4.1-.6 12.9-2.7 16-5.7 3.7-3.6 2-3.4 1.8-7.7-.2-5.8-1.8-16.5-7.8-18.8-5.1-1.9-25.1 5.9-23.7 12.1m69.6-57.7c1.1 11.3-1 20.7 12.2 18.2 8.7-1.6 17.9-3.6 17.7-13.7-.1-6.4.3-17.1-7.1-19-6.3-1.5-23.5 7.3-22.8 14.5m-93.7 97.5c-6.1 2.4-2 13.8.8 18.8 4.4 7.9 17 4.7 24.1 1.4 4.4-2.1 4.2-.8 5.2-5.3.7-2.9-3.4-12.2-4.5-14.6-5.6-11.8-15.8-4.1-25.6-.3m-9.4-25.3c7.6 5.5-.9 14.5 10.9 15.5 10 .8 21.2-4.8 20.3-14.7-1-10.3-4-17.9-14-14.3-2.6.9-24.6 8.1-17.2 13.5m30.3-35.4c2.2 9.8 10.8 6 17.5 3.2 10-4.2 13.5-7.8 9.2-19.6-3.8-10.6-8.4-7.5-17.1-3.6-9.8 4.4-12.1 8.8-9.6 20m-94.6 25.1c1.7 6.4 2.3 16.5 10.1 17.4 8.3 1 16.1-7.1 15.7-13.6-.3-5.7-3.3-18.9-9.1-20.3-6.2-1.5-18.3 10.4-16.7 16.5m36.5 24c6.6 6.7-.3 13.8 12.7 11 2-.4 10.5-2.9 12.3-4.7 3.7-3.7 1.5-3.1 1.2-7.2-.6-7.9-3.3-15.7-11.7-14.6-4.6.5-21.1 8.9-14.5 15.5m5.6 27.4c5.1 11.2 7 14.5 19.9 10.9 9.3-2.6 9-3.9 5.9-12.7-2.5-7.2-2.8-11.1-10.6-10.4-4.5.6-18 6.2-15.2 12.2m-14.8-30.5c-12.9-5.7-28 19.2-10.5 23.3 4.4 1 14.3-1.8 16.6-6 1.8-3.1-2.4-15.6-6.1-17.3m89.4-79.7c4.6-2 1.6-15.3-2.8-16.6-3.9-1.2-13.2 6.3-15.7 8.3-3.7 2.9-12.2 10.9-5.1 15.7 5.2 3.5 18.5-5.1 23.6-7.4M227.8 731.2c6.9 5.8 2.9 10.7 14.7 9.1 9.7-1.3 12.3-1.5 9.7-9.8-1.9-6.1-4.1-9.8-11.2-9.4-2.3.2-17.7 6.4-13.2 10.1z"/></svg>