<svg xmlns="http://www.w3.org/2000/svg" viewBox="0 0 1000 750" enable-background="new 0 0 1000 750"><g fill="#2BC22B"><path d="M787.5 505.4c-42.2 54.9-123.8 72-187.7 45.2S492 459 482.8 390.4c-3.2-24.3-2.6-49.1 2-73.1 3.1-16.4 8-32.5 14.1-48 16.4-42.1 42.6-82.1 81.6-104.8 18.3-10.7 38.7-17.2 59.4-21.7 17.3-3.7 35.1-6.1 52.8-4.6 55.1 4.7 101.7 47.8 122.8 98.8 21.1 51.1 20.3 108.7 11.4 163.2-6.1 37.4-16.4 75.2-39.4 105.2M506.3 282c-23.6 67.5-15 147.5 29.7 203.3 44.7 55.8 126.8 81.4 192.5 53.2 27.6-11.9 49-35.6 62.6-62.5 13.6-26.8 20.1-56.7 24.2-86.5 5.6-40 7.2-81.3-2.6-120.5s-32-76.5-66-98.2c-42.8-27.3-100.3-26.5-145.5-3.3-45.2 23.3-78.1 66.6-94.9 114.5zM400 140.5c10.3 2.1 13 15.4 13.4 25.9 4.4 102.3 12.7 204.4 24.8 306 .6 4.9 1.5 10.3 5.3 13.3 10.7 8.3 29.3-10.8 38.4-.7 2.6 2.8 3 6.9 3.3 10.7.9 11.7 1.9 23.3 2.8 35 .2 3 .4 6.4-1.4 8.8-1.6 2.1-4.3 3-6.8 3.8-33.6 10.3-67.2 20.5-100.9 30.8-15.5-9.4-6.9-34.9-17-49.9-3.8-5.7 3-13 9.7-14.7 6.7-1.7 14.5-1.4 19.3-6.3 5-5 4.4-13.1 3.5-20.2-10.8-83.7-21.5-167.5-32.3-251.2-2.9-1.3-6 1.9-6.5 5s.5 6.3.4 9.5c-.3 7.5-7.3 13.4-14.7 15-7.4 1.6-15 0-22.4-1.7-2.3-.5-4.7-1.1-6.3-2.8-2.7-2.9-1.7-7.6-.6-11.4 7.2-23.7 14.5-47.3 22-70.8 1.7-5.5 3.6-11.2 7.8-15.2 3.8-3.6 9-5.3 14-6.9 10.9-3.4 21.7-6.9 32.6-10.3 3.7-1.2 7.7-2.5 11.6-1.7m2.7 36.8c-.3-8.2-.9-17.2-6.8-22.9-21.8 3.4-47.8 10.3-54.3 31.4-4.9 16.1-9.8 32.1-14.7 48.2-1.3 4.1-2.4 9.1.4 12.4 5.3 6.3 15.1-1.7 18.2-9.4 5.7-14.2 8.5-31.6 21.7-39.3 6.4 11.4 7.5 24.9 8.5 38 6.9 86.9 17.7 173.5 32.5 259.4 1 5.5 1.8 11.8-1.7 16.3-5.6 7.2-17.7 4.4-24.9 9.9-8.5 6.5-5.6 19.7-1.9 29.7.8 2.3 1.9 4.8 4 6 2.5 1.4 5.6.6 8.3-.3 23.2-7.3 46.4-14.5 69.6-21.8 4.3-1.4 9-3 11.5-6.7 2.3-3.4 2.3-7.8 2.2-11.8-.1-5.9-.4-12.2-4-16.8-3.6-4.7-11.8-6-15-1.2-4.5 6.7-15.6 5.3-21-.8-5.3-6.1-6.5-14.7-7.4-22.7-10.6-98.9-21.6-198.1-25.2-297.6zM768.1 684.1c5.4 5.7 11.6 11.5 19.5 12.5 11.2 1.5 21.6-7.4 33-7.1-1.2 9.4-10.4 15.9-19.6 18-19.7 4.7-42-7.1-49.3-26-1.7-4.3-7.3-5.4-11.9-5.2-6.4.3-13.1 1.9-17.8 6.3-4.7 4.4-6.8 12-3.5 17.5 2 3.2-1.4 7.8-5.2 7.8s-7-3.2-8.2-6.8-.8-7.5-.4-11.3c2.1-20.2 4.3-40.4 6.4-60.6 1.1-10.6 6.8-20.1 12.9-28.9 4.7-6.8 9.9-13.5 16.6-18.3 6.8-4.8 15.4-7.5 23.4-5.6 14.2 3.4 21.7 20.1 20.1 34.6-1.6 14.5-10 27.2-17.9 39.5-3.9 6.1-7.9 12.9-6.7 20 1.1 5.4 4.9 9.7 8.6 13.6m-38-60.7c-.8 3.1-1.4 6.5.2 9.2 1.3 2.1 3.7 3.3 5.9 4.4 4.1 2 8.2 3.9 12.3 5.9 1.6.7 3.2 1.5 4.9 1.4 3.4-.3 5.5-3.8 7-6.9 2.2-4.6 4.4-9.3 6.7-13.9 2.4-5 4.8-10.1 5.5-15.6.6-5.5-.8-11.6-5-15.2-5.1-4.3-13-3.9-18.7-.5-5.7 3.4-9.6 9.2-12.6 15.1-2.6 5.1-4.7 10.5-6.2 16.1m-6.9 34.2c-1.1 1.6-2.1 3.4-1.9 5.3.4 2.8 3.2 4.5 5.8 5.8 4.1-2.1 8.1-4.3 12.2-6.4 4.6-2.4 2-10.5-3.1-11.5-5.1-1.2-10 2.5-13 6.8zM155.9 416.6l18.9-5.7c10.8-3.3 24.3-11.5 20.4-22.1-2.8-7.6-13.3-9.3-21-6.7s-14.4 7.9-22.2 10c-7.9 2.1-18.3-1.2-19.6-9.2 14-4.4 28-8.8 41.9-13.2 4.1-1.3 8.5-2.8 11-6.2 3-4.1 2.5-9.8 1.9-14.8-2.4-19.5-4.9-39-7.3-58.6-2-16.2-4-32.6-1.9-48.7 2.1-16.2 8.8-32.3 21.4-42.6 12.6-10.3 31.9-13.2 45.5-4.3 13.6 9 17.8 30.7 6.3 42.3-1.8-12.4-4.7-26.2-15.3-32.8-12.8-7.9-30.7-.2-38.6 12.5-8 12.7-8.6 28.7-8.3 43.7.5 29.4 3.3 58.7 8.4 87.6.7 4.1 1.9 8.8 5.6 10.7 3.1 1.6 6.8.7 10.1-.3 16.3-4.7 32.5-9.4 48.8-14.1 5.2-1.2 8.3 7 5.1 11.3-3.2 4.3-9.1 5.4-14.4 6.3-13.6 2.3-26.9 5.9-39.8 10.7-3.8 1.4-7.8 3.1-9.8 6.6-5.1 8.7 6.9 18.7 16.9 17.6 10-1.1 18.7-7.8 28.6-9.7 5.6-1.1 13.5 1.7 12.7 7.3-.6 4-5.1 5.9-8.9 7l-36 11.1c-9.1 2.8-7.8 15.9-5.2 25 9.5 32.7 12.5 67.3 8.7 101.2-.4 3.6 1.9 6.8 4.4 9.4 14.1 15.3 35.7 23.3 56.4 20.8 20.6-2.5 39.7-15.5 49.7-33.8 6.6 3.9 3.8 14.1-.8 20.2-20 26.8-61 35.2-89.9 18.3-5-2.9-9.7-6.5-15.4-7.8-5.6-1.3-12.6.6-14.7 6-7.7 19.2-25.6 38.3-45.9 34-24.8-5.2-39.2-37.7-26.4-59.6 12.8-21.9 48.2-25.2 64.9-6.2 11.8-6.1 11.5-22.7 9.7-35.8-3.1-21.4-6.1-42.9-9.2-64.3-1.1-7.5-3.2-16.4-10.4-18.9-5.7-2-11.8 1.2-17 4.4-5.2 3.2-11.1 6.5-17 4.8-5.8-1.7-8.1-11.6-2.3-13.4M160 589c4.9 4.4 12.1 9 17.4 5.1 9.8-7.1 18-16.4 23.9-27 2-3.6 3.7-7.9 2.2-11.8-1.5-3.8-5.5-5.8-9.3-7.4-8.7-3.8-17.7-7.7-27.1-7.8-9.5-.1-19.7 4.5-23.2 13.3-2.6 6.5-1.1 14 2.4 20s8.6 10.9 13.7 15.6zM577 686.2c4 8-4 18.2-13 18.4-8.9.2-16.7-6.8-20.2-15.1-3.5-8.2-3.5-17.4-3.5-26.4 0-7.2 0-14.5.1-21.7 0-4.4-.9-10.1-5.2-11-3-.6-5.8 1.6-8 3.7-20.5 20.2-31.8 49.3-30.4 78.1.2 4.4-6.7 5.9-9.9 2.9-3.2-3-3.5-7.9-3.6-12.3-.4-38.9 2.7-77.7 5.8-116.4.3-3.6 1.3-8.1 4.8-8.9 5.1-1.1 7.2 6.2 6.9 11.4-1 18.8-2.6 37.5-4.9 56.1 2.3 3 6.9-.2 9-3.3 5.1-7.6 9.6-15.9 16.9-21.5s18.5-7.4 25.2-1.1c6.1 5.7 6 15.3 5.7 23.7-.3 9.4-.2 18.8.2 28.2.3 5.8.9 12 4.9 16.2 5.2 5.2 14.8 4.6 19.2-1zM286.7 689.3c6.6-3.2 15.3-4.7 18.2-11.5 1.5-3.5 1.1-7.5.5-11.3-.9-6.6-1.8-13.3-2.8-19.9-.4-3.1-1-6.5-3.2-8.8-2.8-2.8-7.4-3-11-1.4-3.6 1.6-6.3 4.7-8.7 7.9-4.7 6.3-8.5 13.4-11.2 20.9-1.4 3.8-7.7 2.5-9.2-1.2s.1-7.8 1.7-11.5c4.3-9.6 9.2-19.6 17.7-25.7 8.5-6.2 21.9-7 28.8 1 2.7 3.1 4 7.1 5 11 3.8 15.4 2.4 31.5 3.9 47.2 1.5 15.7 6.9 32.5 20.1 41.2 1.6 1 3.3 2 5.2 1.9 4.7-.1 9.9-6 13.1-2.4.2 9.9-10.9 18.3-20.3 15.1-4.7-1.6-8.3-5.4-12.5-8.1-4.2-2.6-10.2-3.9-13.9-.5-10.4 9.8-29.7 4.8-35.7-8.1-5.8-12.9 1.5-29.7 14.3-35.8m1.4 34.1c6.3 3.6 15.2 1.8 19.6-4 4.4-5.8 3.6-14.9-1.7-19.9-3.1-2.9-8.1-2.5-11.7-.3-3.6 2.2-6 5.9-8.3 9.4-1.6 2.4-3.2 5-3 7.9.3 2.9 2.5 5.4 5.1 6.9zM682 621.9c-.5-3.9 5.5-5.9 8.6-3.6 3.2 2.4 3.9 6.8 4.1 10.7 1 17-3.2 34-9.9 49.7-2.9 6.8-6.5 13.6-12.2 18.3-5.7 4.7-14.1 6.9-20.7 3.6-8.7-4.3-11.1-15.6-11.5-25.4-.6-15.4 1-30.9 4.8-45.8.8-3 2-6.4 5-7.3 3.3-1 6.6 2.1 7.3 5.5.7 3.4-.5 6.8-1.4 10.1-3.7 12.6-5.2 25.8-4.2 38.9.3 3.6 1 7.6 3.9 9.6 2.7 1.8 6.5 1.3 9.2-.6s4.5-4.7 6.1-7.6c9.4-16.9 13.2-36.8 10.9-56.1zM414.5 713.2c-7.1.8-13.7-4.4-16.8-10.8s-3.5-13.7-3.8-20.8c-.5-11.1-.9-22.3-1.4-33.4-.2-4.9-2.5-11.6-7.3-10.6-1.6.3-2.9 1.6-4 2.7-16.9 17.9-25.4 43.3-22.7 67.8.5 4.1-5.8 6-9.1 3.4-3.2-2.5-4-7.1-4.5-11.1-1.9-15.9-3.9-31.7-5.8-47.6-.4-3.5-.8-7.3.9-10.4 1.7-3.1 6.5-4.6 8.8-2 3.2 3.6-.5 11.1 3.9 13.2 3.4 1.6 6.5-2.7 8.1-6.2 3-6.4 7.2-12.2 12.2-17 6.5-6.2 17-10.8 24.2-5.4 5.4 4.1 6.2 11.7 6.5 18.5.6 13.4 1.3 26.8 1.9 40.1.3 5.7 1.7 12.8 7.2 14.1 7.6 1.8 13.4-9.8 21-8.4 3.4 5-1.3 11.3-5.7 15.5-3.7 3.8-8.2 7.8-13.6 8.4zM618.3 629.7c7.8 8 11.6 19.5 11.1 30.7s-5.2 22-12.3 30.6c-3.2 3.9-7.1 7.5-12 8.6-7.8 1.8-15.9-3.7-19.4-10.9-3.5-7.2-3.3-15.6-2.2-23.5 2-14 7.1-28.2 17.8-37.5 1.4-1.2 2.9-2.4 4.7-2.9 4.4-1.3 9 1.5 12.3 4.9m-18.8 21.6c-2.6 7.1-4.2 14.6-4.5 22.2-.1 2.7-.1 5.5 1.2 8 1.2 2.4 3.9 4.3 6.6 3.8 1.7-.4 3.1-1.6 4.3-2.9 6-6.4 9.8-14.9 10.6-23.7.4-3.9.1-7.9-1.9-11.2-2-3.3-6.3-5.4-9.9-4.1-3.4 1-5.1 4.6-6.4 7.9zM895.2 219.2c-.6-3.5 2.2-6.5 4.7-9 10.4-9.8 21-19.8 33.4-26.9s27.1-11.3 41.2-8.7c4 .8 8.6 2.7 9.5 6.7.7 3.4-1.7 6.9-4.8 8.5-3.1 1.6-6.7 1.9-10.2 2.4-20.1 2.5-39.4 11.4-54.5 25-3 2.7-5.9 5.6-9.8 6.7-3.8 1.1-8.7-.8-9.5-4.7zM890.9 43.1c4 0 6.3 5.1 5.2 8.9-1.2 3.8-4.5 6.5-7.6 9-15.7 13-29.5 28.2-40.8 45.2-2.1 3.1-4.2 6.4-7.6 8-3.4 1.5-8.3.2-9.1-3.5-.5-2.5 1-4.8 2.5-6.9 15-21 32.3-40.3 51.5-57.6 1.7-1.5 3.6-3.1 5.9-3.1zM909.9 370.1c.9-3.6 5.1-5.1 8.7-5.9 19.7-4.4 39.9-6.9 60.1-7.4 5-.1 10.6.1 14 3.7 3.4 3.6 1.6 11.4-3.4 11.1-21.2-1.7-42.6.1-63.3 5.3-3.5.9-7.1 1.8-10.5 1-3.3-.9-6.4-4.3-5.6-7.8zM183.8 141.2c-15.3-22.1-29.8-44.7-43.3-67.9-2.3-4-4-10.4.3-12.1 3.5-1.5 6.9 2.2 8.9 5.5 13 20.6 26 41.2 39 61.7 1.9 3 3.9 6.5 3.2 10-.8 3.4-6 5.7-8.1 2.8zM962.1 501.3c4.8 1 10.1 2.2 13.2 6.1 3.1 3.8 2.1 11-2.7 12-20.6-10.7-45.3-9.9-67.3-17.4-3.7-1.3-8-4-7.3-7.8.8-4.5 7.1-4.7 11.6-3.8 17.5 3.7 35 7.3 52.5 10.9zM31.3 212.1c-2.6-1-5.3-2-7.1-4.1s-2.4-5.5-.5-7.6c2.3-2.4 6.2-1.4 9.3-.3 17.1 6.3 34.2 12.7 51.3 19 5.4 2 11.8 5.7 10.9 11.4-.2 1.4-1 2.8-2.2 3.4-1.6.8-3.6.2-5.3-.5l-56.4-21.3zM692.1 8.3c2 2.1 1.3 5.5.5 8.3-7.4 25.5-13.5 51.3-18.5 77.3-.7 3.5-6.4 3.4-8.4.4-1.9-3-1.2-7-.4-10.4 5.1-22.2 10.2-44.4 15.4-66.6.7-2.9 1.4-5.9 3.5-8.1 2-2.3 5.8-3.1 7.9-.9zM339.2 104.5c-5.5-4.8-7.4-12.5-9.1-19.6-3.5-14.8-7-29.7-10.4-44.5-.7-2.8-1.3-5.9-.2-8.6 1.1-2.7 4.8-4.4 7-2.5 1.1.9 1.5 2.4 1.8 3.8 5.5 21.7 11.1 43.3 16.6 65 .8 3.1.5 7.8-2.7 7.9-1.1 0-2.1-.7-3-1.5zM74.4 375.2c-1.1 4.1-6.5 4.8-10.7 4.6-14.2-.5-28.3-1-42.5-1.5-4.3-.2-9.2-.5-12.2-3.7s-1.7-9.9 2.7-9.9c17.1.1 34.2.7 51.2 1.9 2.7.2 5.6.4 7.9 1.8 2.5 1.4 4.3 4.2 3.6 6.8zM504.8 84.8c-5.8-4.4-6.4-12.8-6.5-20.1-.2-15.9-.3-31.9-.5-47.8 0-4.1 1-9.6 5.1-10.1 2.6-.3 4.9 1.8 5.8 4.2.9 2.4.7 5.1.5 7.6-1.1 14.8-.9 29.7.8 44.4.8 7.8 1.3 17.4-5.2 21.8zM67.9 527.9c.6 3.6-3.4 6.1-6.7 7.5-13.3 5.5-26.8 10.3-40.6 14.2-3.9 1.1-8.4 2.1-11.9.1s-4.3-8.5-.4-9.7c15.8-5 31.7-10 47.6-15.1 4.5-1.5 11.3-1.6 12 3zM788.5 382.7c-3.8 35.7-9.4 73.1-31.2 101.6-28.5 37.4-82.1 51.5-127.2 37.9-45-13.6-80.5-51.9-96.1-96.3s-12.8-94 2.1-138.6c9-27 22.6-52.8 42.1-73.5 19.5-20.7 45.2-36.1 73.3-40.5 45.5-7.1 94.3 17.8 115.2 58.8 6.2 12.1 10 25.2 13.6 38.3 4.4 15.8 8.4 31.9 10.1 48.2 2.3 21.3.4 42.8-1.9 64.1M667.5 183c-36.9.1-69.9 24.5-91.9 54.2-31.8 42.9-45.6 98.7-37.3 151.5 4.5 29.1 15.8 57.6 34.9 80 15.3 17.9 35.5 31.7 57.8 39.3 40.2 13.8 89.9 5 116.3-28.4 18.2-23.1 23.2-53.8 26.6-83 5.3-44.9 8.5-91.6-6.9-134.1s-54.3-79.7-99.5-79.5zM605 460.8c-1.1 4 3.2 8.5 7.2 7.5 4.1-1 5.8-7 2.8-10-2.9-3-8.9-1.5-10 2.5zM653.1 475.4c-3.2 2.7-2.1 8.7 1.8 10.1 3.9 1.4 8.6-2.5 7.9-6.6-.7-4-6.5-6.1-9.7-3.5zM564.3 360.1c3.9-.4 6.3-5.8 4-9s-8.2-2.6-9.8 1c-1.6 3.7 1.8 8.4 5.8 8zM600.3 257.2c3.3-1.9 3.3-7.5 0-9.4s-8.2.9-8.2 4.7c.1 3.8 4.9 6.6 8.2 4.7zM755.2 271.9c1.7 2.7 1.1 6.6-1.2 8.8-3.9 1-8.7-2.3-8.2-6.4.4-4 7.1-5.7 8.8-2.1l.6-.3zM568.2 305.5c2.1 3.2 7.7 2.8 9.4-.6 1.7-3.4-1.4-8.1-5.2-7.9-3.8.3-6.3 5.3-4.2 8.5zM723.6 463.4c-1.7-3.3-7.2-3.6-9.3-.4-2 3.1.5 8.1 4.3 8.2 3.7.2 6.7-4.4 5-7.8zM752.6 412c-3.4 1.5-7.9-1.8-7.5-5.5.4-3.7 5.5-6 8.6-3.8 3 2.2 2.5 7.7-.9 9.3h-.2zM765.8 333.1c-.1 2.3-2.4 4.3-4.7 4.1-4-.6-6.3-6.5-3.3-9.2 3-2.7 9 1.1 7.3 4.8l.7.3zM630.8 221.1c-3.4.1-6-4.3-4.2-7.3 1.7-2.9 6.8-2.8 8.4.3 1.6 3-.8 7.3-4.2 7.4v-.4zM648.2 233.7c-.2-1.2.1-2.4.6-3.6 5.1-13.5 22.1-19.9 36.2-16.4 14 3.6 25 14.9 31.9 27.7.9 1.6 1.7 3.4 1.5 5.2-.6 4.4-7 5.3-10.7 2.9-3.7-2.4-5.8-6.6-9-9.6s-8.8-4.7-11.7-1.3c-1.3 1.4-1.6 3.5-2 5.4-4.3 25.1-8.5 50.3-12.8 75.4-.6 3.4-1.1 6.8-.5 10.1.7 4.1 3.2 7.7 4.9 11.6 4.4 10.3 2.6 23-4.5 31.7s-19.2 13-30.2 10.7c-17.6-3.7-32.2 14.2-49.9 17.5-4.6.9-4.8 8-1.6 11.5 3.2 3.5 8 5 11.4 8.3 3.4 3.3 4.1 10.2-.3 11.8-1.4.5-3 .3-4.4.1-12.9-2.5-23.7-13.4-26.3-26.3s3.5-27 14.5-34.2c2.5-1.6 6.3-2.7 8.1-.4 3.9 5-8.9 10.7-5.9 16.2 12.2-4 24.1-9.2 35.3-15.5 5.1-2.9 10.7-7.9 8.7-13.4-2.8-7.4 2.5-15.4 8.7-20.3 6.2-4.9 13.7-8.5 18.2-15 3.6-5.3 4.7-11.9 5.6-18.2 3.7-24.2 7.3-48.4 11-72.6.1-.8.3-1.7.1-2.5-1-5.5-9.5-2.5-13.3 1.6-4.1 4.1-12.5 7.1-13.6 1.6m-6.9 120.6c-2.1 6.9 4.9 14.4 12.1 14 7.2-.4 13.1-7.1 14-14.3.8-6.4-5.8-12.2-12.3-11.8-6.5.5-11.9 5.9-13.8 12.1zM728.5 221.2c-3.3-.7-6.7 3-5.7 6.3 1.1 3.2 6 4.3 8.3 1.8 2.3-2.6.7-7.4-2.6-8.1zM688.6 197.4c1 3.6-5.2 5.8-7.4 2.8s.1-7.7 3.7-8.8c2.5.6 4.2 3.6 3.5 6h.2z"/></g></svg>