<svg xmlns="http://www.w3.org/2000/svg" viewBox="0 0 969.7 194.1" enable-background="new 0 0 969.7 194.1"><desc xmlns:shape="http://adobe.com/products/shape"><shape:version>1.0.2</shape:version><shape:captureDetail>0.836331</shape:captureDetail><shape:source>1</shape:source></desc><path fill="#29A3C5" d="M403.5 79.2c-9.7 7.6-10.7 21.6-10.9 33.9-.2 18.7-.5 37.4-.7 56.2-.1 7.4-3.4 17.5-10.6 15.9-31.1-7-63.5-8.1-95-3.4-7.4 1.1-16.8 1.7-20.5-4.9-1.5-2.7-1.6-6-1.5-9.2l1.2-129.1c.1-5.9 2.1-13.8 8-13.5 36.1 1.5 72.4.7 108.4-2.5 8.8-.8 14 10.1 13.9 19-.1 8.8-2.6 18.4 1.7 26.1 25-22.8 52-43.5 80.6-61.8 5.3 2.7 1.1 10.8-3.4 14.7-23.3 20.2-46.9 39.8-71.2 58.6m-56.4 52.5c-6.6.7-12.8-3.3-17.8-7.8-7.2-6.5-13.1-14.3-17.4-23 1.9-4.7 8.9-5.1 13.3-2.5 4.4 2.6 7.4 7.1 11.4 10.2 4 3.2 10.3 4.8 14 1.2 7.9-7.7 15.6-15.6 23-23.6 4.5-4.9 9.1-12 5.4-17.5-6.3-9.2 2.9-24.6-5.5-32-3.6-3.2-9.1-3.2-13.9-3-17.8.8-35.5 1.7-53.3 2.5-8.9.4-19.7 2.2-22.9 10.5-1 2.5-1 5.3-1 8-.3 34-.5 67.9-.8 101.9 0 2.3 0 4.6 1 6.6 2.7 5.6 10.6 5.6 16.8 5 21.6-2.1 43.5-.9 64.7 3.5 5.6 1.2 8.4-6.5 8.8-12.2l2.7-39.3c.3-3.9.2-8.6-3-10.9-9 7.5-14 21.1-25.5 22.4zM134.6 184.4c-3.9 3.3-9.4 3.5-14.5 3.5-38 0-76 0-113.9.1-1.3-47.3-1-94.7.9-142 .2-5.2.7-11.1 4.5-14.6 3.4-3.2 8.5-3.7 13.2-3.9 34.2-1.9 68.5-2.1 102.7-.5 3.9.2 8.1.5 11 3.1 3.9 3.4 4 9.4 3.7 14.7l-1.8 36.6c-.2 4.6 7.2 3.3 10.7.4 19.5-16.1 39.1-32.1 58.6-48.2 6.2-5.1 15.6-10.2 21.4-4.6-25.1 23.3-50.2 46.5-75.2 69.8-7.8 7.3-16.3 15.8-16.3 26.5 0 14 .1 28.1.1 42.1-.1 5.9-.4 12.9-5.1 17m-56-76.8c6.8 7.4 13.5 14.9 20.3 22.3.7.8 2 .4 2.9-.1 13-6.9 21.8-21.2 22-36 .2-12.2.3-24.4.5-36.6.1-5.1 0-10.6-3-14.8-4.6-6.3-13.6-6.7-21.4-6.5l-57.8 1.5c-4.3.1-8.9.3-12.4 2.9-5.2 3.8-5.8 11.2-5.9 17.6-.9 37.7-1.8 75.5-2.6 113.2-.1 4.7 6.2 6.1 10.9 6 8.5-.2 17.1-.3 25.6-.5l49.8-.9c4-.1 8.4-.3 11.4-2.9 3.4-2.9 4-7.9 4-12.4.1-6.6-.4-13.2-1.5-19.7-1.9-.3-3.8-.5-5.7-.8-1.1 5.3-7.1 8.5-12.5 8.2-5.4-.3-10.3-3.4-14.6-6.7-12.6-9.7-22.6-22.6-28.9-37 1.2-3.7 6.1-5.1 9.8-3.9 3.7 1.2 6.5 4.2 9.1 7.1zM874.1 34c4.1-.2 8.4-.5 12.2 1.3 8.7 4.2 9.5 16.3 7.8 25.8-1.7 9.5-4.4 20.3 1.3 28.1 20.4-10.9 40.8-21.9 61.2-32.8 2.7-1.4 6.7-2.5 8.1.2.9 1.8-.2 3.9-1.4 5.4-10.6 14-28.3 19.9-43.9 27.7-15.6 7.8-31.5 20.8-31.6 38.3l-.3 33.5c0 3.3-.2 6.9-2.4 9.4-2.4 2.7-6.4 3.1-10 3.3-34.9 1.9-69.9 3.7-104.8 5.6-3.2.2-6.8.3-9.3-1.7-3.4-2.6-3.5-7.6-3.4-11.9 1.3-36.9 3.7-73.8 7.1-110.6.6-6.7 3-15.1 9.7-15.5 33.3-2.1 66.5-4.1 99.7-6.1M846 122.9c11.6-7.5 24.4-16.8 26-30.5.5-4.7-.4-9.5 0-14.2.4-5.7 2.6-11.1 3.1-16.8.5-5.7-1.3-12.2-6.4-14.8-3-1.4-6.4-1.2-9.7-1-18.4 1.3-36.8 2.5-55.3 3.8-5.9.4-12.2 1-16.6 4.9-5 4.5-6 11.9-6.5 18.6-2.1 25.8-3.5 51.7-4.4 77.7-.1 3.6-.2 7.3 1.1 10.6s4.5 6.2 8.1 5.9c24.4-1.5 48.8-3.1 73.2-4.6 2.3-.1 4.7-.4 6.4-1.9 1.6-1.5 2-3.9 2.2-6 1.3-10.2 2.4-20.4 3.3-30.6-3.2-2.1-6.8 2-8.8 5.2-5.1 8.2-14.1 15.5-23.6 13.6-3.4-.7-6.5-2.4-9.3-4.4-10-7-17.7-17.4-21.5-29 2.6-4.5 9.6-4.2 13.9-1.1s7 7.8 10.7 11.4c3.7 3.6 9.7 6.1 14.1 3.2zM620.4 175.7c-33.5 3.3-68.8-15.4-99.9-2.5-4.8 2-10.4-1.4-12.8-6s-2.3-10-2.2-15.2c.7-33.4 1.5-66.8 2.2-100.2.2-8.4 2.9-19.5 11.3-19.6 31.5-.4 63-.7 94.4-1.1 5.6-.1 11.3-.1 16.4 2.1 5.1 2.2 9.4 7.3 8.9 12.8-1.1 12.2-2.3 24.5-3.4 36.7-.4 3.8 2.1 9.5 5.3 7.4 24.5-16.6 50.1-31.7 76.6-45.1 4.7-2.4 13.1-2.5 12.6 2.8-26.8 18.5-54 36.5-81.5 53.9-9.8 6.2-15.2 17.7-16.8 29.2-1.6 11.5.1 23.1 1.8 34.6 1 6.1-6.7 9.6-12.9 10.2m-30.7-60.9c3.1 4.6 9.8 5.5 14.8 3.1 4.9-2.4 8.2-7.3 10.2-12.4 3.3-8.5 3.7-17.7 4-26.8.2-6.7.5-13.4.7-20 .2-5 .2-10.4-2.8-14.4-5.5-7.1-16.5-4.9-25.3-3.1-10.4 2.2-21 2.7-31.6 1.7-11-1-24.3-2.9-30.9 5.9-3.5 4.7-3.7 11-3.8 16.9-.4 26.7-.8 53.4-1.1 80.1 0 1.7 0 3.4.5 5.1 1.2 3.8 5.2 6.1 9.2 6.7 4 .6 8-.1 12-.5 17.8-1.5 35.2 4.7 52.9 7.5 3 .5 6.2.8 8.9-.7 4.3-2.4 4.9-8.4 5-13.3.1-5.2.1-10.4.2-15.7 0-1.6 0-3.4-1-4.7-1-1.3-3.4-1.7-4.2-.2-2.8 4.9-9.2 6.7-14.7 5.4s-10-5-13.9-9c-5.7-5.9-10.4-12.8-13.8-20.3-1.9-4.2-3.1-10 .6-12.8 4.8-3.7 11.1 2 14.5 7 3.1 4.8 6.3 9.6 9.6 14.5z"/></svg>