<svg xmlns="http://www.w3.org/2000/svg" viewBox="0 0 1000 839.5" enable-background="new 0 0 1000 839.5"><g fill="#2BC22B"><path d="M431.8 239.3c22.3-8.2-3 54.8-5.3 62.4-9 29.5-18 58.9-27 88.4-3.5 11.4-8.6 22.1-4.6 33.9 3.7 10.9 15.4 21.8 22.7 30.4 18.5 21.9 38.3 42.6 59.2 62.2 11.8 11.1 51.5 35.5 52.8 51.1 1.5 20-23.1 41-28.5 59.8-4.5 15.7 4 44.2-21.9 24.8-23.6-17.6-44.5-42.2-65.1-63.1-19-19.3-37.5-38.9-55.7-58.9-5.6-6.2-12.6-18.7-22.5-16.3-12 2.9-15 26.1-17.8 35.6-8.4 28.2-16.3 56.6-23.5 85.1-4.6 18.2-4 56.4-26 60-17.8 2.9-47.1-3.4-46.4-22.9 1.1-30.6 14.6-65.5 21.3-95.4 6.4-28.4 12.7-56.9 19.1-85.3 6.3-28.2 13.2-46.3-6.1-69.9-19.5-23.9-37.9-48.7-55.1-74.4-5.6-8.4-22.3-26.6-23.5-37.2-1.5-12.7 7.4-13.5 18.9-18.5 11.5-5 31-16.9 44.2-15 12.4 1.8 21 18.6 28.2 27.8 21.3 27.3 42.6 54.6 64 81.9 10.8-32.5 21.3-65.1 32.3-97.6 11.1-33.1 35.7-37.7 66.3-48.9m-24.3 23.2c-58.6 28.5-37.8 113.2-72.6 158.6l-48.6-66c-13.4-18.3-29.3-50.6-52-58.9-12.9-4.7-33.1 1.8-32.3 18.5.8 18.4 31.8 47 42.6 61.7 12.9 17.4 34.7 38 40.7 59.3 6.7 23.8-9 59.5-14.4 83.2l-17.7 78c-3.9 17.2-19 51.2-11.7 68.9 8.8 21.4 26.3 3.8 32-9.4 11-25.7 15.7-56 23.1-82.9 7-25.6 13-51.8 21.2-77.1 8.5-26.3 24.1-16.5 38.9.3 35 39.8 70.1 79.4 108.9 115.5 16 14.9 24.5 6.3 33.9-12.9 11.8-24.1-3.3-35.7-19.9-51.3-21.7-20.4-42.4-41.8-62-64.3-14.8-16.9-41.5-39.3-39.9-63.6 1.9-28.5 18.3-62.1 26.4-89.6 2.9-10.5 31.4-81.6 3.4-68-26.9 13.1 5.1-2.5 0 0zM855 760.3c-12.3 9.8-78.6-84.3-71.8-93.1 13.1-17.1 34.2 24 39.9 32.1 6.1 8.7 44.7 51 31.9 61-5.9 4.8 5.5-4.3 0 0zM908.7 485.2c23.9 6.3 49 11.1 72.3 19.1 23.4 8 9.2 20.7-9.4 17.2-23.7-4.5-49.5-11.3-72.3-19.2-22.8-7.8-9.4-22.1 9.4-17.1 27.2 7.2-6-1.6 0 0zM771.7 584.3c4.9 27.9-21.9 29.9-43.6 33.2-16.6 2.5-19.8 2.7-25.9-12.4-5.9-14.6-7.6-32.6-10.5-48.1-3.3-17.4-1-60.2-18.5-68.1-19.3-8.7-58.6 13.5-76.7 19.5-31 10.2-32.9-1.5-40-30.6-7.4-30.9-14.2-61.9-20.3-93-5.7-29.5-10.9-59.2-15.3-88.9-2.2-14.9-4.3-29.8-6.3-44.7-2-15.1-8-34.9-5.8-49.8 2.2-14.7 31.8-30.7 47.2-29.5 22 1.6 21.2 56.1 24.1 73.3 5.1 29.5 10.3 59.1 15.4 88.6 3.6 20.8 2.4 70.2 22.3 81.8 15.9 9.3 44.3-2.7 50.1-19.2 8.8-25.5-19.6-52.5-2-76.4 8.9-12.1 41.2-27 53.2-14.5 15.7 16.4-2.6 56.9 13.9 73.8 20.4 20.8 46.8-16.2 69.5-4.7 20.2 10.3 22.9 55.2 11.6 72.4-14.6 22.3-57.3 4.8-60.6 33.3-1.6 14 5.8 33.5 8.2 47.3 3.4 18.8 6.7 37.8 10 56.7M792.4 395c-23.2-11-57.3 27-74.6-2.4-8.1-13.7 1.8-82-28.8-69.3-27.5 11.4.7 62.8-1.6 81.8-3.4 27.5-64.6 32-86.1 38-11-53.1-20.9-106.4-29.6-159.9-2.2-13.4-4.3-26.8-6.3-40.2-1.6-10.7-.7-30.9-5.9-40.2-8.2-14.6-26-12.7-33.1 3-8.6 19.2 2 49.9 5.4 69.4 4.6 26.5 9.6 52.9 14.7 79.3 5.2 26.6 10.6 53.1 16.3 79.6 2.9 13.5 4.5 55.1 22.3 59.4 8.6 2.1 23.4-7 31.5-9.7 11.6-3.9 23.4-7.4 35.3-10.6 25.4-6.9 39.3-14.7 45 15.1 4.9 25.7 8.9 51.7 13.3 77.5 3.2 18.8 15.6 48.5 40.1 26.1 10.9-9.9 3.8-19.7.6-34.2-2.8-13-5.3-26-7.6-39.1-2.6-14.7-16.7-58.4-3.2-69 15.3-12 39.1 3.4 55.8-13.2 11.1-10.9 12.8-33.7-3.5-41.4-12.7-6.1 12.7 6 0 0zM71 800.8c-6.8-12 73.7-72.7 80.7-56.8 6.2 14-74 68.6-80.7 56.8-2.9-5.1 3.4 6 0 0zM803.3 52.2c11.4 5.7-16.4 42.4-20 50.2-6.1 13.2-16.5 56.6-31.3 62.1-22.6 8.3 7.4-42.7 11-50.1 4.8-10 26.7-69 40.3-62.2 3.3 1.6-5.5-2.8 0 0zM364.3 751.9c-2.9 21.7-2 50.7-9.5 71.4-6.2 17.1-15.5 12-15.5-6 0-20.2 6.4-42.6 9.4-62.7.9-6.2-.9-19.9 7.1-21.2 9.5-1.6 9.1 13.5 8.5 18.5-3.2 23.8.6-4.6 0 0zM35.3 430.7c7.8-9.3 91.9 8.6 91.1 24-.8 14.8-39 0-47.4-1.8-4.9-1.1-56.3-7.3-43.7-22.2 2.8-3.4-2.7 3.2 0 0zM952.5 267.6c-14 6.3-40.9 25.1-55.9 25.1-21.7 0-10-13.1 2.2-20.5 13.1-7.9 29.4-15.6 44.3-19.4 5.2-1.3 12.8-5.9 17.5-1 6.3 6.7-1.8 13-8.1 15.8-18.6 8.4 6-2.7 0 0zM600 815c-8-12.3-25.8-95.1-11.6-97 14.7-1.9 31.1 93.6 11.6 97-6.7-10.2 4.3-.8 0 0zM62.4 239.9c-.3-20 31.4 6.9 35.1 10.2 7.8 6.8 31.7 23.9 31.8 34.8.3 21.1-16.7 2.9-23.9-4-14.3-13.7-28.7-27.3-43-41-.1-4.5 19.1 18.2 0 0zM7 612.7c4.4-12.9 82.2-22.6 76.1-6.7-4.5 12.2-81.9 23.8-76.1 6.7zM321.3 80.3c10.9 8.3 14.3 46 18.4 60.1.9 3.1 18 48.6.8 43.1-8.8-2.8-16.5-52.8-18.6-60.7-1-3.5-13.9-52.6-.6-42.5zM571.5 71.4c-.6-16.4 1-33.1 2.3-49.5 1.5-19 11.2-23.9 10-.6-1 18.6-.5 37.2 1.6 55.6 1 8.8 8 32.7-5.1 37.1-5.3-13.5-8.3-28.1-8.8-42.6-.3-8.7.5 14.5 0 0z"/></g></svg>