<svg xmlns="http://www.w3.org/2000/svg" viewBox="0 166 1000 658" enable-background="new 0 166 1000 658"><desc xmlns:shape="http://adobe.com/products/shape"><shape:version>1.0.1</shape:version><shape:captureDetail>0.750000</shape:captureDetail><shape:source>1</shape:source></desc><g><path fill="#FEDB47" d="M419.4 369.9c5.4-.2 9 7.6 5.4 11.6-1.3 1.4-3.3 2.3-5.2 2.3-1.8 0-3.5-.7-4.8-1.9-4-3.7-.9-11.7 4.6-12zM547.7 287.3c10.5 31 13.4 64.4 9.8 97-4.1 37.7-18 76.2-47.2 100.4-33.9 28-82.5 31.9-125.5 22.6-14.2-3-28.3-7.4-40.9-14.6-39.9-22.7-60-70.4-63.1-116.2-3.9-57.9 18.2-120.5 67.3-151.4 31.6-19.9 71.2-24.8 107.8-17.6 25 4.9 49.5 15.7 66.7 34.5 11.7 12.8 19.6 28.7 25.1 45.3zm-4.4 65c2.4-3.5-.4-9.2-4.6-9.5-4.2-.3-7.8 4.9-5.9 8.7 1.8 3.9 8.1 4.3 10.5.8zm-11.1-67.8c1.4-3.6-2.3-8.3-6.3-7.7-4 .6-6.1 6.2-3.6 9.3s8.4 2.2 9.9-1.6zm-14.9 142.4c3.9 1.8 9.1-1.9 8.7-6.2-.5-4.2-6.3-6.9-9.7-4.4-3.5 2.5-2.9 8.8 1 10.6zm-18.7-139.4c3.3-4.2 6-11.4 1.2-13.6-3.4-1.6-7.1 1.7-9.5 4.6-20.4 24.6-39.8 49.9-58.3 76-1.9 2.6-5.6 3.2-8.8 3.5-23.2 1.9-46.9-2.5-67.8-12.6-4.9-2.3-10.4-5.1-15.6-3.4-5.2 1.7-7.1 10.6-1.9 12.2l48.6 14.4c5 1.4 10.4 3.3 13.2 7.7 1.7 3 1.9 6.6 2.9 9.9 2.8 9.1 13.5 15 22.7 12.5s15.5-12.9 13.4-22.2c-2.2-9.7 4.4-19.1 10.6-26.9 16.5-20.7 32.9-41.4 49.3-62.1zm-8.4 177.2c.9-3.9-2.6-8.2-6.6-8.1-4 .2-7.2 4.7-6.1 8.5 1.1 3.8 6.3 5.8 9.7 3.7 1.5-.9 2.6-2.4 3-4.1zm-7.4-222.9c4.1-1.4 5.2-7.7 1.9-10.5-3.3-2.8-9.3-.6-10.1 3.6-.8 4.3 4.1 8.4 8.2 6.9zm-52.5 242c.9-4.9-4.9-9.6-9.5-7.7-4.5 1.9-5.4 9.2-1.4 12.1 1.3.9 2.8 1.4 4.3 1.3 3.1-.1 6-2.6 6.6-5.7zM417.9 230c4.3-1.7 5.3-8.5 1.7-11.4-3.6-2.9-10.1-.4-10.7 4.2-.7 4.6 4.7 8.9 9 7.2zm-63.5 16.1c3.1 4.4 11.7 1.5 11.5-3.9-.2-5.4-9.1-7.6-11.8-2.9-1 2.1-.7 4.8.7 6.6l-.4.2zm5.2 216.4c2.7-3.4.3-9.4-4-10-4.3-.6-8.3 4.4-6.7 8.5 1.6 4 8 5 10.7 1.5zm-30.8-186.7l.7-.5c-3.2-2.6-8.8-1-10.2 2.9-.9 3.5 2.9 7.4 6.5 6.5 3.6-.9 5.3-6 3-8.9zm-13.4 132.9c3.5-2.1 3.4-8.2-.2-10.2s-8.8 1.1-8.7 5.2c.1 4.1 5.4 7.1 8.9 5zm-3.4-74.5c2.7-3.3.4-9.2-3.8-9.8-4.2-.7-8.2 4.2-6.6 8.2 1.5 3.9 7.7 4.9 10.4 1.6z"/><path fill="#13110C" d="M945.9 370.1c4.6 13.1 5.9 27.1 5.4 40.9-.8 21.4-6 43.1-18.2 60.8-16.9 24.5-46.9 39.3-76.6 37.8-29.7-1.6-58-19.5-72.2-45.6.9-4.2 6.5-5.6 10.4-4 3.9 1.7 6.5 5.4 9.2 8.6 17.2 20.9 46.4 31.3 73 25.8s49.3-26.5 56.9-52.5c3-10.2 3.7-20.9 3.7-31.5 0-13.1-1.1-26.4-5.8-38.6-8.3-21.6-28-38.4-50.6-43.2-22.6-4.8-47.4 2.7-63.7 19.1-2.6 2.7-7.5 1.4-9.8-1.6-2.3-3-2.7-7-3-10.7-2.5-33.8-3.2-67.8-2-101.7.1-2.9.3-6 1.8-8.6 2.7-4.4 8.4-5.5 13.5-6.2 33.5-4.5 67.1-7.6 100.9-9.2 2.9 2.5 1.9 7.6-1.1 10-3 2.4-7 2.9-10.8 3.3-26.6 2.6-53.2 5.2-79.7 7.8-10.6 1-13.3 15.2-13 25.9l1.2 52.5c.1 3.8.2 7.8 2.2 11 1.8 3.2 6.1 5.4 9.5 3.6 21.3-11.3 47.5-12.9 70-4.1 22.5 8.7 40.8 27.6 48.8 50.4zM937.3 600.9c1.2 2 .5 4.6-.2 6.8-5.3 16-10.6 31.9-16 47.9-1.9 5.7-4.1 11.8-9 15.3-10.5-8.9-13.4-23.6-19.9-35.7-1.2-2.3-2.7-4.6-5.1-5.7-2.4-1-5.8 0-6.3 2.5-2 9.1-4.1 18.2-6.1 27.2-.7 3.3-2.2 7.3-5.6 7.7-3.4.3-5.6-3.3-7-6.4-5.5-12.5-11-25.1-16.6-37.6-3.5-7.9-7-17.2-3.2-25 3.3-1.3 7.1.7 9.1 3.6s2.8 6.5 3.7 9.9c1.2 4.7 2.9 9.3 4.9 13.7 1.5 3.5 4.7 7.5 8.5 6.4l8.1-24.3c1.1-3.2 2.5-6.8 5.7-7.8 5.2-1.7 9.3 4.4 11.3 9.5 2.8 6.9 5.5 13.8 8.3 20.7 2 5.1 5.8 11.1 11.1 10.1 3.9-10.6 7.7-21.2 11.6-31.7 1-2.9 2.2-5.9 4.6-7.8 2.4-1.9 6.5-1.9 8.1.7zM830.1 649.3c1.8 2.9.9 6.9-1.4 9.4s-5.7 3.7-9 4.3c-10.8 2-22.6-1.6-30.4-9.4-3.9-3.9-6.9-9.2-6-14.6.3-1.7 1-3.5.5-5.2-.4-1.5-1.6-2.7-2.1-4.1-.7-1.9-.2-3.9.4-5.8 2.7-9.8 6.2-20 13.8-26.8 7.6-6.8 20.4-8.8 27.7-1.7 3.4 3.3 5.1 7.9 5.9 12.5 1.1 6.1.9 12.6-2 18-2.8 5.5-8.6 9.7-14.7 9.5-3.2-.1-6.2-1.3-9.3-1.4-3.1-.2-6.8 1.2-7.7 4.2-1.1 3.6 2.4 7 5.7 8.8 8.7 4.6 19.3 5.5 28.6 2.3zm-13.3-30.2c4.2-3.8 4.3-11.7-.4-14.7-4.3-2.8-10.3-.6-14.3 2.8-1.6 1.4-3.1 3-4.3 4.8-.6.9-1.1 1.8-1.3 2.8-.3 2.6 2.1 4.7 4.4 5.8 5.1 2.5 11.8 2.3 15.9-1.5zM771.6 646.3c.3 4.8-1.1 11.3-5.9 11.1-4.1-.2-5.6-5.5-5.9-9.6-.8-11.4-1.3-22.8-1.6-34.2-.1-6.5-7.5-11.2-13.9-10-6.4 1.2-11.2 6.9-13.1 13.1-1.9 6.2-1.3 12.9-.4 19.3 1 6.4 2.3 12.9 1.9 19.3-.2 3.2-1.3 7-4.4 7.8-6.2-1.7-7.9-9.6-8.3-16.1-.8-11.2-1.6-22.4-2.3-33.7-.3-4.1-.5-8.3.9-12.1 1.5-3.8 5.2-7 9.2-6.6 11.6 1.4 24.4-7.8 34-1.2 6.2 4.2 7.2 12.8 7.7 20.3.8 11 1.5 21.8 2.1 32.6zM733.8 228.5c19.8 17.5 24.6 47.7 17.1 73s-25.5 46.2-45.5 63.4c-20 17.2-42.4 31.4-62.5 48.5-23.9 20.3-44.3 44.4-62.3 70.1 13.5-8.2 29.5-12.3 45.3-11.8 25.3.9 48.8 13.2 73.8 17.3 15.4 2.6 31.4 1.9 47.3 1.1 4.5 3.6-1 10.6-6.4 12.7-17.1 6.6-36.4 3.7-54-1.4s-34.7-12.4-52.9-14.6c-18.2-2.1-38.5 2-50.2 16-3.7 4.4-11.6 1.1-13.4-4.4-1.8-5.4.6-11.3 3-16.4 15.7-33.1 39.1-62.6 67.7-85.6 25.3-20.3 54.9-35.7 76.4-60.1 21.5-24.3 32.8-62.3 14.7-89.2-11.8-17.5-34.1-26.3-55.1-24.9-21.1 1.4-40.8 11.9-56.4 26.1-4.6 4.2-12.6 8.4-15.8 3-2.1-3.6.7-8 3.6-10.9 24.3-25.3 62.8-35.9 96.7-26.7 10.5 2.9 20.7 7.6 28.9 14.8zM699.4 767c0 6.2.1 12.5-1.8 18.3-2.7 8.5-9.6 15.5-18 18.4-8.4 2.9-18.2 1.7-25.6-3.2-3.4-2.3-6.5-5.8-6.3-9.8.3-4.1 5.8-7.3 8.6-4.4 5.3 5.3 14.1 5.4 21.1 2.5 5.3-2.2 10.3-6.4 11.5-12 1.2-5.7-3-12.4-8.8-12.2-2.6.1-4.9 1.4-7.4 2.2-11.2 3.6-23.5-5.2-27.8-16.2-4.3-11-2.9-23.3-1.5-35 .6-4.8 2.7-10.9 7.5-10.7 2.9.1 5.1 2.9 5.7 5.8.7 2.8.1 5.8-.4 8.6-1 5.9-1.2 12-.6 17.9.6 6 2.7 12.8 8.2 15 6.9 2.7 14-3.3 19-8.7 1.5-1.6 3.1-3.5 2.9-5.7-.9-8.2-.6-16.5 1-24.6.9-4.4 4-9.9 8.3-8.5 3.3 1.1 4 5.4 4 8.9.1 17.8.3 35.6.4 53.4zM664 617.3c.2 5.6-1.2 11.5-5 15.4-6.9 7-18.4 5.4-28 3.3-3.3-.7-6.2 3-5.8 6.4.4 3.3 2.9 6 5.4 8.2 3.1 2.6 6.9 4.9 11 4.6 3.2-.3 5.9-2.2 8.7-3.9 2.7-1.7 5.9-3.2 9-2.6 3.1.6 5.8 4.3 4.1 7.1-4.4 7.2-12.4 12-20.7 12.6-8.3.6-17-3.2-22.3-9.7-6.9-8.4-7.9-20-8.5-30.9 0-.9 0-1.9.7-2.4 3.7-2.6 3.1-8.1 3.4-12.6.6-7.7 5.6-15 12.5-18.5s15.6-3.1 22.4.7c7.8 4.5 12.5 13.3 13.1 22.3zm-22.1 8.4c5.9-1.1 10.1-7.7 8.6-13.4s-8.4-9.5-14-7.6c-5.7 1.9-8.7 7.9-12.2 12.7 4.9 4.6 10.9 9.5 17.6 8.3zM620.2 755.8c3.9-2.4 9.1 2.4 8.3 6.9-.7 4.5-5.1 7.5-9.5 8.6-5.6 1.4-11.5.7-17.2-.7-6.4-1.6-13-4.3-17-9.6-3.5-4.7-4.6-10.8-4.6-16.7.1-10.9 3.9-21.8 10.6-30.4 6.9-8.8 19.6-15.4 29.2-9.5 2.8 1.7 5.2 4.8 4.8 8.1-.3 3.3-4.4 6-7.1 4.2-5.5-3.6-12.4 1.6-16.6 6.6-3.3 4-6.6 8.2-7.8 13.2-1.6 6.8 1.3 14.5 7 18.6 5.7 4.2 13.9 4.5 19.9.7zM602.2 661.3c.1 4.3-6.8 5.6-9.8 2.5-3-3.1-3.1-7.9-3.1-12.2.2-9.3.3-18.5.5-27.8.1-6.6-.9-14.9-7.2-17-3.8-1.2-7.9.5-11.1 2.9-13.7 9.8-17.6 28.6-18 45.6-.1 3.8-2.1 9.2-5.7 7.8-.8-.3-1.4-.9-1.9-1.5-5.8-6.8-3.5-16.9-2.5-25.7 2.2-20.9-4.9-42.4-.5-63 .6-3 2.4-6.6 5.4-6.4 3.5.2 4.5 4.8 4.5 8.3.1 8 .1 16 .2 23.9 0 3.8 5.1 5.6 8.7 4.3 3.5-1.3 6.1-4.4 9.2-6.5 10.2-7 26.5-1 29.7 11 .8 3 .9 6.2.9 9.4.2 14.8.5 29.6.7 44.4zM563.7 291.1c8.9 31.4 8.7 64.8 4.7 97.3-5.5 44.3-20.8 91.8-58.6 115.5-13.3 8.3-28.4 13.1-43.7 16.3-31.7 6.7-65.1 7.2-96.2-1.9-31.1-9.1-59.7-28.4-77.2-55.6-12.7-19.7-19.2-42.9-22.6-66.1-8.8-61.7 7.1-130.2 54.9-170 37.7-31.4 90.9-40.7 138.9-30.5 15.5 3.3 30.7 8.6 44.2 16.9 27.8 17.2 46.6 46.6 55.6 78.1zm-6.2 93.2c3.6-32.6.7-66-9.8-97-5.5-16.6-13.4-32.5-25.1-45.3-17.2-18.8-41.7-29.6-66.7-34.5-36.6-7.2-76.2-2.3-107.8 17.6-49.1 30.9-71.2 93.5-67.3 151.4 3.1 45.8 23.2 93.5 63.1 116.2 12.6 7.2 26.7 11.6 40.9 14.6 43 9.3 91.6 5.4 125.5-22.6 29.2-24.2 43.1-62.7 47.2-100.4zM560.2 712.1c5.2 6.8 5.2 16.1 5 24.7-.2 8.7-.4 17.4-.6 26.2-.1 4.3-1.5 10-5.8 10.1-4.5.1-6-5.9-6-10.4-.1-9.4-.1-18.8-.2-28.3 0-5.6-.8-12.3-5.8-14.8-1.2-.6-2.5-.8-3.8-.9-9.7-.7-17.8 8.3-20 17.8s-.1 19.3 1.3 29c.3 1.9.5 3.9-.5 5.5-1.7 2.8-6.1 2.5-8.5.3-2.4-2.2-3.2-5.6-3.7-8.8-2.3-13-2.4-26.3-2.5-39.6 0-3.4 0-7.1 1.7-10.1s5.7-5 8.7-3.4c6.2 3.5 13.5-2.3 20.5-4.2 7.3-1.9 15.6.9 20.2 6.9zM538.7 342.8c4.2.3 7 6 4.6 9.5-2.4 3.5-8.7 3.1-10.5-.8-1.9-3.8 1.7-9 5.9-8.7zM525.9 276.8c4-.6 7.7 4.1 6.3 7.7-1.5 3.8-7.4 4.7-9.9 1.6s-.4-8.7 3.6-9.3zM525.7 644.6c3.4.1 5.5 4.3 4.6 7.6-.9 3.3-3.7 5.6-6.6 7.4-8.2 5.3-19.7 7.9-27.2 1.7-7.7-6.3-7.1-18-6.1-27.9 1-9.9.9-21.8-7.4-27.3-3-2-6.9-3-8.9-6s1-8.6 4.1-6.7c3.3 2 7.5-1 9.1-4.5 1.6-3.5 1.8-7.5 3.8-10.8 2-3.2 7.3-4.9 9.5-1.8 1.9 2.7-.1 6.6.7 9.8 1.1 4.3 6.4 5.7 10.6 7.1 4.2 1.5 8.8 6 6.3 9.7-2.6 4-9.2 1.2-13.3 3.6-3.5 2-3.9 6.8-3.9 10.8v15.8c0 7.7 1.5 17.5 8.9 19.4 3.8-2.1 7.7-4.3 11.5-6.4 1.3-.7 2.8-1.5 4.3-1.5zM526 420.7c.4 4.3-4.8 8-8.7 6.2-3.9-1.8-4.5-8.1-1-10.6 3.4-2.5 9.2.2 9.7 4.4zM499.8 273.9c4.8 2.2 2.1 9.4-1.2 13.6-16.4 20.7-32.8 41.4-49.3 62.1-6.2 7.8-12.8 17.2-10.6 26.9 2.1 9.3-4.2 19.7-13.4 22.2s-19.9-3.4-22.7-12.5c-1-3.3-1.2-6.9-2.9-9.9-2.8-4.4-8.2-6.3-13.2-7.7l-48.6-14.4c-5.2-1.6-3.3-10.5 1.9-12.2 5.2-1.7 10.7 1.1 15.6 3.4 20.9 10.1 44.6 14.5 67.8 12.6 3.2-.3 6.9-.9 8.8-3.5 18.5-26.1 37.9-51.4 58.3-76 2.4-2.9 6.1-6.2 9.5-4.6zm-75 107.6c3.6-4 0-11.8-5.4-11.6-5.5.3-8.6 8.3-4.6 12 1.3 1.2 3 1.9 4.8 1.9 1.9 0 3.9-.9 5.2-2.3zM487.8 756.8c4.6-.5 10 3.7 8.2 7.9-.8 1.8-2.5 2.8-4.1 3.8-5.8 3.4-11.9 6.6-18.5 8.1-6.6 1.4-13.9.8-19.5-3-7.7-5.2-10.6-15.3-11.4-24.6-1-12.6 1.1-26.2 9.3-35.7 8.4-9.6 23.9-13.5 34.1-6.1 8 5.8 10.8 17.7 6.2 26.4-4.6 8.7-16 13.1-25.3 9.8-4.3-1.6-9.5 1.7-10.6 6.2-1.1 4.5 1.5 9.4 5.5 11.7s9 2.3 13.4.7c4.3-1.6 8.2-4.7 12.7-5.2zm-13.4-26.3c5-1.3 8.8-7.8 5.7-12-2.6-3.6-8-3.5-12.1-1.9-4.6 1.7-9.2 5.8-8.5 10.7 4.6 2.5 9.9 4.6 14.9 3.2zM483.6 456.6c4-.1 7.5 4.2 6.6 8.1-.4 1.7-1.5 3.2-3 4.1-3.4 2.1-8.6.1-9.7-3.7-1.1-3.8 2.1-8.3 6.1-8.5zM484.7 231.3c3.3 2.8 2.2 9.1-1.9 10.5-4.1 1.5-9-2.6-8.2-6.9.8-4.2 6.8-6.4 10.1-3.6zM430.2 707.9c2.5 3 1.4 8.6-2.4 9.4-9.3 1.8-19.4 4.2-24.9 11.9-8.9 12.6.6 30.1-2 45.3-.5 3.1-5.1 3.8-7.6 1.8-2.4-2-3.1-5.3-3.6-8.4-2.5-15.4-3.4-31.1-2.7-46.6.1-3.2.4-6.5 2.1-9.1 1.7-2.7 5.4-4.4 8.1-2.8 3.4 1.9 7.6 1.4 11.3.1s7.1-3.3 10.9-4.2c3.8-.9 8.3-.4 10.8 2.6zM420.8 476.1c4.6-1.9 10.4 2.8 9.5 7.7-.6 3.1-3.5 5.6-6.6 5.7-1.5.1-3-.4-4.3-1.3-4-2.9-3.1-10.2 1.4-12.1zM430.2 644.9c.1 4.9-2.2 9.5-5.4 13.2-5.6 6.5-14.3 10.3-22.9 10-3.9-.2-7.8-1.2-10.7-3.8-2.8-2.6-4.1-7.1-2.3-10.5 5.2.2 10.3 1.8 15.5 1.4 5.2-.4 10.8-3.9 10.9-9.1.1-4.1-3.4-7.6-7.2-9.1-3.8-1.7-8-2-12-2.9-9.5-2.3-18.7-10.3-18.1-20 .2-3.2 1.4-6.2 3-8.9 4-6.8 10.7-12.2 18.5-13.6 7.8-1.3 16.5 1.9 20.6 8.7 1.5 2.4 2.3 5.5 1.2 8.1-1.2 2.6-5 3.9-7 1.9-3.2-3.2-7.5-5.6-12.1-5.7-4.6 0-9.3 2.7-10.7 7-1.4 4.3 1.4 9.8 5.9 10.5 7.2 1 14.6 2.1 21 5.6s11.7 9.9 11.8 17.2zM419.6 218.6c3.6 2.9 2.6 9.7-1.7 11.4-4.3 1.7-9.7-2.6-9-7.2.6-4.6 7.1-7.1 10.7-4.2zM370.1 568.6c3.3 3.3.3 10.2-4.4 10-4.7-.3-7.1-7.5-3.4-10.3l7.8.3zM365.2 707.2c4.1 1 7.1 6.7 4.1 9.8-10.7 2.9-23.3 7.7-25.3 18.7-.7 3.7.1 7.5.7 11.3 1.1 7 1.4 14.2.8 21.3-.1 1.3-.2 2.6-1 3.7-1.7 2.6-6 2-8-.3-2.1-2.3-2.5-5.6-2.9-8.7-1.7-14.8-2.5-29.8-2.5-44.7 0-2.8.1-5.8 1.6-8.2 1.5-2.4 5.1-3.7 7.3-2 3.4 2.7 8.3 2 12.5.8 4.2-1.2 8.5-2.9 12.7-1.7zM365.9 242.2c.2 5.4-8.4 8.3-11.5 3.9l.4-.2c-1.4-1.8-1.7-4.5-.7-6.6 2.7-4.7 11.6-2.5 11.8 2.9zM353.4 597.2c3-3 9.7-1.8 9.6 2.5-.3 18.5-.6 37.1-1 55.6.1 2 0 4.2-1.4 5.7-2.2 2.2-6.2 1-8-1.6-1.7-2.6-1.8-5.9-1.9-9-.1-13.7-.2-27.5-.4-41.2 0-4.2.1-9 3.1-12zM355.6 452.5c4.3.6 6.7 6.6 4 10-2.7 3.5-9.1 2.5-10.7-1.5-1.6-4.1 2.4-9.1 6.7-8.5zM329.5 275.3l-.7.5c2.3 2.9.6 8-3 8.9-3.6.9-7.4-3-6.5-6.5 1.4-3.9 7-5.5 10.2-2.9zM315.2 398.5c3.6 2 3.7 8.1.2 10.2-3.5 2.1-8.8-.9-8.9-5-.1-4.1 5.1-7.2 8.7-5.2zM314.8 715c0 16.1.1 32.2.1 48.3 0 2.6-.2 5.6-2.2 7.2-4.5 3.5-11.3-3.6-16.4-1.1-10.3 5.2-24.6 5.5-31.8-3.6-4.9-5.7-5.3-14.1-5-21.8.3-8 1.1-15.9 2.4-23.8.4-2.7 1-5.4 2.7-7.5 1.7-2.1 4.9-3.2 7.2-1.8 1.6 1 2.3 2.9 2.6 4.8 1.4 7.4-1.2 14.8-2.3 22.2-1.1 7.4 0 16.3 6.4 20.2 5.8 3.5 13.8 1.3 18.3-3.7s6.1-12 6.4-18.8c.2-6.8-.7-13.5-.6-20.3.1-4.8 2.8-11.2 7.5-10.1 3.8.9 4.7 5.9 4.7 9.8zM308.2 324.4c4.2.6 6.5 6.5 3.8 9.8-2.7 3.3-8.9 2.3-10.4-1.6-1.6-4 2.4-8.9 6.6-8.2zM278.4 597.9c11.1 4.8 17.7 18.1 14.9 29.8-1.2 5.1-6 8.7-11.1 9.9-5.1 1.2-10.4.4-15.5-.6-4.6-.9-10.6-1.4-12.8 2.7-1.9 3.5.6 7.8 3.7 10.2 5.3 4 12.7 5.1 18.8 2.5 2.9-1.2 5.5-3.1 8.4-4.2 3-1.1 6.6-1 8.8 1.3-.2 6.5-5.3 12.1-11.1 15-14.5 7.3-34.5-.2-40.6-15.3-3.8-9.2-2.6-19.8-.1-29.4 1.1-4.2 2.5-8.4 4.8-12.1 6.5-10.2 20.7-14.6 31.8-9.8zm.5 25.4c4.2-4.6.4-12.7-5.4-14.8-7.7-2.8-17.1 2.8-18.9 10.8 3.7 3.3 8.4 5.6 13.3 6.6 3.9.6 8.4.3 11-2.6zM269.4 491.7c1.9 6.9-8.1 10.3-15.3 10.5-53.8 1.2-107.4 12.2-157.3 32.3-4.5 1.8-9.8-1-12.3-5.1-2.6-4.1-3-9.1-3.1-13.9-1-35.6 10.7-70.8 29.5-101.1 18.8-30.2 44.5-55.7 72.4-77.8 15.8-12.5 32.7-24.4 44.1-41 11.3-16.7 15.9-39.8 5.1-56.9-6.5-10.3-17.8-17-29.5-20.5-22.3-6.8-46.9-3.4-68 6.4s-39 25.6-54 43.5c-6.5-.5-5-10.7-1.1-15.9 25.9-34.8 71.4-54 114.4-48.2 20.3 2.8 41.2 11.9 51.4 29.7 11.8 20.7 5.7 47.7-7.9 67.2-13.6 19.6-33.4 33.7-51.7 48.9-48.4 40-90.7 95-91.5 157.8 0 1.7 0 3.5.8 5.1 2.5 4.8 9.6 3.7 14.7 1.8 46.9-16.7 96.4-26.4 146.1-28.5 5.2-.2 11.9.7 13.2 5.7zM240.8 714.7c1.4 2.4 2.3 5.6 1 8.1s-5.3 3.6-7 1.3c-5.1-6.8-16.5-6.1-22.4-.1-6 6-7.2 15.5-5.4 23.8 1.4 6.9 5.9 14.2 12.9 14.7 4 .3 7.8-1.8 11.7-2.6 3.9-.8 9.1.5 9.9 4.4.8 3.9-3.1 7.1-6.7 8.8-9.3 4.4-21 5.7-29.4-.2-5.6-4-8.9-10.5-10.6-17.2-2.1-8.3-1.9-17.1.4-25.3 2.8-9.8 9.2-19.1 18.6-23.1 9.4-4.1 21.8-1.4 27 7.4zM218.1 599.8c9.2 5.3 9.8 18.1 9.4 28.7l-.9 22.8c-.2 4.1-.6 8.7-3.7 11.5-3.1 2.7-9.6 1-9.1-3.1 1.3-10.7 2-21.5 2.1-32.2 0-3.6 0-7.2-1.3-10.5s-4.3-6.2-7.8-6.4c-3.2-.2-6.1 1.7-8.2 4.1-10.1 11.4-4.3 29.2-7.5 44-.7 3.1-2.4 6.7-5.5 7.1-2.9.4-5.5-2.3-6.2-5.2-.6-2.9.1-5.9.7-8.8 1.5-7.8 1.8-15.8.8-23.7-.9-7.5-5.2-16.5-12.8-15.9-3.9.3-7.1 3.3-8.7 6.9-1.6 3.5-1.8 7.5-1.8 11.4-.2 6.4.2 12.9 1 19.3.4 3 .8 6.1.1 9-.7 2.9-3 5.7-6 6-5-5.5-5.4-13.8-5.4-21.2l-.3-28.8c0-2.5 0-5.1 1.4-7.2.9-1.4 2.4-2.4 3.8-3.3 8.5-4.9 19.3-5.7 28.4-2.1 4.2 1.6 9.1 4.1 12.8 1.5 7.2-5.1 17.1-8.3 24.7-3.9zM133.4 579.8c1.9 3.9-2 9.3-6.3 8.4-4.2-.9-5.3-8-1.3-9.8l-.2-.3c2.6-1 5.8-.3 7.8 1.7zM129.3 603.6c1.6 1.7 1.6 4.2 1.6 6.6-.4 16.8-.7 33.6-1.1 50.4-.1 4-6.3 5-9.1 2.2s-2.9-7.2-2.9-11.2c.1-12 .2-24 .2-36.1 0-3.5.1-7.3 2.1-10.2 2.1-2.9 6.7-4.3 9.2-1.7zM105.4 579c3.5 2.2.7 8.1-3.3 9.4-3.9 1.3-8.4.5-12.2 2.2-7.1 3.1-8.2 12.5-8.2 20.3-.1 14.3-.1 28.5-.2 42.8 0 4.3-.7 9.8-4.9 11.2-5.8-2.9-6.5-10.7-6.4-17.2l.6-44.9c.1-4.2-.2-9.1-3.6-11.7-3.3-2.5-7.9-1.5-12-1.5s-9.2-2.7-8.4-6.8c.8-3.7 5.7-4.6 9.5-4.6h45.1c1.4 0 2.9 0 4 .8z"/></g></svg>