<svg xmlns="http://www.w3.org/2000/svg" viewBox="0 0 1000 903" enable-background="new 0 0 1000 903"><desc xmlns:shape="http://adobe.com/products/shape"><shape:version>1.0.2</shape:version><shape:captureDetail>0.949640</shape:captureDetail><shape:source>1</shape:source></desc><path fill="#29A4C5" d="M386.7 668.2zM384.9 668.6h.1-.1zM485.9 358.1c-.1-.3-.3-.9-.5-1.4.3.7.5 1.1.5 1.4zM274.3 665.6c-1.2 7.6 10.9 37.5 18.3 41 10.7 5 21.8-10.5 26.3-18.8 20.4-38-40.9-45.5-44.6-22.2zM383.8 668.9c-.1 0-.1.1 0 0zM385.2 668.6h-.1.1zM384.4 668.8c-.1 0-.2 0-.2.1 0-.1.1-.1.2-.1zM385.7 668.4c.6-.2.9-.2 1-.3-.1.1-.5.2-1 .3z"/><path d="M210.6 63.2c-.1-.1-.1-.1 0 0zM213.7 65.9c-.1-.1-.3-.2-.4-.3.2.1.3.2.4.3z"/><path fill="#29A4C5" d="M267.9 630.5l.6-.6c-.2.3-.4.5-.6.6zM485.1 355.2c0-.1-.1-.2-.1-.2 0 .1 0 .1.1.2zM485.5 356.6c-.1-.4-.3-.8-.4-1.1.1.3.2.6.4 1.1zM267.9 630.5h-.6.6z"/><path d="M213.1 65.4c-.3-.2-.5-.4-.7-.6.2.2.5.4.7.6z"/><path fill="#29A4C5" d="M268.5 630c5.5-5.4 22.3-26.4 6.3-23.4-8.8 1.7-21.4 24.2-7.4 24-3.5-.2 4.6-4.2 1.1-.6zM438.5 821.4h-1 1zM607.8 543.2c-12.7 3.1-20.9 10.9-20 23.1.2 2.6 5.9 38.2 14.4 26.7 7.4-10 40.3-58.4 5.6-49.8zM453.3 821h1.1-1.1zM451.8 821c-.7 0-1.4 0-2.2.1.7 0 1.4 0 2.2-.1zM441 821.3h-1.8c.5.1 1.1 0 1.8 0zM449.4 821.1c-.7 0-1.4 0-2.2.1.7-.1 1.4-.1 2.2-.1zM444.7 821.2c-1.1 0-2.1.1-3.1.1.9 0 1.9 0 3.1-.1zM750.9 551.1c9.5-76-4.9-158.1-45.8-223.5-37.4-59.8-96.7-104.9-163.3-127.8-42.1-14.5-87-20.3-131.5-18.3-22.8 1-45.5 4.1-67.8 9.1-15 3.4-41 7.5-45 26-6.5-28-56.6 22.4-64.1 29.7-21.1 20.6-39.8 43.5-56.1 68.1-33 50-57.8 108.1-65.6 167.7-15.2 116.7 42 233.6 142.6 294 60.3 36.2 130.5 46.6 199.9 44.8 74.5-2 142.9-24.8 198.4-75.6 55.5-50.5 89-120.2 98.3-194.2zM463.1 312.9c4.8-5.6 13.1-2.2 19.4-3.2 16.6-2.8 30.8-15.1 46.8-19.7 10.3-2.9 22.7.5 10.9 11.1-22.9 20.5-67.9 13.4-54.7 55.6 5.7 18.1 21.7 7.9 34.8 3.8 5.6-1.7 34.3-11.7 27.9 5-3.5 9.2-30.9 11.9-39 14.7-16.8 5.9-19.1 17.9-13.5 34.6 5.5 16.4 12.6 15.7 27.8 11.6 9.9-2.7 37.8-15.9 47.2-8.8 15 11.3-12.8 16.1-18.9 17.7-16.6 4.5-34.1 11.5-51.2 13.9-18.8 2.7-17.8-13.7-20-28.5-2.2-14.6-9.8-28.1-11.8-42-2.3-16.8-1.3-32.5-5.3-49.4-1.1-4.5-4.1-12.2-.4-16.4zM293 390.6c15.3-7.6 20 42.8 22 51.4 3.1 13.4 6.2 26.7 9.2 40.1 2.3 10.1 6.9 23.5-.1 32.9-.4-.3-.8-.6-1.1-.8-15.9-12-17.5-40.2-21.5-57.8-2.5-10.7-20.3-59.9-8.5-65.8zM202 428c-7.5-.8-16.8 11.8-21.4 16.1-4.4 4.1-14.3 14.9-20.5 10.6-8.1-5.6 6.8-18.2 10.4-21.5 22.8-20.8 46-41.1 69-61.6 7.4-6.6 19.9-23.1 30.2-25.6 3.7-.9 7.4-1 9.5 2.7 3.4 6-7 11.9-10.4 15.2-10.1 9.6-20.1 19.1-30.2 28.7-9.9 9.4-22.2 15.5-18.6 30 6.8 27.5 20.7 54.9 30.7 81.5 2.8 7.3 5.5 14.6 8.3 21.9 1.7 4.6 9.3 17.4 8.3 21.9-2.7 11.8-12.9 4.4-16.5-3.7.2.4.2.3 0-.1-.1-.2-.1-.3-.2-.5-.2-.4-.4-1-.7-1.6 0-.1-.1-.1-.1-.2-.1-.2-.2-.3-.2-.5l-.3-.6c0-.1-.1-.2-.1-.2-.2-.3-.3-.7-.5-1v-.1c-.7-1.4-1.2-2.7-1.7-3.8-.4-.8-.7-1.6-1-2.3-.3-.7-.6-1.4-.9-2-.2-.5-.4-.9-.6-1.3-.1-.3-.2-.5-.3-.7-.1-.2-.2-.5-.3-.6 0-.1-.1-.2-.1-.2v-.1.1c0 .1.1.1.1.2l.3.6c.1.2.2.5.3.7.2.4.4.8.6 1.3.3.6.6 1.3.9 2 .3.7.7 1.5 1 2.3.6 1.3 1.2 2.6 1.7 3.8v.1c.2.4.3.7.5 1 0 .1.1.2.1.2l.3.6c.1.2.2.3.2.5 0 .1.1.1.1.2.2.5.5 1 .7 1.6.1.2.2.3.2.5v.1c-12.7-28-24.2-56.5-34.4-85.4-3.2-8.7-6.1-29.9-14.4-30.8zm135.6 253.6c-4.3 16-17 29.2-29.2 39.7-14.8 12.5-21.2 16.2-30.7-2.3-8.2-15.9-15-32.5-20.3-49.7-2.1-6.8-3.5-14.3-6.7-20.6-3.9-7.7-9.2-7.5-14-12.7-15.7-17.1 45.8-64 60.3-42.6 8.4 12.5-10.1 36.6-17.5 45.6 5.5 5 17.4-1 24-1.2 7-.2 14.2 1.5 20.3 5.1 13.7 8.1 17.7 23.9 13.8 38.7zm51.7 4.8c-32.3 10-42.1-36-43-57.7-.9-21 .4-68.5 29.5-69.1 50.1-1 58 112.9 13.5 126.8zm19.1-318.7c-9.5 1.2-5.8 31-5.7 36.5.4 11.5 16.3 72.7-5.6 66.1-10.9-3.3-27.9-54.6-39.9-45.2-5.2 4 3.1 31.2 3.9 36.8 1 6.6 6.8 27.4-4.5 30-12 2.7-14.4-61-15.4-71-.9-8.3-12.7-65.4 9.3-54.2 16.6 8.5 18.9 60.7 40.6 59.1-4.5-23-3.5-47 2.5-69.6 3.2-12.1 16.8-40.8 27.7-17.2 9 19.7 13.2 42.5 20.8 62.8 3.4 9.1 26.8 47.6 14.3 54.8 1.4-.8 4-2.3 0 0-.3.2-.6.3-.7.4 0 0-.1 0-.1.1l.1-.1c.1-.1.4-.2.7-.4-16.5 9.4-30.4-50.7-33.5-59.2-1.8-5.4-6.6-30.7-14.5-29.7zm143.2 268.4c-12.2 5.2-22.8-23.2-25.7-31.1-5.6-15.2-10.3-30.7-14.3-46.3-.7-2.6-2.6-20.4-5.1-22.1-7-4.6-10 6.6-10.6 10.8-2.4 14.8 1.2 33.1 3 47.8 1.1 8.8 10.8 35.5 1 42-21.8 14.6-29.6-59.5-44.5-55.5-15.1 4 5.2 66.3-4.3 78.3-9.7 12.2-13.8-7.7-14.1-14.3-1-17.4-.5-35.1-.7-52.6-.1-9-7-87.1 17.7-70.5 8.2 5.5 13.3 32.5 16.7 41.5 1.5 3.9 3.7 14.6 8.7 15.5 5.5 1 2.8-17.5 3.1-22 .8-12.1 17.2-83.6 33.5-49.4 13.7 28.6 12.3 62.5 27.3 91.1 3.6 7.2 23.5 30.3 8.3 36.8zm85.3-71.6c-7.1 14.3-13.3 34.1-25.3 45-13.7 12.4-30 8.3-35.4-9.2-5.9-19-7.1-40.5-10.3-60-1.6-9.6-2-20.3-5.1-29.5-3.1-9.4-10.1-12.4-4.3-22 14.8-24.4 63.5-31.3 75.5-1.2 2.7 6.9 2.9 14.5.6 21.6-2.1 6.7-8.6 10.3-5.8 16.2 3 6.3 12.2 7 15 14.5 2.9 7.9-1.4 17.5-4.9 24.6zM379.2 575.9c-28.8-3.2-24.8 100.8 5.9 92.6 26.8-7 21.2-89.6-5.9-92.6zM456.7 820.9c-.6 0-1.4 0-2.2.1.8-.1 1.5-.1 2.2-.1zM457 820.9h1.2-1.2zM486 358.2c0 .1 0 .1 0 0zM596.1 528.7c4.3-3.6 8.9-7.1 12.6-11.4 22-26-16.8-48.8-30.7-26-5.4 8.9.1 28.4 4.9 36.8 5 9 6.3 6.5 13.2.6z"/><path fill="#fff" d="M895.9 783.4c8.9 1.6 17.8 3.4 26.6 5.3-21.8-4.6-27.8-5.7-26.6-5.3zM922.5 788.8c-8.8-1.9-17.7-3.7-26.6-5.3 2.1.8 27.7 6.6 26.6 5.3z"/><path d="M724.6 776.7c1.7 9.5 39.9 7.7 47.3 8.3l54.9 4.5c19.4 1.6 38.9 3.2 58.3 4.7 2.8.2 45.6 5.1 37.4-5.4 1.1 1.4-24.5-4.5-26.6-5.3-28.4-5.2-57-9.1-85.8-11.5-9.8-.9-88.1-9.9-85.5 4.7zM273.6 62.4c-.6.4-1.1.6-1.7.7 1.8-.4 2.1-.6 1.7-.7zM271.5 62.9c-1.3-.6 1.5-.8 2.1-.6 9.7-6.2 23.4-46.5 13.8-49.3-9.2-2.7-29.3 44.1-15.9 49.9zM271.9 63.1c-.1-.1-.3-.1-.4-.2.1.1.2.1.4.2zM271.5 62.9c.1.1.3.1.4.2.5-.1 1.1-.4 1.7-.7-.7-.3-3.4-.1-2.1.5zM213.5 123.8c-.3-.6-.8-2.3-.1-1.9-6.9-3.5-44.1 16.5-39.9 25.5 5 10.4 38.8-11.4 40-23.6zM213.5 123.8c.3.5.5.4-.1-1.9.1.6.1 1.2.1 1.9zM213.5 123.8c.1-.7 0-1.3-.1-1.9-.7-.4-.3 1.2.1 1.9zM213.7 65.9c-.1-.1-.2-.2-.4-.3-.1-.1-.2-.1-.2-.2-.2-.2-.5-.4-.7-.6-1.1-.9-1.6-1.4-1.8-1.5-.1-.1-.1-.1 0 0 .3.2 1 .9 1.8 1.5.2.2.5.4.7.6.1.1.2.1.2.2.2.1.3.2.4.3 8 6.8 4.6-12.8 3.2-15.1-4-6.5-11.6-11-18.3-13.9-8.1-3.6-17.1-3.6-10.2 7.1 5.3 8.2 17.7 15.4 25.3 21.9zM212.4 64.7c-.7-.6-1.5-1.3-1.8-1.5.2.2.7.6 1.8 1.5zM213.3 65.6l-.2-.2c.1 0 .2.1.2.2zM213.9 66zM213.8 66s.1 0 0 0c.1 0 0 0 0 0zM213.8 66c0-.1 0-.1 0 0-.1-.1-.1-.1 0 0 0-.1 0-.1 0 0zM244.4 17.3zM244.4 17.3c.5 1.4 3.1 9.6 0 0zM246.6 46.7c1.9-9.6.8-20.2-2.2-29.4-3.5-10.8-9.7-2.2-10.8 3.7-1.3 6.5-.8 21.8 1.4 28 3.8 11 9.5 8.4 11.6-2.3zM244.4 17.1v.1-.1zM244.4 17.1c0-.1 0-.1 0 0zM188.8 98.8c4.2 0 16.3-.8 15.6-8-.7-6.7-9.5-5.8-15.2-5.8-5.5 0-14.4-.8-15.3 5.8-1 7 10.8 8 14.9 8zM188 98.8c-.3 0-.3 0 0 0zM189.3 98.8h.5-.5zM188.9 98.8h.4-.4zM189.8 98.8c.2 0 .2 0 0 0zM188.4 98.8h-.4.4zM188.9 98.8h-.6.6z"/><path fill="#fff" d="M439.2 821.4h-.7.7zM449.6 821.1h-.2.2zM454.4 821zM437.5 821.4c-.9 0-.8 0 0 0zM447.2 821.2c-.9 0-1.8 0-2.6.1.9-.1 1.8-.1 2.6-.1zM456.7 820.9h.3-.3z"/><path d="M964.8 816c-9-1.4-18-2.7-27-4-33.7-4.8-67.6-8.7-101.5-11.8-70.1-6.4-140.6-9.2-211-8.5 53.4-40.6 95.3-96.3 120-158.6 44.5-112.3 27.4-243-46.1-339.2-72.2-94.3-196.9-144.1-314.1-122.4 10.6-4.2 20.7-10 29.8-16.9-20.7-1-41.6 2-61.2 8.6-13.5 4.5-29.7 16.9-44.7 14.9-15.4-2-14.1-25.1-18.3-37.1-6.4-18.7-15.8-36.4-27.8-52.1-15.3-3.8-1.2 27.7.2 30.8 6.6 14.5 18.2 31.9 21 47.6 5 27.8-34 48.8-51.2 64.3C146.6 309.3 91 420.8 97.2 538.4c5.9 112 71.7 215 172.9 264.5-50.5 2.4-100.8 8.9-150.2 19.5-21.9 4.7-50.2 7.7-70.2 18-4.5 2.3-9.4 2.1-4.1 7.5 2.1 2.2 6.1 2.3 8.9 2.6 10 1.2 22.5-3.3 32.3-5.2 48-8.9 96-18.9 144.3-26.4 41-6.4 86.3-9.4 123.5 12.6-63.6 5.6-127 12-190.4 19.3-31.7 3.7-63.4 7.5-95 11.6-15.8 2-31.6 4.1-47.4 6.3-7.3 1-16.6-1-12.1 8.6 1.5 3.2 5.1 4.9 8.1 6.4 19.5 9.5 51.9-2.9 71.7-6.1 26.9-4.3 53.9-8.3 80.9-11.9 54-7.2 108.3-13 162.6-17.3 114.5-9.1 229.4-11.2 344.2-7 54.7 2 109.4 4.8 164.1 7.4 30.2 1.4 60.3 2.8 90.5 4.2 10.4.5 22.1-.6 9.1-10.3-8.3-6.1-24.6-5.4-34.4-6.8-111.4-15.9-224.3-21.2-336.6-16 4.8-11.5 21.2-10.6 31.3-10.9 18.1-.6 36.2-.9 54.3-1 33.9-.2 67.8.5 101.7 2 67.9 2.9 135.2 10.3 202.6 18.6 3.7.5 32.1 2.6 25.4-9.4-.9-1.2-18.8-2.9-20.4-3.2zm-510.4 5c.8 0 1.6 0 2.2-.1h1.5c.8 0 .7 0 0 0h-1.5c-.6 0-1.3 0-2.2.1h-2.6c-.8 0-1.5 0-2.2.1h-.2c-.8 0-1.5 0-2.2.1-.9 0-1.7 0-2.6.1-1.2 0-2.2.1-3.1.1h-4.1c-.8 0-.9 0 0 0h4.1c1 0 2-.1 3.1-.1.8 0 1.6 0 2.6-.1.7 0 1.4 0 2.2-.1h.2c.7 0 1.5 0 2.2-.1h2.6c-69.4 1.8-139.6-8.6-199.9-44.8-100.7-60.4-157.9-177.3-142.6-294 7.8-59.6 32.6-117.8 65.6-167.7 16.2-24.6 35-47.5 56.1-68.1 7.5-7.3 57.6-57.7 64.1-29.7 3.9-18.5 30-22.6 45-26 22.3-5 45-8.1 67.8-9.1 44.5-2 89.4 3.8 131.5 18.3 66.5 22.9 125.8 67.9 163.3 127.8 40.9 65.4 55.3 147.5 45.8 223.5-9.3 74-42.8 143.7-98.1 194.3-55.7 50.7-124.1 73.5-198.6 75.5z"/><path fill="#fff" d="M458.2 820.9c.7 0 .8-.1 0 0zM453.3 821h-1.5 1.5zM441.6 821.3h-.6.6zM515.8 508.1c-16.3-34.1-32.7 37.3-33.5 49.4-.3 4.5 2.5 22.9-3.1 22-5-.9-7.2-11.6-8.7-15.5-3.4-9-8.5-36-16.7-41.5-24.6-16.7-17.8 61.5-17.7 70.5.2 17.5-.3 35.1.7 52.6.4 6.6 4.4 26.5 14.1 14.3 9.6-12-10.8-74.2 4.3-78.3 14.9-3.9 22.8 70.1 44.5 55.5 9.8-6.6.1-33.2-1-42-1.9-14.7-5.4-33-3-47.8.7-4.2 3.7-15.4 10.6-10.8 2.5 1.6 4.5 19.5 5.1 22.1 4 15.7 8.8 31.1 14.3 46.3 2.9 7.9 13.5 36.3 25.7 31.1 15.2-6.5-4.7-29.6-8.5-36.9-14.8-28.5-13.4-62.3-27.1-91zM456.5 456.6c12.6-7.2-10.9-45.7-14.3-54.8-7.6-20.4-11.8-43.2-20.8-62.8-10.9-23.6-24.5 5.1-27.7 17.2-6 22.6-7 46.6-2.5 69.6-21.7 1.6-24-50.7-40.6-59.1-22-11.2-10.2 45.9-9.3 54.2 1.1 10 3.5 73.8 15.4 71 11.4-2.6 5.5-23.4 4.5-30-.8-5.6-9.1-32.8-3.9-36.8 12.1-9.4 29.1 41.9 39.9 45.2 21.9 6.5 5.9-54.6 5.6-66.1-.2-5.5-3.8-35.3 5.7-36.5 7.9-1 12.6 24.2 14.6 29.7 3 8.5 16.9 68.7 33.4 59.2zM456.5 456.6c4-2.2 1.4-.8 0 0zM455.8 457c-.1.1-.1.1 0 0-.1.1 0 .1 0 0zM456.5 456.6zM455.7 457.1zM455.8 457c.1-.1.3-.2.7-.4-.3.2-.6.4-.7.4zM626.7 525.4c-2.8-5.9 3.7-9.5 5.8-16.2 2.2-7.1 2.1-14.6-.6-21.6-12-30.2-60.7-23.2-75.5 1.2-5.8 9.6 1.2 12.6 4.3 22 3.1 9.2 3.5 19.9 5.1 29.5 3.2 19.6 4.5 41.1 10.3 60 5.4 17.5 21.7 21.6 35.4 9.2 12-10.9 18.2-30.8 25.3-45 3.5-7 7.8-16.6 4.9-24.6-2.7-7.5-12-8.2-15-14.5zm-43.9 2.7c-4.8-8.4-10.3-27.9-4.9-36.8 13.9-22.8 52.7.1 30.7 26-3.6 4.3-8.3 7.8-12.6 11.4-6.8 5.9-8.1 8.4-13.2-.6zm19.3 64.9c-8.6 11.5-14.3-24.1-14.4-26.7-.8-12.3 7.4-20 20-23.1 34.8-8.6 1.9 39.8-5.6 49.8zM323.6 642.9c-6.1-3.5-13.3-5.2-20.3-5.1-6.6.2-18.5 6.2-24 1.2 7.4-9 26-33.1 17.5-45.6-14.5-21.4-76 25.5-60.3 42.6 4.8 5.2 10.1 5 14 12.7 3.2 6.4 4.6 13.9 6.7 20.6 5.3 17.1 12.1 33.7 20.3 49.7 9.5 18.4 15.9 14.8 30.7 2.3 12.3-10.4 25-23.7 29.2-39.7 4.1-14.8.1-30.6-13.8-38.7zm-55.7-12.4h-.6c-14 .1-1.4-22.4 7.4-24 16-3-.8 18-6.3 23.4-.1.2-.3.4-.5.6zm50.9 57.2c-4.5 8.4-15.6 23.8-26.3 18.8-7.4-3.4-19.5-33.4-18.3-41 3.8-23.2 65.1-15.7 44.6 22.2zM268.5 630c3.6-3.6-4.6.4-1.2.6h.6l.6-.6zM267.2 547.8c1-4.6-6.5-17.3-8.3-21.9-2.8-7.3-5.5-14.6-8.3-21.9-10-26.6-23.9-54-30.7-81.5-3.6-14.5 8.7-20.6 18.6-30 10.1-9.6 20.1-19.1 30.2-28.7 3.5-3.3 13.8-9.1 10.4-15.2-2.1-3.7-5.8-3.6-9.5-2.7-10.3 2.5-22.8 19-30.2 25.6-23 20.5-46.3 40.8-69 61.6-3.6 3.3-18.5 15.9-10.4 21.5 6.2 4.3 16.1-6.5 20.5-10.6 4.6-4.3 13.8-16.9 21.4-16.1 8.3.9 11.2 22.1 14.2 30.7 10.3 28.9 21.7 57.4 34.4 85.4 3.9 8.2 14 15.7 16.7 3.8zM246.7 535.4c-.4-.9-.7-1.6-1-2.3.3.7.7 1.5 1 2.3zM249.1 540.6c0-.1-.1-.2-.1-.2s0 .1.1.2zM245.7 533.1c-.3-.7-.6-1.4-.9-2 .2.6.5 1.3.9 2zM249 540.4c-.1-.3-.3-.7-.5-1 .1.3.3.6.5 1zM248.5 539.3zM244.8 531.2c-.2-.5-.4-1-.6-1.3.2.3.4.8.6 1.3zM248.5 539.3c-.6-1.2-1.2-2.5-1.7-3.8.4 1 1 2.3 1.7 3.8zM243.4 528.2zM244.2 529.8c-.1-.3-.2-.5-.3-.7 0 .2.2.4.3.7zM243.4 528.1zM243.5 528.2s-.1 0 0 0c-.1 0 0 0 0 0zM243.6 528.5c0-.1-.1-.2-.1-.2s0 .1.1.2zM243.9 529.1c-.1-.3-.2-.5-.3-.6 0 .1.1.3.3.6zM250.7 544.1s-.1 0 0 0c.1.4.2.4 0 0zM250.6 544c-.1-.1-.1-.3-.2-.5.1.2.2.4.2.5zM250.4 543.6c-.2-.5-.5-1.1-.7-1.6.3.6.5 1.1.7 1.6zM249.4 541.2l-.3-.6.3.6zM249.7 542c0-.1-.1-.1-.1-.2 0 0 .1.1.1.2zM249.6 541.8c-.1-.2-.2-.4-.2-.5 0 .1.1.3.2.5zM485.1 355.5c0-.1-.1-.2-.1-.3.1.1.1.2.1.3zM485.9 358.1v.1c.1 0 .1-.1 0-.1zM468.8 378.7c1.9 14 9.6 27.4 11.8 42 2.2 14.7 1.2 31.1 20 28.5 17-2.4 34.5-9.4 51.2-13.9 6.2-1.7 33.9-6.5 18.9-17.7-9.4-7.1-37.3 6.1-47.2 8.8-15.2 4.2-22.3 4.8-27.8-11.6-5.6-16.7-3.3-28.7 13.5-34.6 8.1-2.8 35.5-5.5 39-14.7 6.4-16.7-22.3-6.7-27.9-5-13 4-29.1 14.2-34.8-3.8.2.6.4 1.1.5 1.4v.1c0 .1 0 .1 0 0v-.1c-.1-.2-.2-.7-.5-1.4-.2-.5-.3-.9-.4-1.1 0-.1-.1-.2-.1-.3 0-.1-.1-.2-.1-.2s0 .1.1.2c0 .1 0 .2.1.3.1.3.2.7.4 1.1-13.2-42.2 31.9-35.1 54.7-55.6 11.8-10.6-.6-14-10.9-11.1-16 4.6-30.3 16.9-46.8 19.7-6.3 1.1-14.7-2.4-19.4 3.2-3.6 4.2-.6 11.9.4 16.4 4 16.9 3 32.6 5.3 49.4zM485.5 356.6zM485 355zM322.9 514.2c-7.9-6.2 6.3-6.1 1.1.8 7-9.4 2.3-22.8.1-32.9-3-13.4-6.1-26.7-9.2-40.1-2-8.6-6.7-59.1-22-51.4-11.8 5.9 6 55 8.5 65.8 4.1 17.6 5.6 45.8 21.5 57.8zM322.9 514.2c.4.3.7.6 1.1.8 5.3-6.9-9-7-1.1-.8zM324.1 515c-.4-.3-.8-.5-1.1-.8.3.3.7.5 1.1.8zM385.1 668.6zM384.2 668.8c-.2 0-.3.1-.3.1s.1 0 .3-.1zM375.8 559.5c-29.2.6-30.4 48.1-29.5 69.1.9 21.8 10.7 67.8 43 57.7 44.5-13.8 36.6-127.7-13.5-126.8zm9.3 109.1h.1c.2 0 .3-.1.5-.1.5-.1.9-.2 1-.3-.1 0-.4.1-1 .3-.2 0-.3.1-.5.1h-.2c-.2.1-.4.1-.5.1-.1 0-.2 0-.2.1-.1 0-.2.1-.3.1-.1 0-.1 0 0 0s.2 0 .3-.1c.1 0 .1 0 .2-.1.1 0 .3-.1.5-.1h.1c-30.7 8.1-34.7-95.8-5.9-92.6 27.1 2.9 32.7 85.5 5.9 92.6zM386.7 668.2zM384.9 668.6c-.2.1-.4.1-.5.1.2 0 .3 0 .5-.1zM385.2 668.6c.2 0 .3-.1.5-.1-.2 0-.3 0-.5.1z"/></svg>