<svg xmlns="http://www.w3.org/2000/svg" viewBox="140 0 703 961" enable-background="new 140 0 703 961"><desc xmlns:shape="http://adobe.com/products/shape"><shape:version>1.0.1</shape:version><shape:captureDetail>0.750000</shape:captureDetail><shape:source>1</shape:source></desc><g><path fill="#FEDB47" d="M585.1 327.7c15.5 23.9 23.5 52.9 22.2 81.5-.6 14.8-4.1 30.1-13.5 41.5-9.3 11.4-26 17.8-39.6 11.8-10.5-4.7-17.2-15.5-21.1-26.4-13.5-37-2.4-81.7 26.5-108.4 5.4-5.2 13.8-9.7 20.2-5.8 2.4 1.3 3.8 3.5 5.3 5.8zM793 895.5c0 4.7-.4 10.5-4.7 12.7-2.6 1.5-6 1.1-9 .6C594.1 877.2 409.1 845.6 224 814c-6.7-1.1-14-2.6-18.3-8-3.7-4.9-4.1-11.4-4.1-17.6-1.9-135.7-3.7-271.4-5.6-407.1-.2-13.1-.4-26.5 4.5-38.7 14.9-38.1 73.5-54.4 72-95.3-1.1-31.4-2.2-62.8-3.4-94.2-.4-10.5 8.2-19.6 18.1-23.2 9.9-3.6 20.7-3 31.2-2.2 13.1.9 19.4 17 18.5 30.1-.9 13.1-6.2 26.2-3.2 38.9s20.4 22.8 29.2 13.1c46.7-51.6 96.3-100.9 145.8-150.3 3.4-3.4 7.7-6.9 12.2-5.8 1.4.4 2.6 1.2 3.7 2.2 1.1 1 2.1 2.1 3 3.3 82.2 104.1 164.5 208.4 246.9 312.5 8 10.3 16.4 21.5 16.6 34.6.6 163 1.3 326.2 1.9 489.2zm-66.9-313.3c6.5-1.3 5.8-12.1-.2-15.1s-12.9-.9-19.2.8c-38.3 10.8-79.8 10.1-117.8-1.9-5.4-1.9-11.2-3.7-16.8-2.4-5.6 1.3-10.3 7.9-7.7 12.9 2.1 3.5 6.5 4.9 10.7 5.6 17 3.4 34.2 6.9 51.2 10.3 8 1.7 9.7 12.3 9.7 20.6-.6 50.8-.9 101.9-1.5 152.7-.2 7.9 12.2 10.1 17.8 4.7 5.6-5.4 6-14.2 6-22.1.4-43.4.6-86.7.9-130.1 0-5 .2-10.3 2.4-14.8 4.5-8.6 15.1-11.4 24.9-13.1 13-2.6 26.3-5.4 39.6-8.1zM620.7 446.4c17-36.4 11.2-80.6-7.5-116.3-6.2-11.8-14.8-23.4-27.5-27.3-11.6-3.5-24.1.4-34.4 6.6-24.9 15.1-39.4 43-45.2 71.4-4.3 21.1-4.1 43.5 4.3 63.4 8.4 19.8 26 36.3 47.1 40 13.5 2.4 27.9-.6 39.2-8.2 10.7-7.2 18.5-18.1 24-29.6zm-83.8 304.4c1.3-4.3-1.5-9-5.2-11.4s-8.4-3-12.9-3.5c-17.9-2.2-35.7-4.7-53.6-6.9-9.9-1.3-17.8-9.9-21.3-19.2-3.5-9.5-3.4-19.8-3.4-29.9 0-5 .2-10.5 2.4-15.1 2.2-4.5 7.5-8.2 12.5-6.9 20.2 5 41.5 5.4 61.9.7-1.9-9.9-12.5-15.7-22.4-16.8-9.9-1.1-20 1.3-29.9.8-9.9-.6-20.9-4.9-24.5-14.2-1.9-4.5-1.5-9.7-1.1-14.6.6-8.2 1.1-16.4 1.7-24.7.4-6.2 1.3-13.3 6.4-17.2 6-4.5 14.2-2.2 21.3-.8 18.9 3.9 38.9 1.9 56.5-5.8 2.1-2.2.8-6.2-1.7-7.8-2.4-1.9-5.8-2-8.8-2-27.1-.8-54.4-1.7-81.5-2.4-4.3-.2-9.4 0-12 3.4-1.7 2.1-1.9 5-2 7.7-2.8 53.1-2.6 106.2.6 159.2.4 6.2 1.3 12.9 6 16.8 3.2 2.4 7.3 3.2 11.2 3.7 23.5 3.5 46.9 6.9 70.5 10.5 9.9 1.3 21.3 2.6 29.3-3.6zm-43.4-451.6c-5.8-6.5-15.5-7.1-24.3-7.5-20.2-.6-40.8-1.3-60.6 3.5-16.1 3.9-32.7.2-48.8-3.2-6.9-1.7-10.7 9.7-5.8 15 4.9 5.2 12.9 5.4 20 5.4 9.7-.2 19.2-.2 29-.4 5.4 0 10.3 4.5 12.3 9.5 2.1 5.1 2.1 10.7 2.1 16.3-.2 35.7-.6 71.6-.9 107.3 0 6.5.2 13.5 3.7 18.9 3.5 5.4 12.1 7.9 16.6 3 2.6-3 2.8-7.3 2.8-11.4-.2-38.9-.2-77.6-.4-116.3 0-10.5.9-22.8 9.7-28.2 6.9-4.3 15.9-2.6 24.1-2 8.2.4 18.3-2 20.5-9.9zm-103.9 433c0-3.4-4.1-4.9-7.7-5.4-26.4-3.9-52.9-8-79.4-12-7.1-1.1-12.5-7.3-14.9-14s-2.4-14-2.2-21.3c.7-39.4 1.3-78.7 2.1-117.9.2-9.2-3-21.9-12.1-21.1-8.2.8-10.5 11.6-10.5 19.8-.2 47.7-.2 95.1-.2 142.6 0 9.2.8 19.6 8 25.2 4.1 3.2 9.5 3.9 14.8 4.5l73.5 9c10.7 1.4 24.7.8 28.6-9.4z"/><path fill="#13110C" d="M813.7 911.2c0 5.2-.2 10.8-3.4 15-5.2 6.5-15.1 5.6-23.4 4.1-84.9-15.5-169.9-31-254.8-46.5L402 862.7c-5.2-4.9-12.9-6.2-20-7.1-61.9-8.4-123.5-16.6-185.4-25-10.7-1.5-13.5-15.3-13.6-26.2-2.4-136.4-4.6-272.4-7-408.5-.6-35.1 3.2-77.6 34.4-93.3 23.6-11.6 37.2-37.6 40.9-63.5 3.7-26-.9-52.3-5.6-78.1-3.6-20 12.3-39.1 31.2-46.7 18.9-7.7 40-6.5 60.4-5 5.4.4 11.2 1.1 14.6 5.2 2.2 2.8 2.6 6.7 3 10.5 1.7 20.4 3.6 40.6 5.2 60.9 45.8-47.8 91.8-95.5 137.8-143.2 6.9-7.3 15.9-15.3 25.8-12.9 6.4 1.5 10.8 6.7 14.8 11.8 82.1 102.8 164.1 205.8 246.2 308.8 8.8 11.2 17.9 22.6 22.6 36.1 4.7 13.3 4.9 27.7 4.9 41.9.4 160.8 1 321.9 1.5 482.8zm-25.4-3c4.3-2.2 4.7-8 4.7-12.7-.6-163-1.3-326.2-1.9-489.3-.2-13.1-8.6-24.3-16.6-34.6-82.4-104.1-164.7-208.4-246.9-312.5-.9-1.1-1.9-2.3-3-3.3s-2.3-1.8-3.7-2.2c-4.5-1.1-8.8 2.4-12.2 5.8-49.5 49.4-99.1 98.7-145.8 150.3-8.8 9.7-26.2-.4-29.2-13.1s2.2-25.8 3.2-38.9c.9-13.1-5.4-29.2-18.5-30.1-10.5-.7-21.3-1.3-31.2 2.2-9.9 3.6-18.5 12.7-18.1 23.2 1.1 31.4 2.2 62.8 3.4 94.2 1.5 40.9-57 57.2-72 95.3-4.9 12.1-4.7 25.6-4.5 38.7 1.9 135.7 3.7 271.4 5.6 407.1 0 6.2.4 12.7 4.1 17.6 4.3 5.4 11.6 6.9 18.3 8 185.1 31.6 370.1 63.2 555.3 94.8 3 .6 6.4 1 9-.5zM725.9 567.1c6 3 6.7 13.8.2 15.1-13.3 2.6-26.5 5.4-39.6 8-9.7 1.7-20.4 4.5-24.9 13.1-2.2 4.5-2.4 9.7-2.4 14.8-.4 43.4-.6 86.7-.9 130.1 0 7.9-.4 16.6-6 22.1-5.6 5.4-17.9 3.2-17.8-4.7.6-50.8.9-101.9 1.5-152.7 0-8.2-1.7-18.9-9.7-20.6-17-3.4-34.2-6.9-51.2-10.3-4.1-.8-8.6-2.1-10.7-5.6-2.6-5 2.1-11.6 7.7-12.9 5.6-1.3 11.4.6 16.8 2.4 37.9 12 79.4 12.7 117.8 1.9 6.3-1.6 13.2-3.7 19.2-.7zM613.2 330.1c18.7 35.7 24.5 79.8 7.5 116.3-5.4 11.6-13.3 22.4-23.9 29.5-11.4 7.7-25.8 10.6-39.2 8.2-21.1-3.7-38.7-20.2-47.1-40-8.4-19.8-8.6-42.2-4.3-63.4 5.8-28.4 20.4-56.3 45.2-71.4 10.3-6.2 22.8-10.1 34.4-6.6 12.6 4 21.2 15.6 27.4 27.4zm-5.8 79.1c1.3-28.6-6.7-57.6-22.2-81.5-1.5-2.2-3-4.5-5.2-5.8-6.4-3.9-14.8.6-20.2 5.8-29 26.7-40 71.4-26.5 108.4 3.9 10.9 10.7 21.7 21.1 26.4 13.6 6 30.3-.4 39.6-11.8 9.3-11.5 12.8-26.8 13.4-41.5zM531.7 739.4c3.7 2.4 6.5 7.1 5.2 11.4-8 6.2-19.4 4.9-29.5 3.4-23.6-3.6-46.9-6.9-70.5-10.5-3.9-.6-8-1.3-11.2-3.7-4.7-3.9-5.6-10.7-6-16.8-3.2-53.1-3.4-106.2-.6-159.2.2-2.6.4-5.6 2-7.7 2.6-3.4 7.7-3.5 12-3.4 27.1.7 54.4 1.7 81.5 2.4 3 0 6.4.2 8.8 2 2.4 1.7 3.7 5.6 1.7 7.8-17.6 7.7-37.6 9.7-56.5 5.8-7.1-1.5-15.3-3.7-21.3.8-5 3.9-6 11-6.4 17.2-.6 8.2-1.1 16.5-1.7 24.7-.4 4.9-.8 10.1 1.1 14.6 3.5 9.4 14.6 13.7 24.5 14.2 9.9.6 20-1.9 29.9-.8 9.9 1.1 20.6 6.9 22.4 16.8-20.4 4.7-41.7 4.3-61.9-.7-5.1-1.3-10.3 2.4-12.5 6.9-2.2 4.7-2.4 10.1-2.4 15.1 0 10.1-.2 20.4 3.4 29.9 3.6 9.4 11.4 17.9 21.3 19.2 17.9 2.2 35.7 4.7 53.6 6.9 4.7.8 9.3 1.3 13.1 3.7zM469.2 291.8c8.8.4 18.5.9 24.3 7.5-2.2 7.9-12.3 10.3-20.4 9.9-8.2-.6-17.2-2.2-24.1 2-8.8 5.4-9.7 17.8-9.7 28.2.2 38.7.2 77.4.4 116.3 0 4.1-.2 8.4-2.8 11.4-4.5 4.9-13.1 2.4-16.6-3-3.5-5.4-3.7-12.3-3.7-18.9.4-35.7.8-71.6.9-107.3 0-5.6 0-11.2-2.1-16.3-2.1-5-6.9-9.5-12.3-9.5-9.7.2-19.2.2-29 .4-7.1 0-15.1-.2-20-5.4s-1.1-16.6 5.8-15c16.1 3.4 32.7 7.1 48.8 3.2 19.8-4.8 40.4-4.1 60.5-3.5zM382 726.7c3.6.6 7.7 2.1 7.7 5.4-3.9 10.3-18 10.8-28.8 9.3l-73.5-9c-5.2-.6-10.6-1.3-14.8-4.5-7.3-5.6-8-16.1-8-25.2 0-47.5 0-95 .2-142.6 0-8.2 2.2-19.1 10.5-19.8 9.2-.7 12.3 12 12.1 21.1-.7 39.2-1.3 78.5-2.1 117.9-.2 7.3-.2 14.6 2.2 21.3s7.9 12.9 14.9 14c26.7 4.1 53.2 8.2 79.6 12.1z"/></g></svg>