<svg xmlns="http://www.w3.org/2000/svg" viewBox="0 32 1000 934" enable-background="new 0 32 1000 934"><desc xmlns:shape="http://adobe.com/products/shape"><shape:version>1.0.2</shape:version><shape:captureDetail>0.750000</shape:captureDetail><shape:source>1</shape:source></desc><path fill="#29A3C5" d="M449.3 678.4c34.2 6.3 69.8 4.9 103.5-3.9 5.3 2 5.9 10 2.4 14.5-3.5 4.5-9.4 6.2-15 7.5-31.5 7.2-64.8 6.6-96.1-1.8-10.5-2.8-21.2 5.1-26.7 14.6-5.5 9.4-7.6 20.5-12.5 30.2-11.1 21.9-37.5 34.8-61.6 30.1-13.2-2.6-25.9-10.4-32-22.4-9.1-17.6-2.1-40.3 12.3-53.9 14.4-13.6 34.5-19.4 54.1-21.6 11.4-1.2 25.6-3.3 29-14.3 1.4-4.3.5-8.9-.3-13.4-5-26.6-10-53.1-15-79.7-.9-4.9-1.9-10-5.1-13.9-7.8-9.7-22.9-6.5-35.1-3.7-12.1 2.9-28.8 2-32.2-10 7.7-9.5 22.2-7.9 34.4-8.6 12.2-.6 27.3-9.4 23.6-21.1-14.9-46.9-8.1-100.2 17.9-142 11.6-18.6 27.9-35.6 48.9-41.9s47.1 1.1 56.9 20.7c2.2 4.3 3.4 9.7 1 13.8-2.5 4.1-9.9 4.7-11.6.2-5.5-15.4-25.2-22.1-40.9-17.6s-27.8 17.2-36.9 30.8c-25.3 37.6-33.9 86-23.2 130 4.5 18.5 30.3 20.5 48.5 14.8 18.1-5.7 38.8-14.6 54.8-4.5 2.7 6.9-6.6 12-13.8 13.6l-76.8 17.4c7.1 36.9 14.2 73.8 21.2 110.6 1.1 5.7 2.3 11.6 6 16 5.1 6.1 13 8.1 20.3 9.5M403 704.1c.7-1.5 1.3-3.1 1.4-4.8.4-7.1-8.5-10.6-15.6-10.9-22.4-1.1-45.2 8.1-60.6 24.5-10.2 10.9-3.9 30.8 9.6 37.2 13.5 6.4 30.2 1.4 41.4-8.5 11.2-9.8 18-23.7 23.8-37.5zM622.5 759.5c-23 8.7-48.1-17.2-45.4-41.6 2.7-24.4 24.6-43 47.9-50.9 9.8-3.3 9.5-17 7.3-27.1-7-32.5-14-64.9-21-97.4-3-13.8-22.5-14.6-35.9-10.2-13.4 4.5-29.8 10.4-40.1.8 1.1-9.7 12.6-14.6 22.4-15.1 9.8-.5 20.3 1.3 29-3.2 19-9.9 13.7-37.8 9.7-58.9-7.3-38-.5-78.6 18.8-112.1 7.3-12.6 16.5-24.5 29.1-31.9 12.6-7.3 28.9-9.4 41.7-2.5 16.8 9 23 29.9 25.2 48.9.2 1.9.4 3.9-.7 5.5-3 4.5-9.9-.5-12.1-5.5-5.7-12.7-8.9-29.2-22.1-34-10.7-3.8-22.3 2.8-30.6 10.5-39.2 36.6-42.3 98.1-30.4 150.4 1.2 5.4 2.9 11.3 7.2 14.7 6.8 5.4 16.9 2.6 24.9-.8 8-3.5 17.2-7.4 25.1-3.7 7.9 3.7 7.4 19.1-1.3 18.5-10.2-.7-20.9-1.4-30.4 2.5s-17.3 14-15.1 24c7.4 33.8 14.8 67.6 22.2 101.3 1.8 8 3.7 16.4 9.2 22.6 4.4 4.9 10.6 7.8 16.7 10.2 45.8 17.5 100.3 9.9 139.5-19.6-4.5 25.9-30.4 43.7-56.4 47.6-26 4-52.3-2.8-77.8-9-12.1-3-30.3-1.6-30.5 10.9-.4 21.7-5.8 47.5-26.1 55.1m9.7-41.9c3.1-9.6 4.8-22.3-3.8-27.6-8.2-5.1-18.7 1.3-25.3 8.4-6.4 6.8-12 14.9-12.8 24.2-.8 9.3 4.6 19.5 13.7 21.5 6.9 1.5 14.1-2.2 18.8-7.5 4.7-5.4 7.2-12.3 9.4-19zM979.6 788.6c1.1 8.1-9.9 11.7-18.1 12.1-272.3 15.2-540.8 74-801.8 153.2-5.2 1.6-11.8 2.7-15.1-1.6-5.1-6.8 5.1-14.6 13.2-17 262.1-77.8 530.6-138.4 803.4-155.1 7.5-.4 17.4 1 18.4 8.4zM909.3 345.5c-14-22.2-32.2-46.9-58.5-47.8-17.2-.6-32.9 9.8-45.6 21.4-19.9 18.3-36.3 41.7-40.7 68.4-4.4 26.7 5.2 56.5 27.6 71.6 27.4 18.3 64.7 11 95 23.9 32.6 13.9 51.1 48.4 63.3 81.7 11.8 32.5 19.9 69.1 6.8 101.1-13.1 32-55 53.6-83.9 34.5 6.8-12 24.1-10.5 37.5-14.2 21.3-5.9 34.6-28.4 36.6-50.4 1.9-22-5.2-43.7-12.8-64.5-8.9-24.3-19.6-49.8-41-64.2-31-20.8-74.6-12.2-106.7-31.4-20.8-12.5-33.9-35.9-37-60-3.1-24.1 2.9-48.8 13.5-70.6 15.6-31.9 44.4-60.3 79.8-63.3 35.5-3.2 73.1 29 66.1 63.8zM149.1 531.7c1.4 8.8 6.7 20.3 15.3 17.8 22.2-6.6 44.4-13.2 66.6-19.7 7.4-2.2 17.8-3.1 20.7 4 3.4 8.3-7.7 14.8-16.4 17-22.7 5.8-45.4 11.7-68.1 17.5-12.4 3.2-13 20.5-10.8 33.1 11.8 68.6 23.6 137.1 35.4 205.7.9 5-6.8 7.8-10.9 4.8-4.1-3-5.2-8.6-6-13.6-20.7-133.2-41.3-266.4-62-399.5-1.4-9.3 11.5-13.1 20.9-13.5 47.5-2.3 93.5-16.7 138.8-30.9 7.1-2.2 12.4 8.6 8.6 15-3.8 6.4-11.9 8.6-19.1 10.3-39.3 9.1-78.6 18.3-117.9 27.4-11.2 2.6-11.9 18-10.1 29.3 4.9 31.8 10 63.5 15 95.3zM801.8 216.6c-.2 1.9-.5 3.9-1.6 5.5-3.1 4.7-11.2 2.6-13.9-2.3-2.7-4.9-1.8-11-.9-16.5 7.1-43.1 11.5-86.7 13.2-130.4.2-5.5 8-7.7 12.7-4.9 4.7 2.8 6.9 8.4 8.9 13.5 13.5 34.3 33.9 65.8 59.7 92.1 2.1 2.1 4.4 4.3 7.3 4.9 2.9.6 6.5-1.2 6.6-4.2 1.9-38.8 5.5-77.5 10.7-116 .7-5.1 1.7-10.8 5.8-13.9 4.1-3.1 11.9-.7 11.4 4.4-6.5 59.8-10.4 119.9-11.6 180-.1 4.5-5 8.3-9.4 7.2-4.4-1-7.1-6.6-5.1-10.7 3.1-5.6 1.1-12.8-2.8-17.8s-9.5-8.4-14.8-12c-19.8-13.8-36-32.8-46.3-54.6-1.9-4.1-3.8-8.4-7.3-11.2-3.5-2.8-9.3-3.4-12.2 0-3.3 29-6.9 57.9-10.4 86.9zM76 168.6c16.8-6.1 33.5-12.1 50.4-17.9 12.7-4.4 25.5-8.6 38.4-12.6 4.6-1.4 9.4-2.9 14.1-1.8 4.7 1 9 5.5 8 10.2-27.7 11.5-55.3 23-83 34.6 7.6 49.1 15.3 98.3 22.9 147.4 1.1 7.3 1.8 16.1-3.9 20.8-7.6-2.2-10.1-11.5-11.3-19.3-6.7-41.7-13.3-83.4-20-125-1.2-7.5-4.2-16.8-11.8-17.5-2.3-.2-4.7.6-6.9 1.3-16.9 5.7-33.7 11.4-50.6 17.1-5.3.3-8.1-7.2-5.5-11.9 2.6-4.6 8-6.8 13-8.6L76 168.6zM725.5 216c-13.8 14.3-35.1 25.1-53.3 17.1-10.6-4.7-17.9-15-21.2-26-3.3-11.1-3.1-22.9-2.1-34.3 2.7-29 10.7-57.5 23.6-83.7 2.6-5.2 5.5-10.5 10.4-13.6 7.5-4.7 17.4-2.9 25.6.7 25.2 11.1 42.3 37.3 44.8 64.8s-8.8 55.2-27.8 75m-7.1-19.6c5-6.7 9.7-13.7 12.9-21.4 11.4-27.2 1.9-61.6-21.9-79-4.3-3.2-9.7-5.9-14.9-4.4-5.3 1.5-8.4 6.9-10.8 11.8-12.2 25.7-18.4 54.2-18.1 82.6.1 10.2 1.7 21.7 10 27.6 7 5 16.8 4.3 24.4.3 7.5-3.9 13.2-10.6 18.4-17.5zM498.8 75.9c6.3-2.6 12.9-5.3 19.7-4.7 6.8.5 13.8 5.4 14.3 12.2-15.1 5.2-30.2 10.5-45.3 15.7-9.3 3.2-20.4 9.1-19.5 18.9 4.5 49.4 7.6 99 9.4 148.6-4.2 2.4-10 0-12.7-4.1-2.8-4-3.3-9.1-3.8-14-3.9-40.7-6.6-81.4-8.1-122.3-.2-4.6-5-7.9-9.6-8.1-4.6-.2-8.9 1.8-13.1 3.9-13 6.3-25.9 12.6-38.9 18.9-5.6 2.7-11.4-5.6-9.1-11.4 2.3-5.8 8.7-8.8 14.5-11.2 34.1-14.2 68.1-28.3 102.2-42.4zM274.4 170.6c8.3 21.6 13.8 44.6 12.6 67.7-1.1 23.1-9.4 46.4-25.7 62.8-4.7 4.7-10.1 8.9-16.5 10.5-12.5 3.1-25.7-4.8-32.8-15.7-7.1-10.8-9.4-24-11.5-36.7-3.8-22.4-7.5-44.8-11.3-67.2-1.2-7.2 0-17.5 7.2-17.7 6.4-.2 9 8 9.5 14.4 2.8 34.1 3.2 70.4 22.2 98.9 4 6 13.1 6.8 19.4 3.3 6.3-3.4 10.4-9.9 13.5-16.5 13.5-28.5 13.3-63.1-.4-91.5-2-4.2-4.4-8.4-4.5-13-.1-4.6 3-9.7 7.6-10 5.4-.2 8.8 5.7 10.7 10.7zM582.2 77.9c3-3.2 9-2.8 11.5.8 1.6 2.3 1.8 5.3 1.9 8.2 1.2 32.5 2.3 64.9 3.5 97.4.7 18.6 1.3 37.2 2 55.8.2 5.2.2 11.1-3.4 15-3.5 3.9-11.8 2.9-12.2-2.3-4.2-54.6-6.3-109.5-6.1-164.3 0-3.8.2-7.9 2.8-10.6zM345.7 273.9c-7.4-48.4-13.8-97-19.1-145.7-.2-1.8-.4-3.7.1-5.5 1.3-5 8.2-7.3 12.2-4.2 3.1 2.5 3.9 6.8 4.4 10.8 6.6 49.5 12.6 99 18 148.6.3 2.7.5 5.7-1.2 7.9-2.5 3.1-7.8 2.1-10.4-.8-2.7-3.1-3.4-7.2-4-11.1z"/></svg>