<svg xmlns="http://www.w3.org/2000/svg" viewBox="0 0 960.5 991.2" enable-background="new 0 0 960.5 991.2"><desc xmlns:shape="http://adobe.com/products/shape"><shape:version>1.0.2</shape:version><shape:captureDetail>0.750000</shape:captureDetail><shape:source>1</shape:source></desc><path fill="#C12C7F" d="M644.2 921.2c14.8 7.4 12.1 31.5-.9 41.6-13.1 10.2-31.1 10.4-47.6 10.4-105.3-.4-210.7 3.8-315.6 12.5-17.9 1.5-24.8-26.6-12.7-39.8 12.1-13.2 32.2-14.6 50.1-15.2 26.1-.8 52.3-1.5 78.4-2.3 9.9-.3 21.4-1.4 27-9.6 3.3-4.9 3.6-11.2 3.8-17.1.5-17.3 1.1-34.6 1.6-51.9.1-2.7.1-5.6-1.7-7.6-2.1-2.3-5.6-2.4-8.6-2.2-112.7 4.2-225.2 12.6-337.3 25.1-21.5 2.4-43.7 4.9-64.3-1.6C7.5 598.7 5.2 333.8 9.5 69 321.2 40.6 633.2 12.2 946.1 8.1l6.6 813.9c0 3.8-.2 8.2-3.3 10.5-2.1 1.6-5 1.6-7.6 1.6l-500.3-1.8c-3.7 23.3-5.1 47-4.2 70.6.2 6.8 1.2 14.5 6.6 18.6 5.5 4.1 15.9-.8 13.4-7.2-9.6-24.7-8.4-53.4 3.1-77.3 1.8 23.1 3.6 46.1 5.3 69.2.3 4.3.8 9 3.9 12.1 3.5 3.5 8.9 3.7 13.9 3.7 53.6-.2 107.2-.5 160.7-.8M21.2 97.7c-2.4 243.8-1 487.7 4 731.4.2 7.7.7 16.3 6.5 21.3s14.4 4.4 22.1 3.5c287.4-33.9 577.5-45 866.7-33 5 .2 10.5.3 14.4-2.9 4.8-3.9 5.2-11.1 5.1-17.3l-8.1-780C633.2 29.5 334.7 49.8 37.5 81.6c-5.2.6-11.2 1.5-14.1 5.9-2 2.9-2.1 6.7-2.2 10.2m254.4 864.9c2 4.2 7.7 4.5 12.2 4.3 113.3-5.3 226.6-10.7 340-16 6.3-.3 14.9-6.4 10-10.4-1.4-1.1-3.3-1.2-5.1-1.2-114.3-1.8-228.6 1.8-342.5 10.9-7.5.6-17.9 5.5-14.6 12.4zM70.5 767.2c-8-212.2-16-424.4-23.9-636.5-.2-5.3-.2-11.2 3.2-15.3 3.7-4.4 10-5.2 15.7-5.6 270.2-22.3 540.8-40.2 811.6-53.5 11.8-.6 28.1 2.9 27.7 14.7-7.4 233.1-6.2 466.5 3.8 699.5.3 6.1-1.5 14.6-7.7 14.4-266.9-6.8-534.3 3.2-799.9 29.9-10.6 1.1-20.4-6.8-25-16.4-4.6-9.6-5.1-20.5-5.5-31.2m188-268.7c4.9 40.7 15.8 81.2 37.4 116 21.6 34.8 54.9 63.4 94.5 74 28.5 7.6 58.6 5.6 87.7.9 19.2-3.1 38.7-7.7 55.1-18.2 12.4-8 22.5-19.1 31.9-30.5C617.6 576.9 652.8 499 666 417.4c6.7-2 9.5 8.3 8.5 15.2-12.2 87.4-52.2 170.7-112.8 234.8 28.4 26.2 56.9 52.4 85.3 78.6 5.9 5.4 11.9 10.9 19.2 14.2 9 4 19.1 4.4 29 4.6 60.7 1.5 121.3 3.1 182 4.6 8.3.2 19.6-2.4 19.2-10.7-9.9-223.9-12.1-448.2-6.5-672.3.3-11.2-15.1-14.6-26.3-14.2-262.7 9.6-524.9 30.9-786.9 52.1-5 .4-10.6 1.1-13.9 4.9-3.2 3.6-3.2 9-3 13.8 6.8 211.4 14.6 422.8 23.4 634.1.3 6.6.9 14 5.8 18.4 5.2 4.6 13 4.2 19.8 3.5 36.9-3.8 73.9-7.6 110.8-11.4 54.3-5.6 69.5-94.7 124-98.4-24.8 31.5-52.2 60.9-81.9 87.8 2.3 3.8 7.5 4 11.9 3.8 119.6-4.7 239.2-9.4 358.9-14.1 4.4-.2 10.4-2 9.8-6.4-18.6-17.3-37.2-34.6-55.7-51.9-16.8-15.7-40.6-32.4-60.7-21.2-39.5 22.1-87.5 28.4-131.5 17.4-43.9-11-83.3-39.2-107.8-77.3-18.4-28.6-28.3-61.8-36.7-94.7-3.1-12.6-3.7-30 8.6-34.1zM690.1 731.4c-5.3-4.9-5.6-13-5.5-20.3.5-39.2 1.8-78.4 3.9-117.6.3-6 1.1-12.7 6-16.2 3-2.1 6.9-2.5 10.6-2.7l104.1-6.9c7.2-.5 14.6-.9 21.4 1.5s12.8 8.6 12.7 15.8l-1.8 149.1c0 2-.1 4.2-1.2 5.9-2.8 4.2-9.4 2.2-13.3-1s-7.8-7.5-12.8-7.1c-35.3 3.5-70.9 4.9-106.4 4.2-6.3 0-13.1-.4-17.7-4.7m29.7-72.5c7-24.7 22.4-50.3 47.5-56 4.2-1 8.7-1.3 12.9-.3 10.2 2.4 17.1 12.2 20.1 22.3 6.3 20.7-.8 44.8-17.4 58.7-3.8 3.2-1.4 9.4 1.2 13.6 4.8 7.8 10 16 18.2 20.3 8.1 4.3 20.1 2.8 24.2-5.5 1.7-3.5 1.8-7.6 1.8-11.5l.3-108.3c0-7.6-10.4-9.8-18-9.4-32.3 1.5-64.7 3.7-96.9 6.5-3.3.3-7 .8-9 3.5-1.4 1.9-1.6 4.4-1.7 6.8-1.7 39.3-3.3 78.6-5 117.9 2 4.1 8.1.9 11.1-2.6 3.4-4 6.8-8 10.3-12.1 4.2-4.9 8.3-12.7 3.6-17.1-7.1-6.4-5.8-17.7-3.2-26.8m34.3 23.1c10.2-5.2 20.1-11.4 27.3-20.3 7.1-8.9 11-21 7.9-32-1.1-4-3.3-7.9-6.6-10.3-9.6-7-23.1.4-31.1 9.1-6.5 7.1-11.9 15.2-16 23.9-2.9 6.2-5.1 13-3.9 19.7 1.2 6.7 6.9 12.9 13.7 12.7 3.1-.1 5.9-1.5 8.7-2.8m-4 17.4c-11.5 2.9-25.2 7.9-27.2 19.6 18.6 1.4 37.3 1.7 56 1 1.5-.1 3.1-.2 4.3-1.1 3.1-2.5.2-7.5-2.8-10.2-5.2-4.8-10.8-9.9-17.9-10.8-4.1-.6-8.3.5-12.4 1.5zM230.1 357.9c-2.6 1.7-4.3 4.8-4.3 7.9 2.5 5 7.7 8 12.2 11.3 4.5 3.3 8.9 8.2 8.3 13.7-.6 5.6-9.2 9.2-11.9 4.3-2.9-5.3-11.2-5.2-15.8-1.2-4.5 4-6.1 10.4-6.8 16.4-1.3 11.2-.3 23.2 5.8 32.7 6.1 9.5 18 15.8 28.9 12.8 4-1.1 7.2 4.6 5.3 8.3-1.9 3.7-6.4 5.2-10.5 5.6-19.6 1.8-37.7-14.4-42.6-33.4-4.9-19 1.4-39.5 12.1-55.9 4.6-7.1 10.1-13.8 12.4-22 2.3-8.1.1-18.3-7.4-22.2-8.6-4.4-8.7-17.5-3.1-25.5s14.6-12.5 22.3-18.4c7.7-5.9 14.7-14.8 13-24.4 10.2-1.8 13.4 14.8 6.8 22.9-6.5 8-17.4 12.1-22.5 21.2-5.4 9.7-2.1 22.5 5.3 30.8s18.1 12.8 28.7 16.1c31.7 9.7 65.5 9.7 98.7 9.6 27.2 0 54.3-.1 81.5-.1 23.2 0 46.5-.1 69.6-2 57.2-4.8 113.6-21.4 162.8-51 6.3-3.8 12.6-13.6 6.1-17.1-11.6-6.2-17.9-21-14.4-33.7 1.7-6.2 5.4-11.8 6.4-18.2 1-6.4-2.5-14.3-8.9-14.6-7.7-.5-14.7-6.6-16.2-14.1-1.5-7.6 2.7-15.9 9.6-19.2-19.5-6.2-39-12.5-58.5-18.7-4.4-1.4-9.7-4.3-9-8.8.9-5.3 8.5-5.3 13.7-3.9 17.7 4.8 35.5 9.5 53.2 14.3 6.9 1.9 14.1 3.9 19.2 8.9s7.1 13.9 2.3 19.2c-5.8 6.4-.4 16.5 4.6 23.5 5 7.1 9.2 18.2 2.1 23.3-7.4 5.4-7.1 16.8-3.1 25.1 4 8.3 10.6 15.1 13.9 23.7 3.3 8.6 1.5 20.4-7 23.7-49.9 19.6-99.5 39.8-148.9 60.6 8.5 7.6 3 22.3-6.1 29.3-16.5 12.8-42.4 11-57.1-3.8-11.6-11.7-17-30.5-32.4-36.5-15.2-5.9-31.9 4-43.3 15.7-11.4 11.7-21.3 26-36.4 32-15.2 6-37.3-2.7-36.4-19 .6-11.2-9.1-20.7-19.6-24.5-10.6-3.8-22.1-3.6-33.2-5-17.8-2.6-34.9-9.3-49.4-19.7m252.6 38.3c3.2 4 6.4 8 10.6 10.9 14 10.1 36.7 3.5 43.1-12.5 1.8-4.5 1.8-10.8-2.5-13.1-1.3-.7-2.9-.9-4.4-1.1-16.5-1.7-33.4-.7-49.6 2.9-1.3.3-2.6.7-3.3 1.8-1.1 1.7.3 3.9 1.5 5.5 1.6 1.8 3.1 3.7 4.6 5.6m-144.9-7.7c-3 12.6 10.7 24.5 23.6 23.5s23.4-11.1 29.8-22.4c.6-1.1 1.2-2.3 1.4-3.6.5-5.3-6.7-7.3-12-7.1-14.7.7-29.3 4-42.8 9.6zM258.1 232.4c9.8-4.9 21.8-12.2 20.2-23-1.6-10.7 10.6-17.7 20.8-21.4 81.7-29.3 169.6-50.7 254.9-34.7 5.5 1 11.4 2.5 14.6 7 3.3 4.5 1.2 12.7-4.4 12.8-119.5 3.7-238 36.7-342.2 95.4 6.7 8.3-2.5 23.2-12.9 20.8-5.2 0-8.6-6.1-7.6-11.2s4.8-9 8.6-12.5c14.3-13.2 30.5-24.4 48-33.2m27.2-23.7c4.9 6.2 13.5 8.6 21.4 8 7.9-.6 15.4-3.7 22.8-6.6 53.1-21 109.1-34.6 165.9-40.4 10.1-1 20.5-1.9 29.5-6.6-4.1-4.6-10.9-5.1-17.1-5.2-71.7-1.1-143.5 12.8-209.6 40.6-5.1 2.2-10.8 4.9-12.9 10.2zM419.1 406.2c1.6.7 3.2 1.4 4.8 2.2-2.4 21.5-4.7 43-7.1 64.5-1.7 15.6-2.3 34.2 10.1 43.9 13 10.2 32.1 4.1 46.2-4.4 3.1-1.8 6.2-3.8 9.7-4.1 3.5-.3 7.6 1.6 8.3 5.1.6 2.9-1.2 5.6-3.2 7.8-7.8 8.6-19.4 12.7-30.8 14.9-10.2 2-21.2 2.8-30.7-1.5-11.9-5.4-19.3-18-21.9-30.8-2.5-12.8-1-26.1.6-39.1 1.8-14.5 3.5-29.1 5.3-43.6.8-6 2.7-13.5 8.7-14.9zM685.9 421.2c17.9-7.7 31.9-23.9 37-42.7 1.2-4.4 1.9-9.1.7-13.6-1.2-4.4-4.7-8.4-9.3-9.1-5-.7-9.6 2.7-14.4 4.1-4.9 1.4-11.9-1.4-10.8-6.4.2-1 .8-1.9 1.3-2.7 6-8.6 17.7-12.8 27.9-9.9 14.6 4.2 22.6 21.4 20.8 36.5-1.8 15.1-10.9 28.4-21 39.8-4.4 5.1-9.5 10.1-16 11.8-6.5 1.9-14.7-1.2-16.2-7.8zM367.8 287c-10.9 5.7-21.8 11.4-32.6 17.1-1.5.8-3.2 1.6-5 1.4-2.7-.4-4.4-3.4-4.2-6.1s1.8-5.1 3.5-7.1c9.9-11.9 26.2-18.1 41.5-15.9 2.5.4 3.4 3.7 2.3 6-.9 2.2-3.3 3.5-5.5 4.6zM501.7 266.5c7.8-2 16.1-2.8 23.8-.8 7.8 2.1 14.9 7.4 17.8 14.9.4 1.1.7 2.2.5 3.4-.9 3.9-6.6 3.3-10.1 1.5-6-3.1-12-7.1-18.7-6.9-4.4.2-8.5 2.2-12.8 2.4-4.3.3-9.5-2.3-9.5-6.7-.1-4.3 4.8-6.8 9-7.8zM460.7 601.9c-10.7 4-22.7 4.4-33.7 1.1-1.6-.5-3.3-1.1-4.5-2.4-3.3-3.8 1.1-10 6-11.1s10.1.6 15.1.3c4.9-.4 9.6-2.7 14.6-2.7s10.6 3.9 9.5 8.7c-.7 3.1-3.9 4.9-7 6.1zM360.6 333.1c-3.7 3.2-2.4 10.4 2.3 12 4.6 1.6 10.2-3.1 9.3-7.9-1-4.9-7.9-7.3-11.6-4.1zM509.2 333.8c3.3-.6 6.8 1.7 7.7 4.9s-1.1 7-4.2 8.1c-4.9-.9-8.7-6-8.1-10.9 1.5-.9 3.1-1.7 4.6-2.6v.5z"/></svg>