<svg xmlns="http://www.w3.org/2000/svg" viewBox="0 0 989.9 845.8" enable-background="new 0 0 989.9 845.8"><desc xmlns:shape="http://adobe.com/products/shape"><shape:version>1.0.2</shape:version><shape:captureDetail>0.884892</shape:captureDetail><shape:source>1</shape:source></desc><path fill="#29A3C5" d="M538.2 550.8c-21.5 30.4-51.6 54.8-85.7 69.8-16.6 7.3-33.8 14.7-36.2-8.9-2.3-22.9-1.1-46.7-1.7-69.7-.3-10.8-1.6-22.2-.8-33 1.1-14.4 4.3-11.6 15.6-11.7 19.3-.2 36.9-12.3 57.2-12.3 39.5 0 81.3 23.9 51.6 65.8m-109.7 56c-1.8 16.2 33.2-4.8 36.9-7 12.2-7.3 23.6-15.8 34.1-25.3 17-15.5 56.4-50.5 24.9-70.3-22.7-14.2-66.7-9.6-88 5.4-14.2 10-10.1 22.8-9.3 38.5 1 19.5 1.5 39.1 1.4 58.7-.4 3.2.1-27 0 0zM383.3 374.3c10.3-9.5 18.9 31.4 20.6 36 2.5 6.5 5.1 15.4 9.6 20.9 6.6 7.9 6.4 6.8 10.9-.8 8.9-15 8.6-37 15-53.3 1.6-4 1.5-11.3 8.1-8.9 8.1 2.9 2.3 15.6.9 20.7-3.3 12.5-14.9 81.2-33.3 70.5-11.6-6.6-41.7-76-31.8-85.1 2.4-2.1-2.3 2.2 0 0zM519.1 371.8c7.4-.1 14.8-.7 22.1-1.8 5-.7 17.3-6 21.7-4.7 9.9 2.9 6.5 10.8-1.3 14.4-12.3 5.7-22.5-1.8-24.7 16.4-1.7 13.8 0 29.1.1 43.1 0 8.4-1.5 26.1-10.9 11.4-6.1-9.5-2.8-38.4-2.3-49.2.2-4.2 2.9-12.6-.9-15.8-3.9-3.2-6.4.6-10.4-.3-14.7-3.5-6.4-13.3 6.6-13.5 14.8-.1-4.1.1 0 0zM468 445.2c.2-18.5-2.1-39.1 1.1-57.4 2.6-14.5 11.8-21.3 12.9-3.3 1 17.4-1.2 35.7-1.9 53.1-.1 3.9 2.1 18.7-3.9 19.8-7.2 1.5-8.2-7.3-8.2-12.2.2-14.9 0 3.5 0 0zM463.7 578.7c-23.1 12.8-20.4-22.1-20.8-35.7-.4-11.7-1.5-15.7 8.8-20.6 8.3-4 21.1-6.5 30.4-7.8 14.2-2 37.7 5.2 29.1 24.1-7.6 16.5-32.2 31.5-47.5 40m2.4-48.5c-10.7 3.8-14.2 14-11.6 24.8 4.6 18.4 17.1 4 26.3-3.5 5.2-4.2 22.2-14.7 16-23.2-4.9-6.8-25.2-.1-30.7 1.9zM253.6 470.8c-.8-59.2-5.4-125 8.4-183.1 11.8-49.3 54.5-69.6 89.9-100.1 8.1-7 17.4-15.1 22.9-24.4 6.3-10.7 1.2-22.4-.3-34.7-3-23.7-4-49.2 4.5-72C397.5 7.1 451.5 1.3 497.5 4.2c22.3 1.4 49.5 2.1 67.6 17.2 17.8 14.9 18 38 16.1 59.3-2 22.5-7.2 47.1 3.1 68.4 8.3 17.1 24.4 27.9 40.6 36.6 40.3 21.7 78 36.6 88.8 86 11.6 53.1 1.2 113.3-1.4 167l-9 189.3c-.8 16.9-7.8 53.8 12.5 63.2 10.4 4.8 27.5 2.2 38.9 2.7 15.9.7 31.7 1.5 47.6 2.5 31.7 2 63.3 4.5 94.9 7.7 14.6 1.5 29.2 3 43.7 4.7 11.4 1.3 29.3.1 39.1 7 17.3 12.1-9 9.9-17.2 9.8-16.2-.3-32.5-.7-48.7-1-32.5-.7-64.9-1.3-97.4-2-31.2-.6-62.4-1.6-93.6-1.9-11.7-.1-18.9-.8-20.5 11.3-1.6 12-.7 19.6-9.1 30-16.4 20.3-43.9 30.2-67.4 39.3-26.8 10.5-54.4 18.9-82.5 25.2-55 12.3-113.4 18-169.4 10.2-27.3-3.8-54.4-11.1-79.1-23.5-23.4-11.7-40.4-23-35.4-51.2 1.2-6.6 6.2-23.1-1.2-28.2-3.2-2.2-18.1 1.2-22.2 1.5-8.6.6-17.3 1.2-25.9 1.8-32.1 2.2-64.1 4.4-96.2 6.6-30.8 2.1-61.7 4.9-92.5 6.3-8 .4-25.7-1.7-13.8-9.9 10.6-7.2 32.9-8.5 45.5-11.2C113.3 716 174.6 710 235.9 711c12.8.2 20.2.2 24.3-13.4 3.7-12.3.8-27.2.3-39.7-1.3-30.6-2.6-61.1-3.9-91.7-1.5-31.5-2.5-63.4-3-95.4m147.2-300.3c-16.3-9.7-21.9 4.4-31.9 15.6-10.4 11.8-21.9 22.7-34.3 32.4-25.4 20-49 29.2-59.2 62.3-10.8 34.9-11.5 72.4-11 108.7.5 35.9-.3 72.8 2.7 108.7 1.4 16 4 16.4 18.4 15.7 6.8-.3 13.4.1 19.8 2.7 8.6 3.4 10.9 9 14.4-1.5 4.9-14.6.8-37.8 1.1-53.3l.9-55 .9-55c.3-15.8 4.2-36.5.3-51.8-.5-1.9-7.3-12-6.7-13.5 2.5-6 11.4-2.6 15.8-1.9 19.2 3 38.4 5.4 57.7 6.9 82.4 6.2 165.4-2.3 246-19.9-.1 20.3-40 22-52.9 24.1-26.1 4.3-52.3 7.4-78.7 9.2-52.2 3.6-102.6-1.2-154.6-4.2-13.7-.8-15.9.8-16.4 14.9-.4 12.3-.3 24.7-.4 37l-.9 81.4c-.6 54.3-1.8 108.6-1.8 162.9 0 19.7 1.7 37.8 18 50.9 18.3 14.7 43.3 23.4 65.3 30.2 46.7 14.4 96.6 19.9 143.1 2.2 18.7-7.1 36.3-17.4 51.5-30.4 21.3-18.2 17.9-35.8 17.5-62.3-.8-53.8-.5-107.5.9-161.3.8-30 1.9-60 3.3-90 .5-9.9-3-33.7 2.6-42.4 9.6-14.8 9.4 5.6 9.2 13-2.2 62.1-4.3 124.2-6.5 186.3 12.5-2.2 45.6-13.4 50.1 6.4 3.8 16.8-19 32.2-31.8 37.2-5.1 2-17.3 1.4-17.6 8.3-.5 9.8 11.6 5.4 15.7 2.2 6.9-5.2 9.3-12.3 19-12.6 8.3-.3 17 5.4 21.6 12 8.4-39.6 6.6-82.7 8.7-123 2.2-42.9 7.6-86.8 5.5-129.7-1.8-36.3-16.1-65.3-50.7-78.8-33.4-13.1-62.9-34.3-84.5-63.1-44.4 42.1-117.4 49.9-170.1 18.5m72.9 8.1c29.2 2.5 56.7-11.8 80.9-26.4 15.7-9.6 14.8-15.4 14.9-33.2.1-13.9.1-27.8.2-41.7 0-9.1 3.9-22.8-5.1-24.9-5.8-1.4-30.2 13.1-37.3 15.3-26.8 8.4-55.2 12-83.3 10.5-13-.7-25.9-2.5-38.5-5.4-17.5-4-20.4-2.9-20.2 15.9.2 14 .3 28.2 1.4 42.1.5 6.7 4.6 29.7 13.1 16.4 4.3-6.7-2.5-28.2-2.8-36.7-.1-4.8 0-37 11.5-22.1 8.5 11-16.4 74 7 76.5 2.7-15.1 2-29.6 3.3-44.6.5-6.4 5.3-20.8 11.7-9.2 4 7.2-13.2 74.5 14.7 61.9 9.2-4.2-2-67.3 11.2-60.7 7.4 3.7 3.4 29.5 3.3 36.5-.2 13-3 28.4 14 29.8M391.8 46.5c-13.1 9.9 31.3 17.1 34.5 17.5 15.8 1.9 31.7 1.8 47.5.2 15.9-1.6 31.7-4.8 47.1-9.1 9.9-2.7 37.3-6.9 40.1-19.3 3.6-16.1-24.5-12.2-34.1-13.3-16.6-1.7-33.1-5.5-49.7-6.8-28.2-2.2-63.4 14.2-85.4 30.8m122.3 729.7c18.5-13.5-14-26.7-23.8-27.2-18.4-1-30 16.5-33.1 33.4-2.9 16 8.2 33.1 26.2 27.5 15.7-4.8 18.4-24.7 30.7-33.7m3 27.4c-7.6 6.1 7.3 9.5 10.4 9.6 10.2.3 22-3.8 31.5-7.4 12-4.6 43.7-16.1 36.6-33.9-6-14.9-37.4-10.5-48.8-6.2-19.2 7.3-15.5 26.6-29.7 37.9M326.5 653.1c19.4 11.5-7.2 23.2-15.3 31.7-5.3 5.6-13.5 14.3-9.4 22.2 4.5 8.7 22 10 30.1 9.6 11.3-.6 45.5-7.5 42.2-23.9-1.1-5.6-8.9-12.7-14-14.4-6.2-2.1-17.9 3.4-22.4-3.6 1.6-2.6 8.3-3 9.1-5.9 1.7-6.4-2.7-3.6-4.7-8-3.7-7.7-4-14.2-15.6-7.7m286.4 95c-7.9 4.7-6.9 15.8-1.5 21.9 7.4 8.5 20.2 7.5 29.9 5.2 22.4-5.3 42.9-19 54-39.5-6.3-3.6-13.3-.9-19.8.1-9.8 1.5-12.3-.7-21.4-3.4-14.5-4.3-28.9 8.5-41.2 15.7M504.8 726c18.5-11.3 6.2-22-9.9-22.2-9.6-.1-18.8-.8-28.3-2.3-4.7-.7-21.4-6.5-25.1-3-9 8.4 7.6 30.2 15.3 34.2 15.6 8.3 33.9 1.9 48-6.7m-136-1.8c-24.1-12-66.4 38.1-34.2 46.8 12.7 3.4 34.6-8.6 44.5-15.6 8.7-6.2 7.8-6.3 2.3-15.2-2.9-4.7-7.2-13.3-12.6-16M384 824.7c10.6-7.6-5.8-30.5-13.2-34.4-14.2-7.4-30.5-.7-43.3 6.3-19.4 10.6-5.7 15.3 9.6 20.2 9.7 3 37.8 14.5 46.9 7.9m55.5-90.5c-5.7-6.4-11.5-.2-8 6.6-12.5 2.7-27.1 10.8-33.1 22.7-6.1 12.1-1 25.9 13.8 26.2 11 .2 24.8-9.8 30.3-18.7 9.6-15.4-4.6-17.8-9.1-30.3 3.2.2 6.6-3.3 6.1-6.5m190.7-24c12.4-5.6 24.1-17.1 28.4-30.3 3.2-9.9-8.8-34.7-21-26.1-3.7 2.6-3.7 11.1-7.3 14.8-5 5.1-10.7 6.2-14.3 13.2-5.4 10.2-3.2 36.3 14.2 28.4m60.6-151.8c-14.7-24.2-62.8 6-52.6 27 8.4 17.2 64.1-8.1 52.6-27M304.3 733.7c-10.7 10.2-24.2 26.2-27 41.2-3 16.3 12.7 23.5 25.1 13.5 11.9-9.7 2-23.7 7.9-37.1 1.3-2.9 12.7-18.3 11.6-20.5-3.5-7.8-14.3-.2-17.6 2.9m219.3 12.9c18.4 27.6 40.9-30.5 36.3-44.8-6.3-20.1-49.2 25.5-36.3 44.8M313.5 626.2c-14.3-28.1-39.1 12.4-26.1 30 6.7 9.1 21.8 13.6 30.6 5.1 10.6-10.2.8-24.8-4.5-35.1m96.8 107c27.2-2.8 26.7-45.6-.8-42.1-26.3 3.3-33.4 45.6.8 42.1m160.7-3.9c1.4 17.6 20.1 7.4 26.3-1.4 6.9-9.8 2.9-23.3 2.7-34.8-.2-12.6-8.3-21.2-17.8-10.5-9.9 11.1-12.4 32.6-11.2 46.7M318.9 554c-15.2-8.7-42.6 34.7-20.4 47.2 8.7 4.9 18.4 10.8 21.3-1 3.3-13.3-.6-32.5-.9-46.2m358.9 113.9c-4.7 9.8-19 29-19.2 40.2-.2 12.1 15 12.5 23.1 7.3 9.3-6 12.1-18.2 12-28.5 0-4.2-8.5-34.5-15.9-19m9.6-62.4c-13.6-12.1-57.1 28.5-31.3 38.8 8.6 3.4 26.6-2.3 32.5-9 11.7-13.3-8-14.7-9.3-25 3.1-.9 5.8-2.5 8.1-4.8M459.5 822.3c-6.1-4.2-9.4-10.3-14.6-15-6.6-5.9-2.9-8.8-13.5-6.2-7 1.7-29.7 9.5-30.4 19.1-.9 11.5 20.4 7.8 26.8 7.7 2.3 0 37.2-.1 31.7-5.6M272.7 653.7c.6-9.5 1.2-19.2 4.6-28.1 4.1-11 6.1-13.5 3.1-24.6-2.4-9.1-2.8-17.6.8-26.5 2.6-6.2 16.7-18.1 14.1-24.9-7.9 2.6-20.6 4.2-25.2 11.7-5 8.1-1.1 24.1-.8 33.1.4 11.4 2.6 24.2.4 35.4-1 5.3-9.8 23.6 3 23.9m16.2 73c16.9.4.4-18 1.4-27.2 1.8-15.8 13.5-19.5-6.7-29.3-7.3-3.6-7.2-5.8-11.5 1.1-2.3 3.8-.2 21.7.8 26.3 1.4 6.5 8.5 9.9 9.6 15 2.3 10.6-11.4 3.6-9.7 13.7 5.5.2 10.8.3 16.1.4m352.8-216.6c-5.3 7.4-1.6 15.2 7.2 15.7 7.8.5 17.3-8.6 21.3-14.6 13.1-19.7-21.6-10.8-28.5-1.1m-374.1 24.1c-1.3 18.4 35.6 3.2 39.8-6.2-8.1-4.1-38.7-9.5-39.8 6.2m522.1 172.9c-17.6-.8-35.3-1.6-52.9-2.4-4.7-.2-37.8-2.7-26.4 5 8.8 6 31.9 2.3 42.4 2.5 9 .2 30.9 4.3 36.9-5.1m-141.3 8c-4.3-2.7-28.6 8.7-33.8 11.6-5.8 3.3-26.5 19.7-23.7 26.9 2.3 6 21.9-15.5 24.6-17.7 7.5-5.9 32-10.6 32.9-20.8M467.2 827c5.5 5.9 42.4-1 41.3-11.4-8.7-3.2-16.5 3.6-24.3 5.8-2.6.8-21 1.3-17 5.6m138.4-152.9c3.6-2.5 25-20.1 19.8-25.2-7.2 3-30.4 18.4-19.8 25.2M199.8 726c-1.1 4.1 45.1 4.2 42-3.1-5.5-.4-40.3-3.3-42 3.1m437.6-101.4c3.5-3.6 27-23.2 7.7-19.9-5.5 1-8.6 5.5-10 10.6-.4 1.3-1.7 13.2 2.3 9.3m-30.1 175.5c8.8-2.8 25.6-15.5 6.3-12-7.3 1.4-17.3 15.5-6.3 12m-331.7-52c6.2 1.9 16.2-12.9 11-15.8-7.9-4.3-20.2 13-11 15.8m45.5 33.3c-15 6.9 9.7 14.5 8.9-3.1-3.3-.2-6.2.7-8.9 2.6m-73.8-55.1c7 2.3 15 1.1 21.1-3-4-1.1-23.8-6.2-21.1 3M459 753.4c7.2-2.3-5.9-11.8-11.4-10.4.5 4.5 5.9 12.1 11.4 10.4m-78-67.3c3.4 3.6 14.9 5 11.1-2.8-3-6-15.3-1.6-11.1 2.8m-182.2 41.4c-2.8-1.8-23-7.4-22 1.2 7.3 1.5 14.9 1.1 22-1.2m485.7-137c1.4 10.5 12 2.9 12.4-4-4.1-1.9-10 .1-12.1 4.1M568.1 754.4c12.1-6-1.3-11-5.5-6.1-3.8 4.5.2 7.9 5.2 6.2m118.1-97.7c-.4 1.4-.9 2.8-1.3 4.1 5.5 1.9 12.1-2.5 12.6-8.2-3.8-1.7-9.3.4-11 4.2m104.3 51.2c3 2.7 19.8 10.5 17.3 0-5.7-.7-11.6-.7-17.3 0m-414.3 70.6c4.2 2 9.9-3.7 7.4-7.8-2.8-4.6-11.5 2.5-7.7 7.7m147.4-71.9c2.5-1.2 3.2-3 2.3-5.6-4.6-1.3-10.3 3.1-10.3 7.9 3 .4 5.6-.3 8-2.2m-18.1 37.3c3.5 1.1 7.8-2.5 7.5-6.1-3.7-.9-14.5 4.2-7.5 6.7m160.2-83.6c2.8 2.7 8.7-.2 8.3-4-3-2.3-8.5.1-8.9 3.8M313.1 542.3c3.2 4.3 5.6 3.6 7.2-1.9-2.6-1.5-5-1.2-7.1 1M400.3 800c-1.6-.1-3.2-.3-4.8-.4-2 3.1 2.2 5.3 4.8.4z"/></svg>