<svg xmlns="http://www.w3.org/2000/svg" viewBox="0 0 515.1 446.9" enable-background="new 0 0 515.1 446.9"><desc xmlns:shape="http://adobe.com/products/shape"><shape:version>1.0.2</shape:version><shape:captureDetail>0.750000</shape:captureDetail><shape:source>1</shape:source></desc><path fill="#29A3C5" d="M300.2 53.5c-42.7-16.6-95.8-.5-132.3 23.9-9.3 6.2-17.9 13.4-26 21.2-6.9 6.7-14.3 15.4-24.8 15.7-28.6.8-13.1-35.8-2.6-46.9 61.3-65.4 177.4-82.6 248-23.7 8.8 7.3 19.2 16.5 22 28.2 2.8 11.9-5 21.1-17.1 20.9-12.6-.2-22.8-10.5-32.2-17.7-10.8-8.5-22.1-16.6-35-21.6M393.6 343.4c1.1 22.6 8.2 54-1.1 75.5-7.9 18.2-35.5 23.4-39.1-.4-3.7-24.7 3.6-51.3-1.8-75.7-4.3-19.6-34.4-14.4-31.3-39 3.1-24.3 33.6-11.8 36.7-34 3-21.8-4.9-42.1 12-60.7 12.6-13.8 38.8-18.2 49.3.8 3.9 7.1 3.7 16.3-.7 23.2-5.2 8.2-15.4 10.1-20.7 18.6-5.2 8.3-8.5 23.3 1.9 28.7 10.2 5.3 19.4 3.6 25.6 15.7 5.5 10.8 2.3 23.9-7 31.5-7 5.7-24.3 4-23.8 15.8M61.5 332.1c1.2 9.9 12.2-.3 13.7-4.3 3.7-10.1 4.3-22.3 6.2-32.9 2.6-13.8 4.9-34.4 19.6-41 17.2-7.8 31 9.9 35.8 24.1 2.7 7.9 6.2 49.1 15.7 47.8 10.2-1.4 12-47.5 13.9-56.8 2.7-13.4 4.7-43.3 23.3-44.9 19.7-1.6 14.9 27.1 13.6 38.5-2.5 22.5-5 45-7.5 67.4-2.5 22.5-5 45-7.5 67.4-1.6 14.8.6 40.5-19.1 43.2-19.6 2.7-29.1-18.2-32.5-33.8-4.3-19.6-7.8-38.4-16.6-56.8-3.1-6.4-7.1-15.2-15.2-9.1-6.8 5.2-7.3 21.8-8.9 29.4-4.1 18.9-5.8 41.4-13.8 59.1-7.4 16.3-21.7 12.9-28.5-1.7-8.7-18.6-13.4-40.3-18.7-60.1-6.6-24.7-12.2-49.5-17.6-74.5-3.1-14.6-15.9-45.8-4.8-59.3C29 214 44.2 246.2 47.4 258.6c6.4 24.1 11 48.7 14.1 73.5M344.4 125c-1.3 8.6 6.3 13-3 19.8-7.3 5.3-16.5 3.2-23.6-1.1-8.6-5.1-15.1-12.9-23.9-17.7-10.1-5.5-21.5-8.2-32.9-8.6-21-.8-41.2 6.3-59.1 16.9-10.6 6.3-19.9 14.1-29.6 21.8-6.8 5.4-13.3 8.1-20.8 1.2-17.5-16.1 8.7-41.4 21-50.9 16.5-12.9 36.4-21.1 56.7-25.7 24.1-5.5 50.3-6.6 73.8 2.4 14.9 5.7 44.3 22.7 41.4 41.9M461 298.7c-.6-13.4 12.2-24.5 25.3-22 14.3 2.7 18.4 15.9 19.1 28.6.9 17.8.7 35.8 1 53.7.3 17.9 2.5 36.9.2 54.7-1.6 12.5-9.1 26.8-23.7 26.4-15.5-.4-16.7-18.2-17.3-29.9-1.9-37.1-3-74.3-4.6-111.5M261.2 436.5c-15.2-4.9-15.7-24.1-16.2-37.1-.6-17-1.1-34-1.7-51-.6-16.3-10.4-84.7 26.8-67.2 14.6 6.9 12.7 24.7 13.8 38.2 1.4 17.2 2.8 34.3 4.2 51.5 1.2 14.8 4.9 32.1.5 46.7-3.4 11.2-14.7 22.9-27.4 18.9M199.6 189.5c-7.8-27.2 19.9-46 42.7-50.8 19.4-4.1 64.1-2.9 67.1 24.7.9 8.3-3.7 22.7-11.8 26-12.8 5.2-24.2-6.8-35.9-9.8-15.4-3.9-21.8 6.6-32.5 15.2s-25.1 10.5-29.6-5.3M278 233.5c3.6 25.9-35.8 37.8-41.3 10.7-2.4-11.6 5-26.7 17.5-27.7 11.2-.8 22.2 5.4 23.8 17M481.3 247.5c-30.1 1.8-26.9-40.9-1.6-44.2 26.4-3.5 27.6 42.6 1.6 44.2"/></svg>