<svg xmlns="http://www.w3.org/2000/svg" viewBox="0 0 1000 844.2" enable-background="new 0 0 1000 844.2"><path fill="#fff" d="M77.4 561.2c-21-36-34-82-24-106 11-27 21 57 38 97 40-24 94-44 157-58-9-29-29-78-22-82 6-4 29 35 44 77 16-3 32-6 49-8-15-53-41-89-58-111-34-42-86-31-134-24-33 5-67 15-86 33-51 49-55 139-7 221 10-14 25-27 43-39zM117.4 329.2c20-2 75-2 66-83-3-27-34-58-81-52-41 5-57 40-52 81 4 41 47 56 67 54zM411.4 248.2c5 40 48 56 68 54s75-2 65-83c-3-27-34-58-81-52-41 5-57 40-52 81zM927.4 375.2c19 0 70 7 70-70 0-25-25-57-70-58-39 0-57 31-58 70 1 38 39 58 58 58zM577.4 471.2s-4-74 11-92c35-41 90-118 76-232-2-18-10-38-28-37s-23 18-22 36c5 77-21 134-45 160-19 20-43 22-98 22-34 0-62-12-83-36-30-33-51-82-44-142 2-18-2-38-20-40s-31 15-32 33c-4 132 60 185 75 221 14 33 8 109 8 109 37-4 77-6 117-6 29 2 57 3 85 4zM440.4 93.2c2 4 6 7 10 7 1 0 2 0 4-1 6-2 9-8 7-14l-24-67c-2-6-8-9-14-7s-9 8-7 14l24 68zM398.4 118.2c2 2 5 3 8 3s5-1 7-3c4-4 5-11 0-15l-40-42c-4-4-11-5-15 0-4 4-5 11 0 15l40 42zM556.4 128.2c3 0 6-1 9-4l34-43c4-5 3-11-2-15s-11-3-15 2l-34 43c-4 5-3 11 2 15 2 2 4 2 6 2zM502.4 101.2h2c5 0 10-4 11-9l14-80c1-6-3-11-9-12s-11 3-12 9l-14 80c-2 5 2 11 8 12zM497.4 686.2l-11 2-30 6 28 39 45-31-36-45 2 18zM439.4 677.2l35-7-8-41-2-12-4-18-53 10 8 43 2 12 3 16 7-1zM229.345 616.56l55.984 46.845-35.295 42.18-55.983-46.845zM598.28 555.53l13.52 71.736-54.05 10.186-13.52-71.737zM939.4 638.2c-1 0-1 1-2 1-25 14-57 23-93 27h-5c-23 0-50-20-53-47v-2c0-22 19-38 50-41 12-1 22-3 32-5h-1c-15-8-52-23-79-34-80-27-185-43-299-43-252 0-456 78-456 175s204 175 456 175 456-78 456-175c1-10-1-21-6-31zm-638 38l-35 42-13 15-15-13-56-47-15-13 13-15 35-42 13-15 15 13 56 47 15 13-13 15zm239 42l-45 32-16 12-12-16-28-39-5-8-3 1-7 1-20 4-4-20-3-16-2-12-8-43-4-20 20-4 54-10 20-4 4 20 3 18 25 31 36 45 13 17-18 11zm2-57l-4-20-13-71-4-20 20-4 54-10 20-4 4 20 14 71 4 20-20 4-54 10-21 4zm158 94l-63 2-20 1-1-20-2-47-1-20 20-1 63-2 20-1 1 20 2 47 1 20-20 1zM697.576 687.668l1.857 46.962-62.95 2.49-1.856-46.964zM999.4 465.2v-8c0-13-8-28-18-35-20-14-66-25-97-25-15 0-28 4-40 8-28 9-65 6-69-7-5-16-3-65 5-110 3-18 5-44-13-47s-34 8-38 26c-15 84-19 137-10 158 11 25 55 39 87 39 8 0-5 35-17 53 41 13 77 28 106 46 25-13 29-34 36-69 0-1 0-1 1-2 5-17 23-11 21 1-3 21-6 40-16 56-6 9-13 17-24 24-3 2-7 4-11 6s-8 3-12 5c-3 1-6 2-10 3-12 3-25 6-42 7-18 2-32 9-32 21 2 17 22 31 35 29 36-4 64-12 85-24 1-1 2-1 4-2l9-6c3-2 6-4 8-6 48-40 50-101 50-136 2-1 2-3 2-5z"/></svg>